<svg xmlns="http://www.w3.org/2000/svg" xmlns:xlink="http://www.w3.org/1999/xlink" viewBox="0 0 842.24 549.18"><defs><style>.cls-1{mask:url(#mask);}.cls-10,.cls-11,.cls-13,.cls-14,.cls-16,.cls-17,.cls-19,.cls-2,.cls-20,.cls-22,.cls-23,.cls-25,.cls-26,.cls-28,.cls-30,.cls-31,.cls-33,.cls-35,.cls-36,.cls-37,.cls-4,.cls-40,.cls-42,.cls-44,.cls-46,.cls-48,.cls-50,.cls-53,.cls-55,.cls-57,.cls-59,.cls-6,.cls-61,.cls-67,.cls-7,.cls-9{mix-blend-mode:multiply;}.cls-2{fill:url(#radial-gradient);}.cls-3{mask:url(#mask-2);}.cls-4{fill:url(#radial-gradient-2);}.cls-5{mask:url(#mask-3);}.cls-6{fill:url(#radial-gradient-3);}.cls-7{fill:url(#radial-gradient-4);}.cls-8{mask:url(#mask-5);}.cls-9{fill:url(#radial-gradient-5);}.cls-10{fill:url(#radial-gradient-6);}.cls-11{fill:url(#radial-gradient-7);}.cls-12{mask:url(#mask-8);}.cls-13{fill:url(#radial-gradient-8);}.cls-14{fill:url(#radial-gradient-9);}.cls-15{mask:url(#mask-10);}.cls-16{fill:url(#radial-gradient-10);}.cls-17{fill:url(#radial-gradient-11);}.cls-18{mask:url(#mask-12);}.cls-19{fill:url(#radial-gradient-12);}.cls-20{fill:url(#radial-gradient-13);}.cls-21{mask:url(#mask-14);}.cls-22{fill:url(#radial-gradient-14);}.cls-23{fill:url(#radial-gradient-15);}.cls-24{mask:url(#mask-16);}.cls-25{fill:url(#radial-gradient-16);}.cls-26{fill:url(#radial-gradient-17);}.cls-27{mask:url(#mask-18);}.cls-28{fill:url(#radial-gradient-18);}.cls-29{mask:url(#mask-19);}.cls-30{fill:url(#radial-gradient-19);}.cls-31{fill:url(#radial-gradient-20);}.cls-32{mask:url(#mask-21);}.cls-33{fill:url(#Áåçûìÿííûé_ãðàäèåíò_20);}.cls-34{mask:url(#mask-22);}.cls-35{fill:url(#Áåçûìÿííûé_ãðàäèåíò_20-2);}.cls-36{fill:url(#radial-gradient-21);}.cls-37{fill:url(#radial-gradient-22);}.cls-38{isolation:isolate;}.cls-39{mask:url(#mask-25);}.cls-119,.cls-40,.cls-42,.cls-44,.cls-46,.cls-48,.cls-50,.cls-53,.cls-55,.cls-57,.cls-59,.cls-61{opacity:0.8;}.cls-40{fill:url(#radial-gradient-23);}.cls-41{mask:url(#mask-27);}.cls-42{fill:url(#radial-gradient-24);}.cls-43{mask:url(#mask-29);}.cls-44{fill:url(#radial-gradient-25);}.cls-45{mask:url(#mask-31);}.cls-46{fill:url(#radial-gradient-26);}.cls-47{mask:url(#mask-33);}.cls-48{fill:url(#radial-gradient-27);}.cls-49{mask:url(#mask-35);}.cls-50{fill:url(#radial-gradient-28);}.cls-51{fill:#efefef;}.cls-52{mask:url(#mask-37);}.cls-53{fill:url(#radial-gradient-29);}.cls-54{mask:url(#mask-39);}.cls-55{fill:url(#radial-gradient-30);}.cls-56{mask:url(#mask-41);}.cls-57{fill:url(#radial-gradient-31);}.cls-58{mask:url(#mask-43);}.cls-59{fill:url(#radial-gradient-32);}.cls-60{mask:url(#mask-45);}.cls-61{fill:url(#radial-gradient-33);}.cls-118,.cls-119,.cls-62{fill:#fff;}.cls-63{opacity:0.7;}.cls-64{fill:#d8dae6;}.cls-65{fill:#a3abd4;}.cls-66{fill:#e3e5f6;}.cls-67{opacity:0.05;}.cls-68{fill:#001c23;}.cls-68,.cls-69{fill-rule:evenodd;}.cls-69{fill:#f9f9f9;}.cls-70{fill:#1a1918;}.cls-71{fill:#d33833;}.cls-72{fill:#ef3d3a;}.cls-73{fill:#231f20;}.cls-74{fill:#f0d6b7;}.cls-75{fill:#335061;}.cls-76{fill:#6d6b6d;}.cls-77{fill:#dcd9d8;}.cls-78{fill:#f7e4cd;}.cls-79{fill:#49728b;}.cls-80{stroke:#d33833;stroke-width:2px;}.cls-81{fill:#81b0c4;}.cls-82{fill:#1d1919;}.cls-83{fill:#326de6;}.cls-84{fill:url(#linear-gradient);}.cls-85{fill:#0078d4;}.cls-86{fill:url(#linear-gradient-2);}.cls-87{fill:url(#linear-gradient-3);}.cls-88{fill:#ea4335;}.cls-89{fill:#4285f4;}.cls-90{fill:#34a853;}.cls-91{fill:#fbbc05;}.cls-92{fill:#252f3e;}.cls-93{fill:#f90;}.cls-94{fill:url(#Áåçûìÿííûé_ãðàäèåíò_37);}.cls-95{fill:url(#Áåçûìÿííûé_ãðàäèåíò_37-2);}.cls-96{fill:#ff5a74;}.cls-97{fill:url(#Áåçûìÿííûé_ãðàäèåíò_42);}.cls-98{fill:url(#Áåçûìÿííûé_ãðàäèåíò_31);}.cls-99{fill:url(#Áåçûìÿííûé_ãðàäèåíò_37-3);}.cls-100{fill:url(#Áåçûìÿííûé_ãðàäèåíò_42-2);}.cls-101{fill:url(#Áåçûìÿííûé_ãðàäèåíò_31-2);}.cls-102{fill:url(#Áåçûìÿííûé_ãðàäèåíò_37-4);}.cls-103{fill:url(#Áåçûìÿííûé_ãðàäèåíò_37-5);}.cls-104{fill:url(#Áåçûìÿííûé_ãðàäèåíò_42-3);}.cls-105{fill:url(#Áåçûìÿííûé_ãðàäèåíò_42-4);}.cls-106{mask:url(#mask-47);}.cls-107,.cls-109{opacity:0.32;}.cls-107{fill:url(#Áåçûìÿííûé_ãðàäèåíò_29);}.cls-108{mask:url(#mask-48);}.cls-109{fill:url(#Áåçûìÿííûé_ãðàäèåíò_29-2);}.cls-110{fill:url(#Áåçûìÿííûé_ãðàäèåíò_37-6);}.cls-111{fill:url(#Áåçûìÿííûé_ãðàäèåíò_15);}.cls-112{fill:#5752d0;}.cls-113{fill:#3fff94;}.cls-114{fill:#01c0ff;}.cls-115{fill:#ff7c0d;}.cls-116{fill:#223361;}.cls-117,.cls-120,.cls-121{opacity:0.13;}.cls-117{fill:url(#Áåçûìÿííûé_ãðàäèåíò_15-2);}.cls-118{opacity:0.4;}.cls-120{fill:url(#Áåçûìÿííûé_ãðàäèåíò_15-3);}.cls-121{fill:url(#Áåçûìÿííûé_ãðàäèåíò_15-4);}.cls-122{fill:none;}.cls-123{filter:url(#luminosity-noclip-37);}.cls-124{filter:url(#luminosity-noclip-36);}.cls-125{filter:url(#luminosity-noclip-22);}.cls-126{filter:url(#luminosity-noclip-21);}.cls-127{filter:url(#luminosity-noclip-19);}.cls-128{filter:url(#luminosity-noclip-18);}.cls-129{filter:url(#luminosity-noclip-16);}.cls-130{filter:url(#luminosity-noclip-14);}.cls-131{filter:url(#luminosity-noclip-12);}.cls-132{filter:url(#luminosity-noclip-10);}.cls-133{filter:url(#luminosity-noclip-8);}.cls-134{filter:url(#luminosity-noclip-5);}.cls-135{filter:url(#luminosity-noclip-3);}.cls-136{filter:url(#luminosity-noclip-2);}.cls-137{filter:url(#luminosity-noclip);}</style><filter id="luminosity-noclip" x="198.15" y="-8467" width="125.58" height="32766" filterUnits="userSpaceOnUse" color-interpolation-filters="sRGB"><feFlood flood-color="#fff" result="bg"/><feBlend in="SourceGraphic" in2="bg"/></filter><mask id="mask" x="198.15" y="-8467" width="125.58" height="32766" maskUnits="userSpaceOnUse"><g class="cls-137"/></mask><radialGradient id="radial-gradient" cx="260.94" cy="408.51" r="62.79" gradientTransform="translate(0 14.75) scale(1 0.95)" gradientUnits="userSpaceOnUse"><stop offset="0" stop-color="#fff"/><stop offset="0.14" stop-color="#d0d0d0"/><stop offset="0.38" stop-color="#878787"/><stop offset="0.59" stop-color="#4d4d4d"/><stop offset="0.77" stop-color="#232323"/><stop offset="0.92" stop-color="#090909"/><stop offset="1"/></radialGradient><filter id="luminosity-noclip-2" x="422.58" y="-8467" width="111.41" height="32766" filterUnits="userSpaceOnUse" color-interpolation-filters="sRGB"><feFlood flood-color="#fff" result="bg"/><feBlend in="SourceGraphic" in2="bg"/></filter><mask id="mask-2" x="422.58" y="-8467" width="111.41" height="32766" maskUnits="userSpaceOnUse"><g class="cls-136"/></mask><radialGradient id="radial-gradient-2" cx="478.29" cy="435.48" r="55.7" gradientTransform="translate(0 14.75) scale(1 0.95)" gradientUnits="userSpaceOnUse"><stop offset="0" stop-color="#fff"/><stop offset="0.37" stop-color="#fdfdfd"/><stop offset="0.51" stop-color="#f6f6f6"/><stop offset="0.6" stop-color="#ebebeb"/><stop offset="0.68" stop-color="#dadada"/><stop offset="0.75" stop-color="#c4c4c4"/><stop offset="0.8" stop-color="#a8a8a8"/><stop offset="0.86" stop-color="#888"/><stop offset="0.91" stop-color="#626262"/><stop offset="0.95" stop-color="#373737"/><stop offset="0.99" stop-color="#090909"/><stop offset="1"/></radialGradient><filter id="luminosity-noclip-3" x="358.29" y="-8467" width="121.93" height="32766" filterUnits="userSpaceOnUse" color-interpolation-filters="sRGB"><feFlood flood-color="#fff" result="bg"/><feBlend in="SourceGraphic" in2="bg"/></filter><mask id="mask-3" x="358.29" y="-8467" width="121.93" height="32766" maskUnits="userSpaceOnUse"><g class="cls-135"/></mask><radialGradient id="radial-gradient-3" cx="419.25" cy="401.48" r="60.97" xlink:href="#radial-gradient"/><radialGradient id="radial-gradient-4" cx="419.25" cy="401.48" r="60.97" xlink:href="#radial-gradient-2"/><filter id="luminosity-noclip-5" x="471.03" y="-8467" width="170.15" height="32766" filterUnits="userSpaceOnUse" color-interpolation-filters="sRGB"><feFlood flood-color="#fff" result="bg"/><feBlend in="SourceGraphic" in2="bg"/></filter><mask id="mask-5" x="471.03" y="-8467" width="170.15" height="32766" maskUnits="userSpaceOnUse"><g class="cls-134"/></mask><radialGradient id="radial-gradient-5" cx="556.11" cy="431.59" r="85.08" xlink:href="#radial-gradient"/><radialGradient id="radial-gradient-6" cx="556.11" cy="431.59" r="85.08" xlink:href="#radial-gradient-2"/><radialGradient id="radial-gradient-7" cx="260.94" cy="408.51" r="62.79" xlink:href="#radial-gradient-2"/><filter id="luminosity-noclip-8" x="582.73" y="-8467" width="111.41" height="32766" filterUnits="userSpaceOnUse" color-interpolation-filters="sRGB"><feFlood flood-color="#fff" result="bg"/><feBlend in="SourceGraphic" in2="bg"/></filter><mask id="mask-8" x="582.73" y="-8467" width="111.41" height="32766" maskUnits="userSpaceOnUse"><g class="cls-133"/></mask><radialGradient id="radial-gradient-8" cx="638.44" cy="459.96" r="55.7" xlink:href="#radial-gradient"/><radialGradient id="radial-gradient-9" cx="638.44" cy="459.96" r="55.7" xlink:href="#radial-gradient-2"/><filter id="luminosity-noclip-10" x="232.95" y="-8467" width="112.57" height="32766" filterUnits="userSpaceOnUse" color-interpolation-filters="sRGB"><feFlood flood-color="#fff" result="bg"/><feBlend in="SourceGraphic" in2="bg"/></filter><mask id="mask-10" x="232.95" y="-8467" width="112.57" height="32766" maskUnits="userSpaceOnUse"><g class="cls-132"/></mask><radialGradient id="radial-gradient-10" cx="294.47" cy="491.56" r="55.67" gradientTransform="translate(-8.5) scale(1.01 1)" xlink:href="#radial-gradient"/><radialGradient id="radial-gradient-11" cx="294.47" cy="491.56" r="55.67" gradientTransform="translate(-8.5) scale(1.01 1)" xlink:href="#radial-gradient-2"/><filter id="luminosity-noclip-12" x="161.32" y="-8467" width="132.35" height="32766" filterUnits="userSpaceOnUse" color-interpolation-filters="sRGB"><feFlood flood-color="#fff" result="bg"/><feBlend in="SourceGraphic" in2="bg"/></filter><mask id="mask-12" x="161.32" y="-8467" width="132.35" height="32766" maskUnits="userSpaceOnUse"><g class="cls-131"/></mask><radialGradient id="radial-gradient-12" cx="233.41" cy="424.48" r="65.45" gradientTransform="translate(-8.5) scale(1.01 1)" xlink:href="#radial-gradient"/><radialGradient id="radial-gradient-13" cx="233.41" cy="424.48" r="65.45" gradientTransform="translate(-8.5) scale(1.01 1)" xlink:href="#radial-gradient-2"/><filter id="luminosity-noclip-14" x="509.5" y="-8467" width="144.17" height="32766" filterUnits="userSpaceOnUse" color-interpolation-filters="sRGB"><feFlood flood-color="#fff" result="bg"/><feBlend in="SourceGraphic" in2="bg"/></filter><mask id="mask-14" x="509.5" y="-8467" width="144.17" height="32766" maskUnits="userSpaceOnUse"><g class="cls-130"/></mask><radialGradient id="radial-gradient-14" cx="583.62" cy="460.89" r="71.3" gradientTransform="translate(-8.5) scale(1.01 1)" xlink:href="#radial-gradient"/><radialGradient id="radial-gradient-15" cx="583.62" cy="460.89" r="71.3" gradientTransform="translate(-8.5) scale(1.01 1)" xlink:href="#radial-gradient-2"/><filter id="luminosity-noclip-16" x="617.9" y="-8467" width="112.57" height="32766" filterUnits="userSpaceOnUse" color-interpolation-filters="sRGB"><feFlood flood-color="#fff" result="bg"/><feBlend in="SourceGraphic" in2="bg"/></filter><mask id="mask-16" x="617.9" y="-8467" width="112.57" height="32766" maskUnits="userSpaceOnUse"><g class="cls-129"/></mask><radialGradient id="radial-gradient-16" cx="675.2" cy="456.89" r="55.67" gradientTransform="translate(-8.5) scale(1.01 1)" xlink:href="#radial-gradient"/><radialGradient id="radial-gradient-17" cx="675.2" cy="456.89" r="55.67" gradientTransform="translate(-8.5) scale(1.01 1)" xlink:href="#radial-gradient-2"/><filter id="luminosity-noclip-18" x="267.03" y="-8467" width="145.93" height="32766" filterUnits="userSpaceOnUse" color-interpolation-filters="sRGB"><feFlood flood-color="#fff" result="bg"/><feBlend in="SourceGraphic" in2="bg"/></filter><mask id="mask-18" x="267.03" y="-8467" width="145.93" height="32766" maskUnits="userSpaceOnUse"><g class="cls-128"/></mask><radialGradient id="radial-gradient-18" cx="340" cy="382.01" r="72.97" xlink:href="#radial-gradient"/><filter id="luminosity-noclip-19" x="675.01" y="-8467" width="112.57" height="32766" filterUnits="userSpaceOnUse" color-interpolation-filters="sRGB"><feFlood flood-color="#fff" result="bg"/><feBlend in="SourceGraphic" in2="bg"/></filter><mask id="mask-19" x="675.01" y="-8467" width="112.57" height="32766" maskUnits="userSpaceOnUse"><g class="cls-127"/></mask><radialGradient id="radial-gradient-19" cx="731.68" cy="404.69" r="55.67" gradientTransform="translate(-8.5) scale(1.01 1)" xlink:href="#radial-gradient"/><radialGradient id="radial-gradient-20" cx="731.68" cy="404.69" r="55.67" gradientTransform="translate(-8.5) scale(1.01 1)" xlink:href="#radial-gradient-2"/><filter id="luminosity-noclip-21" x="405.66" y="-8467" width="20.22" height="32766" filterUnits="userSpaceOnUse" color-interpolation-filters="sRGB"><feFlood flood-color="#fff" result="bg"/><feBlend in="SourceGraphic" in2="bg"/></filter><mask id="mask-21" x="405.66" y="-8467" width="20.22" height="32766" maskUnits="userSpaceOnUse"><g class="cls-126"/></mask><linearGradient id="Áåçûìÿííûé_ãðàäèåíò_20" x1="416.02" y1="227.29" x2="424.53" y2="234.14" gradientTransform="translate(10.86 -25.14) rotate(2.98)" gradientUnits="userSpaceOnUse"><stop offset="0" stop-color="#fff"/><stop offset="0.94"/></linearGradient><filter id="luminosity-noclip-22" x="378.06" y="-8467" width="9.75" height="32766" filterUnits="userSpaceOnUse" color-interpolation-filters="sRGB"><feFlood flood-color="#fff" result="bg"/><feBlend in="SourceGraphic" in2="bg"/></filter><mask id="mask-22" x="378.06" y="-8467" width="9.75" height="32766" maskUnits="userSpaceOnUse"><g class="cls-125"/></mask><linearGradient id="Áåçûìÿííûé_ãðàäèåíò_20-2" x1="377.46" y1="211.93" x2="386.8" y2="219.45" xlink:href="#Áåçûìÿííûé_ãðàäèåíò_20"/><radialGradient id="radial-gradient-21" cx="340" cy="382.01" r="72.97" xlink:href="#radial-gradient-2"/><radialGradient id="radial-gradient-22" cx="478.29" cy="435.48" r="55.7" xlink:href="#radial-gradient"/><mask id="mask-25" x="198.56" y="343.38" width="125.58" height="119.59" maskUnits="userSpaceOnUse"><g transform="translate(0.41 -0.59)"><g class="cls-1"><path class="cls-2" d="M323.73,403.77c0,33-28.11,59.79-62.79,59.79s-62.79-26.77-62.79-59.79S226.26,344,260.94,344,323.73,370.74,323.73,403.77Z"/></g></g></mask><filter id="luminosity-noclip-25" x="198.15" y="343.97" width="125.58" height="119.59" filterUnits="userSpaceOnUse" color-interpolation-filters="sRGB"><feFlood flood-color="#fff" result="bg"/><feBlend in="SourceGraphic" in2="bg"/></filter><radialGradient id="radial-gradient-23" cx="260.94" cy="408.51" r="62.79" gradientTransform="translate(0 14.75) scale(1 0.95)" gradientUnits="userSpaceOnUse"><stop offset="0" stop-color="#053e4f"/><stop offset="0.37" stop-color="#073f50"/><stop offset="0.51" stop-color="#0e4555"/><stop offset="0.6" stop-color="#194e5d"/><stop offset="0.68" stop-color="#2a5b69"/><stop offset="0.75" stop-color="#406c79"/><stop offset="0.81" stop-color="#5c818c"/><stop offset="0.86" stop-color="#7c9aa3"/><stop offset="0.91" stop-color="#a2b7bd"/><stop offset="0.96" stop-color="#ccd8db"/><stop offset="1" stop-color="#fafbfb"/><stop offset="1" stop-color="#fff"/></radialGradient><mask id="mask-27" x="267.44" y="308.46" width="145.93" height="138.97" maskUnits="userSpaceOnUse"><g transform="translate(0.41 -0.59)"><g class="cls-27"><path class="cls-28" d="M413,378.53C413,416.91,380.3,448,340,448s-73-31.11-73-69.49,32.67-69.48,73-69.48S413,340.16,413,378.53Z"/></g></g></mask><filter id="luminosity-noclip-26" x="267.03" y="309.05" width="145.93" height="138.97" filterUnits="userSpaceOnUse" color-interpolation-filters="sRGB"><feFlood flood-color="#fff" result="bg"/><feBlend in="SourceGraphic" in2="bg"/></filter><radialGradient id="radial-gradient-24" cx="340" cy="382.01" r="72.97" xlink:href="#radial-gradient-23"/><mask id="mask-29" x="422.99" y="375.81" width="111.41" height="106.09" maskUnits="userSpaceOnUse"><g transform="translate(0.41 -0.59)"><g class="cls-3"><path class="cls-37" d="M534,429.45c0,29.29-24.94,53-55.7,53s-55.71-23.75-55.71-53,24.94-53.05,55.71-53.05S534,400.15,534,429.45Z"/></g></g></mask><filter id="luminosity-noclip-27" x="422.58" y="376.4" width="111.41" height="106.09" filterUnits="userSpaceOnUse" color-interpolation-filters="sRGB"><feFlood flood-color="#fff" result="bg"/><feBlend in="SourceGraphic" in2="bg"/></filter><radialGradient id="radial-gradient-25" cx="478.29" cy="435.48" r="55.7" xlink:href="#radial-gradient-23"/><mask id="mask-31" x="358.7" y="338.42" width="121.93" height="116.11" maskUnits="userSpaceOnUse"><g transform="translate(0.41 -0.59)"><g class="cls-5"><path class="cls-6" d="M480.22,397.07c0,32.06-27.29,58.05-61,58.05s-61-26-61-58.05,27.29-58.06,61-58.06S480.22,365,480.22,397.07Z"/></g></g></mask><filter id="luminosity-noclip-28" x="358.29" y="339.01" width="121.93" height="116.11" filterUnits="userSpaceOnUse" color-interpolation-filters="sRGB"><feFlood flood-color="#fff" result="bg"/><feBlend in="SourceGraphic" in2="bg"/></filter><radialGradient id="radial-gradient-26" cx="419.25" cy="401.48" r="60.97" xlink:href="#radial-gradient-23"/><mask id="mask-33" x="471.44" y="344.14" width="170.15" height="162.03" maskUnits="userSpaceOnUse"><g transform="translate(0.41 -0.59)"><g class="cls-8"><path class="cls-9" d="M641.18,425.74c0,44.74-38.09,81-85.07,81S471,470.48,471,425.74s38.09-81,85.08-81S641.18,381,641.18,425.74Z"/></g></g></mask><filter id="luminosity-noclip-29" x="471.03" y="344.72" width="170.15" height="162.03" filterUnits="userSpaceOnUse" color-interpolation-filters="sRGB"><feFlood flood-color="#fff" result="bg"/><feBlend in="SourceGraphic" in2="bg"/></filter><radialGradient id="radial-gradient-27" cx="556.11" cy="431.59" r="85.08" xlink:href="#radial-gradient-23"/><mask id="mask-35" x="583.14" y="399.12" width="111.41" height="106.09" maskUnits="userSpaceOnUse"><g transform="translate(0.41 -0.59)"><g class="cls-12"><path class="cls-13" d="M694.14,452.76c0,29.29-24.94,53-55.7,53s-55.71-23.75-55.71-53,24.94-53.05,55.71-53.05S694.14,423.46,694.14,452.76Z"/></g></g></mask><filter id="luminosity-noclip-30" x="582.73" y="399.71" width="111.41" height="106.09" filterUnits="userSpaceOnUse" color-interpolation-filters="sRGB"><feFlood flood-color="#fff" result="bg"/><feBlend in="SourceGraphic" in2="bg"/></filter><radialGradient id="radial-gradient-28" cx="638.44" cy="459.96" r="55.7" xlink:href="#radial-gradient-23"/><mask id="mask-37" x="233.36" y="435.31" width="112.57" height="111.33" maskUnits="userSpaceOnUse"><g transform="translate(0.41 -0.59)"><g class="cls-15"><path class="cls-16" d="M345.52,491.57c0,30.74-25.2,55.66-56.28,55.66S233,522.31,233,491.57s25.2-55.67,56.29-55.67S345.52,460.82,345.52,491.57Z"/></g></g></mask><filter id="luminosity-noclip-31" x="232.95" y="435.9" width="112.57" height="111.33" filterUnits="userSpaceOnUse" color-interpolation-filters="sRGB"><feFlood flood-color="#fff" result="bg"/><feBlend in="SourceGraphic" in2="bg"/></filter><radialGradient id="radial-gradient-29" cx="294.47" cy="491.56" r="55.67" gradientTransform="translate(-8.5) scale(1.01 1)" xlink:href="#radial-gradient-23"/><mask id="mask-39" x="161.73" y="358.44" width="132.35" height="130.9" maskUnits="userSpaceOnUse"><g transform="translate(0.41 -0.59)"><g class="cls-18"><path class="cls-19" d="M293.67,424.48c0,36.15-29.62,65.45-66.17,65.45s-66.18-29.3-66.18-65.45S191,359,227.5,359,293.67,388.34,293.67,424.48Z"/></g></g></mask><filter id="luminosity-noclip-32" x="161.32" y="359.03" width="132.35" height="130.9" filterUnits="userSpaceOnUse" color-interpolation-filters="sRGB"><feFlood flood-color="#fff" result="bg"/><feBlend in="SourceGraphic" in2="bg"/></filter><radialGradient id="radial-gradient-30" cx="233.41" cy="424.48" r="65.45" gradientTransform="translate(-8.5) scale(1.01 1)" xlink:href="#radial-gradient-23"/><mask id="mask-41" x="509.91" y="389.01" width="144.17" height="142.59" maskUnits="userSpaceOnUse"><g transform="translate(0.41 -0.59)"><g class="cls-21"><path class="cls-22" d="M653.67,460.89c0,39.37-32.27,71.29-72.08,71.29s-72.09-31.92-72.09-71.29,32.28-71.3,72.09-71.3S653.67,421.51,653.67,460.89Z"/></g></g></mask><filter id="luminosity-noclip-33" x="509.5" y="389.59" width="144.17" height="142.59" filterUnits="userSpaceOnUse" color-interpolation-filters="sRGB"><feFlood flood-color="#fff" result="bg"/><feBlend in="SourceGraphic" in2="bg"/></filter><radialGradient id="radial-gradient-31" cx="583.62" cy="460.89" r="71.3" gradientTransform="translate(-8.5) scale(1.01 1)" xlink:href="#radial-gradient-23"/><mask id="mask-43" x="618.31" y="400.64" width="112.57" height="111.33" maskUnits="userSpaceOnUse"><g transform="translate(0.41 -0.59)"><g class="cls-24"><path class="cls-25" d="M730.47,456.89c0,30.74-25.2,55.67-56.29,55.67s-56.28-24.93-56.28-55.67,25.2-55.66,56.28-55.66S730.47,426.15,730.47,456.89Z"/></g></g></mask><filter id="luminosity-noclip-34" x="617.9" y="401.23" width="112.57" height="111.33" filterUnits="userSpaceOnUse" color-interpolation-filters="sRGB"><feFlood flood-color="#fff" result="bg"/><feBlend in="SourceGraphic" in2="bg"/></filter><radialGradient id="radial-gradient-32" cx="675.2" cy="456.89" r="55.67" gradientTransform="translate(-8.5) scale(1.01 1)" xlink:href="#radial-gradient-23"/><mask id="mask-45" x="675.41" y="348.44" width="112.57" height="111.33" maskUnits="userSpaceOnUse"><g transform="translate(0.41 -0.59)"><g class="cls-29"><path class="cls-30" d="M787.57,404.69c0,30.75-25.2,55.67-56.28,55.67S675,435.44,675,404.69,700.2,349,731.29,349,787.57,374,787.57,404.69Z"/></g></g></mask><filter id="luminosity-noclip-35" x="675.01" y="349.03" width="112.57" height="111.33" filterUnits="userSpaceOnUse" color-interpolation-filters="sRGB"><feFlood flood-color="#fff" result="bg"/><feBlend in="SourceGraphic" in2="bg"/></filter><radialGradient id="radial-gradient-33" cx="731.68" cy="404.69" r="55.67" gradientTransform="translate(-8.5) scale(1.01 1)" xlink:href="#radial-gradient-23"/><linearGradient id="linear-gradient" x1="-813.1" y1="-96.53" x2="-813.13" y2="-96.36" gradientTransform="translate(131186.04 23450.2) scale(161.1 241.22)" gradientUnits="userSpaceOnUse"><stop offset="0" stop-color="#114a8b"/><stop offset="1" stop-color="#0669bc"/></linearGradient><linearGradient id="linear-gradient-2" x1="-814.86" y1="-96.45" x2="-814.87" y2="-96.44" gradientTransform="translate(183296.17 23449.95) scale(224.69 241.21)" gradientUnits="userSpaceOnUse"><stop offset="0" stop-opacity="0.3"/><stop offset="0.07" stop-opacity="0.2"/><stop offset="0.32" stop-opacity="0.1"/><stop offset="0.62" stop-opacity="0.05"/><stop offset="1" stop-opacity="0"/></linearGradient><linearGradient id="linear-gradient-3" x1="-813.87" y1="-96.53" x2="-813.83" y2="-96.37" gradientTransform="translate(138367.6 23450.19) scale(169.75 241.22)" gradientUnits="userSpaceOnUse"><stop offset="0" stop-color="#3ccbf4"/><stop offset="1" stop-color="#2892df"/></linearGradient><linearGradient id="Áåçûìÿííûé_ãðàäèåíò_37" x1="440.72" y1="210.92" x2="454.73" y2="210.92" gradientTransform="translate(10.86 -25.14) rotate(2.98)" gradientUnits="userSpaceOnUse"><stop offset="0" stop-color="#ff6279"/><stop offset="1" stop-color="#ffad60"/></linearGradient><linearGradient id="Áåçûìÿííûé_ãðàäèåíò_37-2" x1="372.71" y1="210.92" x2="386.72" y2="210.92" xlink:href="#Áåçûìÿííûé_ãðàäèåíò_37"/><linearGradient id="Áåçûìÿííûé_ãðàäèåíò_42" x1="439.73" y1="245.22" x2="464.12" y2="245.22" gradientTransform="translate(10.86 -25.14) rotate(2.98)" gradientUnits="userSpaceOnUse"><stop offset="0" stop-color="#f0f0fb"/><stop offset="1" stop-color="#d2d7f6"/></linearGradient><linearGradient id="Áåçûìÿííûé_ãðàäèåíò_31" x1="435.26" y1="250.49" x2="461.51" y2="250.49" gradientTransform="translate(11.27 -25.73) rotate(2.98)" gradientUnits="userSpaceOnUse"><stop offset="0" stop-color="#c8d6f9"/><stop offset="1" stop-color="#bac1e8"/></linearGradient><linearGradient id="Áåçûìÿííûé_ãðàäèåíò_37-3" x1="460.87" y1="262.99" x2="465.47" y2="266.47" xlink:href="#Áåçûìÿííûé_ãðàäèåíò_37"/><linearGradient id="Áåçûìÿííûé_ãðàäèåíò_42-2" x1="363.32" y1="245.22" x2="387.72" y2="245.22" xlink:href="#Áåçûìÿííûé_ãðàäèåíò_42"/><linearGradient id="Áåçûìÿííûé_ãðàäèåíò_31-2" x1="365.94" y1="250.49" x2="392.19" y2="250.49" xlink:href="#Áåçûìÿííûé_ãðàäèåíò_31"/><linearGradient id="Áåçûìÿííûé_ãðàäèåíò_37-4" x1="360.49" y1="258.47" x2="360.49" y2="282.11" xlink:href="#Áåçûìÿííûé_ãðàäèåíò_37"/><linearGradient id="Áåçûìÿííûé_ãðàäèåíò_37-5" x1="391.07" y1="264.96" x2="436.63" y2="264.96" xlink:href="#Áåçûìÿííûé_ãðàäèåíò_37"/><linearGradient id="Áåçûìÿííûé_ãðàäèåíò_42-3" x1="379.72" y1="243.02" x2="447.73" y2="243.02" xlink:href="#Áåçûìÿííûé_ãðàäèåíò_42"/><linearGradient id="Áåçûìÿííûé_ãðàäèåíò_42-4" x1="379.72" y1="182.99" x2="447.73" y2="182.99" xlink:href="#Áåçûìÿííûé_ãðàäèåíò_42"/><filter id="luminosity-noclip-36" x="405.66" y="206.06" width="20.22" height="35.54" filterUnits="userSpaceOnUse" color-interpolation-filters="sRGB"><feFlood flood-color="#fff" result="bg"/><feBlend in="SourceGraphic" in2="bg"/></filter><mask id="mask-47" x="406.07" y="205.47" width="20.22" height="35.54" maskUnits="userSpaceOnUse"><g class="cls-124"><g transform="translate(0.41 -0.59)"><g class="cls-32"><path class="cls-33" d="M417.18,206.06s-10.63,6-10.87,10.63l-.63,12.15c-.36,6.94,3.84,12.42,10.24,12.75,3.8.2,9.13-5.35,9.33-9.15l.61-11.82C426.3,212.13,417.19,206.07,417.18,206.06Z"/></g></g></g></mask><linearGradient id="Áåçûìÿííûé_ãðàäèåíò_29" x1="416.02" y1="227.29" x2="424.53" y2="234.14" gradientTransform="translate(10.86 -25.14) rotate(2.98)" gradientUnits="userSpaceOnUse"><stop offset="0" stop-color="#8390ac"/><stop offset="0.94" stop-color="#8390ac"/></linearGradient><filter id="luminosity-noclip-37" x="378.06" y="190.86" width="9.75" height="34.48" filterUnits="userSpaceOnUse" color-interpolation-filters="sRGB"><feFlood flood-color="#fff" result="bg"/><feBlend in="SourceGraphic" in2="bg"/></filter><mask id="mask-48" x="378.47" y="190.27" width="9.75" height="34.48" maskUnits="userSpaceOnUse"><g class="cls-123"><g transform="translate(0.41 -0.59)"><g class="cls-34"><path class="cls-35" d="M379.85,190.86l-1.79,34.43s8.79,1.39,9.4-10.18l.34-6.57C388.08,203.15,383.46,193.41,379.85,190.86Z"/></g></g></g></mask><linearGradient id="Áåçûìÿííûé_ãðàäèåíò_29-2" x1="377.46" y1="211.93" x2="386.8" y2="219.45" xlink:href="#Áåçûìÿííûé_ãðàäèåíò_29"/><linearGradient id="Áåçûìÿííûé_ãðàäèåíò_37-6" x1="406.72" y1="220.49" x2="420.73" y2="220.49" xlink:href="#Áåçûìÿííûé_ãðàäèåíò_37"/><linearGradient id="Áåçûìÿííûé_ãðàäèåíò_15" x1="379.72" y1="170.12" x2="447.73" y2="170.12" gradientTransform="translate(10.86 -25.14) rotate(2.98)" gradientUnits="userSpaceOnUse"><stop offset="0" stop-color="#5752d0"/><stop offset="1" stop-color="#7f7cf9"/></linearGradient><linearGradient id="Áåçûìÿííûé_ãðàäèåíò_15-2" x1="383.23" y1="119.29" x2="451.06" y2="119.29" xlink:href="#Áåçûìÿííûé_ãðàäèåíò_15"/><linearGradient id="Áåçûìÿííûé_ãðàäèåíò_15-3" x1="383.23" y1="110.66" x2="451.06" y2="110.66" xlink:href="#Áåçûìÿííûé_ãðàäèåíò_15"/><linearGradient id="Áåçûìÿííûé_ãðàäèåíò_15-4" x1="409.04" y1="119.29" x2="449.86" y2="119.29" xlink:href="#Áåçûìÿííûé_ãðàäèåíò_15"/></defs><g class="cls-38"><g id="Layer_1" data-name="Layer 1"><g class="cls-39"><g class="cls-39"><path class="cls-40" d="M323.73,403.77c0,33-28.11,59.79-62.79,59.79s-62.79-26.77-62.79-59.79S226.26,344,260.94,344,323.73,370.74,323.73,403.77Z" transform="translate(0.41 -0.59)"/></g></g><g class="cls-41"><g class="cls-41"><path class="cls-42" d="M413,378.53C413,416.91,380.3,448,340,448s-73-31.11-73-69.49,32.67-69.48,73-69.48S413,340.16,413,378.53Z" transform="translate(0.41 -0.59)"/></g></g><g class="cls-43"><g class="cls-43"><path class="cls-44" d="M534,429.45c0,29.29-24.94,53-55.7,53s-55.71-23.75-55.71-53,24.94-53.05,55.71-53.05S534,400.15,534,429.45Z" transform="translate(0.41 -0.59)"/></g></g><g class="cls-45"><g class="cls-45"><path class="cls-46" d="M480.22,397.07c0,32.06-27.29,58.05-61,58.05s-61-26-61-58.05,27.29-58.06,61-58.06S480.22,365,480.22,397.07Z" transform="translate(0.41 -0.59)"/></g></g><g class="cls-47"><g class="cls-47"><path class="cls-48" d="M641.18,425.74c0,44.74-38.09,81-85.07,81S471,470.48,471,425.74s38.09-81,85.08-81S641.18,381,641.18,425.74Z" transform="translate(0.41 -0.59)"/></g></g><g class="cls-49"><g class="cls-49"><path class="cls-50" d="M694.14,452.76c0,29.29-24.94,53-55.7,53s-55.71-23.75-55.71-53,24.94-53.05,55.71-53.05S694.14,423.46,694.14,452.76Z" transform="translate(0.41 -0.59)"/></g></g><path class="cls-51" d="M819.65,510.2c.12-1.26.19-2.53.19-3.82,0-22.6-19.24-40.92-43-40.92a45.18,45.18,0,0,0-11.18,1.41c0-.36,0-.72,0-1.08,0-28.2-24-51.05-53.6-51.05a54.38,54.38,0,0,0-43.27,20.93,44,44,0,0,0-29.47-11.15,44.65,44.65,0,0,0-15,2.55c-1.24-31.67-28.57-57-62.12-57-26.9,0-49.79,16.25-58.47,39a39.07,39.07,0,0,0-27.93-11.53,40,40,0,0,0-11.51,1.68c.08-.95.14-1.91.14-2.88,0-18.72-15.93-33.89-35.58-33.89a36.47,36.47,0,0,0-23.83,8.73c-6.16-21.72-27-37.71-51.75-37.71A55.41,55.41,0,0,0,329.22,339l-.45.21c-16,7.89-27.35,23.29-28.83,41.31a63.51,63.51,0,0,0-33.05-9.18c-1.62,0-3.22.08-4.81.2l.11.07C230.75,373.86,206,398.84,206,429.36A55.21,55.21,0,0,0,208.23,445l-.88-.1a46.64,46.64,0,0,0-5.45-.33c-18.05,0-33.61,10.11-40.81,24.7A43.33,43.33,0,0,0,126.94,453c-18.53,0-34.3,11.26-40.18,27a36.49,36.49,0,0,0-25.25-10c-19.7,0-35.68,15.21-35.68,34,0,12.66,7.28,23.69,18.06,29.54l-10.06,4.72L31.12,544l733.06,1.51a45.09,45.09,0,0,0,25.19,0l29.47.06,6.24-17.34V511.62Z" transform="translate(0.41 -0.59)"/><g class="cls-52"><g class="cls-52"><path class="cls-53" d="M345.52,491.57c0,30.74-25.2,55.66-56.28,55.66S233,522.31,233,491.57s25.2-55.67,56.29-55.67S345.52,460.82,345.52,491.57Z" transform="translate(0.41 -0.59)"/></g></g><g class="cls-54"><g class="cls-54"><path class="cls-55" d="M293.67,424.48c0,36.15-29.62,65.45-66.17,65.45s-66.18-29.3-66.18-65.45S191,359,227.5,359,293.67,388.34,293.67,424.48Z" transform="translate(0.41 -0.59)"/></g></g><g class="cls-56"><g class="cls-56"><path class="cls-57" d="M653.67,460.89c0,39.37-32.27,71.29-72.08,71.29s-72.09-31.92-72.09-71.29,32.28-71.3,72.09-71.3S653.67,421.51,653.67,460.89Z" transform="translate(0.41 -0.59)"/></g></g><g class="cls-58"><g class="cls-58"><path class="cls-59" d="M730.47,456.89c0,30.74-25.2,55.67-56.29,55.67s-56.28-24.93-56.28-55.67,25.2-55.66,56.28-55.66S730.47,426.15,730.47,456.89Z" transform="translate(0.41 -0.59)"/></g></g><g class="cls-60"><g class="cls-60"><path class="cls-61" d="M787.57,404.69c0,30.75-25.2,55.67-56.28,55.67S675,435.44,675,404.69,700.2,349,731.29,349,787.57,374,787.57,404.69Z" transform="translate(0.41 -0.59)"/></g></g><path class="cls-62" d="M840.4,406.42c-10.35-27.31-37.68-46.81-69.77-46.81-40,0-72.65,30.37-74.13,68.37a53.3,53.3,0,0,0-17.84-3.06,52.31,52.31,0,0,0-35.16,13.39,64.82,64.82,0,0,0-51.65-25.12c-35.33,0-64,27.43-64,61.26,0,.43,0,.86,0,1.3a53.18,53.18,0,0,0-13.34-1.69A51.85,51.85,0,0,0,472,495.8a44,44,0,0,0-56,3.6c-7-18.87-25.83-32.38-48-32.38a51.58,51.58,0,0,0-40.75,19.53c-8.59-17.51-27.16-29.64-48.7-29.64a57,57,0,0,0-7.56.52,66.45,66.45,0,0,0,2.71-18.8c0-38.38-32.49-69.5-72.57-69.5a74.52,74.52,0,0,0-39.57,11.25c-2.4-31.74-30-56.78-63.78-56.78-29.55,0-54.4,19.19-61.76,45.25A43.36,43.36,0,0,0,7.68,358.38,44.84,44.84,0,0,0,.29,359V548.17H841.83V405C841.35,405.49,840.87,406,840.4,406.42Z" transform="translate(0.41 -0.59)"/><g class="cls-63"><path class="cls-64" d="M423.14,329.93a5.79,5.79,0,0,0,1.28-1.1,10,10,0,0,0,2.18-6.46c0-.44,0-.88,0-1.33,3,1.56,5.84,1.79,8.07.89a7.11,7.11,0,0,1-.44.82,6.34,6.34,0,0,1-2,2Z" transform="translate(0.41 -0.59)"/><path class="cls-65" d="M431.13,268.75l-5.47,3c0-.34.06-.7.08-1.06.23-6.92-4.31-15.48-10.16-19.12-2.95-1.84-5.68-2.07-7.67-.94l5.54-3.07,0,0,.07,0h0c2-1,4.64-.76,7.51,1,5.84,3.64,10.38,12.2,10.15,19.11C431.2,268.06,431.17,268.41,431.13,268.75Z" transform="translate(0.41 -0.59)"/><path class="cls-65" d="M440.79,318.6l-5.22,2.89.17-.1a8.27,8.27,0,0,0,3.37-4.47,15.11,15.11,0,0,0,.8-4.57c.17-5.19-1.66-11.07-4.7-16.09l5.47-3c3,5,5.05,10.91,4.7,16.09C444.89,316.73,440.83,318.58,440.79,318.6Z" transform="translate(0.41 -0.59)"/><path class="cls-65" d="M435.21,296.26a7.88,7.88,0,0,0,2.18-5.72c0-.52,0-1.06,0-1.6-.45-6-4.39-12.95-9.33-16a11.44,11.44,0,0,0-2.37-1.12l5.47-3a10.59,10.59,0,0,1,2.37,1.13c5.39,3.36,9.58,11.25,9.37,17.63a7.88,7.88,0,0,1-2.19,5.72Z" transform="translate(0.41 -0.59)"/><path class="cls-66" d="M424.42,328.84c1.52-1.57,2.36-4.85,2.18-7.8,7.43,3.82,12.54-.53,13.21-7.25.58-6.11-1.34-12-4.59-17.53,4.61-4.93,1.21-14.18-2.74-19.24a16.81,16.81,0,0,0-5.06-4.46c-.6-.61-1.78-.27-1.73-1.12,1.17-12.39-13.62-27.81-19.81-18.77-1.44,2.77,7.8,14.24,7.81,14.89.24,9.67.48,34.58-3,45.72C406.17,327.84,417.06,336.61,424.42,328.84Z" transform="translate(0.41 -0.59)"/></g><g class="cls-63"><path class="cls-65" d="M389.77,327.1a6.18,6.18,0,0,1-1.15-1.24,10.08,10.08,0,0,1-1.42-6.67c0-.44.09-.87.16-1.31-3.2,1.18-6,1.1-8.12-.05a6.41,6.41,0,0,0,.34.86,6.27,6.27,0,0,0,1.74,2.25Z" transform="translate(0.41 -0.59)"/><path class="cls-65" d="M388.87,265.41l5.09,3.64c0-.34,0-.69.05-1.06.56-6.9,6.06-14.88,12.28-17.82,3.15-1.49,5.88-1.4,7.74,0l-5.16-3.69,0,0-.07,0h0c-1.85-1.24-4.51-1.29-7.58.16-6.22,2.94-11.72,10.92-12.28,17.82C388.89,264.71,388.88,265.07,388.87,265.41Z" transform="translate(0.41 -0.59)"/><path class="cls-65" d="M373.54,313.81l4.86,3.48-.16-.12a8.31,8.31,0,0,1-2.84-4.83,15.58,15.58,0,0,1-.27-4.63c.43-5.18,2.93-10.81,6.53-15.45l-5.09-3.64c-3.59,4.64-6.27,10.26-6.52,15.45C369.68,311.49,373.51,313.79,373.54,313.81Z" transform="translate(0.41 -0.59)"/><path class="cls-65" d="M381.66,292.26a7.89,7.89,0,0,1-1.51-5.93c.05-.51.12-1.05.22-1.58,1.14-5.95,5.85-12.36,11.11-14.85a11.59,11.59,0,0,1,2.48-.85l-5.09-3.64a11.06,11.06,0,0,0-2.48.85c-5.73,2.71-10.81,10.07-11.33,16.43a7.9,7.9,0,0,0,1.51,5.93Z" transform="translate(0.41 -0.59)"/><path class="cls-66" d="M412.62,305c.74-9.12,3.44-42.6,3.86-48.71-.06-.65.44-1-.67-3.92-5.11-9.69-21.58,3.92-21.84,16.37-.05.85-1.18.37-1.85.91a16.89,16.89,0,0,0-5.54,3.84c-4.51,4.58-8.94,13.37-4.93,18.81-3.87,5.15-6.46,10.74-6.58,16.88-.11,6.75,4.47,11.66,12.29,8.72-.52,2.91-.06,6.26,1.27,8C395.05,334.44,412.57,320.21,412.62,305Z" transform="translate(0.41 -0.59)"/></g><g class="cls-67"><path class="cls-68" d="M642.76,190.54a23.19,23.19,0,0,0-27-25.32A212.51,212.51,0,0,0,579.43,99,214.76,214.76,0,0,0,546.5,66.21a28.65,28.65,0,0,0-49-29.2,214.13,214.13,0,0,0-145.75-7.62,34.49,34.49,0,1,0-61.71,30.8q-4.75,3.42-9.35,7.13A211,211,0,0,0,214,161.53c-.86-.17-1.74-.31-2.63-.41a28.34,28.34,0,0,0-8.93,55.9,212.39,212.39,0,0,0,423,37.86,214.78,214.78,0,0,0,.1-44.34A23.2,23.2,0,0,0,642.76,190.54Zm-23.49,63.69c-12,113-113.7,195.27-226.75,183.28-110.75-11.73-191.9-109.6-183.89-219.87A28.34,28.34,0,0,0,220,163.45,206.39,206.39,0,0,1,293.5,65.52,34.49,34.49,0,0,0,354,35.33a206.25,206.25,0,0,1,140.32,7.18,28.65,28.65,0,0,0,48.83,29.17,207.57,207.57,0,0,1,66.6,95.45,23.2,23.2,0,0,0,7.49,44c.7.07,1.39.11,2.08.12A206.15,206.15,0,0,1,619.27,254.23Z" transform="translate(0.41 -0.59)"/><path class="cls-68" d="M543.32,157.06a23.14,23.14,0,1,0-29.26-35.85,149.53,149.53,0,0,0-193.78-5q-2.83,2.3-5.54,4.71a21,21,0,0,0-27.1,32,149.5,149.5,0,1,0,255.68,4.13ZM399.15,374.94c-78.54-8.32-135.67-79-127.35-157.54a142.43,142.43,0,0,1,21.09-61,21,21,0,0,0,26.16-30.87,143,143,0,0,1,190.82.37,23.16,23.16,0,0,0,28,34.3,142.43,142.43,0,0,1,18.84,87.36C548.37,326.14,477.7,383.27,399.15,374.94Z" transform="translate(0.41 -0.59)"/></g><path class="cls-69" d="M638.05,188.05a23.19,23.19,0,0,0-26.95-25.32,212.34,212.34,0,0,0-36.39-66.24,214.7,214.7,0,0,0-32.92-32.77,28.65,28.65,0,0,0-49-29.2A214.13,214.13,0,0,0,347.08,26.9a34.49,34.49,0,1,0-61.72,30.8q-4.74,3.42-9.34,7.13A211,211,0,0,0,209.28,159c-.86-.17-1.74-.31-2.63-.41a28.34,28.34,0,0,0-8.93,55.9,212.39,212.39,0,0,0,423,37.86,214.78,214.78,0,0,0,.1-44.34A23.2,23.2,0,0,0,638.05,188.05Zm-23.5,63.69c-12,113-113.7,195.27-226.74,183.28-110.75-11.73-191.9-109.6-183.89-219.87A28.34,28.34,0,0,0,215.27,161,206.31,206.31,0,0,1,288.78,63,34.49,34.49,0,0,0,349.3,32.84,206.22,206.22,0,0,1,489.61,40a29.07,29.07,0,0,0-2.29,8.58,28.65,28.65,0,0,0,51.13,20.59A207.55,207.55,0,0,1,605,164.64a23.2,23.2,0,0,0,7.49,44c.71.07,1.4.11,2.09.12A206.16,206.16,0,0,1,614.55,251.74Z" transform="translate(0.41 -0.59)"/><path class="cls-69" d="M538.61,154.57a23.14,23.14,0,1,0-29.26-35.85,149.53,149.53,0,0,0-193.78-5q-2.83,2.3-5.54,4.71a21,21,0,0,0-27.1,32,149.49,149.49,0,1,0,255.68,4.13ZM394.44,372.45c-78.55-8.32-135.67-79-127.35-157.54a142.43,142.43,0,0,1,21.09-61,21,21,0,0,0,26.15-30.87,143,143,0,0,1,190.83.37,23.16,23.16,0,0,0,28,34.3A142.43,142.43,0,0,1,552,245.1C543.66,323.65,473,380.78,394.44,372.45Z" transform="translate(0.41 -0.59)"/><path class="cls-70" d="M545,136.92a20.79,20.79,0,1,1-20.78-20.79A20.78,20.78,0,0,1,545,136.92" transform="translate(0.41 -0.59)"/><path class="cls-62" d="M524.56,128.82l5.37,13.28-8.13-6.4Zm9.54,16.34-8.26-19.91a1.32,1.32,0,0,0-1.28-.88,1.4,1.4,0,0,0-1.32.88l-9.08,21.83h3.11l3.6-9,10.72,8.67a1.8,1.8,0,0,0,1.14.51,1.48,1.48,0,0,0,1.52-1.49,1.78,1.78,0,0,0-.15-.6Z" transform="translate(0.41 -0.59)"/><path class="cls-71" d="M339.41,42.49A22.55,22.55,0,1,1,294.34,41c.41-12.71,10.82-22.74,23.29-22.33s22.2,11.06,21.78,23.8" transform="translate(0.41 -0.59)"/><path class="cls-72" d="M295.07,46.75s-.85-24.09,21.32-24l-1.45-2.63-12.15,3.64-3.56,3.82L296,33.19l-1.92,6.63.37,4.49" transform="translate(0.41 -0.59)"/><path class="cls-73" d="M302,25.51a22.66,22.66,0,0,0-6.91,15.61h0a22.64,22.64,0,0,0,5.88,16h0a21.47,21.47,0,0,0,15.22,7h0a21.48,21.48,0,0,0,15.64-6h0a22.63,22.63,0,0,0,6.91-15.6h0a22.65,22.65,0,0,0-5.88-16h0a21.6,21.6,0,0,0-15.22-7h0a21.55,21.55,0,0,0-15.64,6Zm-2.07,32.57a24,24,0,0,1-6.25-17h0A24.06,24.06,0,0,1,301,24.49h0a23,23,0,0,1,16.67-6.43h0a23,23,0,0,1,16.21,7.5h0a24,24,0,0,1,6.25,17h0a24,24,0,0,1-7.34,16.57h0a23,23,0,0,1-16.67,6.43h0a22.86,22.86,0,0,1-16.21-7.5Z" transform="translate(0.41 -0.59)"/><path class="cls-74" d="M326.36,42.19l-3.46.4-4.65.38-3,0-2.93-.19L310.1,42l-1.91-2.2-1.4-4.43-.31-1-2-.76-1.13-2-.77-2.87,1-2.46,2.27-.71,1.76.92.8,1.91,1-.13.37-.43-.29-2V23.36l.63-3.43,0-1.95,1.64-2.45,2.81-1.89,4.87-1.9,5.31,1,4.53,3.5,2,3.48,1.29,2.54.15,6.18-1.22,5.3-2,4.67-1.86,2.47" transform="translate(0.41 -0.59)"/><path class="cls-75" d="M323,56.94l-12.3.11-.06,2.06.81,7.25-.53.59-8.49-3.21-.57-1.07-.54-9.74L299.46,47l-.39-1.39,7-4.5,2.17-.79,1.82,2.38,1.58,1.51,1.87.66.85.29.9,4.5.76,1,2-.63-1.46,2.63,7.34,3.76-.95.5" transform="translate(0.41 -0.59)"/><path class="cls-76" d="M303.58,26.32l2.26-.72,1.77.92.8,1.92,1-.13.29-1-.45-2,.67-4.72L309.61,18l1.6-1.75,3.44-2.55-.91-1.31-4.8,2.17-2,1.48-1.2,2.36-1.78,2.27-.6,2.74.25,2.94" transform="translate(0.41 -0.59)"/><path class="cls-77" d="M307.36,18.35s1.39-3.14,6.59-4.52.29-1.11.29-1.11l-5.64,2-2.21,2.07-1,1.67,2-.1" transform="translate(0.41 -0.59)"/><path class="cls-77" d="M304.54,25.74s-1.6-6.06,5.3-6.7L309.61,18l-4.76,1-1.52,4.43.25,2.94,1-.58" transform="translate(0.41 -0.59)"/><path class="cls-78" d="M307,33.82l1.17-1.06a.72.72,0,0,1,.58.68c.07.61.15,6,3.74,9.05.34.29-2.73-.52-2.73-.52l-2.61-4.38" transform="translate(0.41 -0.59)"/><path class="cls-78" d="M322.89,32.71s.29-2.6,1-2.38a1,1,0,0,1,.68.94s-1.76,1-1.68,1.44" transform="translate(0.41 -0.59)"/><path class="cls-78" d="M330.33,23.41s-1.42.25-1.59,1.49,1.53.3,1.79.22" transform="translate(0.41 -0.59)"/><path class="cls-78" d="M319.94,23.16s-1.9.2-1.94,1.39,2.11,1.19,2.73.69" transform="translate(0.41 -0.59)"/><path class="cls-78" d="M308.08,28.35s-3.19-2.08-3.58-.2-1.23,3.22.34,5.25L303.73,33l-1-2.69-.26-2.6,2.05-2,2.23.24L308,27.07l.05,1.28" transform="translate(0.41 -0.59)"/><path class="cls-78" d="M309.8,23s1.69-7.52,9.12-8.73c6.11-1,9.27.56,10.43,2,0,0-5.21-6.61-10.41-4.81s-9.12,5.28-9.1,7.59c0,4,0,4,0,4" transform="translate(0.41 -0.59)"/><path class="cls-78" d="M329.93,17.1s-2.49-.17-2.65,2.06a1.92,1.92,0,0,0,.14.71s2.05-2.18,3.22-.95" transform="translate(0.41 -0.59)"/><path class="cls-78" d="M318.93,19.83s-.33-3.44-3.31-1.54c-1.93,1.22-1.8,3-1.49,3.4s.23,1,.5.58.25-2,1.21-2.41,2.53-.86,3.09,0" transform="translate(0.41 -0.59)"/><path class="cls-79" d="M310.11,42.76l-8.2,3.33s2.93,13.42,1.07,17.5l-1.18-.48.07-5.08L300,48.38l-.87-2.69,8.6-5.41,2.43,2.48" transform="translate(0.41 -0.59)"/><path class="cls-79" d="M310.7,50.16l1.11,1.43-.17,5.15-1.36-.05s0-3.59,0-4,.23-2,.23-2" transform="translate(0.41 -0.59)"/><path class="cls-79" d="M310.5,57.49l-3.88,0,1.1.82,2.73.53" transform="translate(0.41 -0.59)"/><path class="cls-75" d="M323.73,57.06h3.2l.53,7.92-3.28.33-.45-8.26" transform="translate(0.41 -0.59)"/><path class="cls-75" d="M324.6,57.08l4.81-.1s2.14-4.92,2.14-5.17,1.94-7.17,1.94-7.17l-3.73-4.15-.77-.73-2.12,2-.26,8-2,7.34" transform="translate(0.41 -0.59)"/><path class="cls-79" d="M326.76,56.55l-3,.51.37,2.41c1.1.55,3-.76,3-.76" transform="translate(0.41 -0.59)"/><path class="cls-79" d="M327.34,41.53l5.86,4.66.24-2L329,39.8l-1.69,1.73" transform="translate(0.41 -0.59)"/><path class="cls-62" d="M312.94,73.64l-1.54-7.28L310.67,61v-4l8.07-.17,5,.16L323,66l.57,7-.14,1.28-6.54.3-3.93-1" transform="translate(0.41 -0.59)"/><path class="cls-77" d="M322.62,56.93s-.73,8.91.37,15.31a16.29,16.29,0,0,1-6.41,1.84l7.23,0,.87-.48-.58-14.11-.18-3" transform="translate(0.41 -0.59)"/><path class="cls-62" d="M327.59,64.32l3.38-.85,6.35-.12,1.05-2.9-1.54-5.13-2-.32-2.77.77L329.42,57,328,56.66l-1.11.41" transform="translate(0.41 -0.59)"/><path class="cls-77" d="M327.59,62.59a12.34,12.34,0,0,1,2.62-.87l-.8-4.76,1.13-.4s.64,4.5.62,5c0,0,4.8.41,5.24.43a7.77,7.77,0,0,0,.92-4l.86,2.78,0,1.54-1.44,2-1.55.3-2.58-.18-.83-1.14-3,.34-1,.32" transform="translate(0.41 -0.59)"/><path class="cls-62" d="M324.42,56.38l-1.75-4.84-1.89-2.91s.48-1.17,1.08-1.15l2,.06,1.87.76-.27,3.18-1,4.9" transform="translate(0.41 -0.59)"/><path class="cls-77" d="M324.84,54.76s-2.25-4.71-2.23-5.41c0,0,.47-1,1.07-.75s1.86,1,1.86,1l0-1.63-2.91-.7-2,.19,3.09,8.05.7.11" transform="translate(0.41 -0.59)"/><path class="cls-62" d="M314.7,43.1l-2.37-.34L310.12,42l0,.79L311.15,44l3.4,1.65" transform="translate(0.41 -0.59)"/><path class="cls-77" d="M310.87,43.23s2.62,1.2,3.49,1l.05,1L312,44.66l-1.41-1.09.25-.34" transform="translate(0.41 -0.59)"/><path class="cls-71" d="M328.12,48a15.75,15.75,0,0,1-3.9-.67c.09-.48-.05-.94.09-1.27a3.13,3.13,0,0,1,1.35-.25,2.36,2.36,0,0,0-1.48-.21,2.68,2.68,0,0,0-.23-.8c.84-.26,2.82-2.11,3.88-1.45.52.33.69,2,.7,2.91a3,3,0,0,1-.41,1.74" transform="translate(0.41 -0.59)"/><path class="cls-80" d="M328.12,48a15.75,15.75,0,0,1-3.9-.67c.09-.48-.05-.94.09-1.27a3.13,3.13,0,0,1,1.35-.25,2.36,2.36,0,0,0-1.48-.21,2.68,2.68,0,0,0-.23-.8c.84-.26,2.82-2.11,3.88-1.45.52.33.69,2,.7,2.91a3,3,0,0,1-.41,1.74Z" transform="translate(0.41 -0.59)"/><path class="cls-71" d="M321.24,45.35a3.16,3.16,0,0,1,0,.32c-.47.28-1.19.26-1.71.5a4.6,4.6,0,0,1,1.8.52c0,.27,0,.56-.06.84a31.59,31.59,0,0,1-2.65,1.87,6.5,6.5,0,0,1-2.61.71c-.27-.08-.3-.43-.4-.77a11.3,11.3,0,0,1-.75-2.9c0-1.32-.08-3.56,1.34-3.26a13,13,0,0,1,3.37,1.34,3.58,3.58,0,0,0,1.7.83" transform="translate(0.41 -0.59)"/><path class="cls-80" d="M321.24,45.35a3.16,3.16,0,0,1,0,.32c-.47.28-1.19.26-1.71.5a4.6,4.6,0,0,1,1.8.52c0,.27,0,.56-.06.84a31.59,31.59,0,0,1-2.65,1.87,6.5,6.5,0,0,1-2.61.71c-.27-.08-.3-.43-.4-.77a11.3,11.3,0,0,1-.75-2.9c0-1.32-.08-3.56,1.34-3.26a13,13,0,0,1,3.37,1.34,3.58,3.58,0,0,0,1.7.83Z" transform="translate(0.41 -0.59)"/><path class="cls-71" d="M322,47a4.74,4.74,0,0,1-.17-1.57c2-1.22,2.22,2.29.17,1.57" transform="translate(0.41 -0.59)"/><path class="cls-80" d="M322,47a4.74,4.74,0,0,1-.17-1.57c2-1.22,2.22,2.29.17,1.57Z" transform="translate(0.41 -0.59)"/><path class="cls-72" d="M324.79,47.63s-.57-.89-.13-1.13.87,0,1.14-.4,0-.7.13-1.19.53-.59,1-.66,1.64-.21,1.79.22l-.46-1.56-1-.38-3.33,1.78-.19.95-.06,1.89" transform="translate(0.41 -0.59)"/><path class="cls-72" d="M315.67,50.17l-.2-4c-.12-2,.53-1.64,2.27-1.58a4.49,4.49,0,0,1,1.7.57c.45,1-.81.73.51,1.48,1.09.64,3.11-.26,2.69-1.63-.25-.32-1.3-.14-1.68-.35l-2-1.11c-.84-.47-2.78-1.19-3.7-.6-2.36,1.48,0,5.5.74,7.16" transform="translate(0.41 -0.59)"/><path class="cls-73" d="M318.93,19.83c-2.33-.63-3.55.87-4.3,2.43-.64-.17-.35-1-.17-1.46.46-1.14,2.19-2.62,3.58-2.36.58.09,1.35.65.89,1.39" transform="translate(0.41 -0.59)"/><path class="cls-73" d="M330.26,22.86h.11a25.53,25.53,0,0,0,1.54,3.3c-.49,1-3.45,1.85-3.36,0,.65-.26,1.73,0,2.31-.35a6.34,6.34,0,0,1-.6-2.95" transform="translate(0.41 -0.59)"/><path class="cls-73" d="M320,22.56a10.56,10.56,0,0,0,1.29,2.63c.32.32.93.73.59,1.58a2,2,0,0,1-.94.72c-1.13.29-3.7,0-2.8-1.41.94.06,2.15.67,2.86,0-.48-.86-1.38-2.58-1-3.54" transform="translate(0.41 -0.59)"/><path class="cls-73" d="M329.53,32.22c-1.7,1-3.61,2.14-6.37,1.78a1.85,1.85,0,0,1-.16-2.41c.28.52.07,1.45.9,1.63,1.55.32,3.43-.87,4.56-1.23.73-1.15,0-1.6-.62-2.39-1.24-1.58-2.9-3.58-2.77-5.89.55-.36.55.61.62.78a22.73,22.73,0,0,0,3.41,5c.31.34.79.69.84.91.14.61-.47,1.36-.41,1.78" transform="translate(0.41 -0.59)"/><path class="cls-73" d="M307.41,30.37c-.52-.33-.6-1.64-1.21-1.69-.89-.09-.79,1.68-.82,2.72a3.26,3.26,0,0,1-.17-3.14c-.51-.27-.74.25-1,.43.47-2.63,3.92-1.09,3.24,1.68" transform="translate(0.41 -0.59)"/><path class="cls-73" d="M330.54,33.36c-.84,1.46-2,3.07-4.28,3a5.12,5.12,0,0,1,.05-1.5c1.76-.13,2.89-1,4.23-1.55" transform="translate(0.41 -0.59)"/><path class="cls-73" d="M319.53,34c1.42.82,4.12,1,6.11,1a6.66,6.66,0,0,1,.07,1.5c-2.57,0-5.56-.71-6.18-2.51" transform="translate(0.41 -0.59)"/><path class="cls-73" d="M319.21,35.37c.94,2.58,4.42,2.4,7.35,2.43a1.48,1.48,0,0,1-.8.83,7.34,7.34,0,0,1-4.83-.17,6.77,6.77,0,0,1-1.75-2.08c-.19-.28-1.25-1,0-1" transform="translate(0.41 -0.59)"/><path class="cls-81" d="M328.83,49.72a48.73,48.73,0,0,1-3.91,5.78,28.11,28.11,0,0,0,1.16-6.82,2.17,2.17,0,0,1,2.75,1" transform="translate(0.41 -0.59)"/><path class="cls-73" d="M335,57.24c-1.32.23-2.3,1.48-3.6,1.35a4.24,4.24,0,0,1,3.6-1.35" transform="translate(0.41 -0.59)"/><path class="cls-73" d="M335.49,59.33a21.18,21.18,0,0,1-3.47.09c.56-.77,2.55-.42,3.47-.09" transform="translate(0.41 -0.59)"/><path class="cls-73" d="M335.82,61.15c-1.21,0-2.73-.08-3.88-.21.7-.73,3.1-.18,3.88.21" transform="translate(0.41 -0.59)"/><path class="cls-77" d="M326,65.75c.13,1.53.69,3.11.56,4.77a5.09,5.09,0,0,1-2,.36c0-1.41-.14-3.6,0-5,.42,0,1.09-.28,1.45-.16" transform="translate(0.41 -0.59)"/><path class="cls-74" d="M324.79,43.13c-.63.38-1.16.86-1.76,1.26a3.69,3.69,0,0,1-2.94-.93c0-.06.11,0,.11-.11,1.37.69,3.18-.14,4.59-.22" transform="translate(0.41 -0.59)"/><path class="cls-81" d="M317.17,52.4c.44-1.63,2-2.46,3.38-3.34a28.66,28.66,0,0,1,3,6.39,30.74,30.74,0,0,1-6.38-3.05" transform="translate(0.41 -0.59)"/><path class="cls-73" d="M324.55,65.91c-.1,1.35,0,3.52,0,5a5,5,0,0,0,2-.36c.13-1.67-.42-3.24-.56-4.77-.34-.12-1,.19-1.45.16Zm-13.79-8.16a70.86,70.86,0,0,0,2.56,15,19.55,19.55,0,0,0,10.82.55c-.48-2.75-.13-6.06-.37-9-.18-2.21,0-4.4-.26-6.65-3.71-.93-9-.49-12.75.08Zm13.67,0c-.11,2.34,0,4.68.06,7a21.23,21.23,0,0,0,2.36-.35c-.2-2.26-.08-4.82-.58-6.84a5.72,5.72,0,0,0-1.84.16Zm4.57-.24a6.56,6.56,0,0,0-1.32,0c.14,1.91.53,4,.63,6.06a5.66,5.66,0,0,0,1.52-.34c.07-1.76,0-4.2-.83-5.68ZM335.73,64a3,3,0,0,0,1.91-3.59,17.75,17.75,0,0,0-1-4c-.33-.54-1.26-1.27-2.07-.82-1.27.77-3.5.93-4.42,1.86a32.2,32.2,0,0,1,.6,5.56c1.56.14,3.5-.33,4.78.28a16.85,16.85,0,0,0-2.88.64,6.17,6.17,0,0,0,3.12.1Zm-12.22-8.56a27.61,27.61,0,0,0-3-6.39c-1.39.87-2.92,1.69-3.37,3.34a34.89,34.89,0,0,0,6.37,3Zm2.55-6.78a28.19,28.19,0,0,1-1.16,6.83,52.75,52.75,0,0,0,3.92-5.78,2.14,2.14,0,0,0-2.76-1.05Zm-2.61-1c-.53-.07-1,.59-1.68.28-.17.18-.32.36-.49.53,1.46,1.9,2.09,4.55,3.21,6.75a29,29,0,0,0,.93-6.61c-.88,0-1.35-.87-2-.95Zm-1.61-2.29A4.63,4.63,0,0,0,322,47c2.05.72,1.81-2.79-.17-1.57Zm-2.28-.84a11.93,11.93,0,0,0-3.37-1.34c-1.42-.32-1.35,1.92-1.34,3.26a11.11,11.11,0,0,0,.75,2.9c.1.34.13.69.4.77a6.8,6.8,0,0,0,2.61-.71,28.3,28.3,0,0,0,2.65-1.87c0-.28,0-.57.06-.84a4.33,4.33,0,0,0-1.8-.52c.5-.24,1.24-.22,1.7-.5,0-.11,0-.22,0-.33a3.67,3.67,0,0,1-1.69-.82Zm-8.51-1.82c-.78.75,2,1.85,2.93,1.93,0-.48.3-.92.26-1.26-1.06-.21-2.48-.13-3.19-.67Zm9.17.65c0,.07-.1.05-.12.1a3.74,3.74,0,0,0,2.94.94c.6-.4,1.15-.89,1.77-1.26-1.43.06-3.24.89-4.59.22Zm8.31,2.82c0-.85-.18-2.58-.7-2.91-1.08-.67-3.06,1.19-3.88,1.46a2.61,2.61,0,0,1,.23.79,2.25,2.25,0,0,1,1.48.22,2.77,2.77,0,0,0-1.35.25c-.12.34,0,.8-.09,1.26a17,17,0,0,0,3.9.68,2.93,2.93,0,0,0,.41-1.75Zm-18.75-2.78c-.23-.17-1.74-2.27-2-2.19a33,33,0,0,0-8.07,4.67c2.11,5,2.85,11,2.83,16.75,2.56,1.3,4.79,3.15,8.32,3.45-.32-2.91-.6-5.53-.75-8.25-.89-.41-2.17-.05-3-.2,0-1,1.28-.4,1.41-1.08.09-.51-.69-.57-.41-1.35.65.26,1,.8,1.65,1,.69-1.36.13-3.83.26-5,0-.22.15-1.19.64-1s-.11,2.64-.11,3.72-.19,2,.21,2.63A98.58,98.58,0,0,1,321.4,56a28.94,28.94,0,0,1-2.8-1.36c-.57-.35-2.35-1.09-2.49-1.62-.25-.89.74-1.3.92-2-1.75.89-2-1-2.4-2.28A17.7,17.7,0,0,1,314,46a42.45,42.45,0,0,1-4.26-2.55Zm17.38-1.32c2.42-1.08,2.68,4.4,1.67,6.12.13.54.62.76.8,1.22-1.39,2.34-2.95,4.51-4.38,6.81,1-.61,2.46,0,3.64-.47.45-.15.79-1.14,1.15-1.92a41.38,41.38,0,0,0,2.5-7,8,8,0,0,0,.35-1.91c-.08-.77-1.09-1.36-1.59-1.83-.94-.91-1.5-1.66-2.5-2.52-.42.59-1.3,1-1.64,1.45ZM305.08,20.24c-1.17,1.21-1,3.54-.94,5.23,2.1-1.21,4.76.27,4.67,2.45,1,0,.41-1.2.25-2-.5-2.55,1.16-5.23.32-7.57a6.11,6.11,0,0,0-4.3,1.88Zm8.36-7c-2.59.65-5.95,2.41-7.07,4.68.83-.1,1.39-.48,2.2-.51a5.2,5.2,0,0,0,1.06.07c.7-.16,1.34-1.7,1.89-2.27s1.16-.79,1.58-1.27c.28-.12.68-.1.71-.51a.39.39,0,0,0-.37-.19Zm13.33,1.11c-2.62-1.59-7.1-2.87-10-1.54-2.33,1.08-5.49,2.87-6.61,5.22.91,2.34-.44,4.41-.6,6.75-.08,1.24.51,2.35.52,3.7-.37.56-1.38.58-2.09.52-.2-1.2-.58-2.57-1.8-2.75A2.87,2.87,0,0,0,303,28.92c-.15,1.78,1.21,4.77,3.3,4.64.81-.05,1-.85,1.9-.82.44,1-.77,1.21-.92,1.88a4.16,4.16,0,0,0,.14,1.18,16.58,16.58,0,0,0,1.88,4.81c1,1.54,3.06,1.82,5.27,2,.43-.85,1.88-.73,2.82-.47a9.48,9.48,0,0,1-3-2.61c-1-1.16-1.94-2.36-1.95-3.81,1.82,2.7,3.32,5.06,6.73,6.33,2.59,1,5.69-.22,7.75-1.57a9.06,9.06,0,0,0,2-2.3,20.18,20.18,0,0,0,3.44-12.07c0-1.81,0-3.63-.56-4.88s-2.72-2.52-4-1.39c-.2-1.26,1.12-2,2.61-1.48-1-1.42-2.1-3.11-3.63-4Zm3.65,41.28c2.12-1,6.07-2.59,7.28.24a20.08,20.08,0,0,1,1.15,3.87c.3,1.49-.53,4.64-2.09,5.08a9.13,9.13,0,0,1-4.58,0,2.8,2.8,0,0,1-.55-.75,6.22,6.22,0,0,0-3.2.44c.06.88-.53,1-1.1,1.14-.46,1.6.7,3.75.36,5.2-.24,1.06-1.52,1.16-2.48,1.32a6.57,6.57,0,0,0,.06,1.56A2.34,2.34,0,0,1,323.12,75c-3.06.26-7.66.28-10.54-.88-.76-2-1.31-4.46-1.91-6.76-2.85.22-5.11-1.37-7.24-2.47-.74-.37-1.76-.61-2-1.22a10.18,10.18,0,0,1-.15-2.74,41.63,41.63,0,0,0-.77-8c-.27-1.24-.8-2.34-1.13-3.54a24.87,24.87,0,0,1-1-3.58c-.19-1.62,1.34-1.66,2.33-2.34,1.54-1,2.75-1.6,4.41-2.54a9.93,9.93,0,0,0,2.16-1.28c.35-.67-.52-1.63-.74-2.17a6.46,6.46,0,0,1-.57-2.39,4.64,4.64,0,0,1-3-2,7.46,7.46,0,0,1-.66-6.5c.08-.16.44-.49.51-.75a8.74,8.74,0,0,0-.17-1.73c0-2.79.65-5.17,2.54-5.93.87-3,3.63-3.92,6.23-5.36a17.39,17.39,0,0,1,3.16-1.22c3.95-1.3,10-.85,13.13,1.71a17.66,17.66,0,0,1,4.2,5c2,4.27,1.56,11.3-.05,16.38a16.36,16.36,0,0,1-1,2.5c-.3.58-1.19,1.69-1.12,2.2s1.9,2,2.29,2.39c.69.72,2,1.66,2.1,2.54a8.29,8.29,0,0,1-.78,3.08,81.35,81.35,0,0,1-2.93,8.34Z" transform="translate(0.41 -0.59)"/><path class="cls-78" d="M317.18,34.54c.12-.15.75-.36,1.6.09,0,0-1,.13-1,1.85l-.43-.1s-.38-1.56-.15-1.84" transform="translate(0.41 -0.59)"/><path class="cls-82" d="M324.24,49.53a.49.49,0,0,1-.5.46.48.48,0,0,1-.46-.49.49.49,0,0,1,.5-.46.51.51,0,0,1,.46.49" transform="translate(0.41 -0.59)"/><path class="cls-82" d="M324.64,51.75a.48.48,0,1,1-.95,0,.48.48,0,0,1,.95,0" transform="translate(0.41 -0.59)"/><path class="cls-83" d="M507.32,75.85a4.07,4.07,0,0,1-3.2-1.54l-12-14.94a4,4,0,0,1-.79-3.49l4.31-18.69a4.11,4.11,0,0,1,2.23-2.78l17.39-8.33a4.05,4.05,0,0,1,1.79-.41,4.12,4.12,0,0,1,1.79.41l17.39,8.28a4,4,0,0,1,2.23,2.79l4.29,18.67a4.13,4.13,0,0,1-.79,3.49l-12,14.94a4.16,4.16,0,0,1-3.2,1.54l-19.38.06Z" transform="translate(0.41 -0.59)"/><path class="cls-62" d="M517,26.54a3.32,3.32,0,0,1,1.41.31l17.4,8.28a3.35,3.35,0,0,1,1.79,2.23L541.86,56a3.2,3.2,0,0,1-.64,2.81l-12,14.94A3.27,3.27,0,0,1,526.61,75H507.32a3.3,3.3,0,0,1-2.58-1.23l-12-14.94a3.38,3.38,0,0,1-.65-2.81l4.29-18.66a3.25,3.25,0,0,1,1.79-2.23l17.39-8.32a4.13,4.13,0,0,1,1.44-.27Zm0-1.62h0a4.93,4.93,0,0,0-2.12.48l-17.4,8.32a4.86,4.86,0,0,0-2.68,3.33l-4.29,18.66a4.81,4.81,0,0,0,1,4.18l12,15a4.89,4.89,0,0,0,3.81,1.84h19.29a4.78,4.78,0,0,0,3.81-1.84l12-14.94a4.77,4.77,0,0,0,1-4.18l-4.28-18.66a4.9,4.9,0,0,0-2.69-3.33l-17.31-8.32a5,5,0,0,0-2.1-.5Z" transform="translate(0.41 -0.59)"/><path class="cls-62" d="M534.39,54.55h0s-.06,0-.06,0-.15,0-.21,0a3.91,3.91,0,0,0-.64-.06,1.23,1.23,0,0,1-.36,0h0a9,9,0,0,1-1.85-.31.69.69,0,0,1-.38-.38s0,0,0-.06h0l-.43-.15a13.44,13.44,0,0,0-.25-4.84,14.89,14.89,0,0,0-1.92-4.5l.36-.31v-.06a.86.86,0,0,1,.16-.52,10.55,10.55,0,0,1,1.54-1.06h0l.31-.17a4.56,4.56,0,0,0,.59-.35s.1-.07.16-.15.07,0,.07-.06h0a1.17,1.17,0,0,0,.25-1.54,1,1,0,0,0-.8-.38,1.27,1.27,0,0,0-.74.27h0l-.07.07c-.06,0-.1.1-.16.14a3.84,3.84,0,0,0-.44.48,2.93,2.93,0,0,1-.25.25h0A8.18,8.18,0,0,1,527.78,42a.66.66,0,0,1-.32.1.36.36,0,0,1-.2,0h-.07l-.41.27A17.48,17.48,0,0,0,525.36,41a13.59,13.59,0,0,0-7.17-2.85l-.05-.44-.06-.06a.67.67,0,0,1-.27-.44,12.44,12.44,0,0,1,.1-1.85v0A2.17,2.17,0,0,1,518,35c0-.21.06-.42.1-.65V34h0A1.11,1.11,0,0,0,517,32.85a1.1,1.1,0,0,0-.75.35A1.08,1.08,0,0,0,516,34h0v.29a2.21,2.21,0,0,0,.1.65,2.15,2.15,0,0,1,.07.35v0a10.22,10.22,0,0,1,.1,1.85.64.64,0,0,1-.27.44l-.06.06h0l0,.44a17.19,17.19,0,0,0-1.85.27,13.16,13.16,0,0,0-6.8,3.85l-.35-.25h-.07c-.06,0-.14,0-.21,0a.66.66,0,0,1-.31-.1,10.3,10.3,0,0,1-1.37-1.27h0a2.93,2.93,0,0,0-.25-.25c-.15-.17-.27-.31-.44-.48a.69.69,0,0,1-.16-.15c-.05,0-.07,0-.07-.06h0a1.16,1.16,0,0,0-.74-.27,1,1,0,0,0-.8.38,1.12,1.12,0,0,0,.25,1.54h0c.05,0,.05,0,.07,0s.1.1.16.14a4.67,4.67,0,0,0,.59.36,3.07,3.07,0,0,1,.31.16h0a10,10,0,0,1,1.54,1.06.68.68,0,0,1,.16.52v.07h0l.36.31c-.06.1-.15.16-.17.27a13.22,13.22,0,0,0-1.91,9.07l-.44.15s0,0,0,.06a.72.72,0,0,1-.38.37,9,9,0,0,1-1.85.32h0a1,1,0,0,0-.35,0c-.21,0-.42,0-.65.06-.06,0-.14,0-.21,0a.11.11,0,0,0-.1,0h0a1.14,1.14,0,0,0-.9,1.27,1.07,1.07,0,0,0,1.11.79.66.66,0,0,0,.27,0h0s.06,0,.06,0,.15,0,.21,0a2.87,2.87,0,0,0,.62-.25c.11,0,.21-.11.31-.15h0a8.64,8.64,0,0,1,1.79-.52h.06a.75.75,0,0,1,.44.17s0,0,.06,0h0l.48-.06a13.86,13.86,0,0,0,4.49,6.47,14.76,14.76,0,0,0,1.48,1l-.21.43c0,.05,0,.05,0,.07a.64.64,0,0,1,.06.54,9.48,9.48,0,0,1-.89,1.62v0c-.06.11-.15.17-.21.27a6.45,6.45,0,0,0-.37.54,1,1,0,0,0-.11.17.07.07,0,0,1,0,.06h0A1.11,1.11,0,0,0,509,68.3a1,1,0,0,0,.41.1,1.24,1.24,0,0,0,1-.64h0s.05-.06.05-.06.06-.15.1-.17a6.51,6.51,0,0,0,.21-.62c0-.11.06-.21.1-.32h0a9.26,9.26,0,0,1,.73-1.72,1,1,0,0,1,.44-.32s0,0,.06,0h0l.25-.43a13.54,13.54,0,0,0,4.81.89,12.16,12.16,0,0,0,3-.35A16.19,16.19,0,0,0,522,64.1l.21.37s0,0,.06,0a.64.64,0,0,1,.44.32,12.52,12.52,0,0,1,.73,1.72v0c0,.11.06.21.1.32a3.24,3.24,0,0,0,.21.62l.1.17a.07.07,0,0,0,0,.06h0a1.16,1.16,0,0,0,1,.64,1,1,0,0,0,.42-.1,1.09,1.09,0,0,0,.52-.62,1.28,1.28,0,0,0-.06-.86h0s0,0,0-.06-.07-.15-.11-.17a4.27,4.27,0,0,0-.37-.54c-.06-.1-.15-.16-.21-.27v0a7.34,7.34,0,0,1-.89-1.62.85.85,0,0,1,0-.54s0,0,0-.07h0l-.17-.41a13.26,13.26,0,0,0,4.54-4.43,12.45,12.45,0,0,0,1.43-3.1l.42.06s0,0,.06,0a1,1,0,0,1,.44-.17H531a7.5,7.5,0,0,1,1.79.52h0c.11,0,.21.1.32.15a5.32,5.32,0,0,0,.62.25c.06,0,.15,0,.21,0a.11.11,0,0,1,.1,0h0a.66.66,0,0,0,.27,0,1.16,1.16,0,0,0,1.1-.79,1.46,1.46,0,0,0-1.06-1.12ZM518.5,52.86l-1.52.73-1.52-.73-.38-1.62,1-1.31h1.68l1,1.31-.35,1.62Zm9-3.58a10.54,10.54,0,0,1,.25,3.48l-5.26-1.52a.93.93,0,0,1-.64-1.1.87.87,0,0,1,.2-.38L526.17,46a11.93,11.93,0,0,1,1.29,3.26Zm-3-5.32L520,47.16a.91.91,0,0,1-1.21-.21.63.63,0,0,1-.17-.37l-.31-5.6a10.46,10.46,0,0,1,6.2,3Zm-10-2.81c.38-.07.73-.15,1.11-.21l-.32,5.49a1,1,0,0,1-.93.9.82.82,0,0,1-.42-.11L509.4,44a10.56,10.56,0,0,1,5.14-2.81ZM507.76,46l4.1,3.64a.91.91,0,0,1,.1,1.27.63.63,0,0,1-.41.27l-5.33,1.54A11.08,11.08,0,0,1,507.76,46Zm-.91,9.32,5.47-.94a.91.91,0,0,1,.95.73.71.71,0,0,1,0,.54h0l-2.1,5.06a10.75,10.75,0,0,1-4.28-5.39Zm12.54,6.84a11.34,11.34,0,0,1-2.41.27,11.83,11.83,0,0,1-3.48-.54L516.21,57a.93.93,0,0,1,1.1-.25,2,2,0,0,1,.42.38h0l2.64,4.78c-.29.09-.65.17-1,.27Zm6.7-4.78a10.84,10.84,0,0,1-3.31,3.33l-2.16-5.18a.92.92,0,0,1,.48-1.07,1.25,1.25,0,0,1,.48-.1l5.49.94a6.61,6.61,0,0,1-1,2.08Z" transform="translate(0.41 -0.59)"/><path class="cls-84" d="M197.88,163.55h13l-13.46,39.86a2.09,2.09,0,0,1-1.95,1.4H185.35a2.09,2.09,0,0,1-1.68-.86,2,2,0,0,1-.27-1.86L195.93,165a2.05,2.05,0,0,1,1.95-1.4Z" transform="translate(0.41 -0.59)"/><path class="cls-85" d="M216.72,190.29H196.17a.94.94,0,0,0-.65,1.64l13.21,12.31a2.07,2.07,0,0,0,1.42.57h11.63Z" transform="translate(0.41 -0.59)"/><path class="cls-86" d="M197.88,163.55a2.07,2.07,0,0,0-2,1.44l-12.51,37.06a2.06,2.06,0,0,0,2,2.76h10.35a2.2,2.2,0,0,0,1.7-1.44L199.9,196l8.92,8.31a2,2,0,0,0,1.33.48h11.6l-5.08-14.52H201.85l9.07-26.74Z" transform="translate(0.41 -0.59)"/><path class="cls-87" d="M214.44,165a2.06,2.06,0,0,0-1.95-1.4H198a2,2,0,0,1,2,1.4l12.54,37.14a2.12,2.12,0,0,1-.28,1.86,2,2,0,0,1-1.67.86H225a2.09,2.09,0,0,0,1.68-.86,2,2,0,0,0,.27-1.86Z" transform="translate(0.41 -0.59)"/><path class="cls-88" d="M306.15,127.88l3.57-3.09.33-1.39a15,15,0,0,0-21.26-.2,15.36,15.36,0,0,0-3.67,5.83l1.2-.08,6.73-.61.54-.49a8.34,8.34,0,0,1,11.43-.11Z" transform="translate(0.41 -0.59)"/><path class="cls-89" d="M314,131a15,15,0,0,0-4-7.6l-5,4.33a8.35,8.35,0,0,1,2.58,6.79l-.06.82a4.14,4.14,0,1,1-.59,8.26l-8.32-.6-.89.83-.35,5,.76.83,8.32.6A10.77,10.77,0,0,0,314,131" transform="translate(0.41 -0.59)"/><path class="cls-90" d="M289.87,149.07l8.3.59.48-6.65-8.31-.59a4.24,4.24,0,0,1-1.67-.49l-1.21.27-3.58,3.09-.38,1.11a10.78,10.78,0,0,0,6.37,2.67" transform="translate(0.41 -0.59)"/><path class="cls-91" d="M291.41,127.52a10.82,10.82,0,0,0-7.91,18.88l5.17-4.47a4.17,4.17,0,0,1,4-7.33,4.12,4.12,0,0,1,1.93,2.22l5.15-4.46a10.78,10.78,0,0,0-8.3-4.84" transform="translate(0.41 -0.59)"/><path class="cls-92" d="M607.7,184.58a4.32,4.32,0,0,0,.12,1.24,7.75,7.75,0,0,0,.41,1,.63.63,0,0,1,.09.33.53.53,0,0,1-.28.41l-.9.56a.6.6,0,0,1-.36.11.65.65,0,0,1-.42-.21,3.76,3.76,0,0,1-.48-.67c-.13-.24-.26-.51-.41-.84a5.18,5.18,0,0,1-4.17,1.8,3.86,3.86,0,0,1-2.76-1.09,3.64,3.64,0,0,1-.95-2.72,3.6,3.6,0,0,1,1.37-2.84,5.08,5.08,0,0,1,3.45-1,11.14,11.14,0,0,1,1.48.16c.52.09,1,.22,1.6.36l0-1a3.13,3.13,0,0,0-.59-2.26,3.22,3.22,0,0,0-2.25-.71,6.13,6.13,0,0,0-1.52.13,11,11,0,0,0-1.52.43c-.23.09-.4.14-.5.17l-.22,0c-.2,0-.29-.15-.28-.44l0-.69a.91.91,0,0,1,.11-.48,1.11,1.11,0,0,1,.4-.28,8.09,8.09,0,0,1,1.78-.58,8.28,8.28,0,0,1,2.19-.19,5.14,5.14,0,0,1,3.63,1.24,4.65,4.65,0,0,1,1.05,3.48l-.15,4.52ZM602,186.52a4.47,4.47,0,0,0,1.45-.21,3.07,3.07,0,0,0,1.36-.85,2.27,2.27,0,0,0,.5-.88,5.44,5.44,0,0,0,.18-1.21l0-.59a12.59,12.59,0,0,0-1.28-.27,10,10,0,0,0-1.31-.13,3.23,3.23,0,0,0-2.1.49,2.3,2.3,0,0,0-.27,3.09A2,2,0,0,0,602,186.52Zm11.17,1.86a.73.73,0,0,1-.52-.15,1.2,1.2,0,0,1-.28-.56l-2.94-10.9a3.16,3.16,0,0,1-.11-.56c0-.23.12-.35.35-.34l1.37,0a.81.81,0,0,1,.54.16,1.17,1.17,0,0,1,.26.55l2.05,9.32,2.48-9.17a1,1,0,0,1,.28-.54.93.93,0,0,1,.56-.12l1.12,0a.82.82,0,0,1,.55.16.91.91,0,0,1,.25.55l1.91,9.43,2.72-9.28a1.18,1.18,0,0,1,.29-.54.92.92,0,0,1,.55-.12l1.3,0c.23,0,.35.12.34.36a1.92,1.92,0,0,1,0,.22,2.18,2.18,0,0,1-.11.35L622.35,188a1.09,1.09,0,0,1-.31.54.9.9,0,0,1-.54.12l-1.2,0a.8.8,0,0,1-.55-.15,1,1,0,0,1-.25-.57l-1.88-9.08-2.44,8.93a1.11,1.11,0,0,1-.28.55.88.88,0,0,1-.56.12Zm17.94,1a9.08,9.08,0,0,1-2.14-.32,6.53,6.53,0,0,1-1.59-.61,1,1,0,0,1-.42-.41,1,1,0,0,1-.07-.39l0-.71c0-.3.13-.43.34-.42a.59.59,0,0,1,.25.05l.34.15a8,8,0,0,0,1.52.53,7.88,7.88,0,0,0,1.66.22A3.81,3.81,0,0,0,633,187a1.49,1.49,0,0,0,.76-1.31,1.35,1.35,0,0,0-.34-1,3.66,3.66,0,0,0-1.39-.77l-2-.69a4.2,4.2,0,0,1-2.19-1.5,3.35,3.35,0,0,1-.63-2,3.08,3.08,0,0,1,.43-1.54,3.58,3.58,0,0,1,1-1.12,4.41,4.41,0,0,1,1.47-.68,6.12,6.12,0,0,1,1.77-.18,6,6,0,0,1,.94.09c.32,0,.61.11.9.18s.54.16.79.25a2.91,2.91,0,0,1,.58.27,1.24,1.24,0,0,1,.41.36.8.8,0,0,1,.11.47l0,.65c0,.3-.13.45-.34.44a1.47,1.47,0,0,1-.53-.19,6.63,6.63,0,0,0-2.66-.63,3.56,3.56,0,0,0-1.87.34,1.36,1.36,0,0,0-.7,1.22,1.32,1.32,0,0,0,.39,1,4.07,4.07,0,0,0,1.51.82l2,.69a4.33,4.33,0,0,1,2.12,1.41,3.16,3.16,0,0,1,.58,2,3.65,3.65,0,0,1-.41,1.61,3.92,3.92,0,0,1-1.06,1.2,4.6,4.6,0,0,1-1.58.73A6.89,6.89,0,0,1,631.07,189.33Z" transform="translate(0.41 -0.59)"/><path class="cls-93" d="M633.5,196.2c-4.7,3.25-11.44,4.84-17.18,4.66a30.76,30.76,0,0,1-20.52-8.58c-.43-.4,0-.92.49-.6a41.26,41.26,0,0,0,36.57,3.44C633.64,194.79,634.27,195.67,633.5,196.2Zm2-2.12c-.56-.77-3.87-.48-5.37-.35-.45,0-.51-.35-.09-.63,2.68-1.76,7-1.09,7.47-.46s-.3,4.94-2.82,6.93c-.39.31-.75.13-.57-.29C634.7,197.92,636.05,194.84,635.48,194.08Z" transform="translate(0.41 -0.59)"/><path class="cls-94" d="M447.85,193.57s-7.37,6.17-7.61,10.8l-.63,12.16a7,7,0,0,0,6.49,7.41l.23,0h.09a7,7,0,0,0,7.17-6.7l.62-11.81C454.5,199.78,447.86,193.59,447.85,193.57Z" transform="translate(0.41 -0.59)"/><path class="cls-95" d="M379.93,190s-7.37,6.17-7.61,10.8L371.69,213a7,7,0,0,0,6.49,7.41l.23,0a.27.27,0,0,1,.09,0,7,7,0,0,0,7.17-6.7l.62-11.82C386.58,196.24,379.94,190.06,379.93,190Z" transform="translate(0.41 -0.59)"/><path class="cls-96" d="M461.59,255.36a.42.42,0,0,0-.26-.08h-.07a.79.79,0,0,0-.22.06h0c-.92.45-1.87,2.85-1.93,3l-1.1,4.73-1.69,7.27L455,276l3,3.15,4.71-16.65C462.67,257.61,462.2,255.75,461.59,255.36Z" transform="translate(0.41 -0.59)"/><path class="cls-97" d="M461,255.35h0l-17.28-31.8-5.65,2.9L458,263.08l1.1-4.73c.06-.15,1-2.55,1.93-3h0Z" transform="translate(0.41 -0.59)"/><polygon class="cls-98" points="432.93 246.92 456.71 269.76 458.4 262.49 438.5 225.87 432.93 246.92"/><path class="cls-99" d="M467.24,252.46a.57.57,0,0,0-.59,0l-5.63,2.9h0a.79.79,0,0,1,.22-.06h.07a.42.42,0,0,1,.26.08c.61.39,1.08,2.25,1.07,7.11L458,279.12l5.65-2.9,4.71-16.65C468.32,254.7,467.85,252.85,467.24,252.46Z" transform="translate(0.41 -0.59)"/><path class="cls-96" d="M360.35,250.11h0a.74.74,0,0,0-.22-.08h-.07a.52.52,0,0,0-.27.05c-.64.33-1.31,2.12-1.8,7l2.95,17.05,3.27-2.83-2.24-18C361.91,253.13,361.22,250.65,360.35,250.11Z" transform="translate(0.41 -0.59)"/><path class="cls-100" d="M360.35,250.11h0c.87.54,1.56,3,1.61,3.18l.6,4.82,23.6-34.36-5.32-3.47Z" transform="translate(0.41 -0.59)"/><polygon class="cls-101" points="362.97 257.52 363.9 264.94 389.92 244.69 386.57 223.16 362.97 257.52"/><path class="cls-102" d="M359.78,250.06a.52.52,0,0,1,.27-.05h.07a.74.74,0,0,1,.22.08,0,0,0,0,1,0,0h0l-5.3-3.47a.57.57,0,0,0-.59,0c-.64.33-1.31,2.12-1.8,7l3,17.05,5.31,3.47L358,257C358.47,252.18,359.14,250.39,359.78,250.06Z" transform="translate(0.41 -0.59)"/><path class="cls-103" d="M410.09,266.59c14,.73,22.93-5.25,23.33-10.06l-45.5-2.37C387.83,259,396.05,265.86,410.09,266.59Z" transform="translate(0.41 -0.59)"/><path class="cls-104" d="M378.79,211.29c-1,18.86,7.57,38.37,8.86,41.55a.19.19,0,0,0,0,.07c-.24,4.65,8.16,11.41,22.54,12.16s23.43-5.11,23.67-9.75c0,0,11.44-21.5,12.76-38.41C444,217.73,378.79,211.29,378.79,211.29Z" transform="translate(0.41 -0.59)"/><path class="cls-105" d="M450.06,150.54l-3.5,67.24c-5.42,5.11-19.88,8.08-34,7.35-14.74-.77-28.34-7.44-33.85-12.86l3.4-65.26c.45-8.66,16-14.88,34.77-13.91S450.51,141.89,450.06,150.54Z" transform="translate(0.41 -0.59)"/><g class="cls-106"><path class="cls-107" d="M417.18,206.06s-10.63,6-10.87,10.63l-.63,12.15c-.36,6.94,3.84,12.42,10.24,12.75,3.8.2,9.13-5.35,9.33-9.15l.61-11.82C426.3,212.13,417.19,206.07,417.18,206.06Z" transform="translate(0.41 -0.59)"/></g><g class="cls-108"><path class="cls-109" d="M379.85,190.86l-1.79,34.43s8.79,1.39,9.4-10.18l.34-6.57C388.08,203.15,383.46,193.41,379.85,190.86Z" transform="translate(0.41 -0.59)"/></g><path class="cls-110" d="M413.4,201.37s-7.38,6.17-7.62,10.8l-.63,12.15a7.06,7.06,0,0,0,6.49,7.42H412a7,7,0,0,0,7.18-6.7l.61-11.82C420.05,207.57,413.4,201.39,413.4,201.37Z" transform="translate(0.41 -0.59)"/><path class="cls-111" d="M450,150.78A28.32,28.32,0,0,1,438,157.52a61.22,61.22,0,0,0-22.06-5A62,62,0,0,0,394.2,155a35.87,35.87,0,0,1-12.06-8.08s-1,19.2-1,19.55c-.45,8.66,14.4,16.47,33.15,17.45s34.33-5.25,34.78-13.91Z" transform="translate(0.41 -0.59)"/><path class="cls-112" d="M450.06,150.54c-.45,8.66-16,14.89-34.78,13.91s-33.6-8.78-33.14-17.44,16-14.88,34.77-13.91S450.51,141.89,450.06,150.54Z" transform="translate(0.41 -0.59)"/><path class="cls-113" d="M423.5,122.24c0-.06-.07-.09-.07-.12,0-.18,0-.37,0-.55V110a1.87,1.87,0,0,0,0-.62l-.45-.29-2.49-1.43L418,106.24l-2.43-1.4c-.84-.49-1.68-1-2.53-1.46l-.62-.36a.11.11,0,0,1,0-.18l.62-.37,2.48-1.43L418,99.61l2.48-1.43,2.43-1.41.47-.26a1,1,0,0,1,.46.2q2.08,1.19,4.15,2.4L431.2,101l3,1.73.23.14a.34.34,0,0,1,.19.31v12.62a1.31,1.31,0,0,1-.41.31L431,117.93l-3,1.75-1.52.87Z" transform="translate(0.41 -0.59)"/><path class="cls-114" d="M406.21,119.2c0,.4,0,.78,0,1.17s0,.77,0,1.16v9.31c0,.39,0,.77,0,1.16-.07,0-.11,0-.14,0l-10.95-6.31a.85.85,0,0,1-.06-.46V113.3c0-.18,0-.37,0-.51l.05-.08s0,0,0,0l.24-.15.19-.11,10.58-6.11a.75.75,0,0,1,.41.17l2.86,1.65,3.29,1.9,3.29,1.9,1.1.63c.07,0,.16.08.2.2-.51.32-1,.61-1.56.92l-1.62.93-1.57.91-1.58.91-1.57.91c-.54.31-1.09.62-1.62.94S406.72,118.86,406.21,119.2Z" transform="translate(0.41 -0.59)"/><path class="cls-115" d="M423.14,128.91l.19-.08,10.83-6.23h.11s.05.06.05.09v12.6c-.07.17-.22.22-.34.3l-2.34,1.34-6.24,3.61-2,1.16a.39.39,0,0,1-.45,0l-3.53-2-4-2.31-3-1.76-.3-.21a1.59,1.59,0,0,1,0-.57V123.18c0-.17,0-.33,0-.5s.1-.11.17-.08l.29.16,2,1.15,4.68,2.7,3.76,2.18Z" transform="translate(0.41 -0.59)"/><path class="cls-116" d="M422.18,124a4.89,4.89,0,0,0,.89-.46l.86-.5.81-.47.86-.49.81-.47.86-.5.81-.46.86-.5.82-.47a1,1,0,0,1,.21.09l3.1,1.79.22.17-.15.11-9.78,5.65-.17.07-.33-.16L419,125.19l-7.44-4.29a1.45,1.45,0,0,0-.5-.24,7.6,7.6,0,0,0,0,1v7.69a1.3,1.3,0,0,1-.42.31l-.48.27-.43.25-.43.25-.43.25-.48.28c-.14.08-.28.17-.43.24a1.09,1.09,0,0,1-.46.21,1.31,1.31,0,0,1,0-.48c0-.17,0-.34,0-.5v-9.65c0-.16,0-.33,0-.5s0-.32,0-.44a.55.55,0,0,1,.28-.25l5-2.86,6.54-3.78a2.22,2.22,0,0,0,.27-.19.28.28,0,0,0,0-.11l-7.44-4.3a1.55,1.55,0,0,1,0-.21v-3.64a1.2,1.2,0,0,1,0-.2s.06,0,.08,0l.1,0,9.83,5.67.08.08a1.11,1.11,0,0,1,0,.48V124Z" transform="translate(0.41 -0.59)"/><path class="cls-117" d="M450.46,149l-.08,1.56c-.45,8.66-16,14.89-34.77,13.91-17.57-.91-31.71-7.82-33.05-15.81l.29-5.59C384.54,110.6,421,66.56,421,66.56S452.53,109.27,450.46,149Z" transform="translate(0.41 -0.59)"/><path class="cls-118" d="M404.56,147.55a1.3,1.3,0,1,0,1.84.15A1.32,1.32,0,0,0,404.56,147.55Z" transform="translate(0.41 -0.59)"/><path class="cls-62" d="M430.92,149.86a1.3,1.3,0,1,0,1.83.16A1.3,1.3,0,0,0,430.92,149.86Z" transform="translate(0.41 -0.59)"/><path class="cls-118" d="M416.86,126.74a1.39,1.39,0,1,0,2,.16A1.38,1.38,0,0,0,416.86,126.74Z" transform="translate(0.41 -0.59)"/><path class="cls-118" d="M415.81,131.49a.83.83,0,1,0,1.08,1.27.83.83,0,1,0-1.08-1.27Z" transform="translate(0.41 -0.59)"/><path class="cls-119" d="M414.58,129.79a.54.54,0,1,0,.76.06A.55.55,0,0,0,414.58,129.79Z" transform="translate(0.41 -0.59)"/><path class="cls-119" d="M434.3,142.9a.54.54,0,0,0-.07.76.55.55,0,0,0,.76.06.54.54,0,0,0-.69-.82Z" transform="translate(0.41 -0.59)"/><path class="cls-118" d="M411.05,117.15a.16.16,0,1,0,.21.25.17.17,0,0,0,0-.23A.16.16,0,0,0,411.05,117.15Z" transform="translate(0.41 -0.59)"/><path class="cls-119" d="M411.67,123.94a.17.17,0,0,0,0,.23.16.16,0,1,0,0-.23Z" transform="translate(0.41 -0.59)"/><path class="cls-119" d="M424.58,149.08a.16.16,0,0,0,0,.23.17.17,0,0,0,.23,0,.16.16,0,0,0,0-.23A.17.17,0,0,0,424.58,149.08Z" transform="translate(0.41 -0.59)"/><path class="cls-119" d="M423.2,147a.15.15,0,0,0,0,.22.16.16,0,1,0,.25-.21A.17.17,0,0,0,423.2,147Z" transform="translate(0.41 -0.59)"/><path class="cls-118" d="M399.44,122.93a2,2,0,1,0,2.8.23A2,2,0,0,0,399.44,122.93Z" transform="translate(0.41 -0.59)"/><path class="cls-62" d="M394.28,139.8a1,1,0,1,0,1.27,1.51,1,1,0,0,0,.12-1.4A1,1,0,0,0,394.28,139.8Z" transform="translate(0.41 -0.59)"/><path class="cls-118" d="M412.79,137.09a1,1,0,1,0,1.39.11A1,1,0,0,0,412.79,137.09Z" transform="translate(0.41 -0.59)"/><path class="cls-118" d="M404.12,112.19a1,1,0,1,0,1.39.12A1,1,0,0,0,404.12,112.19Z" transform="translate(0.41 -0.59)"/><path class="cls-118" d="M391.92,131.37a1,1,0,1,0,1.4.12A1,1,0,0,0,391.92,131.37Z" transform="translate(0.41 -0.59)"/><path class="cls-118" d="M432.34,135.33a1,1,0,1,0,1.39.12A1,1,0,0,0,432.34,135.33Z" transform="translate(0.41 -0.59)"/><path class="cls-118" d="M421.1,114.08a1,1,0,1,0,1.28,1.5,1,1,0,0,0-1.28-1.5Z" transform="translate(0.41 -0.59)"/><path class="cls-62" d="M439.66,121a.48.48,0,1,0,.67.06A.48.48,0,0,0,439.66,121Z" transform="translate(0.41 -0.59)"/><path class="cls-118" d="M408.61,145.48a.58.58,0,1,0,.82.07A.59.59,0,0,0,408.61,145.48Z" transform="translate(0.41 -0.59)"/><path class="cls-62" d="M408.14,119.51a.58.58,0,0,0,.75.89.58.58,0,0,0-.75-.89Z" transform="translate(0.41 -0.59)"/><path class="cls-62" d="M394.42,119.89a.39.39,0,1,0,.55,0A.38.38,0,0,0,394.42,119.89Z" transform="translate(0.41 -0.59)"/><path class="cls-62" d="M398.14,132.87a.56.56,0,0,0-.06.8.57.57,0,0,0,.8.07.58.58,0,0,0,.06-.8A.57.57,0,0,0,398.14,132.87Z" transform="translate(0.41 -0.59)"/><path class="cls-62" d="M398.2,134.6a.31.31,0,0,0,0,.44.31.31,0,0,0,.48-.4A.32.32,0,0,0,398.2,134.6Z" transform="translate(0.41 -0.59)"/><path class="cls-118" d="M404.28,104.33a1.39,1.39,0,0,0-.43,1.93,1.4,1.4,0,1,0,.43-1.93Z" transform="translate(0.41 -0.59)"/><path class="cls-118" d="M408.7,99.42a.83.83,0,0,0-.26,1.15.84.84,0,1,0,.26-1.15Z" transform="translate(0.41 -0.59)"/><path class="cls-119" d="M410,101.77a.53.53,0,1,0,.57.9.53.53,0,0,0,.17-.74A.53.53,0,0,0,410,101.77Z" transform="translate(0.41 -0.59)"/><path class="cls-118" d="M413.3,105.92a.16.16,0,0,0,0,.22.15.15,0,0,0,.22,0,.15.15,0,0,0,0-.22A.16.16,0,0,0,413.3,105.92Z" transform="translate(0.41 -0.59)"/><path class="cls-119" d="M422.42,102.36a.16.16,0,0,0-.17.15.17.17,0,0,0,.15.18.16.16,0,0,0,.17-.15A.17.17,0,0,0,422.42,102.36Z" transform="translate(0.41 -0.59)"/><path class="cls-118" d="M432.51,101.41a2,2,0,1,0,1.81,2.15A2,2,0,0,0,432.51,101.41Z" transform="translate(0.41 -0.59)"/><path class="cls-118" d="M422.42,107.35a1,1,0,1,0,1.36.3A1,1,0,0,0,422.42,107.35Z" transform="translate(0.41 -0.59)"/><path class="cls-118" d="M435.79,121.9a1,1,0,0,0-.17,2,1,1,0,1,0,.17-2Z" transform="translate(0.41 -0.59)"/><path class="cls-118" d="M420.6,77.41a1,1,0,0,0-.16,2,1,1,0,1,0,.16-2Z" transform="translate(0.41 -0.59)"/><path class="cls-118" d="M422.73,92.46a1,1,0,0,0-1.07.9,1,1,0,1,0,1.07-.9Z" transform="translate(0.41 -0.59)"/><path class="cls-62" d="M415.4,81.56a.47.47,0,0,0-.52.43.48.48,0,1,0,.95.08A.47.47,0,0,0,415.4,81.56Z" transform="translate(0.41 -0.59)"/><path class="cls-62" d="M428,103.15a.59.59,0,0,0-.63.53.58.58,0,0,0,.53.63.57.57,0,0,0,.62-.53A.58.58,0,0,0,428,103.15Z" transform="translate(0.41 -0.59)"/><path class="cls-62" d="M426.66,112.82a.39.39,0,0,0-.43.35.41.41,0,0,0,.36.43.39.39,0,0,0,.07-.78Z" transform="translate(0.41 -0.59)"/><path class="cls-62" d="M432.38,117.28a.57.57,0,0,0-.61.52.57.57,0,0,0,1.13.1A.58.58,0,0,0,432.38,117.28Z" transform="translate(0.41 -0.59)"/><path class="cls-62" d="M428.51,112.9a.33.33,0,0,0-.34.29.32.32,0,0,0,.29.34.32.32,0,1,0,.05-.63Z" transform="translate(0.41 -0.59)"/><path class="cls-118" d="M404.76,139.56a.4.4,0,0,0-.05.58.41.41,0,0,0,.57.05.42.42,0,0,0,.05-.58A.41.41,0,0,0,404.76,139.56Z" transform="translate(0.41 -0.59)"/><path class="cls-118" d="M428.76,142.1a.41.41,0,0,0-.05.57.41.41,0,0,0,.63-.53A.41.41,0,0,0,428.76,142.1Z" transform="translate(0.41 -0.59)"/><path class="cls-62" d="M417.21,93.41a1,1,0,1,0,1.42.12A1,1,0,0,0,417.21,93.41Z" transform="translate(0.41 -0.59)"/><path class="cls-120" d="M450.46,149s-1.27-28.09-15.61-38.81c-7-5.19-2.87-30.73-14.14-29.56-13.75,1.42-2.91,30.27-16.09,32.7-10.63,2-21.77,29.74-21.77,29.74C384.54,110.6,421,66.56,421,66.56S452.53,109.27,450.46,149Z" transform="translate(0.41 -0.59)"/><path class="cls-121" d="M450.46,149l-.08,1.56c-.45,8.66-16,14.89-34.77,13.91-17.57-.91,4.8-21.08,11.46-25.68,12.46-8.63-22.59-22.71-7.06-35,9.35-7.37-4-15.25,1-37.27C421,66.67,452.53,109.27,450.46,149Z" transform="translate(0.41 -0.59)"/><rect class="cls-122" width="841.98" height="549.18"/></g></g></svg>