<svg xmlns="http://www.w3.org/2000/svg" xmlns:xlink="http://www.w3.org/1999/xlink" viewBox="0 0 841.54 540.8"><defs><style>.cls-1{mask:url(#mask);}.cls-10,.cls-11,.cls-13,.cls-14,.cls-16,.cls-17,.cls-19,.cls-2,.cls-20,.cls-22,.cls-23,.cls-25,.cls-26,.cls-28,.cls-30,.cls-31,.cls-33,.cls-35,.cls-36,.cls-37,.cls-4,.cls-42,.cls-44,.cls-46,.cls-48,.cls-50,.cls-52,.cls-55,.cls-57,.cls-59,.cls-6,.cls-61,.cls-63,.cls-65,.cls-7,.cls-9{mix-blend-mode:multiply;}.cls-2{fill:url(#radial-gradient);}.cls-3{mask:url(#mask-2);}.cls-4{fill:url(#radial-gradient-2);}.cls-5{mask:url(#mask-3);}.cls-6{fill:url(#radial-gradient-3);}.cls-7{fill:url(#radial-gradient-4);}.cls-8{mask:url(#mask-5);}.cls-9{fill:url(#radial-gradient-5);}.cls-10{fill:url(#radial-gradient-6);}.cls-11{fill:url(#radial-gradient-7);}.cls-12{mask:url(#mask-8);}.cls-13{fill:url(#radial-gradient-8);}.cls-14{fill:url(#radial-gradient-9);}.cls-15{mask:url(#mask-10);}.cls-16{fill:url(#radial-gradient-10);}.cls-17{fill:url(#radial-gradient-11);}.cls-18{mask:url(#mask-12);}.cls-19{fill:url(#radial-gradient-12);}.cls-20{fill:url(#radial-gradient-13);}.cls-21{mask:url(#mask-14);}.cls-22{fill:url(#radial-gradient-14);}.cls-23{fill:url(#radial-gradient-15);}.cls-24{mask:url(#mask-16);}.cls-25{fill:url(#radial-gradient-16);}.cls-26{fill:url(#radial-gradient-17);}.cls-27{mask:url(#mask-18);}.cls-28{fill:url(#radial-gradient-18);}.cls-29{mask:url(#mask-19);}.cls-30{fill:url(#radial-gradient-19);}.cls-31{fill:url(#radial-gradient-20);}.cls-32{mask:url(#mask-21);}.cls-33{fill:url(#Áåçûìÿííûé_ãðàäèåíò_20);}.cls-34{mask:url(#mask-22);}.cls-35{fill:url(#Áåçûìÿííûé_ãðàäèåíò_20-2);}.cls-36{fill:url(#radial-gradient-21);}.cls-37{fill:url(#radial-gradient-22);}.cls-38{fill:none;}.cls-39{isolation:isolate;}.cls-40{clip-path:url(#clip-path);}.cls-41{mask:url(#mask-25);}.cls-121,.cls-42,.cls-44,.cls-46,.cls-48,.cls-50,.cls-52,.cls-55,.cls-57,.cls-59,.cls-61,.cls-63{opacity:0.8;}.cls-42{fill:url(#radial-gradient-23);}.cls-43{mask:url(#mask-27);}.cls-44{fill:url(#radial-gradient-24);}.cls-45{mask:url(#mask-29);}.cls-46{fill:url(#radial-gradient-25);}.cls-47{mask:url(#mask-31);}.cls-48{fill:url(#radial-gradient-26);}.cls-49{mask:url(#mask-33);}.cls-50{fill:url(#radial-gradient-27);}.cls-51{mask:url(#mask-35);}.cls-52{fill:url(#radial-gradient-28);}.cls-53{fill:#f1f2ff;}.cls-54{mask:url(#mask-37);}.cls-55{fill:url(#radial-gradient-29);}.cls-56{mask:url(#mask-39);}.cls-57{fill:url(#radial-gradient-30);}.cls-58{mask:url(#mask-41);}.cls-59{fill:url(#radial-gradient-31);}.cls-60{mask:url(#mask-43);}.cls-61{fill:url(#radial-gradient-32);}.cls-62{mask:url(#mask-45);}.cls-63{fill:url(#radial-gradient-33);}.cls-120,.cls-121,.cls-64{fill:#fff;}.cls-65{opacity:0.05;}.cls-66{fill:#001c23;}.cls-66,.cls-67{fill-rule:evenodd;}.cls-67{fill:#f9f9f9;}.cls-68{fill:#1a1918;}.cls-69{fill:#d33833;}.cls-70{fill:#ef3d3a;}.cls-71{fill:#231f20;}.cls-72{fill:#f0d6b7;}.cls-73{fill:#335061;}.cls-74{fill:#6d6b6d;}.cls-75{fill:#dcd9d8;}.cls-76{fill:#f7e4cd;}.cls-77{fill:#49728b;}.cls-78{stroke:#d33833;stroke-width:2px;}.cls-79{fill:#81b0c4;}.cls-80{fill:#1d1919;}.cls-81{fill:#326de6;}.cls-82{fill:url(#linear-gradient);}.cls-83{fill:#0078d4;}.cls-84{fill:url(#linear-gradient-2);}.cls-85{fill:url(#linear-gradient-3);}.cls-86{fill:#ea4335;}.cls-87{fill:#4285f4;}.cls-88{fill:#34a853;}.cls-89{fill:#fbbc05;}.cls-90{fill:#252f3e;}.cls-91{fill:#f90;}.cls-92{opacity:0.7;}.cls-93{fill:#d8dae6;}.cls-94{fill:#a3abd4;}.cls-95{fill:#e3e5f6;}.cls-96{fill:url(#Áåçûìÿííûé_ãðàäèåíò_37);}.cls-97{fill:url(#Áåçûìÿííûé_ãðàäèåíò_37-2);}.cls-98{fill:#ff5a74;}.cls-99{fill:url(#Áåçûìÿííûé_ãðàäèåíò_42);}.cls-100{fill:url(#Áåçûìÿííûé_ãðàäèåíò_31);}.cls-101{fill:url(#Áåçûìÿííûé_ãðàäèåíò_37-3);}.cls-102{fill:url(#Áåçûìÿííûé_ãðàäèåíò_42-2);}.cls-103{fill:url(#Áåçûìÿííûé_ãðàäèåíò_31-2);}.cls-104{fill:url(#Áåçûìÿííûé_ãðàäèåíò_37-4);}.cls-105{fill:url(#Áåçûìÿííûé_ãðàäèåíò_37-5);}.cls-106{fill:url(#Áåçûìÿííûé_ãðàäèåíò_42-3);}.cls-107{fill:url(#Áåçûìÿííûé_ãðàäèåíò_42-4);}.cls-108{mask:url(#mask-47);}.cls-109,.cls-111{opacity:0.32;}.cls-109{fill:url(#Áåçûìÿííûé_ãðàäèåíò_29);}.cls-110{mask:url(#mask-48);}.cls-111{fill:url(#Áåçûìÿííûé_ãðàäèåíò_29-2);}.cls-112{fill:url(#Áåçûìÿííûé_ãðàäèåíò_37-6);}.cls-113{fill:url(#Áåçûìÿííûé_ãðàäèåíò_15);}.cls-114{fill:#5752d0;}.cls-115{fill:#3fff94;}.cls-116{fill:#01c0ff;}.cls-117{fill:#ff7c0d;}.cls-118{fill:#223361;}.cls-119,.cls-122,.cls-123{opacity:0.13;}.cls-119{fill:url(#Áåçûìÿííûé_ãðàäèåíò_15-2);}.cls-120{opacity:0.4;}.cls-122{fill:url(#Áåçûìÿííûé_ãðàäèåíò_15-3);}.cls-123{fill:url(#Áåçûìÿííûé_ãðàäèåíò_15-4);}.cls-124{filter:url(#luminosity-noclip-37);}.cls-125{filter:url(#luminosity-noclip-36);}.cls-126{filter:url(#luminosity-noclip-22);}.cls-127{filter:url(#luminosity-noclip-21);}.cls-128{filter:url(#luminosity-noclip-19);}.cls-129{filter:url(#luminosity-noclip-18);}.cls-130{filter:url(#luminosity-noclip-16);}.cls-131{filter:url(#luminosity-noclip-14);}.cls-132{filter:url(#luminosity-noclip-12);}.cls-133{filter:url(#luminosity-noclip-10);}.cls-134{filter:url(#luminosity-noclip-8);}.cls-135{filter:url(#luminosity-noclip-5);}.cls-136{filter:url(#luminosity-noclip-3);}.cls-137{filter:url(#luminosity-noclip-2);}.cls-138{filter:url(#luminosity-noclip);}</style><filter id="luminosity-noclip" x="124.9" y="-8467" width="125.58" height="32766" filterUnits="userSpaceOnUse" color-interpolation-filters="sRGB"><feFlood flood-color="#fff" result="bg"/><feBlend in="SourceGraphic" in2="bg"/></filter><mask id="mask" x="124.9" y="-8467" width="125.58" height="32766" maskUnits="userSpaceOnUse"><g class="cls-138"/></mask><radialGradient id="radial-gradient" cx="187.69" cy="407.46" r="62.79" gradientTransform="translate(0 14.75) scale(1 0.95)" gradientUnits="userSpaceOnUse"><stop offset="0" stop-color="#fff"/><stop offset="0.14" stop-color="#d0d0d0"/><stop offset="0.38" stop-color="#878787"/><stop offset="0.59" stop-color="#4d4d4d"/><stop offset="0.77" stop-color="#232323"/><stop offset="0.92" stop-color="#090909"/><stop offset="1"/></radialGradient><filter id="luminosity-noclip-2" x="349.33" y="-8467" width="111.41" height="32766" filterUnits="userSpaceOnUse" color-interpolation-filters="sRGB"><feFlood flood-color="#fff" result="bg"/><feBlend in="SourceGraphic" in2="bg"/></filter><mask id="mask-2" x="349.33" y="-8467" width="111.41" height="32766" maskUnits="userSpaceOnUse"><g class="cls-137"/></mask><radialGradient id="radial-gradient-2" cx="405.03" cy="434.43" r="55.7" gradientTransform="translate(0 14.75) scale(1 0.95)" gradientUnits="userSpaceOnUse"><stop offset="0" stop-color="#fff"/><stop offset="0.37" stop-color="#fdfdfd"/><stop offset="0.51" stop-color="#f6f6f6"/><stop offset="0.6" stop-color="#ebebeb"/><stop offset="0.68" stop-color="#dadada"/><stop offset="0.75" stop-color="#c4c4c4"/><stop offset="0.8" stop-color="#a8a8a8"/><stop offset="0.86" stop-color="#888"/><stop offset="0.91" stop-color="#626262"/><stop offset="0.95" stop-color="#373737"/><stop offset="0.99" stop-color="#090909"/><stop offset="1"/></radialGradient><filter id="luminosity-noclip-3" x="285.03" y="-8467" width="121.93" height="32766" filterUnits="userSpaceOnUse" color-interpolation-filters="sRGB"><feFlood flood-color="#fff" result="bg"/><feBlend in="SourceGraphic" in2="bg"/></filter><mask id="mask-3" x="285.03" y="-8467" width="121.93" height="32766" maskUnits="userSpaceOnUse"><g class="cls-136"/></mask><radialGradient id="radial-gradient-3" cx="346" cy="400.43" r="60.97" xlink:href="#radial-gradient"/><radialGradient id="radial-gradient-4" cx="346" cy="400.43" r="60.97" xlink:href="#radial-gradient-2"/><filter id="luminosity-noclip-5" x="397.78" y="-8467" width="170.15" height="32766" filterUnits="userSpaceOnUse" color-interpolation-filters="sRGB"><feFlood flood-color="#fff" result="bg"/><feBlend in="SourceGraphic" in2="bg"/></filter><mask id="mask-5" x="397.78" y="-8467" width="170.15" height="32766" maskUnits="userSpaceOnUse"><g class="cls-135"/></mask><radialGradient id="radial-gradient-5" cx="482.85" cy="430.54" r="85.08" xlink:href="#radial-gradient"/><radialGradient id="radial-gradient-6" cx="482.85" cy="430.54" r="85.08" xlink:href="#radial-gradient-2"/><radialGradient id="radial-gradient-7" cx="187.69" cy="407.46" r="62.79" xlink:href="#radial-gradient-2"/><filter id="luminosity-noclip-8" x="509.48" y="-8467" width="111.41" height="32766" filterUnits="userSpaceOnUse" color-interpolation-filters="sRGB"><feFlood flood-color="#fff" result="bg"/><feBlend in="SourceGraphic" in2="bg"/></filter><mask id="mask-8" x="509.48" y="-8467" width="111.41" height="32766" maskUnits="userSpaceOnUse"><g class="cls-134"/></mask><radialGradient id="radial-gradient-8" cx="565.19" cy="458.91" r="55.7" xlink:href="#radial-gradient"/><radialGradient id="radial-gradient-9" cx="565.19" cy="458.91" r="55.7" xlink:href="#radial-gradient-2"/><filter id="luminosity-noclip-10" x="159.7" y="-8467" width="112.57" height="32766" filterUnits="userSpaceOnUse" color-interpolation-filters="sRGB"><feFlood flood-color="#fff" result="bg"/><feBlend in="SourceGraphic" in2="bg"/></filter><mask id="mask-10" x="159.7" y="-8467" width="112.57" height="32766" maskUnits="userSpaceOnUse"><g class="cls-133"/></mask><radialGradient id="radial-gradient-10" cx="221.22" cy="490.56" r="55.67" gradientTransform="translate(-7.69) scale(1.01 1)" xlink:href="#radial-gradient"/><radialGradient id="radial-gradient-11" cx="221.22" cy="490.56" r="55.67" gradientTransform="translate(-7.69) scale(1.01 1)" xlink:href="#radial-gradient-2"/><filter id="luminosity-noclip-12" x="88.07" y="-8467" width="132.35" height="32766" filterUnits="userSpaceOnUse" color-interpolation-filters="sRGB"><feFlood flood-color="#fff" result="bg"/><feBlend in="SourceGraphic" in2="bg"/></filter><mask id="mask-12" x="88.07" y="-8467" width="132.35" height="32766" maskUnits="userSpaceOnUse"><g class="cls-132"/></mask><radialGradient id="radial-gradient-12" cx="160.16" cy="423.48" r="65.45" gradientTransform="translate(-7.69) scale(1.01 1)" xlink:href="#radial-gradient"/><radialGradient id="radial-gradient-13" cx="160.16" cy="423.48" r="65.45" gradientTransform="translate(-7.69) scale(1.01 1)" xlink:href="#radial-gradient-2"/><filter id="luminosity-noclip-14" x="436.25" y="-8467" width="144.17" height="32766" filterUnits="userSpaceOnUse" color-interpolation-filters="sRGB"><feFlood flood-color="#fff" result="bg"/><feBlend in="SourceGraphic" in2="bg"/></filter><mask id="mask-14" x="436.25" y="-8467" width="144.17" height="32766" maskUnits="userSpaceOnUse"><g class="cls-131"/></mask><radialGradient id="radial-gradient-14" cx="510.37" cy="459.89" r="71.3" gradientTransform="translate(-7.69) scale(1.01 1)" xlink:href="#radial-gradient"/><radialGradient id="radial-gradient-15" cx="510.37" cy="459.89" r="71.3" gradientTransform="translate(-7.69) scale(1.01 1)" xlink:href="#radial-gradient-2"/><filter id="luminosity-noclip-16" x="544.65" y="-8467" width="112.57" height="32766" filterUnits="userSpaceOnUse" color-interpolation-filters="sRGB"><feFlood flood-color="#fff" result="bg"/><feBlend in="SourceGraphic" in2="bg"/></filter><mask id="mask-16" x="544.65" y="-8467" width="112.57" height="32766" maskUnits="userSpaceOnUse"><g class="cls-130"/></mask><radialGradient id="radial-gradient-16" cx="601.95" cy="455.89" r="55.67" gradientTransform="translate(-7.69) scale(1.01 1)" xlink:href="#radial-gradient"/><radialGradient id="radial-gradient-17" cx="601.95" cy="455.89" r="55.67" gradientTransform="translate(-7.69) scale(1.01 1)" xlink:href="#radial-gradient-2"/><filter id="luminosity-noclip-18" x="193.78" y="-8467" width="145.93" height="32766" filterUnits="userSpaceOnUse" color-interpolation-filters="sRGB"><feFlood flood-color="#fff" result="bg"/><feBlend in="SourceGraphic" in2="bg"/></filter><mask id="mask-18" x="193.78" y="-8467" width="145.93" height="32766" maskUnits="userSpaceOnUse"><g class="cls-129"/></mask><radialGradient id="radial-gradient-18" cx="266.74" cy="380.96" r="72.97" xlink:href="#radial-gradient"/><filter id="luminosity-noclip-19" x="601.75" y="-8467" width="112.57" height="32766" filterUnits="userSpaceOnUse" color-interpolation-filters="sRGB"><feFlood flood-color="#fff" result="bg"/><feBlend in="SourceGraphic" in2="bg"/></filter><mask id="mask-19" x="601.75" y="-8467" width="112.57" height="32766" maskUnits="userSpaceOnUse"><g class="cls-128"/></mask><radialGradient id="radial-gradient-19" cx="658.43" cy="403.69" r="55.67" gradientTransform="translate(-7.69) scale(1.01 1)" xlink:href="#radial-gradient"/><radialGradient id="radial-gradient-20" cx="658.43" cy="403.69" r="55.67" gradientTransform="translate(-7.69) scale(1.01 1)" xlink:href="#radial-gradient-2"/><filter id="luminosity-noclip-21" x="335.97" y="-8467" width="19.94" height="32766" filterUnits="userSpaceOnUse" color-interpolation-filters="sRGB"><feFlood flood-color="#fff" result="bg"/><feBlend in="SourceGraphic" in2="bg"/></filter><mask id="mask-21" x="335.97" y="-8467" width="19.94" height="32766" maskUnits="userSpaceOnUse"><g class="cls-127"/></mask><linearGradient id="Áåçûìÿííûé_ãðàäèåíò_20" x1="342.78" y1="226.29" x2="351.29" y2="233.15" gradientTransform="translate(-1.37 0.69) rotate(-0.81)" gradientUnits="userSpaceOnUse"><stop offset="0" stop-color="#fff"/><stop offset="0.94"/></linearGradient><filter id="luminosity-noclip-22" x="307.86" y="-8467" width="9.19" height="32766" filterUnits="userSpaceOnUse" color-interpolation-filters="sRGB"><feFlood flood-color="#fff" result="bg"/><feBlend in="SourceGraphic" in2="bg"/></filter><mask id="mask-22" x="307.86" y="-8467" width="9.19" height="32766" maskUnits="userSpaceOnUse"><g class="cls-126"/></mask><linearGradient id="Áåçûìÿííûé_ãðàäèåíò_20-2" x1="304.22" y1="210.93" x2="313.57" y2="218.45" xlink:href="#Áåçûìÿííûé_ãðàäèåíò_20"/><radialGradient id="radial-gradient-21" cx="266.74" cy="380.96" r="72.97" xlink:href="#radial-gradient-2"/><radialGradient id="radial-gradient-22" cx="405.03" cy="434.43" r="55.7" xlink:href="#radial-gradient"/><clipPath id="clip-path" transform="translate(72.96 -6.37)"><rect class="cls-38" width="720" height="549.18"/></clipPath><mask id="mask-25" x="197.86" y="336.6" width="125.58" height="119.59" maskUnits="userSpaceOnUse"><g transform="translate(72.96 -6.37)"><g class="cls-1"><path class="cls-2" d="M250.48,402.77c0,33-28.11,59.79-62.79,59.79s-62.79-26.77-62.79-59.79S153,343,187.69,343,250.48,369.74,250.48,402.77Z"/></g></g></mask><filter id="luminosity-noclip-25" x="124.9" y="342.97" width="125.58" height="119.59" filterUnits="userSpaceOnUse" color-interpolation-filters="sRGB"><feFlood flood-color="#fff" result="bg"/><feBlend in="SourceGraphic" in2="bg"/></filter><radialGradient id="radial-gradient-23" cx="187.69" cy="407.46" r="62.79" gradientTransform="translate(0 14.75) scale(1 0.95)" gradientUnits="userSpaceOnUse"><stop offset="0" stop-color="#053e4f"/><stop offset="0.37" stop-color="#073f50"/><stop offset="0.51" stop-color="#0e4555"/><stop offset="0.6" stop-color="#194e5d"/><stop offset="0.68" stop-color="#2a5b69"/><stop offset="0.75" stop-color="#406c79"/><stop offset="0.81" stop-color="#5c818c"/><stop offset="0.86" stop-color="#7c9aa3"/><stop offset="0.91" stop-color="#a2b7bd"/><stop offset="0.96" stop-color="#ccd8db"/><stop offset="1" stop-color="#fafbfb"/><stop offset="1" stop-color="#fff"/></radialGradient><mask id="mask-27" x="266.74" y="301.68" width="145.93" height="138.97" maskUnits="userSpaceOnUse"><g transform="translate(72.96 -6.37)"><g class="cls-27"><path class="cls-28" d="M339.71,377.53c0,38.38-32.67,69.49-73,69.49s-73-31.11-73-69.49,32.67-69.48,73-69.48S339.71,339.16,339.71,377.53Z"/></g></g></mask><filter id="luminosity-noclip-26" x="193.78" y="308.05" width="145.93" height="138.97" filterUnits="userSpaceOnUse" color-interpolation-filters="sRGB"><feFlood flood-color="#fff" result="bg"/><feBlend in="SourceGraphic" in2="bg"/></filter><radialGradient id="radial-gradient-24" cx="266.74" cy="380.96" r="72.97" xlink:href="#radial-gradient-23"/><mask id="mask-29" x="422.29" y="369.03" width="111.41" height="106.09" maskUnits="userSpaceOnUse"><g transform="translate(72.96 -6.37)"><g class="cls-3"><path class="cls-37" d="M460.74,428.45c0,29.29-24.94,53-55.71,53s-55.7-23.75-55.7-53S374.27,375.4,405,375.4,460.74,399.15,460.74,428.45Z"/></g></g></mask><filter id="luminosity-noclip-27" x="349.33" y="375.4" width="111.41" height="106.09" filterUnits="userSpaceOnUse" color-interpolation-filters="sRGB"><feFlood flood-color="#fff" result="bg"/><feBlend in="SourceGraphic" in2="bg"/></filter><radialGradient id="radial-gradient-25" cx="405.03" cy="434.43" r="55.7" xlink:href="#radial-gradient-23"/><mask id="mask-31" x="358" y="331.64" width="121.93" height="116.11" maskUnits="userSpaceOnUse"><g transform="translate(72.96 -6.37)"><g class="cls-5"><path class="cls-6" d="M407,396.07c0,32.06-27.3,58.05-61,58.05s-61-26-61-58.05S312.33,338,346,338,407,364,407,396.07Z"/></g></g></mask><filter id="luminosity-noclip-28" x="285.03" y="338.01" width="121.93" height="116.11" filterUnits="userSpaceOnUse" color-interpolation-filters="sRGB"><feFlood flood-color="#fff" result="bg"/><feBlend in="SourceGraphic" in2="bg"/></filter><radialGradient id="radial-gradient-26" cx="346" cy="400.43" r="60.97" xlink:href="#radial-gradient-23"/><mask id="mask-33" x="470.74" y="337.35" width="170.15" height="162.03" maskUnits="userSpaceOnUse"><g transform="translate(72.96 -6.37)"><g class="cls-8"><path class="cls-9" d="M567.93,424.74c0,44.74-38.09,81-85.08,81s-85.07-36.27-85.07-81,38.09-81,85.07-81S567.93,380,567.93,424.74Z"/></g></g></mask><filter id="luminosity-noclip-29" x="397.78" y="343.72" width="170.15" height="162.03" filterUnits="userSpaceOnUse" color-interpolation-filters="sRGB"><feFlood flood-color="#fff" result="bg"/><feBlend in="SourceGraphic" in2="bg"/></filter><radialGradient id="radial-gradient-27" cx="482.85" cy="430.54" r="85.08" xlink:href="#radial-gradient-23"/><mask id="mask-35" x="582.45" y="392.34" width="111.41" height="106.09" maskUnits="userSpaceOnUse"><g transform="translate(72.96 -6.37)"><g class="cls-12"><path class="cls-13" d="M620.89,451.76c0,29.29-24.94,53-55.7,53s-55.71-23.75-55.71-53,24.94-53.05,55.71-53.05S620.89,422.46,620.89,451.76Z"/></g></g></mask><filter id="luminosity-noclip-30" x="509.48" y="398.71" width="111.41" height="106.09" filterUnits="userSpaceOnUse" color-interpolation-filters="sRGB"><feFlood flood-color="#fff" result="bg"/><feBlend in="SourceGraphic" in2="bg"/></filter><radialGradient id="radial-gradient-28" cx="565.19" cy="458.91" r="55.7" xlink:href="#radial-gradient-23"/><mask id="mask-37" x="232.67" y="428.53" width="112.57" height="111.33" maskUnits="userSpaceOnUse"><g transform="translate(72.96 -6.37)"><g class="cls-15"><path class="cls-16" d="M272.27,490.57c0,30.74-25.2,55.66-56.29,55.66s-56.28-24.92-56.28-55.66S184.9,434.9,216,434.9,272.27,459.82,272.27,490.57Z"/></g></g></mask><filter id="luminosity-noclip-31" x="159.7" y="434.9" width="112.57" height="111.33" filterUnits="userSpaceOnUse" color-interpolation-filters="sRGB"><feFlood flood-color="#fff" result="bg"/><feBlend in="SourceGraphic" in2="bg"/></filter><radialGradient id="radial-gradient-29" cx="221.22" cy="490.56" r="55.67" gradientTransform="translate(-7.69) scale(1.01 1)" xlink:href="#radial-gradient-23"/><mask id="mask-39" x="161.03" y="351.66" width="132.35" height="130.9" maskUnits="userSpaceOnUse"><g transform="translate(72.96 -6.37)"><g class="cls-18"><path class="cls-19" d="M220.42,423.48c0,36.15-29.63,65.45-66.17,65.45s-66.18-29.3-66.18-65.45S117.7,358,154.25,358,220.42,387.34,220.42,423.48Z"/></g></g></mask><filter id="luminosity-noclip-32" x="88.07" y="358.03" width="132.35" height="130.9" filterUnits="userSpaceOnUse" color-interpolation-filters="sRGB"><feFlood flood-color="#fff" result="bg"/><feBlend in="SourceGraphic" in2="bg"/></filter><radialGradient id="radial-gradient-30" cx="160.16" cy="423.48" r="65.45" gradientTransform="translate(-7.69) scale(1.01 1)" xlink:href="#radial-gradient-23"/><mask id="mask-41" x="509.21" y="382.22" width="144.17" height="142.59" maskUnits="userSpaceOnUse"><g transform="translate(72.96 -6.37)"><g class="cls-21"><path class="cls-22" d="M580.42,459.89c0,39.37-32.27,71.29-72.08,71.29s-72.09-31.92-72.09-71.29,32.27-71.3,72.09-71.3S580.42,420.51,580.42,459.89Z"/></g></g></mask><filter id="luminosity-noclip-33" x="436.25" y="388.59" width="144.17" height="142.59" filterUnits="userSpaceOnUse" color-interpolation-filters="sRGB"><feFlood flood-color="#fff" result="bg"/><feBlend in="SourceGraphic" in2="bg"/></filter><radialGradient id="radial-gradient-31" cx="510.37" cy="459.89" r="71.3" gradientTransform="translate(-7.69) scale(1.01 1)" xlink:href="#radial-gradient-23"/><mask id="mask-43" x="617.61" y="393.85" width="112.57" height="111.33" maskUnits="userSpaceOnUse"><g transform="translate(72.96 -6.37)"><g class="cls-24"><path class="cls-25" d="M657.21,455.89c0,30.74-25.2,55.67-56.28,55.67s-56.28-24.93-56.28-55.67,25.2-55.66,56.28-55.66S657.21,425.15,657.21,455.89Z"/></g></g></mask><filter id="luminosity-noclip-34" x="544.65" y="400.23" width="112.57" height="111.33" filterUnits="userSpaceOnUse" color-interpolation-filters="sRGB"><feFlood flood-color="#fff" result="bg"/><feBlend in="SourceGraphic" in2="bg"/></filter><radialGradient id="radial-gradient-32" cx="601.95" cy="455.89" r="55.67" gradientTransform="translate(-7.69) scale(1.01 1)" xlink:href="#radial-gradient-23"/><mask id="mask-45" x="674.72" y="341.66" width="112.57" height="111.33" maskUnits="userSpaceOnUse"><g transform="translate(72.96 -6.37)"><g class="cls-29"><path class="cls-30" d="M714.32,403.69c0,30.75-25.2,55.67-56.29,55.67s-56.28-24.92-56.28-55.67S627,348,658,348,714.32,373,714.32,403.69Z"/></g></g></mask><filter id="luminosity-noclip-35" x="601.75" y="348.03" width="112.57" height="111.33" filterUnits="userSpaceOnUse" color-interpolation-filters="sRGB"><feFlood flood-color="#fff" result="bg"/><feBlend in="SourceGraphic" in2="bg"/></filter><radialGradient id="radial-gradient-33" cx="658.43" cy="403.69" r="55.67" gradientTransform="translate(-7.69) scale(1.01 1)" xlink:href="#radial-gradient-23"/><linearGradient id="linear-gradient" x1="-886.35" y1="-96.53" x2="-886.39" y2="-96.36" gradientTransform="translate(142913.51 23450.2) scale(161.1 241.22)" gradientUnits="userSpaceOnUse"><stop offset="0" stop-color="#114a8b"/><stop offset="1" stop-color="#0669bc"/></linearGradient><linearGradient id="linear-gradient-2" x1="-888.11" y1="-96.45" x2="-888.12" y2="-96.45" gradientTransform="translate(199682.05 23449.95) scale(224.69 241.21)" gradientUnits="userSpaceOnUse"><stop offset="0" stop-opacity="0.3"/><stop offset="0.07" stop-opacity="0.2"/><stop offset="0.32" stop-opacity="0.1"/><stop offset="0.62" stop-opacity="0.05"/><stop offset="1" stop-opacity="0"/></linearGradient><linearGradient id="linear-gradient-3" x1="-887.12" y1="-96.54" x2="-887.08" y2="-96.37" gradientTransform="translate(150729.36 23450.19) scale(169.75 241.22)" gradientUnits="userSpaceOnUse"><stop offset="0" stop-color="#3ccbf4"/><stop offset="1" stop-color="#2892df"/></linearGradient><linearGradient id="Áåçûìÿííûé_ãðàäèåíò_37" x1="367.49" y1="209.92" x2="381.49" y2="209.92" gradientTransform="translate(-1.37 0.69) rotate(-0.81)" gradientUnits="userSpaceOnUse"><stop offset="0" stop-color="#ff6279"/><stop offset="1" stop-color="#ffad60"/></linearGradient><linearGradient id="Áåçûìÿííûé_ãðàäèåíò_37-2" x1="299.47" y1="209.92" x2="313.48" y2="209.92" xlink:href="#Áåçûìÿííûé_ãðàäèåíò_37"/><linearGradient id="Áåçûìÿííûé_ãðàäèåíò_42" x1="366.49" y1="244.22" x2="390.89" y2="244.22" gradientTransform="translate(-1.37 0.69) rotate(-0.81)" gradientUnits="userSpaceOnUse"><stop offset="0" stop-color="#f0f0fb"/><stop offset="1" stop-color="#d2d7f6"/></linearGradient><linearGradient id="Áåçûìÿííûé_ãðàäèåíò_31" x1="362.02" y1="249.49" x2="388.27" y2="249.49" gradientTransform="translate(71.6 -5.68) rotate(-0.81)" gradientUnits="userSpaceOnUse"><stop offset="0" stop-color="#c8d6f9"/><stop offset="1" stop-color="#bac1e8"/></linearGradient><linearGradient id="Áåçûìÿííûé_ãðàäèåíò_37-3" x1="387.63" y1="261.99" x2="392.23" y2="265.47" xlink:href="#Áåçûìÿííûé_ãðàäèåíò_37"/><linearGradient id="Áåçûìÿííûé_ãðàäèåíò_42-2" x1="290.08" y1="244.22" x2="314.48" y2="244.22" xlink:href="#Áåçûìÿííûé_ãðàäèåíò_42"/><linearGradient id="Áåçûìÿííûé_ãðàäèåíò_31-2" x1="292.7" y1="249.49" x2="318.95" y2="249.49" xlink:href="#Áåçûìÿííûé_ãðàäèåíò_31"/><linearGradient id="Áåçûìÿííûé_ãðàäèåíò_37-4" x1="287.25" y1="257.47" x2="287.25" y2="281.11" xlink:href="#Áåçûìÿííûé_ãðàäèåíò_37"/><linearGradient id="Áåçûìÿííûé_ãðàäèåíò_37-5" x1="317.83" y1="263.96" x2="363.39" y2="263.96" xlink:href="#Áåçûìÿííûé_ãðàäèåíò_37"/><linearGradient id="Áåçûìÿííûé_ãðàäèåíò_42-3" x1="306.48" y1="242.02" x2="374.49" y2="242.02" xlink:href="#Áåçûìÿííûé_ãðàäèåíò_42"/><linearGradient id="Áåçûìÿííûé_ãðàäèåíò_42-4" x1="306.48" y1="181.99" x2="374.49" y2="181.99" xlink:href="#Áåçûìÿííûé_ãðàäèåíò_42"/><filter id="luminosity-noclip-36" x="335.97" y="204.54" width="19.94" height="35.54" filterUnits="userSpaceOnUse" color-interpolation-filters="sRGB"><feFlood flood-color="#fff" result="bg"/><feBlend in="SourceGraphic" in2="bg"/></filter><mask id="mask-47" x="408.93" y="198.17" width="19.94" height="35.54" maskUnits="userSpaceOnUse"><g class="cls-125"><g transform="translate(72.96 -6.37)"><g class="cls-32"><path class="cls-33" d="M346.11,204.54S335.9,211.23,336,215.87l.17,12.17c.1,7,4.65,12.13,11.06,12,3.81-.05,8.76-5.94,8.7-9.75l-.16-11.83C355.62,210,346.12,204.56,346.11,204.54Z"/></g></g></g></mask><linearGradient id="Áåçûìÿííûé_ãðàäèåíò_29" x1="342.78" y1="226.29" x2="351.29" y2="233.15" gradientTransform="translate(-1.37 0.69) rotate(-0.81)" gradientUnits="userSpaceOnUse"><stop offset="0" stop-color="#8390ac"/><stop offset="0.94" stop-color="#8390ac"/></linearGradient><filter id="luminosity-noclip-37" x="307.86" y="191.85" width="9.19" height="34.49" filterUnits="userSpaceOnUse" color-interpolation-filters="sRGB"><feFlood flood-color="#fff" result="bg"/><feBlend in="SourceGraphic" in2="bg"/></filter><mask id="mask-48" x="380.82" y="185.48" width="9.19" height="34.49" maskUnits="userSpaceOnUse"><g class="cls-124"><g transform="translate(72.96 -6.37)"><g class="cls-34"><path class="cls-35" d="M307.86,191.85l.49,34.47s8.86.81,8.7-10.78L317,209C316.88,203.56,311.63,194.16,307.86,191.85Z"/></g></g></g></mask><linearGradient id="Áåçûìÿííûé_ãðàäèåíò_29-2" x1="304.22" y1="210.93" x2="313.57" y2="218.45" xlink:href="#Áåçûìÿííûé_ãðàäèåíò_29"/><linearGradient id="Áåçûìÿííûé_ãðàäèåíò_37-6" x1="333.48" y1="219.49" x2="347.49" y2="219.49" xlink:href="#Áåçûìÿííûé_ãðàäèåíò_37"/><linearGradient id="Áåçûìÿííûé_ãðàäèåíò_15" x1="306.48" y1="169.12" x2="374.49" y2="169.12" gradientTransform="translate(-1.37 0.69) rotate(-0.81)" gradientUnits="userSpaceOnUse"><stop offset="0" stop-color="#5752d0"/><stop offset="1" stop-color="#7f7cf9"/></linearGradient><linearGradient id="Áåçûìÿííûé_ãðàäèåíò_15-2" x1="309.99" y1="118.29" x2="377.82" y2="118.29" xlink:href="#Áåçûìÿííûé_ãðàäèåíò_15"/><linearGradient id="Áåçûìÿííûé_ãðàäèåíò_15-3" x1="309.99" y1="109.66" x2="377.82" y2="109.66" xlink:href="#Áåçûìÿííûé_ãðàäèåíò_15"/><linearGradient id="Áåçûìÿííûé_ãðàäèåíò_15-4" x1="335.81" y1="118.29" x2="376.62" y2="118.29" xlink:href="#Áåçûìÿííûé_ãðàäèåíò_15"/></defs><g class="cls-39"><g id="Layer_1" data-name="Layer 1"><g class="cls-40"><g class="cls-41"><g class="cls-41"><path class="cls-42" d="M250.48,402.77c0,33-28.11,59.79-62.79,59.79s-62.79-26.77-62.79-59.79S153,343,187.69,343,250.48,369.74,250.48,402.77Z" transform="translate(72.96 -6.37)"/></g></g><g class="cls-43"><g class="cls-43"><path class="cls-44" d="M339.71,377.53c0,38.38-32.67,69.49-73,69.49s-73-31.11-73-69.49,32.67-69.48,73-69.48S339.71,339.16,339.71,377.53Z" transform="translate(72.96 -6.37)"/></g></g><g class="cls-45"><g class="cls-45"><path class="cls-46" d="M460.74,428.45c0,29.29-24.94,53-55.71,53s-55.7-23.75-55.7-53S374.27,375.4,405,375.4,460.74,399.15,460.74,428.45Z" transform="translate(72.96 -6.37)"/></g></g><g class="cls-47"><g class="cls-47"><path class="cls-48" d="M407,396.07c0,32.06-27.3,58.05-61,58.05s-61-26-61-58.05S312.33,338,346,338,407,364,407,396.07Z" transform="translate(72.96 -6.37)"/></g></g><g class="cls-49"><g class="cls-49"><path class="cls-50" d="M567.93,424.74c0,44.74-38.09,81-85.08,81s-85.07-36.27-85.07-81,38.09-81,85.07-81S567.93,380,567.93,424.74Z" transform="translate(72.96 -6.37)"/></g></g><g class="cls-51"><g class="cls-51"><path class="cls-52" d="M620.89,451.76c0,29.29-24.94,53-55.7,53s-55.71-23.75-55.71-53,24.94-53.05,55.71-53.05S620.89,422.46,620.89,451.76Z" transform="translate(72.96 -6.37)"/></g></g><path class="cls-53" d="M746.39,509.2a37.15,37.15,0,0,0,.2-3.82c0-22.6-19.24-40.92-43-40.92a45.12,45.12,0,0,0-11.18,1.41c0-.36,0-.72,0-1.08,0-28.2-24-51.05-53.6-51.05a54.4,54.4,0,0,0-43.28,20.93,44,44,0,0,0-29.47-11.15,44.74,44.74,0,0,0-15,2.55c-1.23-31.67-28.56-57-62.12-57-26.89,0-49.79,16.25-58.46,39a39.09,39.09,0,0,0-27.94-11.53,39.93,39.93,0,0,0-11.5,1.68c.08-.95.13-1.91.13-2.88,0-18.72-15.93-33.89-35.58-33.89a36.49,36.49,0,0,0-23.83,8.73c-6.16-21.72-27-37.71-51.74-37.71A55.38,55.38,0,0,0,256,338l-.45.21c-16,7.89-27.35,23.29-28.83,41.31a63.51,63.51,0,0,0-33.05-9.18c-1.62,0-3.22.08-4.81.2l.11.07c-31.45,2.24-56.23,27.22-56.23,57.74A55.21,55.21,0,0,0,135,444l-.88-.1a46.77,46.77,0,0,0-5.45-.33c-18.05,0-33.62,10.11-40.81,24.7A43.33,43.33,0,0,0,53.69,452c-18.53,0-34.3,11.26-40.18,27a36.49,36.49,0,0,0-25.25-10c-19.71,0-35.68,15.21-35.68,34,0,12.66,7.28,23.69,18.06,29.54l-10.06,4.72L-42.13,543l733.06,1.51a45.09,45.09,0,0,0,25.19,0l29.47.06,6.24-17.34V510.62Z" transform="translate(72.96 -6.37)"/><g class="cls-54"><g class="cls-54"><path class="cls-55" d="M272.27,490.57c0,30.74-25.2,55.66-56.29,55.66s-56.28-24.92-56.28-55.66S184.9,434.9,216,434.9,272.27,459.82,272.27,490.57Z" transform="translate(72.96 -6.37)"/></g></g><g class="cls-56"><g class="cls-56"><path class="cls-57" d="M220.42,423.48c0,36.15-29.63,65.45-66.17,65.45s-66.18-29.3-66.18-65.45S117.7,358,154.25,358,220.42,387.34,220.42,423.48Z" transform="translate(72.96 -6.37)"/></g></g><g class="cls-58"><g class="cls-58"><path class="cls-59" d="M580.42,459.89c0,39.37-32.27,71.29-72.08,71.29s-72.09-31.92-72.09-71.29,32.27-71.3,72.09-71.3S580.42,420.51,580.42,459.89Z" transform="translate(72.96 -6.37)"/></g></g><g class="cls-60"><g class="cls-60"><path class="cls-61" d="M657.21,455.89c0,30.74-25.2,55.67-56.28,55.67s-56.28-24.93-56.28-55.67,25.2-55.66,56.28-55.66S657.21,425.15,657.21,455.89Z" transform="translate(72.96 -6.37)"/></g></g><g class="cls-62"><g class="cls-62"><path class="cls-63" d="M714.32,403.69c0,30.75-25.2,55.67-56.29,55.67s-56.28-24.92-56.28-55.67S627,348,658,348,714.32,373,714.32,403.69Z" transform="translate(72.96 -6.37)"/></g></g><path class="cls-64" d="M767.15,405.42c-10.35-27.31-37.68-46.81-69.77-46.81-40,0-72.66,30.37-74.13,68.37a53.35,53.35,0,0,0-17.84-3.06,52.33,52.33,0,0,0-35.17,13.39,64.82,64.82,0,0,0-51.64-25.12c-35.33,0-64,27.43-64,61.26,0,.43,0,.86,0,1.3a53.3,53.3,0,0,0-13.34-1.69,51.85,51.85,0,0,0-42.58,21.74,44,44,0,0,0-56,3.6c-7-18.87-25.84-32.38-48-32.38a51.58,51.58,0,0,0-40.75,19.53c-8.59-17.51-27.16-29.64-48.7-29.64a57,57,0,0,0-7.56.52,66.81,66.81,0,0,0,2.71-18.8c0-38.38-32.49-69.5-72.58-69.5A74.46,74.46,0,0,0,88.4,379.38c-2.4-31.74-30-56.78-63.79-56.78-29.54,0-54.4,19.19-61.75,45.25a43.41,43.41,0,0,0-28.44-10.47A44.81,44.81,0,0,0-73,358V547.17H768.58V404C768.09,404.49,767.61,405,767.15,405.42Z" transform="translate(72.96 -6.37)"/><g class="cls-65"><path class="cls-66" d="M569.51,189.54a23.19,23.19,0,0,0-27-25.32,214.59,214.59,0,0,0-69.32-99A28.65,28.65,0,0,0,424.29,36a214.13,214.13,0,0,0-145.75-7.62,34.49,34.49,0,1,0-61.72,30.8q-4.74,3.42-9.35,7.13a211,211,0,0,0-66.73,94.21c-.86-.17-1.74-.31-2.63-.41a28.34,28.34,0,0,0-8.93,55.9,212.39,212.39,0,0,0,423,37.86,214.78,214.78,0,0,0,.1-44.34A23.2,23.2,0,0,0,569.51,189.54ZM546,253.23c-12,113-113.7,195.27-226.74,183.28-110.75-11.73-191.91-109.6-183.89-219.87a28.34,28.34,0,0,0,11.35-54.19,206.31,206.31,0,0,1,73.51-97.93,34.49,34.49,0,0,0,60.52-30.19,206.22,206.22,0,0,1,140.31,7.18,29.07,29.07,0,0,0-2.29,8.58,28.65,28.65,0,0,0,51.13,20.59,207.55,207.55,0,0,1,66.59,95.45,23.2,23.2,0,0,0,7.49,44c.71.07,1.4.11,2.09.12A206.16,206.16,0,0,1,546,253.23Z" transform="translate(72.96 -6.37)"/><path class="cls-66" d="M489.63,213.25a149.47,149.47,0,1,0-275.24,95.33,21,21,0,0,0,27.1,32q2.7,2.41,5.54,4.71a149.52,149.52,0,0,0,193.78-4.95,23.15,23.15,0,1,0,29.26-35.86A148.36,148.36,0,0,0,489.63,213.25Zm-6.19.66a142.46,142.46,0,0,1-18.84,87.37,23.15,23.15,0,0,0-28,34.3,143,143,0,0,1-190.83.37,21,21,0,0,0-26.15-30.88,142.43,142.43,0,0,1-21.09-61c-8.32-78.54,48.8-149.21,127.35-157.54S475.11,135.37,483.44,213.91Z" transform="translate(72.96 -6.37)"/></g><path class="cls-67" d="M564.8,187.05a23.2,23.2,0,0,0-27-25.32,212.1,212.1,0,0,0-36.38-66.24,214.31,214.31,0,0,0-32.93-32.77,28.25,28.25,0,0,0,2.52-9.08,28.65,28.65,0,0,0-51.47-20.12A214.13,214.13,0,0,0,273.83,25.9a34.49,34.49,0,1,0-61.72,30.8q-4.76,3.42-9.35,7.13A211,211,0,0,0,136,158c-.87-.17-1.74-.31-2.63-.41a28.35,28.35,0,0,0-8.94,55.9,212.39,212.39,0,0,0,423,37.86,214.09,214.09,0,0,0,.1-44.34A23.21,23.21,0,0,0,564.8,187.05Zm-23.5,63.69C529.32,363.78,427.6,446,314.55,434c-110.75-11.73-191.9-109.6-183.88-219.87A28.34,28.34,0,0,0,142,160,206.39,206.39,0,0,1,215.53,62a34.5,34.5,0,0,0,60.52-30.19A206.22,206.22,0,0,1,416.36,39,28.66,28.66,0,0,0,465.2,68.19a207.62,207.62,0,0,1,66.59,95.45,23.2,23.2,0,0,0,7.49,44c.7.07,1.4.11,2.09.12A206.85,206.85,0,0,1,541.3,250.74Z" transform="translate(72.96 -6.37)"/><path class="cls-67" d="M484.92,215.74a149.47,149.47,0,1,0-275.25,95.33,21,21,0,0,0,27.1,32q2.72,2.42,5.55,4.71a149.52,149.52,0,0,0,193.78-4.95,23.15,23.15,0,1,0,29.25-35.86A148.29,148.29,0,0,0,484.92,215.74Zm-6.19.66a142.53,142.53,0,0,1-18.84,87.37,23.15,23.15,0,0,0-28,34.3,143,143,0,0,1-190.83.37,21,21,0,0,0-26.15-30.88,142.3,142.3,0,0,1-21.09-61c-8.33-78.54,48.8-149.21,127.35-157.54S470.4,137.86,478.73,216.4Z" transform="translate(72.96 -6.37)"/><path class="cls-68" d="M473.13,324.62a20.79,20.79,0,1,1-20.79-20.78,20.78,20.78,0,0,1,20.79,20.78" transform="translate(72.96 -6.37)"/><path class="cls-64" d="M452.7,316.52l5.37,13.28L450,323.4Zm9.55,16.34L454,313a1.33,1.33,0,0,0-1.29-.88,1.4,1.4,0,0,0-1.32.88l-9.07,21.83h3.11l3.6-9,10.72,8.66a1.73,1.73,0,0,0,1.14.51,1.47,1.47,0,0,0,1.51-1.48,2.1,2.1,0,0,0-.14-.61Z" transform="translate(72.96 -6.37)"/><path class="cls-69" d="M266.16,41.49a22.81,22.81,0,0,1-23.29,22.32c-12.44-.41-22.2-11.07-21.79-23.79s10.83-22.74,23.29-22.33,22.21,11.06,21.79,23.8" transform="translate(72.96 -6.37)"/><path class="cls-70" d="M221.82,45.75s-.85-24.09,21.32-24l-1.45-2.63-12.16,3.64L226,26.53l-3.19,5.66-1.92,6.63.36,4.49" transform="translate(72.96 -6.37)"/><path class="cls-71" d="M228.71,24.51a22.61,22.61,0,0,0-6.91,15.61h0a22.64,22.64,0,0,0,5.88,16h0a21.47,21.47,0,0,0,15.22,7h0a21.49,21.49,0,0,0,15.64-6h0a22.62,22.62,0,0,0,6.9-15.6h0a22.56,22.56,0,0,0-5.88-16h0a21.56,21.56,0,0,0-15.21-7h0a21.55,21.55,0,0,0-15.64,6Zm-2.07,32.57a23.92,23.92,0,0,1-6.25-17h0a24,24,0,0,1,7.34-16.58h0a23,23,0,0,1,16.66-6.43h0a22.94,22.94,0,0,1,16.21,7.5h0a24,24,0,0,1,6.26,17h0a24,24,0,0,1-7.35,16.57h0a22.93,22.93,0,0,1-16.66,6.43h0a22.86,22.86,0,0,1-16.21-7.5Z" transform="translate(72.96 -6.37)"/><path class="cls-72" d="M253.11,41.19l-3.46.4L245,42l-3,0-2.93-.19L236.85,41l-1.91-2.2-1.4-4.43-.32-1-2-.76-1.12-2-.77-2.87,1-2.46,2.26-.71,1.77.92.8,1.91,1.05-.13.36-.43-.28-2V22.36l.62-3.43,0-1.95,1.64-2.45,2.81-1.89,4.87-1.9,5.31,1,4.52,3.5,2,3.48,1.29,2.54.15,6.18-1.22,5.3-2,4.67-1.86,2.47" transform="translate(72.96 -6.37)"/><path class="cls-73" d="M249.72,55.94l-12.3.11-.06,2.06.81,7.25-.54.59-8.48-3.21-.57-1.07L228,51.93,226.21,46l-.4-1.39,7-4.5,2.17-.79,1.81,2.38,1.59,1.51,1.86.66.86.29.9,4.5.75,1,2-.63-1.46,2.63,7.35,3.76-.95.5" transform="translate(72.96 -6.37)"/><path class="cls-74" d="M230.33,25.32l2.26-.72,1.77.92.8,1.92,1.05-.13.29-1-.45-2,.67-4.72L236.36,17l1.6-1.75,3.44-2.55-.91-1.31-4.81,2.17-2,1.48-1.2,2.36-1.78,2.27-.6,2.74.25,2.94" transform="translate(72.96 -6.37)"/><path class="cls-75" d="M234.11,17.35s1.39-3.14,6.59-4.52.29-1.11.29-1.11l-5.64,2-2.22,2.07-1,1.67,2-.1" transform="translate(72.96 -6.37)"/><path class="cls-75" d="M231.28,24.74s-1.6-6.06,5.3-6.7L236.36,17l-4.76,1-1.52,4.43.25,2.94.95-.58" transform="translate(72.96 -6.37)"/><path class="cls-76" d="M233.77,32.82,235,31.76a.72.72,0,0,1,.58.68c.07.61.15,6,3.74,9.05.34.29-2.73-.52-2.73-.52l-2.61-4.38" transform="translate(72.96 -6.37)"/><path class="cls-76" d="M249.64,31.71s.29-2.6,1-2.38a1,1,0,0,1,.69.94s-1.76,1-1.68,1.44" transform="translate(72.96 -6.37)"/><path class="cls-76" d="M257.08,22.41s-1.42.25-1.59,1.49,1.53.3,1.79.22" transform="translate(72.96 -6.37)"/><path class="cls-76" d="M246.69,22.16s-1.9.2-1.94,1.39,2.11,1.19,2.73.69" transform="translate(72.96 -6.37)"/><path class="cls-76" d="M234.83,27.35s-3.2-2.08-3.59-.2-1.22,3.22.35,5.25L230.48,32l-1-2.69-.26-2.6,2-2,2.23.24,1.25,1.09.05,1.28" transform="translate(72.96 -6.37)"/><path class="cls-76" d="M236.55,22s1.69-7.52,9.12-8.73c6.11-1,9.27.56,10.43,2,0,0-5.22-6.61-10.41-4.81s-9.12,5.28-9.11,7.59c0,4,0,4,0,4" transform="translate(72.96 -6.37)"/><path class="cls-76" d="M256.68,16.1s-2.49-.17-2.66,2.06a1.82,1.82,0,0,0,.15.71s2.05-2.18,3.22-.95" transform="translate(72.96 -6.37)"/><path class="cls-76" d="M245.67,18.83s-.32-3.44-3.3-1.54c-1.93,1.22-1.81,3-1.49,3.4s.22,1,.5.58.24-2,1.21-2.41,2.52-.86,3.08,0" transform="translate(72.96 -6.37)"/><path class="cls-77" d="M236.86,41.76l-8.2,3.33s2.92,13.42,1.07,17.5l-1.18-.48.07-5.08-1.92-9.65-.87-2.69,8.6-5.41,2.43,2.48" transform="translate(72.96 -6.37)"/><path class="cls-77" d="M237.44,49.16l1.11,1.43-.16,5.15L237,55.69s-.05-3.59,0-4,.23-2,.23-2" transform="translate(72.96 -6.37)"/><path class="cls-77" d="M237.24,56.49l-3.87,0,1.09.82,2.74.53" transform="translate(72.96 -6.37)"/><path class="cls-73" d="M250.48,56.06h3.19l.54,7.92-3.28.33-.45-8.26" transform="translate(72.96 -6.37)"/><path class="cls-73" d="M251.34,56.08l4.81-.1s2.14-4.92,2.15-5.17,1.94-7.17,1.94-7.17l-3.74-4.15-.76-.73-2.12,2-.26,8-2,7.34" transform="translate(72.96 -6.37)"/><path class="cls-77" d="M253.51,55.55l-3,.51.36,2.41c1.11.55,3-.76,3-.76" transform="translate(72.96 -6.37)"/><path class="cls-77" d="M254.09,40.53,260,45.19l.23-2-4.4-4.35-1.69,1.73" transform="translate(72.96 -6.37)"/><path class="cls-64" d="M239.69,72.64l-1.54-7.28L237.42,60l0-4,8.08-.17,5,.16-.75,9,.56,7-.13,1.28-6.54.3-3.93-1" transform="translate(72.96 -6.37)"/><path class="cls-75" d="M249.37,55.93s-.73,8.91.36,15.31a16.21,16.21,0,0,1-6.4,1.84l7.22,0,.88-.48-.59-14.11-.17-3" transform="translate(72.96 -6.37)"/><path class="cls-64" d="M254.34,63.32l3.38-.85,6.35-.12,1.05-2.9-1.54-5.13-2-.32-2.78.77L256.17,56l-1.38-.31-1.12.41" transform="translate(72.96 -6.37)"/><path class="cls-75" d="M254.34,61.59a12.43,12.43,0,0,1,2.61-.87l-.8-4.76,1.14-.4s.64,4.5.62,5c0,0,4.79.41,5.23.43a7.77,7.77,0,0,0,.92-4l.87,2.78,0,1.54-1.44,2-1.55.3-2.58-.18-.83-1.14-3,.34-1,.32" transform="translate(72.96 -6.37)"/><path class="cls-64" d="M251.16,55.38l-1.75-4.84-1.88-2.91s.48-1.17,1.08-1.15l2,.06,1.86.76-.26,3.18-1,4.9" transform="translate(72.96 -6.37)"/><path class="cls-75" d="M251.58,53.76s-2.25-4.71-2.22-5.41c0,0,.47-1,1.07-.75s1.85,1,1.85,1l.06-1.63-2.92-.7-2,.19,3.09,8.05.7.11" transform="translate(72.96 -6.37)"/><path class="cls-64" d="M241.45,42.1l-2.37-.34L236.87,41l0,.79L237.9,43l3.4,1.65" transform="translate(72.96 -6.37)"/><path class="cls-75" d="M237.61,42.23s2.62,1.2,3.49,1l.06,1-2.38-.59-1.42-1.09.25-.34" transform="translate(72.96 -6.37)"/><path class="cls-69" d="M254.87,47a15.92,15.92,0,0,1-3.91-.67c.09-.48,0-.94.1-1.27a3.13,3.13,0,0,1,1.35-.25,2.37,2.37,0,0,0-1.48-.21,2.68,2.68,0,0,0-.23-.8c.83-.26,2.82-2.11,3.88-1.45.52.33.68,2,.69,2.91a2.88,2.88,0,0,1-.4,1.74" transform="translate(72.96 -6.37)"/><path class="cls-78" d="M254.87,47a15.92,15.92,0,0,1-3.91-.67c.09-.48,0-.94.1-1.27a3.13,3.13,0,0,1,1.35-.25,2.37,2.37,0,0,0-1.48-.21,2.68,2.68,0,0,0-.23-.8c.83-.26,2.82-2.11,3.88-1.45.52.33.68,2,.69,2.91a2.88,2.88,0,0,1-.4,1.74Z" transform="translate(72.96 -6.37)"/><path class="cls-69" d="M248,44.35a1.12,1.12,0,0,1,0,.32c-.46.28-1.18.26-1.7.5a4.65,4.65,0,0,1,1.8.52c0,.27,0,.56-.06.84-.87.54-1.64,1.36-2.65,1.87a6.55,6.55,0,0,1-2.61.71c-.27-.08-.3-.43-.4-.77a10.9,10.9,0,0,1-.75-2.9c0-1.32-.08-3.56,1.34-3.26a13.25,13.25,0,0,1,3.37,1.34,3.59,3.59,0,0,0,1.69.83" transform="translate(72.96 -6.37)"/><path class="cls-78" d="M248,44.35a1.12,1.12,0,0,1,0,.32c-.46.28-1.18.26-1.7.5a4.65,4.65,0,0,1,1.8.52c0,.27,0,.56-.06.84-.87.54-1.64,1.36-2.65,1.87a6.55,6.55,0,0,1-2.61.71c-.27-.08-.3-.43-.4-.77a10.9,10.9,0,0,1-.75-2.9c0-1.32-.08-3.56,1.34-3.26a13.25,13.25,0,0,1,3.37,1.34,3.59,3.59,0,0,0,1.69.83Z" transform="translate(72.96 -6.37)"/><path class="cls-69" d="M248.76,46a4.74,4.74,0,0,1-.17-1.57c2-1.22,2.22,2.29.17,1.57" transform="translate(72.96 -6.37)"/><path class="cls-78" d="M248.76,46a4.74,4.74,0,0,1-.17-1.57c2-1.22,2.22,2.29.17,1.57Z" transform="translate(72.96 -6.37)"/><path class="cls-70" d="M251.54,46.63s-.58-.89-.13-1.13.86,0,1.13-.4,0-.7.13-1.19.54-.59,1-.66,1.64-.21,1.79.22L255,41.91l-1-.38-3.32,1.78-.19.95-.07,1.89" transform="translate(72.96 -6.37)"/><path class="cls-70" d="M242.41,49.17l-.19-4c-.12-2,.53-1.64,2.27-1.58a4.49,4.49,0,0,1,1.7.57c.45,1-.81.73.5,1.48,1.1.64,3.11-.26,2.7-1.63-.25-.32-1.3-.14-1.68-.35l-2-1.11c-.85-.47-2.79-1.19-3.7-.6-2.36,1.48,0,5.5.74,7.16" transform="translate(72.96 -6.37)"/><path class="cls-71" d="M245.67,18.83c-2.32-.63-3.55.87-4.29,2.43-.64-.17-.35-1-.18-1.46.46-1.14,2.2-2.62,3.58-2.36.59.09,1.36.65.89,1.39" transform="translate(72.96 -6.37)"/><path class="cls-71" d="M257,21.86h.11a27,27,0,0,0,1.55,3.3c-.49,1-3.46,1.85-3.36,0,.65-.26,1.73,0,2.31-.35a6.34,6.34,0,0,1-.61-2.95" transform="translate(72.96 -6.37)"/><path class="cls-71" d="M246.78,21.56a10.23,10.23,0,0,0,1.29,2.63c.32.32.93.73.59,1.58a2,2,0,0,1-.94.72c-1.13.29-3.71,0-2.8-1.41.93.06,2.14.67,2.86,0-.48-.86-1.38-2.58-1-3.54" transform="translate(72.96 -6.37)"/><path class="cls-71" d="M256.28,31.22c-1.7,1-3.61,2.14-6.37,1.78a1.85,1.85,0,0,1-.16-2.41c.28.52.06,1.45.9,1.63,1.55.32,3.42-.87,4.55-1.23.74-1.15,0-1.6-.62-2.39-1.23-1.58-2.89-3.58-2.76-5.89.55-.36.55.61.62.78a22.73,22.73,0,0,0,3.41,5c.3.34.79.69.83.91.15.61-.46,1.36-.4,1.78" transform="translate(72.96 -6.37)"/><path class="cls-71" d="M234.16,29.37c-.52-.33-.61-1.64-1.21-1.69-.9-.09-.79,1.68-.82,2.72a3.29,3.29,0,0,1-.18-3.14c-.5-.27-.74.25-1,.43.47-2.63,3.93-1.09,3.25,1.68" transform="translate(72.96 -6.37)"/><path class="cls-71" d="M257.29,32.36c-.84,1.46-2,3.07-4.28,3a5.16,5.16,0,0,1,0-1.5c1.77-.13,2.9-1,4.24-1.55" transform="translate(72.96 -6.37)"/><path class="cls-71" d="M246.28,33c1.42.82,4.11,1,6.11,1a6.14,6.14,0,0,1,.06,1.5c-2.57,0-5.55-.71-6.17-2.51" transform="translate(72.96 -6.37)"/><path class="cls-71" d="M246,34.37c.94,2.58,4.41,2.4,7.35,2.43a1.48,1.48,0,0,1-.8.83,7.37,7.37,0,0,1-4.84-.17,6.6,6.6,0,0,1-1.74-2.08c-.2-.28-1.25-1,0-1" transform="translate(72.96 -6.37)"/><path class="cls-79" d="M255.58,48.72a50,50,0,0,1-3.91,5.78,29.11,29.11,0,0,0,1.16-6.82,2.18,2.18,0,0,1,2.75,1" transform="translate(72.96 -6.37)"/><path class="cls-71" d="M261.72,56.24c-1.33.23-2.3,1.48-3.6,1.35a4.24,4.24,0,0,1,3.6-1.35" transform="translate(72.96 -6.37)"/><path class="cls-71" d="M262.24,58.33a21.18,21.18,0,0,1-3.47.09c.56-.77,2.54-.42,3.47-.09" transform="translate(72.96 -6.37)"/><path class="cls-71" d="M262.57,60.15c-1.21,0-2.73-.08-3.89-.21.71-.73,3.11-.18,3.89.21" transform="translate(72.96 -6.37)"/><path class="cls-75" d="M252.77,64.75c.13,1.53.69,3.11.56,4.77a5.15,5.15,0,0,1-2,.36c0-1.41-.14-3.6,0-5,.42,0,1.09-.28,1.46-.16" transform="translate(72.96 -6.37)"/><path class="cls-72" d="M251.54,42.13c-.64.38-1.17.86-1.77,1.26a3.71,3.71,0,0,1-2.94-.93c0-.06.11,0,.12-.11,1.37.69,3.17-.14,4.59-.22" transform="translate(72.96 -6.37)"/><path class="cls-79" d="M243.92,51.4c.44-1.63,2-2.46,3.37-3.34a28.68,28.68,0,0,1,3,6.39,30.5,30.5,0,0,1-6.38-3.05" transform="translate(72.96 -6.37)"/><path class="cls-71" d="M251.3,64.91c-.1,1.35,0,3.52,0,5a5.06,5.06,0,0,0,2-.36c.13-1.67-.43-3.24-.56-4.77-.35-.12-1,.19-1.45.16Zm-13.79-8.16a70.86,70.86,0,0,0,2.56,15,19.55,19.55,0,0,0,10.82.55c-.48-2.75-.13-6.06-.37-9-.18-2.21,0-4.4-.26-6.65-3.71-.93-9-.49-12.75.08Zm13.67,0c-.12,2.34-.05,4.68.06,7a21.23,21.23,0,0,0,2.36-.35c-.2-2.26-.08-4.82-.58-6.84a5.7,5.7,0,0,0-1.84.16Zm4.57-.24a6.58,6.58,0,0,0-1.32,0c.14,1.91.53,4,.63,6.06a5.66,5.66,0,0,0,1.52-.34c.07-1.76,0-4.2-.83-5.68ZM262.47,63a3,3,0,0,0,1.92-3.59,17.23,17.23,0,0,0-1.05-4c-.33-.54-1.26-1.27-2.06-.82-1.27.77-3.5.93-4.43,1.86a31.2,31.2,0,0,1,.61,5.56c1.56.14,3.5-.33,4.78.28a16.64,16.64,0,0,0-2.88.64,6.13,6.13,0,0,0,3.11.1Zm-12.21-8.56a27.61,27.61,0,0,0-3-6.39c-1.39.87-2.92,1.69-3.38,3.34a35,35,0,0,0,6.38,3Zm2.55-6.78a29.2,29.2,0,0,1-1.16,6.83,52.68,52.68,0,0,0,3.91-5.78,2.14,2.14,0,0,0-2.75-1.05Zm-2.61-1c-.53-.07-1,.59-1.68.28-.17.18-.32.36-.49.53,1.46,1.9,2.09,4.55,3.21,6.75a29,29,0,0,0,.93-6.61c-.88,0-1.35-.87-2-.95Zm-1.61-2.29a4.63,4.63,0,0,0,.17,1.57c2.05.72,1.81-2.79-.17-1.57Zm-2.29-.84a11.7,11.7,0,0,0-3.37-1.34c-1.42-.32-1.34,1.92-1.33,3.26a10.73,10.73,0,0,0,.75,2.9c.1.34.12.69.4.77a6.8,6.8,0,0,0,2.61-.71A26.88,26.88,0,0,0,248,46.55c0-.28,0-.57.07-.84a4.33,4.33,0,0,0-1.8-.52c.5-.24,1.23-.22,1.7-.5a1.84,1.84,0,0,1,0-.33,3.76,3.76,0,0,1-1.7-.82Zm-8.5-1.82c-.78.75,2,1.85,2.92,1.93,0-.48.31-.92.26-1.26-1-.21-2.47-.13-3.18-.67Zm9.16.65c0,.07-.09.05-.11.1a3.74,3.74,0,0,0,2.94.94c.6-.4,1.15-.89,1.77-1.26-1.44.06-3.24.89-4.6.22Zm8.31,2.82c0-.85-.17-2.58-.69-2.91-1.08-.67-3.07,1.19-3.88,1.46a2.61,2.61,0,0,1,.23.79,2.25,2.25,0,0,1,1.48.22,2.77,2.77,0,0,0-1.35.25c-.12.34,0,.8-.09,1.26a16.9,16.9,0,0,0,3.9.68,2.86,2.86,0,0,0,.4-1.75Zm-18.74-2.78c-.24-.17-1.75-2.27-2-2.19a33.22,33.22,0,0,0-8.08,4.67c2.12,5,2.86,11,2.84,16.75,2.56,1.3,4.79,3.15,8.32,3.45-.33-2.91-.61-5.53-.76-8.25-.88-.41-2.16-.05-3-.2,0-1,1.28-.4,1.41-1.08.09-.51-.7-.57-.41-1.35.65.26,1,.8,1.65,1,.69-1.36.13-3.83.26-5,0-.22.14-1.19.63-1s-.1,2.64-.1,3.72-.19,2,.21,2.63A98.44,98.44,0,0,1,248.15,55a27.85,27.85,0,0,1-2.8-1.36c-.58-.35-2.35-1.09-2.5-1.62-.24-.89.74-1.3.93-2-1.75.89-2-1-2.4-2.28a17.7,17.7,0,0,1-.59-2.77,42.45,42.45,0,0,1-4.26-2.55Zm17.37-1.32c2.42-1.08,2.69,4.4,1.68,6.12.12.54.61.76.8,1.22-1.4,2.34-2.95,4.51-4.39,6.81,1-.61,2.46,0,3.65-.47.45-.15.79-1.14,1.15-1.92a42.28,42.28,0,0,0,2.5-7,8.49,8.49,0,0,0,.35-1.91c-.08-.77-1.09-1.36-1.59-1.83-.94-.91-1.5-1.66-2.5-2.52-.43.59-1.3,1-1.65,1.45ZM231.83,19.24c-1.18,1.21-1,3.54-.94,5.23,2.09-1.21,4.76.27,4.67,2.45,1,0,.41-1.2.25-2-.5-2.55,1.16-5.23.32-7.57a6.09,6.09,0,0,0-4.3,1.88Zm8.35-7c-2.59.65-5.94,2.41-7.06,4.68.82-.1,1.39-.48,2.2-.51a5.2,5.2,0,0,0,1.06.07c.7-.16,1.34-1.7,1.89-2.27s1.16-.79,1.58-1.27c.28-.12.68-.1.71-.51a.39.39,0,0,0-.38-.19Zm13.34,1.11c-2.63-1.59-7.1-2.87-10-1.54-2.33,1.08-5.49,2.87-6.61,5.22.91,2.34-.44,4.41-.61,6.75-.07,1.24.51,2.35.53,3.7-.37.56-1.38.58-2.09.52-.2-1.2-.58-2.57-1.8-2.75a2.86,2.86,0,0,0-3.21,2.66c-.15,1.78,1.2,4.77,3.3,4.64.81-.05,1-.85,1.9-.82.44,1-.78,1.21-.93,1.88a4.63,4.63,0,0,0,.15,1.18,16.3,16.3,0,0,0,1.88,4.81c1,1.54,3.06,1.82,5.27,2,.43-.85,1.88-.73,2.82-.47a9.51,9.51,0,0,1-3-2.61c-1-1.16-1.94-2.36-1.94-3.81,1.82,2.7,3.32,5.06,6.72,6.33,2.6,1,5.7-.22,7.76-1.57a9.06,9.06,0,0,0,2-2.3,20.25,20.25,0,0,0,3.44-12.07c0-1.81,0-3.63-.56-4.88s-2.72-2.52-4-1.39c-.2-1.26,1.13-2,2.62-1.48-1-1.42-2.1-3.11-3.63-4Zm3.65,41.28c2.12-1,6.06-2.59,7.27.24a20.12,20.12,0,0,1,1.16,3.87c.3,1.49-.53,4.64-2.09,5.08a9.13,9.13,0,0,1-4.58,0,2.8,2.8,0,0,1-.55-.75,6.22,6.22,0,0,0-3.2.44c.06.88-.53,1-1.11,1.14-.45,1.6.71,3.75.37,5.2-.24,1.06-1.53,1.16-2.48,1.32a7.18,7.18,0,0,0,0,1.56A2.32,2.32,0,0,1,249.86,74c-3.05.26-7.65.28-10.53-.88-.76-2-1.31-4.46-1.91-6.76-2.85.22-5.11-1.37-7.24-2.47-.74-.37-1.76-.61-2-1.22a10.18,10.18,0,0,1-.15-2.74,41.63,41.63,0,0,0-.77-8c-.27-1.24-.8-2.34-1.13-3.54a24.87,24.87,0,0,1-1-3.58c-.19-1.62,1.34-1.66,2.33-2.34,1.54-1,2.75-1.6,4.41-2.54A9.6,9.6,0,0,0,234,38.61c.35-.67-.51-1.63-.73-2.17a6.46,6.46,0,0,1-.57-2.39,4.66,4.66,0,0,1-3-2,7.46,7.46,0,0,1-.65-6.5c.08-.16.44-.49.5-.75a8,8,0,0,0-.16-1.73c0-2.79.64-5.17,2.54-5.93.87-3,3.63-3.92,6.23-5.36a17.29,17.29,0,0,1,3.15-1.22c3.95-1.3,10-.85,13.14,1.71a17.66,17.66,0,0,1,4.2,5c1.95,4.27,1.56,11.3-.05,16.38a17.48,17.48,0,0,1-1,2.5c-.3.58-1.2,1.69-1.12,2.2s1.9,2,2.29,2.39c.69.72,2,1.66,2.1,2.54a8.49,8.49,0,0,1-.78,3.08,86.44,86.44,0,0,1-2.93,8.34Z" transform="translate(72.96 -6.37)"/><path class="cls-76" d="M243.93,33.54c.12-.15.75-.36,1.59.09,0,0-1.05.13-1,1.85l-.44-.1s-.37-1.56-.14-1.84" transform="translate(72.96 -6.37)"/><path class="cls-80" d="M251,48.53a.48.48,0,0,1-.49.46.47.47,0,0,1-.46-.49.48.48,0,0,1,.95,0" transform="translate(72.96 -6.37)"/><path class="cls-80" d="M251.39,50.75a.49.49,0,0,1-.49.46.48.48,0,0,1-.46-.49.47.47,0,0,1,.49-.46.48.48,0,0,1,.46.49" transform="translate(72.96 -6.37)"/><path class="cls-81" d="M434.07,74.85a4.05,4.05,0,0,1-3.2-1.54l-12-14.94a4,4,0,0,1-.79-3.49l4.31-18.69a4.12,4.12,0,0,1,2.22-2.78L442,25.08a4,4,0,0,1,1.79-.41,4.15,4.15,0,0,1,1.79.41L463,33.36a4,4,0,0,1,2.23,2.79l4.28,18.67a4.13,4.13,0,0,1-.79,3.49l-12,14.94a4.17,4.17,0,0,1-3.21,1.54l-19.37.06Z" transform="translate(72.96 -6.37)"/><path class="cls-64" d="M443.73,25.54a3.39,3.39,0,0,1,1.41.31l17.39,8.28a3.29,3.29,0,0,1,1.79,2.23L468.61,55a3.2,3.2,0,0,1-.64,2.81l-12,14.94A3.29,3.29,0,0,1,453.36,74H434.07a3.29,3.29,0,0,1-2.58-1.23l-12-14.94a3.41,3.41,0,0,1-.64-2.81l4.29-18.66a3.25,3.25,0,0,1,1.79-2.23l17.39-8.32a4.13,4.13,0,0,1,1.44-.27Zm0-1.62h0a5,5,0,0,0-2.13.48l-17.39,8.32a4.9,4.9,0,0,0-2.69,3.33l-4.28,18.66a4.78,4.78,0,0,0,1,4.18l12,15A4.87,4.87,0,0,0,434,75.69h19.29a4.8,4.8,0,0,0,3.81-1.84l12-14.94a4.8,4.8,0,0,0,1-4.18l-4.29-18.66a4.86,4.86,0,0,0-2.68-3.33l-17.31-8.32a5,5,0,0,0-2.1-.5Z" transform="translate(72.96 -6.37)"/><path class="cls-64" d="M461.14,53.55h0s-.06,0-.06,0-.15,0-.21,0a3.93,3.93,0,0,0-.65-.06,1.2,1.2,0,0,1-.35,0h0a9,9,0,0,1-1.85-.31.66.66,0,0,1-.38-.38s0,0,0-.06h0l-.44-.15a13,13,0,0,0-.25-4.84,14.87,14.87,0,0,0-1.91-4.5l.35-.31v-.06a.81.81,0,0,1,.17-.52A10.55,10.55,0,0,1,457,41.17h0c.1-.07.21-.11.31-.17a3.89,3.89,0,0,0,.58-.35,1.07,1.07,0,0,0,.17-.15s.06,0,.06-.06h0a1.15,1.15,0,0,0,.25-1.54.94.94,0,0,0-.79-.38,1.32,1.32,0,0,0-.75.27h0l-.06.07c-.06,0-.1.1-.17.14a4.65,4.65,0,0,0-.43.48c-.07.06-.15.17-.25.25h0A7.84,7.84,0,0,1,454.52,41a.6.6,0,0,1-.31.1.41.41,0,0,1-.21,0h-.06l-.41.27A17.48,17.48,0,0,0,452.11,40a13.62,13.62,0,0,0-7.18-2.85l0-.44-.06-.06a.64.64,0,0,1-.27-.44,12.44,12.44,0,0,1,.1-1.85v0a2.14,2.14,0,0,1,.06-.35c0-.21.07-.42.11-.65V33h0a1.11,1.11,0,0,0-1.06-1.14,1.1,1.1,0,0,0-.75.35,1.08,1.08,0,0,0-.31.79h0v.29a2.21,2.21,0,0,0,.1.65,1.48,1.48,0,0,1,.06.35v0a10.3,10.3,0,0,1,.11,1.85.68.68,0,0,1-.27.44l-.07.06h0l0,.44a16.83,16.83,0,0,0-1.85.27,13.16,13.16,0,0,0-6.8,3.85l-.36-.25h-.06c-.06,0-.15,0-.21,0a.63.63,0,0,1-.31-.1,9.72,9.72,0,0,1-1.37-1.27h0c-.07-.06-.15-.17-.25-.25s-.27-.31-.44-.48a.94.94,0,0,1-.17-.15s-.06,0-.06-.06h0a1.21,1.21,0,0,0-.75-.27,1,1,0,0,0-.79.38,1.12,1.12,0,0,0,.25,1.54h0s0,0,.06,0,.11.1.17.14a4.57,4.57,0,0,0,.58.36,1.82,1.82,0,0,1,.31.16h0a9.08,9.08,0,0,1,1.54,1.06.66.66,0,0,1,.17.52v.07h0l.35.31c-.06.1-.14.16-.16.27a13.28,13.28,0,0,0-1.92,9.07l-.43.15s0,0,0,.06a.76.76,0,0,1-.38.37,9,9,0,0,1-1.85.32h0a1.11,1.11,0,0,0-.36,0c-.2,0-.41,0-.64.06-.06,0-.15,0-.21,0a.11.11,0,0,0-.1,0h0a1.14,1.14,0,0,0-.9,1.27,1.06,1.06,0,0,0,1.1.79.68.68,0,0,0,.28,0h0s.06,0,.06,0,.14,0,.21,0a2.87,2.87,0,0,0,.62-.25l.31-.15h0a9,9,0,0,1,1.79-.52h.07a.72.72,0,0,1,.43.17s0,0,.06,0h0l.48-.06a14,14,0,0,0,4.5,6.47,13.7,13.7,0,0,0,1.48,1l-.21.43c0,.05,0,.05,0,.07a.68.68,0,0,1,.06.54,10.22,10.22,0,0,1-.89,1.62v0c-.07.11-.15.17-.21.27a6.58,6.58,0,0,0-.38.54s-.06.11-.1.17a.07.07,0,0,1,0,.06h0a1,1,0,0,0,.85,1.58,1.25,1.25,0,0,0,1-.64h0a.07.07,0,0,1,0-.06c0-.07.07-.15.11-.17.1-.25.14-.42.21-.62s.06-.21.1-.32h0a9.26,9.26,0,0,1,.73-1.72,1,1,0,0,1,.43-.32s0,0,.07,0h0l.25-.43a13.53,13.53,0,0,0,4.8.89,12.18,12.18,0,0,0,3-.35,16.85,16.85,0,0,0,1.79-.52l.21.37s0,0,.06,0a.64.64,0,0,1,.44.32,12.58,12.58,0,0,1,.72,1.72v0c.05.11.07.21.11.32a3.24,3.24,0,0,0,.21.62l.1.17a.07.07,0,0,0,0,.06h0a1.16,1.16,0,0,0,1,.64,1.07,1.07,0,0,0,.42-.1,1.09,1.09,0,0,0,.52-.62,1.28,1.28,0,0,0-.06-.86h0s-.05,0-.05-.06-.06-.15-.1-.17a4.27,4.27,0,0,0-.37-.54,2.78,2.78,0,0,1-.21-.27v0a7.41,7.41,0,0,1-.9-1.62.93.93,0,0,1,0-.54s.05,0,.05-.07h0l-.17-.41a13.26,13.26,0,0,0,4.54-4.43,12.45,12.45,0,0,0,1.43-3.1l.42.06s0,0,.06,0a1,1,0,0,1,.44-.17h.06a7.63,7.63,0,0,1,1.79.52h0l.31.15a6.36,6.36,0,0,0,.63.25c.06,0,.14,0,.2,0a.12.12,0,0,1,.11,0h0a.63.63,0,0,0,.27,0,1.16,1.16,0,0,0,1.1-.79,1.46,1.46,0,0,0-1.06-1.12Zm-15.9-1.69-1.51.73-1.52-.73-.38-1.62,1-1.31h1.69l1,1.31-.36,1.62Zm9-3.58a10.82,10.82,0,0,1,.25,3.48l-5.26-1.52a1,1,0,0,1-.65-1.1.89.89,0,0,1,.21-.38L452.92,45a12.26,12.26,0,0,1,1.29,3.26ZM451.26,43l-4.52,3.2a.9.9,0,0,1-1.2-.21.63.63,0,0,1-.17-.37l-.31-5.6a10.49,10.49,0,0,1,6.2,3Zm-10-2.81c.38-.07.73-.15,1.1-.21l-.31,5.49a1,1,0,0,1-.93.9.79.79,0,0,1-.42-.11L436.15,43a10.56,10.56,0,0,1,5.14-2.81ZM434.51,45l4.1,3.64a.92.92,0,0,1,.1,1.27.63.63,0,0,1-.41.27L433,51.74A11.08,11.08,0,0,1,434.51,45Zm-.92,9.32,5.47-.94a.92.92,0,0,1,1,.73.82.82,0,0,1,0,.54h0l-2.1,5.06a10.72,10.72,0,0,1-4.29-5.39Zm12.55,6.84a11.34,11.34,0,0,1-2.41.27,11.78,11.78,0,0,1-3.48-.54L443,56a.92.92,0,0,1,1.1-.25,1.89,1.89,0,0,1,.41.38h0l2.65,4.78c-.29.09-.65.17-1,.27Zm6.7-4.78a10.84,10.84,0,0,1-3.31,3.33l-2.16-5.18a.91.91,0,0,1,.48-1.07,1.24,1.24,0,0,1,.47-.1l5.5.94a6.61,6.61,0,0,1-1,2.08Z" transform="translate(72.96 -6.37)"/><path class="cls-82" d="M124.63,162.55h13l-13.46,39.86a2.09,2.09,0,0,1-2,1.4h-10.1a2.09,2.09,0,0,1-1.67-.86,2,2,0,0,1-.28-1.86L122.68,164a2,2,0,0,1,1.95-1.4Z" transform="translate(72.96 -6.37)"/><path class="cls-83" d="M143.46,189.29H122.92a.94.94,0,0,0-.65,1.64l13.21,12.31a2.06,2.06,0,0,0,1.42.57h11.63Z" transform="translate(72.96 -6.37)"/><path class="cls-84" d="M124.63,162.55a2.06,2.06,0,0,0-2,1.44l-12.51,37.06a2.05,2.05,0,0,0,.26,1.89,2.08,2.08,0,0,0,1.69.87h10.35a2.17,2.17,0,0,0,1.69-1.44l2.5-7.35,8.91,8.31a2.09,2.09,0,0,0,1.34.48h11.59l-5.08-14.52H128.6l9.07-26.74Z" transform="translate(72.96 -6.37)"/><path class="cls-85" d="M141.19,164a2.07,2.07,0,0,0-1.95-1.4H124.79a2,2,0,0,1,1.95,1.4l12.53,37.14A2.08,2.08,0,0,1,139,203a2,2,0,0,1-1.68.86h14.44a2.11,2.11,0,0,0,1.68-.86,2,2,0,0,0,.27-1.86Z" transform="translate(72.96 -6.37)"/><path class="cls-86" d="M230.26,316.7l3.34-3.34.23-1.41a15,15,0,0,0-21.22,1.32,15.45,15.45,0,0,0-3.25,6.08l1.2-.17,6.66-1.09.51-.53a8.35,8.35,0,0,1,11.39-.92Z" transform="translate(72.96 -6.37)"/><path class="cls-87" d="M238.33,319.26a15,15,0,0,0-4.52-7.3l-4.67,4.68a8.27,8.27,0,0,1,3.05,6.58v.83a4.14,4.14,0,1,1,0,8.28h-8.34l-.82.88v5l.82.78h8.34a10.77,10.77,0,0,0,6.14-19.72" transform="translate(72.96 -6.37)"/><path class="cls-88" d="M215.53,339h8.32v-6.66h-8.32a4.18,4.18,0,0,1-1.71-.38l-1.18.36-3.36,3.34-.29,1.14a10.72,10.72,0,0,0,6.54,2.2" transform="translate(72.96 -6.37)"/><path class="cls-89" d="M215.53,317.38A10.83,10.83,0,0,0,209,336.79l4.83-4.84a4.16,4.16,0,1,1,5.51-5.51l4.82-4.82a10.81,10.81,0,0,0-8.62-4.24" transform="translate(72.96 -6.37)"/><path class="cls-90" d="M534.45,183.58a4.37,4.37,0,0,0,.11,1.24,9.66,9.66,0,0,0,.42,1,.63.63,0,0,1,.09.33.58.58,0,0,1-.28.41l-.9.56a.57.57,0,0,1-.78-.1,3.76,3.76,0,0,1-.48-.67c-.13-.24-.27-.51-.41-.84a5.18,5.18,0,0,1-4.17,1.8,3.84,3.84,0,0,1-2.76-1.09,4,4,0,0,1,.41-5.56,5.12,5.12,0,0,1,3.46-1,11.32,11.32,0,0,1,1.48.16c.51.09,1,.22,1.59.36l0-1a3.13,3.13,0,0,0-.59-2.26,3.23,3.23,0,0,0-2.26-.71,6.09,6.09,0,0,0-1.51.13,11,11,0,0,0-1.52.43c-.23.09-.4.14-.5.17l-.22,0c-.2,0-.29-.15-.28-.44l0-.69a.91.91,0,0,1,.11-.48,1,1,0,0,1,.4-.28,8.09,8.09,0,0,1,1.78-.58,8.24,8.24,0,0,1,2.19-.19,5.11,5.11,0,0,1,3.62,1.24,4.65,4.65,0,0,1,1.06,3.48l-.15,4.52Zm-5.74,1.94a4.47,4.47,0,0,0,1.45-.21,3,3,0,0,0,1.35-.85,2.17,2.17,0,0,0,.51-.88,5,5,0,0,0,.17-1.21l0-.59a11.85,11.85,0,0,0-1.27-.27,10,10,0,0,0-1.32-.13,3.21,3.21,0,0,0-2.09.49,2,2,0,0,0,1.18,3.65Zm11.17,1.86a.72.72,0,0,1-.52-.15,1.11,1.11,0,0,1-.28-.56l-2.94-10.9a2.42,2.42,0,0,1-.11-.56c0-.23.12-.35.35-.34l1.36,0a.82.82,0,0,1,.55.16,1.27,1.27,0,0,1,.26.55l2.05,9.32,2.47-9.17a1,1,0,0,1,.29-.54.93.93,0,0,1,.56-.12l1.12,0a.86.86,0,0,1,.55.16,1,1,0,0,1,.25.55l1.91,9.43,2.71-9.28a1.27,1.27,0,0,1,.3-.54.92.92,0,0,1,.55-.12l1.3,0a.31.31,0,0,1,.34.36.93.93,0,0,1,0,.22,1.12,1.12,0,0,1-.11.35L549.1,187a1.08,1.08,0,0,1-.32.54.85.85,0,0,1-.53.12l-1.2,0a.82.82,0,0,1-.56-.15,1,1,0,0,1-.24-.57l-1.88-9.08-2.44,8.93a1.11,1.11,0,0,1-.28.55.91.91,0,0,1-.57.12Zm17.94,1a9.08,9.08,0,0,1-2.14-.32,6.53,6.53,0,0,1-1.59-.61,1,1,0,0,1-.42-.41.87.87,0,0,1-.07-.39l0-.71c0-.3.13-.43.34-.42a.59.59,0,0,1,.25.05l.34.15a8,8,0,0,0,1.52.53,7.88,7.88,0,0,0,1.66.22,3.75,3.75,0,0,0,2-.39,1.5,1.5,0,0,0,.77-1.31,1.39,1.39,0,0,0-.34-1,3.74,3.74,0,0,0-1.39-.77l-2-.69a4.2,4.2,0,0,1-2.19-1.5,3.28,3.28,0,0,1-.63-2,3.18,3.18,0,0,1,.42-1.54,3.83,3.83,0,0,1,1-1.12,4.46,4.46,0,0,1,1.48-.68,6.09,6.09,0,0,1,1.77-.18,5.75,5.75,0,0,1,.93.09c.32,0,.61.11.91.18s.54.16.79.25a2.79,2.79,0,0,1,.57.27,1.15,1.15,0,0,1,.41.36.73.73,0,0,1,.11.47l0,.65c0,.3-.12.45-.33.44a1.47,1.47,0,0,1-.53-.19,6.63,6.63,0,0,0-2.66-.63,3.56,3.56,0,0,0-1.87.34,1.34,1.34,0,0,0-.7,1.22,1.32,1.32,0,0,0,.39,1,4.07,4.07,0,0,0,1.51.82l2,.69a4.37,4.37,0,0,1,2.13,1.41,3.22,3.22,0,0,1,.58,2,3.53,3.53,0,0,1-.42,1.61,3.68,3.68,0,0,1-1.06,1.2,4.46,4.46,0,0,1-1.57.73A7,7,0,0,1,557.82,188.33Z" transform="translate(72.96 -6.37)"/><path class="cls-91" d="M560.25,195.2c-4.71,3.25-11.44,4.84-17.18,4.66a30.78,30.78,0,0,1-20.53-8.58c-.42-.4,0-.92.5-.6a41.26,41.26,0,0,0,36.57,3.44C560.39,193.79,561,194.67,560.25,195.2Zm2-2.12c-.56-.77-3.87-.48-5.37-.35-.45,0-.51-.35-.09-.63,2.68-1.76,7-1.09,7.46-.46s-.29,4.94-2.82,6.93c-.38.31-.74.13-.56-.29C561.45,196.92,562.79,193.84,562.23,193.08Z" transform="translate(72.96 -6.37)"/><g class="cls-92"><path class="cls-93" d="M360.73,330.7a5.6,5.6,0,0,0,1.18-1.2,10,10,0,0,0,1.61-6.62c0-.43-.06-.87-.12-1.31,3.16,1.28,6,1.27,8.12.18a8.3,8.3,0,0,1-.38.86,6.52,6.52,0,0,1-1.79,2.2Z" transform="translate(72.96 -6.37)"/><path class="cls-94" d="M363.41,269.15l-5.18,3.49c0-.34,0-.69,0-1.06-.37-6.9-5.62-15-11.75-18.14-3.1-1.58-5.83-1.57-7.72-.28l5.25-3.53,0,0,.07,0h0c1.89-1.19,4.55-1.16,7.57.38,6.12,3.12,11.38,11.24,11.74,18.14C363.42,268.45,363.42,268.81,363.41,269.15Z" transform="translate(72.96 -6.37)"/><path class="cls-94" d="M377.32,317.91l-5,3.33.17-.11a8.36,8.36,0,0,0,3-4.74,15.26,15.26,0,0,0,.4-4.62c-.27-5.17-2.61-10.87-6.06-15.61l5.18-3.48c3.45,4.73,6,10.42,6.07,15.61C381.23,315.7,377.35,317.89,377.32,317.91Z" transform="translate(72.96 -6.37)"/><path class="cls-94" d="M369.84,296.16a7.87,7.87,0,0,0,1.68-5.87,14.89,14.89,0,0,0-.18-1.59c-1-6-5.48-12.51-10.66-15.14a10.92,10.92,0,0,0-2.45-.92l5.18-3.49a11,11,0,0,1,2.46.92c5.65,2.87,10.5,10.37,10.83,16.73a7.87,7.87,0,0,1-1.68,5.88Z" transform="translate(72.96 -6.37)"/><path class="cls-95" d="M361.91,329.51c1.37-1.7,1.92-5,1.49-7.94,7.73,3.15,12.44-1.61,12.53-8.36.05-6.13-2.37-11.78-6.09-17,4.17-5.31,0-14.21-4.37-18.91a16.85,16.85,0,0,0-5.42-4c-.65-.55-1.8-.11-1.82-1,.1-12.43-15.94-26.5-21.33-17-1.19,2.87,9,13.49,9.06,14.13,1.06,9.6,3.45,34.37,1,45.75C343.67,330.08,355.25,337.88,361.91,329.51Z" transform="translate(72.96 -6.37)"/></g><g class="cls-92"><path class="cls-94" d="M327.28,330.76a6.28,6.28,0,0,1-1.24-1.13,10,10,0,0,1-2-6.52c0-.43,0-.87.05-1.32-3.09,1.46-5.88,1.62-8.09.65a7.16,7.16,0,0,0,.42.83,6.26,6.26,0,0,0,1.92,2.09Z" transform="translate(72.96 -6.37)"/><path class="cls-94" d="M321.08,269.46l5.38,3.19c0-.34,0-.69,0-1.06,0-6.91,4.75-15.32,10.69-18.78,3-1.76,5.73-1.91,7.69-.72l-5.44-3.23,0,0-.07,0h0c-1.94-1.08-4.6-.9-7.53.81C325.79,253.08,321,261.49,321,268.4,321,268.77,321.06,269.12,321.08,269.46Z" transform="translate(72.96 -6.37)"/><path class="cls-94" d="M310,318.94l5.13,3a1,1,0,0,0-.17-.1,8.37,8.37,0,0,1-3.24-4.57,15.73,15.73,0,0,1-.67-4.58c0-5.19,2-11,5.16-15.93l-5.37-3.19c-3.17,4.93-5.36,10.75-5.16,15.93C306,317,310,318.92,310,318.94Z" transform="translate(72.96 -6.37)"/><path class="cls-94" d="M316.21,296.8a7.9,7.9,0,0,1-2-5.77,14.35,14.35,0,0,1,.08-1.59c.62-6,4.75-12.81,9.77-15.74a11.18,11.18,0,0,1,2.4-1.05l-5.38-3.19a11.17,11.17,0,0,0-2.39,1.06c-5.47,3.19-9.89,11-9.86,17.33a7.84,7.84,0,0,0,2,5.76Z" transform="translate(72.96 -6.37)"/><path class="cls-95" d="M348.11,306.78c-.05-9.14-.24-42.68-.35-48.8-.11-.64.35-1-1-3.84-5.92-9.2-21.13,5.76-20.32,18.16,0,.85-1.14.48-1.76,1.07a16.79,16.79,0,0,0-5.18,4.3c-4.1,4.95-7.75,14.07-3.29,19.13-3.4,5.47-5.5,11.25-5.09,17.36.47,6.74,5.45,11.22,13,7.63-.26,2.94.48,6.23,2,7.84C333.17,337.61,349.38,321.94,348.11,306.78Z" transform="translate(72.96 -6.37)"/></g><path class="cls-96" d="M375.89,190.06s-6.95,6.64-6.88,11.28l.17,12.17a7.05,7.05,0,0,0,7,7h.32a7,7,0,0,0,6.72-7.16L383,201.48C382.94,195.81,375.9,190.07,375.89,190.06Z" transform="translate(72.96 -6.37)"/><path class="cls-97" d="M307.88,191s-6.94,6.65-6.88,11.28l.18,12.18a7,7,0,0,0,7,7h.32a7,7,0,0,0,6.72-7.16L315,202.45C314.93,196.77,307.89,191,307.88,191Z" transform="translate(72.96 -6.37)"/><path class="cls-98" d="M393.68,250.8a.4.4,0,0,0-.26-.06h-.07a.65.65,0,0,0-.22.08h0c-.88.51-1.67,3-1.72,3.11l-.78,4.79-1.21,7.38-.93,5.69,3.16,2.95,3.59-16.93C394.91,253,394.32,251.15,393.68,250.8Z" transform="translate(72.96 -6.37)"/><path class="cls-99" d="M393.1,250.83h0l-19.34-30.58-5.45,3.27,22.29,35.23.78-4.8c.05-.15.84-2.6,1.72-3.11h0Z" transform="translate(72.96 -6.37)"/><polygon class="cls-100" points="437.12 238.52 462.36 259.74 463.57 252.37 441.29 217.14 437.12 238.52"/><path class="cls-101" d="M399.13,247.53a.55.55,0,0,0-.59,0l-5.43,3.26h0a.65.65,0,0,1,.22-.08h.07a.45.45,0,0,1,.27.06c.63.35,1.22,2.17,1.53,7l-3.59,16.93,5.44-3.27,3.6-16.93C400.36,249.7,399.76,247.88,399.13,247.53Z" transform="translate(72.96 -6.37)"/><path class="cls-98" d="M292.32,252.26h0a.63.63,0,0,0-.22-.07H292a.43.43,0,0,0-.26.07c-.62.37-1.17,2.2-1.34,7.06l4.07,16.82,3.08-3-3.43-17.76C294.08,255.17,293.22,252.74,292.32,252.26Z" transform="translate(72.96 -6.37)"/><path class="cls-102" d="M292.32,252.26h0c.9.48,1.76,2.91,1.81,3.07l.92,4.77,21.27-35.85-5.53-3.11Z" transform="translate(72.96 -6.37)"/><polygon class="cls-103" points="368.02 253.72 369.43 261.06 394.06 239.13 389.29 217.88 368.02 253.72"/><path class="cls-104" d="M291.75,252.25a.43.43,0,0,1,.26-.07h.07a.63.63,0,0,1,.22.07h0l-5.52-3.11a.57.57,0,0,0-.59,0c-.62.37-1.16,2.21-1.33,7.07L289,273l5.53,3.12-4.07-16.82C290.58,254.45,291.13,252.62,291.75,252.25Z" transform="translate(72.96 -6.37)"/><path class="cls-105" d="M343,265.41c14-.2,22.53-6.76,22.62-11.58l-45.56.65C320.32,259.29,329,265.61,343,265.41Z" transform="translate(72.96 -6.37)"/><path class="cls-106" d="M308.15,212.3c.27,18.88,10.09,37.79,11.59,40.87a.22.22,0,0,0,0,.08c.06,4.65,8.89,10.84,23.29,10.64s23-6.65,23-11.3c0,0,10-22.21,10.18-39.16C373.67,214.42,308.15,212.3,308.15,212.3Z" transform="translate(72.96 -6.37)"/><path class="cls-107" d="M375.24,147l1,67.33c-5.07,5.45-19.3,9.37-33.41,9.57-14.76.21-28.77-5.54-34.63-10.58l-.92-65.35c-.13-8.66,15-15.91,33.78-16.17S375.12,138.31,375.24,147Z" transform="translate(72.96 -6.37)"/><g class="cls-108"><path class="cls-109" d="M346.11,204.54S335.9,211.23,336,215.87l.17,12.17c.1,7,4.65,12.13,11.06,12,3.81-.05,8.76-5.94,8.7-9.75l-.16-11.83C355.62,210,346.12,204.56,346.11,204.54Z" transform="translate(72.96 -6.37)"/></g><g class="cls-110"><path class="cls-111" d="M307.86,191.85l.49,34.47s8.86.81,8.7-10.78L317,209C316.88,203.56,311.63,194.16,307.86,191.85Z" transform="translate(72.96 -6.37)"/></g><path class="cls-112" d="M342,200.11s-6.94,6.65-6.88,11.28l.17,12.17a7.05,7.05,0,0,0,7,7h.32a7,7,0,0,0,6.72-7.16l-.17-11.83C349.07,205.86,342,200.13,342,200.11Z" transform="translate(72.96 -6.37)"/><path class="cls-113" d="M375.25,147.21a28.46,28.46,0,0,1-11.62,7.53,61,61,0,0,0-22.34-3.53,61.79,61.79,0,0,0-21.49,3.86,35.93,35.93,0,0,1-12.57-7.27s.28,19.23.28,19.58c.13,8.67,15.45,15.48,34.23,15.22s33.9-7.51,33.78-16.19Z" transform="translate(72.96 -6.37)"/><path class="cls-114" d="M375.24,147c.12,8.67-15,15.92-33.78,16.19s-34.1-6.55-34.22-15.22,15-15.91,33.78-16.17S375.12,138.31,375.24,147Z" transform="translate(72.96 -6.37)"/><path class="cls-115" d="M346.87,120.49c0-.06-.08-.09-.08-.11,0-.19,0-.37,0-.55q-.39-5.79-.77-11.56a2.25,2.25,0,0,0-.08-.62l-.47-.26c-.86-.42-1.72-.83-2.57-1.26l-2.52-1.24-2.52-1.24-2.62-1.29-.64-.32a.1.1,0,0,1,0-.18l.58-.41,2.39-1.58,2.37-1.6,2.39-1.59,2.33-1.56c.15-.11.31-.21.45-.3a1,1,0,0,1,.47.17l4.3,2.12,3.31,1.64,3.11,1.52.25.13a.34.34,0,0,1,.2.3l0,.33.78,11.83,0,.43a1.35,1.35,0,0,1-.39.33L354,115.7l-2.87,1.94-1.47,1Z" transform="translate(72.96 -6.37)"/><path class="cls-116" d="M329.42,118.61c0,.39,0,.77.06,1.16s0,.77.08,1.15l.07,1.16.08,1.15.08,1.16.08,1.21.07,1.15.08,1.16.08,1.15.07,1.16c0,.38.06.77.08,1.15-.07,0-.12,0-.15,0l-11.34-5.57a.86.86,0,0,1-.09-.46c-.13-1.81-.24-3.63-.37-5.44l-.42-6.44c0-.18,0-.36,0-.51a.27.27,0,0,1,0-.08.1.1,0,0,1,.05,0l.22-.16.18-.12,10.16-6.8a.84.84,0,0,1,.41.14l3,1.46L335.3,109l3.4,1.68,1.14.56c.08,0,.17.06.21.18-.48.36-1,.68-1.49,1l-1.55,1-1.51,1-1.51,1-1.51,1-1.56,1C330.42,117.92,329.9,118.23,329.42,118.61Z" transform="translate(72.96 -6.37)"/><path class="cls-117" d="M347,127.17l.19-.09,10.39-6.94h.11a.47.47,0,0,1,.06.09c.28,4.2.55,8.4.83,12.57-.06.18-.2.24-.32.32l-2.24,1.5-6,4-1.93,1.28a.38.38,0,0,1-.45,0l-3.66-1.8-4.15-2-3.16-1.55c-.12-.06-.22-.13-.32-.19a1.57,1.57,0,0,1-.07-.56q-.25-3.69-.49-7.38c-.1-1.41-.19-2.82-.28-4.23,0-.17,0-.33,0-.5a.11.11,0,0,1,.16-.09l.3.14,2.08,1,4.84,2.39,3.9,1.92Z" transform="translate(72.96 -6.37)"/><path class="cls-118" d="M345.68,122.37a4.78,4.78,0,0,0,.85-.53c.28-.17.55-.37.83-.55l.78-.52.82-.55.78-.52.82-.55.78-.52.83-.56.78-.52c.08,0,.15,0,.21.07l3.21,1.59.24.15-.14.12-9.39,6.28-.16.09-.35-.14-4-2-7.71-3.8a1.26,1.26,0,0,0-.52-.2,7.31,7.31,0,0,0,0,.94l.06,1,.07.94.06,1,.06.94c0,.33.05.66.07,1l.06.93c0,.33,0,.66.07,1s0,.63.05.91a1.16,1.16,0,0,1-.4.34l-.45.3-.42.28-.41.27-.41.28-.46.31c-.14.09-.27.19-.41.27s-.25.22-.45.24a1.32,1.32,0,0,1-.06-.48c0-.17,0-.33,0-.5l0-.55,0-.49,0-.5,0-.49,0-.5,0-.49,0-.55,0-.5,0-.49,0-.5,0-.49,0-.5,0-.55,0-.49,0-.5,0-.49,0-.5,0-.49,0-.55,0-.5c0-.16,0-.32,0-.45a.59.59,0,0,1,.26-.26q2.38-1.59,4.76-3.19l6.28-4.19.26-.21s0-.06,0-.11l-7.72-3.8a1.6,1.6,0,0,1,0-.21l-.24-3.64c0-.06,0-.13,0-.2h.08l.11,0,10.18,5,.09.08a1.27,1.27,0,0,1,.07.48q.24,3.67.49,7.37l.36,5.51C345.65,121.94,345.66,122.12,345.68,122.37Z" transform="translate(72.96 -6.37)"/><path class="cls-119" d="M375.55,145.41l0,1.56c.12,8.67-15,15.91-33.78,16.18-17.59.25-32.15-5.71-34-13.59l-.08-5.6c-.47-32.51,33-78.86,33-78.86S375,105.62,375.55,145.41Z" transform="translate(72.96 -6.37)"/><path class="cls-120" d="M329.65,147a1.3,1.3,0,1,0,1.84,0A1.3,1.3,0,0,0,329.65,147Z" transform="translate(72.96 -6.37)"/><path class="cls-64" d="M356.1,147.56a1.3,1.3,0,1,0,1.84,0A1.3,1.3,0,0,0,356.1,147.56Z" transform="translate(72.96 -6.37)"/><path class="cls-120" d="M340.54,125.41a1.4,1.4,0,0,0,0,2,1.4,1.4,0,1,0,2-1.94A1.4,1.4,0,0,0,340.54,125.41Z" transform="translate(72.96 -6.37)"/><path class="cls-120" d="M339.81,130.22a.85.85,0,0,0,0,1.19.84.84,0,0,0,1.18,0,.84.84,0,0,0-1.16-1.21Z" transform="translate(72.96 -6.37)"/><path class="cls-121" d="M338.47,128.61a.54.54,0,0,0,0,.76.54.54,0,1,0,.78-.74A.54.54,0,0,0,338.47,128.61Z" transform="translate(72.96 -6.37)"/><path class="cls-121" d="M359,140.39a.54.54,0,1,0,.76,0A.54.54,0,0,0,359,140.39Z" transform="translate(72.96 -6.37)"/><path class="cls-120" d="M334.11,116.23a.16.16,0,1,0,.23,0A.16.16,0,0,0,334.11,116.23Z" transform="translate(72.96 -6.37)"/><path class="cls-121" d="M335.18,123a.17.17,0,0,0,0,.23.15.15,0,0,0,.23,0,.15.15,0,0,0,0-.22A.16.16,0,0,0,335.18,123Z" transform="translate(72.96 -6.37)"/><path class="cls-121" d="M349.73,147.2a.16.16,0,0,0,0,.23.17.17,0,0,0,.23,0,.16.16,0,0,0,0-.23A.15.15,0,0,0,349.73,147.2Z" transform="translate(72.96 -6.37)"/><path class="cls-121" d="M348.21,145.17a.16.16,0,0,0,0,.23.15.15,0,0,0,.23,0,.16.16,0,0,0,0-.23A.17.17,0,0,0,348.21,145.17Z" transform="translate(72.96 -6.37)"/><path class="cls-120" d="M322.91,122.77a2,2,0,1,0,2.8,0A2,2,0,0,0,322.91,122.77Z" transform="translate(72.96 -6.37)"/><path class="cls-64" d="M318.88,139.94a1,1,0,1,0,1.39,0A1,1,0,0,0,318.88,139.94Z" transform="translate(72.96 -6.37)"/><path class="cls-120" d="M337.17,136a1,1,0,1,0,1.39,0A1,1,0,0,0,337.17,136Z" transform="translate(72.96 -6.37)"/><path class="cls-120" d="M326.87,111.74a1,1,0,0,0,0,1.4,1,1,0,0,0,1.42-1.37A1,1,0,0,0,326.87,111.74Z" transform="translate(72.96 -6.37)"/><path class="cls-120" d="M316,131.69a1,1,0,0,0,0,1.4,1,1,0,1,0,0-1.4Z" transform="translate(72.96 -6.37)"/><path class="cls-120" d="M356.55,133a1,1,0,1,0,1.4,0A1,1,0,0,0,356.55,133Z" transform="translate(72.96 -6.37)"/><path class="cls-120" d="M343.94,112.5a1,1,0,1,0,1.4,0A1,1,0,0,0,343.94,112.5Z" transform="translate(72.96 -6.37)"/><path class="cls-64" d="M362.91,118.18a.49.49,0,0,0,0,.68.47.47,0,0,0,.67,0,.47.47,0,0,0,0-.67A.47.47,0,0,0,362.91,118.18Z" transform="translate(72.96 -6.37)"/><path class="cls-120" d="M333.56,144.67a.58.58,0,1,0,.8.83.57.57,0,0,0,0-.82A.56.56,0,0,0,333.56,144.67Z" transform="translate(72.96 -6.37)"/><path class="cls-64" d="M331.37,118.78a.58.58,0,1,0,.82,0A.58.58,0,0,0,331.37,118.78Z" transform="translate(72.96 -6.37)"/><path class="cls-64" d="M317.7,120.07a.39.39,0,1,0,.55,0A.38.38,0,0,0,317.7,120.07Z" transform="translate(72.96 -6.37)"/><path class="cls-64" d="M322.27,132.78a.57.57,0,0,0,.79.81.56.56,0,0,0,0-.8A.57.57,0,0,0,322.27,132.78Z" transform="translate(72.96 -6.37)"/><path class="cls-64" d="M322.45,134.49a.31.31,0,1,0,.44,0A.32.32,0,0,0,322.45,134.49Z" transform="translate(72.96 -6.37)"/><path class="cls-120" d="M326.5,103.89a1.4,1.4,0,0,0,1.66,2.25,1.38,1.38,0,0,0,.3-2A1.4,1.4,0,0,0,326.5,103.89Z" transform="translate(72.96 -6.37)"/><path class="cls-120" d="M330.59,98.7a.84.84,0,0,0-.18,1.17.84.84,0,0,0,1.35-1A.84.84,0,0,0,330.59,98.7Z" transform="translate(72.96 -6.37)"/><path class="cls-121" d="M332.06,101a.54.54,0,0,0,.64.87.53.53,0,0,0,.11-.75A.54.54,0,0,0,332.06,101Z" transform="translate(72.96 -6.37)"/><path class="cls-120" d="M335.62,104.88a.16.16,0,1,0,.19.26.17.17,0,0,0,0-.23A.16.16,0,0,0,335.62,104.88Z" transform="translate(72.96 -6.37)"/><path class="cls-121" d="M344.48,100.73a.16.16,0,1,0,.16.16A.16.16,0,0,0,344.48,100.73Z" transform="translate(72.96 -6.37)"/><path class="cls-120" d="M354.49,99.11a2,2,0,1,0,1.94,2A2,2,0,0,0,354.49,99.11Z" transform="translate(72.96 -6.37)"/><path class="cls-120" d="M344.81,105.7a1,1,0,1,0,1.17,1.59,1,1,0,0,0-1.17-1.59Z" transform="translate(72.96 -6.37)"/><path class="cls-120" d="M359.11,119.34a1,1,0,1,0,1,1A1,1,0,0,0,359.11,119.34Z" transform="translate(72.96 -6.37)"/><path class="cls-120" d="M341,76a1,1,0,0,0-1,1,1,1,0,0,0,2,0A1,1,0,0,0,341,76Z" transform="translate(72.96 -6.37)"/><path class="cls-120" d="M344.13,90.83a1,1,0,0,0-1,1,1,1,0,1,0,1-1Z" transform="translate(72.96 -6.37)"/><path class="cls-64" d="M336.09,80.43a.48.48,0,0,0-.48.47.47.47,0,0,0,.47.48.46.46,0,0,0,.48-.46A.47.47,0,0,0,336.09,80.43Z" transform="translate(72.96 -6.37)"/><path class="cls-64" d="M350.05,101.15a.58.58,0,0,0-.59.57.59.59,0,0,0,.57.59.58.58,0,0,0,.59-.57A.57.57,0,0,0,350.05,101.15Z" transform="translate(72.96 -6.37)"/><path class="cls-64" d="M349.4,110.88a.39.39,0,0,0,0,.78.39.39,0,0,0,0-.78Z" transform="translate(72.96 -6.37)"/><path class="cls-64" d="M355.4,115a.57.57,0,1,0,.56.57A.55.55,0,0,0,355.4,115Z" transform="translate(72.96 -6.37)"/><path class="cls-64" d="M351.26,110.84a.31.31,0,0,0-.32.31.3.3,0,0,0,.3.32.31.31,0,0,0,.32-.31A.31.31,0,0,0,351.26,110.84Z" transform="translate(72.96 -6.37)"/><path class="cls-120" d="M329.31,139a.42.42,0,0,0,0,.58.41.41,0,0,0,.59-.57A.42.42,0,0,0,329.31,139Z" transform="translate(72.96 -6.37)"/><path class="cls-120" d="M353.43,140a.42.42,0,0,0,0,.58A.41.41,0,0,0,354,140,.42.42,0,0,0,353.43,140Z" transform="translate(72.96 -6.37)"/><path class="cls-64" d="M338.69,92.14a1,1,0,1,0,1.42,0A1,1,0,0,0,338.69,92.14Z" transform="translate(72.96 -6.37)"/><path class="cls-122" d="M375.55,145.41s-3.13-27.95-18.15-37.69c-7.28-4.72-4.9-30.48-16.06-28.57-13.63,2.34-.91,30.4-13.89,33.7C317,115.51,307.69,144,307.69,144c-.47-32.51,33-78.86,33-78.86S375,105.62,375.55,145.41Z" transform="translate(72.96 -6.37)"/><path class="cls-123" d="M375.55,145.41l0,1.56c.12,8.67-15,15.91-33.78,16.18-17.59.25,3.4-21.35,9.74-26.39,11.86-9.42-24-21.16-9.36-34.41,8.85-8-5-14.95-1.5-37.25C340.71,65.21,375,105.62,375.55,145.41Z" transform="translate(72.96 -6.37)"/></g></g></g></svg>