<svg xmlns="http://www.w3.org/2000/svg" xmlns:xlink="http://www.w3.org/1999/xlink" viewBox="0 0 841.54 540.8"><defs><style>.cls-1{mask:url(#mask);}.cls-10,.cls-11,.cls-13,.cls-14,.cls-16,.cls-17,.cls-19,.cls-2,.cls-20,.cls-22,.cls-23,.cls-25,.cls-26,.cls-28,.cls-30,.cls-31,.cls-33,.cls-35,.cls-36,.cls-37,.cls-4,.cls-42,.cls-44,.cls-46,.cls-48,.cls-50,.cls-52,.cls-55,.cls-57,.cls-59,.cls-6,.cls-61,.cls-63,.cls-65,.cls-7,.cls-9{mix-blend-mode:multiply;}.cls-2{fill:url(#radial-gradient);}.cls-3{mask:url(#mask-2);}.cls-4{fill:url(#radial-gradient-2);}.cls-5{mask:url(#mask-3);}.cls-6{fill:url(#radial-gradient-3);}.cls-7{fill:url(#radial-gradient-4);}.cls-8{mask:url(#mask-5);}.cls-9{fill:url(#radial-gradient-5);}.cls-10{fill:url(#radial-gradient-6);}.cls-11{fill:url(#radial-gradient-7);}.cls-12{mask:url(#mask-8);}.cls-13{fill:url(#radial-gradient-8);}.cls-14{fill:url(#radial-gradient-9);}.cls-15{mask:url(#mask-10);}.cls-16{fill:url(#radial-gradient-10);}.cls-17{fill:url(#radial-gradient-11);}.cls-18{mask:url(#mask-12);}.cls-19{fill:url(#radial-gradient-12);}.cls-20{fill:url(#radial-gradient-13);}.cls-21{mask:url(#mask-14);}.cls-22{fill:url(#radial-gradient-14);}.cls-23{fill:url(#radial-gradient-15);}.cls-24{mask:url(#mask-16);}.cls-25{fill:url(#radial-gradient-16);}.cls-26{fill:url(#radial-gradient-17);}.cls-27{mask:url(#mask-18);}.cls-28{fill:url(#radial-gradient-18);}.cls-29{mask:url(#mask-19);}.cls-30{fill:url(#radial-gradient-19);}.cls-31{fill:url(#radial-gradient-20);}.cls-32{mask:url(#mask-21);}.cls-33{fill:url(#Áåçûìÿííûé_ãðàäèåíò_20);}.cls-34{mask:url(#mask-22);}.cls-35{fill:url(#Áåçûìÿííûé_ãðàäèåíò_20-2);}.cls-36{fill:url(#radial-gradient-21);}.cls-37{fill:url(#radial-gradient-22);}.cls-38{fill:none;}.cls-39{isolation:isolate;}.cls-40{clip-path:url(#clip-path);}.cls-41{mask:url(#mask-25);}.cls-121,.cls-42,.cls-44,.cls-46,.cls-48,.cls-50,.cls-52,.cls-55,.cls-57,.cls-59,.cls-61,.cls-63{opacity:0.8;}.cls-42{fill:url(#radial-gradient-23);}.cls-43{mask:url(#mask-27);}.cls-44{fill:url(#radial-gradient-24);}.cls-45{mask:url(#mask-29);}.cls-46{fill:url(#radial-gradient-25);}.cls-47{mask:url(#mask-31);}.cls-48{fill:url(#radial-gradient-26);}.cls-49{mask:url(#mask-33);}.cls-50{fill:url(#radial-gradient-27);}.cls-51{mask:url(#mask-35);}.cls-52{fill:url(#radial-gradient-28);}.cls-53{fill:#f1f2ff;}.cls-54{mask:url(#mask-37);}.cls-55{fill:url(#radial-gradient-29);}.cls-56{mask:url(#mask-39);}.cls-57{fill:url(#radial-gradient-30);}.cls-58{mask:url(#mask-41);}.cls-59{fill:url(#radial-gradient-31);}.cls-60{mask:url(#mask-43);}.cls-61{fill:url(#radial-gradient-32);}.cls-62{mask:url(#mask-45);}.cls-63{fill:url(#radial-gradient-33);}.cls-120,.cls-121,.cls-64{fill:#fff;}.cls-65{opacity:0.05;}.cls-66{fill:#001c23;}.cls-66,.cls-67{fill-rule:evenodd;}.cls-67{fill:#f9f9f9;}.cls-68{fill:#1a1918;}.cls-69{fill:#d33833;}.cls-70{fill:#ef3d3a;}.cls-71{fill:#231f20;}.cls-72{fill:#f0d6b7;}.cls-73{fill:#335061;}.cls-74{fill:#6d6b6d;}.cls-75{fill:#dcd9d8;}.cls-76{fill:#f7e4cd;}.cls-77{fill:#49728b;}.cls-78{stroke:#d33833;stroke-width:2px;}.cls-79{fill:#81b0c4;}.cls-80{fill:#1d1919;}.cls-81{fill:#326de6;}.cls-82{fill:url(#linear-gradient);}.cls-83{fill:#0078d4;}.cls-84{fill:url(#linear-gradient-2);}.cls-85{fill:url(#linear-gradient-3);}.cls-86{fill:#ea4335;}.cls-87{fill:#4285f4;}.cls-88{fill:#34a853;}.cls-89{fill:#fbbc05;}.cls-90{fill:#252f3e;}.cls-91{fill:#f90;}.cls-92{opacity:0.7;}.cls-93{fill:#d8dae6;}.cls-94{fill:#a3abd4;}.cls-95{fill:#e3e5f6;}.cls-96{fill:url(#Áåçûìÿííûé_ãðàäèåíò_37);}.cls-97{fill:url(#Áåçûìÿííûé_ãðàäèåíò_37-2);}.cls-98{fill:#ff5a74;}.cls-99{fill:url(#Áåçûìÿííûé_ãðàäèåíò_42);}.cls-100{fill:url(#Áåçûìÿííûé_ãðàäèåíò_31);}.cls-101{fill:url(#Áåçûìÿííûé_ãðàäèåíò_37-3);}.cls-102{fill:url(#Áåçûìÿííûé_ãðàäèåíò_42-2);}.cls-103{fill:url(#Áåçûìÿííûé_ãðàäèåíò_31-2);}.cls-104{fill:url(#Áåçûìÿííûé_ãðàäèåíò_37-4);}.cls-105{fill:url(#Áåçûìÿííûé_ãðàäèåíò_37-5);}.cls-106{fill:url(#Áåçûìÿííûé_ãðàäèåíò_42-3);}.cls-107{fill:url(#Áåçûìÿííûé_ãðàäèåíò_42-4);}.cls-108{mask:url(#mask-47);}.cls-109,.cls-111{opacity:0.32;}.cls-109{fill:url(#Áåçûìÿííûé_ãðàäèåíò_29);}.cls-110{mask:url(#mask-48);}.cls-111{fill:url(#Áåçûìÿííûé_ãðàäèåíò_29-2);}.cls-112{fill:url(#Áåçûìÿííûé_ãðàäèåíò_37-6);}.cls-113{fill:url(#Áåçûìÿííûé_ãðàäèåíò_15);}.cls-114{fill:#5752d0;}.cls-115{fill:#3fff94;}.cls-116{fill:#01c0ff;}.cls-117{fill:#ff7c0d;}.cls-118{fill:#223361;}.cls-119,.cls-122,.cls-123{opacity:0.13;}.cls-119{fill:url(#Áåçûìÿííûé_ãðàäèåíò_15-2);}.cls-120{opacity:0.4;}.cls-122{fill:url(#Áåçûìÿííûé_ãðàäèåíò_15-3);}.cls-123{fill:url(#Áåçûìÿííûé_ãðàäèåíò_15-4);}.cls-124{filter:url(#luminosity-noclip-37);}.cls-125{filter:url(#luminosity-noclip-36);}.cls-126{filter:url(#luminosity-noclip-22);}.cls-127{filter:url(#luminosity-noclip-21);}.cls-128{filter:url(#luminosity-noclip-19);}.cls-129{filter:url(#luminosity-noclip-18);}.cls-130{filter:url(#luminosity-noclip-16);}.cls-131{filter:url(#luminosity-noclip-14);}.cls-132{filter:url(#luminosity-noclip-12);}.cls-133{filter:url(#luminosity-noclip-10);}.cls-134{filter:url(#luminosity-noclip-8);}.cls-135{filter:url(#luminosity-noclip-5);}.cls-136{filter:url(#luminosity-noclip-3);}.cls-137{filter:url(#luminosity-noclip-2);}.cls-138{filter:url(#luminosity-noclip);}</style><filter id="luminosity-noclip" x="36.5" y="-8467" width="125.58" height="32766" filterUnits="userSpaceOnUse" color-interpolation-filters="sRGB"><feFlood flood-color="#fff" result="bg"/><feBlend in="SourceGraphic" in2="bg"/></filter><mask id="mask" x="36.5" y="-8467" width="125.58" height="32766" maskUnits="userSpaceOnUse"><g class="cls-138"/></mask><radialGradient id="radial-gradient" cx="99.29" cy="407.46" r="62.79" gradientTransform="translate(0 14.75) scale(1 0.95)" gradientUnits="userSpaceOnUse"><stop offset="0" stop-color="#fff"/><stop offset="0.14" stop-color="#d0d0d0"/><stop offset="0.38" stop-color="#878787"/><stop offset="0.59" stop-color="#4d4d4d"/><stop offset="0.77" stop-color="#232323"/><stop offset="0.92" stop-color="#090909"/><stop offset="1"/></radialGradient><filter id="luminosity-noclip-2" x="260.93" y="-8467" width="111.41" height="32766" filterUnits="userSpaceOnUse" color-interpolation-filters="sRGB"><feFlood flood-color="#fff" result="bg"/><feBlend in="SourceGraphic" in2="bg"/></filter><mask id="mask-2" x="260.93" y="-8467" width="111.41" height="32766" maskUnits="userSpaceOnUse"><g class="cls-137"/></mask><radialGradient id="radial-gradient-2" cx="316.63" cy="434.43" r="55.7" gradientTransform="translate(0 14.75) scale(1 0.95)" gradientUnits="userSpaceOnUse"><stop offset="0" stop-color="#fff"/><stop offset="0.37" stop-color="#fdfdfd"/><stop offset="0.51" stop-color="#f6f6f6"/><stop offset="0.6" stop-color="#ebebeb"/><stop offset="0.68" stop-color="#dadada"/><stop offset="0.75" stop-color="#c4c4c4"/><stop offset="0.8" stop-color="#a8a8a8"/><stop offset="0.86" stop-color="#888"/><stop offset="0.91" stop-color="#626262"/><stop offset="0.95" stop-color="#373737"/><stop offset="0.99" stop-color="#090909"/><stop offset="1"/></radialGradient><filter id="luminosity-noclip-3" x="196.63" y="-8467" width="121.93" height="32766" filterUnits="userSpaceOnUse" color-interpolation-filters="sRGB"><feFlood flood-color="#fff" result="bg"/><feBlend in="SourceGraphic" in2="bg"/></filter><mask id="mask-3" x="196.63" y="-8467" width="121.93" height="32766" maskUnits="userSpaceOnUse"><g class="cls-136"/></mask><radialGradient id="radial-gradient-3" cx="257.6" cy="400.43" r="60.97" xlink:href="#radial-gradient"/><radialGradient id="radial-gradient-4" cx="257.6" cy="400.43" r="60.97" xlink:href="#radial-gradient-2"/><filter id="luminosity-noclip-5" x="309.38" y="-8467" width="170.15" height="32766" filterUnits="userSpaceOnUse" color-interpolation-filters="sRGB"><feFlood flood-color="#fff" result="bg"/><feBlend in="SourceGraphic" in2="bg"/></filter><mask id="mask-5" x="309.38" y="-8467" width="170.15" height="32766" maskUnits="userSpaceOnUse"><g class="cls-135"/></mask><radialGradient id="radial-gradient-5" cx="394.45" cy="430.54" r="85.08" xlink:href="#radial-gradient"/><radialGradient id="radial-gradient-6" cx="394.45" cy="430.54" r="85.08" xlink:href="#radial-gradient-2"/><radialGradient id="radial-gradient-7" cx="99.29" cy="407.46" r="62.79" xlink:href="#radial-gradient-2"/><filter id="luminosity-noclip-8" x="421.08" y="-8467" width="111.41" height="32766" filterUnits="userSpaceOnUse" color-interpolation-filters="sRGB"><feFlood flood-color="#fff" result="bg"/><feBlend in="SourceGraphic" in2="bg"/></filter><mask id="mask-8" x="421.08" y="-8467" width="111.41" height="32766" maskUnits="userSpaceOnUse"><g class="cls-134"/></mask><radialGradient id="radial-gradient-8" cx="476.78" cy="458.91" r="55.7" xlink:href="#radial-gradient"/><radialGradient id="radial-gradient-9" cx="476.78" cy="458.91" r="55.7" xlink:href="#radial-gradient-2"/><filter id="luminosity-noclip-10" x="71.3" y="-8467" width="112.57" height="32766" filterUnits="userSpaceOnUse" color-interpolation-filters="sRGB"><feFlood flood-color="#fff" result="bg"/><feBlend in="SourceGraphic" in2="bg"/></filter><mask id="mask-10" x="71.3" y="-8467" width="112.57" height="32766" maskUnits="userSpaceOnUse"><g class="cls-133"/></mask><radialGradient id="radial-gradient-10" cx="132.82" cy="490.56" r="55.67" gradientTransform="translate(-6.71) scale(1.01 1)" xlink:href="#radial-gradient"/><radialGradient id="radial-gradient-11" cx="132.82" cy="490.56" r="55.67" gradientTransform="translate(-6.71) scale(1.01 1)" xlink:href="#radial-gradient-2"/><filter id="luminosity-noclip-12" x="-0.33" y="-8467" width="132.35" height="32766" filterUnits="userSpaceOnUse" color-interpolation-filters="sRGB"><feFlood flood-color="#fff" result="bg"/><feBlend in="SourceGraphic" in2="bg"/></filter><mask id="mask-12" x="-0.33" y="-8467" width="132.35" height="32766" maskUnits="userSpaceOnUse"><g class="cls-132"/></mask><radialGradient id="radial-gradient-12" cx="71.76" cy="423.48" r="65.45" gradientTransform="translate(-6.71) scale(1.01 1)" xlink:href="#radial-gradient"/><radialGradient id="radial-gradient-13" cx="71.76" cy="423.48" r="65.45" gradientTransform="translate(-6.71) scale(1.01 1)" xlink:href="#radial-gradient-2"/><filter id="luminosity-noclip-14" x="347.85" y="-8467" width="144.17" height="32766" filterUnits="userSpaceOnUse" color-interpolation-filters="sRGB"><feFlood flood-color="#fff" result="bg"/><feBlend in="SourceGraphic" in2="bg"/></filter><mask id="mask-14" x="347.85" y="-8467" width="144.17" height="32766" maskUnits="userSpaceOnUse"><g class="cls-131"/></mask><radialGradient id="radial-gradient-14" cx="421.97" cy="459.89" r="71.3" gradientTransform="translate(-6.71) scale(1.01 1)" xlink:href="#radial-gradient"/><radialGradient id="radial-gradient-15" cx="421.97" cy="459.89" r="71.3" gradientTransform="translate(-6.71) scale(1.01 1)" xlink:href="#radial-gradient-2"/><filter id="luminosity-noclip-16" x="456.25" y="-8467" width="112.57" height="32766" filterUnits="userSpaceOnUse" color-interpolation-filters="sRGB"><feFlood flood-color="#fff" result="bg"/><feBlend in="SourceGraphic" in2="bg"/></filter><mask id="mask-16" x="456.25" y="-8467" width="112.57" height="32766" maskUnits="userSpaceOnUse"><g class="cls-130"/></mask><radialGradient id="radial-gradient-16" cx="513.55" cy="455.89" r="55.67" gradientTransform="translate(-6.71) scale(1.01 1)" xlink:href="#radial-gradient"/><radialGradient id="radial-gradient-17" cx="513.55" cy="455.89" r="55.67" gradientTransform="translate(-6.71) scale(1.01 1)" xlink:href="#radial-gradient-2"/><filter id="luminosity-noclip-18" x="105.38" y="-8467" width="145.93" height="32766" filterUnits="userSpaceOnUse" color-interpolation-filters="sRGB"><feFlood flood-color="#fff" result="bg"/><feBlend in="SourceGraphic" in2="bg"/></filter><mask id="mask-18" x="105.38" y="-8467" width="145.93" height="32766" maskUnits="userSpaceOnUse"><g class="cls-129"/></mask><radialGradient id="radial-gradient-18" cx="178.34" cy="380.96" r="72.97" xlink:href="#radial-gradient"/><filter id="luminosity-noclip-19" x="513.35" y="-8467" width="112.57" height="32766" filterUnits="userSpaceOnUse" color-interpolation-filters="sRGB"><feFlood flood-color="#fff" result="bg"/><feBlend in="SourceGraphic" in2="bg"/></filter><mask id="mask-19" x="513.35" y="-8467" width="112.57" height="32766" maskUnits="userSpaceOnUse"><g class="cls-128"/></mask><radialGradient id="radial-gradient-19" cx="570.03" cy="403.69" r="55.67" gradientTransform="translate(-6.71) scale(1.01 1)" xlink:href="#radial-gradient"/><radialGradient id="radial-gradient-20" cx="570.03" cy="403.69" r="55.67" gradientTransform="translate(-6.71) scale(1.01 1)" xlink:href="#radial-gradient-2"/><filter id="luminosity-noclip-21" x="247.57" y="-8467" width="19.94" height="32766" filterUnits="userSpaceOnUse" color-interpolation-filters="sRGB"><feFlood flood-color="#fff" result="bg"/><feBlend in="SourceGraphic" in2="bg"/></filter><mask id="mask-21" x="247.57" y="-8467" width="19.94" height="32766" maskUnits="userSpaceOnUse"><g class="cls-127"/></mask><linearGradient id="Áåçûìÿííûé_ãðàäèåíò_20" x1="254.38" y1="226.29" x2="262.89" y2="233.15" gradientTransform="translate(-1.38 -0.56) rotate(-0.81)" gradientUnits="userSpaceOnUse"><stop offset="0" stop-color="#fff"/><stop offset="0.94"/></linearGradient><filter id="luminosity-noclip-22" x="219.46" y="-8467" width="9.19" height="32766" filterUnits="userSpaceOnUse" color-interpolation-filters="sRGB"><feFlood flood-color="#fff" result="bg"/><feBlend in="SourceGraphic" in2="bg"/></filter><mask id="mask-22" x="219.46" y="-8467" width="9.19" height="32766" maskUnits="userSpaceOnUse"><g class="cls-126"/></mask><linearGradient id="Áåçûìÿííûé_ãðàäèåíò_20-2" x1="215.82" y1="210.93" x2="225.17" y2="218.45" xlink:href="#Áåçûìÿííûé_ãðàäèåíò_20"/><radialGradient id="radial-gradient-21" cx="178.34" cy="380.96" r="72.97" xlink:href="#radial-gradient-2"/><radialGradient id="radial-gradient-22" cx="316.63" cy="434.43" r="55.7" xlink:href="#radial-gradient"/><clipPath id="clip-path" transform="translate(161.37 -6.37)"><rect class="cls-38" width="497.29" height="549.18"/></clipPath><mask id="mask-25" x="197.86" y="336.6" width="125.58" height="119.59" maskUnits="userSpaceOnUse"><g transform="translate(161.37 -6.37)"><g class="cls-1"><path class="cls-2" d="M162.08,402.77c0,33-28.11,59.79-62.79,59.79S36.5,435.79,36.5,402.77,64.61,343,99.29,343,162.08,369.74,162.08,402.77Z"/></g></g></mask><filter id="luminosity-noclip-25" x="36.5" y="342.97" width="125.58" height="119.59" filterUnits="userSpaceOnUse" color-interpolation-filters="sRGB"><feFlood flood-color="#fff" result="bg"/><feBlend in="SourceGraphic" in2="bg"/></filter><radialGradient id="radial-gradient-23" cx="99.29" cy="407.46" r="62.79" gradientTransform="translate(0 14.75) scale(1 0.95)" gradientUnits="userSpaceOnUse"><stop offset="0" stop-color="#053e4f"/><stop offset="0.37" stop-color="#073f50"/><stop offset="0.51" stop-color="#0e4555"/><stop offset="0.6" stop-color="#194e5d"/><stop offset="0.68" stop-color="#2a5b69"/><stop offset="0.75" stop-color="#406c79"/><stop offset="0.81" stop-color="#5c818c"/><stop offset="0.86" stop-color="#7c9aa3"/><stop offset="0.91" stop-color="#a2b7bd"/><stop offset="0.96" stop-color="#ccd8db"/><stop offset="1" stop-color="#fafbfb"/><stop offset="1" stop-color="#fff"/></radialGradient><mask id="mask-27" x="266.74" y="301.68" width="145.93" height="138.97" maskUnits="userSpaceOnUse"><g transform="translate(161.37 -6.37)"><g class="cls-27"><path class="cls-28" d="M251.31,377.53c0,38.38-32.67,69.49-73,69.49s-73-31.11-73-69.49,32.66-69.48,73-69.48S251.31,339.16,251.31,377.53Z"/></g></g></mask><filter id="luminosity-noclip-26" x="105.38" y="308.05" width="145.93" height="138.97" filterUnits="userSpaceOnUse" color-interpolation-filters="sRGB"><feFlood flood-color="#fff" result="bg"/><feBlend in="SourceGraphic" in2="bg"/></filter><radialGradient id="radial-gradient-24" cx="178.34" cy="380.96" r="72.97" xlink:href="#radial-gradient-23"/><mask id="mask-29" x="422.29" y="369.03" width="111.41" height="106.09" maskUnits="userSpaceOnUse"><g transform="translate(161.37 -6.37)"><g class="cls-3"><path class="cls-37" d="M372.34,428.45c0,29.29-24.94,53-55.71,53s-55.7-23.75-55.7-53,24.94-53.05,55.7-53.05S372.34,399.15,372.34,428.45Z"/></g></g></mask><filter id="luminosity-noclip-27" x="260.93" y="375.4" width="111.41" height="106.09" filterUnits="userSpaceOnUse" color-interpolation-filters="sRGB"><feFlood flood-color="#fff" result="bg"/><feBlend in="SourceGraphic" in2="bg"/></filter><radialGradient id="radial-gradient-25" cx="316.63" cy="434.43" r="55.7" xlink:href="#radial-gradient-23"/><mask id="mask-31" x="358" y="331.64" width="121.93" height="116.11" maskUnits="userSpaceOnUse"><g transform="translate(161.37 -6.37)"><g class="cls-5"><path class="cls-6" d="M318.57,396.07c0,32.06-27.3,58.05-61,58.05s-61-26-61-58.05,27.3-58.06,61-58.06S318.57,364,318.57,396.07Z"/></g></g></mask><filter id="luminosity-noclip-28" x="196.63" y="338.01" width="121.93" height="116.11" filterUnits="userSpaceOnUse" color-interpolation-filters="sRGB"><feFlood flood-color="#fff" result="bg"/><feBlend in="SourceGraphic" in2="bg"/></filter><radialGradient id="radial-gradient-26" cx="257.6" cy="400.43" r="60.97" xlink:href="#radial-gradient-23"/><mask id="mask-33" x="470.74" y="337.35" width="170.15" height="162.03" maskUnits="userSpaceOnUse"><g transform="translate(161.37 -6.37)"><g class="cls-8"><path class="cls-9" d="M479.53,424.74c0,44.74-38.09,81-85.08,81s-85.07-36.27-85.07-81,38.09-81,85.07-81S479.53,380,479.53,424.74Z"/></g></g></mask><filter id="luminosity-noclip-29" x="309.38" y="343.72" width="170.15" height="162.03" filterUnits="userSpaceOnUse" color-interpolation-filters="sRGB"><feFlood flood-color="#fff" result="bg"/><feBlend in="SourceGraphic" in2="bg"/></filter><radialGradient id="radial-gradient-27" cx="394.45" cy="430.54" r="85.08" xlink:href="#radial-gradient-23"/><mask id="mask-35" x="582.45" y="392.34" width="111.41" height="106.09" maskUnits="userSpaceOnUse"><g transform="translate(161.37 -6.37)"><g class="cls-12"><path class="cls-13" d="M532.49,451.76c0,29.29-24.94,53-55.71,53s-55.7-23.75-55.7-53,24.94-53.05,55.7-53.05S532.49,422.46,532.49,451.76Z"/></g></g></mask><filter id="luminosity-noclip-30" x="421.08" y="398.71" width="111.41" height="106.09" filterUnits="userSpaceOnUse" color-interpolation-filters="sRGB"><feFlood flood-color="#fff" result="bg"/><feBlend in="SourceGraphic" in2="bg"/></filter><radialGradient id="radial-gradient-28" cx="476.78" cy="458.91" r="55.7" xlink:href="#radial-gradient-23"/><mask id="mask-37" x="232.67" y="428.53" width="112.57" height="111.33" maskUnits="userSpaceOnUse"><g transform="translate(161.37 -6.37)"><g class="cls-15"><path class="cls-16" d="M183.87,490.57c0,30.74-25.2,55.66-56.29,55.66S71.3,521.31,71.3,490.57s25.2-55.67,56.28-55.67S183.87,459.82,183.87,490.57Z"/></g></g></mask><filter id="luminosity-noclip-31" x="71.3" y="434.9" width="112.57" height="111.33" filterUnits="userSpaceOnUse" color-interpolation-filters="sRGB"><feFlood flood-color="#fff" result="bg"/><feBlend in="SourceGraphic" in2="bg"/></filter><radialGradient id="radial-gradient-29" cx="132.82" cy="490.56" r="55.67" gradientTransform="translate(-6.71) scale(1.01 1)" xlink:href="#radial-gradient-23"/><mask id="mask-39" x="161.03" y="351.66" width="132.35" height="130.9" maskUnits="userSpaceOnUse"><g transform="translate(161.37 -6.37)"><g class="cls-18"><path class="cls-19" d="M132,423.48c0,36.15-29.63,65.45-66.18,65.45S-.33,459.63-.33,423.48,29.3,358,65.84,358,132,387.34,132,423.48Z"/></g></g></mask><filter id="luminosity-noclip-32" x="-0.33" y="358.03" width="132.35" height="130.9" filterUnits="userSpaceOnUse" color-interpolation-filters="sRGB"><feFlood flood-color="#fff" result="bg"/><feBlend in="SourceGraphic" in2="bg"/></filter><radialGradient id="radial-gradient-30" cx="71.76" cy="423.48" r="65.45" gradientTransform="translate(-6.71) scale(1.01 1)" xlink:href="#radial-gradient-23"/><mask id="mask-41" x="509.21" y="382.22" width="144.17" height="142.59" maskUnits="userSpaceOnUse"><g transform="translate(161.37 -6.37)"><g class="cls-21"><path class="cls-22" d="M492,459.89c0,39.37-32.27,71.29-72.08,71.29s-72.09-31.92-72.09-71.29,32.27-71.3,72.09-71.3S492,420.51,492,459.89Z"/></g></g></mask><filter id="luminosity-noclip-33" x="347.85" y="388.59" width="144.17" height="142.59" filterUnits="userSpaceOnUse" color-interpolation-filters="sRGB"><feFlood flood-color="#fff" result="bg"/><feBlend in="SourceGraphic" in2="bg"/></filter><radialGradient id="radial-gradient-31" cx="421.97" cy="459.89" r="71.3" gradientTransform="translate(-6.71) scale(1.01 1)" xlink:href="#radial-gradient-23"/><mask id="mask-43" x="617.61" y="393.85" width="112.57" height="111.33" maskUnits="userSpaceOnUse"><g transform="translate(161.37 -6.37)"><g class="cls-24"><path class="cls-25" d="M568.81,455.89c0,30.74-25.2,55.67-56.28,55.67s-56.28-24.93-56.28-55.67,25.2-55.66,56.28-55.66S568.81,425.15,568.81,455.89Z"/></g></g></mask><filter id="luminosity-noclip-34" x="456.25" y="400.23" width="112.57" height="111.33" filterUnits="userSpaceOnUse" color-interpolation-filters="sRGB"><feFlood flood-color="#fff" result="bg"/><feBlend in="SourceGraphic" in2="bg"/></filter><radialGradient id="radial-gradient-32" cx="513.55" cy="455.89" r="55.67" gradientTransform="translate(-6.71) scale(1.01 1)" xlink:href="#radial-gradient-23"/><mask id="mask-45" x="674.72" y="341.66" width="112.57" height="111.33" maskUnits="userSpaceOnUse"><g transform="translate(161.37 -6.37)"><g class="cls-29"><path class="cls-30" d="M625.92,403.69c0,30.75-25.2,55.67-56.29,55.67s-56.28-24.92-56.28-55.67S538.55,348,569.63,348,625.92,373,625.92,403.69Z"/></g></g></mask><filter id="luminosity-noclip-35" x="513.35" y="348.03" width="112.57" height="111.33" filterUnits="userSpaceOnUse" color-interpolation-filters="sRGB"><feFlood flood-color="#fff" result="bg"/><feBlend in="SourceGraphic" in2="bg"/></filter><radialGradient id="radial-gradient-33" cx="570.03" cy="403.69" r="55.67" gradientTransform="translate(-6.71) scale(1.01 1)" xlink:href="#radial-gradient-23"/><linearGradient id="linear-gradient" x1="-974.75" y1="-96.53" x2="-974.79" y2="-96.36" gradientTransform="translate(157066.17 23450.2) scale(161.1 241.22)" gradientUnits="userSpaceOnUse"><stop offset="0" stop-color="#114a8b"/><stop offset="1" stop-color="#0669bc"/></linearGradient><linearGradient id="linear-gradient-2" x1="-976.51" y1="-96.45" x2="-976.52" y2="-96.45" gradientTransform="translate(219456.47 23449.95) scale(224.69 241.21)" gradientUnits="userSpaceOnUse"><stop offset="0" stop-opacity="0.3"/><stop offset="0.07" stop-opacity="0.2"/><stop offset="0.32" stop-opacity="0.1"/><stop offset="0.62" stop-opacity="0.05"/><stop offset="1" stop-opacity="0"/></linearGradient><linearGradient id="linear-gradient-3" x1="-975.52" y1="-96.54" x2="-975.48" y2="-96.37" gradientTransform="translate(165647.49 23450.19) scale(169.75 241.22)" gradientUnits="userSpaceOnUse"><stop offset="0" stop-color="#3ccbf4"/><stop offset="1" stop-color="#2892df"/></linearGradient><linearGradient id="Áåçûìÿííûé_ãðàäèåíò_37" x1="279.08" y1="209.92" x2="293.09" y2="209.92" gradientTransform="translate(-1.38 -0.56) rotate(-0.81)" gradientUnits="userSpaceOnUse"><stop offset="0" stop-color="#ff6279"/><stop offset="1" stop-color="#ffad60"/></linearGradient><linearGradient id="Áåçûìÿííûé_ãðàäèåíò_37-2" x1="211.07" y1="209.92" x2="225.08" y2="209.92" xlink:href="#Áåçûìÿííûé_ãðàäèåíò_37"/><linearGradient id="Áåçûìÿííûé_ãðàäèåíò_42" x1="278.09" y1="244.22" x2="302.48" y2="244.22" gradientTransform="translate(-1.38 -0.56) rotate(-0.81)" gradientUnits="userSpaceOnUse"><stop offset="0" stop-color="#f0f0fb"/><stop offset="1" stop-color="#d2d7f6"/></linearGradient><linearGradient id="Áåçûìÿííûé_ãðàäèåíò_31" x1="273.62" y1="249.49" x2="299.87" y2="249.49" gradientTransform="translate(159.99 -6.94) rotate(-0.81)" gradientUnits="userSpaceOnUse"><stop offset="0" stop-color="#c8d6f9"/><stop offset="1" stop-color="#bac1e8"/></linearGradient><linearGradient id="Áåçûìÿííûé_ãðàäèåíò_37-3" x1="299.23" y1="261.99" x2="303.83" y2="265.47" xlink:href="#Áåçûìÿííûé_ãðàäèåíò_37"/><linearGradient id="Áåçûìÿííûé_ãðàäèåíò_42-2" x1="201.68" y1="244.22" x2="226.08" y2="244.22" xlink:href="#Áåçûìÿííûé_ãðàäèåíò_42"/><linearGradient id="Áåçûìÿííûé_ãðàäèåíò_31-2" x1="204.3" y1="249.49" x2="230.55" y2="249.49" xlink:href="#Áåçûìÿííûé_ãðàäèåíò_31"/><linearGradient id="Áåçûìÿííûé_ãðàäèåíò_37-4" x1="198.85" y1="257.47" x2="198.85" y2="281.11" xlink:href="#Áåçûìÿííûé_ãðàäèåíò_37"/><linearGradient id="Áåçûìÿííûé_ãðàäèåíò_37-5" x1="229.43" y1="263.96" x2="274.99" y2="263.96" xlink:href="#Áåçûìÿííûé_ãðàäèåíò_37"/><linearGradient id="Áåçûìÿííûé_ãðàäèåíò_42-3" x1="218.08" y1="242.02" x2="286.09" y2="242.02" xlink:href="#Áåçûìÿííûé_ãðàäèåíò_42"/><linearGradient id="Áåçûìÿííûé_ãðàäèåíò_42-4" x1="218.08" y1="181.99" x2="286.09" y2="181.99" xlink:href="#Áåçûìÿííûé_ãðàäèåíò_42"/><filter id="luminosity-noclip-36" x="247.57" y="204.54" width="19.94" height="35.54" filterUnits="userSpaceOnUse" color-interpolation-filters="sRGB"><feFlood flood-color="#fff" result="bg"/><feBlend in="SourceGraphic" in2="bg"/></filter><mask id="mask-47" x="408.93" y="198.17" width="19.94" height="35.54" maskUnits="userSpaceOnUse"><g class="cls-125"><g transform="translate(161.37 -6.37)"><g class="cls-32"><path class="cls-33" d="M257.71,204.54s-10.21,6.69-10.14,11.33l.17,12.17c.1,7,4.65,12.13,11.06,12,3.81-.05,8.76-5.94,8.7-9.75l-.16-11.83C267.21,210,257.72,204.56,257.71,204.54Z"/></g></g></g></mask><linearGradient id="Áåçûìÿííûé_ãðàäèåíò_29" x1="254.38" y1="226.29" x2="262.89" y2="233.15" gradientTransform="translate(-1.38 -0.56) rotate(-0.81)" gradientUnits="userSpaceOnUse"><stop offset="0" stop-color="#8390ac"/><stop offset="0.94" stop-color="#8390ac"/></linearGradient><filter id="luminosity-noclip-37" x="219.46" y="191.85" width="9.19" height="34.49" filterUnits="userSpaceOnUse" color-interpolation-filters="sRGB"><feFlood flood-color="#fff" result="bg"/><feBlend in="SourceGraphic" in2="bg"/></filter><mask id="mask-48" x="380.82" y="185.48" width="9.19" height="34.49" maskUnits="userSpaceOnUse"><g class="cls-124"><g transform="translate(161.37 -6.37)"><g class="cls-34"><path class="cls-35" d="M219.46,191.85l.49,34.47s8.86.81,8.7-10.78l-.1-6.57C228.48,203.56,223.23,194.16,219.46,191.85Z"/></g></g></g></mask><linearGradient id="Áåçûìÿííûé_ãðàäèåíò_29-2" x1="215.82" y1="210.93" x2="225.17" y2="218.45" xlink:href="#Áåçûìÿííûé_ãðàäèåíò_29"/><linearGradient id="Áåçûìÿííûé_ãðàäèåíò_37-6" x1="245.08" y1="219.49" x2="259.09" y2="219.49" xlink:href="#Áåçûìÿííûé_ãðàäèåíò_37"/><linearGradient id="Áåçûìÿííûé_ãðàäèåíò_15" x1="218.08" y1="169.12" x2="286.09" y2="169.12" gradientTransform="translate(-1.38 -0.56) rotate(-0.81)" gradientUnits="userSpaceOnUse"><stop offset="0" stop-color="#5752d0"/><stop offset="1" stop-color="#7f7cf9"/></linearGradient><linearGradient id="Áåçûìÿííûé_ãðàäèåíò_15-2" x1="221.59" y1="118.29" x2="289.42" y2="118.29" xlink:href="#Áåçûìÿííûé_ãðàäèåíò_15"/><linearGradient id="Áåçûìÿííûé_ãðàäèåíò_15-3" x1="221.59" y1="109.66" x2="289.42" y2="109.66" xlink:href="#Áåçûìÿííûé_ãðàäèåíò_15"/><linearGradient id="Áåçûìÿííûé_ãðàäèåíò_15-4" x1="247.4" y1="118.29" x2="288.22" y2="118.29" xlink:href="#Áåçûìÿííûé_ãðàäèåíò_15"/></defs><g class="cls-39"><g id="Layer_1" data-name="Layer 1"><g class="cls-40"><g class="cls-41"><g class="cls-41"><path class="cls-42" d="M162.08,402.77c0,33-28.11,59.79-62.79,59.79S36.5,435.79,36.5,402.77,64.61,343,99.29,343,162.08,369.74,162.08,402.77Z" transform="translate(161.37 -6.37)"/></g></g><g class="cls-43"><g class="cls-43"><path class="cls-44" d="M251.31,377.53c0,38.38-32.67,69.49-73,69.49s-73-31.11-73-69.49,32.66-69.48,73-69.48S251.31,339.16,251.31,377.53Z" transform="translate(161.37 -6.37)"/></g></g><g class="cls-45"><g class="cls-45"><path class="cls-46" d="M372.34,428.45c0,29.29-24.94,53-55.71,53s-55.7-23.75-55.7-53,24.94-53.05,55.7-53.05S372.34,399.15,372.34,428.45Z" transform="translate(161.37 -6.37)"/></g></g><g class="cls-47"><g class="cls-47"><path class="cls-48" d="M318.57,396.07c0,32.06-27.3,58.05-61,58.05s-61-26-61-58.05,27.3-58.06,61-58.06S318.57,364,318.57,396.07Z" transform="translate(161.37 -6.37)"/></g></g><g class="cls-49"><g class="cls-49"><path class="cls-50" d="M479.53,424.74c0,44.74-38.09,81-85.08,81s-85.07-36.27-85.07-81,38.09-81,85.07-81S479.53,380,479.53,424.74Z" transform="translate(161.37 -6.37)"/></g></g><g class="cls-51"><g class="cls-51"><path class="cls-52" d="M532.49,451.76c0,29.29-24.94,53-55.71,53s-55.7-23.75-55.7-53,24.94-53.05,55.7-53.05S532.49,422.46,532.49,451.76Z" transform="translate(161.37 -6.37)"/></g></g><path class="cls-53" d="M658,509.2c.12-1.26.19-2.53.19-3.82,0-22.6-19.23-40.92-43-40.92A45.12,45.12,0,0,0,604,465.87c0-.36,0-.72,0-1.08,0-28.2-24-51.05-53.61-51.05a54.39,54.39,0,0,0-43.27,20.93,44,44,0,0,0-29.47-11.15,44.7,44.7,0,0,0-15,2.55c-1.23-31.67-28.56-57-62.12-57-26.89,0-49.79,16.25-58.46,39a39.09,39.09,0,0,0-27.94-11.53,39.93,39.93,0,0,0-11.5,1.68c.08-.95.13-1.91.13-2.88,0-18.72-15.93-33.89-35.58-33.89a36.49,36.49,0,0,0-23.83,8.73c-6.16-21.72-27-37.71-51.74-37.71A55.38,55.38,0,0,0,167.57,338l-.45.21c-16,7.89-27.35,23.29-28.83,41.31a63.53,63.53,0,0,0-33-9.18c-1.62,0-3.23.08-4.82.2l.12.07c-31.45,2.24-56.24,27.22-56.24,57.74A55.22,55.22,0,0,0,46.58,444l-.88-.1a46.81,46.81,0,0,0-5.46-.33c-18,0-33.61,10.11-40.8,24.7A43.33,43.33,0,0,0-34.71,452c-18.54,0-34.3,11.26-40.19,27a36.45,36.45,0,0,0-25.24-10c-19.71,0-35.68,15.21-35.68,34,0,12.66,7.28,23.69,18.06,29.54l-10.06,4.72-2.71,5.71,733.06,1.51a45.09,45.09,0,0,0,25.19,0l29.46.06,6.25-17.34V510.62Z" transform="translate(161.37 -6.37)"/><g class="cls-54"><g class="cls-54"><path class="cls-55" d="M183.87,490.57c0,30.74-25.2,55.66-56.29,55.66S71.3,521.31,71.3,490.57s25.2-55.67,56.28-55.67S183.87,459.82,183.87,490.57Z" transform="translate(161.37 -6.37)"/></g></g><g class="cls-56"><g class="cls-56"><path class="cls-57" d="M132,423.48c0,36.15-29.63,65.45-66.18,65.45S-.33,459.63-.33,423.48,29.3,358,65.84,358,132,387.34,132,423.48Z" transform="translate(161.37 -6.37)"/></g></g><g class="cls-58"><g class="cls-58"><path class="cls-59" d="M492,459.89c0,39.37-32.27,71.29-72.08,71.29s-72.09-31.92-72.09-71.29,32.27-71.3,72.09-71.3S492,420.51,492,459.89Z" transform="translate(161.37 -6.37)"/></g></g><g class="cls-60"><g class="cls-60"><path class="cls-61" d="M568.81,455.89c0,30.74-25.2,55.67-56.28,55.67s-56.28-24.93-56.28-55.67,25.2-55.66,56.28-55.66S568.81,425.15,568.81,455.89Z" transform="translate(161.37 -6.37)"/></g></g><g class="cls-62"><g class="cls-62"><path class="cls-63" d="M625.92,403.69c0,30.75-25.2,55.67-56.29,55.67s-56.28-24.92-56.28-55.67S538.55,348,569.63,348,625.92,373,625.92,403.69Z" transform="translate(161.37 -6.37)"/></g></g><path class="cls-64" d="M678.75,405.42c-10.35-27.31-37.68-46.81-69.77-46.81-40,0-72.66,30.37-74.13,68.37A53.35,53.35,0,0,0,517,423.92a52.33,52.33,0,0,0-35.17,13.39,64.82,64.82,0,0,0-51.64-25.12c-35.33,0-64,27.43-64,61.26,0,.43,0,.86,0,1.3a53.3,53.3,0,0,0-13.34-1.69,51.87,51.87,0,0,0-42.59,21.74,44,44,0,0,0-55.95,3.6c-7-18.87-25.84-32.38-48-32.38a51.58,51.58,0,0,0-40.74,19.53C157.1,468,138.52,455.91,117,455.91a57,57,0,0,0-7.56.52,66.81,66.81,0,0,0,2.71-18.8c0-38.38-32.49-69.5-72.58-69.5A74.46,74.46,0,0,0,0,379.38c-2.4-31.74-30-56.78-63.79-56.78-29.54,0-54.4,19.19-61.75,45.25A43.41,43.41,0,0,0-154,357.38a44.72,44.72,0,0,0-7.38.63V547.17H680.18V404C679.69,404.49,679.21,405,678.75,405.42Z" transform="translate(161.37 -6.37)"/><g class="cls-65"><path class="cls-66" d="M481.11,189.54a23.19,23.19,0,0,0-26.95-25.32,214.59,214.59,0,0,0-69.32-99A28.65,28.65,0,0,0,335.89,36a214.13,214.13,0,0,0-145.75-7.62,34.49,34.49,0,1,0-61.72,30.8c-3.16,2.28-6.29,4.65-9.35,7.13a211,211,0,0,0-66.73,94.21c-.87-.17-1.74-.31-2.63-.41A28.34,28.34,0,0,0,40.78,216,212.38,212.38,0,0,0,386.11,396.68a211,211,0,0,0,77.7-142.8,214.78,214.78,0,0,0,.1-44.34A23.21,23.21,0,0,0,481.11,189.54Zm-23.5,63.69c-12,113-113.7,195.27-226.74,183.28C120.12,424.78,39,326.91,47,216.64a28.34,28.34,0,0,0,11.34-54.19,206.39,206.39,0,0,1,73.52-97.93,34.49,34.49,0,0,0,60.52-30.19,206.22,206.22,0,0,1,140.31,7.18,28.66,28.66,0,0,0,48.84,29.17,207.55,207.55,0,0,1,66.59,95.45,23.2,23.2,0,0,0,7.49,44c.7.07,1.4.11,2.09.12A206.85,206.85,0,0,1,457.61,253.23Z" transform="translate(161.37 -6.37)"/><path class="cls-66" d="M401.23,213.25A149.47,149.47,0,1,0,126,308.58a21,21,0,0,0,27.1,32q2.71,2.41,5.55,4.71a149.52,149.52,0,0,0,193.78-4.95,23.15,23.15,0,1,0,29.26-35.86A148.36,148.36,0,0,0,401.23,213.25Zm-6.19.66a142.46,142.46,0,0,1-18.84,87.37,23.15,23.15,0,0,0-28,34.3,143,143,0,0,1-190.83.37,21,21,0,0,0-26.15-30.88,142.3,142.3,0,0,1-21.09-61C101.83,165.56,159,94.89,237.5,86.56S386.71,135.37,395,213.91Z" transform="translate(161.37 -6.37)"/></g><path class="cls-67" d="M476.4,187.05a23.2,23.2,0,0,0-27-25.32,214.5,214.5,0,0,0-69.31-99,28.65,28.65,0,0,0-48.95-29.2A214.13,214.13,0,0,0,185.43,25.9a34.49,34.49,0,1,0-61.72,30.8q-4.75,3.42-9.35,7.13A211,211,0,0,0,47.62,158c-.86-.17-1.73-.31-2.63-.41a28.34,28.34,0,0,0-8.93,55.9A212.39,212.39,0,0,0,381.4,394.19a211,211,0,0,0,77.69-142.8,214.09,214.09,0,0,0,.1-44.34A23.21,23.21,0,0,0,476.4,187.05Zm-23.5,63.69C440.92,363.78,339.2,446,226.15,434,115.4,422.29,34.25,324.42,42.27,214.15A28.34,28.34,0,0,0,53.61,160,206.39,206.39,0,0,1,127.13,62a34.49,34.49,0,0,0,60.51-30.19A206.25,206.25,0,0,1,328,39a28.65,28.65,0,0,0,48.83,29.17,207.57,207.57,0,0,1,66.6,95.45,23.2,23.2,0,0,0,7.49,44c.7.07,1.4.11,2.09.12A206.85,206.85,0,0,1,452.9,250.74Z" transform="translate(161.37 -6.37)"/><path class="cls-67" d="M396.52,215.74a149.47,149.47,0,1,0-275.25,95.33,21,21,0,0,0,27.1,32c1.81,1.61,3.65,3.18,5.55,4.71a149.52,149.52,0,0,0,193.78-4.95A23.15,23.15,0,1,0,377,306.93,148.29,148.29,0,0,0,396.52,215.74Zm-6.19.66a142.59,142.59,0,0,1-18.84,87.37,23.14,23.14,0,0,0-28,34.3,143,143,0,0,1-190.83.37,21,21,0,0,0-19.49-32.74,21.1,21.1,0,0,0-6.66,1.86,142.3,142.3,0,0,1-21.09-61c-8.33-78.54,48.8-149.21,127.34-157.54S382,137.86,390.33,216.4Z" transform="translate(161.37 -6.37)"/><path class="cls-68" d="M384.73,324.62a20.79,20.79,0,1,1-20.79-20.78,20.79,20.79,0,0,1,20.79,20.78" transform="translate(161.37 -6.37)"/><path class="cls-64" d="M364.3,316.52l5.37,13.28-8.12-6.4Zm9.54,16.34L365.59,313a1.34,1.34,0,0,0-1.29-.88A1.4,1.4,0,0,0,363,313l-9.07,21.83H357l3.6-9,10.72,8.66a1.71,1.71,0,0,0,1.14.51,1.47,1.47,0,0,0,1.51-1.48,1.88,1.88,0,0,0-.15-.61Z" transform="translate(161.37 -6.37)"/><path class="cls-69" d="M177.76,41.49a22.81,22.81,0,0,1-23.29,22.32C142,63.4,132.27,52.74,132.68,40S143.51,17.28,156,17.69s22.2,11.06,21.79,23.8" transform="translate(161.37 -6.37)"/><path class="cls-70" d="M133.41,45.75s-.85-24.09,21.33-24l-1.45-2.63-12.16,3.64-3.55,3.82-3.19,5.66-1.92,6.63.36,4.49" transform="translate(161.37 -6.37)"/><path class="cls-71" d="M140.3,24.51a22.65,22.65,0,0,0-6.9,15.61h0a22.64,22.64,0,0,0,5.88,16h0a21.45,21.45,0,0,0,15.21,7h0a21.5,21.5,0,0,0,15.65-6h0a22.62,22.62,0,0,0,6.9-15.6h0a22.61,22.61,0,0,0-5.88-16h0a21.58,21.58,0,0,0-15.21-7h0a21.57,21.57,0,0,0-15.65,6Zm-2.06,32.57a23.92,23.92,0,0,1-6.25-17h0a24,24,0,0,1,7.34-16.58h0A23,23,0,0,1,156,17.06h0a22.94,22.94,0,0,1,16.21,7.5h0a23.92,23.92,0,0,1,6.25,17h0a24,24,0,0,1-7.34,16.57h0a22.93,22.93,0,0,1-16.66,6.43h0a22.84,22.84,0,0,1-16.21-7.5Z" transform="translate(161.37 -6.37)"/><path class="cls-72" d="M164.71,41.19l-3.46.4L156.6,42l-3,0-2.93-.19L148.45,41l-1.91-2.2-1.4-4.43-.32-1-2-.76-1.12-2-.77-2.87,1-2.46,2.26-.71,1.77.92.8,1.91,1.05-.13.36-.43-.28-2V22.36l.62-3.43,0-1.95,1.64-2.45L153,12.64l4.87-1.9,5.3,1,4.53,3.5,2,3.48,1.3,2.54.15,6.18-1.22,5.3-2,4.67L166,39.84" transform="translate(161.37 -6.37)"/><path class="cls-73" d="M161.31,55.94,149,56.05,149,58.11l.81,7.25-.53.59-8.48-3.21-.57-1.07-.55-9.74L137.81,46l-.4-1.39,7-4.5,2.17-.79,1.81,2.38L150,43.25l1.86.66.86.29.9,4.5.75,1,2-.63-1.46,2.63,7.35,3.76-1,.5" transform="translate(161.37 -6.37)"/><path class="cls-74" d="M141.93,25.32l2.26-.72,1.77.92.8,1.92,1.05-.13.29-1-.45-2,.67-4.72L148,17l1.6-1.75L153,12.67l-.91-1.31-4.81,2.17-2,1.48-1.19,2.36-1.78,2.27-.6,2.74.25,2.94" transform="translate(161.37 -6.37)"/><path class="cls-75" d="M145.71,17.35s1.39-3.14,6.59-4.52.29-1.11.29-1.11l-5.64,2-2.22,2.07-1,1.67,2-.1" transform="translate(161.37 -6.37)"/><path class="cls-75" d="M142.88,24.74s-1.6-6.06,5.3-6.7L148,17l-4.76,1-1.52,4.43.25,2.94.95-.58" transform="translate(161.37 -6.37)"/><path class="cls-76" d="M145.37,32.82l1.17-1.06a.73.73,0,0,1,.59.68c.07.61.15,6,3.74,9.05.34.29-2.74-.52-2.74-.52l-2.6-4.38" transform="translate(161.37 -6.37)"/><path class="cls-76" d="M161.24,31.71s.29-2.6,1-2.38a1,1,0,0,1,.69.94s-1.76,1-1.68,1.44" transform="translate(161.37 -6.37)"/><path class="cls-76" d="M168.68,22.41s-1.42.25-1.59,1.49,1.53.3,1.79.22" transform="translate(161.37 -6.37)"/><path class="cls-76" d="M158.28,22.16s-1.89.2-1.93,1.39,2.11,1.19,2.73.69" transform="translate(161.37 -6.37)"/><path class="cls-76" d="M146.43,27.35s-3.2-2.08-3.59-.2-1.22,3.22.35,5.25L142.08,32l-1-2.69-.26-2.6,2-2,2.23.24,1.25,1.09.05,1.28" transform="translate(161.37 -6.37)"/><path class="cls-76" d="M148.15,22s1.69-7.52,9.12-8.73c6.1-1,9.26.56,10.43,2,0,0-5.22-6.61-10.41-4.81s-9.12,5.28-9.11,7.59c0,4,0,4,0,4" transform="translate(161.37 -6.37)"/><path class="cls-76" d="M168.28,16.1s-2.49-.17-2.66,2.06a1.82,1.82,0,0,0,.15.71s2-2.18,3.22-.95" transform="translate(161.37 -6.37)"/><path class="cls-76" d="M157.27,18.83s-.33-3.44-3.3-1.54c-1.93,1.22-1.81,3-1.49,3.4s.22,1,.49.58.25-2,1.22-2.41,2.52-.86,3.08,0" transform="translate(161.37 -6.37)"/><path class="cls-77" d="M148.46,41.76l-8.2,3.33s2.92,13.42,1.06,17.5l-1.17-.48.07-5.08-1.92-9.65-.87-2.69,8.6-5.41,2.43,2.48" transform="translate(161.37 -6.37)"/><path class="cls-77" d="M149,49.16l1.11,1.43L150,55.74l-1.35-.05s0-3.59,0-4,.23-2,.23-2" transform="translate(161.37 -6.37)"/><path class="cls-77" d="M148.84,56.49l-3.87,0,1.09.82,2.74.53" transform="translate(161.37 -6.37)"/><path class="cls-73" d="M162.08,56.06h3.19L165.8,64l-3.27.33-.45-8.26" transform="translate(161.37 -6.37)"/><path class="cls-73" d="M162.94,56.08l4.81-.1s2.14-4.92,2.15-5.17,1.94-7.17,1.94-7.17l-3.74-4.15-.76-.73-2.12,2-.26,8-2,7.34" transform="translate(161.37 -6.37)"/><path class="cls-77" d="M165.11,55.55l-3,.51.36,2.41c1.1.55,3-.76,3-.76" transform="translate(161.37 -6.37)"/><path class="cls-77" d="M165.69,40.53l5.86,4.66.23-2-4.41-4.35-1.68,1.73" transform="translate(161.37 -6.37)"/><path class="cls-64" d="M151.29,72.64l-1.54-7.28L149,60l0-4,8.08-.17,5,.16-.75,9,.56,7-.13,1.28-6.54.3-3.93-1" transform="translate(161.37 -6.37)"/><path class="cls-75" d="M161,55.93s-.73,8.91.36,15.31a16.29,16.29,0,0,1-6.41,1.84l7.23,0,.88-.48-.59-14.11-.17-3" transform="translate(161.37 -6.37)"/><path class="cls-64" d="M165.94,63.32l3.38-.85,6.35-.12,1.05-2.9-1.54-5.13-2-.32-2.78.77L167.77,56l-1.38-.31-1.12.41" transform="translate(161.37 -6.37)"/><path class="cls-75" d="M165.94,61.59a12.43,12.43,0,0,1,2.61-.87l-.8-4.76,1.13-.4s.65,4.5.63,5c0,0,4.79.41,5.23.43a7.77,7.77,0,0,0,.92-4l.87,2.78,0,1.54-1.44,2-1.55.3L171,63.44l-.82-1.14-3,.34-1,.32" transform="translate(161.37 -6.37)"/><path class="cls-64" d="M162.76,55.38,161,50.54l-1.88-2.91s.47-1.17,1.08-1.15l2,.06,1.86.76-.27,3.18-1,4.9" transform="translate(161.37 -6.37)"/><path class="cls-75" d="M163.18,53.76s-2.25-4.71-2.22-5.41c0,0,.47-1,1.07-.75s1.85,1,1.85,1l.05-1.63-2.91-.7-2,.19,3.09,8.05.69.11" transform="translate(161.37 -6.37)"/><path class="cls-64" d="M153.05,42.1l-2.37-.34L148.46,41l0,.79L149.5,43l3.39,1.65" transform="translate(161.37 -6.37)"/><path class="cls-75" d="M149.21,42.23s2.62,1.2,3.49,1l.06,1-2.38-.59L149,42.57l.25-.34" transform="translate(161.37 -6.37)"/><path class="cls-69" d="M166.47,47a15.92,15.92,0,0,1-3.91-.67c.09-.48,0-.94.1-1.27a3.13,3.13,0,0,1,1.35-.25,2.37,2.37,0,0,0-1.48-.21,2.68,2.68,0,0,0-.23-.8c.83-.26,2.82-2.11,3.88-1.45.52.33.68,2,.69,2.91a3,3,0,0,1-.4,1.74" transform="translate(161.37 -6.37)"/><path class="cls-78" d="M166.47,47a15.92,15.92,0,0,1-3.91-.67c.09-.48,0-.94.1-1.27a3.13,3.13,0,0,1,1.35-.25,2.37,2.37,0,0,0-1.48-.21,2.68,2.68,0,0,0-.23-.8c.83-.26,2.82-2.11,3.88-1.45.52.33.68,2,.69,2.91a3,3,0,0,1-.4,1.74Z" transform="translate(161.37 -6.37)"/><path class="cls-69" d="M159.58,44.35a1.66,1.66,0,0,1,0,.32c-.47.28-1.18.26-1.7.5a4.65,4.65,0,0,1,1.8.52c0,.27,0,.56-.07.84-.86.54-1.64,1.36-2.64,1.87a6.55,6.55,0,0,1-2.61.71c-.28-.08-.3-.43-.4-.77a10.53,10.53,0,0,1-.75-2.9c0-1.32-.09-3.56,1.34-3.26a13,13,0,0,1,3.36,1.34,3.67,3.67,0,0,0,1.7.83" transform="translate(161.37 -6.37)"/><path class="cls-78" d="M159.58,44.35a1.66,1.66,0,0,1,0,.32c-.47.28-1.18.26-1.7.5a4.65,4.65,0,0,1,1.8.52c0,.27,0,.56-.07.84-.86.54-1.64,1.36-2.64,1.87a6.55,6.55,0,0,1-2.61.71c-.28-.08-.3-.43-.4-.77a10.53,10.53,0,0,1-.75-2.9c0-1.32-.09-3.56,1.34-3.26a13,13,0,0,1,3.36,1.34,3.67,3.67,0,0,0,1.7.83Z" transform="translate(161.37 -6.37)"/><path class="cls-69" d="M160.35,46a5,5,0,0,1-.16-1.57c2-1.22,2.21,2.29.16,1.57" transform="translate(161.37 -6.37)"/><path class="cls-78" d="M160.35,46a5,5,0,0,1-.16-1.57c2-1.22,2.21,2.29.16,1.57Z" transform="translate(161.37 -6.37)"/><path class="cls-70" d="M163.14,46.63s-.58-.89-.13-1.13.86,0,1.13-.4,0-.7.13-1.19.54-.59,1-.66,1.64-.21,1.79.22l-.46-1.56-1-.38-3.32,1.78-.2.95L162,46.15" transform="translate(161.37 -6.37)"/><path class="cls-70" d="M154,49.17l-.2-4c-.11-2,.53-1.64,2.27-1.58a4.48,4.48,0,0,1,1.71.57c.45,1-.81.73.5,1.48,1.1.64,3.11-.26,2.7-1.63-.25-.32-1.3-.14-1.68-.35l-2-1.11c-.85-.47-2.79-1.19-3.71-.6-2.35,1.48,0,5.5.74,7.16" transform="translate(161.37 -6.37)"/><path class="cls-71" d="M157.27,18.83c-2.32-.63-3.55.87-4.29,2.43-.64-.17-.36-1-.18-1.46.46-1.14,2.2-2.62,3.58-2.36.59.09,1.36.65.89,1.39" transform="translate(161.37 -6.37)"/><path class="cls-71" d="M168.6,21.86h.11a27,27,0,0,0,1.55,3.3c-.5,1-3.46,1.85-3.36,0,.65-.26,1.72,0,2.3-.35a6.47,6.47,0,0,1-.6-2.95" transform="translate(161.37 -6.37)"/><path class="cls-71" d="M158.38,21.56a10.23,10.23,0,0,0,1.29,2.63c.32.32.93.73.59,1.58a2,2,0,0,1-.94.72c-1.13.29-3.71,0-2.8-1.41.93.06,2.14.67,2.86,0-.48-.86-1.38-2.58-1-3.54" transform="translate(161.37 -6.37)"/><path class="cls-71" d="M167.88,31.22c-1.71,1-3.61,2.14-6.37,1.78a1.85,1.85,0,0,1-.16-2.41c.28.52.06,1.45.9,1.63,1.55.32,3.42-.87,4.55-1.23.74-1.15,0-1.6-.62-2.39C165,27,163.29,25,163.42,22.71c.54-.36.55.61.62.78a22.39,22.39,0,0,0,3.41,5c.3.34.79.69.83.91.15.61-.46,1.36-.4,1.78" transform="translate(161.37 -6.37)"/><path class="cls-71" d="M145.76,29.37c-.52-.33-.61-1.64-1.21-1.69-.9-.09-.79,1.68-.82,2.72a3.29,3.29,0,0,1-.18-3.14c-.5-.27-.74.25-1,.43.47-2.63,3.93-1.09,3.25,1.68" transform="translate(161.37 -6.37)"/><path class="cls-71" d="M168.89,32.36c-.84,1.46-2,3.07-4.29,3a5.12,5.12,0,0,1,.05-1.5c1.77-.13,2.9-1,4.24-1.55" transform="translate(161.37 -6.37)"/><path class="cls-71" d="M157.88,33c1.42.82,4.11,1,6.11,1a6.14,6.14,0,0,1,.06,1.5c-2.57,0-5.55-.71-6.17-2.51" transform="translate(161.37 -6.37)"/><path class="cls-71" d="M157.56,34.37c.94,2.58,4.41,2.4,7.35,2.43a1.48,1.48,0,0,1-.8.83,7.37,7.37,0,0,1-4.84-.17,6.77,6.77,0,0,1-1.75-2.08c-.19-.28-1.25-1,0-1" transform="translate(161.37 -6.37)"/><path class="cls-79" d="M167.18,48.72a50,50,0,0,1-3.91,5.78,29.11,29.11,0,0,0,1.16-6.82,2.18,2.18,0,0,1,2.75,1" transform="translate(161.37 -6.37)"/><path class="cls-71" d="M173.32,56.24c-1.33.23-2.3,1.48-3.6,1.35a4.21,4.21,0,0,1,3.6-1.35" transform="translate(161.37 -6.37)"/><path class="cls-71" d="M173.84,58.33a21.18,21.18,0,0,1-3.47.09c.56-.77,2.54-.42,3.47-.09" transform="translate(161.37 -6.37)"/><path class="cls-71" d="M174.16,60.15c-1.21,0-2.73-.08-3.88-.21.71-.73,3.11-.18,3.88.21" transform="translate(161.37 -6.37)"/><path class="cls-75" d="M164.37,64.75c.13,1.53.68,3.11.56,4.77a5.15,5.15,0,0,1-2,.36c0-1.41-.14-3.6,0-5,.42,0,1.09-.28,1.46-.16" transform="translate(161.37 -6.37)"/><path class="cls-72" d="M163.14,42.13c-.64.38-1.17.86-1.77,1.26a3.71,3.71,0,0,1-2.94-.93c0-.06.11,0,.12-.11,1.37.69,3.17-.14,4.59-.22" transform="translate(161.37 -6.37)"/><path class="cls-79" d="M155.52,51.4c.44-1.63,2-2.46,3.37-3.34a28.22,28.22,0,0,1,3,6.39,30.42,30.42,0,0,1-6.37-3.05" transform="translate(161.37 -6.37)"/><path class="cls-71" d="M162.89,64.91c-.09,1.35,0,3.52,0,5a5.07,5.07,0,0,0,2-.36c.13-1.67-.43-3.24-.56-4.77-.35-.12-1,.19-1.46.16Zm-13.78-8.16a70.23,70.23,0,0,0,2.56,15,19.55,19.55,0,0,0,10.82.55c-.48-2.75-.14-6.06-.37-9-.18-2.21,0-4.4-.26-6.65-3.71-.93-9.05-.49-12.75.08Zm13.66,0c-.11,2.34,0,4.68.07,7a21.23,21.23,0,0,0,2.36-.35c-.2-2.26-.08-4.82-.59-6.84a5.74,5.74,0,0,0-1.84.16Zm4.58-.24a6.58,6.58,0,0,0-1.32,0c.14,1.91.53,4,.63,6.06a5.5,5.5,0,0,0,1.51-.34c.08-1.76,0-4.2-.82-5.68ZM174.07,63A3,3,0,0,0,176,59.44a17.23,17.23,0,0,0-1.05-4c-.33-.54-1.26-1.27-2.06-.82-1.27.77-3.5.93-4.43,1.86a31.2,31.2,0,0,1,.61,5.56c1.55.14,3.5-.33,4.78.28a16.64,16.64,0,0,0-2.88.64,6.13,6.13,0,0,0,3.11.1Zm-12.21-8.56a27.23,27.23,0,0,0-3-6.39c-1.38.87-2.91,1.69-3.37,3.34a34.67,34.67,0,0,0,6.38,3Zm2.55-6.78a29.2,29.2,0,0,1-1.16,6.83,52.68,52.68,0,0,0,3.91-5.78,2.14,2.14,0,0,0-2.75-1.05Zm-2.61-1c-.53-.07-1,.59-1.68.28-.17.18-.32.36-.49.53,1.46,1.9,2.09,4.55,3.21,6.75a29,29,0,0,0,.93-6.61c-.88,0-1.35-.87-2-.95Zm-1.61-2.29a4.88,4.88,0,0,0,.16,1.57c2.05.72,1.82-2.79-.16-1.57Zm-2.29-.84a11.7,11.7,0,0,0-3.37-1.34c-1.42-.32-1.34,1.92-1.33,3.26a10.73,10.73,0,0,0,.75,2.9c.1.34.12.69.4.77a6.7,6.7,0,0,0,2.6-.71,25.89,25.89,0,0,0,2.65-1.87c0-.28,0-.57.07-.84a4.33,4.33,0,0,0-1.8-.52c.5-.24,1.23-.22,1.7-.5a1.84,1.84,0,0,1,0-.33,3.76,3.76,0,0,1-1.7-.82Zm-8.51-1.82c-.77.75,2,1.85,2.93,1.93,0-.48.31-.92.26-1.26-1.05-.21-2.47-.13-3.19-.67Zm9.17.65c0,.07-.09.05-.11.1a3.74,3.74,0,0,0,2.94.94c.6-.4,1.15-.89,1.77-1.26-1.44.06-3.24.89-4.6.22Zm8.31,2.82c0-.85-.17-2.58-.69-2.91-1.08-.67-3.07,1.19-3.88,1.46a2.61,2.61,0,0,1,.23.79,2.25,2.25,0,0,1,1.48.22,2.77,2.77,0,0,0-1.35.25c-.12.34,0,.8-.1,1.26a17.09,17.09,0,0,0,3.91.68,2.93,2.93,0,0,0,.4-1.75Zm-18.75-2.78c-.23-.17-1.74-2.27-2-2.19a33,33,0,0,0-8.08,4.67c2.12,5,2.86,11,2.83,16.75,2.57,1.3,4.8,3.15,8.33,3.45-.33-2.91-.61-5.53-.76-8.25-.88-.41-2.16-.05-3-.2,0-1,1.28-.4,1.41-1.08.09-.51-.7-.57-.41-1.35.65.26,1,.8,1.65,1,.69-1.36.12-3.83.25-5,0-.22.15-1.19.64-1s-.1,2.64-.1,3.72-.19,2,.21,2.63A98.44,98.44,0,0,1,159.75,55a26.85,26.85,0,0,1-2.8-1.36c-.58-.35-2.35-1.09-2.5-1.62-.24-.89.74-1.3.93-2-1.75.89-2-1-2.4-2.28a17.7,17.7,0,0,1-.59-2.77,43.78,43.78,0,0,1-4.27-2.55Zm17.38-1.32c2.42-1.08,2.68,4.4,1.67,6.12.13.54.62.76.81,1.22-1.4,2.34-2.95,4.51-4.39,6.81,1-.61,2.46,0,3.65-.47.45-.15.79-1.14,1.15-1.92a42.28,42.28,0,0,0,2.5-7,8.49,8.49,0,0,0,.35-1.91c-.08-.77-1.09-1.36-1.59-1.83-.94-.91-1.51-1.66-2.51-2.52-.42.59-1.29,1-1.64,1.45ZM143.43,19.24c-1.18,1.21-1,3.54-.94,5.23,2.09-1.21,4.76.27,4.67,2.45,1,0,.41-1.2.25-2-.51-2.55,1.16-5.23.32-7.57a6.07,6.07,0,0,0-4.3,1.88Zm8.35-7c-2.59.65-5.95,2.41-7.07,4.68.83-.1,1.4-.48,2.2-.51a5.3,5.3,0,0,0,1.07.07c.7-.16,1.34-1.7,1.89-2.27s1.16-.79,1.58-1.27c.28-.12.68-.1.71-.51a.39.39,0,0,0-.38-.19Zm13.34,1.11c-2.63-1.59-7.1-2.87-10-1.54-2.32,1.08-5.48,2.87-6.6,5.22.91,2.34-.44,4.41-.61,6.75-.07,1.24.51,2.35.52,3.7-.36.56-1.37.58-2.09.52-.2-1.2-.57-2.57-1.8-2.75a2.86,2.86,0,0,0-3.2,2.66c-.15,1.78,1.2,4.77,3.3,4.64.81-.05,1-.85,1.9-.82.44,1-.78,1.21-.93,1.88a4.63,4.63,0,0,0,.15,1.18,16.3,16.3,0,0,0,1.88,4.81c1,1.54,3.06,1.82,5.27,2,.43-.85,1.87-.73,2.82-.47a9.51,9.51,0,0,1-3-2.61c-1-1.16-1.94-2.36-2-3.81,1.82,2.7,3.33,5.06,6.73,6.33,2.59,1,5.7-.22,7.76-1.57a9.06,9.06,0,0,0,2-2.3,20.25,20.25,0,0,0,3.44-12.07c0-1.81,0-3.63-.56-4.88s-2.73-2.52-4-1.39c-.2-1.26,1.13-2,2.62-1.48-1-1.42-2.1-3.11-3.63-4Zm3.65,41.28c2.12-1,6.06-2.59,7.27.24a20.85,20.85,0,0,1,1.16,3.87c.3,1.49-.54,4.64-2.09,5.08a9.13,9.13,0,0,1-4.58,0A2.8,2.8,0,0,1,170,63a6.28,6.28,0,0,0-3.21.44c.07.88-.52,1-1.1,1.14-.45,1.6.71,3.75.37,5.2-.24,1.06-1.53,1.16-2.49,1.32a7.83,7.83,0,0,0,.06,1.56A2.32,2.32,0,0,1,161.46,74c-3.05.26-7.66.28-10.53-.88-.76-2-1.31-4.46-1.91-6.76-2.85.22-5.11-1.37-7.24-2.47-.74-.37-1.76-.61-2-1.22a10.24,10.24,0,0,1-.14-2.74,41.63,41.63,0,0,0-.77-8c-.27-1.24-.81-2.34-1.13-3.54a24.87,24.87,0,0,1-1-3.58c-.19-1.62,1.33-1.66,2.33-2.34,1.54-1,2.75-1.6,4.41-2.54a9.84,9.84,0,0,0,2.15-1.28c.35-.67-.51-1.63-.73-2.17a6.46,6.46,0,0,1-.57-2.39,4.66,4.66,0,0,1-3-2,7.46,7.46,0,0,1-.65-6.5c.08-.16.44-.49.5-.75A8,8,0,0,0,141,23c0-2.79.64-5.17,2.54-5.93.87-3,3.63-3.92,6.23-5.36a17.29,17.29,0,0,1,3.15-1.22c4-1.3,10-.85,13.14,1.71a17.83,17.83,0,0,1,4.2,5c1.95,4.27,1.56,11.3-.05,16.38a16.49,16.49,0,0,1-1,2.5c-.29.58-1.19,1.69-1.11,2.2s1.9,2,2.29,2.39c.69.72,2,1.66,2.1,2.54a8.69,8.69,0,0,1-.78,3.08,86.44,86.44,0,0,1-2.93,8.34Z" transform="translate(161.37 -6.37)"/><path class="cls-76" d="M155.53,33.54c.11-.15.75-.36,1.59.09,0,0-1.05.13-1,1.85l-.44-.1s-.37-1.56-.14-1.84" transform="translate(161.37 -6.37)"/><path class="cls-80" d="M162.58,48.53a.48.48,0,0,1-.49.46.47.47,0,0,1-.46-.49.48.48,0,0,1,1,0" transform="translate(161.37 -6.37)"/><path class="cls-80" d="M163,50.75a.49.49,0,0,1-.49.46.5.5,0,0,1-.47-.49.49.49,0,0,1,.5-.46.48.48,0,0,1,.46.49" transform="translate(161.37 -6.37)"/><path class="cls-81" d="M345.67,74.85a4.05,4.05,0,0,1-3.2-1.54l-12-14.94a4,4,0,0,1-.79-3.49L334,36.19a4.12,4.12,0,0,1,2.22-2.78l17.4-8.33a4,4,0,0,1,1.79-.41,4.15,4.15,0,0,1,1.79.41l17.39,8.28a4,4,0,0,1,2.23,2.79l4.28,18.67a4.13,4.13,0,0,1-.79,3.49l-12,14.94A4.18,4.18,0,0,1,365,74.79l-19.37.06Z" transform="translate(161.37 -6.37)"/><path class="cls-64" d="M355.32,25.54a3.4,3.4,0,0,1,1.42.31l17.39,8.28a3.29,3.29,0,0,1,1.79,2.23L380.21,55a3.17,3.17,0,0,1-.65,2.81l-12,14.94A3.29,3.29,0,0,1,365,74H345.67a3.27,3.27,0,0,1-2.58-1.23l-12-14.94a3.41,3.41,0,0,1-.64-2.81l4.28-18.66a3.28,3.28,0,0,1,1.79-2.23l17.4-8.32a4.12,4.12,0,0,1,1.43-.27Zm0-1.62h0a5,5,0,0,0-2.12.48l-17.39,8.32a4.87,4.87,0,0,0-2.69,3.33l-4.28,18.66a4.81,4.81,0,0,0,1,4.18l12,15a4.87,4.87,0,0,0,3.81,1.84h19.29a4.76,4.76,0,0,0,3.8-1.84l12-14.94a4.8,4.8,0,0,0,1-4.18l-4.29-18.66a4.86,4.86,0,0,0-2.68-3.33l-17.31-8.32a5,5,0,0,0-2.11-.5Z" transform="translate(161.37 -6.37)"/><path class="cls-64" d="M372.74,53.55h0s-.06,0-.06,0-.15,0-.21,0a3.93,3.93,0,0,0-.65-.06,1.17,1.17,0,0,1-.35,0h0a9,9,0,0,1-1.85-.31.66.66,0,0,1-.38-.38s0,0,0-.06h0l-.44-.15a13,13,0,0,0-.25-4.84,14.87,14.87,0,0,0-1.91-4.5l.35-.31v-.06a.81.81,0,0,1,.17-.52,10,10,0,0,1,1.54-1.06h0c.1-.07.21-.11.31-.17a3.89,3.89,0,0,0,.58-.35s.11-.07.17-.15.06,0,.06-.06h0A1.16,1.16,0,0,0,370,38.9a.94.94,0,0,0-.79-.38,1.32,1.32,0,0,0-.75.27h0l-.06.07c-.06,0-.1.1-.17.14a4.65,4.65,0,0,0-.43.48c-.07.06-.15.17-.25.25h0A7.84,7.84,0,0,1,366.12,41a.6.6,0,0,1-.31.1.41.41,0,0,1-.21,0h-.06l-.42.27A15.85,15.85,0,0,0,363.71,40a13.62,13.62,0,0,0-7.18-2.85l0-.44-.06-.06a.64.64,0,0,1-.27-.44,12.44,12.44,0,0,1,.1-1.85v0a2.14,2.14,0,0,1,.06-.35c0-.21.07-.42.11-.65V33h0a1.11,1.11,0,0,0-1.06-1.14,1.1,1.1,0,0,0-.75.35,1.09,1.09,0,0,0-.32.79h0v.29a2.21,2.21,0,0,0,.11.65,1.48,1.48,0,0,1,.06.35v0a10.3,10.3,0,0,1,.11,1.85.65.65,0,0,1-.28.44l-.06.06h0l0,.44a16.83,16.83,0,0,0-1.85.27,13.16,13.16,0,0,0-6.8,3.85l-.36-.25h-.06c-.06,0-.15,0-.21,0a.63.63,0,0,1-.31-.1,9.2,9.2,0,0,1-1.37-1.27h0c-.07-.06-.15-.17-.25-.25s-.27-.31-.44-.48a.94.94,0,0,1-.17-.15s-.06,0-.06-.06h0a1.21,1.21,0,0,0-.75-.27,1,1,0,0,0-.79.38,1.12,1.12,0,0,0,.25,1.54h0s0,0,.06,0,.11.1.17.14a4.57,4.57,0,0,0,.58.36,1.82,1.82,0,0,1,.31.16h0a9.08,9.08,0,0,1,1.54,1.06.66.66,0,0,1,.17.52v.07h0l.35.31c-.06.1-.14.16-.16.27a13.28,13.28,0,0,0-1.92,9.07l-.43.15s-.05,0-.05.06a.7.7,0,0,1-.37.37,9,9,0,0,1-1.85.32h0a1.11,1.11,0,0,0-.36,0c-.21,0-.41,0-.64.06-.06,0-.15,0-.21,0a.11.11,0,0,0-.1,0h0a1.14,1.14,0,0,0-.9,1.27,1.05,1.05,0,0,0,1.1.79.61.61,0,0,0,.27,0h0c.05,0,.07,0,.07,0s.14,0,.2,0a3,3,0,0,0,.63-.25l.31-.15h0a9,9,0,0,1,1.79-.52h.06a.72.72,0,0,1,.44.17s0,0,.06,0h0l.48-.06a13.88,13.88,0,0,0,4.5,6.47,14.63,14.63,0,0,0,1.47,1l-.2.43c0,.05,0,.05,0,.07a.68.68,0,0,1,.06.54,10.22,10.22,0,0,1-.89,1.62v0c-.07.11-.15.17-.21.27a6.58,6.58,0,0,0-.38.54s-.06.11-.1.17a.07.07,0,0,1,0,.06h0a1.1,1.1,0,0,0,.43,1.48,1.07,1.07,0,0,0,.42.1,1.25,1.25,0,0,0,1-.64h0a.07.07,0,0,1,0-.06c0-.07.06-.15.11-.17a6.2,6.2,0,0,0,.2-.62c.05-.11.07-.21.11-.32h0a8.63,8.63,0,0,1,.73-1.72,1,1,0,0,1,.43-.32s0,0,.07,0h0l.25-.43a13.49,13.49,0,0,0,4.8.89,12.18,12.18,0,0,0,3-.35,17.56,17.56,0,0,0,1.79-.52l.21.37s0,0,.06,0a.62.62,0,0,1,.43.32,11.4,11.4,0,0,1,.73,1.72v0l.11.32a3.24,3.24,0,0,0,.21.62l.1.17a.07.07,0,0,0,0,.06h0a1.15,1.15,0,0,0,1,.64,1.07,1.07,0,0,0,.42-.1,1.13,1.13,0,0,0,.52-.62,1.22,1.22,0,0,0-.07-.86h0s0,0,0-.06-.06-.15-.1-.17a3.48,3.48,0,0,0-.38-.54c-.06-.1-.14-.16-.2-.27v0a7.41,7.41,0,0,1-.9-1.62.93.93,0,0,1,0-.54s.05,0,.05-.07h0l-.17-.41a13.14,13.14,0,0,0,4.53-4.43,12.13,12.13,0,0,0,1.44-3.1l.42.06s0,0,.06,0a.9.9,0,0,1,.44-.17h.06a7.63,7.63,0,0,1,1.79.52h0l.31.15a6.36,6.36,0,0,0,.63.25c.06,0,.14,0,.2,0a.12.12,0,0,1,.11,0h0a.61.61,0,0,0,.27,0,1.16,1.16,0,0,0,1.1-.79,1.48,1.48,0,0,0-1.06-1.12Zm-15.9-1.69-1.52.73-1.51-.73-.38-1.62,1-1.31h1.69l1,1.31-.36,1.62Zm9-3.58a11.11,11.11,0,0,1,.25,3.48l-5.26-1.52a1,1,0,0,1-.65-1.1.89.89,0,0,1,.21-.38L364.52,45a12.26,12.26,0,0,1,1.29,3.26ZM362.86,43l-4.52,3.2a.92.92,0,0,1-1.21-.21.68.68,0,0,1-.16-.37l-.31-5.6a10.49,10.49,0,0,1,6.2,3Zm-10-2.81c.37-.07.73-.15,1.1-.21l-.31,5.49a1,1,0,0,1-.94.9.78.78,0,0,1-.41-.11L347.75,43a10.51,10.51,0,0,1,5.14-2.81ZM346.11,45l4.1,3.64a.92.92,0,0,1,.1,1.27.62.62,0,0,1-.42.27l-5.32,1.54A11.08,11.08,0,0,1,346.11,45Zm-.92,9.32,5.47-.94a.92.92,0,0,1,1,.73.82.82,0,0,1,0,.54h0l-2.1,5.06a10.72,10.72,0,0,1-4.29-5.39Zm12.55,6.84a11.36,11.36,0,0,1-2.42.27,11.77,11.77,0,0,1-3.47-.54l2.7-4.91a.94.94,0,0,1,1.11-.25,1.89,1.89,0,0,1,.41.38h0l2.65,4.78-1,.27Zm6.7-4.78a11,11,0,0,1-3.31,3.33L359,54.55a.92.92,0,0,1,.47-1.07,1.33,1.33,0,0,1,.48-.1l5.5.94a6.83,6.83,0,0,1-1,2.08Z" transform="translate(161.37 -6.37)"/><path class="cls-82" d="M36.23,162.55h13L35.74,202.41a2.1,2.1,0,0,1-2,1.4H23.69A2.09,2.09,0,0,1,22,203a2,2,0,0,1-.28-1.86L34.28,164a2,2,0,0,1,1.95-1.4Z" transform="translate(161.37 -6.37)"/><path class="cls-83" d="M55.06,189.29H34.52a1,1,0,0,0-.89.59,1,1,0,0,0,.24,1.05l13.21,12.31a2.06,2.06,0,0,0,1.42.57H60.13Z" transform="translate(161.37 -6.37)"/><path class="cls-84" d="M36.23,162.55a2.08,2.08,0,0,0-2,1.44l-12.5,37.06a2.05,2.05,0,0,0,.26,1.89,2.08,2.08,0,0,0,1.69.87H34.06a2.17,2.17,0,0,0,1.69-1.44l2.5-7.35,8.91,8.31a2.09,2.09,0,0,0,1.34.48H60.09L55,189.29H40.2l9.07-26.74Z" transform="translate(161.37 -6.37)"/><path class="cls-85" d="M52.79,164a2.07,2.07,0,0,0-1.95-1.4H36.39a2,2,0,0,1,1.94,1.4l12.54,37.14A2.08,2.08,0,0,1,50.6,203a2,2,0,0,1-1.68.86H63.36A2.11,2.11,0,0,0,65,203a2,2,0,0,0,.27-1.86Z" transform="translate(161.37 -6.37)"/><path class="cls-86" d="M141.86,316.7l3.34-3.34.22-1.41a15,15,0,0,0-21.21,1.32,15.45,15.45,0,0,0-3.25,6.08l1.2-.17,6.66-1.09.51-.53a8.35,8.35,0,0,1,11.39-.92Z" transform="translate(161.37 -6.37)"/><path class="cls-87" d="M149.93,319.26a15,15,0,0,0-4.52-7.3l-4.67,4.68a8.3,8.3,0,0,1,3,6.58v.83a4.14,4.14,0,1,1,0,8.28h-8.34l-.82.88v5l.82.78h8.34a10.77,10.77,0,0,0,6.14-19.72" transform="translate(161.37 -6.37)"/><path class="cls-88" d="M127.13,339h8.32v-6.66h-8.32a4.18,4.18,0,0,1-1.71-.38l-1.18.36-3.36,3.34-.3,1.14a10.77,10.77,0,0,0,6.55,2.2" transform="translate(161.37 -6.37)"/><path class="cls-89" d="M127.13,317.38a10.83,10.83,0,0,0-6.55,19.41l4.84-4.84a4.16,4.16,0,1,1,5.51-5.51l4.82-4.82a10.81,10.81,0,0,0-8.62-4.24" transform="translate(161.37 -6.37)"/><path class="cls-90" d="M446.05,183.58a4.37,4.37,0,0,0,.11,1.24,7.92,7.92,0,0,0,.42,1,.75.75,0,0,1,.09.33.58.58,0,0,1-.28.41l-.9.56a.63.63,0,0,1-.37.11.61.61,0,0,1-.41-.21,3.76,3.76,0,0,1-.48-.67,7.35,7.35,0,0,1-.41-.84,5.18,5.18,0,0,1-4.17,1.8,3.84,3.84,0,0,1-2.76-1.09,4,4,0,0,1,.41-5.56,5.12,5.12,0,0,1,3.46-1,11.5,11.5,0,0,1,1.48.16c.51.09,1,.22,1.59.36l0-1a3.13,3.13,0,0,0-.59-2.26,3.23,3.23,0,0,0-2.26-.71,6.05,6.05,0,0,0-1.51.13,11.58,11.58,0,0,0-1.53.43,5,5,0,0,1-.49.17l-.22,0c-.2,0-.29-.15-.28-.44l0-.69a.83.83,0,0,1,.11-.48,1,1,0,0,1,.4-.28,8.09,8.09,0,0,1,1.78-.58,8.24,8.24,0,0,1,2.19-.19,5.13,5.13,0,0,1,3.62,1.24,4.61,4.61,0,0,1,1.05,3.48l-.14,4.52Zm-5.74,1.94a4.47,4.47,0,0,0,1.45-.21,3.1,3.1,0,0,0,1.35-.85,2.29,2.29,0,0,0,.51-.88,5,5,0,0,0,.17-1.21l0-.59a11.54,11.54,0,0,0-1.28-.27,9.69,9.69,0,0,0-1.31-.13,3.26,3.26,0,0,0-2.1.49,2.31,2.31,0,0,0-.26,3.09A1.93,1.93,0,0,0,440.31,185.52Zm11.17,1.86a.76.76,0,0,1-.53-.15,1.12,1.12,0,0,1-.27-.56l-2.94-10.9a2.42,2.42,0,0,1-.11-.56c0-.23.12-.35.34-.34l1.37,0a.77.77,0,0,1,.54.16,1.16,1.16,0,0,1,.27.55l2.05,9.32,2.47-9.17a1,1,0,0,1,.29-.54.93.93,0,0,1,.56-.12l1.12,0a.86.86,0,0,1,.55.16,1,1,0,0,1,.25.55l1.91,9.43,2.71-9.28a1.27,1.27,0,0,1,.3-.54.9.9,0,0,1,.55-.12l1.3,0a.32.32,0,0,1,.34.36,2.07,2.07,0,0,1,0,.22,1.48,1.48,0,0,1-.11.35L460.69,187a1,1,0,0,1-.31.54.85.85,0,0,1-.53.12l-1.2,0a.82.82,0,0,1-.56-.15,1,1,0,0,1-.25-.57L456,177.82l-2.43,8.93a1.11,1.11,0,0,1-.28.55.91.91,0,0,1-.57.12Zm17.94,1a9,9,0,0,1-2.14-.32,6.37,6.37,0,0,1-1.59-.61,1,1,0,0,1-.42-.41.87.87,0,0,1-.07-.39l0-.71c0-.3.12-.43.33-.42a.53.53,0,0,1,.25.05l.35.15a8,8,0,0,0,1.52.53,7.88,7.88,0,0,0,1.66.22,3.75,3.75,0,0,0,2.05-.39,1.5,1.5,0,0,0,.77-1.31,1.36,1.36,0,0,0-.35-1,3.6,3.6,0,0,0-1.38-.77l-2-.69a4.2,4.2,0,0,1-2.19-1.5,3.28,3.28,0,0,1-.63-2,3.07,3.07,0,0,1,.42-1.54,3.7,3.7,0,0,1,1-1.12,4.46,4.46,0,0,1,1.48-.68,6.05,6.05,0,0,1,1.77-.18,5.75,5.75,0,0,1,.93.09c.32,0,.61.11.91.18s.54.16.78.25a2.66,2.66,0,0,1,.58.27,1.15,1.15,0,0,1,.41.36.73.73,0,0,1,.11.47l0,.65c0,.3-.12.45-.33.44a1.36,1.36,0,0,1-.53-.19,6.63,6.63,0,0,0-2.66-.63,3.62,3.62,0,0,0-1.88.34,1.35,1.35,0,0,0-.69,1.22,1.32,1.32,0,0,0,.39,1,4.07,4.07,0,0,0,1.51.82l2,.69a4.37,4.37,0,0,1,2.13,1.41,3.22,3.22,0,0,1,.58,2,3.52,3.52,0,0,1-1.48,2.81,4.55,4.55,0,0,1-1.57.73A7,7,0,0,1,469.42,188.33Z" transform="translate(161.37 -6.37)"/><path class="cls-91" d="M471.85,195.2c-4.71,3.25-11.44,4.84-17.18,4.66a30.78,30.78,0,0,1-20.53-8.58c-.42-.4,0-.92.5-.6a41.26,41.26,0,0,0,36.57,3.44C472,193.79,472.62,194.67,471.85,195.2Zm2-2.12c-.56-.77-3.87-.48-5.37-.35-.45,0-.51-.35-.1-.63,2.69-1.76,7-1.09,7.47-.46s-.29,4.94-2.82,6.93c-.38.31-.74.13-.56-.29C473.05,196.92,474.39,193.84,473.83,193.08Z" transform="translate(161.37 -6.37)"/><g class="cls-92"><path class="cls-93" d="M272.33,330.7a5.6,5.6,0,0,0,1.18-1.2,10,10,0,0,0,1.61-6.62c0-.43-.06-.87-.12-1.31,3.16,1.28,6,1.27,8.11.18a6.86,6.86,0,0,1-2.16,3.06Z" transform="translate(161.37 -6.37)"/><path class="cls-94" d="M275,269.15l-5.18,3.49c0-.34,0-.69,0-1.06-.37-6.9-5.62-15-11.75-18.14-3.1-1.58-5.83-1.57-7.72-.28l5.25-3.53,0,0,.08,0h0c1.89-1.19,4.55-1.16,7.57.38,6.12,3.12,11.37,11.24,11.74,18.14C275,268.45,275,268.81,275,269.15Z" transform="translate(161.37 -6.37)"/><path class="cls-94" d="M288.92,317.91l-5,3.33.16-.11a8.32,8.32,0,0,0,3-4.74,15.26,15.26,0,0,0,.4-4.62c-.27-5.17-2.61-10.87-6.06-15.61l5.18-3.48c3.45,4.73,6,10.42,6.06,15.61C292.83,315.7,289,317.89,288.92,317.91Z" transform="translate(161.37 -6.37)"/><path class="cls-94" d="M281.44,296.16a7.83,7.83,0,0,0,1.67-5.87,12.64,12.64,0,0,0-.17-1.59c-1-6-5.48-12.51-10.66-15.14a10.92,10.92,0,0,0-2.45-.92l5.18-3.49a11,11,0,0,1,2.46.92c5.64,2.87,10.49,10.37,10.83,16.73a7.91,7.91,0,0,1-1.68,5.88Z" transform="translate(161.37 -6.37)"/><path class="cls-95" d="M273.51,329.51c1.37-1.7,1.92-5,1.49-7.94,7.72,3.15,12.44-1.61,12.52-8.36.06-6.13-2.36-11.78-6.08-17,4.17-5.31,0-14.21-4.37-18.91a16.85,16.85,0,0,0-5.42-4c-.65-.55-1.8-.11-1.82-1,.1-12.43-15.94-26.5-21.33-17-1.19,2.87,9,13.49,9.06,14.13,1.06,9.6,3.45,34.37,1,45.75C255.27,330.08,266.85,337.88,273.51,329.51Z" transform="translate(161.37 -6.37)"/></g><g class="cls-92"><path class="cls-94" d="M238.88,330.76a6,6,0,0,1-1.24-1.13,10,10,0,0,1-2-6.52c0-.43,0-.87,0-1.32-3.09,1.46-5.89,1.62-8.09.65a7.12,7.12,0,0,0,.41.83,6.39,6.39,0,0,0,1.93,2.09Z" transform="translate(161.37 -6.37)"/><path class="cls-94" d="M232.68,269.46l5.38,3.19c0-.34-.05-.69-.05-1.06,0-6.91,4.75-15.32,10.69-18.78,3-1.76,5.73-1.91,7.69-.72L251,248.86l0,0-.07,0h0c-1.95-1.08-4.6-.9-7.53.81-5.93,3.46-10.72,11.87-10.69,18.78C232.64,268.77,232.66,269.12,232.68,269.46Z" transform="translate(161.37 -6.37)"/><path class="cls-94" d="M221.59,318.94l5.14,3-.17-.1a8.37,8.37,0,0,1-3.24-4.57,15.4,15.4,0,0,1-.67-4.58c0-5.19,2-11,5.16-15.93l-5.37-3.19c-3.17,4.93-5.36,10.75-5.16,15.93C217.56,317,221.56,318.92,221.59,318.94Z" transform="translate(161.37 -6.37)"/><path class="cls-94" d="M227.81,296.8a7.9,7.9,0,0,1-2-5.77,14.35,14.35,0,0,1,.08-1.59c.62-6,4.75-12.81,9.77-15.74a11.18,11.18,0,0,1,2.4-1.05l-5.38-3.19a11,11,0,0,0-2.39,1.06c-5.48,3.19-9.89,11-9.86,17.33a7.84,7.84,0,0,0,2,5.76Z" transform="translate(161.37 -6.37)"/><path class="cls-95" d="M259.71,306.78c0-9.14-.25-42.68-.35-48.8-.11-.64.35-1-1-3.84-5.93-9.2-21.13,5.76-20.33,18.16,0,.85-1.13.48-1.75,1.07a16.67,16.67,0,0,0-5.18,4.3c-4.1,4.95-7.75,14.07-3.29,19.13-3.4,5.47-5.5,11.25-5.1,17.36.48,6.74,5.46,11.22,13,7.63-.26,2.94.48,6.23,1.95,7.84C244.77,337.61,261,321.94,259.71,306.78Z" transform="translate(161.37 -6.37)"/></g><path class="cls-96" d="M287.49,190.06s-6.95,6.64-6.88,11.28l.17,12.17a7.05,7.05,0,0,0,7,7h.32a7,7,0,0,0,6.71-7.16l-.16-11.83C294.54,195.81,287.5,190.07,287.49,190.06Z" transform="translate(161.37 -6.37)"/><path class="cls-97" d="M219.48,191s-6.94,6.65-6.88,11.28l.17,12.18a7.05,7.05,0,0,0,7,7h.32a7,7,0,0,0,6.72-7.16l-.17-11.83C226.53,196.77,219.49,191,219.48,191Z" transform="translate(161.37 -6.37)"/><path class="cls-98" d="M305.28,250.8a.4.4,0,0,0-.26-.06H305a.58.58,0,0,0-.22.08h0c-.88.51-1.67,3-1.72,3.11l-.79,4.79-1.2,7.38-.94,5.69,3.17,2.95,3.59-16.93C306.51,253,305.92,251.15,305.28,250.8Z" transform="translate(161.37 -6.37)"/><path class="cls-99" d="M304.7,250.83h0l-19.34-30.58-5.45,3.27,22.29,35.23.78-4.8c.05-.15.84-2.6,1.72-3.11h0Z" transform="translate(161.37 -6.37)"/><polygon class="cls-100" points="437.12 238.52 462.36 259.74 463.57 252.37 441.29 217.14 437.12 238.52"/><path class="cls-101" d="M310.73,247.53a.55.55,0,0,0-.59,0l-5.43,3.26h0a.58.58,0,0,1,.22-.08H305a.4.4,0,0,1,.26.06c.64.35,1.23,2.17,1.54,7l-3.59,16.93,5.44-3.27,3.59-16.93C312,249.7,311.36,247.88,310.73,247.53Z" transform="translate(161.37 -6.37)"/><path class="cls-98" d="M203.92,252.26h0a.63.63,0,0,0-.22-.07h-.07a.41.41,0,0,0-.26.07c-.62.37-1.17,2.2-1.34,7.06l4.07,16.82,3.08-3-3.43-17.76C205.68,255.17,204.82,252.74,203.92,252.26Z" transform="translate(161.37 -6.37)"/><path class="cls-102" d="M203.92,252.26h0c.9.48,1.76,2.91,1.81,3.07l.92,4.77,21.27-35.85-5.53-3.11Z" transform="translate(161.37 -6.37)"/><polygon class="cls-103" points="368.02 253.72 369.43 261.06 394.06 239.13 389.29 217.88 368.02 253.72"/><path class="cls-104" d="M203.35,252.25a.41.41,0,0,1,.26-.07h.07a.63.63,0,0,1,.22.07h0l-5.52-3.11a.57.57,0,0,0-.59,0c-.62.37-1.16,2.21-1.33,7.07L200.55,273l5.53,3.12L202,259.31C202.18,254.45,202.73,252.62,203.35,252.25Z" transform="translate(161.37 -6.37)"/><path class="cls-105" d="M254.64,265.41c14.05-.2,22.53-6.76,22.62-11.58l-45.56.65C231.92,259.29,240.58,265.61,254.64,265.41Z" transform="translate(161.37 -6.37)"/><path class="cls-106" d="M219.75,212.3c.27,18.88,10.09,37.79,11.58,40.87v.08c.06,4.65,8.89,10.84,23.29,10.64s23-6.65,23-11.3c0,0,10-22.21,10.18-39.16C285.26,214.42,219.75,212.3,219.75,212.3Z" transform="translate(161.37 -6.37)"/><path class="cls-107" d="M286.84,147l1,67.33c-5.07,5.45-19.3,9.37-33.41,9.57-14.76.21-28.77-5.54-34.63-10.58l-.93-65.35c-.12-8.66,15-15.91,33.78-16.17S286.72,138.31,286.84,147Z" transform="translate(161.37 -6.37)"/><g class="cls-108"><path class="cls-109" d="M257.71,204.54s-10.21,6.69-10.14,11.33l.17,12.17c.1,7,4.65,12.13,11.06,12,3.81-.05,8.76-5.94,8.7-9.75l-.16-11.83C267.21,210,257.72,204.56,257.71,204.54Z" transform="translate(161.37 -6.37)"/></g><g class="cls-110"><path class="cls-111" d="M219.46,191.85l.49,34.47s8.86.81,8.7-10.78l-.1-6.57C228.48,203.56,223.23,194.16,219.46,191.85Z" transform="translate(161.37 -6.37)"/></g><path class="cls-112" d="M253.62,200.11s-7,6.65-6.88,11.28l.17,12.17a7.05,7.05,0,0,0,7,7h.32a7,7,0,0,0,6.72-7.16l-.17-11.83C260.67,205.86,253.63,200.13,253.62,200.11Z" transform="translate(161.37 -6.37)"/><path class="cls-113" d="M286.84,147.21a28.35,28.35,0,0,1-11.61,7.53,61,61,0,0,0-22.34-3.53,61.9,61.9,0,0,0-21.5,3.86,36,36,0,0,1-12.56-7.27s.28,19.23.28,19.58c.12,8.67,15.45,15.48,34.23,15.22s33.9-7.51,33.78-16.19Z" transform="translate(161.37 -6.37)"/><path class="cls-114" d="M286.84,147c.12,8.67-15,15.92-33.78,16.19s-34.1-6.55-34.23-15.22,15-15.91,33.78-16.17S286.72,138.31,286.84,147Z" transform="translate(161.37 -6.37)"/><path class="cls-115" d="M258.47,120.49c0-.06-.08-.09-.08-.11,0-.19,0-.37-.05-.55q-.37-5.79-.76-11.56a1.94,1.94,0,0,0-.09-.62l-.46-.26-2.58-1.26-2.51-1.24-2.52-1.24-2.62-1.29c-.22-.1-.43-.21-.64-.32a.1.1,0,0,1,0-.18l.58-.41,2.39-1.58,2.37-1.6,2.39-1.59,2.33-1.56q.22-.16.45-.3a1,1,0,0,1,.47.17l4.3,2.12,3.3,1.64,3.12,1.52.25.13a.34.34,0,0,1,.2.3c0,.11,0,.22,0,.33l.79,11.83,0,.43a1.35,1.35,0,0,1-.39.33l-3.12,2.08-2.87,1.94-1.47,1Z" transform="translate(161.37 -6.37)"/><path class="cls-116" d="M241,118.61c0,.39,0,.77.06,1.16s0,.77.08,1.15l.07,1.16.08,1.15.08,1.16.08,1.21.07,1.15.08,1.16.08,1.15.07,1.16c0,.38,0,.77.08,1.15-.07,0-.12,0-.15,0l-11.34-5.57a.86.86,0,0,1-.09-.46c-.13-1.81-.25-3.63-.37-5.44l-.42-6.44c0-.18,0-.36,0-.51a.27.27,0,0,1,0-.08s0,0,0,0l.23-.16.18-.12,10.16-6.8a.84.84,0,0,1,.41.14l3,1.46,3.41,1.68,3.41,1.68,1.14.56c.08,0,.17.06.21.18-.48.36-1,.68-1.49,1l-1.55,1-1.51,1-1.51,1-1.51,1-1.56,1C242,117.92,241.5,118.23,241,118.61Z" transform="translate(161.37 -6.37)"/><path class="cls-117" d="M258.55,127.17l.19-.09,10.39-6.94h.11s.05.06.05.09c.28,4.2.56,8.4.84,12.57-.06.18-.2.24-.32.32l-2.24,1.5-6,4-1.92,1.28a.38.38,0,0,1-.45,0l-3.66-1.8-4.15-2-3.16-1.55c-.12-.06-.22-.13-.32-.19a1.57,1.57,0,0,1-.07-.56q-.26-3.69-.49-7.38c-.1-1.41-.19-2.82-.28-4.23,0-.17,0-.33,0-.5s.08-.12.16-.09l.3.14,2.07,1,4.85,2.39,3.9,1.92Z" transform="translate(161.37 -6.37)"/><path class="cls-118" d="M257.27,122.37a4.55,4.55,0,0,0,.86-.53c.28-.17.55-.37.83-.55l.78-.52.82-.55.78-.52.82-.55.78-.52.82-.56.79-.52.21.07,3.21,1.59.24.15-.14.12-9.39,6.28-.17.09-.34-.14-4-2-7.71-3.8a1.31,1.31,0,0,0-.52-.2,7.31,7.31,0,0,0,0,.94l.06,1,.06.94.07,1,.06.94c0,.33.05.66.07,1l.06.93.06,1c0,.32.05.63.06.91a1.25,1.25,0,0,1-.4.34l-.46.3c-.13.1-.27.19-.41.28l-.41.27-.41.28-.46.31c-.14.09-.27.19-.41.27s-.25.22-.45.24a1.59,1.59,0,0,1-.07-.48l0-.5,0-.55,0-.49,0-.5,0-.49,0-.5,0-.49,0-.55,0-.5,0-.49,0-.5,0-.49,0-.5,0-.55,0-.49,0-.5,0-.49,0-.5,0-.49,0-.55,0-.5c0-.16,0-.32,0-.45a.59.59,0,0,1,.26-.26q2.39-1.59,4.76-3.19l6.28-4.19.25-.21s0-.06,0-.11l-7.72-3.8a1.6,1.6,0,0,1,0-.21l-.24-3.64c0-.06,0-.13,0-.2h.08l.1,0,10.19,5,.09.08a1.51,1.51,0,0,1,.07.48l.48,7.37c.13,1.84.25,3.67.37,5.51C257.25,121.94,257.26,122.12,257.27,122.37Z" transform="translate(161.37 -6.37)"/><path class="cls-119" d="M287.14,145.41l0,1.56c.12,8.67-15,15.91-33.78,16.18-17.59.25-32.16-5.71-34-13.59l-.08-5.6c-.47-32.51,33-78.86,33-78.86S286.58,105.62,287.14,145.41Z" transform="translate(161.37 -6.37)"/><path class="cls-120" d="M241.25,147a1.3,1.3,0,1,0,1.84,0A1.3,1.3,0,0,0,241.25,147Z" transform="translate(161.37 -6.37)"/><path class="cls-64" d="M267.7,147.56a1.3,1.3,0,1,0,1.84,0A1.3,1.3,0,0,0,267.7,147.56Z" transform="translate(161.37 -6.37)"/><path class="cls-120" d="M252.14,125.41a1.4,1.4,0,1,0,2,0A1.39,1.39,0,0,0,252.14,125.41Z" transform="translate(161.37 -6.37)"/><path class="cls-120" d="M251.41,130.22a.85.85,0,0,0,0,1.19.83.83,0,0,0,1.2-1.16A.83.83,0,0,0,251.41,130.22Z" transform="translate(161.37 -6.37)"/><path class="cls-121" d="M250.07,128.61a.54.54,0,1,0,.76,0A.54.54,0,0,0,250.07,128.61Z" transform="translate(161.37 -6.37)"/><path class="cls-121" d="M270.61,140.39a.54.54,0,1,0,.76,0A.54.54,0,0,0,270.61,140.39Z" transform="translate(161.37 -6.37)"/><path class="cls-120" d="M245.71,116.23a.16.16,0,1,0,.23,0A.16.16,0,0,0,245.71,116.23Z" transform="translate(161.37 -6.37)"/><path class="cls-121" d="M246.78,123a.16.16,0,0,0,0,.23.15.15,0,0,0,.23,0,.16.16,0,0,0,0-.22A.16.16,0,0,0,246.78,123Z" transform="translate(161.37 -6.37)"/><path class="cls-121" d="M261.32,147.2a.16.16,0,0,0,.23.23.16.16,0,0,0,0-.23A.16.16,0,0,0,261.32,147.2Z" transform="translate(161.37 -6.37)"/><path class="cls-121" d="M259.8,145.17a.17.17,0,0,0,0,.23.15.15,0,0,0,.23,0,.16.16,0,0,0,0-.23A.18.18,0,0,0,259.8,145.17Z" transform="translate(161.37 -6.37)"/><path class="cls-120" d="M234.51,122.77a2,2,0,1,0,2.8,0A2,2,0,0,0,234.51,122.77Z" transform="translate(161.37 -6.37)"/><path class="cls-64" d="M230.47,139.94a1,1,0,1,0,1.38,1.42,1,1,0,0,0-1.38-1.42Z" transform="translate(161.37 -6.37)"/><path class="cls-120" d="M248.77,136a1,1,0,1,0,1.39,0A1,1,0,0,0,248.77,136Z" transform="translate(161.37 -6.37)"/><path class="cls-120" d="M238.47,111.74a1,1,0,0,0,0,1.4,1,1,0,0,0,1.42-1.37A1,1,0,0,0,238.47,111.74Z" transform="translate(161.37 -6.37)"/><path class="cls-120" d="M227.57,131.69a1,1,0,1,0,1.37,1.42,1,1,0,0,0-1.37-1.42Z" transform="translate(161.37 -6.37)"/><path class="cls-120" d="M268.15,133a1,1,0,0,0,0,1.4,1,1,0,0,0,1.42-1.38A1,1,0,0,0,268.15,133Z" transform="translate(161.37 -6.37)"/><path class="cls-120" d="M255.54,112.5a1,1,0,1,0,1.37,1.42,1,1,0,0,0-1.37-1.42Z" transform="translate(161.37 -6.37)"/><path class="cls-64" d="M274.51,118.18a.49.49,0,0,0,0,.68.47.47,0,0,0,.67,0,.47.47,0,0,0,0-.67A.47.47,0,0,0,274.51,118.18Z" transform="translate(161.37 -6.37)"/><path class="cls-120" d="M245.15,144.67a.58.58,0,0,0,.81.83.58.58,0,1,0-.81-.83Z" transform="translate(161.37 -6.37)"/><path class="cls-64" d="M243,118.78a.58.58,0,0,0,.8.84.58.58,0,0,0-.8-.84Z" transform="translate(161.37 -6.37)"/><path class="cls-64" d="M229.3,120.07a.38.38,0,0,0,0,.55.38.38,0,0,0,.55,0,.39.39,0,0,0,0-.55A.38.38,0,0,0,229.3,120.07Z" transform="translate(161.37 -6.37)"/><path class="cls-64" d="M233.87,132.78a.57.57,0,1,0,.79.81.56.56,0,0,0,0-.8A.57.57,0,0,0,233.87,132.78Z" transform="translate(161.37 -6.37)"/><path class="cls-64" d="M234.05,134.49a.31.31,0,1,0,.44,0A.32.32,0,0,0,234.05,134.49Z" transform="translate(161.37 -6.37)"/><path class="cls-120" d="M238.1,103.89a1.4,1.4,0,1,0,2,.3A1.4,1.4,0,0,0,238.1,103.89Z" transform="translate(161.37 -6.37)"/><path class="cls-120" d="M242.19,98.7a.84.84,0,0,0-.18,1.17.84.84,0,0,0,1.35-1A.84.84,0,0,0,242.19,98.7Z" transform="translate(161.37 -6.37)"/><path class="cls-121" d="M243.66,101a.54.54,0,0,0,.64.87.53.53,0,0,0,.11-.75A.54.54,0,0,0,243.66,101Z" transform="translate(161.37 -6.37)"/><path class="cls-120" d="M247.22,104.88a.16.16,0,1,0,.19.26.17.17,0,0,0,0-.23A.16.16,0,0,0,247.22,104.88Z" transform="translate(161.37 -6.37)"/><path class="cls-121" d="M256.08,100.73a.16.16,0,0,0-.16.16.15.15,0,0,0,.16.16.16.16,0,1,0,0-.32Z" transform="translate(161.37 -6.37)"/><path class="cls-120" d="M266.08,99.11a2,2,0,1,0,1.95,2A2,2,0,0,0,266.08,99.11Z" transform="translate(161.37 -6.37)"/><path class="cls-120" d="M256.4,105.7a1,1,0,1,0,1.39.21A1,1,0,0,0,256.4,105.7Z" transform="translate(161.37 -6.37)"/><path class="cls-120" d="M270.71,119.34a1,1,0,0,0-1,1,1,1,0,0,0,1,1,1,1,0,1,0,0-2Z" transform="translate(161.37 -6.37)"/><path class="cls-120" d="M252.62,76a1,1,0,0,0-1,1,1,1,0,0,0,2,0A1,1,0,0,0,252.62,76Z" transform="translate(161.37 -6.37)"/><path class="cls-120" d="M255.73,90.83a1,1,0,0,0-1,1,1,1,0,1,0,2,0A1,1,0,0,0,255.73,90.83Z" transform="translate(161.37 -6.37)"/><path class="cls-64" d="M247.69,80.43a.48.48,0,0,0-.48.47.48.48,0,0,0,.95,0A.47.47,0,0,0,247.69,80.43Z" transform="translate(161.37 -6.37)"/><path class="cls-64" d="M261.65,101.15a.58.58,0,0,0-.59.57.58.58,0,1,0,1.16,0A.57.57,0,0,0,261.65,101.15Z" transform="translate(161.37 -6.37)"/><path class="cls-64" d="M261,110.88a.39.39,0,0,0-.4.38.39.39,0,1,0,.78,0A.39.39,0,0,0,261,110.88Z" transform="translate(161.37 -6.37)"/><path class="cls-64" d="M267,115a.57.57,0,1,0,.56.57A.55.55,0,0,0,267,115Z" transform="translate(161.37 -6.37)"/><path class="cls-64" d="M262.86,110.84a.31.31,0,0,0-.32.31.3.3,0,0,0,.3.32.31.31,0,0,0,.32-.31A.31.31,0,0,0,262.86,110.84Z" transform="translate(161.37 -6.37)"/><path class="cls-120" d="M240.91,139a.42.42,0,0,0,0,.58.41.41,0,0,0,.58,0,.41.41,0,1,0-.57-.59Z" transform="translate(161.37 -6.37)"/><path class="cls-120" d="M265,140a.42.42,0,0,0,0,.58.41.41,0,0,0,.59-.57A.42.42,0,0,0,265,140Z" transform="translate(161.37 -6.37)"/><path class="cls-64" d="M250.29,92.14a1,1,0,1,0,1.42,0A1,1,0,0,0,250.29,92.14Z" transform="translate(161.37 -6.37)"/><path class="cls-122" d="M287.14,145.41S284,117.46,269,107.72c-7.27-4.72-4.89-30.48-16.05-28.57-13.63,2.34-.91,30.4-13.9,33.7C228.57,115.51,219.29,144,219.29,144c-.47-32.51,33-78.86,33-78.86S286.58,105.62,287.14,145.41Z" transform="translate(161.37 -6.37)"/><path class="cls-123" d="M287.14,145.41l0,1.56c.12,8.67-15,15.91-33.78,16.18-17.59.25,3.4-21.35,9.74-26.39,11.86-9.42-24-21.16-9.36-34.41,8.84-8-5-14.95-1.51-37.25C252.31,65.21,286.58,105.62,287.14,145.41Z" transform="translate(161.37 -6.37)"/></g></g></g></svg>