<svg xmlns="http://www.w3.org/2000/svg" xmlns:xlink="http://www.w3.org/1999/xlink" viewBox="0 0 841.54 540.8"><defs><style>.cls-1{mask:url(#mask);}.cls-10,.cls-11,.cls-13,.cls-14,.cls-16,.cls-17,.cls-19,.cls-2,.cls-20,.cls-22,.cls-23,.cls-25,.cls-26,.cls-28,.cls-30,.cls-31,.cls-33,.cls-35,.cls-36,.cls-37,.cls-4,.cls-42,.cls-44,.cls-46,.cls-48,.cls-50,.cls-52,.cls-55,.cls-57,.cls-59,.cls-6,.cls-61,.cls-63,.cls-65,.cls-7,.cls-9{mix-blend-mode:multiply;}.cls-2{fill:url(#radial-gradient);}.cls-3{mask:url(#mask-2);}.cls-4{fill:url(#radial-gradient-2);}.cls-5{mask:url(#mask-3);}.cls-6{fill:url(#radial-gradient-3);}.cls-7{fill:url(#radial-gradient-4);}.cls-8{mask:url(#mask-5);}.cls-9{fill:url(#radial-gradient-5);}.cls-10{fill:url(#radial-gradient-6);}.cls-11{fill:url(#radial-gradient-7);}.cls-12{mask:url(#mask-8);}.cls-13{fill:url(#radial-gradient-8);}.cls-14{fill:url(#radial-gradient-9);}.cls-15{mask:url(#mask-10);}.cls-16{fill:url(#radial-gradient-10);}.cls-17{fill:url(#radial-gradient-11);}.cls-18{mask:url(#mask-12);}.cls-19{fill:url(#radial-gradient-12);}.cls-20{fill:url(#radial-gradient-13);}.cls-21{mask:url(#mask-14);}.cls-22{fill:url(#radial-gradient-14);}.cls-23{fill:url(#radial-gradient-15);}.cls-24{mask:url(#mask-16);}.cls-25{fill:url(#radial-gradient-16);}.cls-26{fill:url(#radial-gradient-17);}.cls-27{mask:url(#mask-18);}.cls-28{fill:url(#radial-gradient-18);}.cls-29{mask:url(#mask-19);}.cls-30{fill:url(#radial-gradient-19);}.cls-31{fill:url(#radial-gradient-20);}.cls-32{mask:url(#mask-21);}.cls-33{fill:url(#Áåçûìÿííûé_ãðàäèåíò_20);}.cls-34{mask:url(#mask-22);}.cls-35{fill:url(#Áåçûìÿííûé_ãðàäèåíò_20-2);}.cls-36{fill:url(#radial-gradient-21);}.cls-37{fill:url(#radial-gradient-22);}.cls-38{fill:none;}.cls-39{isolation:isolate;}.cls-40{clip-path:url(#clip-path);}.cls-41{mask:url(#mask-25);}.cls-121,.cls-42,.cls-44,.cls-46,.cls-48,.cls-50,.cls-52,.cls-55,.cls-57,.cls-59,.cls-61,.cls-63{opacity:0.8;}.cls-42{fill:url(#radial-gradient-23);}.cls-43{mask:url(#mask-27);}.cls-44{fill:url(#radial-gradient-24);}.cls-45{mask:url(#mask-29);}.cls-46{fill:url(#radial-gradient-25);}.cls-47{mask:url(#mask-31);}.cls-48{fill:url(#radial-gradient-26);}.cls-49{mask:url(#mask-33);}.cls-50{fill:url(#radial-gradient-27);}.cls-51{mask:url(#mask-35);}.cls-52{fill:url(#radial-gradient-28);}.cls-53{fill:#f1f2ff;}.cls-54{mask:url(#mask-37);}.cls-55{fill:url(#radial-gradient-29);}.cls-56{mask:url(#mask-39);}.cls-57{fill:url(#radial-gradient-30);}.cls-58{mask:url(#mask-41);}.cls-59{fill:url(#radial-gradient-31);}.cls-60{mask:url(#mask-43);}.cls-61{fill:url(#radial-gradient-32);}.cls-62{mask:url(#mask-45);}.cls-63{fill:url(#radial-gradient-33);}.cls-120,.cls-121,.cls-64{fill:#fff;}.cls-65{opacity:0.05;}.cls-66{fill:#001c23;}.cls-66,.cls-67{fill-rule:evenodd;}.cls-67{fill:#f9f9f9;}.cls-68{fill:#1a1918;}.cls-69{fill:#d33833;}.cls-70{fill:#ef3d3a;}.cls-71{fill:#231f20;}.cls-72{fill:#f0d6b7;}.cls-73{fill:#335061;}.cls-74{fill:#6d6b6d;}.cls-75{fill:#dcd9d8;}.cls-76{fill:#f7e4cd;}.cls-77{fill:#49728b;}.cls-78{stroke:#d33833;stroke-width:2px;}.cls-79{fill:#81b0c4;}.cls-80{fill:#1d1919;}.cls-81{fill:#326de6;}.cls-82{fill:url(#linear-gradient);}.cls-83{fill:#0078d4;}.cls-84{fill:url(#linear-gradient-2);}.cls-85{fill:url(#linear-gradient-3);}.cls-86{fill:#ea4335;}.cls-87{fill:#4285f4;}.cls-88{fill:#34a853;}.cls-89{fill:#fbbc05;}.cls-90{fill:#252f3e;}.cls-91{fill:#f90;}.cls-92{opacity:0.7;}.cls-93{fill:#d8dae6;}.cls-94{fill:#a3abd4;}.cls-95{fill:#e3e5f6;}.cls-96{fill:url(#Áåçûìÿííûé_ãðàäèåíò_37);}.cls-97{fill:url(#Áåçûìÿííûé_ãðàäèåíò_37-2);}.cls-98{fill:#ff5a74;}.cls-99{fill:url(#Áåçûìÿííûé_ãðàäèåíò_42);}.cls-100{fill:url(#Áåçûìÿííûé_ãðàäèåíò_31);}.cls-101{fill:url(#Áåçûìÿííûé_ãðàäèåíò_37-3);}.cls-102{fill:url(#Áåçûìÿííûé_ãðàäèåíò_42-2);}.cls-103{fill:url(#Áåçûìÿííûé_ãðàäèåíò_31-2);}.cls-104{fill:url(#Áåçûìÿííûé_ãðàäèåíò_37-4);}.cls-105{fill:url(#Áåçûìÿííûé_ãðàäèåíò_37-5);}.cls-106{fill:url(#Áåçûìÿííûé_ãðàäèåíò_42-3);}.cls-107{fill:url(#Áåçûìÿííûé_ãðàäèåíò_42-4);}.cls-108{mask:url(#mask-47);}.cls-109,.cls-111{opacity:0.32;}.cls-109{fill:url(#Áåçûìÿííûé_ãðàäèåíò_29);}.cls-110{mask:url(#mask-48);}.cls-111{fill:url(#Áåçûìÿííûé_ãðàäèåíò_29-2);}.cls-112{fill:url(#Áåçûìÿííûé_ãðàäèåíò_37-6);}.cls-113{fill:url(#Áåçûìÿííûé_ãðàäèåíò_15);}.cls-114{fill:#5752d0;}.cls-115{fill:#3fff94;}.cls-116{fill:#01c0ff;}.cls-117{fill:#ff7c0d;}.cls-118{fill:#223361;}.cls-119,.cls-122,.cls-123{opacity:0.13;}.cls-119{fill:url(#Áåçûìÿííûé_ãðàäèåíò_15-2);}.cls-120{opacity:0.4;}.cls-122{fill:url(#Áåçûìÿííûé_ãðàäèåíò_15-3);}.cls-123{fill:url(#Áåçûìÿííûé_ãðàäèåíò_15-4);}.cls-124{filter:url(#luminosity-noclip-37);}.cls-125{filter:url(#luminosity-noclip-36);}.cls-126{filter:url(#luminosity-noclip-22);}.cls-127{filter:url(#luminosity-noclip-21);}.cls-128{filter:url(#luminosity-noclip-19);}.cls-129{filter:url(#luminosity-noclip-18);}.cls-130{filter:url(#luminosity-noclip-16);}.cls-131{filter:url(#luminosity-noclip-14);}.cls-132{filter:url(#luminosity-noclip-12);}.cls-133{filter:url(#luminosity-noclip-10);}.cls-134{filter:url(#luminosity-noclip-8);}.cls-135{filter:url(#luminosity-noclip-5);}.cls-136{filter:url(#luminosity-noclip-3);}.cls-137{filter:url(#luminosity-noclip-2);}.cls-138{filter:url(#luminosity-noclip);}</style><filter id="luminosity-noclip" x="27.08" y="-8467" width="125.58" height="32766" filterUnits="userSpaceOnUse" color-interpolation-filters="sRGB"><feFlood flood-color="#fff" result="bg"/><feBlend in="SourceGraphic" in2="bg"/></filter><mask id="mask" x="27.08" y="-8467" width="125.58" height="32766" maskUnits="userSpaceOnUse"><g class="cls-138"/></mask><radialGradient id="radial-gradient" cx="89.88" cy="407.46" r="62.79" gradientTransform="translate(0 14.75) scale(1 0.95)" gradientUnits="userSpaceOnUse"><stop offset="0" stop-color="#fff"/><stop offset="0.14" stop-color="#d0d0d0"/><stop offset="0.38" stop-color="#878787"/><stop offset="0.59" stop-color="#4d4d4d"/><stop offset="0.77" stop-color="#232323"/><stop offset="0.92" stop-color="#090909"/><stop offset="1"/></radialGradient><filter id="luminosity-noclip-2" x="251.52" y="-8467" width="111.41" height="32766" filterUnits="userSpaceOnUse" color-interpolation-filters="sRGB"><feFlood flood-color="#fff" result="bg"/><feBlend in="SourceGraphic" in2="bg"/></filter><mask id="mask-2" x="251.52" y="-8467" width="111.41" height="32766" maskUnits="userSpaceOnUse"><g class="cls-137"/></mask><radialGradient id="radial-gradient-2" cx="307.22" cy="434.43" r="55.7" gradientTransform="translate(0 14.75) scale(1 0.95)" gradientUnits="userSpaceOnUse"><stop offset="0" stop-color="#fff"/><stop offset="0.37" stop-color="#fdfdfd"/><stop offset="0.51" stop-color="#f6f6f6"/><stop offset="0.6" stop-color="#ebebeb"/><stop offset="0.68" stop-color="#dadada"/><stop offset="0.75" stop-color="#c4c4c4"/><stop offset="0.8" stop-color="#a8a8a8"/><stop offset="0.86" stop-color="#888"/><stop offset="0.91" stop-color="#626262"/><stop offset="0.95" stop-color="#373737"/><stop offset="0.99" stop-color="#090909"/><stop offset="1"/></radialGradient><filter id="luminosity-noclip-3" x="187.22" y="-8467" width="121.93" height="32766" filterUnits="userSpaceOnUse" color-interpolation-filters="sRGB"><feFlood flood-color="#fff" result="bg"/><feBlend in="SourceGraphic" in2="bg"/></filter><mask id="mask-3" x="187.22" y="-8467" width="121.93" height="32766" maskUnits="userSpaceOnUse"><g class="cls-136"/></mask><radialGradient id="radial-gradient-3" cx="248.19" cy="400.43" r="60.97" xlink:href="#radial-gradient"/><radialGradient id="radial-gradient-4" cx="248.19" cy="400.43" r="60.97" xlink:href="#radial-gradient-2"/><filter id="luminosity-noclip-5" x="299.96" y="-8467" width="170.15" height="32766" filterUnits="userSpaceOnUse" color-interpolation-filters="sRGB"><feFlood flood-color="#fff" result="bg"/><feBlend in="SourceGraphic" in2="bg"/></filter><mask id="mask-5" x="299.96" y="-8467" width="170.15" height="32766" maskUnits="userSpaceOnUse"><g class="cls-135"/></mask><radialGradient id="radial-gradient-5" cx="385.04" cy="430.54" r="85.08" xlink:href="#radial-gradient"/><radialGradient id="radial-gradient-6" cx="385.04" cy="430.54" r="85.08" xlink:href="#radial-gradient-2"/><radialGradient id="radial-gradient-7" cx="89.88" cy="407.46" r="62.79" xlink:href="#radial-gradient-2"/><filter id="luminosity-noclip-8" x="411.67" y="-8467" width="111.41" height="32766" filterUnits="userSpaceOnUse" color-interpolation-filters="sRGB"><feFlood flood-color="#fff" result="bg"/><feBlend in="SourceGraphic" in2="bg"/></filter><mask id="mask-8" x="411.67" y="-8467" width="111.41" height="32766" maskUnits="userSpaceOnUse"><g class="cls-134"/></mask><radialGradient id="radial-gradient-8" cx="467.37" cy="458.91" r="55.7" xlink:href="#radial-gradient"/><radialGradient id="radial-gradient-9" cx="467.37" cy="458.91" r="55.7" xlink:href="#radial-gradient-2"/><filter id="luminosity-noclip-10" x="61.89" y="-8467" width="112.57" height="32766" filterUnits="userSpaceOnUse" color-interpolation-filters="sRGB"><feFlood flood-color="#fff" result="bg"/><feBlend in="SourceGraphic" in2="bg"/></filter><mask id="mask-10" x="61.89" y="-8467" width="112.57" height="32766" maskUnits="userSpaceOnUse"><g class="cls-133"/></mask><radialGradient id="radial-gradient-10" cx="123.41" cy="490.56" r="55.67" gradientTransform="translate(-6.6) scale(1.01 1)" xlink:href="#radial-gradient"/><radialGradient id="radial-gradient-11" cx="123.41" cy="490.56" r="55.67" gradientTransform="translate(-6.6) scale(1.01 1)" xlink:href="#radial-gradient-2"/><filter id="luminosity-noclip-12" x="-9.74" y="-8467" width="132.35" height="32766" filterUnits="userSpaceOnUse" color-interpolation-filters="sRGB"><feFlood flood-color="#fff" result="bg"/><feBlend in="SourceGraphic" in2="bg"/></filter><mask id="mask-12" x="-9.74" y="-8467" width="132.35" height="32766" maskUnits="userSpaceOnUse"><g class="cls-132"/></mask><radialGradient id="radial-gradient-12" cx="62.35" cy="423.48" r="65.45" gradientTransform="translate(-6.6) scale(1.01 1)" xlink:href="#radial-gradient"/><radialGradient id="radial-gradient-13" cx="62.35" cy="423.48" r="65.45" gradientTransform="translate(-6.6) scale(1.01 1)" xlink:href="#radial-gradient-2"/><filter id="luminosity-noclip-14" x="338.44" y="-8467" width="144.17" height="32766" filterUnits="userSpaceOnUse" color-interpolation-filters="sRGB"><feFlood flood-color="#fff" result="bg"/><feBlend in="SourceGraphic" in2="bg"/></filter><mask id="mask-14" x="338.44" y="-8467" width="144.17" height="32766" maskUnits="userSpaceOnUse"><g class="cls-131"/></mask><radialGradient id="radial-gradient-14" cx="412.56" cy="459.89" r="71.3" gradientTransform="translate(-6.6) scale(1.01 1)" xlink:href="#radial-gradient"/><radialGradient id="radial-gradient-15" cx="412.56" cy="459.89" r="71.3" gradientTransform="translate(-6.6) scale(1.01 1)" xlink:href="#radial-gradient-2"/><filter id="luminosity-noclip-16" x="446.83" y="-8467" width="112.57" height="32766" filterUnits="userSpaceOnUse" color-interpolation-filters="sRGB"><feFlood flood-color="#fff" result="bg"/><feBlend in="SourceGraphic" in2="bg"/></filter><mask id="mask-16" x="446.83" y="-8467" width="112.57" height="32766" maskUnits="userSpaceOnUse"><g class="cls-130"/></mask><radialGradient id="radial-gradient-16" cx="504.14" cy="455.89" r="55.67" gradientTransform="translate(-6.6) scale(1.01 1)" xlink:href="#radial-gradient"/><radialGradient id="radial-gradient-17" cx="504.14" cy="455.89" r="55.67" gradientTransform="translate(-6.6) scale(1.01 1)" xlink:href="#radial-gradient-2"/><filter id="luminosity-noclip-18" x="95.96" y="-8467" width="145.93" height="32766" filterUnits="userSpaceOnUse" color-interpolation-filters="sRGB"><feFlood flood-color="#fff" result="bg"/><feBlend in="SourceGraphic" in2="bg"/></filter><mask id="mask-18" x="95.96" y="-8467" width="145.93" height="32766" maskUnits="userSpaceOnUse"><g class="cls-129"/></mask><radialGradient id="radial-gradient-18" cx="168.93" cy="380.96" r="72.97" xlink:href="#radial-gradient"/><filter id="luminosity-noclip-19" x="503.94" y="-8467" width="112.57" height="32766" filterUnits="userSpaceOnUse" color-interpolation-filters="sRGB"><feFlood flood-color="#fff" result="bg"/><feBlend in="SourceGraphic" in2="bg"/></filter><mask id="mask-19" x="503.94" y="-8467" width="112.57" height="32766" maskUnits="userSpaceOnUse"><g class="cls-128"/></mask><radialGradient id="radial-gradient-19" cx="560.62" cy="403.69" r="55.67" gradientTransform="translate(-6.6) scale(1.01 1)" xlink:href="#radial-gradient"/><radialGradient id="radial-gradient-20" cx="560.62" cy="403.69" r="55.67" gradientTransform="translate(-6.6) scale(1.01 1)" xlink:href="#radial-gradient-2"/><filter id="luminosity-noclip-21" x="238.15" y="-8467" width="19.94" height="32766" filterUnits="userSpaceOnUse" color-interpolation-filters="sRGB"><feFlood flood-color="#fff" result="bg"/><feBlend in="SourceGraphic" in2="bg"/></filter><mask id="mask-21" x="238.15" y="-8467" width="19.94" height="32766" maskUnits="userSpaceOnUse"><g class="cls-127"/></mask><linearGradient id="Áåçûìÿííûé_ãðàäèåíò_20" x1="244.97" y1="226.29" x2="253.48" y2="233.15" gradientTransform="translate(-1.38 -0.7) rotate(-0.81)" gradientUnits="userSpaceOnUse"><stop offset="0" stop-color="#fff"/><stop offset="0.94"/></linearGradient><filter id="luminosity-noclip-22" x="210.04" y="-8467" width="9.19" height="32766" filterUnits="userSpaceOnUse" color-interpolation-filters="sRGB"><feFlood flood-color="#fff" result="bg"/><feBlend in="SourceGraphic" in2="bg"/></filter><mask id="mask-22" x="210.04" y="-8467" width="9.19" height="32766" maskUnits="userSpaceOnUse"><g class="cls-126"/></mask><linearGradient id="Áåçûìÿííûé_ãðàäèåíò_20-2" x1="206.41" y1="210.93" x2="215.75" y2="218.45" xlink:href="#Áåçûìÿííûé_ãðàäèåíò_20"/><radialGradient id="radial-gradient-21" cx="168.93" cy="380.96" r="72.97" xlink:href="#radial-gradient-2"/><radialGradient id="radial-gradient-22" cx="307.22" cy="434.43" r="55.7" xlink:href="#radial-gradient"/><clipPath id="clip-path" transform="translate(170.78 -6.37)"><rect class="cls-38" x="1.09" width="486.33" height="549.18"/></clipPath><mask id="mask-25" x="197.86" y="336.6" width="125.58" height="119.59" maskUnits="userSpaceOnUse"><g transform="translate(170.78 -6.37)"><g class="cls-1"><path class="cls-2" d="M152.67,402.77c0,33-28.11,59.79-62.79,59.79s-62.8-26.77-62.8-59.79S55.2,343,89.88,343,152.67,369.74,152.67,402.77Z"/></g></g></mask><filter id="luminosity-noclip-25" x="27.08" y="342.97" width="125.58" height="119.59" filterUnits="userSpaceOnUse" color-interpolation-filters="sRGB"><feFlood flood-color="#fff" result="bg"/><feBlend in="SourceGraphic" in2="bg"/></filter><radialGradient id="radial-gradient-23" cx="89.88" cy="407.46" r="62.79" gradientTransform="translate(0 14.75) scale(1 0.95)" gradientUnits="userSpaceOnUse"><stop offset="0" stop-color="#053e4f"/><stop offset="0.37" stop-color="#073f50"/><stop offset="0.51" stop-color="#0e4555"/><stop offset="0.6" stop-color="#194e5d"/><stop offset="0.68" stop-color="#2a5b69"/><stop offset="0.75" stop-color="#406c79"/><stop offset="0.81" stop-color="#5c818c"/><stop offset="0.86" stop-color="#7c9aa3"/><stop offset="0.91" stop-color="#a2b7bd"/><stop offset="0.96" stop-color="#ccd8db"/><stop offset="1" stop-color="#fafbfb"/><stop offset="1" stop-color="#fff"/></radialGradient><mask id="mask-27" x="266.74" y="301.68" width="145.93" height="138.97" maskUnits="userSpaceOnUse"><g transform="translate(170.78 -6.37)"><g class="cls-27"><path class="cls-28" d="M241.9,377.53c0,38.38-32.67,69.49-73,69.49s-73-31.11-73-69.49,32.67-69.48,73-69.48S241.9,339.16,241.9,377.53Z"/></g></g></mask><filter id="luminosity-noclip-26" x="95.96" y="308.05" width="145.93" height="138.97" filterUnits="userSpaceOnUse" color-interpolation-filters="sRGB"><feFlood flood-color="#fff" result="bg"/><feBlend in="SourceGraphic" in2="bg"/></filter><radialGradient id="radial-gradient-24" cx="168.93" cy="380.96" r="72.97" xlink:href="#radial-gradient-23"/><mask id="mask-29" x="422.29" y="369.03" width="111.41" height="106.09" maskUnits="userSpaceOnUse"><g transform="translate(170.78 -6.37)"><g class="cls-3"><path class="cls-37" d="M362.92,428.45c0,29.29-24.93,53-55.7,53s-55.7-23.75-55.7-53,24.94-53.05,55.7-53.05S362.92,399.15,362.92,428.45Z"/></g></g></mask><filter id="luminosity-noclip-27" x="251.52" y="375.4" width="111.41" height="106.09" filterUnits="userSpaceOnUse" color-interpolation-filters="sRGB"><feFlood flood-color="#fff" result="bg"/><feBlend in="SourceGraphic" in2="bg"/></filter><radialGradient id="radial-gradient-25" cx="307.22" cy="434.43" r="55.7" xlink:href="#radial-gradient-23"/><mask id="mask-31" x="358" y="331.64" width="121.93" height="116.11" maskUnits="userSpaceOnUse"><g transform="translate(170.78 -6.37)"><g class="cls-5"><path class="cls-6" d="M309.16,396.07c0,32.06-27.3,58.05-61,58.05s-61-26-61-58.05,27.3-58.06,61-58.06S309.16,364,309.16,396.07Z"/></g></g></mask><filter id="luminosity-noclip-28" x="187.22" y="338.01" width="121.93" height="116.11" filterUnits="userSpaceOnUse" color-interpolation-filters="sRGB"><feFlood flood-color="#fff" result="bg"/><feBlend in="SourceGraphic" in2="bg"/></filter><radialGradient id="radial-gradient-26" cx="248.19" cy="400.43" r="60.97" xlink:href="#radial-gradient-23"/><mask id="mask-33" x="470.74" y="337.35" width="170.15" height="162.03" maskUnits="userSpaceOnUse"><g transform="translate(170.78 -6.37)"><g class="cls-8"><path class="cls-9" d="M470.12,424.74c0,44.74-38.09,81-85.08,81S300,469.48,300,424.74s38.09-81,85.08-81S470.12,380,470.12,424.74Z"/></g></g></mask><filter id="luminosity-noclip-29" x="299.96" y="343.72" width="170.15" height="162.03" filterUnits="userSpaceOnUse" color-interpolation-filters="sRGB"><feFlood flood-color="#fff" result="bg"/><feBlend in="SourceGraphic" in2="bg"/></filter><radialGradient id="radial-gradient-27" cx="385.04" cy="430.54" r="85.08" xlink:href="#radial-gradient-23"/><mask id="mask-35" x="582.45" y="392.34" width="111.41" height="106.09" maskUnits="userSpaceOnUse"><g transform="translate(170.78 -6.37)"><g class="cls-12"><path class="cls-13" d="M523.08,451.76c0,29.29-24.94,53-55.71,53s-55.7-23.75-55.7-53,24.94-53.05,55.7-53.05S523.08,422.46,523.08,451.76Z"/></g></g></mask><filter id="luminosity-noclip-30" x="411.67" y="398.71" width="111.41" height="106.09" filterUnits="userSpaceOnUse" color-interpolation-filters="sRGB"><feFlood flood-color="#fff" result="bg"/><feBlend in="SourceGraphic" in2="bg"/></filter><radialGradient id="radial-gradient-28" cx="467.37" cy="458.91" r="55.7" xlink:href="#radial-gradient-23"/><mask id="mask-37" x="232.67" y="428.53" width="112.57" height="111.33" maskUnits="userSpaceOnUse"><g transform="translate(170.78 -6.37)"><g class="cls-15"><path class="cls-16" d="M174.45,490.57c0,30.74-25.2,55.66-56.28,55.66s-56.28-24.92-56.28-55.66,25.2-55.67,56.28-55.67S174.45,459.82,174.45,490.57Z"/></g></g></mask><filter id="luminosity-noclip-31" x="61.89" y="434.9" width="112.57" height="111.33" filterUnits="userSpaceOnUse" color-interpolation-filters="sRGB"><feFlood flood-color="#fff" result="bg"/><feBlend in="SourceGraphic" in2="bg"/></filter><radialGradient id="radial-gradient-29" cx="123.41" cy="490.56" r="55.67" gradientTransform="translate(-6.6) scale(1.01 1)" xlink:href="#radial-gradient-23"/><mask id="mask-39" x="161.03" y="351.66" width="132.35" height="130.9" maskUnits="userSpaceOnUse"><g transform="translate(170.78 -6.37)"><g class="cls-18"><path class="cls-19" d="M122.61,423.48c0,36.15-29.63,65.45-66.18,65.45s-66.17-29.3-66.17-65.45S19.88,358,56.43,358,122.61,387.34,122.61,423.48Z"/></g></g></mask><filter id="luminosity-noclip-32" x="-9.74" y="358.03" width="132.35" height="130.9" filterUnits="userSpaceOnUse" color-interpolation-filters="sRGB"><feFlood flood-color="#fff" result="bg"/><feBlend in="SourceGraphic" in2="bg"/></filter><radialGradient id="radial-gradient-30" cx="62.35" cy="423.48" r="65.45" gradientTransform="translate(-6.6) scale(1.01 1)" xlink:href="#radial-gradient-23"/><mask id="mask-41" x="509.21" y="382.22" width="144.17" height="142.59" maskUnits="userSpaceOnUse"><g transform="translate(170.78 -6.37)"><g class="cls-21"><path class="cls-22" d="M482.61,459.89c0,39.37-32.28,71.29-72.09,71.29s-72.08-31.92-72.08-71.29,32.27-71.3,72.08-71.3S482.61,420.51,482.61,459.89Z"/></g></g></mask><filter id="luminosity-noclip-33" x="338.44" y="388.59" width="144.17" height="142.59" filterUnits="userSpaceOnUse" color-interpolation-filters="sRGB"><feFlood flood-color="#fff" result="bg"/><feBlend in="SourceGraphic" in2="bg"/></filter><radialGradient id="radial-gradient-31" cx="412.56" cy="459.89" r="71.3" gradientTransform="translate(-6.6) scale(1.01 1)" xlink:href="#radial-gradient-23"/><mask id="mask-43" x="617.61" y="393.85" width="112.57" height="111.33" maskUnits="userSpaceOnUse"><g transform="translate(170.78 -6.37)"><g class="cls-24"><path class="cls-25" d="M559.4,455.89c0,30.74-25.2,55.67-56.28,55.67s-56.29-24.93-56.29-55.67,25.2-55.66,56.29-55.66S559.4,425.15,559.4,455.89Z"/></g></g></mask><filter id="luminosity-noclip-34" x="446.83" y="400.23" width="112.57" height="111.33" filterUnits="userSpaceOnUse" color-interpolation-filters="sRGB"><feFlood flood-color="#fff" result="bg"/><feBlend in="SourceGraphic" in2="bg"/></filter><radialGradient id="radial-gradient-32" cx="504.14" cy="455.89" r="55.67" gradientTransform="translate(-6.6) scale(1.01 1)" xlink:href="#radial-gradient-23"/><mask id="mask-45" x="674.72" y="341.66" width="112.57" height="111.33" maskUnits="userSpaceOnUse"><g transform="translate(170.78 -6.37)"><g class="cls-29"><path class="cls-30" d="M616.5,403.69c0,30.75-25.19,55.67-56.28,55.67s-56.28-24.92-56.28-55.67S529.14,348,560.22,348,616.5,373,616.5,403.69Z"/></g></g></mask><filter id="luminosity-noclip-35" x="503.94" y="348.03" width="112.57" height="111.33" filterUnits="userSpaceOnUse" color-interpolation-filters="sRGB"><feFlood flood-color="#fff" result="bg"/><feBlend in="SourceGraphic" in2="bg"/></filter><radialGradient id="radial-gradient-33" cx="560.62" cy="403.69" r="55.67" gradientTransform="translate(-6.6) scale(1.01 1)" xlink:href="#radial-gradient-23"/><linearGradient id="linear-gradient" x1="-984.16" y1="-96.53" x2="-984.2" y2="-96.36" gradientTransform="translate(158573 23450.2) scale(161.1 241.22)" gradientUnits="userSpaceOnUse"><stop offset="0" stop-color="#114a8b"/><stop offset="1" stop-color="#0669bc"/></linearGradient><linearGradient id="linear-gradient-2" x1="-985.92" y1="-96.45" x2="-985.93" y2="-96.45" gradientTransform="translate(221561.86 23449.95) scale(224.69 241.21)" gradientUnits="userSpaceOnUse"><stop offset="0" stop-opacity="0.3"/><stop offset="0.07" stop-opacity="0.2"/><stop offset="0.32" stop-opacity="0.1"/><stop offset="0.62" stop-opacity="0.05"/><stop offset="1" stop-opacity="0"/></linearGradient><linearGradient id="linear-gradient-3" x1="-984.94" y1="-96.54" x2="-984.89" y2="-96.37" gradientTransform="translate(167235.82 23450.19) scale(169.75 241.22)" gradientUnits="userSpaceOnUse"><stop offset="0" stop-color="#3ccbf4"/><stop offset="1" stop-color="#2892df"/></linearGradient><linearGradient id="Áåçûìÿííûé_ãðàäèåíò_37" x1="269.67" y1="209.92" x2="283.68" y2="209.92" gradientTransform="translate(-1.38 -0.7) rotate(-0.81)" gradientUnits="userSpaceOnUse"><stop offset="0" stop-color="#ff6279"/><stop offset="1" stop-color="#ffad60"/></linearGradient><linearGradient id="Áåçûìÿííûé_ãðàäèåíò_37-2" x1="201.66" y1="209.92" x2="215.67" y2="209.92" xlink:href="#Áåçûìÿííûé_ãðàäèåíò_37"/><linearGradient id="Áåçûìÿííûé_ãðàäèåíò_42" x1="268.67" y1="244.22" x2="293.07" y2="244.22" gradientTransform="translate(-1.38 -0.7) rotate(-0.81)" gradientUnits="userSpaceOnUse"><stop offset="0" stop-color="#f0f0fb"/><stop offset="1" stop-color="#d2d7f6"/></linearGradient><linearGradient id="Áåçûìÿííûé_ãðàäèåíò_31" x1="264.21" y1="249.49" x2="290.45" y2="249.49" gradientTransform="translate(169.4 -7.07) rotate(-0.81)" gradientUnits="userSpaceOnUse"><stop offset="0" stop-color="#c8d6f9"/><stop offset="1" stop-color="#bac1e8"/></linearGradient><linearGradient id="Áåçûìÿííûé_ãðàäèåíò_37-3" x1="289.81" y1="261.99" x2="294.42" y2="265.47" xlink:href="#Áåçûìÿííûé_ãðàäèåíò_37"/><linearGradient id="Áåçûìÿííûé_ãðàäèåíò_42-2" x1="192.27" y1="244.22" x2="216.67" y2="244.22" xlink:href="#Áåçûìÿííûé_ãðàäèåíò_42"/><linearGradient id="Áåçûìÿííûé_ãðàäèåíò_31-2" x1="194.89" y1="249.49" x2="221.14" y2="249.49" xlink:href="#Áåçûìÿííûé_ãðàäèåíò_31"/><linearGradient id="Áåçûìÿííûé_ãðàäèåíò_37-4" x1="189.43" y1="257.47" x2="189.43" y2="281.11" xlink:href="#Áåçûìÿííûé_ãðàäèåíò_37"/><linearGradient id="Áåçûìÿííûé_ãðàäèåíò_37-5" x1="220.02" y1="263.96" x2="265.58" y2="263.96" xlink:href="#Áåçûìÿííûé_ãðàäèåíò_37"/><linearGradient id="Áåçûìÿííûé_ãðàäèåíò_42-3" x1="208.67" y1="242.02" x2="276.68" y2="242.02" xlink:href="#Áåçûìÿííûé_ãðàäèåíò_42"/><linearGradient id="Áåçûìÿííûé_ãðàäèåíò_42-4" x1="208.67" y1="181.99" x2="276.68" y2="181.99" xlink:href="#Áåçûìÿííûé_ãðàäèåíò_42"/><filter id="luminosity-noclip-36" x="238.15" y="204.54" width="19.94" height="35.54" filterUnits="userSpaceOnUse" color-interpolation-filters="sRGB"><feFlood flood-color="#fff" result="bg"/><feBlend in="SourceGraphic" in2="bg"/></filter><mask id="mask-47" x="408.93" y="198.17" width="19.94" height="35.54" maskUnits="userSpaceOnUse"><g class="cls-125"><g transform="translate(170.78 -6.37)"><g class="cls-32"><path class="cls-33" d="M248.3,204.54s-10.21,6.69-10.15,11.33l.18,12.17c.1,7,4.65,12.13,11.06,12,3.81-.05,8.76-5.94,8.7-9.75l-.17-11.83C257.8,210,248.31,204.56,248.3,204.54Z"/></g></g></g></mask><linearGradient id="Áåçûìÿííûé_ãðàäèåíò_29" x1="244.97" y1="226.29" x2="253.48" y2="233.15" gradientTransform="translate(-1.38 -0.7) rotate(-0.81)" gradientUnits="userSpaceOnUse"><stop offset="0" stop-color="#8390ac"/><stop offset="0.94" stop-color="#8390ac"/></linearGradient><filter id="luminosity-noclip-37" x="210.04" y="191.85" width="9.19" height="34.49" filterUnits="userSpaceOnUse" color-interpolation-filters="sRGB"><feFlood flood-color="#fff" result="bg"/><feBlend in="SourceGraphic" in2="bg"/></filter><mask id="mask-48" x="380.82" y="185.48" width="9.19" height="34.49" maskUnits="userSpaceOnUse"><g class="cls-124"><g transform="translate(170.78 -6.37)"><g class="cls-34"><path class="cls-35" d="M210,191.85l.49,34.47s8.87.81,8.71-10.78l-.1-6.57C219.07,203.56,213.81,194.16,210,191.85Z"/></g></g></g></mask><linearGradient id="Áåçûìÿííûé_ãðàäèåíò_29-2" x1="206.41" y1="210.93" x2="215.75" y2="218.45" xlink:href="#Áåçûìÿííûé_ãðàäèåíò_29"/><linearGradient id="Áåçûìÿííûé_ãðàäèåíò_37-6" x1="235.67" y1="219.49" x2="249.67" y2="219.49" xlink:href="#Áåçûìÿííûé_ãðàäèåíò_37"/><linearGradient id="Áåçûìÿííûé_ãðàäèåíò_15" x1="208.66" y1="169.12" x2="276.68" y2="169.12" gradientTransform="translate(-1.38 -0.7) rotate(-0.81)" gradientUnits="userSpaceOnUse"><stop offset="0" stop-color="#5752d0"/><stop offset="1" stop-color="#7f7cf9"/></linearGradient><linearGradient id="Áåçûìÿííûé_ãðàäèåíò_15-2" x1="212.17" y1="118.29" x2="280" y2="118.29" xlink:href="#Áåçûìÿííûé_ãðàäèåíò_15"/><linearGradient id="Áåçûìÿííûé_ãðàäèåíò_15-3" x1="212.17" y1="109.66" x2="280" y2="109.66" xlink:href="#Áåçûìÿííûé_ãðàäèåíò_15"/><linearGradient id="Áåçûìÿííûé_ãðàäèåíò_15-4" x1="237.99" y1="118.29" x2="278.81" y2="118.29" xlink:href="#Áåçûìÿííûé_ãðàäèåíò_15"/></defs><g class="cls-39"><g id="Layer_1" data-name="Layer 1"><g class="cls-40"><g class="cls-41"><g class="cls-41"><path class="cls-42" d="M152.67,402.77c0,33-28.11,59.79-62.79,59.79s-62.8-26.77-62.8-59.79S55.2,343,89.88,343,152.67,369.74,152.67,402.77Z" transform="translate(170.78 -6.37)"/></g></g><g class="cls-43"><g class="cls-43"><path class="cls-44" d="M241.9,377.53c0,38.38-32.67,69.49-73,69.49s-73-31.11-73-69.49,32.67-69.48,73-69.48S241.9,339.16,241.9,377.53Z" transform="translate(170.78 -6.37)"/></g></g><g class="cls-45"><g class="cls-45"><path class="cls-46" d="M362.92,428.45c0,29.29-24.93,53-55.7,53s-55.7-23.75-55.7-53,24.94-53.05,55.7-53.05S362.92,399.15,362.92,428.45Z" transform="translate(170.78 -6.37)"/></g></g><g class="cls-47"><g class="cls-47"><path class="cls-48" d="M309.16,396.07c0,32.06-27.3,58.05-61,58.05s-61-26-61-58.05,27.3-58.06,61-58.06S309.16,364,309.16,396.07Z" transform="translate(170.78 -6.37)"/></g></g><g class="cls-49"><g class="cls-49"><path class="cls-50" d="M470.12,424.74c0,44.74-38.09,81-85.08,81S300,469.48,300,424.74s38.09-81,85.08-81S470.12,380,470.12,424.74Z" transform="translate(170.78 -6.37)"/></g></g><g class="cls-51"><g class="cls-51"><path class="cls-52" d="M523.08,451.76c0,29.29-24.94,53-55.71,53s-55.7-23.75-55.7-53,24.94-53.05,55.7-53.05S523.08,422.46,523.08,451.76Z" transform="translate(170.78 -6.37)"/></g></g><path class="cls-53" d="M648.58,509.2c.12-1.26.19-2.53.19-3.82,0-22.6-19.23-40.92-43-40.92a45.1,45.1,0,0,0-11.17,1.41c0-.36,0-.72,0-1.08,0-28.2-24-51.05-53.61-51.05a54.39,54.39,0,0,0-43.27,20.93,44,44,0,0,0-29.47-11.15,44.7,44.7,0,0,0-14.95,2.55c-1.23-31.67-28.57-57-62.12-57-26.89,0-49.79,16.25-58.46,39a39.09,39.09,0,0,0-27.94-11.53,40,40,0,0,0-11.51,1.68c.09-.95.14-1.91.14-2.88,0-18.72-15.93-33.89-35.58-33.89a36.47,36.47,0,0,0-23.83,8.73c-6.16-21.72-27-37.71-51.75-37.71A55.33,55.33,0,0,0,158.16,338l-.45.21c-16,7.89-27.36,23.29-28.83,41.31a63.54,63.54,0,0,0-33.06-9.18c-1.62,0-3.22.08-4.81.2l.12.07c-31.45,2.24-56.24,27.22-56.24,57.74A55.21,55.21,0,0,0,37.16,444l-.88-.1a46.51,46.51,0,0,0-5.45-.33c-18,0-33.61,10.11-40.81,24.7A43.31,43.31,0,0,0-44.12,452c-18.54,0-34.3,11.26-40.19,27a36.47,36.47,0,0,0-25.25-10c-19.7,0-35.67,15.21-35.67,34,0,12.66,7.27,23.69,18,29.54l-10,4.72-2.72,5.71,733.06,1.51a45.09,45.09,0,0,0,25.19,0l29.47.06L654,527.25V510.62Z" transform="translate(170.78 -6.37)"/><g class="cls-54"><g class="cls-54"><path class="cls-55" d="M174.45,490.57c0,30.74-25.2,55.66-56.28,55.66s-56.28-24.92-56.28-55.66,25.2-55.67,56.28-55.67S174.45,459.82,174.45,490.57Z" transform="translate(170.78 -6.37)"/></g></g><g class="cls-56"><g class="cls-56"><path class="cls-57" d="M122.61,423.48c0,36.15-29.63,65.45-66.18,65.45s-66.17-29.3-66.17-65.45S19.88,358,56.43,358,122.61,387.34,122.61,423.48Z" transform="translate(170.78 -6.37)"/></g></g><g class="cls-58"><g class="cls-58"><path class="cls-59" d="M482.61,459.89c0,39.37-32.28,71.29-72.09,71.29s-72.08-31.92-72.08-71.29,32.27-71.3,72.08-71.3S482.61,420.51,482.61,459.89Z" transform="translate(170.78 -6.37)"/></g></g><g class="cls-60"><g class="cls-60"><path class="cls-61" d="M559.4,455.89c0,30.74-25.2,55.67-56.28,55.67s-56.29-24.93-56.29-55.67,25.2-55.66,56.29-55.66S559.4,425.15,559.4,455.89Z" transform="translate(170.78 -6.37)"/></g></g><g class="cls-62"><g class="cls-62"><path class="cls-63" d="M616.5,403.69c0,30.75-25.19,55.67-56.28,55.67s-56.28-24.92-56.28-55.67S529.14,348,560.22,348,616.5,373,616.5,403.69Z" transform="translate(170.78 -6.37)"/></g></g><path class="cls-64" d="M669.34,405.42c-10.35-27.31-37.68-46.81-69.77-46.81-40,0-72.66,30.37-74.13,68.37a53.36,53.36,0,0,0-17.85-3.06,52.33,52.33,0,0,0-35.16,13.39,64.82,64.82,0,0,0-51.64-25.12c-35.33,0-64,27.43-64,61.26,0,.43,0,.86,0,1.3a53.16,53.16,0,0,0-13.33-1.69,51.87,51.87,0,0,0-42.59,21.74,44,44,0,0,0-56,3.6C238,479.53,219.14,466,197,466a51.6,51.6,0,0,0-40.75,19.53c-8.58-17.51-27.16-29.64-48.7-29.64a57,57,0,0,0-7.55.52,66.81,66.81,0,0,0,2.71-18.8c0-38.38-32.5-69.5-72.58-69.5A74.46,74.46,0,0,0-9.41,379.38c-2.4-31.74-30-56.78-63.79-56.78-29.55,0-54.4,19.19-61.75,45.25a43.41,43.41,0,0,0-28.44-10.47,44.93,44.93,0,0,0-7.39.63V547.17H670.77V404C670.28,404.49,669.8,405,669.34,405.42Z" transform="translate(170.78 -6.37)"/><g class="cls-65"><path class="cls-66" d="M471.7,189.54a23.2,23.2,0,0,0-27-25.32A212.1,212.1,0,0,0,408.36,98a214.31,214.31,0,0,0-32.93-32.77A28.25,28.25,0,0,0,378,56.13,28.65,28.65,0,0,0,326.48,36a214.13,214.13,0,0,0-145.75-7.62A34.49,34.49,0,1,0,119,59.19q-4.76,3.42-9.35,7.13a211,211,0,0,0-66.74,94.21c-.86-.17-1.73-.31-2.63-.41A28.34,28.34,0,0,0,31.36,216,212.39,212.39,0,0,0,376.7,396.68a211,211,0,0,0,77.69-142.8,214.09,214.09,0,0,0,.1-44.34A23.21,23.21,0,0,0,471.7,189.54Zm-23.5,63.69c-12,113-113.7,195.27-226.75,183.28C110.7,424.78,29.55,326.91,37.57,216.64a28.34,28.34,0,0,0,11.34-54.19,206.39,206.39,0,0,1,73.52-97.93,34.49,34.49,0,0,0,60.51-30.19,206.25,206.25,0,0,1,140.32,7.18,28.65,28.65,0,0,0,48.83,29.17,207.57,207.57,0,0,1,66.6,95.45,23.2,23.2,0,0,0,7.49,44c.7.07,1.4.11,2.09.12A206.85,206.85,0,0,1,448.2,253.23Z" transform="translate(170.78 -6.37)"/><path class="cls-66" d="M372.25,156.06A23.14,23.14,0,1,0,343,120.21a149.53,149.53,0,0,0-193.78-5q-2.83,2.3-5.55,4.71a21,21,0,0,0-27.1,32,149.5,149.5,0,1,0,255.68,4.13ZM228.09,373.94c-78.55-8.32-135.68-79-127.35-157.54a142.3,142.3,0,0,1,21.09-61A21,21,0,0,0,148,124.56a143,143,0,0,1,190.83.37,23.16,23.16,0,0,0,28,34.3,142.56,142.56,0,0,1,18.84,87.36C377.3,325.14,306.63,382.27,228.09,373.94Z" transform="translate(170.78 -6.37)"/></g><path class="cls-67" d="M467,187.05a23.2,23.2,0,0,0-27-25.32,212.51,212.51,0,0,0-36.38-66.24,214.76,214.76,0,0,0-32.93-32.77,28.65,28.65,0,0,0-49-29.2A214.12,214.12,0,0,0,176,25.9,34.49,34.49,0,1,0,114.3,56.7q-4.76,3.42-9.35,7.13A211,211,0,0,0,38.21,158c-.86-.17-1.74-.31-2.63-.41a28.34,28.34,0,0,0-8.93,55.9A212.39,212.39,0,0,0,372,394.19a211,211,0,0,0,77.69-142.8,214.09,214.09,0,0,0,.1-44.34A23.21,23.21,0,0,0,467,187.05Zm-23.5,63.69c-12,113-113.7,195.27-226.75,183.28C106,422.29,24.84,324.42,32.85,214.15A28.34,28.34,0,0,0,44.2,160,206.39,206.39,0,0,1,117.72,62a34.49,34.49,0,0,0,60.51-30.19A206.25,206.25,0,0,1,318.55,39a28.65,28.65,0,0,0,48.83,29.17A207.57,207.57,0,0,1,434,163.64a23.2,23.2,0,0,0,7.49,44c.7.07,1.39.11,2.08.12A206.15,206.15,0,0,1,443.49,250.74Z" transform="translate(170.78 -6.37)"/><path class="cls-67" d="M367.54,153.57a23.14,23.14,0,1,0-29.25-35.85,149.53,149.53,0,0,0-193.78-5c-1.9,1.53-3.74,3.1-5.55,4.71a21,21,0,0,0-27.1,32,149.5,149.5,0,1,0,255.68,4.13ZM223.37,371.45C144.83,363.13,87.7,292.45,96,213.91a142.42,142.42,0,0,1,21.08-61,21,21,0,0,0,26.16-30.87,143,143,0,0,1,190.82.37,23.16,23.16,0,0,0,28,34.3,142.43,142.43,0,0,1,18.84,87.36C372.59,322.65,301.92,379.78,223.37,371.45Z" transform="translate(170.78 -6.37)"/><path class="cls-68" d="M373.92,135.92a20.79,20.79,0,1,1-20.79-20.79,20.78,20.78,0,0,1,20.79,20.79" transform="translate(170.78 -6.37)"/><path class="cls-64" d="M353.49,127.82l5.38,13.28-8.13-6.4ZM363,144.16l-8.26-19.91a1.33,1.33,0,0,0-1.29-.88,1.41,1.41,0,0,0-1.32.88l-9.07,21.83h3.11l3.6-9,10.72,8.67a1.78,1.78,0,0,0,1.14.51,1.48,1.48,0,0,0,1.51-1.49,2,2,0,0,0-.14-.6Z" transform="translate(170.78 -6.37)"/><path class="cls-69" d="M168.35,41.49a22.82,22.82,0,0,1-23.29,22.32c-12.44-.41-22.2-11.07-21.79-23.79s10.83-22.74,23.29-22.33,22.2,11.06,21.79,23.8" transform="translate(170.78 -6.37)"/><path class="cls-70" d="M124,45.75s-.85-24.09,21.33-24l-1.46-2.63-12.15,3.64-3.55,3.82L125,32.19l-1.93,6.63.37,4.49" transform="translate(170.78 -6.37)"/><path class="cls-71" d="M130.89,24.51A22.66,22.66,0,0,0,124,40.12h0a22.65,22.65,0,0,0,5.89,16h0a21.43,21.43,0,0,0,15.21,7h0a21.48,21.48,0,0,0,15.64-6h0a22.63,22.63,0,0,0,6.91-15.6h0a22.61,22.61,0,0,0-5.88-16h0a21.6,21.6,0,0,0-15.22-7h0a21.55,21.55,0,0,0-15.64,6Zm-2.06,32.57a24,24,0,0,1-6.26-17h0a24.07,24.07,0,0,1,7.35-16.58h0a23,23,0,0,1,16.66-6.43h0a23,23,0,0,1,16.21,7.5h0a23.92,23.92,0,0,1,6.25,17h0a24,24,0,0,1-7.34,16.57h0A22.94,22.94,0,0,1,145,64.58h0a22.82,22.82,0,0,1-16.21-7.5Z" transform="translate(170.78 -6.37)"/><path class="cls-72" d="M155.3,41.19l-3.46.4-4.66.38-3,0-2.93-.19L139,41l-1.91-2.2-1.39-4.43-.32-1-2-.76-1.13-2-.77-2.87,1-2.46,2.26-.71,1.77.92.8,1.91,1.05-.13.36-.43-.28-2,0-2.49.63-3.43,0-1.95,1.64-2.45,2.81-1.89,4.87-1.9,5.3,1,4.53,3.5,2,3.48,1.3,2.54.14,6.18-1.21,5.3-2,4.67-1.86,2.47" transform="translate(170.78 -6.37)"/><path class="cls-73" d="M151.9,55.94l-12.29.11-.07,2.06.81,7.25-.53.59-8.48-3.21-.57-1.07-.55-9.74L128.4,46l-.4-1.39,7-4.5,2.17-.79L139,41.74l1.58,1.51,1.87.66.85.29.9,4.5.76,1,2-.63-1.46,2.63,7.34,3.76-.95.5" transform="translate(170.78 -6.37)"/><path class="cls-74" d="M132.52,25.32l2.26-.72,1.77.92.8,1.92,1.05-.13.29-1-.45-2,.66-4.72L138.55,17l1.6-1.75,3.44-2.55-.92-1.31-4.8,2.17-2,1.48-1.19,2.36-1.78,2.27-.61,2.74.26,2.94" transform="translate(170.78 -6.37)"/><path class="cls-75" d="M136.3,17.35s1.38-3.14,6.58-4.52.3-1.11.3-1.11l-5.64,2-2.22,2.07-1,1.67,2-.1" transform="translate(170.78 -6.37)"/><path class="cls-75" d="M133.47,24.74s-1.6-6.06,5.3-6.7L138.55,17l-4.77,1-1.52,4.43.26,2.94.95-.58" transform="translate(170.78 -6.37)"/><path class="cls-76" d="M136,32.82l1.17-1.06a.74.74,0,0,1,.59.68c.07.61.15,6,3.74,9.05.34.29-2.74-.52-2.74-.52l-2.61-4.38" transform="translate(170.78 -6.37)"/><path class="cls-76" d="M151.83,31.71s.28-2.6,1-2.38a1,1,0,0,1,.69.94s-1.76,1-1.68,1.44" transform="translate(170.78 -6.37)"/><path class="cls-76" d="M159.26,22.41s-1.42.25-1.58,1.49,1.53.3,1.79.22" transform="translate(170.78 -6.37)"/><path class="cls-76" d="M148.87,22.16s-1.89.2-1.93,1.39,2.11,1.19,2.73.69" transform="translate(170.78 -6.37)"/><path class="cls-76" d="M137,27.35s-3.2-2.08-3.59-.2-1.22,3.22.34,5.25l-1.1-.38-1-2.69-.27-2.6,2.05-2,2.23.24L137,26.07l.05,1.28" transform="translate(170.78 -6.37)"/><path class="cls-76" d="M138.73,22s1.7-7.52,9.13-8.73c6.1-1,9.26.56,10.43,2,0,0-5.22-6.61-10.41-4.81s-9.13,5.28-9.11,7.59a38.56,38.56,0,0,1,0,4" transform="translate(170.78 -6.37)"/><path class="cls-76" d="M158.86,16.1s-2.49-.17-2.65,2.06a1.92,1.92,0,0,0,.14.71s2.05-2.18,3.23-.95" transform="translate(170.78 -6.37)"/><path class="cls-76" d="M147.86,18.83s-.33-3.44-3.31-1.54c-1.92,1.22-1.8,3-1.48,3.4s.22,1,.49.58.25-2,1.22-2.41,2.52-.86,3.08,0" transform="translate(170.78 -6.37)"/><path class="cls-77" d="M139.05,41.76l-8.2,3.33s2.92,13.42,1.06,17.5l-1.17-.48.07-5.08-1.93-9.65L128,44.69l8.59-5.41,2.44,2.48" transform="translate(170.78 -6.37)"/><path class="cls-77" d="M139.63,49.16l1.11,1.43-.17,5.15-1.35-.05s-.05-3.59,0-4,.23-2,.23-2" transform="translate(170.78 -6.37)"/><path class="cls-77" d="M139.43,56.49l-3.87,0,1.09.82,2.73.53" transform="translate(170.78 -6.37)"/><path class="cls-73" d="M152.67,56.06h3.19l.53,7.92-3.27.33-.45-8.26" transform="translate(170.78 -6.37)"/><path class="cls-73" d="M153.53,56.08l4.81-.1s2.14-4.92,2.15-5.17,1.94-7.17,1.94-7.17l-3.74-4.15-.76-.73-2.12,2-.26,8-2,7.34" transform="translate(170.78 -6.37)"/><path class="cls-77" d="M155.69,55.55l-3,.51.36,2.41c1.1.55,3-.76,3-.76" transform="translate(170.78 -6.37)"/><path class="cls-77" d="M156.27,40.53l5.87,4.66.23-2L158,38.8l-1.69,1.73" transform="translate(170.78 -6.37)"/><path class="cls-64" d="M141.88,72.64l-1.55-7.28L139.61,60l0-4,8.08-.17,5,.16-.75,9,.56,7-.13,1.28-6.54.3-3.93-1" transform="translate(170.78 -6.37)"/><path class="cls-75" d="M151.55,55.93s-.73,8.91.37,15.31a16.29,16.29,0,0,1-6.41,1.84l7.23,0,.88-.48L153,58.47l-.18-3" transform="translate(170.78 -6.37)"/><path class="cls-64" d="M156.52,63.32l3.39-.85,6.35-.12,1.05-2.9-1.54-5.13-2-.32-2.78.77L158.36,56,157,55.66l-1.11.41" transform="translate(170.78 -6.37)"/><path class="cls-75" d="M156.52,61.59a12.34,12.34,0,0,1,2.62-.87l-.8-4.76,1.13-.4s.64,4.5.63,5c0,0,4.79.41,5.23.43a7.77,7.77,0,0,0,.92-4l.86,2.78,0,1.54-1.44,2-1.55.3-2.58-.18-.82-1.14-3,.34-1,.32" transform="translate(170.78 -6.37)"/><path class="cls-64" d="M153.35,55.38l-1.75-4.84-1.89-2.91s.48-1.17,1.09-1.15l2,.06,1.86.76-.27,3.18-1,4.9" transform="translate(170.78 -6.37)"/><path class="cls-75" d="M153.77,53.76s-2.25-4.71-2.23-5.41c0,0,.48-1,1.07-.75s1.86,1,1.86,1l.05-1.63-2.91-.7-2,.19,3.1,8.05.69.11" transform="translate(170.78 -6.37)"/><path class="cls-64" d="M143.64,42.1l-2.37-.34L139.05,41l0,.79L140.09,43l3.39,1.65" transform="translate(170.78 -6.37)"/><path class="cls-75" d="M139.8,42.23s2.62,1.2,3.49,1l.06,1L141,43.66l-1.41-1.09.25-.34" transform="translate(170.78 -6.37)"/><path class="cls-69" d="M157.06,47a15.92,15.92,0,0,1-3.91-.67c.09-.48,0-.94.1-1.27a3.11,3.11,0,0,1,1.34-.25,2.33,2.33,0,0,0-1.47-.21,2.68,2.68,0,0,0-.23-.8c.83-.26,2.82-2.11,3.88-1.45.52.33.68,2,.69,2.91a3,3,0,0,1-.4,1.74" transform="translate(170.78 -6.37)"/><path class="cls-78" d="M157.06,47a15.92,15.92,0,0,1-3.91-.67c.09-.48,0-.94.1-1.27a3.11,3.11,0,0,1,1.34-.25,2.33,2.33,0,0,0-1.47-.21,2.68,2.68,0,0,0-.23-.8c.83-.26,2.82-2.11,3.88-1.45.52.33.68,2,.69,2.91a3,3,0,0,1-.4,1.74Z" transform="translate(170.78 -6.37)"/><path class="cls-69" d="M150.17,44.35a1.66,1.66,0,0,1,0,.32c-.47.28-1.18.26-1.7.5a4.65,4.65,0,0,1,1.8.52c0,.27,0,.56-.07.84a31.59,31.59,0,0,1-2.65,1.87,6.46,6.46,0,0,1-2.6.71c-.28-.08-.3-.43-.4-.77a10.53,10.53,0,0,1-.75-2.9c0-1.32-.09-3.56,1.33-3.26a13,13,0,0,1,3.37,1.34,3.67,3.67,0,0,0,1.7.83" transform="translate(170.78 -6.37)"/><path class="cls-78" d="M150.17,44.35a1.66,1.66,0,0,1,0,.32c-.47.28-1.18.26-1.7.5a4.65,4.65,0,0,1,1.8.52c0,.27,0,.56-.07.84a31.59,31.59,0,0,1-2.65,1.87,6.46,6.46,0,0,1-2.6.71c-.28-.08-.3-.43-.4-.77a10.53,10.53,0,0,1-.75-2.9c0-1.32-.09-3.56,1.33-3.26a13,13,0,0,1,3.37,1.34,3.67,3.67,0,0,0,1.7.83Z" transform="translate(170.78 -6.37)"/><path class="cls-69" d="M150.94,46a5.33,5.33,0,0,1-.17-1.57c2-1.22,2.22,2.29.17,1.57" transform="translate(170.78 -6.37)"/><path class="cls-78" d="M150.94,46a5.33,5.33,0,0,1-.17-1.57c2-1.22,2.22,2.29.17,1.57Z" transform="translate(170.78 -6.37)"/><path class="cls-70" d="M153.73,46.63s-.58-.89-.13-1.13.86,0,1.13-.4,0-.7.13-1.19.53-.59,1-.66,1.64-.21,1.79.22l-.47-1.56-1-.38-3.32,1.78-.2.95-.06,1.89" transform="translate(170.78 -6.37)"/><path class="cls-70" d="M144.6,49.17l-.2-4c-.12-2,.53-1.64,2.27-1.58a4.54,4.54,0,0,1,1.71.57c.44,1-.81.73.5,1.48,1.1.64,3.11-.26,2.7-1.63-.25-.32-1.3-.14-1.68-.35l-2-1.11c-.85-.47-2.79-1.19-3.71-.6-2.36,1.48,0,5.5.74,7.16" transform="translate(170.78 -6.37)"/><path class="cls-71" d="M147.86,18.83c-2.33-.63-3.55.87-4.3,2.43-.63-.17-.35-1-.17-1.46.46-1.14,2.2-2.62,3.58-2.36.58.09,1.36.65.89,1.39" transform="translate(170.78 -6.37)"/><path class="cls-71" d="M159.19,21.86h.11a28.5,28.5,0,0,0,1.54,3.3c-.49,1-3.45,1.85-3.35,0,.65-.26,1.72,0,2.3-.35a6.47,6.47,0,0,1-.6-2.95" transform="translate(170.78 -6.37)"/><path class="cls-71" d="M149,21.56a10.58,10.58,0,0,0,1.3,2.63c.31.32.93.73.59,1.58a2,2,0,0,1-.94.72c-1.13.29-3.71,0-2.8-1.41.93.06,2.14.67,2.86,0-.49-.86-1.38-2.58-1-3.54" transform="translate(170.78 -6.37)"/><path class="cls-71" d="M158.46,31.22c-1.7,1-3.6,2.14-6.36,1.78a1.85,1.85,0,0,1-.16-2.41c.27.52.06,1.45.9,1.63,1.55.32,3.42-.87,4.55-1.23.73-1.15,0-1.6-.62-2.39C155.54,27,153.88,25,154,22.71c.54-.36.55.61.62.78a22.06,22.06,0,0,0,3.41,5c.3.34.78.69.83.91.15.61-.46,1.36-.41,1.78" transform="translate(170.78 -6.37)"/><path class="cls-71" d="M136.35,29.37c-.52-.33-.61-1.64-1.21-1.69-.9-.09-.79,1.68-.83,2.72a3.29,3.29,0,0,1-.17-3.14c-.5-.27-.74.25-1,.43.47-2.63,3.92-1.09,3.25,1.68" transform="translate(170.78 -6.37)"/><path class="cls-71" d="M159.47,32.36c-.83,1.46-2,3.07-4.28,3a5.12,5.12,0,0,1,.05-1.5c1.77-.13,2.89-1,4.23-1.55" transform="translate(170.78 -6.37)"/><path class="cls-71" d="M148.47,33c1.42.82,4.11,1,6.11,1a6.68,6.68,0,0,1,.06,1.5c-2.57,0-5.55-.71-6.17-2.51" transform="translate(170.78 -6.37)"/><path class="cls-71" d="M148.15,34.37c.94,2.58,4.41,2.4,7.35,2.43a1.48,1.48,0,0,1-.8.83,7.37,7.37,0,0,1-4.84-.17,6.77,6.77,0,0,1-1.75-2.08c-.19-.28-1.25-1,0-1" transform="translate(170.78 -6.37)"/><path class="cls-79" d="M157.77,48.72a50,50,0,0,1-3.91,5.78A28.61,28.61,0,0,0,155,47.68a2.18,2.18,0,0,1,2.76,1" transform="translate(170.78 -6.37)"/><path class="cls-71" d="M163.91,56.24c-1.33.23-2.31,1.48-3.6,1.35a4.21,4.21,0,0,1,3.6-1.35" transform="translate(170.78 -6.37)"/><path class="cls-71" d="M164.43,58.33a21.24,21.24,0,0,1-3.47.09c.55-.77,2.54-.42,3.47-.09" transform="translate(170.78 -6.37)"/><path class="cls-71" d="M164.75,60.15c-1.21,0-2.73-.08-3.88-.21.7-.73,3.11-.18,3.88.21" transform="translate(170.78 -6.37)"/><path class="cls-75" d="M155,64.75c.14,1.53.69,3.11.57,4.77a5.15,5.15,0,0,1-2,.36c0-1.41-.14-3.6,0-5,.42,0,1.09-.28,1.45-.16" transform="translate(170.78 -6.37)"/><path class="cls-72" d="M153.73,42.13c-.64.38-1.17.86-1.77,1.26a3.71,3.71,0,0,1-2.94-.93c0-.06.11,0,.11-.11,1.38.69,3.18-.14,4.6-.22" transform="translate(170.78 -6.37)"/><path class="cls-79" d="M146.11,51.4c.43-1.63,2-2.46,3.37-3.34a28.66,28.66,0,0,1,3,6.39,30.42,30.42,0,0,1-6.37-3.05" transform="translate(170.78 -6.37)"/><path class="cls-71" d="M153.48,64.91c-.1,1.35,0,3.52,0,5a5.07,5.07,0,0,0,2-.36c.12-1.67-.43-3.24-.56-4.77-.35-.12-1,.19-1.46.16ZM139.7,56.75a70.86,70.86,0,0,0,2.55,15,19.59,19.59,0,0,0,10.83.55c-.48-2.75-.14-6.06-.37-9-.19-2.21,0-4.4-.26-6.65-3.71-.93-9-.49-12.75.08Zm13.66,0c-.11,2.34,0,4.68.07,7a21.23,21.23,0,0,0,2.36-.35c-.2-2.26-.08-4.82-.59-6.84a5.72,5.72,0,0,0-1.84.16Zm4.58-.24a6.6,6.6,0,0,0-1.32,0c.14,1.91.53,4,.63,6.06a5.5,5.5,0,0,0,1.51-.34,12.35,12.35,0,0,0-.82-5.68ZM164.66,63a3,3,0,0,0,1.91-3.59,17.75,17.75,0,0,0-1-4c-.33-.54-1.26-1.27-2.06-.82-1.28.77-3.5.93-4.43,1.86a31.2,31.2,0,0,1,.61,5.56c1.55.14,3.49-.33,4.78.28a17,17,0,0,0-2.89.64,6.17,6.17,0,0,0,3.12.1Zm-12.21-8.56a27.63,27.63,0,0,0-3-6.39c-1.38.87-2.91,1.69-3.37,3.34a34.67,34.67,0,0,0,6.38,3ZM155,47.69a28.7,28.7,0,0,1-1.15,6.83,52.68,52.68,0,0,0,3.91-5.78A2.14,2.14,0,0,0,155,47.69Zm-2.6-1c-.53-.07-1,.59-1.68.28-.17.18-.32.36-.5.53,1.47,1.9,2.09,4.55,3.22,6.75a29.6,29.6,0,0,0,.93-6.61c-.89,0-1.35-.87-2-.95Zm-1.62-2.29a5.2,5.2,0,0,0,.17,1.57c2.05.72,1.82-2.79-.17-1.57Zm-2.28-.84a11.7,11.7,0,0,0-3.37-1.34c-1.42-.32-1.35,1.92-1.33,3.26a10.73,10.73,0,0,0,.75,2.9c.1.34.12.69.39.77a6.75,6.75,0,0,0,2.61-.71,25.89,25.89,0,0,0,2.65-1.87c0-.28,0-.57.06-.84a4.24,4.24,0,0,0-1.8-.52c.51-.24,1.24-.22,1.71-.5a1.84,1.84,0,0,1,0-.33,3.76,3.76,0,0,1-1.7-.82ZM140,41.72c-.77.75,2,1.85,2.93,1.93,0-.48.3-.92.26-1.26-1.06-.21-2.47-.13-3.19-.67Zm9.17.65c0,.07-.09.05-.11.1a3.73,3.73,0,0,0,2.94.94c.6-.4,1.15-.89,1.76-1.26-1.43.06-3.23.89-4.59.22Zm8.31,2.82c0-.85-.17-2.58-.69-2.91-1.08-.67-3.07,1.19-3.88,1.46a2.61,2.61,0,0,1,.23.79,2.25,2.25,0,0,1,1.48.22,2.77,2.77,0,0,0-1.35.25c-.12.34,0,.8-.1,1.26a17.09,17.09,0,0,0,3.91.68,3,3,0,0,0,.4-1.75Zm-18.75-2.78c-.23-.17-1.74-2.27-2-2.19a32.85,32.85,0,0,0-8.08,4.67c2.11,5,2.86,11,2.83,16.75,2.57,1.3,4.8,3.15,8.33,3.45-.33-2.91-.61-5.53-.76-8.25-.89-.41-2.16-.05-3-.2,0-1,1.28-.4,1.41-1.08.09-.51-.7-.57-.42-1.35.66.26,1,.8,1.66,1,.68-1.36.12-3.83.25-5,0-.22.15-1.19.64-1s-.1,2.64-.1,3.72-.19,2,.21,2.63A98.44,98.44,0,0,1,150.34,55a26.85,26.85,0,0,1-2.8-1.36c-.58-.35-2.35-1.09-2.5-1.62-.25-.89.74-1.3.93-2-1.75.89-2-1-2.4-2.28A17.7,17.7,0,0,1,143,45a43.78,43.78,0,0,1-4.27-2.55Zm17.38-1.32c2.42-1.08,2.68,4.4,1.67,6.12.13.54.62.76.81,1.22-1.4,2.34-3,4.51-4.39,6.81,1-.61,2.46,0,3.65-.47.44-.15.79-1.14,1.14-1.92a41.38,41.38,0,0,0,2.5-7,8,8,0,0,0,.36-1.91c-.09-.77-1.09-1.36-1.59-1.83-1-.91-1.51-1.66-2.51-2.52-.42.59-1.29,1-1.64,1.45ZM134,19.24c-1.18,1.21-1,3.54-.94,5.23,2.09-1.21,4.76.27,4.67,2.45,1,0,.4-1.2.25-2-.51-2.55,1.16-5.23.32-7.57a6.07,6.07,0,0,0-4.3,1.88Zm8.35-7c-2.59.65-6,2.41-7.07,4.68.83-.1,1.39-.48,2.2-.51a5.2,5.2,0,0,0,1.06.07c.71-.16,1.34-1.7,1.89-2.27s1.17-.79,1.59-1.27c.27-.12.68-.1.71-.51a.4.4,0,0,0-.38-.19Zm13.34,1.11c-2.63-1.59-7.1-2.87-10-1.54-2.33,1.08-5.48,2.87-6.61,5.22.92,2.34-.43,4.41-.6,6.75-.08,1.24.51,2.35.52,3.7-.36.56-1.37.58-2.09.52-.2-1.2-.57-2.57-1.8-2.75a2.86,2.86,0,0,0-3.2,2.66c-.15,1.78,1.2,4.77,3.3,4.64.8-.05,1-.85,1.89-.82.45,1-.77,1.21-.92,1.88a4.22,4.22,0,0,0,.15,1.18,16.56,16.56,0,0,0,1.87,4.81c1,1.54,3.06,1.82,5.28,2,.43-.85,1.87-.73,2.82-.47a9.51,9.51,0,0,1-3-2.61c-1-1.16-1.94-2.36-2-3.81,1.82,2.7,3.32,5.06,6.73,6.33,2.59,1,5.69-.22,7.76-1.57a9.26,9.26,0,0,0,2-2.3,20.18,20.18,0,0,0,3.43-12.07c0-1.81,0-3.63-.55-4.88s-2.73-2.52-4-1.39c-.2-1.26,1.13-2,2.62-1.48-1-1.42-2.1-3.11-3.63-4Zm3.65,41.28c2.12-1,6.06-2.59,7.27.24a20.85,20.85,0,0,1,1.16,3.87c.3,1.49-.54,4.64-2.09,5.08a9.17,9.17,0,0,1-4.59,0,2.78,2.78,0,0,1-.54-.75,6.26,6.26,0,0,0-3.21.44c.07.88-.52,1-1.1,1.14-.45,1.6.71,3.75.36,5.2-.23,1.06-1.52,1.16-2.48,1.32a7.15,7.15,0,0,0,.06,1.56A2.32,2.32,0,0,1,152.05,74c-3.05.26-7.66.28-10.54-.88-.76-2-1.3-4.46-1.91-6.76-2.85.22-5.11-1.37-7.23-2.47-.74-.37-1.76-.61-2-1.22a10.61,10.61,0,0,1-.15-2.74,41.61,41.61,0,0,0-.76-8c-.28-1.24-.81-2.34-1.14-3.54a24.87,24.87,0,0,1-1-3.58c-.18-1.62,1.34-1.66,2.34-2.34,1.54-1,2.75-1.6,4.41-2.54a10.08,10.08,0,0,0,2.15-1.28c.35-.67-.52-1.63-.74-2.17a6.64,6.64,0,0,1-.56-2.39,4.63,4.63,0,0,1-3-2,7.43,7.43,0,0,1-.65-6.5c.08-.16.44-.49.5-.75a8,8,0,0,0-.16-1.73c0-2.79.64-5.17,2.54-5.93.87-3,3.63-3.92,6.22-5.36a17.39,17.39,0,0,1,3.16-1.22c3.95-1.3,10-.85,13.14,1.71a17.83,17.83,0,0,1,4.2,5c1.95,4.27,1.56,11.3-.06,16.38a16.36,16.36,0,0,1-1,2.5c-.29.58-1.19,1.69-1.11,2.2s1.89,2,2.28,2.39c.7.72,2,1.66,2.1,2.54a8.47,8.47,0,0,1-.77,3.08,86.44,86.44,0,0,1-2.93,8.34Z" transform="translate(170.78 -6.37)"/><path class="cls-76" d="M146.12,33.54c.11-.15.74-.36,1.59.09,0,0-1.05.13-1,1.85l-.44-.1s-.37-1.56-.14-1.84" transform="translate(170.78 -6.37)"/><path class="cls-80" d="M153.17,48.53a.48.48,0,0,1-.49.46.47.47,0,0,1-.46-.49.49.49,0,0,1,.49-.46.5.5,0,0,1,.46.49" transform="translate(170.78 -6.37)"/><path class="cls-80" d="M153.58,50.75a.48.48,0,0,1-1,0,.48.48,0,0,1,1,0" transform="translate(170.78 -6.37)"/><path class="cls-81" d="M336.26,74.85a4.07,4.07,0,0,1-3.21-1.54L321,58.37a4,4,0,0,1-.79-3.49l4.3-18.69a4.14,4.14,0,0,1,2.23-2.78l17.39-8.33a4.11,4.11,0,0,1,3.58,0l17.4,8.28a4,4,0,0,1,2.22,2.79l4.29,18.67a4.13,4.13,0,0,1-.79,3.49l-12,14.94a4.15,4.15,0,0,1-3.2,1.54l-19.37.06Z" transform="translate(170.78 -6.37)"/><path class="cls-64" d="M345.91,25.54a3.4,3.4,0,0,1,1.42.31l17.39,8.28a3.32,3.32,0,0,1,1.79,2.23L370.8,55a3.17,3.17,0,0,1-.65,2.81l-12,14.94A3.3,3.3,0,0,1,355.55,74H336.26a3.27,3.27,0,0,1-2.58-1.23l-12-14.94A3.41,3.41,0,0,1,321,55l4.28-18.66a3.28,3.28,0,0,1,1.79-2.23l17.4-8.32a4,4,0,0,1,1.43-.27Zm0-1.62h0a5,5,0,0,0-2.12.48L326.4,32.72a4.87,4.87,0,0,0-2.69,3.33l-4.28,18.66a4.81,4.81,0,0,0,.95,4.18l12,15a4.87,4.87,0,0,0,3.81,1.84H355.5a4.77,4.77,0,0,0,3.81-1.84l12-14.94a4.8,4.8,0,0,0,1-4.18L368,36.07a4.86,4.86,0,0,0-2.68-3.33L348,24.42a5,5,0,0,0-2.1-.5Z" transform="translate(170.78 -6.37)"/><path class="cls-64" d="M363.33,53.55h0c-.05,0-.07,0-.07,0s-.14,0-.2,0a3.93,3.93,0,0,0-.65-.06,1.17,1.17,0,0,1-.35,0h0a9.11,9.11,0,0,1-1.86-.31.64.64,0,0,1-.37-.38s0,0,0-.06h0l-.44-.15a13,13,0,0,0-.25-4.84,14.87,14.87,0,0,0-1.91-4.5l.35-.31v-.06a.81.81,0,0,1,.17-.52,9.56,9.56,0,0,1,1.54-1.06h0a3.07,3.07,0,0,1,.31-.17,4.47,4.47,0,0,0,.58-.35s.11-.07.17-.15.06,0,.06-.06h0a1.16,1.16,0,0,0,.25-1.54,1,1,0,0,0-.79-.38,1.32,1.32,0,0,0-.75.27h0l-.06.07-.17.14a4.79,4.79,0,0,0-.44.48,2,2,0,0,1-.25.25h0A7.47,7.47,0,0,1,356.71,41a.63.63,0,0,1-.31.1.39.39,0,0,1-.21,0h-.06l-.42.27A15.85,15.85,0,0,0,354.3,40a13.62,13.62,0,0,0-7.18-2.85l0-.44-.06-.06a.68.68,0,0,1-.28-.44,12.56,12.56,0,0,1,.11-1.85v0a2.14,2.14,0,0,1,.06-.35c0-.21.06-.42.11-.65V33h0A1.11,1.11,0,0,0,346,31.85a1.1,1.1,0,0,0-.75.35,1.12,1.12,0,0,0-.31.79h0v.29a1.93,1.93,0,0,0,.11.65,1.48,1.48,0,0,1,.06.35v0a9.39,9.39,0,0,1,.1,1.85.61.61,0,0,1-.27.44l-.06.06h0l0,.44a16.49,16.49,0,0,0-1.85.27,13.15,13.15,0,0,0-6.81,3.85l-.35-.25h-.06c-.07,0-.15,0-.21,0a.6.6,0,0,1-.31-.1,9.74,9.74,0,0,1-1.38-1.27h0a2,2,0,0,0-.25-.25c-.14-.17-.27-.31-.43-.48s-.11-.06-.17-.15-.06,0-.06-.06h0a1.21,1.21,0,0,0-.75-.27,1,1,0,0,0-.79.38,1.11,1.11,0,0,0,.25,1.54h0s0,0,.06,0,.1.1.17.14a4.57,4.57,0,0,0,.58.36,2.29,2.29,0,0,1,.31.16h0a9.08,9.08,0,0,1,1.54,1.06.66.66,0,0,1,.17.52v.07h0l.35.31c-.06.1-.14.16-.16.27a13.22,13.22,0,0,0-1.92,9.07l-.44.15s0,0,0,.06a.7.7,0,0,1-.37.37,9.08,9.08,0,0,1-1.85.32h0a1,1,0,0,0-.35,0c-.21,0-.42,0-.64.06s-.15,0-.21,0a.14.14,0,0,0-.11,0h0a1.13,1.13,0,0,0-.89,1.27,1.05,1.05,0,0,0,1.1.79.61.61,0,0,0,.27,0h0s.06,0,.06,0,.15,0,.21,0a3,3,0,0,0,.63-.25c.1,0,.2-.11.31-.15h0a9,9,0,0,1,1.79-.52h.06a.72.72,0,0,1,.44.17s0,0,.06,0h0l.48-.06a13.86,13.86,0,0,0,4.49,6.47,14.76,14.76,0,0,0,1.48,1l-.21.43c0,.05,0,.05,0,.07a.68.68,0,0,1,.06.54,9.58,9.58,0,0,1-.9,1.62v0c-.06.11-.14.17-.2.27a6.58,6.58,0,0,0-.38.54s-.06.11-.1.17-.05.06-.05.06h0a1.11,1.11,0,0,0,.44,1.48,1.07,1.07,0,0,0,.42.1,1.26,1.26,0,0,0,1-.64h0a.07.07,0,0,1,0-.06c0-.07.06-.15.1-.17a4.54,4.54,0,0,0,.21-.62c0-.11.06-.21.11-.32h0a9.28,9.28,0,0,1,.72-1.72,1,1,0,0,1,.44-.32s0,0,.06,0h0l.25-.43a13.58,13.58,0,0,0,4.81.89,12.18,12.18,0,0,0,3-.35,17.56,17.56,0,0,0,1.79-.52l.2.37s0,0,.07,0a.62.62,0,0,1,.43.32,12.52,12.52,0,0,1,.73,1.72v0c0,.11.06.21.1.32a5.67,5.67,0,0,0,.21.62l.11.17a.07.07,0,0,0,0,.06h0a1.15,1.15,0,0,0,1,.64,1.12,1.12,0,0,0,.42-.1,1.17,1.17,0,0,0,.52-.62,1.22,1.22,0,0,0-.07-.86h0s0,0,0-.06-.06-.15-.1-.17a4.33,4.33,0,0,0-.38-.54c-.06-.1-.14-.16-.21-.27v0a7.78,7.78,0,0,1-.89-1.62.93.93,0,0,1,0-.54s0,0,0-.07h0L353,62.1a13.14,13.14,0,0,0,4.53-4.43,12.13,12.13,0,0,0,1.44-3.1l.41.06c.05,0,.05,0,.07,0a.91.91,0,0,1,.43-.17h.07a7.63,7.63,0,0,1,1.79.52h0l.31.15a6.14,6.14,0,0,0,.62.25c.07,0,.15,0,.21,0a.14.14,0,0,1,.11,0h0a.61.61,0,0,0,.27,0,1.17,1.17,0,0,0,1.1-.79,1.48,1.48,0,0,0-1.06-1.12Zm-15.9-1.69-1.52.73-1.52-.73L344,50.24l1-1.31h1.68l1.05,1.31-.36,1.62Zm9-3.58a11.11,11.11,0,0,1,.25,3.48l-5.27-1.52a1,1,0,0,1-.64-1.1.79.79,0,0,1,.21-.38L355.11,45a12.26,12.26,0,0,1,1.29,3.26Zm-3-5.32-4.51,3.2a.91.91,0,0,1-1.21-.21.68.68,0,0,1-.16-.37l-.32-5.6a10.43,10.43,0,0,1,6.2,3Zm-10-2.81c.37-.07.73-.15,1.1-.21l-.31,5.49a1,1,0,0,1-.94.9.78.78,0,0,1-.41-.11L338.34,43a10.47,10.47,0,0,1,5.14-2.81ZM336.7,45l4.09,3.64a.91.91,0,0,1,.11,1.27.65.65,0,0,1-.42.27l-5.32,1.54A11.08,11.08,0,0,1,336.7,45Zm-.92,9.32,5.47-.94a.92.92,0,0,1,1,.73.82.82,0,0,1,0,.54h0l-2.1,5.06a10.72,10.72,0,0,1-4.29-5.39Zm12.55,6.84a11.43,11.43,0,0,1-2.42.27,11.77,11.77,0,0,1-3.47-.54l2.7-4.91a.94.94,0,0,1,1.11-.25,1.89,1.89,0,0,1,.41.38h0l2.64,4.78-1,.27ZM355,56.4a11,11,0,0,1-3.31,3.33l-2.17-5.18a.93.93,0,0,1,.48-1.07,1.29,1.29,0,0,1,.48-.1l5.49.94a6.58,6.58,0,0,1-1,2.08Z" transform="translate(170.78 -6.37)"/><path class="cls-82" d="M26.82,162.55h13L26.32,202.41a2.08,2.08,0,0,1-1.95,1.4H14.28A2.11,2.11,0,0,1,12.6,203a2,2,0,0,1-.27-1.86L24.87,164a2,2,0,0,1,1.95-1.4Z" transform="translate(170.78 -6.37)"/><path class="cls-83" d="M45.65,189.29H25.11a.94.94,0,0,0-.65,1.64l13.2,12.31a2.07,2.07,0,0,0,1.42.57H50.71Z" transform="translate(170.78 -6.37)"/><path class="cls-84" d="M26.82,162.55a2.08,2.08,0,0,0-2,1.44l-12.5,37.06a2.05,2.05,0,0,0,2,2.76H24.65a2.2,2.2,0,0,0,1.69-1.44l2.5-7.35,8.91,8.31a2.09,2.09,0,0,0,1.33.48h11.6L45.6,189.29H30.79l9.06-26.74Z" transform="translate(170.78 -6.37)"/><path class="cls-85" d="M43.38,164a2.07,2.07,0,0,0-2-1.4H27a2,2,0,0,1,2,1.4l12.54,37.14a2.12,2.12,0,0,1-.27,1.86,2.05,2.05,0,0,1-1.68.86H54a2.09,2.09,0,0,0,1.67-.86,2,2,0,0,0,.28-1.86Z" transform="translate(170.78 -6.37)"/><path class="cls-86" d="M135.09,126.88l3.57-3.09.32-1.39a15,15,0,0,0-21.26-.2,15.48,15.48,0,0,0-3.67,5.83l1.21-.08,6.72-.61.55-.49a8.34,8.34,0,0,1,11.43-.11Z" transform="translate(170.78 -6.37)"/><path class="cls-87" d="M143,130a15.07,15.07,0,0,0-4-7.6l-5,4.33a8.29,8.29,0,0,1,2.58,6.79l-.06.82a4.14,4.14,0,1,1-.59,8.26l-8.32-.6-.88.83-.36,5,.77.83,8.32.6A10.77,10.77,0,0,0,143,130" transform="translate(170.78 -6.37)"/><path class="cls-88" d="M118.8,148.07l8.31.59.47-6.65-8.3-.59a4.24,4.24,0,0,1-1.68-.49l-1.2.27-3.59,3.09-.38,1.11a10.78,10.78,0,0,0,6.37,2.67" transform="translate(170.78 -6.37)"/><path class="cls-89" d="M120.34,126.52a10.82,10.82,0,0,0-7.91,18.88l5.17-4.47a4.17,4.17,0,0,1,4-7.33,4.12,4.12,0,0,1,1.93,2.22l5.15-4.46a10.77,10.77,0,0,0-8.3-4.84" transform="translate(170.78 -6.37)"/><path class="cls-90" d="M436.64,183.58a4,4,0,0,0,.11,1.24,6.7,6.7,0,0,0,.42,1,.62.62,0,0,1,.08.33.54.54,0,0,1-.27.41l-.9.56a.63.63,0,0,1-.37.11.61.61,0,0,1-.41-.21,4.41,4.41,0,0,1-.49-.67c-.13-.24-.26-.51-.4-.84a5.18,5.18,0,0,1-4.17,1.8,3.84,3.84,0,0,1-2.76-1.09,4,4,0,0,1,.41-5.56,5.12,5.12,0,0,1,3.46-1,11.17,11.17,0,0,1,1.47.16c.52.09,1.05.22,1.6.36l0-1a3.08,3.08,0,0,0-.58-2.26,3.25,3.25,0,0,0-2.26-.71,6.05,6.05,0,0,0-1.51.13,11.58,11.58,0,0,0-1.53.43,5,5,0,0,1-.49.17l-.23,0c-.19,0-.29-.15-.28-.44l0-.69a.9.9,0,0,1,.12-.48,1,1,0,0,1,.4-.28,8.09,8.09,0,0,1,1.78-.58,8.24,8.24,0,0,1,2.19-.19,5.13,5.13,0,0,1,3.62,1.24,4.61,4.61,0,0,1,1.05,3.48l-.14,4.52Zm-5.74,1.94a4.37,4.37,0,0,0,1.44-.21,3.07,3.07,0,0,0,1.36-.85,2.15,2.15,0,0,0,.5-.88,4.48,4.48,0,0,0,.18-1.21l0-.59a11.54,11.54,0,0,0-1.28-.27,9.85,9.85,0,0,0-1.31-.13,3.26,3.26,0,0,0-2.1.49,2.31,2.31,0,0,0-.26,3.09A1.92,1.92,0,0,0,430.9,185.52Zm11.17,1.86a.76.76,0,0,1-.53-.15,1.12,1.12,0,0,1-.27-.56l-2.95-10.9a2.22,2.22,0,0,1-.1-.56c0-.23.12-.35.34-.34l1.37,0a.77.77,0,0,1,.54.16,1.08,1.08,0,0,1,.26.55l2.06,9.32,2.47-9.17a1,1,0,0,1,.28-.54,1,1,0,0,1,.57-.12l1.11,0a.87.87,0,0,1,.56.16,1,1,0,0,1,.25.55l1.91,9.43,2.71-9.28a1.17,1.17,0,0,1,.3-.54.9.9,0,0,1,.55-.12l1.3,0a.31.31,0,0,1,.33.36.89.89,0,0,1,0,.22,2.18,2.18,0,0,1-.11.35L451.28,187a1,1,0,0,1-.31.54.87.87,0,0,1-.53.12l-1.21,0a.8.8,0,0,1-.55-.15,1,1,0,0,1-.25-.57l-1.88-9.08-2.43,8.93a1,1,0,0,1-.29.55.87.87,0,0,1-.56.12Zm17.94,1a9,9,0,0,1-2.14-.32,6.21,6.21,0,0,1-1.59-.61,1,1,0,0,1-.42-.41.88.88,0,0,1-.08-.39l0-.71c0-.3.12-.43.33-.42a.53.53,0,0,1,.25.05l.35.15a8,8,0,0,0,1.52.53,7.79,7.79,0,0,0,1.66.22A3.77,3.77,0,0,0,462,186a1.52,1.52,0,0,0,.77-1.31,1.36,1.36,0,0,0-.35-1A3.58,3.58,0,0,0,461,183l-2-.69a4.2,4.2,0,0,1-2.19-1.5,3.36,3.36,0,0,1-.64-2,3.08,3.08,0,0,1,.43-1.54,3.7,3.7,0,0,1,1-1.12,4.37,4.37,0,0,1,1.48-.68,6.05,6.05,0,0,1,1.77-.18,6,6,0,0,1,.93.09c.32,0,.61.11.9.18s.54.16.79.25a2.91,2.91,0,0,1,.58.27,1.24,1.24,0,0,1,.41.36.73.73,0,0,1,.11.47l0,.65c0,.3-.13.45-.34.44a1.38,1.38,0,0,1-.52-.19,6.68,6.68,0,0,0-2.67-.63,3.58,3.58,0,0,0-1.87.34,1.35,1.35,0,0,0-.69,1.22,1.27,1.27,0,0,0,.38,1,4.14,4.14,0,0,0,1.52.82l2,.69a4.29,4.29,0,0,1,2.12,1.41,3.1,3.1,0,0,1,.58,2,3.52,3.52,0,0,1-.41,1.61,3.8,3.8,0,0,1-1.06,1.2,4.55,4.55,0,0,1-1.57.73A7,7,0,0,1,460,188.33Z" transform="translate(170.78 -6.37)"/><path class="cls-91" d="M462.43,195.2c-4.7,3.25-11.43,4.84-17.18,4.66a30.78,30.78,0,0,1-20.52-8.58c-.42-.4,0-.92.49-.6a41.9,41.9,0,0,0,20.62,6.18,41.48,41.48,0,0,0,16-2.74C462.58,193.79,463.21,194.67,462.43,195.2Zm2-2.12c-.57-.77-3.87-.48-5.38-.35-.44,0-.5-.35-.09-.63,2.69-1.76,7-1.09,7.47-.46s-.29,4.94-2.82,6.93c-.39.31-.74.13-.56-.29C463.64,196.92,465,193.84,464.42,193.08Z" transform="translate(170.78 -6.37)"/><g class="cls-92"><path class="cls-93" d="M262.92,330.7a5.6,5.6,0,0,0,1.18-1.2,10,10,0,0,0,1.61-6.62c0-.43-.07-.87-.12-1.31,3.16,1.28,6,1.27,8.11.18a6.55,6.55,0,0,1-.37.86,6.42,6.42,0,0,1-1.8,2.2Z" transform="translate(170.78 -6.37)"/><path class="cls-94" d="M265.6,269.15l-5.19,3.49a9.43,9.43,0,0,0,0-1.06c-.36-6.9-5.62-15-11.74-18.14-3.11-1.58-5.84-1.57-7.72-.28l5.25-3.53,0,0,.08,0h0c1.88-1.19,4.55-1.16,7.56.38,6.13,3.12,11.38,11.24,11.75,18.14C265.61,268.45,265.61,268.81,265.6,269.15Z" transform="translate(170.78 -6.37)"/><path class="cls-94" d="M279.5,317.91l-4.95,3.33.16-.11a8.26,8.26,0,0,0,3-4.74,14.93,14.93,0,0,0,.41-4.62c-.28-5.17-2.61-10.87-6.06-15.61l5.18-3.48c3.45,4.73,6,10.42,6.06,15.61C283.42,315.7,279.54,317.89,279.5,317.91Z" transform="translate(170.78 -6.37)"/><path class="cls-94" d="M272,296.16a7.83,7.83,0,0,0,1.67-5.87,14.82,14.82,0,0,0-.17-1.59c-1-6-5.48-12.51-10.66-15.14a11,11,0,0,0-2.46-.92l5.19-3.49a10.92,10.92,0,0,1,2.45.92c5.65,2.87,10.5,10.37,10.84,16.73a7.91,7.91,0,0,1-1.68,5.88Z" transform="translate(170.78 -6.37)"/><path class="cls-95" d="M264.09,329.51c1.38-1.7,1.93-5,1.5-7.94,7.72,3.15,12.43-1.61,12.52-8.36.06-6.13-2.37-11.78-6.08-17,4.17-5.31,0-14.21-4.37-18.91a17,17,0,0,0-5.42-4c-.66-.55-1.8-.11-1.82-1,.1-12.43-15.94-26.5-21.33-17-1.19,2.87,9,13.49,9,14.13,1.07,9.6,3.45,34.37,1,45.75C245.85,330.08,257.44,337.88,264.09,329.51Z" transform="translate(170.78 -6.37)"/></g><g class="cls-92"><path class="cls-94" d="M229.47,330.76a6.33,6.33,0,0,1-1.25-1.13,10.1,10.1,0,0,1-2-6.52c0-.43,0-.87,0-1.32-3.08,1.46-5.88,1.62-8.09.65a9.19,9.19,0,0,0,.42.83,6.18,6.18,0,0,0,1.93,2.09Z" transform="translate(170.78 -6.37)"/><path class="cls-94" d="M223.27,269.46l5.38,3.19c0-.34-.05-.69-.05-1.06,0-6.91,4.75-15.32,10.69-18.78,3-1.76,5.73-1.91,7.69-.72l-5.45-3.23,0,0-.07,0h0c-1.95-1.08-4.61-.9-7.53.81-5.93,3.46-10.72,11.87-10.69,18.78C223.22,268.77,223.24,269.12,223.27,269.46Z" transform="translate(170.78 -6.37)"/><path class="cls-94" d="M212.18,318.94l5.14,3-.17-.1a8.37,8.37,0,0,1-3.24-4.57,15.08,15.08,0,0,1-.67-4.58c0-5.19,2-11,5.16-15.93L213,293.61c-3.18,4.93-5.36,10.75-5.16,15.93C208.15,317,212.15,318.92,212.18,318.94Z" transform="translate(170.78 -6.37)"/><path class="cls-94" d="M218.4,296.8a7.9,7.9,0,0,1-2-5.77c0-.52,0-1,.08-1.59.63-6,4.76-12.81,9.78-15.74a11.18,11.18,0,0,1,2.4-1.05l-5.38-3.19a11,11,0,0,0-2.39,1.06c-5.48,3.19-9.89,11-9.86,17.33a7.84,7.84,0,0,0,2,5.76Z" transform="translate(170.78 -6.37)"/><path class="cls-95" d="M250.3,306.78c-.05-9.14-.25-42.68-.35-48.8-.12-.64.35-1-1-3.84-5.93-9.2-21.14,5.76-20.33,18.16,0,.85-1.13.48-1.75,1.07a16.82,16.82,0,0,0-5.19,4.3c-4.09,4.95-7.74,14.07-3.28,19.13-3.41,5.47-5.5,11.25-5.1,17.36.47,6.74,5.45,11.22,13,7.63-.26,2.94.48,6.23,1.95,7.84C235.35,337.61,251.56,321.94,250.3,306.78Z" transform="translate(170.78 -6.37)"/></g><path class="cls-96" d="M278.08,190.06s-6.95,6.64-6.89,11.28l.18,12.17a7.05,7.05,0,0,0,7,7h.32a7,7,0,0,0,6.72-7.16l-.17-11.83C285.12,195.81,278.08,190.07,278.08,190.06Z" transform="translate(170.78 -6.37)"/><path class="cls-97" d="M210.07,191s-6.95,6.65-6.88,11.28l.17,12.18a7,7,0,0,0,7,7h.32a7,7,0,0,0,6.72-7.16l-.17-11.83C217.12,196.77,210.08,191,210.07,191Z" transform="translate(170.78 -6.37)"/><path class="cls-98" d="M295.87,250.8a.43.43,0,0,0-.26-.06h-.07a.58.58,0,0,0-.22.08h0c-.89.51-1.67,3-1.72,3.11l-.79,4.79-1.21,7.38-.93,5.69,3.16,2.95,3.6-16.93C297.1,253,296.5,251.15,295.87,250.8Z" transform="translate(170.78 -6.37)"/><path class="cls-99" d="M295.28,250.83h0L276,220.24l-5.44,3.27,22.28,35.23.79-4.8c.05-.15.83-2.6,1.72-3.11h0Z" transform="translate(170.78 -6.37)"/><polygon class="cls-100" points="437.12 238.52 462.36 259.74 463.57 252.37 441.29 217.14 437.12 238.52"/><path class="cls-101" d="M301.32,247.53a.55.55,0,0,0-.59,0l-5.43,3.26h0a.58.58,0,0,1,.22-.08h.07a.43.43,0,0,1,.26.06c.63.35,1.23,2.17,1.54,7l-3.6,16.93,5.45-3.27,3.59-16.93C302.54,249.7,302,247.88,301.32,247.53Z" transform="translate(170.78 -6.37)"/><path class="cls-98" d="M194.51,252.26h0a.63.63,0,0,0-.22-.07h-.07a.41.41,0,0,0-.26.07c-.63.37-1.17,2.2-1.34,7.06l4.07,16.82,3.08-3-3.43-17.76C196.26,255.17,195.41,252.74,194.51,252.26Z" transform="translate(170.78 -6.37)"/><path class="cls-102" d="M194.51,252.26h0c.9.48,1.75,2.91,1.81,3.07l.92,4.77,21.27-35.85L213,221.14Z" transform="translate(170.78 -6.37)"/><polygon class="cls-103" points="368.02 253.72 369.43 261.06 394.06 239.13 389.29 217.88 368.02 253.72"/><path class="cls-104" d="M193.93,252.25a.46.46,0,0,1,.27-.07h.07a.63.63,0,0,1,.22.07h0L189,249.15a.57.57,0,0,0-.59,0c-.62.37-1.17,2.21-1.34,7.07L191.14,273l5.53,3.12-4.07-16.82C192.77,254.45,193.31,252.62,193.93,252.25Z" transform="translate(170.78 -6.37)"/><path class="cls-105" d="M245.23,265.41c14-.2,22.53-6.76,22.62-11.58l-45.56.65C222.51,259.29,231.17,265.61,245.23,265.41Z" transform="translate(170.78 -6.37)"/><path class="cls-106" d="M210.34,212.3c.27,18.88,10.09,37.79,11.58,40.87,0,0,0,.05,0,.08.07,4.65,8.9,10.84,23.3,10.64s23-6.65,23-11.3c0,0,10-22.21,10.19-39.16C275.85,214.42,210.34,212.3,210.34,212.3Z" transform="translate(170.78 -6.37)"/><path class="cls-107" d="M277.43,147l1,67.33c-5.08,5.45-19.3,9.37-33.41,9.57-14.76.21-28.77-5.54-34.63-10.58l-.93-65.35c-.12-8.66,15-15.91,33.78-16.17S277.31,138.31,277.43,147Z" transform="translate(170.78 -6.37)"/><g class="cls-108"><path class="cls-109" d="M248.3,204.54s-10.21,6.69-10.15,11.33l.18,12.17c.1,7,4.65,12.13,11.06,12,3.81-.05,8.76-5.94,8.7-9.75l-.17-11.83C257.8,210,248.31,204.56,248.3,204.54Z" transform="translate(170.78 -6.37)"/></g><g class="cls-110"><path class="cls-111" d="M210,191.85l.49,34.47s8.87.81,8.71-10.78l-.1-6.57C219.07,203.56,213.81,194.16,210,191.85Z" transform="translate(170.78 -6.37)"/></g><path class="cls-112" d="M244.21,200.11s-7,6.65-6.88,11.28l.17,12.17a7,7,0,0,0,7,7h.32a7,7,0,0,0,6.72-7.16l-.17-11.83C251.26,205.86,244.22,200.13,244.21,200.11Z" transform="translate(170.78 -6.37)"/><path class="cls-113" d="M277.43,147.21a28.41,28.41,0,0,1-11.61,7.53,61,61,0,0,0-22.34-3.53,61.9,61.9,0,0,0-21.5,3.86,35.78,35.78,0,0,1-12.56-7.27s.27,19.23.28,19.58c.12,8.67,15.45,15.48,34.22,15.22s33.91-7.51,33.78-16.19Z" transform="translate(170.78 -6.37)"/><path class="cls-114" d="M277.43,147c.12,8.67-15,15.92-33.78,16.19s-34.1-6.55-34.23-15.22,15-15.91,33.78-16.17S277.31,138.31,277.43,147Z" transform="translate(170.78 -6.37)"/><path class="cls-115" d="M249.06,120.49c-.05-.06-.08-.09-.08-.11,0-.19,0-.37,0-.55q-.37-5.79-.77-11.56a1.68,1.68,0,0,0-.08-.62l-.47-.26L245,106.13l-2.52-1.24L240,103.65l-2.61-1.29c-.22-.1-.43-.21-.64-.32a.11.11,0,0,1,0-.18l.59-.41,2.38-1.58,2.38-1.6,2.38-1.59,2.34-1.56.44-.3a1,1,0,0,1,.48.17l4.3,2.12,3.3,1.64,3.12,1.52.24.13a.35.35,0,0,1,.21.3c0,.11,0,.22,0,.33l.79,11.83,0,.43a1.45,1.45,0,0,1-.38.33l-3.12,2.08-2.88,1.94-1.46,1Z" transform="translate(170.78 -6.37)"/><path class="cls-116" d="M231.61,118.61c0,.39,0,.77.06,1.16s.05.77.07,1.15l.08,1.16.08,1.15.07,1.16.08,1.21.08,1.15.08,1.16.07,1.15.08,1.16c0,.38,0,.77.08,1.15-.08,0-.12,0-.15,0L221,125.79a.79.79,0,0,1-.1-.46l-.36-5.44-.42-6.44c0-.18,0-.36,0-.51l.05-.08s0,0,0,0l.23-.16.18-.12,10.16-6.8a.84.84,0,0,1,.41.14l3,1.46,3.41,1.68,3.41,1.68,1.14.56c.08,0,.17.06.21.18-.48.36-1,.68-1.49,1l-1.56,1-1.51,1c-.5.34-1,.68-1.51,1s-1,.68-1.51,1l-1.55,1C232.61,117.92,232.09,118.23,231.61,118.61Z" transform="translate(170.78 -6.37)"/><path class="cls-117" d="M249.14,127.17a1,1,0,0,0,.18-.09l10.4-6.94h.11s.05.06.05.09c.28,4.2.56,8.4.84,12.57-.06.18-.2.24-.32.32l-2.25,1.5-6,4-1.92,1.28a.39.39,0,0,1-.46,0l-3.65-1.8-4.15-2-3.16-1.55c-.12-.06-.22-.13-.32-.19a1.85,1.85,0,0,1-.08-.56q-.24-3.69-.49-7.38c-.09-1.41-.18-2.82-.28-4.23,0-.17,0-.33,0-.5a.12.12,0,0,1,.16-.09l.31.14,2.07,1,4.84,2.39,3.91,1.92Z" transform="translate(170.78 -6.37)"/><path class="cls-118" d="M247.86,122.37a4.55,4.55,0,0,0,.86-.53c.28-.17.55-.37.82-.55l.78-.52.83-.55.78-.52.82-.55.78-.52.82-.56.79-.52c.07,0,.15,0,.21.07l3.21,1.59.24.15-.14.12-9.39,6.28-.17.09-.34-.14-4-2-7.72-3.8a1.27,1.27,0,0,0-.51-.2,5.87,5.87,0,0,0,0,.94c0,.33,0,.66.06,1l.06.94.07,1,.06.94c0,.33,0,.66.07,1l.06.93.06,1c0,.32.05.63.06.91a1.25,1.25,0,0,1-.4.34l-.46.3-.41.28-.41.27-.41.28-.46.31c-.14.09-.27.19-.42.27s-.24.22-.44.24a1.59,1.59,0,0,1-.07-.48l0-.5,0-.55,0-.49,0-.5,0-.49,0-.5,0-.49,0-.55,0-.5,0-.49,0-.5,0-.49,0-.5,0-.55,0-.49,0-.5,0-.49,0-.5,0-.49,0-.55,0-.5c0-.16,0-.32,0-.45a.54.54,0,0,1,.26-.26l4.76-3.19,6.28-4.19.25-.21s0-.06,0-.11l-7.71-3.8a.8.8,0,0,1-.05-.21l-.24-3.64a1.41,1.41,0,0,1,0-.2h.08l.1,0,10.19,5,.09.08a1.27,1.27,0,0,1,.06.48q.25,3.67.49,7.37c.12,1.84.25,3.67.37,5.51C247.83,121.94,247.85,122.12,247.86,122.37Z" transform="translate(170.78 -6.37)"/><path class="cls-119" d="M277.73,145.41l0,1.56c.13,8.67-15,15.91-33.78,16.18-17.59.25-32.15-5.71-34-13.59l-.08-5.6c-.46-32.51,33-78.86,33-78.86S277.17,105.62,277.73,145.41Z" transform="translate(170.78 -6.37)"/><path class="cls-120" d="M231.84,147a1.3,1.3,0,1,0,1.84,0A1.3,1.3,0,0,0,231.84,147Z" transform="translate(170.78 -6.37)"/><path class="cls-64" d="M258.29,147.56a1.3,1.3,0,1,0,1.83,0A1.3,1.3,0,0,0,258.29,147.56Z" transform="translate(170.78 -6.37)"/><path class="cls-120" d="M242.73,125.41a1.4,1.4,0,1,0,2,0A1.4,1.4,0,0,0,242.73,125.41Z" transform="translate(170.78 -6.37)"/><path class="cls-120" d="M242,130.22a.85.85,0,0,0,0,1.19.83.83,0,0,0,1.2-1.16A.83.83,0,0,0,242,130.22Z" transform="translate(170.78 -6.37)"/><path class="cls-121" d="M240.65,128.61a.55.55,0,0,0,0,.76.54.54,0,0,0,.76,0,.54.54,0,1,0-.75-.78Z" transform="translate(170.78 -6.37)"/><path class="cls-121" d="M261.2,140.39a.53.53,0,1,0,.76,0A.54.54,0,0,0,261.2,140.39Z" transform="translate(170.78 -6.37)"/><path class="cls-120" d="M236.29,116.23a.17.17,0,0,0,0,.23.16.16,0,0,0,.24-.22A.17.17,0,0,0,236.29,116.23Z" transform="translate(170.78 -6.37)"/><path class="cls-121" d="M237.37,123a.16.16,0,0,0,.23.23.16.16,0,0,0,0-.22A.16.16,0,0,0,237.37,123Z" transform="translate(170.78 -6.37)"/><path class="cls-121" d="M251.91,147.2a.16.16,0,1,0,.23.23.16.16,0,0,0,0-.23A.15.15,0,0,0,251.91,147.2Z" transform="translate(170.78 -6.37)"/><path class="cls-121" d="M250.39,145.17a.17.17,0,0,0,0,.23.15.15,0,0,0,.23,0,.16.16,0,0,0,0-.23A.17.17,0,0,0,250.39,145.17Z" transform="translate(170.78 -6.37)"/><path class="cls-120" d="M225.09,122.77a2,2,0,1,0,2.81,0A2,2,0,0,0,225.09,122.77Z" transform="translate(170.78 -6.37)"/><path class="cls-64" d="M221.06,139.94a1,1,0,1,0,1.38,1.42,1,1,0,0,0-1.38-1.42Z" transform="translate(170.78 -6.37)"/><path class="cls-120" d="M239.35,136a1,1,0,0,0,0,1.4,1,1,0,1,0,0-1.4Z" transform="translate(170.78 -6.37)"/><path class="cls-120" d="M229.06,111.74a1,1,0,0,0,0,1.4,1,1,0,0,0,1.42-1.37A1,1,0,0,0,229.06,111.74Z" transform="translate(170.78 -6.37)"/><path class="cls-120" d="M218.16,131.69a1,1,0,1,0,1.39,0A1,1,0,0,0,218.16,131.69Z" transform="translate(170.78 -6.37)"/><path class="cls-120" d="M258.74,133a1,1,0,0,0,0,1.4,1,1,0,0,0,1.39,0,1,1,0,1,0-1.37-1.42Z" transform="translate(170.78 -6.37)"/><path class="cls-120" d="M246.13,112.5a1,1,0,1,0,1.39,0A1,1,0,0,0,246.13,112.5Z" transform="translate(170.78 -6.37)"/><path class="cls-64" d="M265.1,118.18a.48.48,0,1,0,.67,0A.48.48,0,0,0,265.1,118.18Z" transform="translate(170.78 -6.37)"/><path class="cls-120" d="M235.74,144.67a.58.58,0,1,0,.82,0A.57.57,0,0,0,235.74,144.67Z" transform="translate(170.78 -6.37)"/><path class="cls-64" d="M233.55,118.78a.58.58,0,1,0,.82,0A.58.58,0,0,0,233.55,118.78Z" transform="translate(170.78 -6.37)"/><path class="cls-64" d="M219.88,120.07a.39.39,0,1,0,.55.56.4.4,0,0,0,0-.55A.4.4,0,0,0,219.88,120.07Z" transform="translate(170.78 -6.37)"/><path class="cls-64" d="M224.46,132.78a.56.56,0,0,0,0,.8.57.57,0,1,0,0-.8Z" transform="translate(170.78 -6.37)"/><path class="cls-64" d="M224.63,134.49a.33.33,0,0,0,0,.45.31.31,0,0,0,.44,0,.33.33,0,0,0,0-.45A.34.34,0,0,0,224.63,134.49Z" transform="translate(170.78 -6.37)"/><path class="cls-120" d="M228.69,103.89a1.4,1.4,0,1,0,1.66,2.25,1.4,1.4,0,1,0-1.66-2.25Z" transform="translate(170.78 -6.37)"/><path class="cls-120" d="M232.78,98.7a.84.84,0,0,0-.18,1.17.83.83,0,0,0,1.17.17.83.83,0,1,0-1-1.34Z" transform="translate(170.78 -6.37)"/><path class="cls-121" d="M234.25,101a.54.54,0,1,0,.64.87.53.53,0,0,0,.11-.75A.54.54,0,0,0,234.25,101Z" transform="translate(170.78 -6.37)"/><path class="cls-120" d="M237.8,104.88a.16.16,0,1,0,.2.26.16.16,0,0,0-.2-.26Z" transform="translate(170.78 -6.37)"/><path class="cls-121" d="M246.67,100.73a.17.17,0,0,0-.17.16.16.16,0,0,0,.16.16.17.17,0,0,0,.17-.16A.16.16,0,0,0,246.67,100.73Z" transform="translate(170.78 -6.37)"/><path class="cls-120" d="M256.67,99.11a2,2,0,1,0,1.95,2A2,2,0,0,0,256.67,99.11Z" transform="translate(170.78 -6.37)"/><path class="cls-120" d="M247,105.7a1,1,0,1,0,1.38.21A1,1,0,0,0,247,105.7Z" transform="translate(170.78 -6.37)"/><path class="cls-120" d="M261.3,119.34a1,1,0,1,0,1,1A1,1,0,0,0,261.3,119.34Z" transform="translate(170.78 -6.37)"/><path class="cls-120" d="M243.2,76a1,1,0,0,0-1,1,1,1,0,0,0,2,0A1,1,0,0,0,243.2,76Z" transform="translate(170.78 -6.37)"/><path class="cls-120" d="M246.32,90.83a1,1,0,0,0-1,1,1,1,0,1,0,2,0A1,1,0,0,0,246.32,90.83Z" transform="translate(170.78 -6.37)"/><path class="cls-64" d="M238.28,80.43a.48.48,0,0,0-.48.47.46.46,0,0,0,.46.48.47.47,0,0,0,.49-.46A.49.49,0,0,0,238.28,80.43Z" transform="translate(170.78 -6.37)"/><path class="cls-64" d="M252.24,101.15a.58.58,0,0,0-.59.57.58.58,0,1,0,1.16,0A.58.58,0,0,0,252.24,101.15Z" transform="translate(170.78 -6.37)"/><path class="cls-64" d="M251.58,110.88a.39.39,0,0,0-.39.38.38.38,0,0,0,.38.4.39.39,0,1,0,0-.78Z" transform="translate(170.78 -6.37)"/><path class="cls-64" d="M257.59,115a.57.57,0,1,0,.56.57A.57.57,0,0,0,257.59,115Z" transform="translate(170.78 -6.37)"/><path class="cls-64" d="M253.44,110.84a.33.33,0,0,0-.32.31.32.32,0,1,0,.63,0A.32.32,0,0,0,253.44,110.84Z" transform="translate(170.78 -6.37)"/><path class="cls-120" d="M231.5,139a.41.41,0,0,0,.57.59.41.41,0,1,0-.57-.59Z" transform="translate(170.78 -6.37)"/><path class="cls-120" d="M255.62,140a.41.41,0,0,0,.57.59.41.41,0,1,0-.57-.59Z" transform="translate(170.78 -6.37)"/><path class="cls-64" d="M240.88,92.14a1,1,0,1,0,1.41,0A1,1,0,0,0,240.88,92.14Z" transform="translate(170.78 -6.37)"/><path class="cls-122" d="M277.73,145.41s-3.12-27.95-18.15-37.69c-7.27-4.72-4.89-30.48-16.06-28.57-13.63,2.34-.9,30.4-13.89,33.7C219.16,115.51,209.87,144,209.87,144c-.46-32.51,33-78.86,33-78.86S277.17,105.62,277.73,145.41Z" transform="translate(170.78 -6.37)"/><path class="cls-123" d="M277.73,145.41l0,1.56c.13,8.67-15,15.91-33.78,16.18-17.59.25,3.4-21.35,9.75-26.39,11.86-9.42-24.05-21.16-9.36-34.41,8.84-8-5.05-14.95-1.51-37.25C242.9,65.21,277.17,105.62,277.73,145.41Z" transform="translate(170.78 -6.37)"/></g></g></g></svg>