<svg xmlns="http://www.w3.org/2000/svg" xmlns:xlink="http://www.w3.org/1999/xlink" viewBox="0 0 155.47 155.47"><defs><style>.cls-1{isolation:isolate;}.cls-2{mix-blend-mode:multiply;}.cls-156,.cls-3{fill:#fff;}.cls-3{opacity:0;}.cls-4{fill:#fefefe;opacity:0.01;}.cls-5{fill:#fdfdfd;opacity:0.01;}.cls-6{fill:#fcfbfb;opacity:0.02;}.cls-7{fill:#fbfafa;opacity:0.03;}.cls-8{fill:#faf9f9;opacity:0.03;}.cls-9{fill:#f9f9f8;opacity:0.04;}.cls-10{fill:#f8f8f8;opacity:0.05;}.cls-11{fill:#f7f7f7;opacity:0.05;}.cls-12{fill:#f7f6f6;opacity:0.06;}.cls-13{fill:#f6f5f5;opacity:0.07;}.cls-14{fill:#f5f5f4;opacity:0.07;}.cls-15{fill:#f5f4f4;opacity:0.08;}.cls-16{fill:#f4f3f3;opacity:0.09;}.cls-17,.cls-18{fill:#f3f2f2;}.cls-17{opacity:0.09;}.cls-18{opacity:0.1;}.cls-19{fill:#f2f1f1;opacity:0.11;}.cls-20,.cls-21{fill:#f1f0f0;}.cls-20{opacity:0.11;}.cls-21{opacity:0.12;}.cls-22{fill:#f0efef;opacity:0.13;}.cls-23{fill:#efefef;opacity:0.13;}.cls-24{fill:#efeeee;opacity:0.14;}.cls-25,.cls-26{fill:#eeeded;}.cls-25{opacity:0.15;}.cls-26{opacity:0.15;}.cls-27{fill:#edecec;opacity:0.16;}.cls-28{fill:#ececec;opacity:0.17;}.cls-29{fill:#ecebeb;opacity:0.17;}.cls-30,.cls-31{fill:#ebeaea;}.cls-30{opacity:0.18;}.cls-31{opacity:0.19;}.cls-32{fill:#eae9e9;opacity:0.19;}.cls-33{fill:#e9e9e9;opacity:0.2;}.cls-34{fill:#e9e8e8;opacity:0.21;}.cls-35{fill:#e8e7e8;opacity:0.21;}.cls-36{fill:#e8e7e7;opacity:0.22;}.cls-37,.cls-38{fill:#e7e6e6;}.cls-37{opacity:0.23;}.cls-38{opacity:0.23;}.cls-39{fill:#e6e5e5;opacity:0.24;}.cls-40{fill:#e5e4e5;opacity:0.25;}.cls-41{fill:#e5e4e4;opacity:0.25;}.cls-42{fill:#e4e3e4;opacity:0.26;}.cls-43{fill:#e3e3e3;opacity:0.26;}.cls-44{fill:#e3e2e3;opacity:0.27;}.cls-45{fill:#e2e1e2;opacity:0.28;}.cls-46{fill:#e2e1e1;opacity:0.28;}.cls-47{fill:#e1e0e1;opacity:0.29;}.cls-48{fill:#e0e0e0;opacity:0.3;}.cls-49{fill:#e0dfe0;opacity:0.3;}.cls-50{fill:#dfdfdf;opacity:0.31;}.cls-51{fill:#dfdedf;opacity:0.32;}.cls-52,.cls-53{fill:#deddde;}.cls-52{opacity:0.32;}.cls-53{opacity:0.33;}.cls-54{fill:#dddcdd;opacity:0.34;}.cls-55{fill:#dcdcdc;opacity:0.34;}.cls-56{fill:#dcdbdc;opacity:0.35;}.cls-57{fill:#dbdbdb;opacity:0.36;}.cls-58{fill:#dbdadb;opacity:0.36;}.cls-59{fill:#dad9da;opacity:0.37;}.cls-60{fill:#d9d9da;opacity:0.38;}.cls-61{fill:#d9d8d9;opacity:0.38;}.cls-62{fill:#d8d8d9;opacity:0.39;}.cls-63{fill:#d8d7d8;opacity:0.4;}.cls-64{fill:#d7d7d8;opacity:0.4;}.cls-65{fill:#d7d6d7;opacity:0.41;}.cls-66{fill:#d6d6d7;opacity:0.42;}.cls-67{fill:#d6d5d6;opacity:0.42;}.cls-68{fill:#d5d5d5;opacity:0.43;}.cls-69{fill:#d4d4d5;opacity:0.44;}.cls-70{fill:#d4d3d4;opacity:0.44;}.cls-71{fill:#d3d3d4;opacity:0.45;}.cls-72{fill:#d3d2d3;opacity:0.46;}.cls-73{fill:#d2d2d3;opacity:0.46;}.cls-74{fill:#d2d1d2;opacity:0.47;}.cls-75{fill:#d1d1d2;opacity:0.48;}.cls-76{fill:#d1d0d1;opacity:0.48;}.cls-77{fill:#d0d0d1;opacity:0.49;}.cls-78{fill:#d0cfd0;opacity:0.5;}.cls-79{fill:#cfcfd0;opacity:0.5;}.cls-80,.cls-81{fill:#cececf;}.cls-80{opacity:0.51;}.cls-81{opacity:0.52;}.cls-82,.cls-83{fill:#cdcdce;}.cls-82{opacity:0.52;}.cls-83{opacity:0.53;}.cls-84,.cls-85{fill:#cccccd;}.cls-84{opacity:0.54;}.cls-85{opacity:0.54;}.cls-86{fill:#cbcbcc;opacity:0.55;}.cls-87{fill:#cbcacc;opacity:0.56;}.cls-88{fill:#cacacb;opacity:0.56;}.cls-89{fill:#cac9cb;opacity:0.57;}.cls-90{fill:#c9c9ca;opacity:0.58;}.cls-91{fill:#c9c8ca;opacity:0.58;}.cls-92{fill:#c8c8c9;opacity:0.59;}.cls-93{fill:#c8c7c9;opacity:0.6;}.cls-94{fill:#c7c7c8;opacity:0.6;}.cls-95{fill:#c7c6c8;opacity:0.61;}.cls-96{fill:#c6c6c7;opacity:0.62;}.cls-97{fill:#c5c5c7;opacity:0.62;}.cls-98{fill:#c5c5c6;opacity:0.63;}.cls-99{fill:#c4c4c6;opacity:0.64;}.cls-100{fill:#c4c4c5;opacity:0.64;}.cls-101,.cls-102{fill:#c3c3c5;}.cls-101{opacity:0.65;}.cls-102{opacity:0.66;}.cls-103,.cls-104{fill:#c2c2c4;}.cls-103{opacity:0.66;}.cls-104{opacity:0.67;}.cls-105,.cls-106{fill:#c1c1c3;}.cls-105{opacity:0.68;}.cls-106{opacity:0.68;}.cls-107,.cls-108{fill:#c0c0c2;}.cls-107{opacity:0.69;}.cls-108{opacity:0.7;}.cls-109{fill:#bfbfc1;opacity:0.7;}.cls-110{fill:#bebfc1;opacity:0.71;}.cls-111{fill:#bebec0;opacity:0.72;}.cls-112{fill:#bdbec0;opacity:0.72;}.cls-113{fill:#bdbdbf;opacity:0.73;}.cls-114{fill:#bcbdbf;opacity:0.74;}.cls-115{fill:#bcbcbe;opacity:0.74;}.cls-116{fill:#bbbcbe;opacity:0.75;}.cls-117{fill:#bbbbbd;opacity:0.75;}.cls-118{fill:#babbbd;opacity:0.76;}.cls-119{fill:#bababc;opacity:0.77;}.cls-120{fill:#b9babc;opacity:0.77;}.cls-121{fill:#b9b9bc;opacity:0.78;}.cls-122{fill:#b8b9bb;opacity:0.79;}.cls-123{fill:#b8b8bb;opacity:0.79;}.cls-124{fill:#b7b8ba;opacity:0.8;}.cls-125{fill:#b7b7ba;opacity:0.81;}.cls-126{fill:#b6b7b9;opacity:0.81;}.cls-127{fill:#b6b6b9;opacity:0.82;}.cls-128{fill:#b5b6b8;opacity:0.83;}.cls-129{fill:#b5b5b8;opacity:0.83;}.cls-130{fill:#b4b5b7;opacity:0.84;}.cls-131{fill:#b3b4b7;opacity:0.85;}.cls-132{fill:#b3b4b6;opacity:0.85;}.cls-133,.cls-134{fill:#b2b3b6;}.cls-133{opacity:0.86;}.cls-134{opacity:0.87;}.cls-135{fill:#b1b3b5;opacity:0.87;}.cls-136{fill:#b1b2b5;opacity:0.88;}.cls-137{fill:#b0b2b4;opacity:0.89;}.cls-138{fill:#b0b1b4;opacity:0.89;}.cls-139{fill:#afb1b3;opacity:0.9;}.cls-140{fill:#afb0b3;opacity:0.91;}.cls-141{fill:#aeb0b2;opacity:0.91;}.cls-142{fill:#aeafb2;opacity:0.92;}.cls-143{fill:#adafb1;opacity:0.93;}.cls-144{fill:#adaeb1;opacity:0.93;}.cls-145{fill:#acaeb1;opacity:0.94;}.cls-146{fill:#acadb0;opacity:0.95;}.cls-147{fill:#abadb0;opacity:0.95;}.cls-148{fill:#abacaf;opacity:0.96;}.cls-149{fill:#aaacaf;opacity:0.97;}.cls-150{fill:#aaabae;opacity:0.97;}.cls-151,.cls-152{fill:#a9abae;}.cls-151{opacity:0.98;}.cls-152{opacity:0.99;}.cls-153,.cls-154{fill:#a8aaad;}.cls-153{opacity:0.99;}.cls-155{fill:url(#linear-gradient);}.cls-157{fill:#2d3f50;}</style><linearGradient id="linear-gradient" x1="68.47" y1="87" x2="140.54" y2="14.93" gradientUnits="userSpaceOnUse"><stop offset="0" stop-color="#fff"/><stop offset="0.26" stop-color="#fbfbfb"/><stop offset="0.5" stop-color="#f0f0f1"/><stop offset="0.73" stop-color="#ddddde"/><stop offset="0.96" stop-color="#c2c3c5"/><stop offset="1" stop-color="#bdbec0"/></linearGradient></defs><g class="cls-1"><g id="Layer_2" data-name="Layer 2"><g id="Layer_1-2" data-name="Layer 1"><g class="cls-2"><path class="cls-3" d="M14.82,68.58a51,51,0,0,0,72.07,72.07Z"/><path class="cls-4" d="M15.17,68.22a51,51,0,0,0,72.07,72.07Z"/><path class="cls-5" d="M15.53,67.87A51,51,0,0,0,87.6,139.94Z"/><path class="cls-6" d="M15.88,67.51A51,51,0,0,0,88,139.58Z"/><path class="cls-7" d="M16.24,67.16a51,51,0,0,0,72.07,72.07Z"/><path class="cls-8" d="M16.59,66.8a51,51,0,0,0,72.07,72.08Z"/><path class="cls-9" d="M17,66.45A51,51,0,0,0,89,138.52Z"/><path class="cls-10" d="M17.3,66.1a51,51,0,0,0,72.07,72.07Z"/><path class="cls-11" d="M17.66,65.74a51,51,0,0,0,72.07,72.07Z"/><path class="cls-12" d="M18,65.39a51,51,0,0,0,72.07,72.07Z"/><path class="cls-13" d="M18.36,65A51,51,0,0,0,90.44,137.1Z"/><path class="cls-14" d="M18.72,64.68a51,51,0,0,0,72.07,72.07Z"/><path class="cls-15" d="M19.07,64.32a51,51,0,0,0,72.07,72.07Z"/><path class="cls-16" d="M19.43,64A51,51,0,0,0,91.5,136Z"/><path class="cls-17" d="M19.78,63.61a51,51,0,0,0,72.07,72.07Z"/><path class="cls-18" d="M20.14,63.26a51,51,0,0,0,72.07,72.07Z"/><path class="cls-19" d="M20.49,62.9A51,51,0,0,0,92.56,135Z"/><path class="cls-20" d="M20.85,62.55a51,51,0,0,0,72.07,72.07Z"/><path class="cls-21" d="M21.2,62.19a51,51,0,0,0,72.07,72.08Z"/><path class="cls-22" d="M21.56,61.84a51,51,0,0,0,72.07,72.07Z"/><path class="cls-23" d="M21.91,61.49A51,51,0,0,0,94,133.56Z"/><path class="cls-24" d="M22.26,61.13A51,51,0,0,0,94.34,133.2Z"/><path class="cls-25" d="M22.62,60.78a51,51,0,0,0,72.07,72.07Z"/><path class="cls-26" d="M23,60.42A51,51,0,0,0,95,132.49Z"/><path class="cls-27" d="M23.33,60.07A51,51,0,0,0,95.4,132.14Z"/><path class="cls-28" d="M23.68,59.71a51,51,0,0,0,72.07,72.07Z"/><path class="cls-29" d="M24,59.36a51,51,0,0,0,72.07,72.07Z"/><path class="cls-30" d="M24.39,59a51,51,0,0,0,72.07,72.07Z"/><path class="cls-31" d="M24.75,58.65a51,51,0,0,0,72.07,72.07Z"/><path class="cls-32" d="M25.1,58.29a51,51,0,0,0,72.07,72.08Z"/><path class="cls-33" d="M25.46,57.94A51,51,0,0,0,97.53,130Z"/><path class="cls-34" d="M25.81,57.59a51,51,0,0,0,72.07,72.07Z"/><path class="cls-35" d="M26.17,57.23A51,51,0,0,0,98.24,129.3Z"/><path class="cls-36" d="M26.52,56.88A51,51,0,0,0,98.59,129Z"/><path class="cls-37" d="M26.87,56.52A51,51,0,0,0,99,128.59Z"/><path class="cls-38" d="M27.23,56.17A51,51,0,0,0,99.3,128.24Z"/><path class="cls-39" d="M27.58,55.81a51,51,0,0,0,72.07,72.07Z"/><path class="cls-40" d="M27.94,55.46A51,51,0,0,0,100,127.53Z"/><path class="cls-41" d="M28.29,55.1a51,51,0,0,0,72.07,72.07Z"/><path class="cls-42" d="M28.65,54.75a51,51,0,0,0,72.07,72.07Z"/><path class="cls-43" d="M29,54.39a51,51,0,0,0,72.07,72.07Z"/><path class="cls-44" d="M29.36,54a51,51,0,0,0,72.07,72.07Z"/><path class="cls-45" d="M29.71,53.68a51,51,0,0,0,72.07,72.08Z"/><path class="cls-46" d="M30.07,53.33a51,51,0,0,0,72.07,72.07Z"/><path class="cls-47" d="M30.42,53a51,51,0,0,0,72.07,72.07Z"/><path class="cls-48" d="M30.78,52.62a51,51,0,0,0,72.07,72.07Z"/><path class="cls-49" d="M31.13,52.27a51,51,0,0,0,72.07,72.07Z"/><path class="cls-50" d="M31.48,51.91A51,51,0,0,0,103.56,124Z"/><path class="cls-51" d="M31.84,51.56a51,51,0,0,0,72.07,72.07Z"/><path class="cls-52" d="M32.19,51.2a51,51,0,0,0,72.07,72.07Z"/><path class="cls-53" d="M32.55,50.85a51,51,0,0,0,72.07,72.07Z"/><path class="cls-54" d="M32.9,50.49A51,51,0,0,0,105,122.56Z"/><path class="cls-55" d="M33.26,50.14a51,51,0,0,0,72.07,72.07Z"/><path class="cls-56" d="M33.61,49.78a51,51,0,0,0,72.07,72.08Z"/><path class="cls-57" d="M34,49.43A51,51,0,0,0,106,121.5Z"/><path class="cls-58" d="M34.32,49.07a51,51,0,0,0,72.07,72.08Z"/><path class="cls-59" d="M34.68,48.72a51,51,0,0,0,72.07,72.07Z"/><path class="cls-60" d="M35,48.37a51,51,0,0,0,72.07,72.07Z"/><path class="cls-61" d="M35.38,48a51,51,0,0,0,72.08,72.07Z"/><path class="cls-62" d="M35.74,47.66a51,51,0,0,0,72.07,72.07Z"/><path class="cls-63" d="M36.09,47.3a51,51,0,0,0,72.07,72.07Z"/><path class="cls-64" d="M36.45,47A51,51,0,0,0,108.52,119Z"/><path class="cls-65" d="M36.8,46.59a51,51,0,0,0,72.07,72.07Z"/><path class="cls-66" d="M37.16,46.24a51,51,0,0,0,72.07,72.07Z"/><path class="cls-67" d="M37.51,45.88A51,51,0,0,0,109.58,118Z"/><path class="cls-68" d="M37.87,45.53a51,51,0,0,0,72.07,72.07Z"/><path class="cls-69" d="M38.22,45.17a51,51,0,0,0,72.07,72.08Z"/><path class="cls-70" d="M38.58,44.82a51,51,0,0,0,72.07,72.07Z"/><path class="cls-71" d="M38.93,44.47A51,51,0,0,0,111,116.54Z"/><path class="cls-72" d="M39.29,44.11a51,51,0,0,0,72.07,72.07Z"/><path class="cls-73" d="M39.64,43.76a51,51,0,0,0,72.07,72.07Z"/><path class="cls-74" d="M40,43.4a51,51,0,0,0,72.08,72.07Z"/><path class="cls-75" d="M40.35,43.05a51,51,0,0,0,72.07,72.07Z"/><path class="cls-76" d="M40.7,42.69a51,51,0,0,0,72.07,72.07Z"/><path class="cls-77" d="M41.06,42.34a51,51,0,0,0,72.07,72.07Z"/><path class="cls-78" d="M41.41,42a51,51,0,0,0,72.07,72.07Z"/><path class="cls-79" d="M41.77,41.63a51,51,0,0,0,72.07,72.07Z"/><path class="cls-80" d="M42.12,41.27a51,51,0,0,0,72.07,72.07Z"/><path class="cls-81" d="M42.48,40.92A51,51,0,0,0,114.55,113Z"/><path class="cls-82" d="M42.83,40.56a51,51,0,0,0,72.07,72.08Z"/><path class="cls-83" d="M43.19,40.21a51,51,0,0,0,72.07,72.07Z"/><path class="cls-84" d="M43.54,39.86a51,51,0,0,0,72.07,72.07Z"/><path class="cls-85" d="M43.89,39.5A51,51,0,0,0,116,111.57Z"/><path class="cls-86" d="M44.25,39.15a51,51,0,0,0,72.07,72.07Z"/><path class="cls-87" d="M44.6,38.79a51,51,0,0,0,72.07,72.07Z"/><path class="cls-88" d="M45,38.44A51,51,0,0,0,117,110.51Z"/><path class="cls-89" d="M45.31,38.08a51,51,0,0,0,72.07,72.07Z"/><path class="cls-90" d="M45.67,37.73a51,51,0,0,0,72.07,72.07Z"/><path class="cls-91" d="M46,37.37a51,51,0,0,0,72.07,72.07Z"/><path class="cls-92" d="M46.38,37a51,51,0,0,0,72.07,72.07Z"/><path class="cls-93" d="M46.73,36.66a51,51,0,0,0,72.07,72.08Z"/><path class="cls-94" d="M47.09,36.31a51,51,0,0,0,72.07,72.07Z"/><path class="cls-95" d="M47.44,36A51,51,0,0,0,119.51,108Z"/><path class="cls-96" d="M47.8,35.6a51,51,0,0,0,72.07,72.07Z"/><path class="cls-97" d="M48.15,35.25a51,51,0,0,0,72.07,72.07Z"/><path class="cls-98" d="M48.5,34.89A51,51,0,0,0,120.58,107Z"/><path class="cls-99" d="M48.86,34.54a51,51,0,0,0,72.07,72.07Z"/><path class="cls-100" d="M49.21,34.18a51,51,0,0,0,72.07,72.07Z"/><path class="cls-101" d="M49.57,33.83a51,51,0,0,0,72.07,72.07Z"/><path class="cls-102" d="M49.92,33.47A51,51,0,0,0,122,105.54Z"/><path class="cls-103" d="M50.28,33.12a51,51,0,0,0,72.07,72.07Z"/><path class="cls-104" d="M50.63,32.76a51,51,0,0,0,72.07,72.07Z"/><path class="cls-105" d="M51,32.41a51,51,0,0,0,72.07,72.07Z"/><path class="cls-106" d="M51.34,32.05a51,51,0,0,0,72.07,72.08Z"/><path class="cls-107" d="M51.7,31.7a51,51,0,0,0,72.07,72.07Z"/><path class="cls-108" d="M52.05,31.35a51,51,0,0,0,72.07,72.07Z"/><path class="cls-109" d="M52.41,31a51,51,0,0,0,72.07,72.07Z"/><path class="cls-110" d="M52.76,30.64a51,51,0,0,0,72.07,72.07Z"/><path class="cls-111" d="M53.11,30.28a51,51,0,0,0,72.08,72.07Z"/><path class="cls-112" d="M53.47,29.93A51,51,0,0,0,125.54,102Z"/><path class="cls-113" d="M53.82,29.57a51,51,0,0,0,72.07,72.07Z"/><path class="cls-114" d="M54.18,29.22a51,51,0,0,0,72.07,72.07Z"/><path class="cls-115" d="M54.53,28.86a51,51,0,0,0,72.07,72.07Z"/><path class="cls-116" d="M54.89,28.51A51,51,0,0,0,127,100.58Z"/><path class="cls-117" d="M55.24,28.15a51,51,0,0,0,72.07,72.08Z"/><path class="cls-118" d="M55.6,27.8a51,51,0,0,0,72.07,72.07Z"/><path class="cls-119" d="M56,27.44A51,51,0,0,0,128,99.52Z"/><path class="cls-120" d="M56.31,27.09a51,51,0,0,0,72.07,72.07Z"/><path class="cls-121" d="M56.66,26.74a51,51,0,0,0,72.07,72.07Z"/><path class="cls-122" d="M57,26.38a51,51,0,0,0,72.08,72.07Z"/><path class="cls-123" d="M57.37,26A51,51,0,0,0,129.44,98.1Z"/><path class="cls-124" d="M57.72,25.67a51,51,0,0,0,72.07,72.07Z"/><path class="cls-125" d="M58.08,25.32a51,51,0,0,0,72.07,72.07Z"/><path class="cls-126" d="M58.43,25A51,51,0,0,0,130.5,97Z"/><path class="cls-127" d="M58.79,24.61a51,51,0,0,0,72.07,72.07Z"/><path class="cls-128" d="M59.14,24.25a51,51,0,0,0,72.07,72.07Z"/><path class="cls-129" d="M59.5,23.9A51,51,0,0,0,131.57,96Z"/><path class="cls-130" d="M59.85,23.54a51,51,0,0,0,72.07,72.08Z"/><path class="cls-131" d="M60.21,23.19a51,51,0,0,0,72.07,72.07Z"/><path class="cls-132" d="M60.56,22.84a51,51,0,0,0,72.07,72.07Z"/><path class="cls-133" d="M60.92,22.48A51,51,0,0,0,133,94.55Z"/><path class="cls-134" d="M61.27,22.13A51,51,0,0,0,133.34,94.2Z"/><path class="cls-135" d="M61.62,21.77A51,51,0,0,0,133.7,93.84Z"/><path class="cls-136" d="M62,21.42a51,51,0,0,0,72.07,72.07Z"/><path class="cls-137" d="M62.33,21.06A51,51,0,0,0,134.4,93.13Z"/><path class="cls-138" d="M62.69,20.71a51,51,0,0,0,72.07,72.07Z"/><path class="cls-139" d="M63,20.35a51,51,0,0,0,72.07,72.07Z"/><path class="cls-140" d="M63.4,20a51,51,0,0,0,72.07,72.07Z"/><path class="cls-141" d="M63.75,19.64a51,51,0,0,0,72.07,72.07Z"/><path class="cls-142" d="M64.11,19.29a51,51,0,0,0,72.07,72.07Z"/><path class="cls-143" d="M64.46,18.93A51,51,0,0,0,136.53,91Z"/><path class="cls-144" d="M64.82,18.58a51,51,0,0,0,72.07,72.07Z"/><path class="cls-145" d="M65.17,18.23A51,51,0,0,0,137.24,90.3Z"/><path class="cls-146" d="M65.52,17.87A51,51,0,0,0,137.6,89.94Z"/><path class="cls-147" d="M65.88,17.52A51,51,0,0,0,138,89.59Z"/><path class="cls-148" d="M66.23,17.16A51,51,0,0,0,138.3,89.23Z"/><path class="cls-149" d="M66.59,16.81a51,51,0,0,0,72.07,72.07Z"/><path class="cls-150" d="M66.94,16.45A51,51,0,0,0,139,88.52Z"/><path class="cls-151" d="M67.3,16.1a51,51,0,0,0,72.07,72.07Z"/><path class="cls-152" d="M67.65,15.74a51,51,0,0,0,72.07,72.07Z"/><path class="cls-153" d="M68,15.39a51,51,0,0,0,72.07,72.07Z"/><path class="cls-154" d="M68.36,15a51,51,0,0,0,72.07,72.08Z"/></g><circle class="cls-155" cx="104.51" cy="50.96" r="50.96"/><path class="cls-156" d="M155.47,51A51,51,0,0,1,124.8,97.72,51,51,0,0,0,82.7,4.89,51,51,0,0,1,155.47,51Z"/><path class="cls-157" d="M93.4,55.36a9.37,9.37,0,1,0-12.57,0,11.29,11.29,0,0,0-5,9.34V76.76A1.12,1.12,0,0,0,77,77.88H97.25a1.12,1.12,0,0,0,1.12-1.12V64.7A11.29,11.29,0,0,0,93.4,55.36ZM80,48.44a7.12,7.12,0,1,1,7.11,7.11A7.12,7.12,0,0,1,80,48.44ZM96.12,75.63h-18V64.7a9,9,0,0,1,4.74-7.93,9.27,9.27,0,0,0,8.53,0,9,9,0,0,1,4.74,7.93Z"/><path class="cls-157" d="M127.51,55.36a9.37,9.37,0,1,0-12.58,0,11.29,11.29,0,0,0-5,9.34V76.76a1.12,1.12,0,0,0,1.13,1.12h20.26a1.13,1.13,0,0,0,1.13-1.12V64.7A11.32,11.32,0,0,0,127.51,55.36ZM114.1,48.44a7.12,7.12,0,1,1,7.12,7.11A7.12,7.12,0,0,1,114.1,48.44Zm16.12,27.19h-18V64.7A9,9,0,0,1,117,56.77a9.27,9.27,0,0,0,8.53,0,9,9,0,0,1,4.74,7.93Z"/><path class="cls-157" d="M112.16,40.45a1.1,1.1,0,0,0,.8.34,1.31,1.31,0,0,0,.43-.08,1.15,1.15,0,0,0,.7-1.05V36.48h.7a1.13,1.13,0,0,0,1.13-1.12V22.25a1.13,1.13,0,0,0-1.13-1.12H96.58a1.13,1.13,0,0,0-1.13,1.12V24H93.54a1.13,1.13,0,0,0-1.13,1.12V38.21a1.13,1.13,0,0,0,1.13,1.12h.7v2a1.13,1.13,0,0,0,.62,1,1.14,1.14,0,0,0,1.18-.1L100,39.33h11.09ZM97.71,23.38h16V34.23H113a1.14,1.14,0,0,0-1.13,1.13v1.55l-2.29-2.34a1.1,1.1,0,0,0-.8-.34h-11Zm1.89,13.7a1.14,1.14,0,0,0-.67.22L96.5,39.08v-.87a1.13,1.13,0,0,0-1.13-1.13h-.7V26.23h.78v9.13a1.13,1.13,0,0,0,1.13,1.12h11.68l.59.6Z"/><path class="cls-157" d="M101.4,30a1.19,1.19,0,1,0-1.2-1.19A1.2,1.2,0,0,0,101.4,30Zm0-1.6a.41.41,0,1,1-.41.41A.4.4,0,0,1,101.4,28.42Z"/><path class="cls-157" d="M105.58,30a1.19,1.19,0,1,0-1.19-1.19A1.19,1.19,0,0,0,105.58,30Zm0-1.6a.41.41,0,1,1-.4.41A.4.4,0,0,1,105.58,28.42Z"/><path class="cls-157" d="M109.76,30a1.19,1.19,0,1,0-1.19-1.19A1.19,1.19,0,0,0,109.76,30Zm0-1.6a.41.41,0,1,1-.4.41A.4.4,0,0,1,109.76,28.42Z"/></g></g></g></svg>