<svg xmlns="http://www.w3.org/2000/svg" viewBox="0 0 58.33 49.15"><defs><style>.cls-1{fill:#9fbecf;}.cls-2{fill:#546d7b;}.cls-3{fill:#3a64fc;}.cls-4{fill:#293fcc;}.cls-5{fill:#71a0b9;}.cls-6{fill:#c39601;}</style></defs><g id="Layer_2" data-name="Layer 2"><g id="Layer_1-2" data-name="Layer 1"><rect class="cls-1" x="2.99" y="18.15" width="37.19" height="28.06" rx="1.31"/><rect class="cls-2" x="10.27" y="14.21" width="22.64" height="33.7" transform="translate(52.64 9.47) rotate(90)"/><rect class="cls-3" x="4.9" y="19.91" width="33.37" height="22.3"/><polygon class="cls-4" points="38.27 42.21 13.83 42.21 27.32 19.91 38.27 19.91 38.27 42.21"/><path class="cls-5" d="M0,46.92v.72a1.52,1.52,0,0,0,1.52,1.51H41.66a1.52,1.52,0,0,0,1.51-1.51v-.72Z"/><path class="cls-6" d="M39.16,11A51.84,51.84,0,0,1,24.69,8.62,18.06,18.06,0,0,0,22,17.13H39.16Z"/><path class="cls-6" d="M39.16,0A18.16,18.16,0,0,0,25.9,6.88,49.56,49.56,0,0,0,39.16,9Z"/><path class="cls-6" d="M41.2,25.31a51.54,51.54,0,0,1,14.47,2.37,18.1,18.1,0,0,0,2.66-8.51H41.2Z"/><path class="cls-6" d="M41.2,17.13H58.33a18.06,18.06,0,0,0-2.66-8.51A51.9,51.9,0,0,1,41.2,11Z"/><path class="cls-6" d="M54.45,6.88A18.12,18.12,0,0,0,41.2,0V9A49.42,49.42,0,0,0,54.45,6.88Z"/><path class="cls-6" d="M41.2,36.3a18.16,18.16,0,0,0,13.25-6.88A49.42,49.42,0,0,0,41.2,27.35Z"/></g></g></svg>