<svg xmlns="http://www.w3.org/2000/svg" viewBox="0 0 66.79 58.04"><defs><style>.cls-1{fill:#546d7b;}.cls-2{fill:#9fbecf;}.cls-3{fill:#3a64fc;}.cls-4{fill:#293fcc;}.cls-5{fill:#71a0b9;}.cls-6{fill:#ffad00;}.cls-7{fill:#fff;}</style></defs><g id="Layer_2" data-name="Layer 2"><g id="Layer_1-2" data-name="Layer 1"><path class="cls-1" d="M38.45,11a.77.77,0,0,1-.77.78.78.78,0,0,1,0-1.56A.77.77,0,0,1,38.45,11Z"/><path class="cls-1" d="M40.87,11a.77.77,0,0,1-.77.78.78.78,0,0,1,0-1.56A.77.77,0,0,1,40.87,11Z"/><path class="cls-1" d="M43.29,11a.77.77,0,0,1-.77.78.78.78,0,0,1,0-1.56A.77.77,0,0,1,43.29,11Z"/><path class="cls-1" d="M45.72,11a.78.78,0,1,1-.78-.78A.78.78,0,0,1,45.72,11Z"/><path class="cls-1" d="M48.14,11a.78.78,0,1,1-.78-.78A.78.78,0,0,1,48.14,11Z"/><path class="cls-1" d="M50.56,11a.78.78,0,1,1-.78-.78A.78.78,0,0,1,50.56,11Z"/><path class="cls-1" d="M53,11a.78.78,0,1,1-.78-.78A.78.78,0,0,1,53,11Z"/><path class="cls-1" d="M55.4,11a.78.78,0,1,1-.78-.78A.78.78,0,0,1,55.4,11Z"/><path class="cls-1" d="M57.82,11a.78.78,0,1,1-.78-.78A.78.78,0,0,1,57.82,11Z"/><path class="cls-1" d="M57,29.54a.78.78,0,1,1-.78.78A.78.78,0,0,1,57,29.54Z"/><path class="cls-1" d="M57,27.12a.78.78,0,1,1-.78.78A.78.78,0,0,1,57,27.12Z"/><path class="cls-1" d="M57,24.7a.78.78,0,1,1-.78.78A.78.78,0,0,1,57,24.7Z"/><path class="cls-1" d="M57,22.28a.78.78,0,1,1-.78.78A.78.78,0,0,1,57,22.28Z"/><circle class="cls-1" cx="57.04" cy="20.64" r="0.78"/><circle class="cls-1" cx="57.04" cy="18.22" r="0.78"/><path class="cls-1" d="M57,15a.78.78,0,1,1-.78.78A.78.78,0,0,1,57,15Z"/><path class="cls-1" d="M57,12.6a.78.78,0,1,1-.78.78A.78.78,0,0,1,57,12.6Z"/><path class="cls-1" d="M36.24,50.34a.78.78,0,1,1,.78.78A.78.78,0,0,1,36.24,50.34Z"/><path class="cls-1" d="M33.82,50.34a.78.78,0,1,1,.78.78A.78.78,0,0,1,33.82,50.34Z"/><path class="cls-1" d="M31.4,50.34a.78.78,0,1,1,.78.78A.78.78,0,0,1,31.4,50.34Z"/><path class="cls-1" d="M29,50.34a.78.78,0,1,1,.78.78A.78.78,0,0,1,29,50.34Z"/><path class="cls-1" d="M26.56,50.34a.78.78,0,1,1,.78.78A.78.78,0,0,1,26.56,50.34Z"/><path class="cls-1" d="M24.14,50.34a.78.78,0,1,1,.78.78A.78.78,0,0,1,24.14,50.34Z"/><path class="cls-1" d="M21.72,50.34a.78.78,0,1,1,.78.78A.78.78,0,0,1,21.72,50.34Z"/><path class="cls-1" d="M19.3,50.34a.78.78,0,1,1,.78.78A.78.78,0,0,1,19.3,50.34Z"/><path class="cls-1" d="M16.88,50.34a.78.78,0,1,1,.78.78A.78.78,0,0,1,16.88,50.34Z"/><path class="cls-1" d="M17.66,31.76a.78.78,0,1,1,.78-.78A.78.78,0,0,1,17.66,31.76Z"/><path class="cls-1" d="M17.66,34.18a.78.78,0,1,1,.78-.78A.78.78,0,0,1,17.66,34.18Z"/><path class="cls-1" d="M17.66,36.6a.78.78,0,1,1,.78-.78A.78.78,0,0,1,17.66,36.6Z"/><path class="cls-1" d="M17.66,39a.78.78,0,1,1,.78-.78A.78.78,0,0,1,17.66,39Z"/><path class="cls-1" d="M17.66,41.44a.78.78,0,1,1,.78-.78A.78.78,0,0,1,17.66,41.44Z"/><path class="cls-1" d="M17.66,43.86a.78.78,0,1,1,.78-.78A.78.78,0,0,1,17.66,43.86Z"/><path class="cls-1" d="M17.66,46.28a.78.78,0,1,1,.78-.78A.78.78,0,0,1,17.66,46.28Z"/><path class="cls-1" d="M17.66,48.7a.78.78,0,1,1,.78-.78A.78.78,0,0,1,17.66,48.7Z"/><rect class="cls-2" x="39.32" y="32.62" width="27.47" height="21.66" rx="0.93"/><rect class="cls-1" x="41.32" y="34.24" width="23.46" height="17.06" rx="0.2"/><rect class="cls-3" x="44.69" y="31.2" width="16.73" height="23.13" rx="0.04" transform="translate(95.82 -10.29) rotate(90)"/><path class="cls-4" d="M41.52,51.13s0,0,0,0L64.59,34.4s0,0,0,0V51.09s0,0,0,0Z"/><path class="cls-5" d="M55.46,54.28H50.65c0,1.52-1.18,2.38-3.55,2.81H59C56.64,56.66,55.46,55.8,55.46,54.28Z"/><path class="cls-2" d="M61.73,58a1,1,0,0,0-.95-.95H45.33a1,1,0,0,0-.95.95Z"/><rect class="cls-6" x="63.76" y="52.49" width="0.91" height="0.58"/><path class="cls-7" d="M60.18,43a3.68,3.68,0,0,0,0-.58,3.56,3.56,0,0,0-3.57-3.56h0A5.42,5.42,0,0,0,46.4,41.38c0,.12,0,.23,0,.34a3.57,3.57,0,0,0,1.22,6.92H58.56A3.06,3.06,0,0,0,60.18,43Z"/><path class="cls-6" d="M54,45.68a1.19,1.19,0,1,1-1.19-1.19A1.19,1.19,0,0,1,54,45.68Z"/><path class="cls-6" d="M57.47,42.56a.37.37,0,0,1-.28-.14,5.42,5.42,0,0,0-8.7,0,.35.35,0,0,1-.49.07.34.34,0,0,1-.07-.49,6.12,6.12,0,0,1,9.82,0,.34.34,0,0,1-.07.49A.31.31,0,0,1,57.47,42.56Z"/><path class="cls-6" d="M56.26,43.78a.34.34,0,0,1-.29-.15,3.73,3.73,0,0,0-6.26,0,.35.35,0,0,1-.48.1.36.36,0,0,1-.1-.49,4.43,4.43,0,0,1,7.42,0,.36.36,0,0,1-.1.49A.34.34,0,0,1,56.26,43.78Z"/><path class="cls-6" d="M50.61,45l-.15,0a.36.36,0,0,1-.17-.47,2.82,2.82,0,0,1,5.1,0,.35.35,0,1,1-.64.3,2.11,2.11,0,0,0-3.82,0A.35.35,0,0,1,50.61,45Z"/><path class="cls-3" d="M36.43,15.89a8,8,0,0,0,.11-1.3,8.06,8.06,0,0,0-8.06-8.06h-.13A12.24,12.24,0,0,0,5.28,12.25c0,.26,0,.52,0,.78A8.06,8.06,0,0,0,8.06,28.67h24.7a6.92,6.92,0,0,0,3.67-12.78Z"/><path class="cls-4" d="M8.06,28.67h24.7a6.92,6.92,0,0,0,3.67-12.78,8,8,0,0,0,.11-1.3,8.06,8.06,0,0,0-8.06-8.06h-.13l-22,22A7.88,7.88,0,0,0,8.06,28.67Z"/></g></g></svg>