<svg xmlns="http://www.w3.org/2000/svg" viewBox="0 0 63.94 55.07"><defs><style>.cls-1{fill:#546d7b;}.cls-2{fill:#9fbecf;}.cls-3{fill:#3a64fc;}.cls-4{fill:#293fcc;}.cls-5{fill:#71a0b9;}.cls-6{fill:#009e58;}.cls-7{fill:#ffad00;}.cls-8{fill:#f70;}.cls-9{fill:#fff;}</style></defs><g id="Layer_2" data-name="Layer 2"><g id="Layer_1-2" data-name="Layer 1"><circle class="cls-1" cx="9.3" cy="28.62" r="0.61"/><path class="cls-1" d="M11.8,28.62a.61.61,0,0,1-.61.6.61.61,0,1,1,0-1.21A.61.61,0,0,1,11.8,28.62Z"/><path class="cls-1" d="M13.69,28.62a.61.61,0,0,1-.61.6.61.61,0,1,1,0-1.21A.61.61,0,0,1,13.69,28.62Z"/><circle class="cls-1" cx="14.97" cy="28.62" r="0.61"/><path class="cls-1" d="M17.46,28.62a.61.61,0,1,1-.6-.61A.6.6,0,0,1,17.46,28.62Z"/><circle class="cls-1" cx="18.75" cy="28.62" r="0.61"/><path class="cls-1" d="M21.24,28.62a.61.61,0,1,1-.61-.61A.6.6,0,0,1,21.24,28.62Z"/><circle class="cls-1" cx="22.52" cy="28.62" r="0.61"/><circle class="cls-1" cx="24.41" cy="28.62" r="0.61"/><path class="cls-1" d="M26.91,28.62a.6.6,0,0,1-.61.6.61.61,0,1,1,.61-.6Z"/><path class="cls-1" d="M28.8,28.62a.6.6,0,0,1-.61.6.61.61,0,1,1,.61-.6Z"/><path class="cls-1" d="M30.69,28.62a.6.6,0,0,1-.61.6.61.61,0,1,1,.61-.6Z"/><path class="cls-1" d="M32.58,28.62A.61.61,0,1,1,32,28,.6.6,0,0,1,32.58,28.62Z"/><path class="cls-1" d="M34.47,28.62a.61.61,0,1,1-.61-.61A.6.6,0,0,1,34.47,28.62Z"/><path class="cls-1" d="M36.36,28.62a.61.61,0,0,1-.61.6.61.61,0,1,1,0-1.21A.61.61,0,0,1,36.36,28.62Z"/><path class="cls-1" d="M38.25,28.62a.61.61,0,0,1-.61.6.61.61,0,1,1,0-1.21A.61.61,0,0,1,38.25,28.62Z"/><path class="cls-1" d="M40.14,28.62a.61.61,0,0,1-.61.6.61.61,0,1,1,0-1.21A.61.61,0,0,1,40.14,28.62Z"/><path class="cls-1" d="M42,28.62a.61.61,0,1,1-.6-.61A.6.6,0,0,1,42,28.62Z"/><path class="cls-1" d="M43.91,28.62a.61.61,0,1,1-.6-.61A.6.6,0,0,1,43.91,28.62Z"/><path class="cls-1" d="M45.8,28.62a.61.61,0,1,1-.6-.61A.6.6,0,0,1,45.8,28.62Z"/><circle class="cls-1" cx="47.08" cy="28.62" r="0.61"/><path class="cls-1" d="M49.58,28.62A.61.61,0,1,1,49,28,.6.6,0,0,1,49.58,28.62Z"/><path class="cls-1" d="M51.47,28.62a.61.61,0,1,1-.61-.61A.6.6,0,0,1,51.47,28.62Z"/><path class="cls-1" d="M53.36,28.62a.6.6,0,0,1-.61.6.61.61,0,1,1,.61-.6Z"/><path class="cls-1" d="M55.25,28.62a.6.6,0,0,1-.61.6.61.61,0,1,1,.61-.6Z"/><path class="cls-1" d="M32,23.56a.61.61,0,0,1-.61-.61.61.61,0,0,1,1.22,0A.61.61,0,0,1,32,23.56Z"/><path class="cls-1" d="M32,25.45a.61.61,0,0,1-.61-.61.61.61,0,0,1,1.22,0A.61.61,0,0,1,32,25.45Z"/><path class="cls-1" d="M32,27.33a.61.61,0,1,1,.61-.6A.6.6,0,0,1,32,27.33Z"/><path class="cls-1" d="M32,31.11a.61.61,0,1,1,.61-.6A.6.6,0,0,1,32,31.11Z"/><path class="cls-1" d="M32,33a.61.61,0,1,1,.61-.61A.61.61,0,0,1,32,33Z"/><path class="cls-1" d="M32,34.89a.61.61,0,1,1,.61-.61A.61.61,0,0,1,32,34.89Z"/><path class="cls-1" d="M54.64,31.11a.61.61,0,1,1,.61-.6A.6.6,0,0,1,54.64,31.11Z"/><path class="cls-1" d="M54.64,33a.61.61,0,1,1,0-1.21.61.61,0,1,1,0,1.21Z"/><path class="cls-1" d="M54.64,34.89a.61.61,0,1,1,0-1.21.61.61,0,1,1,0,1.21Z"/><path class="cls-1" d="M9.3,31.11a.61.61,0,1,1,.61-.6A.6.6,0,0,1,9.3,31.11Z"/><path class="cls-1" d="M9.3,33a.61.61,0,1,1,.61-.61A.61.61,0,0,1,9.3,33Z"/><path class="cls-1" d="M9.3,34.89a.61.61,0,1,1,.61-.61A.61.61,0,0,1,9.3,34.89Z"/><path class="cls-1" d="M32,36.78a.61.61,0,1,1,.61-.61A.61.61,0,0,1,32,36.78Z"/><path class="cls-1" d="M54.64,36.78a.61.61,0,1,1,0-1.21.61.61,0,1,1,0,1.21Z"/><path class="cls-1" d="M9.3,36.78a.61.61,0,1,1,.61-.61A.61.61,0,0,1,9.3,36.78Z"/><rect class="cls-2" x="22.67" y="37.86" width="18.6" height="14.67" rx="0.63"/><rect class="cls-1" x="24.03" y="38.95" width="15.88" height="11.55" rx="0.14"/><rect class="cls-3" x="26.31" y="36.89" width="11.32" height="15.66" rx="0.02" transform="translate(76.69 12.75) rotate(90)"/><path class="cls-4" d="M24.16,50.39s0,0,0,0l15.64-11.3s0,0,0,0V50.36s0,0,0,0Z"/><path class="cls-5" d="M33.6,52.52H30.34c0,1-.8,1.61-2.4,1.9H36C34.4,54.13,33.6,53.55,33.6,52.52Z"/><path class="cls-2" d="M37.84,55.07a.65.65,0,0,0-.64-.65H26.74a.65.65,0,0,0-.64.65Z"/><rect class="cls-6" x="39.22" y="51.31" width="0.62" height="0.39"/><rect class="cls-2" x="45.34" y="37.86" width="18.6" height="14.67" rx="0.63"/><rect class="cls-1" x="46.7" y="38.95" width="15.88" height="11.55" rx="0.14"/><rect class="cls-3" x="48.98" y="36.89" width="11.32" height="15.66" rx="0.02" transform="translate(99.37 -9.92) rotate(90)"/><path class="cls-4" d="M46.84,50.39a0,0,0,0,1,0,0l15.64-11.3s0,0,0,0V50.36s0,0,0,0Z"/><path class="cls-5" d="M56.27,52.52H53c0,1-.8,1.61-2.4,1.9h8.06C57.07,54.13,56.27,53.55,56.27,52.52Z"/><path class="cls-2" d="M60.51,55.07a.64.64,0,0,0-.64-.65H49.41a.65.65,0,0,0-.64.65Z"/><rect class="cls-6" x="61.89" y="51.31" width="0.62" height="0.39"/><rect class="cls-2" y="37.86" width="18.6" height="14.67" rx="0.63"/><rect class="cls-1" x="1.36" y="38.95" width="15.88" height="11.55" rx="0.14"/><rect class="cls-3" x="3.64" y="36.89" width="11.32" height="15.66" rx="0.02" transform="translate(54.02 35.42) rotate(90)"/><path class="cls-4" d="M1.49,50.39s0,0,0,0l15.64-11.3s0,0,0,0V50.36s0,0,0,0Z"/><path class="cls-5" d="M10.93,52.52H7.67c0,1-.8,1.61-2.4,1.9h8.06C11.73,54.13,10.93,53.55,10.93,52.52Z"/><path class="cls-2" d="M15.17,55.07a.65.65,0,0,0-.64-.65H4.07a.65.65,0,0,0-.64.65Z"/><rect class="cls-6" x="16.54" y="51.31" width="0.62" height="0.39"/><rect class="cls-2" x="20.18" width="23.57" height="18.59" rx="0.79"/><rect class="cls-1" x="21.9" y="1.39" width="20.13" height="14.63" rx="0.17"/><rect class="cls-3" x="24.79" y="-1.22" width="14.35" height="19.85" rx="0.03" transform="translate(40.68 -23.27) rotate(90)"/><path class="cls-4" d="M22.08,15.88a0,0,0,0,1,0,0L41.86,1.53s0,0,0,0V15.85s0,0,0,0Z"/><path class="cls-5" d="M34,18.59H29.91c0,1.3-1,2-3.05,2.41H37.08C35.05,20.63,34,19.89,34,18.59Z"/><path class="cls-2" d="M39.41,21.81A.81.81,0,0,0,38.6,21H25.34a.81.81,0,0,0-.81.81Z"/><rect class="cls-6" x="41.15" y="17.05" width="0.78" height="0.5"/><path class="cls-7" d="M27.14,6.72h8.8a0,0,0,0,1,0,0v4.73A2.51,2.51,0,0,1,33.43,14H29.65a2.51,2.51,0,0,1-2.51-2.51V6.72A0,0,0,0,1,27.14,6.72Z"/><path class="cls-5" d="M33.71,6.39V4.85a1.19,1.19,0,0,0-1.19-1.19h-2a1.19,1.19,0,0,0-1.19,1.19V6.39H28.3V4.85a2.27,2.27,0,0,1,2.27-2.26h2a2.26,2.26,0,0,1,2.26,2.26V6.39Z"/><path class="cls-8" d="M27.93,13.31a2.44,2.44,0,0,0,1.65.65H33.5a2.44,2.44,0,0,0,2.44-2.44V6.72Z"/><path class="cls-9" d="M32.36,12a.82.82,0,0,1-1.64,0,.82.82,0,1,1,1.64,0Z"/><path class="cls-9" d="M34.74,9.84a.25.25,0,0,1-.19-.09,3.74,3.74,0,0,0-6,0,.25.25,0,0,1-.34,0,.24.24,0,0,1,0-.33,4.23,4.23,0,0,1,6.79,0,.23.23,0,0,1,0,.33A.21.21,0,0,1,34.74,9.84Z"/><path class="cls-9" d="M33.9,10.69a.26.26,0,0,1-.2-.11,2.58,2.58,0,0,0-4.32,0,.24.24,0,0,1-.33.07.23.23,0,0,1-.07-.34,3.07,3.07,0,0,1,5.13,0,.25.25,0,0,1-.07.34A.23.23,0,0,1,33.9,10.69Z"/><path class="cls-9" d="M30,11.51a.18.18,0,0,1-.1,0,.24.24,0,0,1-.12-.32,1.94,1.94,0,0,1,3.52,0,.24.24,0,0,1-.11.32.25.25,0,0,1-.33-.11,1.45,1.45,0,0,0-2.64,0A.25.25,0,0,1,30,11.51Z"/><path class="cls-7" d="M6,43.33h7a0,0,0,0,1,0,0v3a2.51,2.51,0,0,1-2.51,2.51h-2A2.51,2.51,0,0,1,6,46.35v-3A0,0,0,0,1,6,43.33Z"/><path class="cls-5" d="M11.19,43.08V41.9a.91.91,0,0,0-.91-.91H8.79a.91.91,0,0,0-.91.91v1.18H7.06V41.9a1.73,1.73,0,0,1,1.73-1.73h1.49A1.72,1.72,0,0,1,12,41.9v1.18Z"/><path class="cls-8" d="M6.9,48.37a1.91,1.91,0,0,0,1.27.49h3A1.87,1.87,0,0,0,13.05,47V43.33Z"/><path class="cls-9" d="M10.17,47.36a.63.63,0,0,1-.63.63.63.63,0,0,1,0-1.26A.63.63,0,0,1,10.17,47.36Z"/><path class="cls-9" d="M12,45.72a.17.17,0,0,1-.14-.08,2.87,2.87,0,0,0-4.6,0,.19.19,0,0,1-.3-.22,3.24,3.24,0,0,1,5.19,0,.19.19,0,0,1,0,.26A.28.28,0,0,1,12,45.72Z"/><path class="cls-9" d="M11.34,46.36a.18.18,0,0,1-.15-.08,2,2,0,0,0-3.31,0,.18.18,0,0,1-.25,0,.17.17,0,0,1,0-.25,2.34,2.34,0,0,1,3.92,0,.18.18,0,0,1-.06.25A.17.17,0,0,1,11.34,46.36Z"/><path class="cls-9" d="M8.36,47H8.28a.2.2,0,0,1-.09-.25,1.48,1.48,0,0,1,2.69,0,.19.19,0,0,1-.09.25.18.18,0,0,1-.24-.09,1.11,1.11,0,0,0-2,0A.21.21,0,0,1,8.36,47Z"/><path class="cls-7" d="M28.42,43.54h7a0,0,0,0,1,0,0v3a2.51,2.51,0,0,1-2.51,2.51h-2a2.51,2.51,0,0,1-2.51-2.51v-3a0,0,0,0,1,0,0Z"/><path class="cls-5" d="M33.6,43.28V42.11a.91.91,0,0,0-.91-.91H31.2a.91.91,0,0,0-.91.91v1.17h-.82V42.11a1.73,1.73,0,0,1,1.73-1.73h1.49a1.72,1.72,0,0,1,1.73,1.73v1.17Z"/><path class="cls-8" d="M29.31,48.58a1.91,1.91,0,0,0,1.27.49h3a1.87,1.87,0,0,0,1.87-1.87V43.54Z"/><path class="cls-9" d="M32.58,47.57a.63.63,0,0,1-.63.63.63.63,0,1,1,0-1.26A.63.63,0,0,1,32.58,47.57Z"/><path class="cls-9" d="M34.39,45.92a.16.16,0,0,1-.14-.07,2.88,2.88,0,0,0-4.6,0,.19.19,0,0,1-.3-.22,3.24,3.24,0,0,1,5.19,0,.19.19,0,0,1,0,.26Z"/><path class="cls-9" d="M33.75,46.57a.18.18,0,0,1-.15-.08,2,2,0,0,0-3.31,0,.18.18,0,0,1-.25,0,.17.17,0,0,1-.05-.25,2.33,2.33,0,0,1,3.92,0,.18.18,0,0,1-.06.25A.17.17,0,0,1,33.75,46.57Z"/><path class="cls-9" d="M30.77,47.2h-.08a.2.2,0,0,1-.09-.25,1.48,1.48,0,0,1,2.69,0,.18.18,0,0,1-.09.25A.18.18,0,0,1,33,47.1a1.11,1.11,0,0,0-2,0A.21.21,0,0,1,30.77,47.2Z"/><path class="cls-7" d="M51.73,43.73h7a0,0,0,0,1,0,0v3a2.51,2.51,0,0,1-2.51,2.51h-2a2.51,2.51,0,0,1-2.51-2.51v-3A0,0,0,0,1,51.73,43.73Z"/><path class="cls-5" d="M56.91,43.48V42.3a.91.91,0,0,0-.91-.91H54.51a.91.91,0,0,0-.91.91v1.18h-.82V42.3a1.74,1.74,0,0,1,1.73-1.73H56a1.73,1.73,0,0,1,1.73,1.73v1.18Z"/><path class="cls-8" d="M52.63,48.77a1.87,1.87,0,0,0,1.26.49h3a1.87,1.87,0,0,0,1.87-1.86V43.73Z"/><path class="cls-9" d="M55.89,47.76a.63.63,0,1,1-1.26,0,.63.63,0,1,1,1.26,0Z"/><path class="cls-9" d="M57.71,46.12a.19.19,0,0,1-.15-.08A2.88,2.88,0,0,0,53,46a.19.19,0,1,1-.3-.22,3.24,3.24,0,0,1,5.19,0,.18.18,0,0,1,0,.26A.25.25,0,0,1,57.71,46.12Z"/><path class="cls-9" d="M57.07,46.76a.21.21,0,0,1-.16-.08,2,2,0,0,0-3.3,0,.19.19,0,0,1-.26,0,.18.18,0,0,1-.05-.25,2.34,2.34,0,0,1,3.92,0,.18.18,0,0,1,0,.25A.19.19,0,0,1,57.07,46.76Z"/><path class="cls-9" d="M54.08,47.39H54a.2.2,0,0,1-.09-.25,1.51,1.51,0,0,1,1.35-.86,1.49,1.49,0,0,1,1.34.86.19.19,0,0,1-.08.25.19.19,0,0,1-.25-.09,1.11,1.11,0,0,0-2,0A.18.18,0,0,1,54.08,47.39Z"/></g></g></svg>