<svg xmlns="http://www.w3.org/2000/svg" xmlns:xlink="http://www.w3.org/1999/xlink" viewBox="0 0 1540.51 1291.73"><defs><style>.cls-1{mask:url(#mask);}.cls-14,.cls-2,.cls-4,.cls-6,.cls-8{mix-blend-mode:multiply;}.cls-2{fill:url(#Áåçûìÿííûé_ãðàäèåíò_10);}.cls-3{mask:url(#mask-2);}.cls-4{fill:url(#Áåçûìÿííûé_ãðàäèåíò_3);}.cls-5{mask:url(#mask-3);}.cls-6{fill:url(#Áåçûìÿííûé_ãðàäèåíò_8);}.cls-7{mask:url(#mask-4);}.cls-8{fill:url(#Áåçûìÿííûé_ãðàäèåíò_1);}.cls-9{isolation:isolate;}.cls-10{fill:#817efe;}.cls-11{fill:#1e1273;}.cls-12{mask:url(#mask-5);}.cls-13{fill:url(#Áåçûìÿííûé_ãðàäèåíò_335);}.cls-15{fill:#fff;}.cls-16{fill:#fbfbfc;}.cls-17{fill:#f7f7f8;}.cls-18{fill:#f3f4f5;}.cls-19{fill:#f0f0f1;}.cls-20{fill:#ececee;}.cls-21{fill:#e8e8ea;}.cls-22{fill:#e4e4e7;}.cls-23{fill:#e0e1e3;}.cls-24{fill:#dcdde0;}.cls-25{fill:#d8d9dc;}.cls-26{fill:#d4d5d9;}.cls-27{fill:#d1d1d5;}.cls-28{fill:#cdcdd2;}.cls-29{fill:#c9cace;}.cls-30{fill:#c5c6cb;}.cls-31{fill:#c1c2c7;}.cls-32{fill:#cbd3fa;}.cls-33{fill:#f3f1f6;}.cls-34{fill:url(#Áåçûìÿííûé_ãðàäèåíò_54);}.cls-35{fill:#efeff4;}.cls-36{fill:#b0bcf5;}.cls-37{fill:#d5dbeb;}.cls-38{fill:url(#Áåçûìÿííûé_ãðàäèåíò_14);}.cls-39{fill:#322c8d;}.cls-40{fill:url(#Áåçûìÿííûé_ãðàäèåíò_14-2);}.cls-41{fill:#ffad00;}.cls-42{mask:url(#mask-6);}.cls-43{fill:url(#Áåçûìÿííûé_ãðàäèåíò_5);}.cls-44{fill:url(#Áåçûìÿííûé_ãðàäèåíò_18);}.cls-45{fill:#d1d3d4;}.cls-46{fill:#f70;}.cls-47{fill:url(#Áåçûìÿííûé_ãðàäèåíò_18-2);}.cls-48{fill:#ff9d26;}.cls-49{fill:url(#Áåçûìÿííûé_ãðàäèåíò_18-3);}.cls-50{fill:url(#Áåçûìÿííûé_ãðàäèåíò_18-4);}.cls-51{fill:url(#Áåçûìÿííûé_ãðàäèåíò_18-5);}.cls-52{fill:url(#Áåçûìÿííûé_ãðàäèåíò_18-6);}.cls-53{fill:url(#Áåçûìÿííûé_ãðàäèåíò_18-7);}.cls-54{fill:#c28218;}.cls-55{fill:#db6700;}.cls-56{fill:#ba5700;}.cls-57{fill:#4258a7;}.cls-58{fill:url(#Áåçûìÿííûé_ãðàäèåíò_18-8);}.cls-59{fill:url(#Áåçûìÿííûé_ãðàäèåíò_18-9);}.cls-60{fill:url(#Áåçûìÿííûé_ãðàäèåíò_18-10);}.cls-61{opacity:0.95;fill:url(#Áåçûìÿííûé_ãðàäèåíò_14-3);}.cls-62{fill:url(#Áåçûìÿííûé_ãðàäèåíò_17);}.cls-63{fill:url(#Áåçûìÿííûé_ãðàäèåíò_14-4);}.cls-64{fill:url(#Áåçûìÿííûé_ãðàäèåíò_14-5);}.cls-65{fill:url(#Áåçûìÿííûé_ãðàäèåíò_18-11);}.cls-66{fill:#6b67ec;}.cls-67{fill:#ffd2a9;}.cls-68{fill:#1e1272;}.cls-69{fill:url(#Áåçûìÿííûé_ãðàäèåíò_18-12);}.cls-70{fill:#3b349e;}.cls-71{mask:url(#mask-7);}.cls-72{fill:url(#Áåçûìÿííûé_ãðàäèåíò_36);}.cls-73{fill:url(#Áåçûìÿííûé_ãðàäèåíò_14-6);}.cls-74{fill:url(#Áåçûìÿííûé_ãðàäèåíò_17-2);}.cls-75{fill:url(#Áåçûìÿííûé_ãðàäèåíò_18-13);}.cls-76{fill:url(#Áåçûìÿííûé_ãðàäèåíò_18-14);}.cls-77{fill:url(#Áåçûìÿííûé_ãðàäèåíò_17-3);}.cls-78{mask:url(#mask-8);}.cls-79{fill:url(#Áåçûìÿííûé_ãðàäèåíò_5-2);}.cls-80{filter:url(#luminosity-noclip-6);}.cls-81{filter:url(#luminosity-noclip-5);}.cls-82{filter:url(#luminosity-noclip-4);}.cls-83{filter:url(#luminosity-noclip-3);}.cls-84{filter:url(#luminosity-noclip-2);}.cls-85{filter:url(#luminosity-noclip);}</style><filter id="luminosity-noclip" x="1675.12" y="-9313" width="705.88" height="32766" filterUnits="userSpaceOnUse" color-interpolation-filters="sRGB"><feFlood flood-color="#fff" result="bg"/><feBlend in="SourceGraphic" in2="bg"/></filter><mask id="mask" x="1675.12" y="-9313" width="705.88" height="32766" maskUnits="userSpaceOnUse"><g class="cls-85"/></mask><linearGradient id="Áåçûìÿííûé_ãðàäèåíò_10" x1="1946.69" y1="1038.27" x2="2090.34" y2="1198.11" gradientUnits="userSpaceOnUse"><stop offset="0" stop-color="#fff"/><stop offset="1"/></linearGradient><filter id="luminosity-noclip-2" x="1959.19" y="-9313" width="203.98" height="32766" filterUnits="userSpaceOnUse" color-interpolation-filters="sRGB"><feFlood flood-color="#fff" result="bg"/><feBlend in="SourceGraphic" in2="bg"/></filter><mask id="mask-2" x="1959.19" y="-9313" width="203.98" height="32766" maskUnits="userSpaceOnUse"><g class="cls-84"/></mask><linearGradient id="Áåçûìÿííûé_ãðàäèåíò_3" x1="2061.18" y1="1112.62" x2="2061.18" y2="1748.11" gradientUnits="userSpaceOnUse"><stop offset="0"/><stop offset="1" stop-color="#fff"/></linearGradient><filter id="luminosity-noclip-3" x="894.67" y="-9313" width="340.87" height="32766" filterUnits="userSpaceOnUse" color-interpolation-filters="sRGB"><feFlood flood-color="#fff" result="bg"/><feBlend in="SourceGraphic" in2="bg"/></filter><mask id="mask-3" x="894.67" y="-9313" width="340.87" height="32766" maskUnits="userSpaceOnUse"><g class="cls-83"/></mask><linearGradient id="Áåçûìÿííûé_ãðàäèåíò_8" x1="894.67" y1="577.15" x2="1235.53" y2="577.15" gradientUnits="userSpaceOnUse"><stop offset="0" stop-color="#ccc"/><stop offset="1"/></linearGradient><filter id="luminosity-noclip-4" x="898.29" y="-9313" width="152.01" height="32766" filterUnits="userSpaceOnUse" color-interpolation-filters="sRGB"><feFlood flood-color="#fff" result="bg"/><feBlend in="SourceGraphic" in2="bg"/></filter><mask id="mask-4" x="898.29" y="-9313" width="152.01" height="32766" maskUnits="userSpaceOnUse"><g class="cls-82"/></mask><linearGradient id="Áåçûìÿííûé_ãðàäèåíò_1" x1="974.29" y1="248.98" x2="974.29" y2="722.54" xlink:href="#Áåçûìÿííûé_ãðàäèåíò_3"/><filter id="luminosity-noclip-5" x="1675.12" y="926.59" width="705.88" height="414.32" filterUnits="userSpaceOnUse" color-interpolation-filters="sRGB"><feFlood flood-color="#fff" result="bg"/><feBlend in="SourceGraphic" in2="bg"/></filter><mask id="mask-5" x="834.63" y="681.47" width="705.88" height="414.32" maskUnits="userSpaceOnUse"><g class="cls-81"><g transform="translate(-840.49 -245.11)"><g class="cls-1"><polygon class="cls-2" points="2381 1044.53 1900.17 1340.91 1675.12 1213.1 2168.13 926.59 2381 1044.53"/></g></g></g></mask><linearGradient id="Áåçûìÿííûé_ãðàäèåíò_335" x1="1106.2" y1="793.16" x2="1249.85" y2="953" gradientUnits="userSpaceOnUse"><stop offset="0" stop-color="#d5dbeb"/><stop offset="1" stop-color="#fff"/></linearGradient><linearGradient id="Áåçûìÿííûé_ãðàäèåíò_54" x1="1504.31" y1="853.01" x2="2611.89" y2="853.01" gradientTransform="matrix(-1, 0, 0, 1, 2803.51, -245.11)" gradientUnits="userSpaceOnUse"><stop offset="0" stop-color="#322c8d"/><stop offset="1" stop-color="#6a6ae5"/></linearGradient><linearGradient id="Áåçûìÿííûé_ãðàäèåíò_14" x1="1960.31" y1="1428.85" x2="2163.21" y2="1428.85" gradientUnits="userSpaceOnUse"><stop offset="0" stop-color="#6a6ae5"/><stop offset="1" stop-color="#322c8d"/></linearGradient><linearGradient id="Áåçûìÿííûé_ãðàäèåíò_14-2" x1="1971.24" y1="1336.16" x2="2130.3" y2="1336.16" xlink:href="#Áåçûìÿííûé_ãðàäèåíò_14"/><mask id="mask-6" x="1118.7" y="864.73" width="203.98" height="375.55" maskUnits="userSpaceOnUse"><g transform="translate(-840.49 -245.11)"><g class="cls-3"><path class="cls-4" d="M2163.18,1109.84h-204v313.31h.28c-1.59,16.17,8.2,32.64,29.6,45,39.83,23,104.4,23,144.23,0,21.4-12.35,31.19-28.82,29.6-45h.28Z"/></g></g></mask><linearGradient id="Áåçûìÿííûé_ãðàäèåíò_5" x1="2061.18" y1="1112.62" x2="2061.18" y2="1748.11" gradientUnits="userSpaceOnUse"><stop offset="0" stop-color="#ffad00"/><stop offset="1" stop-color="#f70"/></linearGradient><linearGradient id="Áåçûìÿííûé_ãðàäèåíò_18" x1="1839.56" y1="887.8" x2="1905.28" y2="887.8" gradientTransform="matrix(-1, 0, 0, 1, 3547.54, 0)" xlink:href="#Áåçûìÿííûé_ãðàäèåíò_5"/><linearGradient id="Áåçûìÿííûé_ãðàäèåíò_18-2" x1="1715.08" y1="987.91" x2="1865.36" y2="987.91" gradientTransform="matrix(-1, 0, 0, 1, 2707.06, -245.11)" xlink:href="#Áåçûìÿííûé_ãðàäèåíò_5"/><linearGradient id="Áåçûìÿííûé_ãðàäèåíò_18-3" x1="1610.72" y1="814.16" x2="1682.53" y2="814.16" gradientTransform="matrix(-1, 0, 0, 1, 3547.54, 0)" xlink:href="#Áåçûìÿííûé_ãðàäèåíò_5"/><linearGradient id="Áåçûìÿííûé_ãðàäèåíò_18-4" x1="1699.69" y1="877.92" x2="1787.69" y2="877.92" gradientTransform="matrix(-1, 0, 0, 1, 3547.54, 0)" xlink:href="#Áåçûìÿííûé_ãðàäèåíò_5"/><linearGradient id="Áåçûìÿííûé_ãðàäèåíò_18-5" x1="1650.91" y1="931.43" x2="1703.76" y2="931.43" gradientTransform="matrix(-1, 0, 0, 1, 3547.54, 0)" xlink:href="#Áåçûìÿííûé_ãðàäèåíò_5"/><linearGradient id="Áåçûìÿííûé_ãðàäèåíò_18-6" x1="1544.63" y1="865.23" x2="1613.1" y2="865.23" gradientTransform="matrix(-1, 0, 0, 1, 3547.54, 0)" xlink:href="#Áåçûìÿííûé_ãðàäèåíò_5"/><linearGradient id="Áåçûìÿííûé_ãðàäèåíò_18-7" x1="1689.21" y1="784.33" x2="1747.91" y2="784.33" gradientTransform="matrix(-1, 0, 0, 1, 3547.54, 0)" xlink:href="#Áåçûìÿííûé_ãðàäèåíò_5"/><linearGradient id="Áåçûìÿííûé_ãðàäèåíò_18-8" x1="1488.32" y1="594.35" x2="1697.75" y2="594.35" xlink:href="#Áåçûìÿííûé_ãðàäèåíò_5"/><linearGradient id="Áåçûìÿííûé_ãðàäèåíò_18-9" x1="1424.77" y1="631.57" x2="1634.2" y2="631.57" xlink:href="#Áåçûìÿííûé_ãðàäèåíò_5"/><linearGradient id="Áåçûìÿííûé_ãðàäèåíò_18-10" x1="1359.63" y1="667.31" x2="1569.06" y2="667.31" xlink:href="#Áåçûìÿííûé_ãðàäèåíò_5"/><linearGradient id="Áåçûìÿííûé_ãðàäèåíò_14-3" x1="1266.98" y1="407.86" x2="1737.61" y2="407.86" xlink:href="#Áåçûìÿííûé_ãðàäèåíò_14"/><linearGradient id="Áåçûìÿííûé_ãðàäèåíò_17" x1="1239.87" y1="412.71" x2="1795.59" y2="412.71" xlink:href="#Áåçûìÿííûé_ãðàäèåíò_335"/><linearGradient id="Áåçûìÿííûé_ãðàäèåíò_14-4" x1="1753.99" y1="635.97" x2="2014.03" y2="635.97" xlink:href="#Áåçûìÿííûé_ãðàäèåíò_14"/><linearGradient id="Áåçûìÿííûé_ãðàäèåíò_14-5" x1="1451.35" y1="1053.99" x2="1653.77" y2="1053.99" gradientTransform="matrix(-1, 0, 0, 1, 2646.54, 0)" xlink:href="#Áåçûìÿííûé_ãðàäèåíò_14"/><linearGradient id="Áåçûìÿííûé_ãðàäèåíò_18-11" x1="775.97" y1="1152.54" x2="815.1" y2="1152.54" gradientTransform="matrix(1, 0.19, 0, 1, 287.19, -237.22)" xlink:href="#Áåçûìÿííûé_ãðàäèåíò_5"/><linearGradient id="Áåçûìÿííûé_ãðàäèåíò_18-12" x1="980.19" y1="1271.16" x2="1061.41" y2="1271.16" gradientTransform="matrix(-1, 0, 0, 1, 2031.97, 0)" xlink:href="#Áåçûìÿííûé_ãðàäèåíò_5"/><filter id="luminosity-noclip-6" x="894.67" y="475.34" width="340.87" height="203.64" filterUnits="userSpaceOnUse" color-interpolation-filters="sRGB"><feFlood flood-color="#fff" result="bg"/><feBlend in="SourceGraphic" in2="bg"/></filter><mask id="mask-7" x="54.18" y="230.22" width="340.87" height="203.64" maskUnits="userSpaceOnUse"><g class="cls-80"><g transform="translate(-840.49 -245.11)"><g class="cls-5"><polygon class="cls-6" points="894.67 565.75 1093.53 678.97 1235.54 612.16 996.75 475.34 894.67 565.75"/></g></g></g></mask><linearGradient id="Áåçûìÿííûé_ãðàäèåíò_36" x1="54.18" y1="332.04" x2="395.05" y2="332.04" gradientUnits="userSpaceOnUse"><stop offset="0" stop-color="#e2e4e9"/><stop offset="1" stop-color="#e2e4e9"/></linearGradient><linearGradient id="Áåçûìÿííûé_ãðàäèåíò_14-6" x1="883.83" y1="485.25" x2="1065.1" y2="485.25" xlink:href="#Áåçûìÿííûé_ãðàäèåíò_14"/><linearGradient id="Áåçûìÿííûé_ãðàäèåíò_17-2" x1="109.25" y1="139.59" x2="127.92" y2="139.59" xlink:href="#Áåçûìÿííûé_ãðàäèåíò_335"/><linearGradient id="Áåçûìÿííûé_ãðàäèåíò_18-13" x1="167.03" y1="132.39" x2="167.03" y2="249.66" xlink:href="#Áåçûìÿííûé_ãðàäèåíò_5"/><linearGradient id="Áåçûìÿííûé_ãðàäèåíò_18-14" x1="92.4" y1="251.47" x2="79.23" y2="167.23" xlink:href="#Áåçûìÿííûé_ãðàäèåíò_5"/><linearGradient id="Áåçûìÿííûé_ãðàäèåíò_17-3" x1="133.8" y1="216.67" x2="152.46" y2="216.67" xlink:href="#Áåçûìÿííûé_ãðàäèåíò_335"/><mask id="mask-8" x="57.8" y="1.8" width="152.01" height="279.86" maskUnits="userSpaceOnUse"><g transform="translate(-840.49 -245.11)"><g class="cls-7"><path class="cls-8" d="M1050.3,246.91h-152V480.38h.21c-1.18,12.05,6.11,24.33,22.06,33.53,29.67,17.14,77.79,17.14,107.48,0,15.94-9.2,23.24-21.48,22-33.53h.21Z"/></g></g></mask><linearGradient id="Áåçûìÿííûé_ãðàäèåíò_5-2" x1="974.29" y1="248.98" x2="974.29" y2="722.54" xlink:href="#Áåçûìÿííûé_ãðàäèåíò_5"/></defs><g class="cls-9"><g id="Layer_1" data-name="Layer 1"><path class="cls-10" d="M1207.46,615.23a11.76,11.76,0,0,0-11.44,0l-97.93,53.07a8,8,0,0,1-7.44.17l-35.39-17.66a8,8,0,0,1-.38-14l41.31-22.47a11.82,11.82,0,0,0,0-20.58l-193.34-110a1.93,1.93,0,1,0-1.89,3.37l193.33,110a8,8,0,0,1,0,13.85L1053,633.45a11.82,11.82,0,0,0,.57,20.85L1088.92,672a11.81,11.81,0,0,0,11-.26l97.94-53.07a8,8,0,0,1,7.7,0l376.24,208.87a1.91,1.91,0,0,0,.93.23,1.93,1.93,0,0,0,.92-3.62Z" transform="translate(-840.49 -245.11)"/><path class="cls-11" d="M2018.83,1410a11.84,11.84,0,0,1,0-20.58l214.07-116.14a4.71,4.71,0,0,0,2.64-4.24,4.59,4.59,0,0,0-2.64-4.19l-110.61-55.29a8.56,8.56,0,0,1,.07-15.31l149.55-79.74a4.64,4.64,0,0,0,2.64-4.12,4.8,4.8,0,0,0-2.5-4.24L1895.24,901.76a1.88,1.88,0,0,1-.83-2.56,2,2,0,0,1,2.63-.84l376.74,204.33a8.53,8.53,0,0,1-.13,15.24L2124,1197.68a4.68,4.68,0,0,0,0,8.35l110.61,55.3a8.54,8.54,0,0,1,0,15.3l-213.88,116.09a8,8,0,0,0-4.06,6.94,7.85,7.85,0,0,0,4.06,6.95Z" transform="translate(-840.49 -245.11)"/><path class="cls-10" d="M1519.2,987a4.68,4.68,0,0,1,0,8.36L1240.09,1141.5a8.54,8.54,0,0,0,0,15.31l113.75,59.13a8,8,0,0,1,4.05,6.94,7.84,7.84,0,0,1-4.05,7l-328.73,190.22a1.86,1.86,0,0,1-2.78-1.61l-4.82-.46s.54,10.57,9.12,5.62l329.14-190.43a11.84,11.84,0,0,0,0-20.58l-114-59.19a4.73,4.73,0,0,1-2.63-4.25,4.59,4.59,0,0,1,2.63-4.18l279.11-146.12a8.56,8.56,0,0,0-.06-15.31Z" transform="translate(-840.49 -245.11)"/><g class="cls-12"><polygon class="cls-13" points="1540.51 799.42 1059.68 1095.79 834.63 967.99 1327.64 681.47 1540.51 799.42"/></g><g class="cls-14"><path class="cls-15" d="M1701.48,1268.78c-14.36,0-35.7-2.47-55.78-14.21L1009.15,886.11c-23.45-13.59-37.42-36.3-37.36-60.77s14.19-47.26,37.82-60.8l435.63-251c20-11.53,41.17-13.94,55.39-13.94s35.71,2.46,55.77,14.2L2193,882.32c23.46,13.57,37.43,36.29,37.38,60.74s-14.19,47.27-37.83,60.81l-435.63,250.95c-20,11.54-41.16,14-55.4,14Z" transform="translate(-840.49 -245.11)"/><path class="cls-16" d="M1446.79,516.27C1466.45,505,1487.64,502.6,1502,503c3.08.07,6.44.26,10,.63a114.45,114.45,0,0,1,45.26,14.34L2191.41,885c17.8,10.31,29.39,26,32.87,43.15,1.43,5.19,1.42,11,1.41,16.45-.05,23-16.55,46.18-38.7,58.87l-430.1,247.77a108.5,108.5,0,0,1-33.18,12.2,121.38,121.38,0,0,1-21.33,2.15h0c-14.41.19-35.53-2.25-55.11-13.7L1010.71,883.42C993.82,873.64,982.6,859,978.65,843c-1.95-6-2-12.83-2-19.25,0-23,16.72-46.27,38.88-59Z" transform="translate(-840.49 -245.11)"/><path class="cls-17" d="M1448.34,519c19.3-11.12,40.53-13.35,55.05-12.68,3.08.15,6.41.4,9.92.85,11.67.94,31,6.82,44.85,14.89l631.7,365.67c17.74,10.27,28.54,25.95,30.66,42.64,1.33,4.84.53,10.71.52,15.81-.05,21.47-18.9,45.08-39.58,56.93l-424.57,244.59c-9.94,5.73-23.32,10.68-32.62,12.34a117.28,117.28,0,0,1-21,2.39h0c-14.47.39-35.35-2-54.44-13.18L1012.26,880.73c-16.89-9.78-27.35-24.47-29.9-40.13-1.82-5.61-.93-12.54-.91-18.54,0-21.46,19.25-45.28,39.93-57.13Z" transform="translate(-840.49 -245.11)"/><path class="cls-18" d="M1449.88,521.65c18.95-10.91,40.22-13,54.89-12,3.08.21,6.38.53,9.83,1.06,10.84.87,31.62,7.95,44.43,15.45L2188.3,890.37c17.68,10.24,27.71,25.94,28.46,42.14,1.23,4.49-.37,10.43-.38,15.16,0,19.94-21.24,44-40.44,55l-419,241.4c-9.23,5.32-23.42,10.93-32.06,12.48a113,113,0,0,1-20.65,2.64h0c-14.53.58-35.18-1.79-53.78-12.67L1013.82,878.05c-16.89-9.78-26.6-24.57-27.75-39.81-1.69-5.21.19-12.25.21-17.81,0-19.93,21.78-44.31,41-55.31Z" transform="translate(-840.49 -245.11)"/><path class="cls-19" d="M1451.43,524.34c18.59-10.71,39.9-12.77,54.72-11.41,3.08.28,6.35.67,9.74,1.28,10,.8,32.19,9.08,44,16l626.84,362.85c17.62,10.2,26.86,25.92,26.24,41.62,1.14,4.15-1.25,10.16-1.26,14.53,0,18.4-23.59,42.91-41.32,53.07l-413.52,238.21c-8.52,4.92-23.53,11.2-31.5,12.62a108.63,108.63,0,0,1-20.31,2.9h0c-14.59.78-35-1.57-53.11-12.15l-636.6-368.5c-16.88-9.78-25.84-24.66-25.59-39.47-1.56-4.81,1.31-12,1.33-17.1,0-18.4,24.31-43.32,42-53.48Z" transform="translate(-840.49 -245.11)"/><path class="cls-20" d="M1453,527c18.23-10.5,39.58-12.48,54.55-10.78,3.08.35,6.32.82,9.64,1.5,9.18.74,32.77,10.21,43.61,16.55l624.41,361.45c17.56,10.16,26,25.9,24,41.11,1,3.8-2.14,9.88-2.15,13.89,0,16.87-25.95,41.82-42.19,51.13l-408,235c-7.81,4.5-23.64,11.46-31,12.76a104.74,104.74,0,0,1-20,3.15h0c-14.64,1-34.83-1.35-52.43-11.64l-636.61-368.5c-16.89-9.78-25.09-24.75-23.44-39.15-1.43-4.4,2.44-11.67,2.45-16.38,0-16.86,26.84-42.33,43.09-51.64Z" transform="translate(-840.49 -245.11)"/><path class="cls-21" d="M1454.53,529.72c17.88-10.3,39.26-12.2,54.38-10.15,3.08.42,6.29,1,9.55,1.72,8.34.67,33.34,11.34,43.2,17.11l622,360c17.49,10.13,25.18,25.89,21.82,40.6.95,3.46-3,9.61-3,13.25,0,15.34-28.3,40.74-43.07,49.2L1756.9,1233.33c-7.1,4.09-23.75,11.71-30.39,12.9a100.52,100.52,0,0,1-19.64,3.4h0c-14.7,1.16-34.66-1.13-51.77-11.13L1018.48,870c-16.88-9.78-24.33-24.84-21.28-38.81-1.3-4,3.56-11.39,3.57-15.67,0-15.33,29.37-41.35,44.14-49.81Z" transform="translate(-840.49 -245.11)"/><path class="cls-22" d="M1456.08,532.41c17.52-10.09,38.93-11.92,54.21-9.52,3.08.49,6.26,1.1,9.46,1.94,7.51.61,33.91,12.47,42.79,17.66l619.54,358.63c17.44,10.09,24.35,25.87,19.62,40.09.85,3.11-3.91,9.33-3.92,12.61,0,13.8-30.65,39.65-43.94,47.26L1756.9,1229.74c-6.39,3.69-23.85,12-29.83,13a94.85,94.85,0,0,1-19.3,3.65h0c-14.76,1.36-34.49-.9-51.1-10.61L1020,867.3c-16.89-9.78-23.58-24.92-19.13-38.48-1.17-3.6,4.68-11.1,4.68-15,0-13.8,31.91-40.36,45.2-48Z" transform="translate(-840.49 -245.11)"/><path class="cls-23" d="M1457.63,535.1c17.16-9.89,38.61-11.64,54-8.88a88.86,88.86,0,0,1,9.37,2.16c6.67.53,34.48,13.59,42.37,18.2L2180.53,903.8c17.37,10.06,23.5,25.86,17.4,39.59.76,2.76-4.8,9.05-4.8,12,0,12.26-33,38.55-44.82,45.32l-391.4,225.48c-5.68,3.28-24,12.23-29.28,13.18a90.51,90.51,0,0,1-19,3.9h0c-14.81,1.55-34.31-.67-50.43-10.1L1021.59,864.62c-16.88-9.78-22.82-25-17-38.15-1-3.21,5.8-10.81,5.8-14.24,0-12.26,34.44-39.37,46.25-46.14Z" transform="translate(-840.49 -245.11)"/><path class="cls-24" d="M1459.18,537.79c16.8-9.68,38.29-11.37,53.87-8.25a81.05,81.05,0,0,1,9.28,2.38c5.83.47,35.06,14.72,42,18.75L2179,906.49c17.3,10,22.66,25.84,15.19,39.07.67,2.42-5.69,8.78-5.69,11.33,0,10.74-35.36,37.47-45.7,43.4l-385.87,222.29c-5,2.86-24.07,12.49-28.72,13.32a86.08,86.08,0,0,1-18.62,4.15h0c-14.87,1.74-34.14-.45-49.76-9.58L1023.15,861.93c-16.89-9.78-22.07-25.1-14.82-37.82-.91-2.8,6.92-10.52,6.92-13.51,0-10.74,37-38.4,47.31-44.32Z" transform="translate(-840.49 -245.11)"/><path class="cls-25" d="M1460.73,540.48c16.44-9.48,38-11.1,53.7-7.62a75.86,75.86,0,0,1,9.19,2.6c5,.4,35.63,15.85,41.54,19.31l612.26,354.41c17.25,10,21.82,25.82,13,38.56.57,2.07-6.58,8.51-6.59,10.69,0,9.2-37.7,36.38-46.56,41.46L1756.91,1219c-4.26,2.46-24.18,12.75-28.16,13.46a80.43,80.43,0,0,1-18.28,4.41h0c-14.93,1.94-34-.23-49.1-9.07L1024.7,859.24c-16.88-9.77-21.31-25.19-12.66-37.48-.78-2.41,8-10.24,8-12.8,0-9.2,39.5-37.41,48.36-42.49Z" transform="translate(-840.49 -245.11)"/><path class="cls-26" d="M1462.28,543.17c16.09-9.27,37.66-10.83,53.53-7a70.28,70.28,0,0,1,9.09,2.82c4.17.33,36.21,17,41.14,19.86l609.83,353c17.18,10,21,25.81,10.77,38,.48,1.73-7.46,8.24-7.47,10.06,0,7.66-40.05,35.29-47.44,39.52l-374.81,215.92c-3.55,2-24.29,13-27.61,13.6a76.47,76.47,0,0,1-18,4.66h0c-15,2.13-33.79,0-48.42-8.56L1026.26,856.56c-16.89-9.78-20.56-25.28-10.5-37.16-.66-2,9.15-9.94,9.15-12.08,0-7.67,42-36.42,49.41-40.65Z" transform="translate(-840.49 -245.11)"/><path class="cls-27" d="M1463.83,545.86c15.73-9.07,37.34-10.57,53.36-6.36a65.66,65.66,0,0,1,9,3c3.34.27,36.78,18.1,40.72,20.41l607.4,351.6c17.13,9.92,20.14,25.79,8.57,37.54.38,1.38-8.35,8-8.36,9.41,0,6.14-42.4,34.21-48.31,37.59l-369.29,212.74c-2.84,1.64-24.4,13.26-27.05,13.74a71.94,71.94,0,0,1-17.61,4.91h0c-15,2.32-33.62.21-47.75-8l-636.7-368.56c-16.88-9.77-19.8-25.37-8.34-36.82-.52-1.61,10.27-9.66,10.27-11.37,0-6.13,44.56-35.44,50.46-38.82Z" transform="translate(-840.49 -245.11)"/><path class="cls-28" d="M1465.38,548.55c15.37-8.86,37-10.31,53.19-5.72a60.17,60.17,0,0,1,8.91,3.25c2.5.2,37.35,19.23,40.31,21l605,350.19c17.06,9.89,19.3,25.78,6.35,37,.29,1-9.24,7.68-9.24,8.77,0,4.6-44.76,33.11-49.19,35.65l-363.76,209.55c-2.13,1.23-24.5,13.53-26.49,13.89a66.91,66.91,0,0,1-17.27,5.15h0c-15.1,2.52-33.45.44-47.08-7.53L1029.37,851.19c-16.88-9.78-19-25.46-6.19-36.5-.39-1.2,11.39-9.37,11.39-10.65,0-4.6,47.09-34.45,51.52-37Z" transform="translate(-840.49 -245.11)"/><path class="cls-29" d="M1466.93,551.23c15-8.65,36.71-10,53-5.08a55.39,55.39,0,0,1,8.82,3.47c1.67.14,37.92,20.36,39.9,21.52L2171.2,919.92c17,9.85,18.47,25.76,4.15,36.52.19.69-10.13,7.41-10.13,8.14,0,3.06-47.11,32-50.06,33.71l-358.24,206.37c-1.42.82-24.61,13.79-25.94,14a62.15,62.15,0,0,1-16.92,5.41h0c-15.16,2.71-33.27.67-46.42-7L1030.92,848.5c-16.88-9.78-18.29-25.55-4-36.16-.26-.81,12.51-9.08,12.51-9.94,0-3.06,49.62-33.46,52.57-35.16Z" transform="translate(-840.49 -245.11)"/><path class="cls-30" d="M1468.48,553.92c14.65-8.44,36.4-9.81,52.85-4.45a52,52,0,0,1,8.73,3.69c.83.07,38.5,21.49,39.48,22.07l600.11,347.38c16.94,9.81,17.62,25.74,1.94,36,.09.34-11,7.13-11,7.49,0,1.54-49.46,30.94-50.94,31.79l-352.7,203.18c-.71.41-24.72,14-25.39,14.16a58.19,58.19,0,0,1-16.58,5.66h0c-15.21,2.9-33.1.89-45.75-6.5L1032.48,845.81c-16.88-9.77-17.54-25.63-1.88-35.83-.13-.4,13.63-8.79,13.63-9.22,0-1.53,52.15-32.48,53.62-33.32Z" transform="translate(-840.49 -245.11)"/><path class="cls-31" d="M2168.09,925.29,1531.35,556.71c-16.88-9.87-44.37-9.87-61.32-.1l-435.72,251c-17.06,9.77-17.16,25.72-.28,35.5l636.75,368.59c16.87,9.86,44.35,9.86,61.32.08l435.72-251C2184.88,951,2185,935.07,2168.09,925.29Z" transform="translate(-840.49 -245.11)"/></g><path class="cls-32" d="M2180.67,920.36c0,6.47-4.27,12.95-12.82,17.87l-435.74,251c-17,9.78-44.45,9.76-61.31-.06L1034.05,820.6c-8.39-4.87-12.57-11.26-12.59-17.65l0,22.39c0,6.39,4.19,12.77,12.58,17.65l636.75,368.56c16.86,9.82,44.33,9.85,61.32.06l435.74-251c8.54-4.91,12.82-11.39,12.81-17.85Z" transform="translate(-840.49 -245.11)"/><path class="cls-33" d="M2168.09,902.74,1531.35,534.16c-16.88-9.87-44.37-9.87-61.32-.09l-435.72,251c-17.06,9.77-17.16,25.73-.28,35.51l636.75,368.58c16.87,9.86,44.35,9.86,61.32.09l435.72-251C2184.88,928.48,2185,912.52,2168.09,902.74Z" transform="translate(-840.49 -245.11)"/><polygon class="cls-34" points="1299.21 650.26 816.91 928.11 191.62 565.54 673.9 287.7 1299.21 650.26"/><path class="cls-15" d="M1118.34,880.67,1080.84,859c-1.77-1-3.21-.19-3.21,1.88v1a7.07,7.07,0,0,0,3.21,5.57l37.49,21.69c1.76,1,3.22.18,3.22-1.87v-1A7,7,0,0,0,1118.34,880.67Z" transform="translate(-840.49 -245.11)"/><path class="cls-35" d="M1123.57,883.08a7.38,7.38,0,0,0-1.08-2.06,6.05,6.05,0,0,0-1.81-1.7l-37.5-21.69a2.26,2.26,0,0,0-2.26-.23l-2.33,1.33a2.26,2.26,0,0,1,2.25.23l37.5,21.71a5.92,5.92,0,0,1,1.82,1.69,7.54,7.54,0,0,1,1.06,2,5.65,5.65,0,0,1,.33,1.82v1a2.27,2.27,0,0,1-1,2.09l2.34-1.34a2.25,2.25,0,0,0,1-2.09v-1A5.62,5.62,0,0,0,1123.57,883.08Z" transform="translate(-840.49 -245.11)"/><path class="cls-35" d="M1160.17,902.7a6.05,6.05,0,0,0-1.81-1.7l-17.78-10.28a2.27,2.27,0,0,0-2.27-.23l-2.33,1.34a2.28,2.28,0,0,1,2.27.23L1156,902.35a5.87,5.87,0,0,1,1.81,1.68,8,8,0,0,1,1.08,2.06,5.6,5.6,0,0,1,.31,1.81v1a2.25,2.25,0,0,1-1,2.09l2.35-1.34a2.26,2.26,0,0,0,1-2.09v-1a5.56,5.56,0,0,0-.32-1.8A7.62,7.62,0,0,0,1160.17,902.7Z" transform="translate(-840.49 -245.11)"/><path class="cls-15" d="M1156,902.35l-17.77-10.29c-1.79-1-3.22-.2-3.22,1.87v1a7.09,7.09,0,0,0,3.21,5.57L1156,910.8c1.77,1,3.21.17,3.21-1.87v-1A7,7,0,0,0,1156,902.35Z" transform="translate(-840.49 -245.11)"/><path class="cls-32" d="M1961.61,1032.85l-12.77-7.39c-6.37-3.69-17.06-3.3-24.32.88l-23.37,13.07a14.3,14.3,0,0,0-5.39,5c-2.48,4.28-1,9,3.79,11.75l12.78,7.39c6.37,3.69,17.05,3.31,24.32-.88l23.37-13.08a14.41,14.41,0,0,0,5.39-5C1967.89,1040.32,1966.36,1035.59,1961.61,1032.85Z" transform="translate(-840.49 -245.11)"/><path class="cls-15" d="M1961.61,1037.16l-12.77-7.38c-6.37-3.69-17.06-3.3-24.32.89l-23.37,13.06a14.43,14.43,0,0,0-5.39,5,8.53,8.53,0,0,0-.76,2.23,9.75,9.75,0,0,0,4.55,5.21l12.78,7.39c6.37,3.69,17.05,3.31,24.32-.89l23.37-13.07a14.41,14.41,0,0,0,5.39-5,8.47,8.47,0,0,0,.76-2.22A9.8,9.8,0,0,0,1961.61,1037.16Z" transform="translate(-840.49 -245.11)"/><path class="cls-32" d="M1300.8,641.56l-57,32.94c-1.76,1-1.94,2.54-.42,3.42h0a6.59,6.59,0,0,0,5.93-.24l57-32.94c1.75-1,2-2.54.43-3.42h0A6.6,6.6,0,0,0,1300.8,641.56Z" transform="translate(-840.49 -245.11)"/><g class="cls-14"><path class="cls-15" d="M2171,1389.58c-61.23-32.3-159.55-30.71-219.59,3.55s-59.08,88.2,2.16,120.5,159.56,30.7,219.61-3.56S2232.29,1421.86,2171,1389.58Z" transform="translate(-840.49 -245.11)"/><path class="cls-16" d="M2169.5,1390.45c-60.36-31.83-157.29-30.27-216.48,3.51s-58.24,87,2.13,118.79,157.3,30.26,216.5-3.5S2229.88,1422.28,2169.5,1390.45Z" transform="translate(-840.49 -245.11)"/><path class="cls-17" d="M2168,1391.33c-59.51-31.38-155-29.83-213.38,3.46s-57.41,85.7,2.1,117.08,155,29.83,213.39-3.45S2227.48,1422.7,2168,1391.33Z" transform="translate(-840.49 -245.11)"/><path class="cls-18" d="M2166.43,1392.21c-58.64-30.92-152.78-29.4-210.27,3.41s-56.57,84.45,2.07,115.37,152.78,29.4,210.28-3.4S2225.07,1423.13,2166.43,1392.21Z" transform="translate(-840.49 -245.11)"/><path class="cls-19" d="M2164.89,1393.09c-57.77-30.47-150.52-29-207.16,3.35s-55.73,83.21,2,113.67,150.52,29,207.17-3.35S2222.66,1423.55,2164.89,1393.09Z" transform="translate(-840.49 -245.11)"/><path class="cls-20" d="M2163.35,1394c-56.9-30-148.26-28.53-204,3.3s-54.9,82,2,112,148.26,28.52,204.06-3.3S2220.26,1424,2163.35,1394Z" transform="translate(-840.49 -245.11)"/><path class="cls-21" d="M2161.81,1394.84c-56-29.54-146-28.09-200.94,3.26s-54.06,80.71,2,110.26,146,28.09,201-3.25S2217.85,1424.39,2161.81,1394.84Z" transform="translate(-840.49 -245.11)"/><path class="cls-22" d="M2160.27,1395.72c-55.17-29.09-143.75-27.66-197.83,3.21s-53.22,79.46,2,108.55,143.74,27.66,197.84-3.2S2215.44,1424.81,2160.27,1395.72Z" transform="translate(-840.49 -245.11)"/><path class="cls-23" d="M2158.73,1396.6c-54.3-28.63-141.49-27.22-194.72,3.16s-52.39,78.21,1.92,106.84,141.48,27.22,194.73-3.15S2213,1425.23,2158.73,1396.6Z" transform="translate(-840.49 -245.11)"/><path class="cls-24" d="M2157.19,1397.48c-53.43-28.18-139.23-26.79-191.61,3.1s-51.55,77,1.88,105.14,139.23,26.79,191.63-3.1S2210.63,1425.65,2157.19,1397.48Z" transform="translate(-840.49 -245.11)"/><path class="cls-25" d="M2155.65,1398.36c-52.56-27.72-137-26.36-188.5,3.05s-50.72,75.72,1.85,103.44,137,26.35,188.52-3S2208.22,1426.07,2155.65,1398.36Z" transform="translate(-840.49 -245.11)"/><path class="cls-26" d="M2154.11,1399.24c-51.7-27.27-134.71-25.93-185.39,3s-49.88,74.46,1.82,101.73,134.71,25.91,185.41-3S2205.82,1426.49,2154.11,1399.24Z" transform="translate(-840.49 -245.11)"/><path class="cls-27" d="M2152.57,1400.11c-50.83-26.8-132.45-25.48-182.28,3s-49,73.21,1.79,100,132.45,25.48,182.3-2.95S2203.41,1426.92,2152.57,1400.11Z" transform="translate(-840.49 -245.11)"/><path class="cls-28" d="M2151,1401c-50-26.35-130.2-25-179.18,2.91s-48.21,72,1.76,98.31,130.19,25,179.19-2.9S2201,1427.34,2151,1401Z" transform="translate(-840.49 -245.11)"/><path class="cls-29" d="M2149.5,1401.87c-49.1-25.89-127.94-24.62-176.07,2.85s-47.37,70.72,1.73,96.62,127.93,24.61,176.08-2.86S2198.6,1427.76,2149.5,1401.87Z" transform="translate(-840.49 -245.11)"/><path class="cls-30" d="M2148,1402.75c-48.24-25.44-125.68-24.18-173,2.8s-46.53,69.47,1.7,94.91,125.67,24.17,173-2.8S2196.19,1428.18,2148,1402.75Z" transform="translate(-840.49 -245.11)"/><path class="cls-31" d="M2146.42,1403.63c-47.37-25-123.42-23.75-169.85,2.75s-45.7,68.22,1.67,93.2,123.41,23.74,169.86-2.75S2193.78,1428.6,2146.42,1403.63Z" transform="translate(-840.49 -245.11)"/></g><path class="cls-36" d="M1976.22,1373.36c47.56-27.46,124.66-27.46,172.21,0,23.22,13.4,35.09,30.86,35.64,48.42q.46,15,0,30c-.55,17.56-12.42,35-35.64,48.42-47.55,27.45-124.65,27.45-172.21,0-23.2-13.4-35.07-30.86-35.62-48.42q-.48-15,0-30C1941.15,1404.22,1953,1386.76,1976.22,1373.36Z" transform="translate(-840.49 -245.11)"/><path class="cls-33" d="M1976.22,1373.36c-47.55,27.46-47.55,72,0,99.43s124.66,27.45,172.21,0,47.56-72,0-99.43S2023.78,1345.9,1976.22,1373.36Z" transform="translate(-840.49 -245.11)"/><path class="cls-37" d="M2141.34,1379.56c-43.94-23.89-115.21-23.89-159.17,0s-44,62.62,0,86.51,115.23,23.89,159.17,0S2185.3,1403.45,2141.34,1379.56Z" transform="translate(-840.49 -245.11)"/><path class="cls-38" d="M2133.49,1389.87c-39.61-21.54-103.85-21.54-143.47,0s-39.61,56.44,0,78,103.86,21.54,143.47,0S2173.11,1411.39,2133.49,1389.87Z" transform="translate(-840.49 -245.11)"/><path class="cls-11" d="M2147.53,1318.44c0,20.73-2.59,78.19-30.23,100.33l-13.68,11.91-1.23-4.4c-6.72,1.72-14.46,1.85-23.32-.19l-1.23-.27c-22.23-20-39.05-45.1-51.73-70.92-18.24-37.19-27.91-75.74-32.86-102.19l-.5-.45-21.51-18.1v-.05l17.24-14.95c41.54,16,64.18,5.18,72.67-1l.06,0a29.91,29.91,0,0,0,3.81-3.27l.14-.14c.92,1.73,21.64,42.87,64.59,81.46,5.5,5,11.42,9.87,17.64,14.64C2147.39,1310.85,2147.53,1313.67,2147.53,1318.44Z" transform="translate(-840.49 -245.11)"/><path class="cls-39" d="M2147.39,1310.85l-17.23,15-11.18,2-37.36,6.54-3.55-5-19.32-27.55-7.91-52.6-2.9-19.45,13.21-11.5.06,0,3.81-3.27.14-.14c.92,1.73,21.64,42.87,64.59,81.46C2135.25,1301.17,2141.17,1306.08,2147.39,1310.85Z" transform="translate(-840.49 -245.11)"/><path class="cls-40" d="M2103.62,1430.68c-10.09,9.91-24,14.81-42.95,10.18-23.79-21.37-41.33-48.59-54.3-76.23-29.5-63.05-34.94-128.24-35.13-130.47v-.05c54.82,21.19,76.7-4.4,76.7-4.4s20.94,42.64,65.4,82.18q7.92,7.17,16.82,14S2133.81,1401,2103.62,1430.68Z" transform="translate(-840.49 -245.11)"/><path class="cls-41" d="M2048.84,1245.35s-18.65,21.83-65.41,3.78c0,0,9,115.79,76.24,176.23,64.82,15.78,59.28-98,59.28-98C2071.19,1290.84,2048.84,1245.35,2048.84,1245.35Z" transform="translate(-840.49 -245.11)"/><path class="cls-39" d="M2062,1339.1c1.57-.65,2.56-2.26,2.56-4.66,0-4.78-3.87-10.89-8.65-13.65s-8.66-1.12-8.66,3.66a15.68,15.68,0,0,0,3.39,8.81,1.3,1.3,0,0,1,.25,1l-3.37,20.25a1.34,1.34,0,0,0,.63,1.37l13.92,8.26a1.33,1.33,0,0,0,2-1.33l-3.07-22.22A1.42,1.42,0,0,1,2062,1339.1Z" transform="translate(-840.49 -245.11)"/><path class="cls-11" d="M2054.06,1357a1.31,1.31,0,0,1-.63-1.36l3.37-20.25a1.33,1.33,0,0,0-.25-1,15.69,15.69,0,0,1-3.38-8.81c0-2.56,1.13-4.18,2.88-4.75l-.13-.09c-4.78-2.76-8.66-1.12-8.66,3.66a15.68,15.68,0,0,0,3.39,8.81,1.3,1.3,0,0,1,.25,1l-3.37,20.25a1.34,1.34,0,0,0,.63,1.37l13.92,8.26a1.31,1.31,0,0,0,2-1.15Z" transform="translate(-840.49 -245.11)"/><g class="cls-42"><path class="cls-43" d="M2163.18,1109.84h-204v313.31h.28c-1.59,16.17,8.2,32.64,29.6,45,39.83,23,104.4,23,144.23,0,21.4-12.35,31.19-28.82,29.6-45h.28Z" transform="translate(-840.49 -245.11)"/></g><path class="cls-32" d="M1601.09,823.83,1469.27,900a11.25,11.25,0,0,1-10.08,0c-2.77-1.61-2.77-4.22,0-5.8L1591,818a11.14,11.14,0,0,1,10.06,0C1603.89,819.63,1603.89,822.24,1601.09,823.83Z" transform="translate(-840.49 -245.11)"/><path class="cls-32" d="M1733.74,775.08,1601.92,851.2a11.21,11.21,0,0,1-10.09,0c-2.77-1.6-2.77-4.22,0-5.8l131.85-76.13a11.14,11.14,0,0,1,10.06,0C1736.53,770.87,1736.53,773.49,1733.74,775.08Z" transform="translate(-840.49 -245.11)"/><path class="cls-32" d="M1402.43,924.54l38.46-22.18a11.1,11.1,0,0,1,10.07,0c2.79,1.61,2.79,4.2,0,5.82l-38.47,22.19a11.2,11.2,0,0,1-10.06,0C1399.66,928.76,1399.66,926.16,1402.43,924.54Z" transform="translate(-840.49 -245.11)"/><path class="cls-32" d="M1738.58,760.28,1777,738.09a11.16,11.16,0,0,1,10.07,0c2.78,1.62,2.78,4.22,0,5.82l-38.47,22.2a11.14,11.14,0,0,1-10.06,0C1735.81,764.5,1735.81,761.9,1738.58,760.28Z" transform="translate(-840.49 -245.11)"/><path class="cls-32" d="M1610.31,807.94l144.22-83.28a11.16,11.16,0,0,1,10.07,0c2.77,1.62,2.77,4.23,0,5.81l-144.23,83.29a11.2,11.2,0,0,1-10.06,0C1607.52,812.14,1607.52,809.52,1610.31,807.94Z" transform="translate(-840.49 -245.11)"/><path class="cls-32" d="M1433.38,936.45l144.22-83.28a11.16,11.16,0,0,1,10.07,0c2.78,1.63,2.78,4.22,0,5.81l-144.23,83.29a11.2,11.2,0,0,1-10.06,0C1430.59,940.65,1430.59,938,1433.38,936.45Z" transform="translate(-840.49 -245.11)"/><path class="cls-33" d="M1177.31,812.53l60.89-35.16c8.32-4.83,8.36-12.66,0-17.48s-21.94-4.84-30.33,0L1147,795c-8.36,4.83-8.36,12.65,0,17.52S1168.9,817.33,1177.31,812.53Z" transform="translate(-840.49 -245.11)"/><path class="cls-44" d="M1665.44,904.5,1704,882.21c5.28-3.05,5.3-8,0-11.07s-13.87-3.07-19.19,0l-38.57,22.29c-5.29,3.05-5.29,8,0,11.1S1660.15,907.52,1665.44,904.5Z" transform="translate(-840.49 -245.11)"/><polygon class="cls-45" points="1205.37 635.61 791.68 874.48 790.21 873.67 1203.93 634.76 1205.37 635.61"/><path class="cls-33" d="M1638,888.64l38.59-22.28c5.31-3.06,5.31-8,0-11.08s-13.87-3.06-19.2,0l-38.56,22.32c-5.27,3-5.3,8,0,11.09S1632.7,891.67,1638,888.64Z" transform="translate(-840.49 -245.11)"/><polygon class="cls-46" points="857.54 834.81 809.91 862.3 605.24 742.18 652.86 714.65 857.54 834.81"/><polygon class="cls-33" points="925.23 795.88 877.62 823.38 716.59 731.46 764.24 703.95 925.23 795.88"/><polygon class="cls-47" points="991.98 758.22 944.36 785.72 841.7 727.38 889.35 699.87 991.98 758.22"/><path class="cls-48" d="M1878.42,814.85c9.42-4.44,23.29-3.61,31,1.78s6.27,13.44-3.14,17.92-23.28,3.66-31-1.8S1869,819.3,1878.42,814.85Z" transform="translate(-840.49 -245.11)"/><path class="cls-11" d="M1858.78,840.88c15.4,10.84,43.17,12.48,61.92,3.57s21.61-24.89,6.22-35.72-43.13-12.5-61.9-3.6S1843.41,830,1858.78,840.88Zm9.31-4.39c-11.18-7.87-9.14-19.58,4.51-26s33.88-5.24,45,2.59,9.15,19.59-4.49,26S1879.24,844.37,1868.09,836.49Z" transform="translate(-840.49 -245.11)"/><path class="cls-49" d="M1926.92,808.73c8.31,5.89,11.27,13.25,9.33,20.21l-11.76-1.39c1.28-5-.94-10.25-6.87-14.48-11.14-7.83-31.36-9-45-2.59l-7.58-5.35C1883.79,796.23,1911.54,797.85,1926.92,808.73Z" transform="translate(-840.49 -245.11)"/><path class="cls-33" d="M1865,805.13l7.58,5.35c-10.52,5-14.17,13-10.12,20.1l-11.4,2.19C1845.53,823.06,1850.49,812,1865,805.13Z" transform="translate(-840.49 -245.11)"/><path class="cls-33" d="M1799.78,865.67c11.87-1.42,23.53,3,26,9.9s-5.23,13.6-17.13,15-23.51-3-26-9.86S1787.89,867.06,1799.78,865.67Z" transform="translate(-840.49 -245.11)"/><path class="cls-50" d="M1760.76,883c4.88,13.69,28.19,22.58,51.94,19.77s39.14-16.28,34.24-30S1818.79,850.21,1795,853,1755.87,869.28,1760.76,883Zm11.72-1.4c-3.55-10,7.65-19.79,24.91-21.82s34.24,4.41,37.85,14.39S1827.56,894,1810.32,896,1776.08,891.6,1772.48,881.64Z" transform="translate(-840.49 -245.11)"/><path class="cls-48" d="M1768.79,862.64l9.28,4.36c-5.15,4.11-7.46,9.28-5.59,14.64,3.6,10,20.55,16.39,37.84,14.36l2.38,6.81c-23.75,2.81-47.06-6.08-51.94-19.77C1758.12,875.6,1761.41,868.22,1768.79,862.64Z" transform="translate(-840.49 -245.11)"/><path class="cls-39" d="M1835.38,880.93l11.91,1.14c-2.88,10-16.24,18.58-34.59,20.74l-2.38-6.81C1823.64,894.43,1833.28,888.23,1835.38,880.93Z" transform="translate(-840.49 -245.11)"/><path class="cls-33" d="M1883.73,914.14c11.86-1.43,23.52,3,26,9.9s-5.24,13.6-17.12,15-23.51-3-26-9.87S1871.85,915.53,1883.73,914.14Z" transform="translate(-840.49 -245.11)"/><path class="cls-33" d="M1844.68,931.5c4.92,13.71,28.2,22.58,52,19.76s39.14-16.28,34.24-30-28.13-22.59-51.92-19.76S1839.83,917.74,1844.68,931.5Zm11.74-1.41c-3.57-10,7.66-19.78,24.92-21.81s34.25,4.43,37.79,14.38-7.61,19.77-24.86,21.8S1860,940.05,1856.42,930.09Z" transform="translate(-840.49 -245.11)"/><path class="cls-51" d="M1852.68,911.08l9.31,4.37c-5.13,4.1-7.42,9.29-5.57,14.64,3.59,10,20.53,16.41,37.85,14.37l2.36,6.8c-23.75,2.82-47-6-52-19.76C1842.06,924.06,1845.34,916.7,1852.68,911.08Z" transform="translate(-840.49 -245.11)"/><path class="cls-11" d="M1919.35,929.39l11.9,1.13c-2.89,10.06-16.25,18.61-34.62,20.74l-2.36-6.8C1907.58,942.89,1917.21,936.69,1919.35,929.39Z" transform="translate(-840.49 -245.11)"/><path class="cls-48" d="M1972.48,862.59c11.72-1.8,23.77,2.27,26.91,9s-3.84,13.76-15.62,15.54-23.81-2.25-26.93-9S1960.66,864.38,1972.48,862.59Z" transform="translate(-840.49 -245.11)"/><path class="cls-33" d="M1935.93,881.19c6.24,13.52,30.4,21.62,53.86,18s37.46-17.53,31.21-31.06-30.39-21.67-53.87-18.06S1929.7,867.69,1935.93,881.19Zm11.62-1.76c-4.56-9.87,5.65-20,22.66-22.6s34.61,3.26,39.16,13.11-5.61,20-22.69,22.6S1952.09,889.25,1947.55,879.43Z" transform="translate(-840.49 -245.11)"/><path class="cls-52" d="M1967.13,850.12c12.69-1.93,25.57-.47,35.78,3.44l-7,5.63a52.14,52.14,0,0,0-25.66-2.36c-17,2.56-27.22,12.73-22.66,22.6l-11.62,1.76C1929.7,867.69,1943.66,853.69,1967.13,850.12Z" transform="translate(-840.49 -245.11)"/><path class="cls-39" d="M1947.55,879.43c3.45,7.56,14.73,12.8,27.54,13.62l-1.29,6.86c-17.58-1.12-33-8.27-37.87-18.72Z" transform="translate(-840.49 -245.11)"/><path class="cls-33" d="M1797,793l46.87-27.08c2.32-1.33,2.29-3.46,0-4.8a9.1,9.1,0,0,0-8.36,0l-46.87,27.06c-2.29,1.34-2.31,3.5,0,4.84A9.39,9.39,0,0,0,1797,793Z" transform="translate(-840.49 -245.11)"/><path class="cls-53" d="M1809.74,800.28l46.89-27.07c2.29-1.35,2.27-3.48,0-4.8a9.16,9.16,0,0,0-8.37,0l-46.85,27.08c-2.32,1.32-2.33,3.49,0,4.82A9.26,9.26,0,0,0,1809.74,800.28Z" transform="translate(-840.49 -245.11)"/><path class="cls-48" d="M1822.59,807.69l46.87-27.05c2.32-1.33,2.27-3.49,0-4.83a9.31,9.31,0,0,0-8.37,0l-46.86,27.05c-2.3,1.34-2.32,3.52,0,4.84A9.24,9.24,0,0,0,1822.59,807.69Z" transform="translate(-840.49 -245.11)"/><path class="cls-39" d="M1699.86,849l46.88-27.07c2.28-1.31,2.28-3.46,0-4.8a9.26,9.26,0,0,0-8.39,0l-46.86,27.06c-2.29,1.34-2.32,3.52,0,4.85A9.27,9.27,0,0,0,1699.86,849Z" transform="translate(-840.49 -245.11)"/><path class="cls-39" d="M1712.58,856.27l46.85-27c2.32-1.33,2.32-3.5,0-4.82a9.24,9.24,0,0,0-8.35,0l-46.87,27.07c-2.29,1.32-2.32,3.51,0,4.86A9.29,9.29,0,0,0,1712.58,856.27Z" transform="translate(-840.49 -245.11)"/><path class="cls-33" d="M1725.41,863.69l46.87-27.05c2.29-1.34,2.29-3.49,0-4.83a9.32,9.32,0,0,0-8.36,0l-46.84,27.06c-2.31,1.35-2.34,3.52,0,4.88A9.26,9.26,0,0,0,1725.41,863.69Z" transform="translate(-840.49 -245.11)"/><path class="cls-32" d="M1220.94,826l38.47-22.21a11.12,11.12,0,0,1,10.08,0c2.77,1.6,2.77,4.21,0,5.81l-38.5,22.2a11.12,11.12,0,0,1-10,0C1218.16,830.15,1218.18,827.54,1220.94,826Z" transform="translate(-840.49 -245.11)"/><path class="cls-32" d="M1277.86,793.33,1307,776.49a11.12,11.12,0,0,1,10.08,0c2.77,1.62,2.77,4.21,0,5.81l-29.18,16.84a11.12,11.12,0,0,1-10.05,0C1275.08,797.54,1275.09,794.92,1277.86,793.33Z" transform="translate(-840.49 -245.11)"/><path class="cls-32" d="M1253.8,844.85l38.48-22.2a11,11,0,0,1,10.06,0c2.79,1.59,2.79,4.19,0,5.81l-38.47,22.2a11.1,11.1,0,0,1-10.07,0C1251.06,849,1251.06,846.42,1253.8,844.85Z" transform="translate(-840.49 -245.11)"/><path class="cls-32" d="M1318.3,882.12l38.47-22.22a11.25,11.25,0,0,1,10.08,0c2.77,1.61,2.77,4.22,0,5.8l-38.48,22.21a11,11,0,0,1-10.07,0C1315.53,886.32,1315.53,883.72,1318.3,882.12Z" transform="translate(-840.49 -245.11)"/><path class="cls-54" d="M1686.43,729.9s11.32-.85,21.71-11.41c15.34-15.6-30.4-23-30.4-23l-10.28,19.75Z" transform="translate(-840.49 -245.11)"/><path class="cls-55" d="M1596.89,518c-8.22-4.67-14-14.7-14.12-24.35h0a17.71,17.71,0,0,0-9-15.27L1527.28,452c-11.72-6.66-23,.23-22.89,14l1,131.16c.08,9.64,5.88,19.66,14.1,24.34l171.38,97.34c11.73,6.66,23-.23,22.9-14L1713,602a31.49,31.49,0,0,0-15.93-27.14Z" transform="translate(-840.49 -245.11)"/><path class="cls-56" d="M1709.1,714.77c2.4-4,2-3.95,2.08-6.6a18.39,18.39,0,0,0,.12-2.11l-.81-102.77a31.49,31.49,0,0,0-15.93-27.13l-100.18-56.9c-8.22-4.67-14-14.69-14.12-24.34a17.74,17.74,0,0,0-9-15.28l-46.52-26.42c-11.72-6.67-23,.22-22.9,14l1.05,131.16C1503,608,1508.8,618,1517,622.69l152.84,86.82-2.29,4.41,17.81,9.92s5,4.74,17.46-3C1705.62,718.29,1707.85,716.77,1709.1,714.77Z" transform="translate(-840.49 -245.11)"/><path class="cls-32" d="M1681.67,530.22l-156.18-86.59c-3.15-1.75-11.39-.06-11.39,7l4.37,179.18a4.72,4.72,0,0,0,2.44,4.13l153.22,90.55c3.14,1.74,10-.77,10-8.11V534.35A4.7,4.7,0,0,0,1681.67,530.22Z" transform="translate(-840.49 -245.11)"/><path class="cls-33" d="M1678.57,532.65l-157.43-87.28a4.76,4.76,0,0,0-7.07,4.17V632.67a4.78,4.78,0,0,0,2.45,4.17L1674,724.1a4.76,4.76,0,0,0,7.07-4.16V536.81A4.75,4.75,0,0,0,1678.57,532.65Z" transform="translate(-840.49 -245.11)"/><polygon class="cls-57" points="726.44 403.24 694.05 384.83 694.05 392.49 726.44 410.89 726.44 403.24"/><polygon class="cls-57" points="801.83 446.76 769.44 428.36 769.44 436.01 801.83 454.41 801.83 446.76"/><polygon class="cls-57" points="763.86 424.7 731.47 406.29 731.47 413.95 763.86 432.35 763.86 424.7"/><polygon class="cls-57" points="764.74 363.12 776.99 370.13 776.99 367.25 764.74 360.24 764.74 363.12"/><polygon class="cls-57" points="747.37 353.18 762.43 361.8 762.43 358.92 747.37 350.31 747.37 353.18"/><polygon class="cls-57" points="731.29 343.99 742.74 350.54 742.74 347.66 731.29 341.11 731.29 343.99"/><polygon class="cls-57" points="705.3 329.12 727.77 341.97 727.77 339.1 705.3 326.24 705.3 329.12"/><polygon class="cls-57" points="780.49 372.1 825.27 397.34 825.27 394.46 780.49 369.22 780.49 372.1"/><polygon class="cls-57" points="711.25 338.99 722.43 345.39 722.43 342.51 711.25 336.12 711.25 338.99"/><polygon class="cls-57" points="693.75 329 705.61 335.77 705.61 332.9 693.75 326.12 693.75 329"/><polygon class="cls-57" points="783 380.01 825.27 403.82 825.27 400.95 783 377.13 783 380.01"/><polygon class="cls-57" points="769.77 372.53 780.67 378.69 780.67 375.82 769.77 369.65 769.77 372.53"/><polygon class="cls-57" points="688.93 313.31 722.86 332.71 722.86 329.83 688.93 310.43 688.93 313.31"/><polygon class="cls-57" points="783 367.08 825.27 390.9 825.27 388.02 783 364.21 783 367.08"/><polygon class="cls-57" points="769.77 359.61 780.67 365.77 780.67 362.89 769.77 356.73 769.77 359.61"/><polygon class="cls-57" points="733.93 326.14 770.75 347.22 770.75 344.34 733.93 323.26 733.93 326.14"/><polygon class="cls-57" points="808.1 374.66 825.27 384.44 825.27 381.56 808.1 371.78 808.1 374.66"/><polygon class="cls-57" points="789.61 364.14 803.61 372.11 803.61 369.23 789.61 361.26 789.61 364.14"/><polygon class="cls-57" points="764.6 349.89 785.71 361.91 785.71 359.04 764.6 347.02 764.6 349.89"/><polygon class="cls-57" points="741.47 336.72 761.71 348.25 761.71 345.37 741.47 333.85 741.47 336.72"/><polygon class="cls-57" points="718.05 323.39 737.71 334.58 737.71 331.71 718.05 320.51 718.05 323.39"/><polygon class="cls-57" points="698.07 312.01 714.43 321.33 714.43 318.45 698.07 309.14 698.07 312.01"/><polygon class="cls-57" points="747.37 392.63 776.99 409.57 776.99 406.7 747.37 389.76 747.37 392.63"/><polygon class="cls-57" points="705.3 368.57 742.74 389.99 742.74 387.11 705.3 365.69 705.3 368.57"/><polygon class="cls-57" points="688.84 359.15 701.25 366.25 701.25 363.37 688.84 356.27 688.84 359.15"/><polygon class="cls-57" points="780.49 411.55 811.76 429.17 811.76 426.3 780.49 408.67 780.49 411.55"/><polygon class="cls-57" points="726.77 387.32 754.74 403.31 754.74 400.43 726.77 384.44 726.77 387.32"/><polygon class="cls-57" points="756.99 404.59 767.31 410.49 767.31 407.62 756.99 401.71 756.99 404.59"/><polygon class="cls-57" points="710.6 378.07 722.43 384.83 722.43 381.96 710.6 375.19 710.6 378.07"/><polygon class="cls-57" points="694.84 369.06 708.25 376.73 708.25 373.85 694.84 366.18 694.84 369.06"/><polygon class="cls-57" points="769.77 411.98 780.67 418.14 780.67 415.26 769.77 409.1 769.77 411.98"/><polygon class="cls-57" points="709.51 364.53 722.86 372.16 722.86 369.28 709.51 361.65 709.51 364.53"/><polygon class="cls-57" points="693.4 355.31 704.31 361.55 704.31 358.68 693.4 352.43 693.4 355.31"/><polygon class="cls-57" points="783 406.53 825.27 430.35 825.27 427.47 783 403.66 783 406.53"/><polygon class="cls-57" points="769.77 399.05 780.67 405.22 780.67 402.34 769.77 396.18 769.77 399.05"/><polygon class="cls-57" points="754.53 370.64 811.57 403.11 811.57 400.24 754.53 367.76 754.53 370.64"/><polygon class="cls-57" points="733.5 358.66 748.24 367.05 748.24 364.18 733.5 355.79 733.5 358.66"/><polygon class="cls-57" points="702.91 341.25 729.68 356.49 729.68 353.75 729.93 353.75 702.91 338.37 702.91 341.25"/><polygon class="cls-57" points="733.93 365.58 770.75 386.66 770.75 383.79 733.93 362.71 733.93 365.58"/><polygon class="cls-57" points="689.06 339.9 728.43 362.44 728.43 359.56 689.06 337.02 689.06 339.9"/><polygon class="cls-57" points="784.1 394.19 825.27 417.4 825.27 414.52 784.1 391.32 784.1 394.19"/><polygon class="cls-57" points="775.52 389.37 782.04 393.04 782.04 390.16 775.52 386.49 775.52 389.37"/><polygon class="cls-57" points="808.1 414.11 825.27 423.89 825.27 421.01 808.1 411.23 808.1 414.11"/><polygon class="cls-57" points="792.27 405.1 803.61 411.55 803.61 408.68 792.27 402.22 792.27 405.1"/><polygon class="cls-57" points="758.16 385.68 789.48 403.51 789.48 400.63 758.16 382.8 758.16 385.68"/><polygon class="cls-57" points="721.65 364.89 736.73 373.47 736.73 370.6 721.65 362.01 721.65 364.89"/><polygon class="cls-57" points="698.07 351.46 710.89 358.76 710.89 355.88 698.07 348.59 698.07 351.46"/><polygon class="cls-57" points="712.85 359.88 719.31 363.55 719.31 360.68 712.85 357 712.85 359.88"/><polygon class="cls-57" points="740.25 375.48 755.67 384.25 755.67 381.38 740.25 372.6 740.25 375.48"/><path class="cls-57" d="M1523.86,536.23h0Z" transform="translate(-840.49 -245.11)"/><path class="cls-55" d="M1700.27,712.52c0,5.59-1.8,10.05-4.82,12.91a12.67,12.67,0,0,1-4.4,2.79c-3.94,1.46-8.79,1.06-13.69-1.73l-26.78-15.21L1506,629.15c-8.23-4.68-14-14.71-14.1-24.33l-1.05-131.16a20,20,0,0,1,.47-4.62,14.52,14.52,0,0,1,6.3-9.84,12.83,12.83,0,0,1,5.24-2h0a17.26,17.26,0,0,1,10.86,2.43l46.53,26.44a17.37,17.37,0,0,1,6.51,6.42l.13.22c.12.22.25.43.37.68a17.76,17.76,0,0,1,2,7.95c.06,9.65,5.9,19.67,14.12,24.33l49.26,28,33.51,19,17.38,9.87a31.54,31.54,0,0,1,16,27.15Z" transform="translate(-840.49 -245.11)"/><path class="cls-58" d="M1697.75,713.79a19.26,19.26,0,0,1-2,9.15,13.61,13.61,0,0,1-4.68,5.28c-4.32,2.83-10.18,2.95-16.2-.46l-33.52-19.06L1503,630.15a29.47,29.47,0,0,1-13.63-24.09l-1-131.16a24.68,24.68,0,0,1,.28-3.84c1-6,4.4-10.21,9-11.86a14.35,14.35,0,0,1,7.91-.5h0a19.28,19.28,0,0,1,5.68,2.24l46.52,26.41a15.18,15.18,0,0,1,2.37,1.64,14.42,14.42,0,0,1,1.33,1.18l0,0a17.78,17.78,0,0,1,5.25,12.44c0,9.65,5.89,19.68,14.12,24.33l51.77,29.42,33.51,19,14.87,8.44a31.5,31.5,0,0,1,16,27.13Z" transform="translate(-840.49 -245.11)"/><path class="cls-15" d="M1599.66,594.8V578.26c0-7.14-5.55-15.83-12.62-19.76-3.82-2.12-7.57-2.55-10.35-1.15-2.62,1.34-4.07,4.07-4.07,7.71v15.1l-9.37-5.07-.93,45.44c-.18,9.81,9.69,23.18,22.06,29.88s22.59,4.22,22.77-5.58l.94-45.45Zm-10.85,32.76a.67.67,0,0,1-1,.65l-7.07-4.18a.65.65,0,0,1-.32-.68l1.73-10.28a.86.86,0,0,0-.14-.5,7.8,7.8,0,0,1-1.74-4.43c0-2.46,2-3.29,4.4-1.88s4.4,4.51,4.4,6.92a2.4,2.4,0,0,1-1.3,2.38.69.69,0,0,0-.5.72Zm5.58-35.61L1577.85,583v-16.9c0-1.91.65-3.28,1.84-3.89s3.39-.36,5.55.83c5,2.77,9.15,9.3,9.15,14.2Z" transform="translate(-840.49 -245.11)"/><path class="cls-54" d="M1622.89,767.12s11.31-.85,21.7-11.41c15.34-15.59-30.4-23-30.4-23l-10.28,19.75Z" transform="translate(-840.49 -245.11)"/><path class="cls-55" d="M1533.35,555.22c-8.22-4.67-14-14.69-14.13-24.34h0a17.7,17.7,0,0,0-9-15.28l-46.51-26.43c-11.73-6.66-23,.23-22.9,14l1,131.16c.08,9.64,5.89,19.66,14.11,24.34L1627.37,756c11.72,6.67,23-.23,22.89-14l-.8-102.76a31.49,31.49,0,0,0-15.94-27.14Z" transform="translate(-840.49 -245.11)"/><path class="cls-56" d="M1645.56,752c2.39-4,2-4,2.08-6.61a21,21,0,0,0,.11-2.11l-.8-102.77A31.5,31.5,0,0,0,1631,613.38l-100.17-56.9c-8.23-4.67-14-14.69-14.13-24.34a17.72,17.72,0,0,0-9-15.28l-46.51-26.42c-11.73-6.66-23,.23-22.9,14l1,131.16c.08,9.64,5.89,19.66,14.11,24.33l152.85,86.82-2.3,4.42,17.81,9.91s5.05,4.74,17.46-3C1642.07,755.51,1644.3,754,1645.56,752Z" transform="translate(-840.49 -245.11)"/><path class="cls-32" d="M1618.13,567.44l-156.19-86.59c-3.15-1.74-11.39-.06-11.39,7l4.38,179.18a4.72,4.72,0,0,0,2.43,4.13l153.22,90.55c3.15,1.74,10-.76,10-8.1V571.57A4.72,4.72,0,0,0,1618.13,567.44Z" transform="translate(-840.49 -245.11)"/><path class="cls-33" d="M1615,569.87,1457.59,482.6a4.76,4.76,0,0,0-7.07,4.16V669.9a4.76,4.76,0,0,0,2.46,4.16l157.42,87.26a4.77,4.77,0,0,0,7.08-4.16V574A4.77,4.77,0,0,0,1615,569.87Z" transform="translate(-840.49 -245.11)"/><polygon class="cls-57" points="662.9 440.46 630.51 422.06 630.51 429.71 662.9 448.11 662.9 440.46"/><polygon class="cls-57" points="738.28 483.98 705.89 465.58 705.89 473.23 738.28 491.63 738.28 483.98"/><polygon class="cls-57" points="700.31 461.92 667.92 443.51 667.92 451.17 700.31 469.57 700.31 461.92"/><polygon class="cls-57" points="701.2 400.35 713.45 407.35 713.45 404.47 701.2 397.46 701.2 400.35"/><polygon class="cls-57" points="683.83 390.4 698.89 399.02 698.89 396.15 683.83 387.53 683.83 390.4"/><polygon class="cls-57" points="667.75 381.21 679.2 387.76 679.2 384.88 667.75 378.34 667.75 381.21"/><polygon class="cls-57" points="641.75 366.34 664.23 379.19 664.23 376.32 641.75 363.46 641.75 366.34"/><polygon class="cls-57" points="716.94 409.32 761.73 434.56 761.73 431.68 716.94 406.44 716.94 409.32"/><polygon class="cls-57" points="647.7 376.22 658.88 382.61 658.88 379.74 647.7 373.34 647.7 376.22"/><polygon class="cls-57" points="630.21 366.22 642.07 372.99 642.07 370.12 630.21 363.34 630.21 366.22"/><polygon class="cls-57" points="719.45 417.23 761.73 441.04 761.73 438.17 719.45 414.35 719.45 417.23"/><polygon class="cls-57" points="706.22 409.75 717.13 415.91 717.13 413.04 706.22 406.88 706.22 409.75"/><polygon class="cls-57" points="625.38 350.53 659.32 369.93 659.32 367.06 625.38 347.65 625.38 350.53"/><polygon class="cls-57" points="719.45 404.31 761.73 428.12 761.73 425.24 719.45 401.43 719.45 404.31"/><polygon class="cls-57" points="706.22 396.83 717.13 402.99 717.13 400.11 706.22 393.95 706.22 396.83"/><polygon class="cls-57" points="670.38 363.36 707.2 384.44 707.2 381.56 670.38 360.48 670.38 363.36"/><polygon class="cls-57" points="744.55 411.88 761.73 421.66 761.73 418.78 744.55 409.01 744.55 411.88"/><polygon class="cls-57" points="726.07 401.36 740.07 409.33 740.07 406.45 726.07 398.48 726.07 401.36"/><polygon class="cls-57" points="701.06 387.12 722.16 399.14 722.16 396.26 701.06 384.24 701.06 387.12"/><polygon class="cls-57" points="677.92 373.95 698.16 385.47 698.16 382.6 677.92 371.07 677.92 373.95"/><polygon class="cls-57" points="654.5 360.61 674.16 371.81 674.16 368.93 654.5 357.73 654.5 360.61"/><polygon class="cls-57" points="634.53 349.24 650.88 358.55 650.88 355.68 634.53 346.36 634.53 349.24"/><polygon class="cls-57" points="683.83 429.85 713.45 446.8 713.45 443.92 683.83 426.98 683.83 429.85"/><polygon class="cls-57" points="641.75 405.79 679.2 427.21 679.2 424.33 641.75 402.91 641.75 405.79"/><polygon class="cls-57" points="625.29 396.38 637.7 403.47 637.7 400.6 625.29 393.5 625.29 396.38"/><polygon class="cls-57" points="716.94 448.77 748.22 466.39 748.22 463.52 716.94 445.89 716.94 448.77"/><polygon class="cls-57" points="663.22 424.54 691.19 440.53 691.19 437.65 663.22 421.66 663.22 424.54"/><polygon class="cls-57" points="693.44 441.81 703.77 447.71 703.77 444.84 693.44 438.94 693.44 441.81"/><polygon class="cls-57" points="647.05 415.29 658.88 422.06 658.88 419.18 647.05 412.41 647.05 415.29"/><polygon class="cls-57" points="631.29 406.28 644.7 413.95 644.7 411.07 631.29 403.4 631.29 406.28"/><polygon class="cls-57" points="706.22 449.2 717.13 455.36 717.13 452.49 706.22 446.32 706.22 449.2"/><polygon class="cls-57" points="645.97 401.75 659.32 409.38 659.32 406.5 645.97 398.87 645.97 401.75"/><polygon class="cls-57" points="629.85 392.53 640.77 398.77 640.77 395.9 629.85 389.65 629.85 392.53"/><polygon class="cls-57" points="719.45 443.75 761.73 467.57 761.73 464.69 719.45 440.88 719.45 443.75"/><polygon class="cls-57" points="706.22 436.28 717.13 442.44 717.13 439.56 706.22 433.4 706.22 436.28"/><polygon class="cls-57" points="690.98 407.86 748.02 440.34 748.02 437.46 690.98 404.98 690.98 407.86"/><polygon class="cls-57" points="669.95 395.88 684.69 404.27 684.69 401.4 669.95 393.01 669.95 395.88"/><polygon class="cls-57" points="639.37 378.47 666.13 393.71 666.13 390.98 666.39 390.98 639.37 375.59 639.37 378.47"/><polygon class="cls-57" points="670.38 402.81 707.2 423.89 707.2 421.01 670.38 399.93 670.38 402.81"/><polygon class="cls-57" points="625.51 377.13 664.89 399.66 664.89 396.78 625.51 374.25 625.51 377.13"/><polygon class="cls-57" points="720.55 431.41 761.73 454.63 761.73 451.75 720.55 428.54 720.55 431.41"/><polygon class="cls-57" points="711.98 426.59 718.5 430.26 718.5 427.38 711.98 423.71 711.98 426.59"/><polygon class="cls-57" points="744.55 451.33 761.73 461.11 761.73 458.23 744.55 448.45 744.55 451.33"/><polygon class="cls-57" points="728.73 442.32 740.07 448.78 740.07 445.9 728.73 439.44 728.73 442.32"/><polygon class="cls-57" points="694.61 422.9 725.93 440.73 725.93 437.86 694.61 420.02 694.61 422.9"/><polygon class="cls-57" points="658.11 402.11 673.18 410.69 673.18 407.82 658.11 399.24 658.11 402.11"/><polygon class="cls-57" points="634.53 388.68 647.34 395.98 647.34 393.11 634.53 385.81 634.53 388.68"/><polygon class="cls-57" points="649.3 397.1 655.76 400.78 655.76 397.9 649.3 394.22 649.3 397.1"/><polygon class="cls-57" points="676.71 412.7 692.12 421.48 692.12 418.6 676.71 409.82 676.71 412.7"/><path class="cls-57" d="M1460.31,573.45h0Z" transform="translate(-840.49 -245.11)"/><path class="cls-55" d="M1636.72,749.74c0,5.59-1.8,10.06-4.81,12.91a12.57,12.57,0,0,1-4.41,2.79c-3.94,1.46-8.78,1.06-13.68-1.73L1587,748.5l-144.6-82.12c-8.22-4.69-14-14.71-14.09-24.34l-1.06-131.15a20.08,20.08,0,0,1,.47-4.63,14.58,14.58,0,0,1,6.3-9.84,12.82,12.82,0,0,1,5.25-2h0a17.27,17.27,0,0,1,10.86,2.43l46.53,26.44a17.59,17.59,0,0,1,6.51,6.42c0,.07.09.16.12.22.13.22.25.43.38.68a17.92,17.92,0,0,1,2,8c.07,9.65,5.9,19.67,14.12,24.33l49.26,28,33.52,19,17.38,9.87a31.54,31.54,0,0,1,16,27.16Z" transform="translate(-840.49 -245.11)"/><path class="cls-59" d="M1634.2,751a19.45,19.45,0,0,1-2,9.16,13.67,13.67,0,0,1-4.69,5.27c-4.31,2.83-10.18,2.95-16.2-.46l-33.52-19.05-138.33-78.56a29.49,29.49,0,0,1-13.62-24.09l-1.06-131.15a26,26,0,0,1,.28-3.85c1-6,4.4-10.21,9-11.86a14.38,14.38,0,0,1,7.92-.5h0a19.5,19.5,0,0,1,5.67,2.24l46.53,26.41a15.81,15.81,0,0,1,2.36,1.64,12.21,12.21,0,0,1,1.33,1.19l0,0a18,18,0,0,1,2.8,3.6,17.79,17.79,0,0,1,2.45,8.84c.06,9.65,5.9,19.68,14.12,24.33l51.77,29.43,33.52,19,14.87,8.44a31.54,31.54,0,0,1,16,27.13Z" transform="translate(-840.49 -245.11)"/><path class="cls-15" d="M1536.11,632V615.48c0-7.14-5.55-15.83-12.62-19.75-3.82-2.13-7.56-2.56-10.34-1.16s-4.07,4.08-4.07,7.72v15.1l-9.37-5.08-.94,45.44c-.18,9.81,9.7,23.18,22.06,29.88s22.6,4.22,22.78-5.58l.93-45.45Zm-10.85,32.76a.67.67,0,0,1-1,.65l-7.06-4.18a.64.64,0,0,1-.33-.68l1.73-10.27a.8.8,0,0,0-.14-.51,7.79,7.79,0,0,1-1.73-4.43c0-2.46,2-3.28,4.4-1.88s4.39,4.51,4.39,6.92a2.39,2.39,0,0,1-1.29,2.38.7.7,0,0,0-.51.72Zm5.59-35.61-16.54-8.94v-16.9c0-1.91.64-3.28,1.83-3.89s3.39-.36,5.55.83c5,2.77,9.16,9.3,9.16,14.2Z" transform="translate(-840.49 -245.11)"/><path class="cls-54" d="M1557.75,802.86s11.31-.85,21.7-11.41c15.34-15.6-30.4-23-30.4-23l-10.28,19.76Z" transform="translate(-840.49 -245.11)"/><path class="cls-55" d="M1468.21,591c-8.22-4.67-14-14.69-14.12-24.34h0a17.73,17.73,0,0,0-9-15.28l-46.51-26.42c-11.73-6.66-23,.23-22.9,14l1,131.16c.07,9.64,5.88,19.66,14.1,24.33l171.38,97.35c11.72,6.66,23-.23,22.89-14l-.8-102.76a31.48,31.48,0,0,0-15.94-27.14Z" transform="translate(-840.49 -245.11)"/><path class="cls-56" d="M1580.42,787.73c2.39-4,1.95-4,2.08-6.6a21.19,21.19,0,0,0,.11-2.12l-.8-102.76a31.51,31.51,0,0,0-15.94-27.14L1465.7,592.22c-8.23-4.67-14-14.69-14.12-24.34a17.77,17.77,0,0,0-9-15.29l-46.51-26.42c-11.73-6.66-23,.23-22.9,14l1,131.16c.08,9.64,5.89,19.66,14.11,24.34l152.85,86.82-2.29,4.41,17.81,9.92s5,4.73,17.45-3C1576.93,791.25,1579.17,789.72,1580.42,787.73Z" transform="translate(-840.49 -245.11)"/><path class="cls-32" d="M1553,603.18,1396.8,516.59c-3.15-1.75-11.38-.06-11.38,7l4.37,179.18a4.74,4.74,0,0,0,2.43,4.13l153.22,90.54c3.15,1.75,10-.76,10-8.1V607.31A4.71,4.71,0,0,0,1553,603.18Z" transform="translate(-840.49 -245.11)"/><path class="cls-33" d="M1549.89,605.61l-157.43-87.28a4.77,4.77,0,0,0-7.08,4.17V705.63a4.78,4.78,0,0,0,2.46,4.17l157.42,87.26a4.77,4.77,0,0,0,7.08-4.17V609.76A4.73,4.73,0,0,0,1549.89,605.61Z" transform="translate(-840.49 -245.11)"/><polygon class="cls-57" points="597.76 476.2 565.37 457.79 565.37 465.44 597.76 483.84 597.76 476.2"/><polygon class="cls-57" points="673.14 519.72 640.75 501.31 640.75 508.97 673.14 527.37 673.14 519.72"/><polygon class="cls-57" points="635.17 497.65 602.78 479.25 602.78 486.9 635.17 505.31 635.17 497.65"/><polygon class="cls-57" points="636.06 436.08 648.31 443.08 648.31 440.21 636.06 433.2 636.06 436.08"/><polygon class="cls-57" points="618.69 426.14 633.75 434.75 633.75 431.88 618.69 423.26 618.69 426.14"/><polygon class="cls-57" points="602.61 416.94 614.06 423.49 614.06 420.62 602.61 414.07 602.61 416.94"/><polygon class="cls-57" points="576.62 402.07 599.09 414.93 599.09 412.05 576.62 399.2 576.62 402.07"/><polygon class="cls-57" points="651.8 445.06 696.59 470.29 696.59 467.42 651.8 442.18 651.8 445.06"/><polygon class="cls-57" points="582.57 411.95 593.75 418.34 593.75 415.47 582.57 409.08 582.57 411.95"/><polygon class="cls-57" points="565.07 401.95 576.93 408.73 576.93 405.86 565.07 399.07 565.07 401.95"/><polygon class="cls-57" points="654.31 452.96 696.59 476.78 696.59 473.91 654.31 450.09 654.31 452.96"/><polygon class="cls-57" points="641.08 445.49 651.99 451.65 651.99 448.77 641.08 442.61 641.08 445.49"/><polygon class="cls-57" points="560.24 386.27 594.18 405.67 594.18 402.79 560.24 383.39 560.24 386.27"/><polygon class="cls-57" points="654.31 440.04 696.59 463.86 696.59 460.98 654.31 437.17 654.31 440.04"/><polygon class="cls-57" points="641.08 432.56 651.99 438.73 651.99 435.85 641.08 429.69 641.08 432.56"/><polygon class="cls-57" points="605.24 399.1 642.06 420.17 642.06 417.3 605.24 396.22 605.24 399.1"/><polygon class="cls-57" points="679.41 447.62 696.59 457.4 696.59 454.52 679.41 444.74 679.41 447.62"/><polygon class="cls-57" points="660.93 437.1 674.93 445.06 674.93 442.19 660.93 434.21 660.93 437.1"/><polygon class="cls-57" points="635.92 422.85 657.02 434.87 657.02 431.99 635.92 419.97 635.92 422.85"/><polygon class="cls-57" points="612.78 409.68 633.02 421.21 633.02 418.33 612.78 406.8 612.78 409.68"/><polygon class="cls-57" points="589.36 396.35 609.02 407.54 609.02 404.66 589.36 393.47 589.36 396.35"/><polygon class="cls-57" points="569.39 384.97 585.75 394.29 585.75 391.41 569.39 382.1 569.39 384.97"/><polygon class="cls-57" points="618.69 465.59 648.31 482.53 648.31 479.66 618.69 462.71 618.69 465.59"/><polygon class="cls-57" points="576.62 441.52 614.06 462.94 614.06 460.07 576.62 438.64 576.62 441.52"/><polygon class="cls-57" points="560.15 432.11 572.56 439.21 572.56 436.33 560.15 429.23 560.15 432.11"/><polygon class="cls-57" points="651.8 484.51 683.08 502.13 683.08 499.25 651.8 481.63 651.8 484.51"/><polygon class="cls-57" points="598.08 460.27 626.05 476.26 626.05 473.38 598.08 457.39 598.08 460.27"/><polygon class="cls-57" points="628.3 477.55 638.63 483.45 638.63 480.57 628.3 474.67 628.3 477.55"/><polygon class="cls-57" points="581.91 451.03 593.75 457.79 593.75 454.91 581.91 448.15 581.91 451.03"/><polygon class="cls-57" points="566.15 442.02 579.56 449.68 579.56 446.81 566.15 439.14 566.15 442.02"/><polygon class="cls-57" points="641.08 484.93 651.99 491.1 651.99 488.22 641.08 482.06 641.08 484.93"/><polygon class="cls-57" points="580.83 437.49 594.18 445.12 594.18 442.24 580.83 434.61 580.83 437.49"/><polygon class="cls-57" points="564.71 428.27 575.63 434.51 575.63 431.63 564.71 425.39 564.71 428.27"/><polygon class="cls-57" points="654.31 479.49 696.59 503.3 696.59 500.42 654.31 476.62 654.31 479.49"/><polygon class="cls-57" points="641.08 472.01 651.99 478.17 651.99 475.3 641.08 469.13 641.08 472.01"/><polygon class="cls-57" points="625.84 443.59 682.88 476.07 682.88 473.19 625.84 440.72 625.84 443.59"/><polygon class="cls-57" points="604.81 431.62 619.55 440.01 619.55 437.14 604.81 428.74 604.81 431.62"/><polygon class="cls-57" points="574.23 414.2 601 429.45 601 426.71 601.25 426.71 574.23 411.33 574.23 414.2"/><polygon class="cls-57" points="605.24 438.54 642.06 459.62 642.06 456.75 605.24 435.67 605.24 438.54"/><polygon class="cls-57" points="560.37 412.86 599.75 435.4 599.75 432.52 560.37 409.98 560.37 412.86"/><polygon class="cls-57" points="655.41 467.15 696.59 490.36 696.59 487.48 655.41 464.28 655.41 467.15"/><polygon class="cls-57" points="646.84 462.32 653.36 466 653.36 463.12 646.84 459.45 646.84 462.32"/><polygon class="cls-57" points="679.41 487.06 696.59 496.85 696.59 493.97 679.41 484.19 679.41 487.06"/><polygon class="cls-57" points="663.59 478.05 674.93 484.51 674.93 481.64 663.59 475.18 663.59 478.05"/><polygon class="cls-57" points="629.47 458.63 660.79 476.46 660.79 473.59 629.47 455.76 629.47 458.63"/><polygon class="cls-57" points="592.97 437.85 608.04 446.43 608.04 443.56 592.97 434.97 592.97 437.85"/><polygon class="cls-57" points="569.39 424.42 582.2 431.72 582.2 428.84 569.39 421.55 569.39 424.42"/><polygon class="cls-57" points="584.16 432.84 590.62 436.51 590.62 433.64 584.16 429.96 584.16 432.84"/><polygon class="cls-57" points="611.57 448.44 626.98 457.21 626.98 454.34 611.57 445.56 611.57 448.44"/><path class="cls-57" d="M1395.17,609.19h0Z" transform="translate(-840.49 -245.11)"/><path class="cls-55" d="M1571.58,785.48c0,5.58-1.8,10-4.81,12.91a12.62,12.62,0,0,1-4.41,2.79c-3.94,1.46-8.78,1.06-13.68-1.74l-26.79-15.2-144.6-82.13c-8.22-4.68-14-14.71-14.09-24.33l-1-131.16a20.15,20.15,0,0,1,.46-4.63,14.63,14.63,0,0,1,6.3-9.84,12.81,12.81,0,0,1,5.25-1.95h0a17.32,17.32,0,0,1,10.86,2.42l46.53,26.45a17.44,17.44,0,0,1,6.51,6.42l.12.22c.13.21.25.43.38.68a18,18,0,0,1,2,8c.06,9.65,5.89,19.67,14.11,24.33l49.26,28,33.52,19,17.38,9.87a31.53,31.53,0,0,1,16,27.15Z" transform="translate(-840.49 -245.11)"/><path class="cls-60" d="M1569.06,786.75a19.38,19.38,0,0,1-2,9.15,13.56,13.56,0,0,1-4.69,5.28c-4.31,2.83-10.18,3-16.2-.46l-33.52-19.06L1374.31,703.1c-8-4.77-13.56-14.61-13.62-24.08l-1.06-131.16a26.1,26.1,0,0,1,.28-3.85c1-6,4.4-10.21,9-11.86a14.48,14.48,0,0,1,7.92-.49h0a19.38,19.38,0,0,1,5.68,2.24l46.52,26.41a15.1,15.1,0,0,1,2.36,1.64,12.09,12.09,0,0,1,1.33,1.18l0,0a19,19,0,0,1,2.79,3.6,17.8,17.8,0,0,1,2.45,8.85c.06,9.65,5.9,19.67,14.12,24.33l51.77,29.42,33.52,19,14.87,8.45a31.53,31.53,0,0,1,16,27.13Z" transform="translate(-840.49 -245.11)"/><path class="cls-15" d="M1471,667.76V651.21c0-7.13-5.55-15.82-12.62-19.75-3.82-2.12-7.56-2.56-10.34-1.15-2.63,1.33-4.07,4.07-4.07,7.71v15.1l-9.37-5.08-.94,45.45c-.18,9.8,9.7,23.18,22.06,29.88s22.6,4.22,22.78-5.59l.93-45.45Zm-10.85,32.76a.67.67,0,0,1-1,.65l-7.06-4.18a.68.68,0,0,1-.33-.69l1.73-10.27a.79.79,0,0,0-.14-.5,7.79,7.79,0,0,1-1.73-4.44c0-2.45,2-3.28,4.4-1.87s4.39,4.5,4.39,6.92a2.4,2.4,0,0,1-1.29,2.38.7.7,0,0,0-.51.72Zm5.59-35.61L1449.17,656v-16.9c0-1.91.64-3.28,1.83-3.9s3.39-.35,5.55.83c5,2.78,9.16,9.3,9.16,14.2Z" transform="translate(-840.49 -245.11)"/><path class="cls-61" d="M1737.61,399.11c-1,22-13.44,43.8-36.27,63.16-5.27,4.56-40.39,28.42-63.09,36.27-41.1,14.27-88.17,24.3-137.76,24.3-65.53,0-126.56-14.46-171.84-40.83-34.47-20-55.89-44.7-61.67-70.55,6.81-26.24,28.17-61.61,66.5-81.74,93.31-49.2,245-49.07,337.89.06C1708.16,349.34,1730.15,373.77,1737.61,399.11Z" transform="translate(-840.49 -245.11)"/><path class="cls-32" d="M1333.49,294.08c93.29-49.17,245-49.07,337.88,0,54.84,29.1,77.11,68.92,66.82,106.74-6.94-25.95-29.21-51.06-66.82-71-92.88-49.16-244.59-49.27-337.88-.1-38.35,20.17-59.7,55.54-66.53,81.8C1256.46,373.46,1277.91,323.28,1333.49,294.08Z" transform="translate(-840.49 -245.11)"/><path class="cls-32" d="M1763.25,397.32l.09,37.28c0,21.2-7,45.69-13.91,56.88-7.94,12.84-17.93,24.13-42.37,42.58l-5.55-39.56S1756.89,429.67,1763.25,397.32Z" transform="translate(-840.49 -245.11)"/><path class="cls-32" d="M1668.26,501.4c-30.9,12.14-42,15.8-53.32,19.11a392.28,392.28,0,0,1-67.39,13.2c-39.92,4.07-80.52,3.33-120.1-3.76-38.69-6.92-77.37-19.21-111.46-39.82-50.65-30.64-76.08-88.68-76.08-88.68l.13,28.1c.11,40.23,25.44,80.4,76.07,111.06A288.9,288.9,0,0,0,1377.16,568a398.25,398.25,0,0,0,118.91,18.7c41.7,0,118.9-5.24,172.19-33.21Z" transform="translate(-840.49 -245.11)"/><polygon class="cls-32" points="827.82 308.33 935.22 366.9 935.11 331.11 827.82 272.62 827.82 308.33"/><path class="cls-62" d="M1705.36,496.51c47.78-27.54,57.35-69.42,57.87-98.76v-1.88c0-.28,0-.57,0-.85a70.37,70.37,0,0,0-.66-10,23.54,23.54,0,0,0-.52-3.59c-.37-2.3-.89-4.66-1.46-7-.19-.75-1.65-6-2.31-7.87-.29-.9-.66-1.79-.94-2.69-.67-1.7-1.32-3.35-2-5-.47-1-.94-2.07-1.42-3.11-.57-1.23-1.23-2.5-1.89-3.72-1-1.89-4.19-7.41-4.76-8.26a46.47,46.47,0,0,0-2.73-4.11c0-.13-10.53-13.34-11.42-14.38-1.83-2-3.72-4-5.75-5.94s-4.29-4.25-6.65-6.28a191.54,191.54,0,0,0-20.56-15.7c-2.55-1.74-5.24-3.44-8-5.14-1.56-.94-3.12-1.84-4.67-2.78-101.83-59.14-267.89-59.14-370.36,0-1.66.94-3.26,1.89-4.87,2.83-3.06,1.89-6,3.82-9,5.75-1.47,1-2.88,2-4.3,3-2.83,2-5.51,4.06-8.16,6.09a176.2,176.2,0,0,0-14.43,12.64c-2.17,2.17-4.34,4.38-6.32,6.6s-3.87,4.39-5.71,6.6a118.5,118.5,0,0,0-9.57,13.78c-10.41,17.16-15.42,35.17-14.85,53.15,1.13,37.77,26.36,75.31,75.92,104.13,89.81,52.16,216.35,66.12,352.5,13.87l115,62.43,12.27-35.09Zm-67.11,2c-41.08,14.29-88.15,24.29-137.76,24.29-65.51,0-126.54-14.48-171.86-40.84-39.9-23.16-62.4-52.64-63.25-82.91q-.63-19.68,11.36-39.53a99.07,99.07,0,0,1,7.32-10.47c1.56-1.93,3.21-3.82,4.86-5.66s3.58-3.77,5.27-5.47a154.41,154.41,0,0,1,12.27-10.8c2.27-1.79,4.67-3.58,7.12-5.28l3.64-2.55c2.68-1.79,5.47-3.58,8.06-5.19,1.47-.84,3-1.74,4.48-2.63,45.75-26.37,107.11-40.94,172.75-40.94s126.73,14.52,171.77,40.7l2,1.22c.76.43,1.51.85,2.6,1.56,2.41,1.46,4.72,2.92,7.08,4.53a160.3,160.3,0,0,1,18,13.76c1.83,1.56,3.53,3.22,5.56,5.24,1.51,1.51,3,3.07,4.44,4.63,1.73,2.07,8.25,10.32,10,12.58.57.86,1.13,1.66,1.6,2.51.67,1,3,5,3.82,6.55.52,1,1,1.94,1.37,2.7s.8,1.69,1.13,2.44c.52,1.28,1,2.55,1.56,3.87l.66,1.89c.47,1.46,1.51,5.09,1.7,5.8.42,1.7.8,3.39,1.08,5.1.1.37.19,1.12.28,1.5a6.1,6.1,0,0,0,.14,1.27,48.51,48.51,0,0,1,.43,6.61v2.26c-.38,22.64-13,45.08-36.41,65C1696.07,466.8,1660.93,490.66,1638.25,498.54Z" transform="translate(-840.49 -245.11)"/><g class="cls-9"><path class="cls-63" d="M1775,550.83a83.06,83.06,0,0,0-20.36,42.46,55.24,55.24,0,0,0-.67,8.32c0,11.72,4.18,20,10.85,23.86L1961.33,739.9c-6.69-3.9-10.82-12.15-10.85-23.89-.06-16.66,7.41-33.53,17.5-46.49a71.68,71.68,0,0,1,18-16.75c6.5-4.1,14.87-7.34,22.65-5.63a18.3,18.3,0,0,1,5.45,2.07s-196.92-114.67-197.14-114.77C1802,526.36,1784.47,540.47,1775,550.83Z" transform="translate(-840.49 -245.11)"/><path class="cls-39" d="M1987.56,651.78c-20.62,11.91-37.15,40.65-37.08,64.23s16.7,33.17,37.33,21.26,37.15-40.65,37.08-64.21S2008.08,639.94,1987.56,651.78Z" transform="translate(-840.49 -245.11)"/></g><path class="cls-39" d="M1196,1017.3l-189.36-105c-3.82-2.12-13.81-.07-13.81,8.52l5.3,158.43a5.71,5.71,0,0,0,2.95,5l185.77,109.78c3.81,2.12,12.1-.92,12.1-9.82V1022.31A5.71,5.71,0,0,0,1196,1017.3Z" transform="translate(-840.49 -245.11)"/><path class="cls-64" d="M1192.22,1020.24,1001.35,914.43a5.78,5.78,0,0,0-8.58,5.05v163.23a5.77,5.77,0,0,0,3,5l190.87,105.79a5.76,5.76,0,0,0,8.57-5V1025.29A5.77,5.77,0,0,0,1192.22,1020.24Z" transform="translate(-840.49 -245.11)"/><path class="cls-56" d="M1091.66,1094.71h0c-10.59-5.73-19-17.18-18.86-25.55l.78-38.86,38.35,20.77-.79,38.84C1111,1098.3,1102.25,1100.45,1091.66,1094.71Z" transform="translate(-840.49 -245.11)"/><polygon class="cls-56" points="261.8 810.84 271.44 805.96 266.72 851.79 256.7 856.85 261.8 810.84"/><path class="cls-65" d="M1082,1099.6h0c-10.59-5.74-19-17.18-18.86-25.57l.79-38.84,38.34,20.76-.79,38.85C1101.33,1103.18,1092.61,1105.33,1082,1099.6Z" transform="translate(-840.49 -245.11)"/><polygon class="cls-46" points="223.46 790.08 233.09 785.19 271.44 805.96 261.8 810.84 223.46 790.08"/><path class="cls-35" d="M1123.78,1030.42c0-7.14-5.55-15.84-12.63-19.8-3.81-2.12-7.58-2.54-10.35-1.14-2.62,1.33-4.07,4.08-4.07,7.74v31.17c0,.54,1.17,1.21,2.62,1.49s2.62.07,2.62-.47c0,0,0-31.17,0-31.17,0-1.91.66-3.29,1.85-3.89,1.34-.68,3.37-.37,5.55.85,5,2.78,9.19,9.28,9.19,14.21v20.25h0s0,0,0,.08c0,.54,1.18,1.21,2.62,1.49s2.62.07,2.62-.47c0,0,0-.07,0-.1h0Z" transform="translate(-840.49 -245.11)"/><path class="cls-56" d="M1086,1069.29a2.81,2.81,0,0,0,1.57-2.84c0-2.92-2.37-6.65-5.28-8.33s-5.28-.69-5.28,2.23a9.53,9.53,0,0,0,2.07,5.37.81.81,0,0,1,.14.6l-2,12.35a.81.81,0,0,0,.38.84l8.49,5a.81.81,0,0,0,1.23-.81l-1.87-13.55A.85.85,0,0,1,1086,1069.29Z" transform="translate(-840.49 -245.11)"/><path class="cls-46" d="M1081.13,1080.23a.81.81,0,0,1-.38-.84l2-12.35a.81.81,0,0,0-.14-.6,9.5,9.5,0,0,1-2.07-5.37,2.73,2.73,0,0,1,1.76-2.89s0,0-.08-.06c-2.92-1.68-5.28-.69-5.28,2.23a9.53,9.53,0,0,0,2.07,5.37.81.81,0,0,1,.14.6l-2,12.35a.81.81,0,0,0,.38.84l8.49,5a.8.8,0,0,0,1.21-.7Z" transform="translate(-840.49 -245.11)"/><path class="cls-56" d="M1080.75,1038.21c-.14.62-1.61.81-3.28.43s-2.91-1.2-2.77-1.82,1.61-.82,3.28-.43S1080.89,1037.59,1080.75,1038.21Z" transform="translate(-840.49 -245.11)"/><polygon class="cls-15" points="172.7 709.96 189.59 719.15 189.59 716.69 172.7 707.5 172.7 709.96"/><polygon class="cls-15" points="192.68 720.84 207.37 728.84 207.37 726.38 192.68 718.38 192.68 720.84"/><polygon class="cls-15" points="172.7 715.48 181.89 720.49 181.89 718.03 172.7 713.03 172.7 715.48"/><polygon class="cls-15" points="194.91 727.58 207.37 734.37 207.37 731.91 194.91 725.12 194.91 727.58"/><polygon class="cls-15" points="183.2 721.2 192.84 726.46 192.84 724 183.2 718.74 183.2 721.2"/><polygon class="cls-15" points="172.7 721.01 207.37 739.9 207.37 737.44 172.7 718.56 172.7 721.01"/><polygon class="cls-15" points="172.7 726.55 184.06 732.73 184.06 730.27 172.7 724.09 172.7 726.55"/><polygon class="cls-15" points="188.29 735.03 207.37 745.42 207.37 742.97 188.29 732.58 188.29 735.03"/><polygon class="cls-15" points="172.7 732.07 207.37 750.95 207.37 748.5 172.7 729.62 172.7 732.07"/><polygon class="cls-15" points="172.7 737.6 180.7 741.96 180.7 739.51 172.7 735.15 172.7 737.6"/><polygon class="cls-15" points="183.2 743.31 192.84 748.58 192.84 746.12 183.2 740.87 183.2 743.31"/><polygon class="cls-15" points="194.47 749.46 207.37 756.48 207.37 754.03 194.47 747 194.47 749.46"/><polygon class="cls-15" points="172.7 743.13 189.59 752.33 189.59 749.88 172.7 740.68 172.7 743.13"/><polygon class="cls-15" points="192.68 754.02 207.37 762.02 207.37 759.56 192.68 751.56 192.68 754.02"/><g class="cls-14"><path class="cls-15" d="M865.73,1398.49l138.07-79a25.09,25.09,0,0,1,25.29.16l137.75,75.13a27.21,27.21,0,0,1-.41,46.74l-138.12,77.85a25.1,25.1,0,0,1-24.95-.12l-137.7-73.93a27.24,27.24,0,0,1,.07-46.81Z" transform="translate(-840.49 -245.11)"/><path class="cls-16" d="M1004.37,1320.53a22.4,22.4,0,0,1,8-2.75,25.52,25.52,0,0,1,4.38-.27,26.17,26.17,0,0,1,12.59,3.63l136.47,74.42a27.31,27.31,0,0,1,7.32,6.28,24.45,24.45,0,0,1,5.38,16.79c-.07,9.1-6.11,18.13-13.83,22.48l-136.22,76.78a26,26,0,0,1-12.14,3.37,25.33,25.33,0,0,1-3.8-.2,23.18,23.18,0,0,1-8.59-2.88l-137.11-73.63a27.67,27.67,0,0,1-8.42-7.53,24.11,24.11,0,0,1-4.61-15.57c0-9.1,6.11-18.24,13.81-22.64Z" transform="translate(-840.49 -245.11)"/><path class="cls-17" d="M1004.94,1321.59a20.22,20.22,0,0,1,7.92-2.57,26.93,26.93,0,0,1,4.31-.12,27.46,27.46,0,0,1,12.42,3.74l135.18,73.72a28.55,28.55,0,0,1,7.32,6.13,22,22,0,0,1,5,16.53c-.07,8.5-7,17.64-14.18,21.7l-134.31,75.71a27.16,27.16,0,0,1-11.92,3.47,25.61,25.61,0,0,1-3.72-.09,21,21,0,0,1-8.48-2.69L868,1443.81a29.25,29.25,0,0,1-8.49-7.36,21.38,21.38,0,0,1-4.3-15.4c0-8.49,7.09-17.82,14.27-21.93Z" transform="translate(-840.49 -245.11)"/><path class="cls-18" d="M1005.5,1322.65a18.17,18.17,0,0,1,7.86-2.38,27.29,27.29,0,0,1,4.24,0c3.63,0,9.08,2,12.24,3.86l133.9,73a30.38,30.38,0,0,1,7.32,6,19.9,19.9,0,0,1,4.65,16.27c-.07,7.89-7.85,17.15-14.54,20.92L1028.77,1515c-3.06,1.73-8.19,3.58-11.69,3.58a27.82,27.82,0,0,1-3.65,0,19.18,19.18,0,0,1-8.36-2.51l-135.94-73c-2.72-1.58-6.78-4.67-8.55-7.2a19.1,19.1,0,0,1-4-15.22c0-7.89,8.06-17.39,14.73-21.21Z" transform="translate(-840.49 -245.11)"/><path class="cls-19" d="M1006.07,1323.71a16.55,16.55,0,0,1,7.79-2.2,29.18,29.18,0,0,1,4.17.15c3.35,0,9.15,2.27,12.07,4L1162.7,1398c2.14,1.25,5.82,3.9,7.32,5.82a18,18,0,0,1,4.29,16c-.07,7.28-8.71,16.66-14.89,20.14l-130.49,73.56c-2.83,1.6-8.24,3.68-11.47,3.68a28.56,28.56,0,0,1-3.57.14,17.3,17.3,0,0,1-8.25-2.32l-135.35-72.68c-2.52-1.45-7-4.69-8.62-7a17.24,17.24,0,0,1-3.68-15c0-7.28,9-17,15.2-20.49Z" transform="translate(-840.49 -245.11)"/><path class="cls-20" d="M1006.63,1324.76a15.08,15.08,0,0,1,7.73-2c1-.18,3.07.29,4.09.29,3.07,0,9.23,2.53,11.9,4.1l131.32,71.62c2,1.15,5.94,3.91,7.31,5.67a16.38,16.38,0,0,1,3.92,15.76c-.05,6.67-9.57,16.16-15.23,19.35L1029.08,1512c-2.59,1.47-8.28,3.79-11.24,3.79a29.72,29.72,0,0,1-3.5.25,15.87,15.87,0,0,1-8.13-2.12l-134.77-72.37c-2.3-1.33-7.18-4.73-8.68-6.87a15.62,15.62,0,0,1-3.37-14.86c0-6.67,10-16.55,15.66-19.78Z" transform="translate(-840.49 -245.11)"/><path class="cls-21" d="M1007.2,1325.82a13.87,13.87,0,0,1,7.66-1.82c.91-.16,3.09.43,4,.43,2.79,0,9.29,2.79,11.72,4.23l130,70.91c1.78,1,6.07,3.92,7.32,5.52a15,15,0,0,1,3.55,15.5c0,6.06-10.44,15.67-15.58,18.57l-126.69,71.41c-2.35,1.33-8.32,3.89-11,3.89a31,31,0,0,1-3.42.36,14.58,14.58,0,0,1-8-1.93L872.6,1440.84c-2.1-1.21-7.39-4.76-8.74-6.7a14.24,14.24,0,0,1-3.07-14.69c0-6.07,11-16.12,16.12-19.06Z" transform="translate(-840.49 -245.11)"/><path class="cls-22" d="M1007.76,1326.88a12.75,12.75,0,0,1,7.6-1.63c.82-.15,3.11.56,3.95.56,2.51,0,9.36,3.06,11.54,4.35l128.75,70.21c1.6,1,6.19,3.93,7.31,5.37a13.76,13.76,0,0,1,3.19,15.24c0,5.46-11.31,15.18-15.94,17.79l-124.77,70.33c-2.13,1.2-8.37,4-10.79,4-.74,0-2.62.59-3.34.48a13.47,13.47,0,0,1-7.91-1.75l-133.6-71.73c-1.88-1.1-7.58-4.79-8.8-6.54a13.07,13.07,0,0,1-2.76-14.51c0-5.46,12-15.7,16.59-18.34Z" transform="translate(-840.49 -245.11)"/><path class="cls-23" d="M1008.33,1327.94a11.73,11.73,0,0,1,7.52-1.45c.74-.13,3.14.71,3.89.71,2.23,0,9.42,3.32,11.37,4.47l127.45,69.51c1.43.83,6.32,3.93,7.32,5.21a12.67,12.67,0,0,1,2.82,15c0,4.85-12.17,14.69-16.29,17l-122.87,69.26c-1.89,1.06-8.41,4.1-10.57,4.1-.65,0-2.62.69-3.26.59a12.29,12.29,0,0,1-7.79-1.56l-133-71.42c-1.68-1-7.79-4.81-8.87-6.37a12,12,0,0,1-2.45-14.33c0-4.86,12.95-15.28,17-17.63Z" transform="translate(-840.49 -245.11)"/><path class="cls-24" d="M1008.89,1329a10.86,10.86,0,0,1,7.46-1.26c.64-.12,3.16.84,3.81.84,2,0,9.5,3.59,11.2,4.59L1157.52,1402c1.25.73,6.45,3.93,7.32,5,4.37,3.7,5.24,10.41,2.45,14.73,0,4.25-13,14.2-16.63,16.23l-121,68.18c-1.65.94-8.45,4.21-10.34,4.21-.57,0-2.62.79-3.18.7a11.36,11.36,0,0,1-7.68-1.36l-132.43-71.11c-1.46-.85-8-4.84-8.93-6.2-4.14-3.56-4.91-10.07-2.14-14.16,0-4.25,13.92-14.86,17.52-16.91Z" transform="translate(-840.49 -245.11)"/><path class="cls-25" d="M1009.46,1330.06a10.08,10.08,0,0,1,7.39-1.08c.55-.09,3.18,1,3.74,1,1.67,0,9.56,3.86,11,4.72l124.88,68.1c1.07.63,6.56,3.94,7.31,4.9,4.44,3.58,5.19,10.38,2.09,14.47,0,3.64-13.9,13.71-17,15.45l-119.05,67.11c-1.42.8-8.5,4.31-10.12,4.31-.49,0-2.63.89-3.11.81a10.48,10.48,0,0,1-7.56-1.17l-131.84-70.79c-1.26-.73-8.18-4.87-9-6-4.24-3.45-4.9-10.07-1.83-14,0-3.64,14.9-14.43,18-16.2Z" transform="translate(-840.49 -245.11)"/><path class="cls-26" d="M1010,1331.12a9.33,9.33,0,0,1,7.32-.89c.46-.08,3.2,1.12,3.67,1.12,1.39,0,9.63,4.11,10.84,4.83l123.59,67.4c.9.53,6.69,4,7.32,4.75,4.51,3.46,5.12,10.34,1.72,14.21,0,3-14.77,13.22-17.34,14.67l-117.15,66c-1.18.67-8.54,4.42-9.89,4.42-.41,0-2.63,1-3,.93a9.71,9.71,0,0,1-7.45-1l-131.25-70.48c-1-.6-8.39-4.89-9.07-5.87-4.35-3.34-4.9-10.08-1.53-13.8,0-3,15.89-14,18.45-15.48Z" transform="translate(-840.49 -245.11)"/><path class="cls-27" d="M1010.59,1332.18a8.74,8.74,0,0,1,7.26-.7c.36-.07,3.22,1.25,3.59,1.25,1.12,0,9.71,4.38,10.68,5l122.3,66.7c.71.42,6.81,4,7.31,4.6,4.59,3.34,5.06,10.3,1.36,14,0,2.42-15.63,12.72-17.69,13.88l-115.24,65c-1,.53-8.59,4.52-9.67,4.52-.33,0-2.63,1.09-3,1a9.07,9.07,0,0,1-7.33-.79l-130.67-70.17c-.84-.48-8.58-4.93-9.13-5.7-4.46-3.25-4.9-10.09-1.22-13.64,0-2.42,16.87-13.58,18.92-14.75Z" transform="translate(-840.49 -245.11)"/><path class="cls-28" d="M1011.16,1333.23a8.23,8.23,0,0,1,7.19-.51c.27,0,3.24,1.39,3.52,1.39.84,0,9.77,4.65,10.5,5.08l121,66c.54.31,6.94,4,7.32,4.44,4.65,3.23,5,10.26,1,13.7,0,1.82-16.5,12.23-18,13.1l-113.34,63.88c-.71.4-8.63,4.63-9.44,4.63-.25,0-2.64,1.19-2.88,1.15a8.46,8.46,0,0,1-7.23-.6l-130.07-69.85c-.63-.37-8.79-5-9.2-5.54-4.57-3.14-4.89-10.1-.91-13.46,0-1.82,17.84-13.16,19.38-14Z" transform="translate(-840.49 -245.11)"/><path class="cls-29" d="M1011.72,1334.29a7.79,7.79,0,0,1,7.13-.32c.18,0,3.26,1.53,3.45,1.53.56,0,9.84,4.91,10.32,5.19l119.73,65.3c.35.21,7.06,4,7.31,4.29,4.73,3.11,4.93,10.22.62,13.44,0,1.21-17.36,11.74-18.39,12.32l-111.43,62.81c-.47.26-8.68,4.73-9.21,4.73-.17,0-2.64,1.29-2.8,1.27a7.93,7.93,0,0,1-7.12-.42l-129.49-69.54c-.42-.24-9-5-9.26-5.37-4.68-3-4.89-10.1-.6-13.28,0-1.21,18.82-12.73,19.85-13.32Z" transform="translate(-840.49 -245.11)"/><path class="cls-30" d="M1012.29,1335.35a7.33,7.33,0,0,1,7.05-.14c.1,0,3.29,1.67,3.38,1.67.28,0,9.91,5.18,10.16,5.32l118.43,64.59c.18.11,7.19,4,7.31,4.14a7.92,7.92,0,0,1,.26,13.18c0,.61-18.23,11.25-18.74,11.54l-109.52,61.73c-.24.14-8.73,4.84-9,4.84-.09,0-2.65,1.39-2.73,1.38a7.37,7.37,0,0,1-7-.23L883,1434.15c-.21-.12-9.19-5-9.32-5.21a7.86,7.86,0,0,1-.3-13.1c0-.6,19.8-12.31,20.31-12.6Z" transform="translate(-840.49 -245.11)"/><path class="cls-31" d="M1012.85,1336.41a6.94,6.94,0,0,1,7,0l137.75,75.12a7.52,7.52,0,0,1-.11,12.92l-138.12,77.85a6.94,6.94,0,0,1-6.89,0l-137.7-74a7.52,7.52,0,0,1,0-12.93Z" transform="translate(-840.49 -245.11)"/></g><path class="cls-36" d="M1156.07,1409.09l-130.88-71.18a26.65,26.65,0,0,0-25.69.13l-127.45,71.1a9.83,9.83,0,0,0,0,17.17l127.45,71.1a26.65,26.65,0,0,0,25.69.14l130.88-71.19A9.83,9.83,0,0,0,1156.07,1409.09Z" transform="translate(-840.49 -245.11)"/><path class="cls-15" d="M1156.07,1389.79l-130.88-71.18a26.62,26.62,0,0,0-25.69.14l-127.45,71.1a9.83,9.83,0,0,0,0,17.17l127.45,71.1a26.65,26.65,0,0,0,25.69.13l130.88-71.18A9.84,9.84,0,0,0,1156.07,1389.79Z" transform="translate(-840.49 -245.11)"/><path class="cls-66" d="M872,1404.67l47.05,26.25,80.4,44.85a26.65,26.65,0,0,0,25.69.13l84.32-45.85,36.76-20,9.81-5.32a9.85,9.85,0,0,0,0-17.3l-130.89-71.17a26.62,26.62,0,0,0-25.69.14l-82.88,46.24L872,1387.5A9.84,9.84,0,0,0,872,1404.67Z" transform="translate(-840.49 -245.11)"/><path class="cls-67" d="M1013.65,1147.24c-13.93-1.36-19.89,2.41-20.49,5.61-1.49,8.15,5.74,13.88,17.44,13.76,11.15-.1,27.34-1.41,40.31-8.63,5.1-2.85-5.56-10.57-9.07-10.43A208.69,208.69,0,0,1,1013.65,1147.24Z" transform="translate(-840.49 -245.11)"/><path class="cls-67" d="M1005.59,1147.11l11.35,1.89c-3.32-9.19,1.41-10.44,1.41-10.44l-4.73-8Z" transform="translate(-840.49 -245.11)"/><path class="cls-67" d="M1054.49,1116.72c-.52,6.33-5.88,18.84-12.56,32.06-3,6,5.31,13.1,11.1,7.88s10-39.19,10-39.19A6,6,0,0,0,1054.49,1116.72Z" transform="translate(-840.49 -245.11)"/><path class="cls-67" d="M1058.72,1096.18c-2,3.77-3.27,1.16-4.52,1.78s-4.32,6-4.42,7.28c-.12,1.51,4.7,5.94,4.71,12.59,0,1.19,8.42.55,8.42.55s3.25-9.65,3.3-12.28,3-5.69,1.52-5.55-3.6,3-4.74,4.56-2.47-1.29-2.37-5.09,4.5-10.7,2.88-11.31C1062.46,1088.32,1060.29,1093.17,1058.72,1096.18Z" transform="translate(-840.49 -245.11)"/><path class="cls-67" d="M988.11,1259.74s7.48,18.83,1.51,32.21c-9.71,21.73-6.39,68.5-7.2,74s9.07,11.38,11.48.41,14-59.27,19.05-70.84,3.13-33.22,3.13-33.22Z" transform="translate(-840.49 -245.11)"/><path class="cls-67" d="M1008.73,1274.47c4.66,9.59,9.54,38,7.12,55.71s3.13,52.44,3.27,58,9.93,10.43,10.45-.85,5.88-56.13,8.93-68.55-2.19-50.19-2.19-50.19S1004.07,1264.87,1008.73,1274.47Z" transform="translate(-840.49 -245.11)"/><path class="cls-68" d="M1036.71,1402.16c-6.66-4-5.88-15.9-5.88-15.9-8.6.33-12.57-1.32-12.57-1.32,0,3.62-4.13,9.81-4.63,15.25-.44,4.85,3.59,7.73,3.59,12h3.54l-1.79-9.92c5.79,0,13.16,10,20.37,10,7.56-.09,9.7-2.38,10.27-4.76S1043.37,1406.19,1036.71,1402.16Z" transform="translate(-840.49 -245.11)"/><path class="cls-68" d="M1000.66,1382.78c-6.66-4-5.88-15.9-5.88-15.9-8.6.33-12.56-1.32-12.56-1.32,0,3.62-4.14,9.81-4.63,15.25-.45,4.85,3.58,7.73,3.58,12h3.54l-1.78-9.9c5.78,0,13.15,10,20.36,9.94,7.56-.09,9.7-2.38,10.28-4.77S1007.32,1386.81,1000.66,1382.78Z" transform="translate(-840.49 -245.11)"/><path class="cls-69" d="M993.8,1198.05a79.87,79.87,0,0,1-7.9,17.58c-5.73,9.67-11.09,24-9.14,35s-2.22,54.06-6.2,76.12c0,0,19.64,3.81,27.07,9,26,18.32,54.15,1.19,54.15,1.19,0-47-19.62-107.89-23.61-134.84Z" transform="translate(-840.49 -245.11)"/><path class="cls-70" d="M1034.05,1172.21c-1.69-4.34-2.62-8.7-4.47-15.63s-13.25-11.27-24-9.47c-11.79,2-13.78,18.83-13.8,29.47,0,9.86,1,21-4.68,36.94,12.48,11.16,32.95,16.51,45.8,9.62-1.54-10.72-6.87-28.8-4.51-36.91C1028.8,1184.87,1037.34,1180.65,1034.05,1172.21Z" transform="translate(-840.49 -245.11)"/><path class="cls-67" d="M1025.87,1117.58a19.52,19.52,0,0,0-.11-5.08c-1.28-10.67-16.44-.8-21.66,7.87s16.23,24.06,20.62,16.47c5.18-8.93,2.75-15.68,2.47-16.07C1026.15,1119.33,1025.61,1118.81,1025.87,1117.58Z" transform="translate(-840.49 -245.11)"/><path class="cls-11" d="M1010.64,1101.29c-11.55,3-15.31-3.82-21.45,9.72-5.05,11.17-13.86.57-19.08,13.51s.64,9.15-7,21.29c-6.48,10.34.5,20,3.19,26.73s7.57,10.07,1.64,19.79c0,0,24.14-.32,22.22-16.33s13.34-8.34,12-19.65c-1.08-9.07,10.55-5.32,10.23-11s10.51-8.25,3.24-18.56c-4.31-6.12,12.24-10,11.45-16.61C1026.57,1105.72,1022.18,1098.29,1010.64,1101.29Z" transform="translate(-840.49 -245.11)"/><path class="cls-67" d="M1014,1121.25c-.84,1.9-.11,4.7,1.07,6.42s2.24,1.13,2.05.25c-.24-1.13,1-3.16.38-6.1C1017.31,1121,1014.81,1119.36,1014,1121.25Z" transform="translate(-840.49 -245.11)"/><path class="cls-67" d="M1030.93,1171.61c-.58-14-5.14-19.36-8.38-19.51-8.29-.36-13,7.59-11.24,19.16,1.65,11,5.18,26.88,14.12,38.73,3.53,4.67,10.91-6,10.28-9.46S1031.42,1183.53,1030.93,1171.61Z" transform="translate(-840.49 -245.11)"/><path class="cls-67" d="M1066.57,1239.34c-2.31-3-7.18-6.39-5.23-6.47s4.51-.27,5.43-1.42-2.39.33-4.61-1.06-10.12-2.58-10.12-2.58-5.17,5.31-4.31,6.13,2.7,3.83,4.28,6,2.63,8.72,3.89,8.55,7,0,8.19-.66,1.44-7.1,2-2.89,3.5,7,3.29,5.52C1069.08,1248.14,1068.89,1242.34,1066.57,1239.34Z" transform="translate(-840.49 -245.11)"/><path class="cls-67" d="M1054.21,1228.42c-4.93-4-13.45-21.64-17.68-27.22-1.92-2.54-15.75-4.14-14.68,3.57s26.8,30.31,26.8,30.31A6.18,6.18,0,0,0,1054.21,1228.42Z" transform="translate(-840.49 -245.11)"/><g class="cls-14"><g class="cls-71"><polygon class="cls-72" points="54.18 320.63 253.04 433.86 395.05 367.05 156.26 230.22 54.18 320.63"/></g></g><g class="cls-14"><path class="cls-15" d="M1068.27,473.88C1015.43,446,930.6,447.39,878.8,477s-51,76.1,1.86,104,137.67,26.48,189.48-3.07S1121.1,501.74,1068.27,473.88Z" transform="translate(-840.49 -245.11)"/><path class="cls-16" d="M1066.94,474.63c-52.09-27.46-135.72-26.11-186.78,3s-50.25,75,1.83,102.49,135.72,26.11,186.79-3S1119,502.1,1066.94,474.63Z" transform="translate(-840.49 -245.11)"/><path class="cls-17" d="M1065.61,475.39c-51.34-27.07-133.76-25.73-184.1,3s-49.52,73.94,1.81,101,133.77,25.74,184.11-3S1117,502.46,1065.61,475.39Z" transform="translate(-840.49 -245.11)"/><path class="cls-18" d="M1064.28,476.15c-50.59-26.68-131.81-25.36-181.42,2.94s-48.8,72.87,1.79,99.54,131.82,25.36,181.42-2.93S1114.88,502.83,1064.28,476.15Z" transform="translate(-840.49 -245.11)"/><path class="cls-19" d="M1063,476.91c-49.84-26.28-129.86-25-178.73,2.89s-48.08,71.8,1.76,98.08,129.86,25,178.74-2.9S1112.8,503.19,1063,476.91Z" transform="translate(-840.49 -245.11)"/><path class="cls-20" d="M1061.63,477.67c-49.1-25.89-127.92-24.62-176.06,2.85s-47.36,70.71,1.74,96.6,127.91,24.61,176-2.85S1110.72,503.55,1061.63,477.67Z" transform="translate(-840.49 -245.11)"/><path class="cls-21" d="M1060.3,478.42c-48.35-25.49-126-24.23-173.37,2.81s-46.64,69.64,1.7,95.13,126,24.24,173.38-2.81S1108.65,503.92,1060.3,478.42Z" transform="translate(-840.49 -245.11)"/><path class="cls-22" d="M1059,479.18c-47.6-25.1-124-23.86-170.69,2.77S842.37,550.51,890,575.6s124,23.86,170.69-2.76S1106.57,504.28,1059,479.18Z" transform="translate(-840.49 -245.11)"/><path class="cls-23" d="M1057.64,479.94c-46.85-24.71-122.07-23.49-168,2.72s-45.2,67.48,1.65,92.19,122.07,23.48,168-2.73S1104.49,504.64,1057.64,479.94Z" transform="translate(-840.49 -245.11)"/><path class="cls-24" d="M1056.31,480.7c-46.1-24.31-120.12-23.11-165.32,2.67s-44.47,66.41,1.63,90.72,120.12,23.11,165.33-2.68S1102.42,505,1056.31,480.7Z" transform="translate(-840.49 -245.11)"/><path class="cls-25" d="M1055,481.45c-45.35-23.91-118.16-22.73-162.63,2.64s-43.76,65.33,1.6,89.24,118.17,22.74,162.64-2.63S1100.34,505.37,1055,481.45Z" transform="translate(-840.49 -245.11)"/><path class="cls-26" d="M1053.66,482.21c-44.61-23.52-116.22-22.36-160,2.59s-43,64.25,1.58,87.77,116.22,22.36,160-2.59S1098.26,505.73,1053.66,482.21Z" transform="translate(-840.49 -245.11)"/><path class="cls-27" d="M1052.33,483c-43.86-23.13-114.27-22-157.27,2.55s-42.31,63.17,1.54,86.29,114.28,22,157.28-2.54S1096.19,506.1,1052.33,483Z" transform="translate(-840.49 -245.11)"/><path class="cls-28" d="M1051,483.73c-43.12-22.74-112.32-21.61-154.59,2.5s-41.59,62.1,1.52,84.83,112.33,21.61,154.6-2.51S1094.11,506.46,1051,483.73Z" transform="translate(-840.49 -245.11)"/><path class="cls-29" d="M1049.67,484.49c-42.37-22.34-110.37-21.24-151.9,2.45s-40.87,61,1.49,83.36,110.38,21.24,151.91-2.46S1092,506.82,1049.67,484.49Z" transform="translate(-840.49 -245.11)"/><path class="cls-30" d="M1048.34,485.24c-41.62-21.94-108.42-20.86-149.22,2.42S859,547.6,900.59,569.54s108.42,20.86,149.23-2.42S1090,507.19,1048.34,485.24Z" transform="translate(-840.49 -245.11)"/><path class="cls-31" d="M1047,486c-40.87-21.55-106.47-20.48-146.54,2.37s-39.42,58.87,1.45,80.41,106.47,20.49,146.54-2.37S1087.88,507.55,1047,486Z" transform="translate(-840.49 -245.11)"/></g><path class="cls-36" d="M900.18,459.89c41-23.69,107.55-23.69,148.57,0,20,11.56,30.28,26.63,30.74,41.77q.42,12.94,0,25.86c-.46,15.15-10.71,30.22-30.74,41.78-41,23.69-107.55,23.69-148.57,0-20-11.56-30.27-26.63-30.74-41.78q-.41-12.91,0-25.86C869.91,486.52,880.15,471.45,900.18,459.89Z" transform="translate(-840.49 -245.11)"/><ellipse class="cls-66" cx="133.98" cy="257.67" rx="105.06" ry="60.66"/><path class="cls-36" d="M1059.77,485.25c-4.36-7.1-11.37-13.79-21.22-19.47-35.39-20.44-92.78-20.44-128.17,0-9.85,5.68-16.85,12.37-21.22,19.47h-5.33v18.67h.09c.49,13,9.26,25.93,26.46,35.86,35.39,20.44,92.78,20.44,128.17,0,17.2-9.93,26-22.86,26.46-35.86h.09V485.25Z" transform="translate(-840.49 -245.11)"/><path class="cls-73" d="M910.38,448.25c-35.4,20.43-35.4,53.57,0,74s92.78,20.44,128.17,0,35.4-53.57,0-74S945.77,427.81,910.38,448.25Z" transform="translate(-840.49 -245.11)"/><path class="cls-36" d="M920.73,451.86c-29.68,17.13-29.68,44.92,0,62s77.8,17.14,107.48,0,29.68-44.92,0-62S950.4,434.72,920.73,451.86Z" transform="translate(-840.49 -245.11)"/><polygon class="cls-15" points="109.25 50.89 127.92 61.88 146.58 51.15 127.92 40.16 109.25 50.89"/><polygon class="cls-32" points="127.92 228.29 146.58 217.56 146.58 51.15 127.92 61.88 127.92 228.29"/><polygon class="cls-74" points="109.25 217.31 127.92 228.29 127.92 61.88 109.25 50.89 109.25 217.31"/><polygon class="cls-46" points="157.7 122.39 176.35 133.37 195.01 122.64 176.35 111.65 157.7 122.39"/><polygon class="cls-56" points="176.35 243.13 195.01 232.4 195.01 122.64 176.35 133.37 176.35 243.13"/><polygon class="cls-75" points="157.7 232.14 176.35 243.13 176.35 133.37 157.7 122.39 157.7 232.14"/><polygon class="cls-46" points="71.93 107.54 90.59 118.53 109.25 107.8 90.59 96.81 71.93 107.54"/><polygon class="cls-56" points="90.59 252.9 109.25 242.18 109.25 107.8 90.59 118.53 90.59 252.9"/><polygon class="cls-76" points="71.93 241.92 90.59 252.9 90.59 118.53 71.93 107.54 71.93 241.92"/><polygon class="cls-15" points="133.8 163.87 152.46 174.86 171.13 164.12 152.46 153.14 133.8 163.87"/><polygon class="cls-32" points="152.46 269.48 171.13 258.75 171.13 164.12 152.46 174.86 152.46 269.48"/><polygon class="cls-77" points="133.8 258.49 152.46 269.48 152.46 174.86 133.8 163.87 133.8 258.49"/><g class="cls-78"><path class="cls-79" d="M1050.3,246.91h-152V480.38h.21c-1.18,12.05,6.11,24.33,22.06,33.53,29.67,17.14,77.79,17.14,107.48,0,15.94-9.2,23.24-21.48,22-33.53h.21Z" transform="translate(-840.49 -245.11)"/></g></g></g></svg>