<svg xmlns="http://www.w3.org/2000/svg" xmlns:xlink="http://www.w3.org/1999/xlink" viewBox="0 0 1593.97 1541.72"><defs><style>.cls-1{mask:url(#mask);}.cls-10,.cls-12,.cls-18,.cls-2,.cls-4,.cls-6,.cls-8{mix-blend-mode:multiply;}.cls-2{fill:url(#Áåçûìÿííûé_ãðàäèåíò_10);}.cls-3{mask:url(#mask-2);}.cls-4{fill:url(#Áåçûìÿííûé_ãðàäèåíò_1);}.cls-5{mask:url(#mask-3);}.cls-6{fill:url(#Áåçûìÿííûé_ãðàäèåíò_8);}.cls-7{mask:url(#mask-4);}.cls-8{fill:url(#Áåçûìÿííûé_ãðàäèåíò_7);}.cls-9{mask:url(#mask-5);}.cls-10{fill:url(#Áåçûìÿííûé_ãðàäèåíò_4);}.cls-11{mask:url(#mask-6);}.cls-12{fill:url(#Áåçûìÿííûé_ãðàäèåíò_3);}.cls-13{isolation:isolate;}.cls-14{fill:#817efe;}.cls-15{fill:#1e1273;}.cls-16{mask:url(#mask-7);}.cls-17{fill:url(#Áåçûìÿííûé_ãðàäèåíò_335);}.cls-19{fill:#fff;}.cls-20{fill:#fbfbfc;}.cls-21{fill:#f7f7f8;}.cls-22{fill:#f3f4f5;}.cls-23{fill:#f0f0f1;}.cls-24{fill:#ececee;}.cls-25{fill:#e8e8ea;}.cls-26{fill:#e4e4e7;}.cls-27{fill:#e0e1e3;}.cls-28{fill:#dcdde0;}.cls-29{fill:#d8d9dc;}.cls-30{fill:#d4d5d9;}.cls-31{fill:#d1d1d5;}.cls-32{fill:#cdcdd2;}.cls-33{fill:#c9cace;}.cls-34{fill:#c5c6cb;}.cls-35{fill:#c1c2c7;}.cls-36{fill:#cbd3fa;}.cls-37{fill:#f3f1f6;}.cls-38{fill:url(#Áåçûìÿííûé_ãðàäèåíò_54);}.cls-39{fill:#efeff4;}.cls-40{mask:url(#mask-8);}.cls-41{fill:url(#Áåçûìÿííûé_ãðàäèåíò_36);}.cls-42{fill:#b0bcf5;}.cls-43{fill:#6b67ec;}.cls-44{fill:url(#Áåçûìÿííûé_ãðàäèåíò_14);}.cls-45{fill:#322c8d;}.cls-46{fill:url(#Áåçûìÿííûé_ãðàäèåíò_14-2);}.cls-47{fill:#ba5700;}.cls-48{fill:url(#Áåçûìÿííûé_ãðàäèåíò_18);}.cls-49{fill:#f70;}.cls-50{mask:url(#mask-9);}.cls-51{fill:url(#Áåçûìÿííûé_ãðàäèåíò_335-2);}.cls-52{mask:url(#mask-10);}.cls-53{fill:url(#Áåçûìÿííûé_ãðàäèåíò_335-3);}.cls-54{fill:#d5dbeb;}.cls-55{fill:url(#Áåçûìÿííûé_ãðàäèåíò_14-3);}.cls-56{fill:url(#Áåçûìÿííûé_ãðàäèåíò_14-4);}.cls-57{fill:#ffad00;}.cls-58{mask:url(#mask-11);}.cls-59{fill:url(#Áåçûìÿííûé_ãðàäèåíò_5);}.cls-60{fill:url(#Áåçûìÿííûé_ãðàäèåíò_18-2);}.cls-61{fill:#d1d3d4;}.cls-62{fill:url(#Áåçûìÿííûé_ãðàäèåíò_18-3);}.cls-63{fill:#ff9d26;}.cls-64{fill:url(#Áåçûìÿííûé_ãðàäèåíò_18-4);}.cls-65{fill:url(#Áåçûìÿííûé_ãðàäèåíò_18-5);}.cls-66{fill:url(#Áåçûìÿííûé_ãðàäèåíò_18-6);}.cls-67{fill:url(#Áåçûìÿííûé_ãðàäèåíò_18-7);}.cls-68{fill:url(#Áåçûìÿííûé_ãðàäèåíò_18-8);}.cls-69{fill:#c28218;}.cls-70{fill:#db6700;}.cls-71{fill:#4258a7;}.cls-72{fill:url(#Áåçûìÿííûé_ãðàäèåíò_18-9);}.cls-73{fill:url(#Áåçûìÿííûé_ãðàäèåíò_18-10);}.cls-74{fill:url(#Áåçûìÿííûé_ãðàäèåíò_18-11);}.cls-75{opacity:0.95;fill:url(#Áåçûìÿííûé_ãðàäèåíò_14-5);}.cls-76{fill:url(#Áåçûìÿííûé_ãðàäèåíò_17);}.cls-77{fill:url(#Áåçûìÿííûé_ãðàäèåíò_14-6);}.cls-78{fill:#ffd2a9;}.cls-79{fill:#1e1272;}.cls-80{fill:url(#Áåçûìÿííûé_ãðàäèåíò_18-12);}.cls-81{fill:#3b349e;}.cls-82{fill:url(#Áåçûìÿííûé_ãðàäèåíò_17-2);}.cls-83{fill:url(#Áåçûìÿííûé_ãðàäèåíò_18-13);}.cls-84{fill:url(#Áåçûìÿííûé_ãðàäèåíò_18-14);}.cls-85{fill:url(#Áåçûìÿííûé_ãðàäèåíò_17-3);}.cls-86{mask:url(#mask-12);}.cls-87{fill:url(#Áåçûìÿííûé_ãðàäèåíò_5-2);}.cls-88{filter:url(#luminosity-noclip-10);}.cls-89{filter:url(#luminosity-noclip-9);}.cls-90{filter:url(#luminosity-noclip-8);}.cls-91{filter:url(#luminosity-noclip-7);}.cls-92{filter:url(#luminosity-noclip-6);}.cls-93{filter:url(#luminosity-noclip-5);}.cls-94{filter:url(#luminosity-noclip-4);}.cls-95{filter:url(#luminosity-noclip-3);}.cls-96{filter:url(#luminosity-noclip-2);}.cls-97{filter:url(#luminosity-noclip);}</style><filter id="luminosity-noclip" x="1675.12" y="-9313" width="705.88" height="32766" filterUnits="userSpaceOnUse" color-interpolation-filters="sRGB"><feFlood flood-color="#fff" result="bg"/><feBlend in="SourceGraphic" in2="bg"/></filter><mask id="mask" x="1675.12" y="-9313" width="705.88" height="32766" maskUnits="userSpaceOnUse"><g class="cls-97"/></mask><linearGradient id="Áåçûìÿííûé_ãðàäèåíò_10" x1="1946.69" y1="1038.27" x2="2090.34" y2="1198.11" gradientUnits="userSpaceOnUse"><stop offset="0" stop-color="#fff"/><stop offset="1"/></linearGradient><filter id="luminosity-noclip-2" x="857.13" y="-9313" width="152.01" height="32766" filterUnits="userSpaceOnUse" color-interpolation-filters="sRGB"><feFlood flood-color="#fff" result="bg"/><feBlend in="SourceGraphic" in2="bg"/></filter><mask id="mask-2" x="857.13" y="-9313" width="152.01" height="32766" maskUnits="userSpaceOnUse"><g class="cls-96"/></mask><linearGradient id="Áåçûìÿííûé_ãðàäèåíò_1" x1="933.13" y1="228.6" x2="933.13" y2="702.16" gradientUnits="userSpaceOnUse"><stop offset="0"/><stop offset="1" stop-color="#fff"/></linearGradient><filter id="luminosity-noclip-3" x="853.51" y="-9313" width="340.87" height="32766" filterUnits="userSpaceOnUse" color-interpolation-filters="sRGB"><feFlood flood-color="#fff" result="bg"/><feBlend in="SourceGraphic" in2="bg"/></filter><mask id="mask-3" x="853.51" y="-9313" width="340.87" height="32766" maskUnits="userSpaceOnUse"><g class="cls-95"/></mask><linearGradient id="Áåçûìÿííûé_ãðàäèåíò_8" x1="853.51" y1="556.77" x2="1194.37" y2="556.77" gradientUnits="userSpaceOnUse"><stop offset="0" stop-color="#ccc"/><stop offset="1"/></linearGradient><filter id="luminosity-noclip-4" x="917.41" y="-9313" width="395.08" height="32766" filterUnits="userSpaceOnUse" color-interpolation-filters="sRGB"><feFlood flood-color="#fff" result="bg"/><feBlend in="SourceGraphic" in2="bg"/></filter><mask id="mask-4" x="917.41" y="-9313" width="395.08" height="32766" maskUnits="userSpaceOnUse"><g class="cls-94"/></mask><linearGradient id="Áåçûìÿííûé_ãðàäèåíò_7" x1="916.24" y1="1566.14" x2="1311.31" y2="1566.14" gradientTransform="translate(1.18)" xlink:href="#Áåçûìÿííûé_ãðàäèåíò_10"/><filter id="luminosity-noclip-5" x="1941.81" y="-9313" width="394.81" height="32766" filterUnits="userSpaceOnUse" color-interpolation-filters="sRGB"><feFlood flood-color="#fff" result="bg"/><feBlend in="SourceGraphic" in2="bg"/></filter><mask id="mask-5" x="1941.81" y="-9313" width="394.81" height="32766" maskUnits="userSpaceOnUse"><g class="cls-93"/></mask><linearGradient id="Áåçûìÿííûé_ãðàäèåíò_4" x1="2035.39" y1="1578.19" x2="2229.93" y2="1726.11" xlink:href="#Áåçûìÿííûé_ãðàäèåíò_10"/><filter id="luminosity-noclip-6" x="1898.1" y="-9313" width="203.98" height="32766" filterUnits="userSpaceOnUse" color-interpolation-filters="sRGB"><feFlood flood-color="#fff" result="bg"/><feBlend in="SourceGraphic" in2="bg"/></filter><mask id="mask-6" x="1898.1" y="-9313" width="203.98" height="32766" maskUnits="userSpaceOnUse"><g class="cls-92"/></mask><linearGradient id="Áåçûìÿííûé_ãðàäèåíò_3" x1="2000.1" y1="1239.32" x2="2000.1" y2="1874.8" xlink:href="#Áåçûìÿííûé_ãðàäèåíò_1"/><filter id="luminosity-noclip-7" x="1675.12" y="926.59" width="705.88" height="414.32" filterUnits="userSpaceOnUse" color-interpolation-filters="sRGB"><feFlood flood-color="#fff" result="bg"/><feBlend in="SourceGraphic" in2="bg"/></filter><mask id="mask-7" x="888.09" y="700.06" width="705.88" height="414.32" maskUnits="userSpaceOnUse"><g class="cls-91"><g transform="translate(-787.03 -226.53)"><g class="cls-1"><polygon class="cls-2" points="2381 1044.53 1900.17 1340.91 1675.12 1213.1 2168.13 926.59 2381 1044.53"/></g></g></g></mask><linearGradient id="Áåçûìÿííûé_ãðàäèåíò_335" x1="1159.66" y1="811.75" x2="1303.31" y2="971.58" gradientUnits="userSpaceOnUse"><stop offset="0" stop-color="#d5dbeb"/><stop offset="1" stop-color="#fff"/></linearGradient><linearGradient id="Áåçûìÿííûé_ãðàäèåíò_54" x1="1504.31" y1="853.01" x2="2611.89" y2="853.01" gradientTransform="matrix(-1, 0, 0, 1, 2856.98, -226.53)" gradientUnits="userSpaceOnUse"><stop offset="0" stop-color="#322c8d"/><stop offset="1" stop-color="#6a6ae5"/></linearGradient><filter id="luminosity-noclip-8" x="853.51" y="454.96" width="340.87" height="203.64" filterUnits="userSpaceOnUse" color-interpolation-filters="sRGB"><feFlood flood-color="#fff" result="bg"/><feBlend in="SourceGraphic" in2="bg"/></filter><mask id="mask-8" x="66.48" y="228.43" width="340.87" height="203.64" maskUnits="userSpaceOnUse"><g class="cls-90"><g transform="translate(-787.03 -226.53)"><g class="cls-5"><polygon class="cls-6" points="853.51 545.37 1052.37 658.59 1194.38 591.78 955.59 454.96 853.51 545.37"/></g></g></g></mask><linearGradient id="Áåçûìÿííûé_ãðàäèåíò_36" x1="66.48" y1="330.25" x2="407.35" y2="330.25" gradientUnits="userSpaceOnUse"><stop offset="0" stop-color="#e2e4e9"/><stop offset="1" stop-color="#e2e4e9"/></linearGradient><linearGradient id="Áåçûìÿííûé_ãðàäèåíò_14" x1="842.67" y1="464.87" x2="1023.94" y2="464.87" gradientUnits="userSpaceOnUse"><stop offset="0" stop-color="#6a6ae5"/><stop offset="1" stop-color="#322c8d"/></linearGradient><linearGradient id="Áåçûìÿííûé_ãðàäèåíò_14-2" x1="1516.71" y1="1119.36" x2="1719.13" y2="1119.36" gradientTransform="matrix(-1, 0, 0, 1, 2646.54, 0)" xlink:href="#Áåçûìÿííûé_ãðàäèåíò_14"/><linearGradient id="Áåçûìÿííûé_ãðàäèåíò_18" x1="710.6" y1="1230.61" x2="749.74" y2="1230.61" gradientTransform="matrix(1, 0.19, 0, 1, 287.19, -237.22)" gradientUnits="userSpaceOnUse"><stop offset="0" stop-color="#ffad00"/><stop offset="1" stop-color="#f70"/></linearGradient><filter id="luminosity-noclip-9" x="917.41" y="1448.13" width="395.08" height="236.02" filterUnits="userSpaceOnUse" color-interpolation-filters="sRGB"><feFlood flood-color="#fff" result="bg"/><feBlend in="SourceGraphic" in2="bg"/></filter><mask id="mask-9" x="130.39" y="1221.6" width="395.08" height="236.02" maskUnits="userSpaceOnUse"><g class="cls-89"><g transform="translate(-787.03 -226.53)"><g class="cls-7"><polygon class="cls-8" points="917.41 1552.92 1147.9 1684.15 1312.49 1606.71 1035.73 1448.13 917.41 1552.92"/></g></g></g></mask><linearGradient id="Áåçûìÿííûé_ãðàäèåíò_335-2" x1="916.24" y1="1566.14" x2="1311.31" y2="1566.14" gradientTransform="translate(-785.85 -226.53)" xlink:href="#Áåçûìÿííûé_ãðàäèåíò_335"/><filter id="luminosity-noclip-10" x="1941.81" y="1547.55" width="394.81" height="220.69" filterUnits="userSpaceOnUse" color-interpolation-filters="sRGB"><feFlood flood-color="#fff" result="bg"/><feBlend in="SourceGraphic" in2="bg"/></filter><mask id="mask-10" x="1154.78" y="1321.03" width="394.81" height="220.69" maskUnits="userSpaceOnUse"><g class="cls-88"><g transform="translate(-787.03 -226.53)"><g class="cls-9"><polygon class="cls-10" points="2336.61 1673.81 2166.85 1768.25 1941.81 1640.45 2102.12 1547.55 2336.61 1673.81"/></g></g></g></mask><linearGradient id="Áåçûìÿííûé_ãðàäèåíò_335-3" x1="1248.37" y1="1351.67" x2="1442.91" y2="1499.58" xlink:href="#Áåçûìÿííûé_ãðàäèåíò_335"/><linearGradient id="Áåçûìÿííûé_ãðàäèåíò_14-3" x1="1899.22" y1="1555.55" x2="2102.12" y2="1555.55" xlink:href="#Áåçûìÿííûé_ãðàäèåíò_14"/><linearGradient id="Áåçûìÿííûé_ãðàäèåíò_14-4" x1="1910.16" y1="1462.86" x2="2069.21" y2="1462.86" xlink:href="#Áåçûìÿííûé_ãðàäèåíò_14"/><mask id="mask-11" x="1111.08" y="1010.01" width="203.98" height="375.55" maskUnits="userSpaceOnUse"><g transform="translate(-787.03 -226.53)"><g class="cls-11"><path class="cls-12" d="M2102.09,1236.54h-204v313.31h.28c-1.59,16.16,8.2,32.64,29.6,45,39.83,23,104.41,23,144.23,0,21.4-12.35,31.19-28.83,29.6-45h.28Z"/></g></g></mask><linearGradient id="Áåçûìÿííûé_ãðàäèåíò_5" x1="2000.1" y1="1239.32" x2="2000.1" y2="1874.8" gradientTransform="matrix(1, 0, 0, 1, 0, 0)" xlink:href="#Áåçûìÿííûé_ãðàäèåíò_18"/><linearGradient id="Áåçûìÿííûé_ãðàäèåíò_18-2" x1="1839.56" y1="887.8" x2="1905.28" y2="887.8" gradientTransform="matrix(-1, 0, 0, 1, 3547.54, 0)" xlink:href="#Áåçûìÿííûé_ãðàäèåíò_18"/><linearGradient id="Áåçûìÿííûé_ãðàäèåíò_18-3" x1="1715.08" y1="987.91" x2="1865.36" y2="987.91" gradientTransform="matrix(-1, 0, 0, 1, 2760.52, -226.53)" xlink:href="#Áåçûìÿííûé_ãðàäèåíò_18"/><linearGradient id="Áåçûìÿííûé_ãðàäèåíò_18-4" x1="1610.72" y1="814.16" x2="1682.53" y2="814.16" gradientTransform="matrix(-1, 0, 0, 1, 3547.54, 0)" xlink:href="#Áåçûìÿííûé_ãðàäèåíò_18"/><linearGradient id="Áåçûìÿííûé_ãðàäèåíò_18-5" x1="1699.69" y1="877.92" x2="1787.69" y2="877.92" gradientTransform="matrix(-1, 0, 0, 1, 3547.54, 0)" xlink:href="#Áåçûìÿííûé_ãðàäèåíò_18"/><linearGradient id="Áåçûìÿííûé_ãðàäèåíò_18-6" x1="1650.91" y1="931.43" x2="1703.76" y2="931.43" gradientTransform="matrix(-1, 0, 0, 1, 3547.54, 0)" xlink:href="#Áåçûìÿííûé_ãðàäèåíò_18"/><linearGradient id="Áåçûìÿííûé_ãðàäèåíò_18-7" x1="1544.63" y1="865.23" x2="1613.1" y2="865.23" gradientTransform="matrix(-1, 0, 0, 1, 3547.54, 0)" xlink:href="#Áåçûìÿííûé_ãðàäèåíò_18"/><linearGradient id="Áåçûìÿííûé_ãðàäèåíò_18-8" x1="1689.21" y1="784.33" x2="1747.91" y2="784.33" gradientTransform="matrix(-1, 0, 0, 1, 3547.54, 0)" xlink:href="#Áåçûìÿííûé_ãðàäèåíò_18"/><linearGradient id="Áåçûìÿííûé_ãðàäèåíò_18-9" x1="1488.32" y1="594.35" x2="1697.75" y2="594.35" gradientTransform="matrix(1, 0, 0, 1, 0, 0)" xlink:href="#Áåçûìÿííûé_ãðàäèåíò_18"/><linearGradient id="Áåçûìÿííûé_ãðàäèåíò_18-10" x1="1424.77" y1="631.57" x2="1634.2" y2="631.57" gradientTransform="matrix(1, 0, 0, 1, 0, 0)" xlink:href="#Áåçûìÿííûé_ãðàäèåíò_18"/><linearGradient id="Áåçûìÿííûé_ãðàäèåíò_18-11" x1="1359.63" y1="667.31" x2="1569.06" y2="667.31" gradientTransform="matrix(1, 0, 0, 1, 0, 0)" xlink:href="#Áåçûìÿííûé_ãðàäèåíò_18"/><linearGradient id="Áåçûìÿííûé_ãðàäèåíò_14-5" x1="1266.98" y1="407.86" x2="1737.61" y2="407.86" xlink:href="#Áåçûìÿííûé_ãðàäèåíò_14"/><linearGradient id="Áåçûìÿííûé_ãðàäèåíò_17" x1="1239.87" y1="412.71" x2="1795.59" y2="412.71" xlink:href="#Áåçûìÿííûé_ãðàäèåíò_335"/><linearGradient id="Áåçûìÿííûé_ãðàäèåíò_14-6" x1="1753.99" y1="635.97" x2="2014.03" y2="635.97" xlink:href="#Áåçûìÿííûé_ãðàäèåíò_14"/><linearGradient id="Áåçûìÿííûé_ãðàäèåíò_18-12" x1="1045.55" y1="1336.52" x2="1126.78" y2="1336.52" gradientTransform="matrix(-1, 0, 0, 1, 2031.97, 0)" xlink:href="#Áåçûìÿííûé_ãðàäèåíò_18"/><linearGradient id="Áåçûìÿííûé_ãðàäèåíò_17-2" x1="121.55" y1="137.8" x2="140.22" y2="137.8" xlink:href="#Áåçûìÿííûé_ãðàäèåíò_335"/><linearGradient id="Áåçûìÿííûé_ãðàäèåíò_18-13" x1="179.33" y1="130.59" x2="179.33" y2="247.87" gradientTransform="matrix(1, 0, 0, 1, 0, 0)" xlink:href="#Áåçûìÿííûé_ãðàäèåíò_18"/><linearGradient id="Áåçûìÿííûé_ãðàäèåíò_18-14" x1="104.7" y1="249.68" x2="91.54" y2="165.44" gradientTransform="matrix(1, 0, 0, 1, 0, 0)" xlink:href="#Áåçûìÿííûé_ãðàäèåíò_18"/><linearGradient id="Áåçûìÿííûé_ãðàäèåíò_17-3" x1="146.1" y1="214.88" x2="164.76" y2="214.88" xlink:href="#Áåçûìÿííûé_ãðàäèåíò_335"/><mask id="mask-12" x="70.1" y="0" width="152.01" height="279.86" maskUnits="userSpaceOnUse"><g transform="translate(-787.03 -226.53)"><g class="cls-3"><path class="cls-4" d="M1009.14,226.53h-152V460h.21c-1.18,12.05,6.11,24.33,22.06,33.53,29.67,17.14,77.79,17.14,107.48,0,15.94-9.2,23.24-21.48,22-33.53h.21Z"/></g></g></mask><linearGradient id="Áåçûìÿííûé_ãðàäèåíò_5-2" x1="933.13" y1="228.6" x2="933.13" y2="702.16" gradientTransform="matrix(1, 0, 0, 1, 0, 0)" xlink:href="#Áåçûìÿííûé_ãðàäèåíò_18"/></defs><g class="cls-13"><g id="Layer_1" data-name="Layer 1"><path class="cls-14" d="M1184,594.18a11.76,11.76,0,0,0-11.44,0l-97.93,53.07a8,8,0,0,1-7.43.17l-35.4-17.66a8,8,0,0,1-.38-14l41.31-22.47a11.82,11.82,0,0,0,0-20.58l-193.34-110a1.93,1.93,0,1,0-1.89,3.37l193.33,110a8,8,0,0,1,0,13.85l-41.31,22.47a11.82,11.82,0,0,0,.57,20.85l35.39,17.66a11.79,11.79,0,0,0,11-.26l97.94-53.06a7.93,7.93,0,0,1,7.7,0l376.24,208.87a1.91,1.91,0,0,0,.93.23,1.93,1.93,0,0,0,.92-3.62Z" transform="translate(-787.03 -226.53)"/><path class="cls-15" d="M2019.62,1575.12a11.84,11.84,0,0,1,0-20.58l214.07-116.14a4.71,4.71,0,0,0,2.64-4.24,4.6,4.6,0,0,0-2.64-4.19l-110.6-55.29a8.55,8.55,0,0,1,.06-15.3l149.56-79.75a4.67,4.67,0,0,0,2.64-4.12,4.79,4.79,0,0,0-2.51-4.24L1896,1066.93a1.89,1.89,0,0,1-.83-2.56,2,2,0,0,1,2.63-.84l376.74,204.33a8.54,8.54,0,0,1-.12,15.24l-149.63,79.75a4.68,4.68,0,0,0,0,8.36l110.61,55.29a8.53,8.53,0,0,1,0,15.3l-213.88,116.09a8,8,0,0,0-4,6.94,7.83,7.83,0,0,0,4,7Z" transform="translate(-787.03 -226.53)"/><path class="cls-14" d="M1475.79,1014.76a4.68,4.68,0,0,1,0,8.36l-279.1,146.12a8.53,8.53,0,0,0,0,15.31l113.74,59.13a8,8,0,0,1,4,6.94,7.81,7.81,0,0,1-4,7L981.71,1447.79a1.86,1.86,0,0,1-2.79-1.61l-4.82-.45s.54,10.57,9.13,5.62l329.14-190.43a11.86,11.86,0,0,0,0-20.59l-113.95-59.19a4.71,4.71,0,0,1-2.64-4.24,4.58,4.58,0,0,1,2.64-4.18l279.1-146.13a8.55,8.55,0,0,0-.06-15.3Z" transform="translate(-787.03 -226.53)"/><g class="cls-16"><polygon class="cls-17" points="1593.97 818.01 1113.14 1114.38 888.1 986.57 1381.11 700.06 1593.97 818.01"/></g><g class="cls-18"><path class="cls-19" d="M1701.48,1268.78c-14.36,0-35.7-2.47-55.78-14.21L1009.15,886.11c-23.45-13.59-37.42-36.3-37.36-60.77s14.19-47.26,37.82-60.8l435.63-251c20-11.53,41.17-13.94,55.39-13.94s35.71,2.46,55.77,14.2L2193,882.32c23.46,13.57,37.43,36.29,37.38,60.74s-14.19,47.27-37.83,60.81l-435.63,250.95c-20,11.54-41.16,14-55.4,14Z" transform="translate(-787.03 -226.53)"/><path class="cls-20" d="M1446.79,516.27C1466.45,505,1487.64,502.6,1502,503c3.08.07,6.44.26,10,.63a114.45,114.45,0,0,1,45.26,14.34L2191.41,885c17.8,10.31,29.39,26,32.87,43.15,1.43,5.19,1.42,11,1.41,16.45-.05,23-16.55,46.18-38.7,58.87l-430.1,247.77a108.5,108.5,0,0,1-33.18,12.2,121.38,121.38,0,0,1-21.33,2.15h0c-14.41.19-35.53-2.25-55.11-13.7L1010.71,883.42C993.82,873.64,982.6,859,978.65,843c-1.95-6-2-12.83-2-19.25,0-23,16.72-46.27,38.88-59Z" transform="translate(-787.03 -226.53)"/><path class="cls-21" d="M1448.34,519c19.3-11.12,40.53-13.35,55.05-12.68,3.08.15,6.41.4,9.92.85,11.67.94,31,6.82,44.85,14.89l631.7,365.67c17.74,10.27,28.54,25.95,30.66,42.64,1.33,4.84.53,10.71.52,15.81-.05,21.47-18.9,45.08-39.58,56.93l-424.57,244.59c-9.94,5.73-23.32,10.68-32.62,12.34a117.28,117.28,0,0,1-21,2.39h0c-14.47.39-35.35-2-54.44-13.18L1012.26,880.73c-16.89-9.78-27.35-24.47-29.9-40.13-1.82-5.61-.93-12.54-.91-18.54,0-21.46,19.25-45.28,39.93-57.13Z" transform="translate(-787.03 -226.53)"/><path class="cls-22" d="M1449.88,521.65c18.95-10.91,40.22-13,54.89-12,3.08.21,6.38.53,9.83,1.06,10.84.87,31.62,7.95,44.43,15.45L2188.3,890.37c17.68,10.24,27.71,25.94,28.46,42.14,1.23,4.49-.37,10.43-.38,15.16,0,19.94-21.24,44-40.44,55l-419,241.4c-9.23,5.32-23.42,10.93-32.06,12.48a113,113,0,0,1-20.65,2.64h0c-14.53.58-35.18-1.79-53.78-12.67L1013.82,878.05c-16.89-9.78-26.6-24.57-27.75-39.81-1.69-5.21.19-12.25.21-17.81,0-19.93,21.78-44.31,41-55.31Z" transform="translate(-787.03 -226.53)"/><path class="cls-23" d="M1451.43,524.34c18.59-10.71,39.9-12.77,54.72-11.41,3.08.28,6.35.67,9.74,1.28,10,.8,32.19,9.08,44,16l626.84,362.85c17.62,10.2,26.86,25.92,26.24,41.62,1.14,4.15-1.25,10.16-1.26,14.53,0,18.4-23.59,42.91-41.32,53.07l-413.52,238.21c-8.52,4.92-23.53,11.2-31.5,12.62a108.63,108.63,0,0,1-20.31,2.9h0c-14.59.78-35-1.57-53.11-12.15l-636.6-368.5c-16.88-9.78-25.84-24.66-25.59-39.47-1.56-4.81,1.31-12,1.33-17.1,0-18.4,24.31-43.32,42-53.48Z" transform="translate(-787.03 -226.53)"/><path class="cls-24" d="M1453,527c18.23-10.5,39.58-12.48,54.55-10.78,3.08.35,6.32.82,9.64,1.5,9.18.74,32.77,10.21,43.61,16.55l624.41,361.45c17.56,10.16,26,25.9,24,41.11,1,3.8-2.14,9.88-2.15,13.89,0,16.87-25.95,41.82-42.19,51.13l-408,235c-7.81,4.5-23.64,11.46-31,12.76a104.74,104.74,0,0,1-20,3.15h0c-14.64,1-34.83-1.35-52.43-11.64l-636.61-368.5c-16.89-9.78-25.09-24.75-23.44-39.15-1.43-4.4,2.44-11.67,2.45-16.38,0-16.86,26.84-42.33,43.09-51.64Z" transform="translate(-787.03 -226.53)"/><path class="cls-25" d="M1454.53,529.72c17.88-10.3,39.26-12.2,54.38-10.15,3.08.42,6.29,1,9.55,1.72,8.34.67,33.34,11.34,43.2,17.11l622,360c17.49,10.13,25.18,25.89,21.82,40.6.95,3.46-3,9.61-3,13.25,0,15.34-28.3,40.74-43.07,49.2L1756.9,1233.33c-7.1,4.09-23.75,11.71-30.39,12.9a100.52,100.52,0,0,1-19.64,3.4h0c-14.7,1.16-34.66-1.13-51.77-11.13L1018.48,870c-16.88-9.78-24.33-24.84-21.28-38.81-1.3-4,3.56-11.39,3.57-15.67,0-15.33,29.37-41.35,44.14-49.81Z" transform="translate(-787.03 -226.53)"/><path class="cls-26" d="M1456.08,532.41c17.52-10.09,38.93-11.92,54.21-9.52,3.08.49,6.26,1.1,9.46,1.94,7.51.61,33.91,12.47,42.79,17.66l619.54,358.63c17.44,10.09,24.35,25.87,19.62,40.09.85,3.11-3.91,9.33-3.92,12.61,0,13.8-30.65,39.65-43.94,47.26L1756.9,1229.74c-6.39,3.69-23.85,12-29.83,13a94.85,94.85,0,0,1-19.3,3.65h0c-14.76,1.36-34.49-.9-51.1-10.61L1020,867.3c-16.89-9.78-23.58-24.92-19.13-38.48-1.17-3.6,4.68-11.1,4.68-15,0-13.8,31.91-40.36,45.2-48Z" transform="translate(-787.03 -226.53)"/><path class="cls-27" d="M1457.63,535.1c17.16-9.89,38.61-11.64,54-8.88a88.86,88.86,0,0,1,9.37,2.16c6.67.53,34.48,13.59,42.37,18.2L2180.53,903.8c17.37,10.06,23.5,25.86,17.4,39.59.76,2.76-4.8,9.05-4.8,12,0,12.26-33,38.55-44.82,45.32l-391.4,225.48c-5.68,3.28-24,12.23-29.28,13.18a90.51,90.51,0,0,1-19,3.9h0c-14.81,1.55-34.31-.67-50.43-10.1L1021.59,864.62c-16.88-9.78-22.82-25-17-38.15-1-3.21,5.8-10.81,5.8-14.24,0-12.26,34.44-39.37,46.25-46.14Z" transform="translate(-787.03 -226.53)"/><path class="cls-28" d="M1459.18,537.79c16.8-9.68,38.29-11.37,53.87-8.25a81.05,81.05,0,0,1,9.28,2.38c5.83.47,35.06,14.72,42,18.75L2179,906.49c17.3,10,22.66,25.84,15.19,39.07.67,2.42-5.69,8.78-5.69,11.33,0,10.74-35.36,37.47-45.7,43.4l-385.87,222.29c-5,2.86-24.07,12.49-28.72,13.32a86.08,86.08,0,0,1-18.62,4.15h0c-14.87,1.74-34.14-.45-49.76-9.58L1023.15,861.93c-16.89-9.78-22.07-25.1-14.82-37.82-.91-2.8,6.92-10.52,6.92-13.51,0-10.74,37-38.4,47.31-44.32Z" transform="translate(-787.03 -226.53)"/><path class="cls-29" d="M1460.73,540.48c16.44-9.48,38-11.1,53.7-7.62a75.86,75.86,0,0,1,9.19,2.6c5,.4,35.63,15.85,41.54,19.31l612.26,354.41c17.25,10,21.82,25.82,13,38.56.57,2.07-6.58,8.51-6.59,10.69,0,9.2-37.7,36.38-46.56,41.46L1756.91,1219c-4.26,2.46-24.18,12.75-28.16,13.46a80.43,80.43,0,0,1-18.28,4.41h0c-14.93,1.94-34-.23-49.1-9.07L1024.7,859.24c-16.88-9.77-21.31-25.19-12.66-37.48-.78-2.41,8-10.24,8-12.8,0-9.2,39.5-37.41,48.36-42.49Z" transform="translate(-787.03 -226.53)"/><path class="cls-30" d="M1462.28,543.17c16.09-9.27,37.66-10.83,53.53-7a70.28,70.28,0,0,1,9.09,2.82c4.17.33,36.21,17,41.14,19.86l609.83,353c17.18,10,21,25.81,10.77,38,.48,1.73-7.46,8.24-7.47,10.06,0,7.66-40.05,35.29-47.44,39.52l-374.81,215.92c-3.55,2-24.29,13-27.61,13.6a76.47,76.47,0,0,1-18,4.66h0c-15,2.13-33.79,0-48.42-8.56L1026.26,856.56c-16.89-9.78-20.56-25.28-10.5-37.16-.66-2,9.15-9.94,9.15-12.08,0-7.67,42-36.42,49.41-40.65Z" transform="translate(-787.03 -226.53)"/><path class="cls-31" d="M1463.83,545.86c15.73-9.07,37.34-10.57,53.36-6.36a65.66,65.66,0,0,1,9,3c3.34.27,36.78,18.1,40.72,20.41l607.4,351.6c17.13,9.92,20.14,25.79,8.57,37.54.38,1.38-8.35,8-8.36,9.41,0,6.14-42.4,34.21-48.31,37.59l-369.29,212.74c-2.84,1.64-24.4,13.26-27.05,13.74a71.94,71.94,0,0,1-17.61,4.91h0c-15,2.32-33.62.21-47.75-8l-636.7-368.56c-16.88-9.77-19.8-25.37-8.34-36.82-.52-1.61,10.27-9.66,10.27-11.37,0-6.13,44.56-35.44,50.46-38.82Z" transform="translate(-787.03 -226.53)"/><path class="cls-32" d="M1465.38,548.55c15.37-8.86,37-10.31,53.19-5.72a60.17,60.17,0,0,1,8.91,3.25c2.5.2,37.35,19.23,40.31,21l605,350.19c17.06,9.89,19.3,25.78,6.35,37,.29,1-9.24,7.68-9.24,8.77,0,4.6-44.76,33.11-49.19,35.65l-363.76,209.55c-2.13,1.23-24.5,13.53-26.49,13.89a66.91,66.91,0,0,1-17.27,5.15h0c-15.1,2.52-33.45.44-47.08-7.53L1029.37,851.19c-16.88-9.78-19-25.46-6.19-36.5-.39-1.2,11.39-9.37,11.39-10.65,0-4.6,47.09-34.45,51.52-37Z" transform="translate(-787.03 -226.53)"/><path class="cls-33" d="M1466.93,551.23c15-8.65,36.71-10,53-5.08a55.39,55.39,0,0,1,8.82,3.47c1.67.14,37.92,20.36,39.9,21.52L2171.2,919.92c17,9.85,18.47,25.76,4.15,36.52.19.69-10.13,7.41-10.13,8.14,0,3.06-47.11,32-50.06,33.71l-358.24,206.37c-1.42.82-24.61,13.79-25.94,14a62.15,62.15,0,0,1-16.92,5.41h0c-15.16,2.71-33.27.67-46.42-7L1030.92,848.5c-16.88-9.78-18.29-25.55-4-36.16-.26-.81,12.51-9.08,12.51-9.94,0-3.06,49.62-33.46,52.57-35.16Z" transform="translate(-787.03 -226.53)"/><path class="cls-34" d="M1468.48,553.92c14.65-8.44,36.4-9.81,52.85-4.45a52,52,0,0,1,8.73,3.69c.83.07,38.5,21.49,39.48,22.07l600.11,347.38c16.94,9.81,17.62,25.74,1.94,36,.09.34-11,7.13-11,7.49,0,1.54-49.46,30.94-50.94,31.79l-352.7,203.18c-.71.41-24.72,14-25.39,14.16a58.19,58.19,0,0,1-16.58,5.66h0c-15.21,2.9-33.1.89-45.75-6.5L1032.48,845.81c-16.88-9.77-17.54-25.63-1.88-35.83-.13-.4,13.63-8.79,13.63-9.22,0-1.53,52.15-32.48,53.62-33.32Z" transform="translate(-787.03 -226.53)"/><path class="cls-35" d="M2168.09,925.29,1531.35,556.71c-16.88-9.87-44.37-9.87-61.32-.1l-435.72,251c-17.06,9.77-17.16,25.72-.28,35.5l636.75,368.59c16.87,9.86,44.35,9.86,61.32.08l435.72-251C2184.88,951,2185,935.07,2168.09,925.29Z" transform="translate(-787.03 -226.53)"/></g><path class="cls-36" d="M2180.67,920.36c0,6.47-4.27,12.95-12.82,17.87l-435.74,251c-17,9.78-44.45,9.76-61.31-.06L1034.05,820.6c-8.39-4.87-12.57-11.26-12.59-17.65l0,22.39c0,6.39,4.19,12.77,12.58,17.65l636.75,368.56c16.86,9.82,44.33,9.85,61.32.06l435.74-251c8.54-4.91,12.82-11.39,12.81-17.85Z" transform="translate(-787.03 -226.53)"/><path class="cls-37" d="M2168.09,902.74,1531.35,534.16c-16.88-9.87-44.37-9.87-61.32-.09l-435.72,251c-17.06,9.77-17.16,25.73-.28,35.51l636.75,368.58c16.87,9.86,44.35,9.86,61.32.09l435.72-251C2184.88,928.48,2185,912.52,2168.09,902.74Z" transform="translate(-787.03 -226.53)"/><polygon class="cls-38" points="1352.67 668.85 870.37 946.69 245.08 584.12 727.36 306.28 1352.67 668.85"/><path class="cls-19" d="M1118.34,880.67,1080.84,859c-1.77-1-3.21-.19-3.21,1.88v1a7.07,7.07,0,0,0,3.21,5.57l37.49,21.69c1.76,1,3.22.18,3.22-1.87v-1A7,7,0,0,0,1118.34,880.67Z" transform="translate(-787.03 -226.53)"/><path class="cls-39" d="M1123.57,883.08a7.38,7.38,0,0,0-1.08-2.06,6.05,6.05,0,0,0-1.81-1.7l-37.5-21.69a2.26,2.26,0,0,0-2.26-.23l-2.33,1.33a2.26,2.26,0,0,1,2.25.23l37.5,21.71a5.92,5.92,0,0,1,1.82,1.69,7.54,7.54,0,0,1,1.06,2,5.65,5.65,0,0,1,.33,1.82v1a2.27,2.27,0,0,1-1,2.09l2.34-1.34a2.25,2.25,0,0,0,1-2.09v-1A5.62,5.62,0,0,0,1123.57,883.08Z" transform="translate(-787.03 -226.53)"/><path class="cls-39" d="M1160.17,902.7a6.05,6.05,0,0,0-1.81-1.7l-17.78-10.28a2.27,2.27,0,0,0-2.27-.23l-2.33,1.34a2.28,2.28,0,0,1,2.27.23L1156,902.35a5.87,5.87,0,0,1,1.81,1.68,8,8,0,0,1,1.08,2.06,5.6,5.6,0,0,1,.31,1.81v1a2.25,2.25,0,0,1-1,2.09l2.35-1.34a2.26,2.26,0,0,0,1-2.09v-1a5.56,5.56,0,0,0-.32-1.8A7.62,7.62,0,0,0,1160.17,902.7Z" transform="translate(-787.03 -226.53)"/><path class="cls-19" d="M1156,902.35l-17.77-10.29c-1.79-1-3.22-.2-3.22,1.87v1a7.09,7.09,0,0,0,3.21,5.57L1156,910.8c1.77,1,3.21.17,3.21-1.87v-1A7,7,0,0,0,1156,902.35Z" transform="translate(-787.03 -226.53)"/><path class="cls-36" d="M1961.61,1032.85l-12.77-7.39c-6.37-3.69-17.06-3.3-24.32.88l-23.37,13.07a14.3,14.3,0,0,0-5.39,5c-2.48,4.28-1,9,3.79,11.75l12.78,7.39c6.37,3.69,17.05,3.31,24.32-.88l23.37-13.08a14.41,14.41,0,0,0,5.39-5C1967.89,1040.32,1966.36,1035.59,1961.61,1032.85Z" transform="translate(-787.03 -226.53)"/><path class="cls-19" d="M1961.61,1037.16l-12.77-7.38c-6.37-3.69-17.06-3.3-24.32.89l-23.37,13.06a14.43,14.43,0,0,0-5.39,5,8.53,8.53,0,0,0-.76,2.23,9.75,9.75,0,0,0,4.55,5.21l12.78,7.39c6.37,3.69,17.05,3.31,24.32-.89l23.37-13.07a14.41,14.41,0,0,0,5.39-5,8.47,8.47,0,0,0,.76-2.22A9.8,9.8,0,0,0,1961.61,1037.16Z" transform="translate(-787.03 -226.53)"/><path class="cls-36" d="M1300.8,641.56l-57,32.94c-1.76,1-1.94,2.54-.42,3.42h0a6.59,6.59,0,0,0,5.93-.24l57-32.94c1.75-1,2-2.54.43-3.42h0A6.6,6.6,0,0,0,1300.8,641.56Z" transform="translate(-787.03 -226.53)"/><g class="cls-18"><g class="cls-40"><polygon class="cls-41" points="66.48 318.84 265.35 432.06 407.35 365.25 168.56 228.43 66.48 318.84"/></g></g><g class="cls-18"><path class="cls-19" d="M1027.11,453.5c-52.84-27.86-137.67-26.49-189.47,3.07s-51,76.1,1.86,104S977.17,587,1029,557.46,1079.94,481.36,1027.11,453.5Z" transform="translate(-787.03 -226.53)"/><path class="cls-20" d="M1025.78,454.25c-52.09-27.46-135.72-26.11-186.78,3s-50.25,75,1.83,102.49,135.72,26.11,186.79-3S1077.87,481.72,1025.78,454.25Z" transform="translate(-787.03 -226.53)"/><path class="cls-21" d="M1024.45,455c-51.34-27.07-133.76-25.73-184.1,3s-49.52,73.94,1.81,101,133.77,25.74,184.11-3S1075.79,482.08,1024.45,455Z" transform="translate(-787.03 -226.53)"/><path class="cls-22" d="M1023.12,455.77c-50.59-26.68-131.81-25.36-181.42,2.94s-48.8,72.87,1.79,99.54,131.82,25.36,181.42-2.93S1073.72,482.45,1023.12,455.77Z" transform="translate(-787.03 -226.53)"/><path class="cls-23" d="M1021.79,456.53c-49.84-26.29-129.86-25-178.73,2.89s-48.08,71.8,1.76,98.08,129.86,25,178.74-2.9S1071.64,482.81,1021.79,456.53Z" transform="translate(-787.03 -226.53)"/><path class="cls-24" d="M1020.47,457.29c-49.1-25.89-127.92-24.62-176.06,2.85s-47.36,70.71,1.74,96.6,127.91,24.61,176.05-2.85S1069.56,483.17,1020.47,457.29Z" transform="translate(-787.03 -226.53)"/><path class="cls-25" d="M1019.14,458c-48.35-25.49-126-24.23-173.37,2.81s-46.64,69.64,1.7,95.13,126,24.24,173.38-2.81S1067.49,483.54,1019.14,458Z" transform="translate(-787.03 -226.53)"/><path class="cls-26" d="M1017.81,458.8c-47.6-25.1-124-23.86-170.69,2.77s-45.91,68.56,1.68,93.65,124,23.86,170.69-2.76S1065.41,483.9,1017.81,458.8Z" transform="translate(-787.03 -226.53)"/><path class="cls-27" d="M1016.48,459.56c-46.85-24.71-122.07-23.49-168,2.72s-45.2,67.48,1.65,92.18,122.07,23.49,168-2.72S1063.33,484.26,1016.48,459.56Z" transform="translate(-787.03 -226.53)"/><path class="cls-28" d="M1015.15,460.32C969.05,436,895,437.21,849.83,463s-44.47,66.41,1.63,90.72,120.12,23.11,165.33-2.68S1061.26,484.63,1015.15,460.32Z" transform="translate(-787.03 -226.53)"/><path class="cls-29" d="M1013.82,461.07c-45.35-23.91-118.16-22.73-162.63,2.64S807.43,529,852.79,553s118.17,22.74,162.64-2.63S1059.18,485,1013.82,461.07Z" transform="translate(-787.03 -226.53)"/><path class="cls-30" d="M1012.5,461.83c-44.61-23.52-116.22-22.36-160,2.59s-43,64.25,1.58,87.77,116.22,22.36,160-2.59S1057.1,485.35,1012.5,461.83Z" transform="translate(-787.03 -226.53)"/><path class="cls-31" d="M1011.17,462.59c-43.86-23.13-114.27-22-157.27,2.55s-42.31,63.17,1.54,86.29,114.28,22,157.28-2.54S1055,485.72,1011.17,462.59Z" transform="translate(-787.03 -226.53)"/><path class="cls-32" d="M1009.84,463.35c-43.12-22.74-112.32-21.61-154.59,2.5s-41.59,62.1,1.52,84.83,112.33,21.61,154.6-2.51S1053,486.08,1009.84,463.35Z" transform="translate(-787.03 -226.53)"/><path class="cls-33" d="M1008.51,464.11c-42.37-22.34-110.37-21.24-151.9,2.45s-40.87,61,1.49,83.36,110.38,21.24,151.91-2.46S1050.87,486.44,1008.51,464.11Z" transform="translate(-787.03 -226.53)"/><path class="cls-34" d="M1007.18,464.86C965.56,442.92,898.76,444,858,467.28s-40.15,59.94,1.47,81.88,108.42,20.86,149.23-2.42S1048.8,486.81,1007.18,464.86Z" transform="translate(-787.03 -226.53)"/><path class="cls-35" d="M1005.85,465.62C965,444.07,899.38,445.14,859.31,468s-39.42,58.87,1.45,80.41S967.23,568.89,1007.3,546,1046.72,487.17,1005.85,465.62Z" transform="translate(-787.03 -226.53)"/></g><path class="cls-42" d="M859,439.51c41-23.69,107.55-23.69,148.57,0,20,11.56,30.28,26.63,30.74,41.77q.42,12.93,0,25.86c-.46,15.15-10.71,30.22-30.74,41.78-41,23.69-107.55,23.69-148.57,0-20-11.56-30.27-26.63-30.74-41.78q-.4-12.92,0-25.86C828.75,466.14,839,451.07,859,439.51Z" transform="translate(-787.03 -226.53)"/><ellipse class="cls-43" cx="146.28" cy="255.87" rx="105.06" ry="60.66"/><path class="cls-42" d="M1018.61,464.87c-4.36-7.1-11.37-13.79-21.22-19.47C962,425,904.61,425,869.22,445.4c-9.85,5.68-16.85,12.37-21.22,19.47h-5.33v18.67h.09c.49,13,9.26,25.93,26.46,35.86,35.39,20.44,92.78,20.44,128.17,0,17.2-9.93,26-22.86,26.46-35.86h.09V464.87Z" transform="translate(-787.03 -226.53)"/><path class="cls-44" d="M869.22,427.87c-35.4,20.43-35.4,53.57,0,74s92.78,20.44,128.17,0,35.4-53.57,0-74S904.61,407.43,869.22,427.87Z" transform="translate(-787.03 -226.53)"/><path class="cls-42" d="M879.57,431.48c-29.68,17.13-29.68,44.92,0,62s77.8,17.14,107.48,0,29.68-44.92,0-62S909.24,414.34,879.57,431.48Z" transform="translate(-787.03 -226.53)"/><path class="cls-45" d="M1130.62,1082.66l-189.37-105c-3.81-2.12-13.8-.06-13.8,8.53l5.3,158.43a5.73,5.73,0,0,0,3,5l185.77,109.77c3.81,2.12,12.1-.92,12.1-9.82V1087.67A5.71,5.71,0,0,0,1130.62,1082.66Z" transform="translate(-787.03 -226.53)"/><path class="cls-46" d="M1126.86,1085.6,936,979.79a5.78,5.78,0,0,0-8.57,5.06v163.22a5.75,5.75,0,0,0,3,5l190.86,105.8a5.77,5.77,0,0,0,8.58-5.05V1090.65A5.78,5.78,0,0,0,1126.86,1085.6Z" transform="translate(-787.03 -226.53)"/><path class="cls-47" d="M1026.3,1160.08h0c-10.59-5.74-19-17.18-18.87-25.56l.79-38.85,38.34,20.76-.78,38.85C1045.61,1163.66,1036.89,1165.81,1026.3,1160.08Z" transform="translate(-787.03 -226.53)"/><polygon class="cls-47" points="249.9 894.79 259.53 889.91 254.81 935.74 244.8 940.8 249.9 894.79"/><path class="cls-48" d="M1016.66,1165h0c-10.59-5.74-19-17.18-18.86-25.56l.78-38.85,38.35,20.77-.79,38.84C1036,1168.55,1027.25,1170.69,1016.66,1165Z" transform="translate(-787.03 -226.53)"/><polygon class="cls-49" points="211.56 874.02 221.19 869.14 259.53 889.91 249.9 894.79 211.56 874.02"/><path class="cls-39" d="M1058.42,1095.79c0-7.15-5.55-15.84-12.63-19.8-3.81-2.13-7.59-2.55-10.35-1.15s-4.07,4.08-4.07,7.75v31.16c0,.54,1.17,1.21,2.61,1.49s2.62.07,2.62-.47V1083.6c0-1.9.66-3.28,1.84-3.89,1.35-.68,3.38-.37,5.56.86,5,2.77,9.18,9.28,9.18,14.2V1115h0s0,0,0,.08c0,.54,1.17,1.21,2.62,1.5s2.62.06,2.62-.48c0,0,0-.07-.05-.1h.05Z" transform="translate(-787.03 -226.53)"/><path class="cls-47" d="M1020.61,1134.65a2.8,2.8,0,0,0,1.57-2.84c0-2.92-2.36-6.65-5.28-8.33s-5.27-.68-5.27,2.23a9.56,9.56,0,0,0,2.06,5.37.79.79,0,0,1,.15.61l-2.06,12.35a.82.82,0,0,0,.39.83l8.49,5a.81.81,0,0,0,1.22-.82l-1.87-13.55A.87.87,0,0,1,1020.61,1134.65Z" transform="translate(-787.03 -226.53)"/><path class="cls-49" d="M1015.77,1145.59a.82.82,0,0,1-.39-.83l2.06-12.35a.83.83,0,0,0-.15-.61,9.57,9.57,0,0,1-2.07-5.37,2.73,2.73,0,0,1,1.77-2.89l-.09-.06c-2.91-1.68-5.27-.68-5.27,2.23a9.56,9.56,0,0,0,2.06,5.37.79.79,0,0,1,.15.61l-2.06,12.35a.82.82,0,0,0,.39.83l8.49,5a.8.8,0,0,0,1.21-.7Z" transform="translate(-787.03 -226.53)"/><path class="cls-47" d="M1015.39,1103.58c-.15.61-1.62.81-3.29.42s-2.91-1.2-2.77-1.82,1.62-.82,3.29-.43S1015.53,1103,1015.39,1103.58Z" transform="translate(-787.03 -226.53)"/><polygon class="cls-19" points="160.8 793.9 177.69 803.1 177.69 800.64 160.8 791.45 160.8 793.9"/><polygon class="cls-19" points="180.78 804.79 195.47 812.78 195.47 810.33 180.78 802.33 180.78 804.79"/><polygon class="cls-19" points="160.8 799.43 169.99 804.43 169.99 801.98 160.8 796.98 160.8 799.43"/><polygon class="cls-19" points="183 811.53 195.47 818.32 195.47 815.86 183 809.07 183 811.53"/><polygon class="cls-19" points="171.29 805.15 180.94 810.4 180.94 807.95 171.29 802.69 171.29 805.15"/><polygon class="cls-19" points="160.8 804.96 195.47 823.84 195.47 821.39 160.8 802.5 160.8 804.96"/><polygon class="cls-19" points="160.8 810.5 172.16 816.67 172.16 814.22 160.8 808.03 160.8 810.5"/><polygon class="cls-19" points="176.39 818.98 195.47 829.37 195.47 826.92 176.39 816.53 176.39 818.98"/><polygon class="cls-19" points="160.8 816.02 195.47 834.9 195.47 832.45 160.8 813.57 160.8 816.02"/><polygon class="cls-19" points="160.8 821.55 168.8 825.91 168.8 823.46 160.8 819.1 160.8 821.55"/><polygon class="cls-19" points="171.29 827.26 180.94 832.52 180.94 830.07 171.29 824.81 171.29 827.26"/><polygon class="cls-19" points="182.57 833.41 195.47 840.43 195.47 837.98 182.57 830.95 182.57 833.41"/><polygon class="cls-19" points="160.8 827.08 177.69 836.28 177.69 833.82 160.8 824.63 160.8 827.08"/><polygon class="cls-19" points="180.78 837.97 195.47 845.97 195.47 843.51 180.78 835.51 180.78 837.97"/><g class="cls-50"><polygon class="cls-51" points="130.39 1326.39 360.88 1457.63 525.46 1380.19 248.7 1221.6 130.39 1326.39"/></g><g class="cls-18"><path class="cls-19" d="M800.37,1463.85l138.07-79a25.07,25.07,0,0,1,25.28.16l137.76,75.13a27.21,27.21,0,0,1-.41,46.74L963,1584.72a25.1,25.1,0,0,1-25-.12l-137.7-73.94a27.24,27.24,0,0,1,.07-46.81Z" transform="translate(-787.03 -226.53)"/><path class="cls-20" d="M939,1385.89a22.55,22.55,0,0,1,8-2.75,25.64,25.64,0,0,1,4.38-.26,26.27,26.27,0,0,1,12.6,3.62l136.47,74.42a27.49,27.49,0,0,1,7.32,6.28,24.45,24.45,0,0,1,5.38,16.79c-.08,9.1-6.11,18.13-13.83,22.48L963.1,1583.25a26.06,26.06,0,0,1-12.14,3.37,25.33,25.33,0,0,1-3.8-.2,23,23,0,0,1-8.59-2.88l-137.11-73.62a27.69,27.69,0,0,1-8.42-7.53,24.09,24.09,0,0,1-4.61-15.57c0-9.1,6.11-18.24,13.8-22.65Z" transform="translate(-787.03 -226.53)"/><path class="cls-21" d="M939.57,1387a20.32,20.32,0,0,1,7.93-2.57,26.9,26.9,0,0,1,4.31-.12c3.91,0,9,1.74,12.42,3.74l135.18,73.72a28.55,28.55,0,0,1,7.32,6.13,22,22,0,0,1,5,16.53c-.07,8.5-7,17.64-14.19,21.7l-134.31,75.71a27,27,0,0,1-11.91,3.47,27.26,27.26,0,0,1-3.73-.08,20.94,20.94,0,0,1-8.47-2.7l-136.53-73.31a29.19,29.19,0,0,1-8.48-7.36,21.37,21.37,0,0,1-4.3-15.39c0-8.5,7.08-17.82,14.27-21.93Z" transform="translate(-787.03 -226.53)"/><path class="cls-22" d="M940.14,1388a18.26,18.26,0,0,1,7.86-2.38,28.58,28.58,0,0,1,4.24,0c3.63,0,9.08,2,12.24,3.87l133.89,73a29.92,29.92,0,0,1,7.32,6,19.86,19.86,0,0,1,4.65,16.28c-.06,7.88-7.84,17.14-14.53,20.91l-132.4,74.63c-3.07,1.74-8.19,3.58-11.69,3.58a27.82,27.82,0,0,1-3.65,0,19,19,0,0,1-8.36-2.51l-135.94-73c-2.73-1.58-6.78-4.67-8.55-7.2a19.1,19.1,0,0,1-4-15.22c0-7.88,8.06-17.39,14.73-21.21Z" transform="translate(-787.03 -226.53)"/><path class="cls-23" d="M940.7,1389.07a16.61,16.61,0,0,1,7.8-2.19,29,29,0,0,1,4.16.15c3.35,0,9.16,2.26,12.07,4l132.61,72.32c2.14,1.26,5.82,3.9,7.32,5.82a18,18,0,0,1,4.28,16c-.06,7.28-8.71,16.65-14.88,20.13l-130.5,73.56c-2.83,1.6-8.23,3.68-11.46,3.68a28.65,28.65,0,0,1-3.58.14,17.39,17.39,0,0,1-8.24-2.31l-135.36-72.68c-2.51-1.46-7-4.7-8.61-7a17.21,17.21,0,0,1-3.68-15.05c0-7.28,9-17,15.19-20.49Z" transform="translate(-787.03 -226.53)"/><path class="cls-24" d="M941.27,1390.13a15.09,15.09,0,0,1,7.73-2c1-.18,3.06.29,4.09.29,3.07,0,9.22,2.53,11.9,4.11l131.31,71.61c2,1.16,6,3.91,7.32,5.67a16.43,16.43,0,0,1,3.92,15.76c-.06,6.67-9.57,16.16-15.23,19.35l-128.59,72.48c-2.6,1.47-8.28,3.79-11.25,3.79a29.4,29.4,0,0,1-3.49.25,15.87,15.87,0,0,1-8.13-2.12l-134.77-72.37c-2.31-1.33-7.18-4.72-8.68-6.86a15.65,15.65,0,0,1-3.38-14.87c0-6.67,10-16.54,15.67-19.77Z" transform="translate(-787.03 -226.53)"/><path class="cls-25" d="M941.83,1391.19a13.81,13.81,0,0,1,7.66-1.82c.92-.17,3.09.42,4,.42,2.79,0,9.29,2.8,11.72,4.23l130,70.91c1.78,1,6.07,3.92,7.32,5.52a15,15,0,0,1,3.55,15.5c-.05,6.07-10.44,15.67-15.59,18.57l-126.68,71.41c-2.36,1.33-8.32,3.89-11,3.89a33.19,33.19,0,0,1-3.41.37,14.59,14.59,0,0,1-8-1.94l-134.19-72c-2.09-1.21-7.38-4.75-8.74-6.7a14.28,14.28,0,0,1-3.07-14.69c0-6.06,11-16.12,16.13-19.06Z" transform="translate(-787.03 -226.53)"/><path class="cls-26" d="M942.4,1392.25a12.65,12.65,0,0,1,7.59-1.64c.83-.15,3.11.57,4,.57,2.51,0,9.35,3,11.54,4.35l128.74,70.21c1.61.94,6.19,3.92,7.32,5.36a13.76,13.76,0,0,1,3.19,15.24c0,5.46-11.31,15.18-15.94,17.79L964,1574.46c-2.12,1.2-8.36,4-10.79,4-.73,0-2.62.59-3.34.48a13.34,13.34,0,0,1-7.9-1.74l-133.6-71.74c-1.89-1.09-7.58-4.79-8.81-6.54a13.09,13.09,0,0,1-2.76-14.51c0-5.46,12-15.7,16.6-18.34Z" transform="translate(-787.03 -226.53)"/><path class="cls-27" d="M943,1393.3a11.65,11.65,0,0,1,7.52-1.44c.73-.14,3.13.7,3.88.7,2.24,0,9.43,3.32,11.37,4.47l127.46,69.51c1.42.84,6.31,3.93,7.31,5.21a12.65,12.65,0,0,1,2.82,15c0,4.86-12.17,14.69-16.28,17L964.18,1573c-1.89,1.07-8.41,4.1-10.57,4.1-.65,0-2.62.69-3.26.59a12.33,12.33,0,0,1-7.79-1.55l-133-71.42c-1.68-1-7.79-4.82-8.88-6.37a12.1,12.1,0,0,1-2.45-14.34c0-4.85,12.95-15.28,17.06-17.63Z" transform="translate(-787.03 -226.53)"/><path class="cls-28" d="M943.53,1394.36a10.85,10.85,0,0,1,7.46-1.26c.64-.11,3.15.84,3.81.84,2,0,9.5,3.59,11.2,4.59l126.16,68.81c1.25.73,6.44,3.94,7.32,5.06,4.36,3.69,5.24,10.41,2.45,14.73,0,4.24-13,14.19-16.64,16.22l-121,68.18c-1.65.94-8.46,4.21-10.34,4.21-.57,0-2.63.79-3.19.71a11.45,11.45,0,0,1-7.68-1.37L810.7,1504c-1.47-.85-8-4.84-8.93-6.2-4.14-3.56-4.91-10.06-2.15-14.16,0-4.25,13.93-14.85,17.52-16.91Z" transform="translate(-787.03 -226.53)"/><path class="cls-29" d="M944.1,1395.42a10,10,0,0,1,7.39-1.07c.55-.1,3.18,1,3.74,1,1.67,0,9.56,3.85,11,4.71l124.88,68.1c1.07.63,6.56,3.95,7.31,4.91,4.44,3.57,5.18,10.37,2.09,14.47,0,3.64-13.9,13.71-17,15.45l-119,67.1c-1.42.8-8.51,4.31-10.12,4.31-.49,0-2.63.89-3.11.82a10.51,10.51,0,0,1-7.57-1.18l-131.83-70.79c-1.26-.73-8.19-4.87-9-6-4.25-3.45-4.91-10.07-1.84-14,0-3.64,14.91-14.43,18-16.19Z" transform="translate(-787.03 -226.53)"/><path class="cls-30" d="M944.66,1396.48a9.4,9.4,0,0,1,7.33-.89c.46-.08,3.2,1.12,3.66,1.12,1.4,0,9.64,4.12,10.85,4.83L1090.09,1469c.89.52,6.69,4,7.32,4.75,4.51,3.46,5.11,10.33,1.72,14.21,0,3-14.77,13.22-17.34,14.67l-117.15,66c-1.18.67-8.55,4.42-9.89,4.42-.41,0-2.63,1-3,.93a9.78,9.78,0,0,1-7.46-1L813,1502.49c-1-.61-8.38-4.9-9.06-5.87-4.35-3.35-4.9-10.08-1.53-13.81,0-3,15.89-14,18.45-15.48Z" transform="translate(-787.03 -226.53)"/><path class="cls-31" d="M945.23,1397.54a8.77,8.77,0,0,1,7.26-.7c.36-.07,3.22,1.25,3.59,1.25,1.12,0,9.7,4.38,10.67,5l122.3,66.7c.72.42,6.82,4,7.32,4.6,4.58,3.34,5.06,10.29,1.36,14,0,2.43-15.64,12.73-17.7,13.89l-115.24,65c-.94.53-8.59,4.52-9.66,4.52-.33,0-2.64,1.09-3,1a9.05,9.05,0,0,1-7.34-.79l-130.66-70.17c-.84-.48-8.59-4.92-9.13-5.7-4.46-3.24-4.9-10.09-1.22-13.63,0-2.43,16.86-13.59,18.91-14.76Z" transform="translate(-787.03 -226.53)"/><path class="cls-32" d="M945.79,1398.6a8.23,8.23,0,0,1,7.19-.52c.28,0,3.25,1.4,3.53,1.4.83,0,9.77,4.64,10.5,5.07l121,66c.53.31,6.94,4,7.31,4.45,4.66,3.22,5,10.26,1,13.69,0,1.82-16.49,12.24-18,13.11L965,1565.68c-.71.4-8.64,4.62-9.45,4.62-.24,0-2.63,1.19-2.87,1.16a8.5,8.5,0,0,1-7.23-.61L815.32,1501c-.63-.36-8.78-5-9.19-5.54-4.57-3.13-4.9-10.09-.91-13.45,0-1.82,17.84-13.16,19.38-14Z" transform="translate(-787.03 -226.53)"/><path class="cls-33" d="M946.36,1399.66a7.74,7.74,0,0,1,7.12-.33c.19,0,3.27,1.53,3.45,1.53.56,0,9.84,4.91,10.33,5.2L1087,1471.35c.36.21,7.07,4,7.32,4.3,4.73,3.1,4.93,10.22.62,13.43,0,1.22-17.36,11.75-18.39,12.33l-111.43,62.8c-.47.27-8.68,4.73-9.22,4.73-.16,0-2.64,1.29-2.8,1.27a7.88,7.88,0,0,1-7.11-.42l-129.49-69.53c-.42-.25-9-5-9.26-5.38-4.68-3-4.89-10.1-.6-13.27,0-1.22,18.82-12.74,19.84-13.33Z" transform="translate(-787.03 -226.53)"/><path class="cls-34" d="M946.92,1400.72a7.3,7.3,0,0,1,7.06-.14c.09,0,3.29,1.66,3.38,1.66.28,0,9.91,5.18,10.15,5.32L1086,1472.15c.18.11,7.19,4,7.31,4.15a7.91,7.91,0,0,1,.26,13.17c0,.61-18.23,11.26-18.74,11.55l-109.52,61.73c-.24.13-8.73,4.83-9,4.83-.08,0-2.64,1.39-2.72,1.38a7.4,7.4,0,0,1-7-.22l-128.91-69.23c-.21-.12-9.18-5-9.32-5.2a7.86,7.86,0,0,1-.29-13.1c0-.61,19.79-12.32,20.31-12.61Z" transform="translate(-787.03 -226.53)"/><path class="cls-35" d="M947.49,1401.77a7,7,0,0,1,7,0l137.75,75.12a7.53,7.53,0,0,1-.11,12.93L954,1567.71a6.92,6.92,0,0,1-6.88,0l-137.71-74a7.52,7.52,0,0,1,0-12.93Z" transform="translate(-787.03 -226.53)"/></g><path class="cls-42" d="M1090.7,1474.45l-130.88-71.18a26.6,26.6,0,0,0-25.68.14L806.68,1474.5a9.84,9.84,0,0,0,0,17.18l127.46,71.09a26.63,26.63,0,0,0,25.68.14l130.88-71.18A9.83,9.83,0,0,0,1090.7,1474.45Z" transform="translate(-787.03 -226.53)"/><path class="cls-19" d="M1090.7,1455.16,959.82,1384a26.63,26.63,0,0,0-25.68.13l-127.46,71.1a9.83,9.83,0,0,0,0,17.17l127.46,71.1a26.63,26.63,0,0,0,25.68.13l130.88-71.17A9.83,9.83,0,0,0,1090.7,1455.16Z" transform="translate(-787.03 -226.53)"/><path class="cls-43" d="M806.68,1470l47.05,26.24,80.4,44.85a26.65,26.65,0,0,0,25.69.14l84.32-45.85,36.75-20,9.81-5.32a9.85,9.85,0,0,0,0-17.3l-130.88-71.17a26.65,26.65,0,0,0-25.69.14L851.24,1428l-44.56,24.85A9.84,9.84,0,0,0,806.68,1470Z" transform="translate(-787.03 -226.53)"/><g class="cls-52"><polygon class="cls-53" points="1549.59 1447.28 1379.82 1541.72 1154.78 1413.92 1315.09 1321.03 1549.59 1447.28"/></g><g class="cls-18"><path class="cls-19" d="M2110,1516.27c-61.24-32.29-159.56-30.7-219.6,3.56s-59.08,88.2,2.16,120.49,159.56,30.7,219.61-3.55S2171.2,1548.56,2110,1516.27Z" transform="translate(-787.03 -226.53)"/><path class="cls-20" d="M2108.42,1517.15c-60.37-31.83-157.3-30.27-216.49,3.51s-58.24,86.95,2.13,118.78,157.3,30.27,216.5-3.5S2168.79,1549,2108.42,1517.15Z" transform="translate(-787.03 -226.53)"/><path class="cls-21" d="M2106.88,1518c-59.5-31.38-155-29.84-213.38,3.45s-57.41,85.71,2.1,117.09,155,29.83,213.39-3.45S2166.39,1549.4,2106.88,1518Z" transform="translate(-787.03 -226.53)"/><path class="cls-22" d="M2105.34,1518.91c-58.64-30.92-152.78-29.4-210.27,3.4s-56.57,84.46,2.07,115.38,152.78,29.39,210.28-3.4S2164,1549.82,2105.34,1518.91Z" transform="translate(-787.03 -226.53)"/><path class="cls-23" d="M2103.8,1519.78c-57.77-30.46-150.52-29-207.16,3.36s-55.73,83.21,2,113.67,150.52,29,207.17-3.35S2161.57,1550.24,2103.8,1519.78Z" transform="translate(-787.03 -226.53)"/><path class="cls-24" d="M2102.26,1520.66c-56.9-30-148.26-28.53-204.05,3.31s-54.9,82,2,112,148.26,28.53,204.06-3.3S2159.17,1550.66,2102.26,1520.66Z" transform="translate(-787.03 -226.53)"/><path class="cls-25" d="M2100.72,1521.54c-56-29.55-146-28.09-200.94,3.26s-54.06,80.7,2,110.25,146,28.09,201-3.25S2156.76,1551.09,2100.72,1521.54Z" transform="translate(-787.03 -226.53)"/><path class="cls-26" d="M2099.18,1522.42c-55.17-29.09-143.74-27.66-197.83,3.2s-53.22,79.46,2,108.56,143.74,27.65,197.84-3.2S2154.35,1551.51,2099.18,1522.42Z" transform="translate(-787.03 -226.53)"/><path class="cls-27" d="M2097.64,1523.3c-54.3-28.64-141.48-27.23-194.72,3.15s-52.39,78.21,1.92,106.85,141.48,27.22,194.73-3.15S2152,1551.93,2097.64,1523.3Z" transform="translate(-787.03 -226.53)"/><path class="cls-28" d="M2096.1,1524.18c-53.43-28.18-139.22-26.8-191.61,3.1s-51.55,77,1.89,105.14,139.22,26.79,191.62-3.1S2149.54,1552.35,2096.1,1524.18Z" transform="translate(-787.03 -226.53)"/><path class="cls-29" d="M2094.56,1525.05c-52.56-27.72-137-26.35-188.5,3.06s-50.71,75.71,1.86,103.43,137,26.35,188.51-3S2147.13,1552.77,2094.56,1525.05Z" transform="translate(-787.03 -226.53)"/><path class="cls-30" d="M2093,1525.93c-51.7-27.26-134.71-25.92-185.4,3s-49.88,74.46,1.83,101.73,134.7,25.91,185.4-3S2144.73,1553.19,2093,1525.93Z" transform="translate(-787.03 -226.53)"/><path class="cls-31" d="M2091.49,1526.81c-50.84-26.81-132.45-25.49-182.29,3s-49,73.22,1.79,100,132.45,25.48,182.3-3S2142.32,1553.61,2091.49,1526.81Z" transform="translate(-787.03 -226.53)"/><path class="cls-32" d="M2090,1527.69c-50-26.35-130.2-25-179.18,2.9s-48.2,72,1.76,98.32,130.19,25,179.19-2.9S2139.91,1554,2090,1527.69Z" transform="translate(-787.03 -226.53)"/><path class="cls-33" d="M2088.41,1528.57c-49.1-25.9-127.94-24.62-176.07,2.85s-47.37,70.72,1.73,96.61,127.93,24.61,176.08-2.85S2137.51,1554.45,2088.41,1528.57Z" transform="translate(-787.03 -226.53)"/><path class="cls-34" d="M2086.87,1529.44c-48.23-25.43-125.68-24.18-173,2.81s-46.53,69.47,1.7,94.9,125.67,24.18,173-2.8S2135.1,1554.88,2086.87,1529.44Z" transform="translate(-787.03 -226.53)"/><path class="cls-35" d="M2085.33,1530.32c-47.37-25-123.42-23.74-169.85,2.76s-45.69,68.22,1.67,93.2,123.41,23.74,169.86-2.76S2132.69,1555.3,2085.33,1530.32Z" transform="translate(-787.03 -226.53)"/></g><path class="cls-42" d="M1915.14,1500.06c47.55-27.46,124.65-27.46,172.2,0,23.22,13.4,35.09,30.86,35.64,48.42q.46,15,0,30c-.55,17.56-12.42,35-35.64,48.42-47.55,27.46-124.65,27.46-172.2,0-23.21-13.39-35.08-30.86-35.63-48.42q-.46-15,0-30C1880.06,1530.92,1891.93,1513.46,1915.14,1500.06Z" transform="translate(-787.03 -226.53)"/><path class="cls-37" d="M1915.14,1500.06c-47.56,27.45-47.56,72,0,99.43s124.65,27.45,172.2,0,47.56-72,0-99.43S1962.69,1472.6,1915.14,1500.06Z" transform="translate(-787.03 -226.53)"/><path class="cls-54" d="M2080.25,1506.26c-43.94-23.9-115.21-23.9-159.16,0s-44,62.62,0,86.51,115.22,23.89,159.16,0S2124.21,1530.15,2080.25,1506.26Z" transform="translate(-787.03 -226.53)"/><path class="cls-55" d="M2072.4,1516.56c-39.61-21.53-103.85-21.53-143.46,0s-39.62,56.44,0,78,103.85,21.54,143.46,0S2112,1538.09,2072.4,1516.56Z" transform="translate(-787.03 -226.53)"/><path class="cls-15" d="M2086.45,1445.14c0,20.73-2.59,78.19-30.24,100.32l-13.67,11.92-1.24-4.41c-6.72,1.72-14.46,1.86-23.32-.18l-1.22-.28c-22.23-20-39.06-45.1-51.73-70.91-18.24-37.19-27.92-75.74-32.87-102.19l-.5-.46-21.5-18.09v0l17.23-15c41.54,16,64.18,5.18,72.67-1l.06,0a28.82,28.82,0,0,0,3.81-3.28l.15-.13c.91,1.72,21.63,42.86,64.59,81.46,5.49,5,11.41,9.87,17.63,14.64C2086.3,1437.55,2086.45,1440.37,2086.45,1445.14Z" transform="translate(-787.03 -226.53)"/><path class="cls-45" d="M2086.3,1437.55l-17.22,15-11.19,2-37.36,6.55-3.55-5-19.32-27.55-7.91-52.59-2.9-19.45,13.21-11.51.06,0,3.81-3.28.15-.13c.91,1.72,21.63,42.86,64.59,81.46C2074.16,1427.87,2080.08,1432.78,2086.3,1437.55Z" transform="translate(-787.03 -226.53)"/><path class="cls-56" d="M2042.54,1557.38c-10.1,9.9-24,14.81-43,10.18-23.79-21.37-41.33-48.6-54.29-76.24-29.5-63-35-128.23-35.13-130.46v0c54.81,21.19,76.69-4.4,76.69-4.4s21,42.64,65.4,82.18c5.28,4.78,10.88,9.41,16.83,14C2069.08,1452.55,2072.72,1527.64,2042.54,1557.38Z" transform="translate(-787.03 -226.53)"/><path class="cls-57" d="M1987.76,1372.05s-18.66,21.83-65.42,3.77c0,0,9,115.8,76.24,176.24,64.82,15.77,59.28-98,59.28-98C2010.1,1417.54,1987.76,1372.05,1987.76,1372.05Z" transform="translate(-787.03 -226.53)"/><path class="cls-45" d="M2000.92,1465.79c1.57-.64,2.56-2.25,2.56-4.66,0-4.78-3.87-10.88-8.65-13.65s-8.66-1.12-8.66,3.67a15.72,15.72,0,0,0,3.4,8.81,1.32,1.32,0,0,1,.24,1l-3.37,20.25a1.34,1.34,0,0,0,.63,1.37l13.92,8.26a1.33,1.33,0,0,0,2-1.33l-3.07-22.23A1.43,1.43,0,0,1,2000.92,1465.79Z" transform="translate(-787.03 -226.53)"/><path class="cls-15" d="M1993,1483.73a1.33,1.33,0,0,1-.64-1.37l3.37-20.25a1.3,1.3,0,0,0-.25-1,15.64,15.64,0,0,1-3.38-8.81c0-2.56,1.13-4.18,2.88-4.74l-.13-.1c-4.78-2.75-8.66-1.12-8.66,3.66a15.72,15.72,0,0,0,3.4,8.82,1.32,1.32,0,0,1,.24,1l-3.37,20.25a1.34,1.34,0,0,0,.63,1.37l13.92,8.26a1.31,1.31,0,0,0,2-1.15Z" transform="translate(-787.03 -226.53)"/><g class="cls-58"><path class="cls-59" d="M2102.09,1236.54h-204v313.31h.28c-1.59,16.16,8.2,32.64,29.6,45,39.83,23,104.41,23,144.23,0,21.4-12.35,31.19-28.83,29.6-45h.28Z" transform="translate(-787.03 -226.53)"/></g><path class="cls-36" d="M1601.09,823.83,1469.27,900a11.25,11.25,0,0,1-10.08,0c-2.77-1.61-2.77-4.22,0-5.8L1591,818a11.14,11.14,0,0,1,10.06,0C1603.89,819.63,1603.89,822.24,1601.09,823.83Z" transform="translate(-787.03 -226.53)"/><path class="cls-36" d="M1733.74,775.08,1601.92,851.2a11.21,11.21,0,0,1-10.09,0c-2.77-1.6-2.77-4.22,0-5.8l131.85-76.13a11.14,11.14,0,0,1,10.06,0C1736.53,770.87,1736.53,773.49,1733.74,775.08Z" transform="translate(-787.03 -226.53)"/><path class="cls-36" d="M1402.43,924.54l38.46-22.18a11.1,11.1,0,0,1,10.07,0c2.79,1.61,2.79,4.2,0,5.82l-38.47,22.19a11.2,11.2,0,0,1-10.06,0C1399.66,928.76,1399.66,926.16,1402.43,924.54Z" transform="translate(-787.03 -226.53)"/><path class="cls-36" d="M1738.58,760.28,1777,738.09a11.16,11.16,0,0,1,10.07,0c2.78,1.62,2.78,4.22,0,5.82l-38.47,22.2a11.14,11.14,0,0,1-10.06,0C1735.81,764.5,1735.81,761.9,1738.58,760.28Z" transform="translate(-787.03 -226.53)"/><path class="cls-36" d="M1610.31,807.94l144.22-83.28a11.16,11.16,0,0,1,10.07,0c2.77,1.62,2.77,4.23,0,5.81l-144.23,83.29a11.2,11.2,0,0,1-10.06,0C1607.52,812.14,1607.52,809.52,1610.31,807.94Z" transform="translate(-787.03 -226.53)"/><path class="cls-36" d="M1433.38,936.45l144.22-83.28a11.16,11.16,0,0,1,10.07,0c2.78,1.63,2.78,4.22,0,5.81l-144.23,83.29a11.2,11.2,0,0,1-10.06,0C1430.59,940.65,1430.59,938,1433.38,936.45Z" transform="translate(-787.03 -226.53)"/><path class="cls-37" d="M1177.31,812.53l60.89-35.16c8.32-4.83,8.36-12.66,0-17.48s-21.94-4.84-30.33,0L1147,795c-8.36,4.83-8.36,12.65,0,17.52S1168.9,817.33,1177.31,812.53Z" transform="translate(-787.03 -226.53)"/><path class="cls-60" d="M1665.44,904.5,1704,882.21c5.28-3.05,5.3-8,0-11.07s-13.87-3.07-19.19,0l-38.57,22.29c-5.29,3.05-5.29,8,0,11.1S1660.15,907.52,1665.44,904.5Z" transform="translate(-787.03 -226.53)"/><polygon class="cls-61" points="1258.83 654.19 845.14 893.07 843.67 892.25 1257.39 653.34 1258.83 654.19"/><path class="cls-37" d="M1638,888.64l38.59-22.28c5.31-3.06,5.31-8,0-11.08s-13.87-3.06-19.2,0l-38.56,22.32c-5.27,3-5.3,8,0,11.09S1632.7,891.67,1638,888.64Z" transform="translate(-787.03 -226.53)"/><polygon class="cls-49" points="911.01 853.4 863.37 880.89 658.7 760.76 706.32 733.23 911.01 853.4"/><polygon class="cls-37" points="978.69 814.46 931.08 841.97 770.05 750.05 817.7 722.53 978.69 814.46"/><polygon class="cls-62" points="1045.44 776.8 997.83 804.31 895.16 745.97 942.81 718.46 1045.44 776.8"/><path class="cls-63" d="M1878.42,814.85c9.42-4.44,23.29-3.61,31,1.78s6.27,13.44-3.14,17.92-23.28,3.66-31-1.8S1869,819.3,1878.42,814.85Z" transform="translate(-787.03 -226.53)"/><path class="cls-15" d="M1858.78,840.88c15.4,10.84,43.17,12.48,61.92,3.57s21.61-24.89,6.22-35.72-43.13-12.5-61.9-3.6S1843.41,830,1858.78,840.88Zm9.31-4.39c-11.18-7.87-9.14-19.58,4.51-26s33.88-5.24,45,2.59,9.15,19.59-4.49,26S1879.24,844.37,1868.09,836.49Z" transform="translate(-787.03 -226.53)"/><path class="cls-64" d="M1926.92,808.73c8.31,5.89,11.27,13.25,9.33,20.21l-11.76-1.39c1.28-5-.94-10.25-6.87-14.48-11.14-7.83-31.36-9-45-2.59l-7.58-5.35C1883.79,796.23,1911.54,797.85,1926.92,808.73Z" transform="translate(-787.03 -226.53)"/><path class="cls-37" d="M1865,805.13l7.58,5.35c-10.52,5-14.17,13-10.12,20.1l-11.4,2.19C1845.53,823.06,1850.49,812,1865,805.13Z" transform="translate(-787.03 -226.53)"/><path class="cls-37" d="M1799.78,865.67c11.87-1.42,23.53,3,26,9.9s-5.23,13.6-17.13,15-23.51-3-26-9.86S1787.89,867.06,1799.78,865.67Z" transform="translate(-787.03 -226.53)"/><path class="cls-65" d="M1760.76,883c4.88,13.69,28.19,22.58,51.94,19.77s39.14-16.28,34.24-30S1818.79,850.21,1795,853,1755.87,869.28,1760.76,883Zm11.72-1.4c-3.55-10,7.65-19.79,24.91-21.82s34.24,4.41,37.85,14.39S1827.56,894,1810.32,896,1776.08,891.6,1772.48,881.64Z" transform="translate(-787.03 -226.53)"/><path class="cls-63" d="M1768.79,862.64l9.28,4.36c-5.15,4.11-7.46,9.28-5.59,14.64,3.6,10,20.55,16.39,37.84,14.36l2.38,6.81c-23.75,2.81-47.06-6.08-51.94-19.77C1758.12,875.6,1761.41,868.22,1768.79,862.64Z" transform="translate(-787.03 -226.53)"/><path class="cls-45" d="M1835.38,880.93l11.91,1.14c-2.88,10-16.24,18.58-34.59,20.74l-2.38-6.81C1823.64,894.43,1833.28,888.23,1835.38,880.93Z" transform="translate(-787.03 -226.53)"/><path class="cls-37" d="M1883.73,914.14c11.86-1.43,23.52,3,26,9.9s-5.24,13.6-17.12,15-23.51-3-26-9.87S1871.85,915.53,1883.73,914.14Z" transform="translate(-787.03 -226.53)"/><path class="cls-37" d="M1844.68,931.5c4.92,13.71,28.2,22.58,52,19.76s39.14-16.28,34.24-30-28.13-22.59-51.92-19.76S1839.83,917.74,1844.68,931.5Zm11.74-1.41c-3.57-10,7.66-19.78,24.92-21.81s34.25,4.43,37.79,14.38-7.61,19.77-24.86,21.8S1860,940.05,1856.42,930.09Z" transform="translate(-787.03 -226.53)"/><path class="cls-66" d="M1852.68,911.08l9.31,4.37c-5.13,4.1-7.42,9.29-5.57,14.64,3.59,10,20.53,16.41,37.85,14.37l2.36,6.8c-23.75,2.82-47-6-52-19.76C1842.06,924.06,1845.34,916.7,1852.68,911.08Z" transform="translate(-787.03 -226.53)"/><path class="cls-15" d="M1919.35,929.39l11.9,1.13c-2.89,10.06-16.25,18.61-34.62,20.74l-2.36-6.8C1907.58,942.89,1917.21,936.69,1919.35,929.39Z" transform="translate(-787.03 -226.53)"/><path class="cls-63" d="M1972.48,862.59c11.72-1.8,23.77,2.27,26.91,9s-3.84,13.76-15.62,15.54-23.81-2.25-26.93-9S1960.66,864.38,1972.48,862.59Z" transform="translate(-787.03 -226.53)"/><path class="cls-37" d="M1935.93,881.19c6.24,13.52,30.4,21.62,53.86,18s37.46-17.53,31.21-31.06-30.39-21.67-53.87-18.06S1929.7,867.69,1935.93,881.19Zm11.62-1.76c-4.56-9.87,5.65-20,22.66-22.6s34.61,3.26,39.16,13.11-5.61,20-22.69,22.6S1952.09,889.25,1947.55,879.43Z" transform="translate(-787.03 -226.53)"/><path class="cls-67" d="M1967.13,850.12c12.69-1.93,25.57-.47,35.78,3.44l-7,5.63a52.14,52.14,0,0,0-25.66-2.36c-17,2.56-27.22,12.73-22.66,22.6l-11.62,1.76C1929.7,867.69,1943.66,853.69,1967.13,850.12Z" transform="translate(-787.03 -226.53)"/><path class="cls-45" d="M1947.55,879.43c3.45,7.56,14.73,12.8,27.54,13.62l-1.29,6.86c-17.58-1.12-33-8.27-37.87-18.72Z" transform="translate(-787.03 -226.53)"/><path class="cls-37" d="M1797,793l46.87-27.08c2.32-1.33,2.29-3.46,0-4.8a9.1,9.1,0,0,0-8.36,0l-46.87,27.06c-2.29,1.34-2.31,3.5,0,4.84A9.39,9.39,0,0,0,1797,793Z" transform="translate(-787.03 -226.53)"/><path class="cls-68" d="M1809.74,800.28l46.89-27.07c2.29-1.35,2.27-3.48,0-4.8a9.16,9.16,0,0,0-8.37,0l-46.85,27.08c-2.32,1.32-2.33,3.49,0,4.82A9.26,9.26,0,0,0,1809.74,800.28Z" transform="translate(-787.03 -226.53)"/><path class="cls-63" d="M1822.59,807.69l46.87-27.05c2.32-1.33,2.27-3.49,0-4.83a9.31,9.31,0,0,0-8.37,0l-46.86,27.05c-2.3,1.34-2.32,3.52,0,4.84A9.24,9.24,0,0,0,1822.59,807.69Z" transform="translate(-787.03 -226.53)"/><path class="cls-45" d="M1699.86,849l46.88-27.07c2.28-1.31,2.28-3.46,0-4.8a9.26,9.26,0,0,0-8.39,0l-46.86,27.06c-2.29,1.34-2.32,3.52,0,4.85A9.27,9.27,0,0,0,1699.86,849Z" transform="translate(-787.03 -226.53)"/><path class="cls-45" d="M1712.58,856.27l46.85-27c2.32-1.33,2.32-3.5,0-4.82a9.24,9.24,0,0,0-8.35,0l-46.87,27.07c-2.29,1.32-2.32,3.51,0,4.86A9.29,9.29,0,0,0,1712.58,856.27Z" transform="translate(-787.03 -226.53)"/><path class="cls-37" d="M1725.41,863.69l46.87-27.05c2.29-1.34,2.29-3.49,0-4.83a9.32,9.32,0,0,0-8.36,0l-46.84,27.06c-2.31,1.35-2.34,3.52,0,4.88A9.26,9.26,0,0,0,1725.41,863.69Z" transform="translate(-787.03 -226.53)"/><path class="cls-36" d="M1220.94,826l38.47-22.21a11.12,11.12,0,0,1,10.08,0c2.77,1.6,2.77,4.21,0,5.81l-38.5,22.2a11.12,11.12,0,0,1-10,0C1218.16,830.15,1218.18,827.54,1220.94,826Z" transform="translate(-787.03 -226.53)"/><path class="cls-36" d="M1277.86,793.33,1307,776.49a11.12,11.12,0,0,1,10.08,0c2.77,1.62,2.77,4.21,0,5.81l-29.18,16.84a11.12,11.12,0,0,1-10.05,0C1275.08,797.54,1275.09,794.92,1277.86,793.33Z" transform="translate(-787.03 -226.53)"/><path class="cls-36" d="M1253.8,844.85l38.48-22.2a11,11,0,0,1,10.06,0c2.79,1.59,2.79,4.19,0,5.81l-38.47,22.2a11.1,11.1,0,0,1-10.07,0C1251.06,849,1251.06,846.42,1253.8,844.85Z" transform="translate(-787.03 -226.53)"/><path class="cls-36" d="M1318.3,882.12l38.47-22.22a11.25,11.25,0,0,1,10.08,0c2.77,1.61,2.77,4.22,0,5.8l-38.48,22.21a11,11,0,0,1-10.07,0C1315.53,886.32,1315.53,883.72,1318.3,882.12Z" transform="translate(-787.03 -226.53)"/><path class="cls-69" d="M1686.43,729.9s11.32-.85,21.71-11.41c15.34-15.6-30.4-23-30.4-23l-10.28,19.75Z" transform="translate(-787.03 -226.53)"/><path class="cls-70" d="M1596.89,518c-8.22-4.67-14-14.7-14.12-24.35h0a17.71,17.71,0,0,0-9-15.27L1527.28,452c-11.72-6.66-23,.23-22.89,14l1,131.16c.08,9.64,5.88,19.66,14.1,24.34l171.38,97.34c11.73,6.66,23-.23,22.9-14L1713,602a31.49,31.49,0,0,0-15.93-27.14Z" transform="translate(-787.03 -226.53)"/><path class="cls-47" d="M1709.1,714.77c2.4-4,2-3.95,2.08-6.6a18.39,18.39,0,0,0,.12-2.11l-.81-102.77a31.49,31.49,0,0,0-15.93-27.13l-100.18-56.9c-8.22-4.67-14-14.69-14.12-24.34a17.74,17.74,0,0,0-9-15.28l-46.52-26.42c-11.72-6.67-23,.22-22.9,14l1.05,131.16C1503,608,1508.8,618,1517,622.69l152.84,86.82-2.29,4.41,17.81,9.92s5,4.74,17.46-3C1705.62,718.29,1707.85,716.77,1709.1,714.77Z" transform="translate(-787.03 -226.53)"/><path class="cls-36" d="M1681.67,530.22l-156.18-86.59c-3.15-1.75-11.39-.06-11.39,7l4.37,179.18a4.72,4.72,0,0,0,2.44,4.13l153.22,90.55c3.14,1.74,10-.77,10-8.11V534.35A4.7,4.7,0,0,0,1681.67,530.22Z" transform="translate(-787.03 -226.53)"/><path class="cls-37" d="M1678.57,532.65l-157.43-87.28a4.76,4.76,0,0,0-7.07,4.17V632.67a4.78,4.78,0,0,0,2.45,4.17L1674,724.1a4.76,4.76,0,0,0,7.07-4.16V536.81A4.75,4.75,0,0,0,1678.57,532.65Z" transform="translate(-787.03 -226.53)"/><polygon class="cls-71" points="779.91 421.82 747.51 403.42 747.51 411.07 779.91 429.47 779.91 421.82"/><polygon class="cls-71" points="855.29 465.34 822.9 446.94 822.9 454.59 855.29 473 855.29 465.34"/><polygon class="cls-71" points="817.32 443.28 784.93 424.88 784.93 432.53 817.32 450.93 817.32 443.28"/><polygon class="cls-71" points="818.21 381.71 830.45 388.71 830.45 385.83 818.21 378.83 818.21 381.71"/><polygon class="cls-71" points="800.83 371.77 815.89 380.38 815.89 377.51 800.83 368.89 800.83 371.77"/><polygon class="cls-71" points="784.76 362.57 796.21 369.12 796.21 366.25 784.76 359.7 784.76 362.57"/><polygon class="cls-71" points="758.76 347.7 781.23 360.56 781.23 357.68 758.76 344.83 758.76 347.7"/><polygon class="cls-71" points="833.95 390.69 878.74 415.92 878.74 413.04 833.95 387.81 833.95 390.69"/><polygon class="cls-71" points="764.71 357.58 775.89 363.97 775.89 361.1 764.71 354.7 764.71 357.58"/><polygon class="cls-71" points="747.22 347.58 759.08 354.36 759.08 351.48 747.22 344.7 747.22 347.58"/><polygon class="cls-71" points="836.46 398.59 878.74 422.41 878.74 419.53 836.46 395.72 836.46 398.59"/><polygon class="cls-71" points="823.23 391.11 834.13 397.28 834.13 394.4 823.23 388.24 823.23 391.11"/><polygon class="cls-71" points="742.39 331.89 776.33 351.3 776.33 348.42 742.39 329.02 742.39 331.89"/><polygon class="cls-71" points="836.46 385.67 878.74 409.48 878.74 406.6 836.46 382.8 836.46 385.67"/><polygon class="cls-71" points="823.23 378.19 834.13 384.35 834.13 381.48 823.23 375.31 823.23 378.19"/><polygon class="cls-71" points="787.39 344.73 824.21 365.8 824.21 362.92 787.39 341.85 787.39 344.73"/><polygon class="cls-71" points="861.56 393.25 878.74 403.03 878.74 400.15 861.56 390.37 861.56 393.25"/><polygon class="cls-71" points="843.08 382.72 857.08 390.69 857.08 387.82 843.08 379.84 843.08 382.72"/><polygon class="cls-71" points="818.06 368.48 839.17 380.5 839.17 377.62 818.06 365.6 818.06 368.48"/><polygon class="cls-71" points="794.93 355.31 815.17 366.83 815.17 363.96 794.93 352.43 794.93 355.31"/><polygon class="cls-71" points="771.51 341.97 791.17 353.17 791.17 350.29 771.51 339.1 771.51 341.97"/><polygon class="cls-71" points="751.53 330.6 767.89 339.92 767.89 337.04 751.53 327.72 751.53 330.6"/><polygon class="cls-71" points="800.83 411.22 830.45 428.16 830.45 425.28 800.83 408.34 800.83 411.22"/><polygon class="cls-71" points="758.76 387.15 796.21 408.57 796.21 405.69 758.76 384.27 758.76 387.15"/><polygon class="cls-71" points="742.3 377.74 754.71 384.84 754.71 381.96 742.3 374.86 742.3 377.74"/><polygon class="cls-71" points="833.95 430.14 865.23 447.76 865.23 444.88 833.95 427.25 833.95 430.14"/><polygon class="cls-71" points="780.23 405.9 808.2 421.89 808.2 419.01 780.23 403.02 780.23 405.9"/><polygon class="cls-71" points="810.45 423.18 820.77 429.08 820.77 426.2 810.45 420.3 810.45 423.18"/><polygon class="cls-71" points="764.06 396.66 775.89 403.42 775.89 400.54 764.06 393.78 764.06 396.66"/><polygon class="cls-71" points="748.3 387.65 761.71 395.31 761.71 392.44 748.3 384.77 748.3 387.65"/><polygon class="cls-71" points="823.23 430.56 834.13 436.72 834.13 433.85 823.23 427.69 823.23 430.56"/><polygon class="cls-71" points="762.98 383.12 776.33 390.75 776.33 387.87 762.98 380.24 762.98 383.12"/><polygon class="cls-71" points="746.86 373.9 757.77 380.14 757.77 377.26 746.86 371.02 746.86 373.9"/><polygon class="cls-71" points="836.46 425.12 878.74 448.93 878.74 446.05 836.46 422.24 836.46 425.12"/><polygon class="cls-71" points="823.23 417.64 834.13 423.8 834.13 420.93 823.23 414.76 823.23 417.64"/><polygon class="cls-71" points="807.99 389.22 865.03 421.7 865.03 418.82 807.99 386.34 807.99 389.22"/><polygon class="cls-71" points="786.96 377.25 801.7 385.64 801.7 382.76 786.96 374.37 786.96 377.25"/><polygon class="cls-71" points="756.38 359.83 783.14 375.07 783.14 372.34 783.39 372.34 756.38 356.95 756.38 359.83"/><polygon class="cls-71" points="787.39 384.17 824.21 405.25 824.21 402.37 787.39 381.3 787.39 384.17"/><polygon class="cls-71" points="742.52 358.49 781.89 381.03 781.89 378.15 742.52 355.61 742.52 358.49"/><polygon class="cls-71" points="837.56 412.78 878.74 435.99 878.74 433.11 837.56 409.91 837.56 412.78"/><polygon class="cls-71" points="828.99 407.95 835.5 411.62 835.5 408.75 828.99 405.07 828.99 407.95"/><polygon class="cls-71" points="861.56 432.69 878.74 442.48 878.74 439.6 861.56 429.82 861.56 432.69"/><polygon class="cls-71" points="845.73 423.68 857.08 430.14 857.08 427.27 845.73 420.81 845.73 423.68"/><polygon class="cls-71" points="811.62 404.26 842.94 422.09 842.94 419.22 811.62 401.39 811.62 404.26"/><polygon class="cls-71" points="775.12 383.48 790.19 392.06 790.19 389.18 775.12 380.6 775.12 383.48"/><polygon class="cls-71" points="751.53 370.05 764.35 377.35 764.35 374.47 751.53 367.17 751.53 370.05"/><polygon class="cls-71" points="766.31 378.46 772.77 382.14 772.77 379.26 766.31 375.58 766.31 378.46"/><polygon class="cls-71" points="793.71 394.06 809.13 402.84 809.13 399.97 793.71 391.19 793.71 394.06"/><path class="cls-71" d="M1523.86,536.23h0Z" transform="translate(-787.03 -226.53)"/><path class="cls-70" d="M1700.27,712.52c0,5.59-1.8,10.05-4.82,12.91a12.67,12.67,0,0,1-4.4,2.79c-3.94,1.46-8.79,1.06-13.69-1.73l-26.78-15.21L1506,629.15c-8.23-4.68-14-14.71-14.1-24.33l-1.05-131.16a20,20,0,0,1,.47-4.62,14.52,14.52,0,0,1,6.3-9.84,12.83,12.83,0,0,1,5.24-2h0a17.26,17.26,0,0,1,10.86,2.43l46.53,26.44a17.37,17.37,0,0,1,6.51,6.42l.13.22c.12.22.25.43.37.68a17.76,17.76,0,0,1,2,7.95c.06,9.65,5.9,19.67,14.12,24.33l49.26,28,33.51,19,17.38,9.87a31.54,31.54,0,0,1,16,27.15Z" transform="translate(-787.03 -226.53)"/><path class="cls-72" d="M1697.75,713.79a19.26,19.26,0,0,1-2,9.15,13.61,13.61,0,0,1-4.68,5.28c-4.32,2.83-10.18,2.95-16.2-.46l-33.52-19.06L1503,630.15a29.47,29.47,0,0,1-13.63-24.09l-1-131.16a24.68,24.68,0,0,1,.28-3.84c1-6,4.4-10.21,9-11.86a14.35,14.35,0,0,1,7.91-.5h0a19.28,19.28,0,0,1,5.68,2.24l46.52,26.41a15.18,15.18,0,0,1,2.37,1.64,14.42,14.42,0,0,1,1.33,1.18l0,0a17.78,17.78,0,0,1,5.25,12.44c0,9.65,5.89,19.68,14.12,24.33l51.77,29.42,33.51,19,14.87,8.44a31.5,31.5,0,0,1,16,27.13Z" transform="translate(-787.03 -226.53)"/><path class="cls-19" d="M1599.66,594.8V578.26c0-7.14-5.55-15.83-12.62-19.76-3.82-2.12-7.57-2.55-10.35-1.15-2.62,1.34-4.07,4.07-4.07,7.71v15.1l-9.37-5.07-.93,45.44c-.18,9.81,9.69,23.18,22.06,29.88s22.59,4.22,22.77-5.58l.94-45.45Zm-10.85,32.76a.67.67,0,0,1-1,.65l-7.07-4.18a.65.65,0,0,1-.32-.68l1.73-10.28a.86.86,0,0,0-.14-.5,7.8,7.8,0,0,1-1.74-4.43c0-2.46,2-3.29,4.4-1.88s4.4,4.51,4.4,6.92a2.4,2.4,0,0,1-1.3,2.38.69.69,0,0,0-.5.72Zm5.58-35.61L1577.85,583v-16.9c0-1.91.65-3.28,1.84-3.89s3.39-.36,5.55.83c5,2.77,9.15,9.3,9.15,14.2Z" transform="translate(-787.03 -226.53)"/><path class="cls-69" d="M1622.89,767.12s11.31-.85,21.7-11.41c15.34-15.59-30.4-23-30.4-23l-10.28,19.75Z" transform="translate(-787.03 -226.53)"/><path class="cls-70" d="M1533.35,555.22c-8.22-4.67-14-14.69-14.13-24.34h0a17.7,17.7,0,0,0-9-15.28l-46.51-26.43c-11.73-6.66-23,.23-22.9,14l1,131.16c.08,9.64,5.89,19.66,14.11,24.34L1627.37,756c11.72,6.67,23-.23,22.89-14l-.8-102.76a31.49,31.49,0,0,0-15.94-27.14Z" transform="translate(-787.03 -226.53)"/><path class="cls-47" d="M1645.56,752c2.39-4,2-4,2.08-6.61a21,21,0,0,0,.11-2.11l-.8-102.77A31.5,31.5,0,0,0,1631,613.38l-100.17-56.9c-8.23-4.67-14-14.69-14.13-24.34a17.72,17.72,0,0,0-9-15.28l-46.51-26.42c-11.73-6.66-23,.23-22.9,14l1,131.16c.08,9.64,5.89,19.66,14.11,24.33l152.85,86.82-2.3,4.42,17.81,9.91s5.05,4.74,17.46-3C1642.07,755.51,1644.3,754,1645.56,752Z" transform="translate(-787.03 -226.53)"/><path class="cls-36" d="M1618.13,567.44l-156.19-86.59c-3.15-1.74-11.39-.06-11.39,7l4.38,179.18a4.72,4.72,0,0,0,2.43,4.13l153.22,90.55c3.15,1.74,10-.76,10-8.1V571.57A4.72,4.72,0,0,0,1618.13,567.44Z" transform="translate(-787.03 -226.53)"/><path class="cls-37" d="M1615,569.87,1457.59,482.6a4.76,4.76,0,0,0-7.07,4.16V669.9a4.76,4.76,0,0,0,2.46,4.16l157.42,87.26a4.77,4.77,0,0,0,7.08-4.16V574A4.77,4.77,0,0,0,1615,569.87Z" transform="translate(-787.03 -226.53)"/><polygon class="cls-71" points="716.36 459.05 683.97 440.64 683.97 448.29 716.36 466.69 716.36 459.05"/><polygon class="cls-71" points="791.74 502.57 759.35 484.16 759.35 491.82 791.74 510.22 791.74 502.57"/><polygon class="cls-71" points="753.77 480.5 721.38 462.1 721.38 469.75 753.77 488.15 753.77 480.5"/><polygon class="cls-71" points="754.66 418.93 766.91 425.93 766.91 423.06 754.66 416.05 754.66 418.93"/><polygon class="cls-71" points="737.29 408.99 752.35 417.61 752.35 414.73 737.29 406.12 737.29 408.99"/><polygon class="cls-71" points="721.21 399.79 732.66 406.34 732.66 403.47 721.21 396.92 721.21 399.79"/><polygon class="cls-71" points="695.22 384.92 717.69 397.78 717.69 394.9 695.22 382.05 695.22 384.92"/><polygon class="cls-71" points="770.4 427.91 815.19 453.14 815.19 450.26 770.4 425.03 770.4 427.91"/><polygon class="cls-71" points="701.16 394.8 712.35 401.19 712.35 398.32 701.16 391.93 701.16 394.8"/><polygon class="cls-71" points="683.67 384.8 695.53 391.58 695.53 388.7 683.67 381.92 683.67 384.8"/><polygon class="cls-71" points="772.91 435.81 815.19 459.63 815.19 456.75 772.91 432.94 772.91 435.81"/><polygon class="cls-71" points="759.68 428.33 770.59 434.5 770.59 431.62 759.68 425.46 759.68 428.33"/><polygon class="cls-71" points="678.84 369.12 712.78 388.52 712.78 385.64 678.84 366.24 678.84 369.12"/><polygon class="cls-71" points="772.91 422.89 815.19 446.71 815.19 443.82 772.91 420.02 772.91 422.89"/><polygon class="cls-71" points="759.68 415.41 770.59 421.58 770.59 418.7 759.68 412.54 759.68 415.41"/><polygon class="cls-71" points="723.84 381.95 760.66 403.02 760.66 400.15 723.84 379.07 723.84 381.95"/><polygon class="cls-71" points="798.01 430.47 815.19 440.25 815.19 437.37 798.01 427.59 798.01 430.47"/><polygon class="cls-71" points="779.53 419.94 793.53 427.91 793.53 425.04 779.53 417.06 779.53 419.94"/><polygon class="cls-71" points="754.52 405.7 775.62 417.72 775.62 414.84 754.52 402.82 754.52 405.7"/><polygon class="cls-71" points="731.38 392.53 751.62 404.06 751.62 401.18 731.38 389.65 731.38 392.53"/><polygon class="cls-71" points="707.96 379.2 727.62 390.39 727.62 387.51 707.96 376.32 707.96 379.2"/><polygon class="cls-71" points="687.99 367.82 704.35 377.14 704.35 374.26 687.99 364.95 687.99 367.82"/><polygon class="cls-71" points="737.29 448.44 766.91 465.38 766.91 462.5 737.29 445.56 737.29 448.44"/><polygon class="cls-71" points="695.22 424.37 732.66 445.79 732.66 442.92 695.22 421.5 695.22 424.37"/><polygon class="cls-71" points="678.75 414.96 691.16 422.06 691.16 419.18 678.75 412.08 678.75 414.96"/><polygon class="cls-71" points="770.4 467.36 801.68 484.98 801.68 482.1 770.4 464.48 770.4 467.36"/><polygon class="cls-71" points="716.68 443.12 744.65 459.11 744.65 456.23 716.68 440.25 716.68 443.12"/><polygon class="cls-71" points="746.9 460.4 757.23 466.3 757.23 463.42 746.9 457.52 746.9 460.4"/><polygon class="cls-71" points="700.51 433.88 712.35 440.64 712.35 437.76 700.51 431 700.51 433.88"/><polygon class="cls-71" points="684.75 424.87 698.16 432.53 698.16 429.66 684.75 421.99 684.75 424.87"/><polygon class="cls-71" points="759.68 467.78 770.59 473.95 770.59 471.07 759.68 464.91 759.68 467.78"/><polygon class="cls-71" points="699.43 420.34 712.78 427.97 712.78 425.09 699.43 417.46 699.43 420.34"/><polygon class="cls-71" points="683.31 411.12 694.23 417.36 694.23 414.48 683.31 408.24 683.31 411.12"/><polygon class="cls-71" points="772.91 462.34 815.19 486.15 815.19 483.27 772.91 459.46 772.91 462.34"/><polygon class="cls-71" points="759.68 454.86 770.59 461.02 770.59 458.15 759.68 451.98 759.68 454.86"/><polygon class="cls-71" points="744.44 426.44 801.48 458.92 801.48 456.04 744.44 423.57 744.44 426.44"/><polygon class="cls-71" points="723.41 414.47 738.15 422.86 738.15 419.99 723.41 411.59 723.41 414.47"/><polygon class="cls-71" points="692.83 397.05 719.6 412.3 719.6 409.56 719.85 409.56 692.83 394.18 692.83 397.05"/><polygon class="cls-71" points="723.84 421.39 760.66 442.47 760.66 439.59 723.84 418.52 723.84 421.39"/><polygon class="cls-71" points="678.97 395.71 718.35 418.25 718.35 415.37 678.97 392.83 678.97 395.71"/><polygon class="cls-71" points="774.01 450 815.19 473.21 815.19 470.33 774.01 447.13 774.01 450"/><polygon class="cls-71" points="765.44 445.17 771.96 448.85 771.96 445.97 765.44 442.3 765.44 445.17"/><polygon class="cls-71" points="798.01 469.92 815.19 479.7 815.19 476.82 798.01 467.04 798.01 469.92"/><polygon class="cls-71" points="782.19 460.9 793.53 467.36 793.53 464.49 782.19 458.03 782.19 460.9"/><polygon class="cls-71" points="748.08 441.49 779.4 459.31 779.4 456.44 748.08 438.61 748.08 441.49"/><polygon class="cls-71" points="711.57 420.7 726.64 429.28 726.64 426.41 711.57 417.82 711.57 420.7"/><polygon class="cls-71" points="687.99 407.27 700.8 414.57 700.8 411.69 687.99 404.39 687.99 407.27"/><polygon class="cls-71" points="702.76 415.69 709.22 419.36 709.22 416.49 702.76 412.81 702.76 415.69"/><polygon class="cls-71" points="730.17 431.29 745.58 440.06 745.58 437.19 730.17 428.41 730.17 431.29"/><path class="cls-71" d="M1460.31,573.45h0Z" transform="translate(-787.03 -226.53)"/><path class="cls-70" d="M1636.72,749.74c0,5.59-1.8,10.06-4.81,12.91a12.57,12.57,0,0,1-4.41,2.79c-3.94,1.46-8.78,1.06-13.68-1.73L1587,748.5l-144.6-82.12c-8.22-4.69-14-14.71-14.09-24.34l-1.06-131.15a20.08,20.08,0,0,1,.47-4.63,14.58,14.58,0,0,1,6.3-9.84,12.82,12.82,0,0,1,5.25-2h0a17.27,17.27,0,0,1,10.86,2.43l46.53,26.44a17.59,17.59,0,0,1,6.51,6.42c0,.07.09.16.12.22.13.22.25.43.38.68a17.92,17.92,0,0,1,2,8c.07,9.65,5.9,19.67,14.12,24.33l49.26,28,33.52,19,17.38,9.87a31.54,31.54,0,0,1,16,27.16Z" transform="translate(-787.03 -226.53)"/><path class="cls-73" d="M1634.2,751a19.45,19.45,0,0,1-2,9.16,13.67,13.67,0,0,1-4.69,5.27c-4.31,2.83-10.18,2.95-16.2-.46l-33.52-19.05-138.33-78.56a29.49,29.49,0,0,1-13.62-24.09l-1.06-131.15a26,26,0,0,1,.28-3.85c1-6,4.4-10.21,9-11.86a14.38,14.38,0,0,1,7.92-.5h0a19.5,19.5,0,0,1,5.67,2.24l46.53,26.41a15.81,15.81,0,0,1,2.36,1.64,12.21,12.21,0,0,1,1.33,1.19l0,0a18,18,0,0,1,2.8,3.6,17.79,17.79,0,0,1,2.45,8.84c.06,9.65,5.9,19.68,14.12,24.33l51.77,29.43,33.52,19,14.87,8.44a31.54,31.54,0,0,1,16,27.13Z" transform="translate(-787.03 -226.53)"/><path class="cls-19" d="M1536.11,632V615.48c0-7.14-5.55-15.83-12.62-19.75-3.82-2.13-7.56-2.56-10.34-1.16s-4.07,4.08-4.07,7.72v15.1l-9.37-5.08-.94,45.44c-.18,9.81,9.7,23.18,22.06,29.88s22.6,4.22,22.78-5.58l.93-45.45Zm-10.85,32.76a.67.67,0,0,1-1,.65l-7.06-4.18a.64.64,0,0,1-.33-.68l1.73-10.27a.8.8,0,0,0-.14-.51,7.79,7.79,0,0,1-1.73-4.43c0-2.46,2-3.28,4.4-1.88s4.39,4.51,4.39,6.92a2.39,2.39,0,0,1-1.29,2.38.7.7,0,0,0-.51.72Zm5.59-35.61-16.54-8.94v-16.9c0-1.91.64-3.28,1.83-3.89s3.39-.36,5.55.83c5,2.77,9.16,9.3,9.16,14.2Z" transform="translate(-787.03 -226.53)"/><path class="cls-69" d="M1557.75,802.86s11.31-.85,21.7-11.41c15.34-15.6-30.4-23-30.4-23l-10.28,19.76Z" transform="translate(-787.03 -226.53)"/><path class="cls-70" d="M1468.21,591c-8.22-4.67-14-14.69-14.12-24.34h0a17.73,17.73,0,0,0-9-15.28l-46.51-26.42c-11.73-6.66-23,.23-22.9,14l1,131.16c.07,9.64,5.88,19.66,14.1,24.33l171.38,97.35c11.72,6.66,23-.23,22.89-14l-.8-102.76a31.48,31.48,0,0,0-15.94-27.14Z" transform="translate(-787.03 -226.53)"/><path class="cls-47" d="M1580.42,787.73c2.39-4,1.95-4,2.08-6.6a21.19,21.19,0,0,0,.11-2.12l-.8-102.76a31.51,31.51,0,0,0-15.94-27.14L1465.7,592.22c-8.23-4.67-14-14.69-14.12-24.34a17.77,17.77,0,0,0-9-15.29l-46.51-26.42c-11.73-6.66-23,.23-22.9,14l1,131.16c.08,9.64,5.89,19.66,14.11,24.34l152.85,86.82-2.29,4.41,17.81,9.92s5,4.73,17.45-3C1576.93,791.25,1579.17,789.72,1580.42,787.73Z" transform="translate(-787.03 -226.53)"/><path class="cls-36" d="M1553,603.18,1396.8,516.59c-3.15-1.75-11.38-.06-11.38,7l4.37,179.18a4.74,4.74,0,0,0,2.43,4.13l153.22,90.54c3.15,1.75,10-.76,10-8.1V607.31A4.71,4.71,0,0,0,1553,603.18Z" transform="translate(-787.03 -226.53)"/><path class="cls-37" d="M1549.89,605.61l-157.43-87.28a4.77,4.77,0,0,0-7.08,4.17V705.63a4.78,4.78,0,0,0,2.46,4.17l157.42,87.26a4.77,4.77,0,0,0,7.08-4.17V609.76A4.73,4.73,0,0,0,1549.89,605.61Z" transform="translate(-787.03 -226.53)"/><polygon class="cls-71" points="651.22 494.78 618.83 476.38 618.83 484.03 651.22 502.43 651.22 494.78"/><polygon class="cls-71" points="726.6 538.3 694.22 519.9 694.22 527.55 726.6 545.95 726.6 538.3"/><polygon class="cls-71" points="688.63 516.24 656.24 497.84 656.24 505.49 688.63 523.89 688.63 516.24"/><polygon class="cls-71" points="689.52 454.67 701.77 461.67 701.77 458.79 689.52 451.79 689.52 454.67"/><polygon class="cls-71" points="672.15 444.73 687.21 453.34 687.21 450.47 672.15 441.85 672.15 444.73"/><polygon class="cls-71" points="656.07 435.53 667.52 442.08 667.52 439.2 656.07 432.66 656.07 435.53"/><polygon class="cls-71" points="630.08 420.66 652.55 433.51 652.55 430.64 630.08 417.78 630.08 420.66"/><polygon class="cls-71" points="705.26 463.64 750.05 488.88 750.05 486 705.26 460.76 705.26 463.64"/><polygon class="cls-71" points="636.03 430.54 647.21 436.93 647.21 434.06 636.03 427.66 636.03 430.54"/><polygon class="cls-71" points="618.53 420.54 630.39 427.31 630.39 424.44 618.53 417.66 618.53 420.54"/><polygon class="cls-71" points="707.77 471.55 750.05 495.36 750.05 492.49 707.77 468.68 707.77 471.55"/><polygon class="cls-71" points="694.54 464.07 705.45 470.23 705.45 467.36 694.54 461.2 694.54 464.07"/><polygon class="cls-71" points="613.7 404.85 647.64 424.25 647.64 421.38 613.7 401.97 613.7 404.85"/><polygon class="cls-71" points="707.77 458.63 750.05 482.44 750.05 479.56 707.77 455.75 707.77 458.63"/><polygon class="cls-71" points="694.54 451.15 705.45 457.31 705.45 454.43 694.54 448.27 694.54 451.15"/><polygon class="cls-71" points="658.7 417.68 695.52 438.76 695.52 435.88 658.7 414.8 658.7 417.68"/><polygon class="cls-71" points="732.87 466.2 750.05 475.98 750.05 473.11 732.87 463.33 732.87 466.2"/><polygon class="cls-71" points="714.39 455.68 728.39 463.65 728.39 460.78 714.39 452.8 714.39 455.68"/><polygon class="cls-71" points="689.38 441.44 710.49 453.46 710.49 450.58 689.38 438.56 689.38 441.44"/><polygon class="cls-71" points="666.25 428.27 686.48 439.79 686.48 436.92 666.25 425.39 666.25 428.27"/><polygon class="cls-71" points="642.82 414.93 662.48 426.13 662.48 423.25 642.82 412.05 642.82 414.93"/><polygon class="cls-71" points="622.85 403.56 639.21 412.88 639.21 410 622.85 400.68 622.85 403.56"/><polygon class="cls-71" points="672.15 484.17 701.77 501.12 701.77 498.24 672.15 481.3 672.15 484.17"/><polygon class="cls-71" points="630.08 460.11 667.52 481.53 667.52 478.65 630.08 457.23 630.08 460.11"/><polygon class="cls-71" points="613.62 450.7 626.02 457.8 626.02 454.92 613.62 447.82 613.62 450.7"/><polygon class="cls-71" points="705.26 503.09 736.54 520.72 736.54 517.84 705.26 500.21 705.26 503.09"/><polygon class="cls-71" points="651.54 478.86 679.51 494.85 679.51 491.97 651.54 475.98 651.54 478.86"/><polygon class="cls-71" points="681.76 496.13 692.09 502.04 692.09 499.16 681.76 493.26 681.76 496.13"/><polygon class="cls-71" points="635.37 469.62 647.21 476.38 647.21 473.5 635.37 466.73 635.37 469.62"/><polygon class="cls-71" points="619.62 460.6 633.02 468.27 633.02 465.39 619.62 457.73 619.62 460.6"/><polygon class="cls-71" points="694.54 503.52 705.45 509.68 705.45 506.81 694.54 500.64 694.54 503.52"/><polygon class="cls-71" points="634.29 456.07 647.64 463.7 647.64 460.83 634.29 453.19 634.29 456.07"/><polygon class="cls-71" points="618.17 446.85 629.09 453.1 629.09 450.22 618.17 443.98 618.17 446.85"/><polygon class="cls-71" points="707.77 498.08 750.05 521.89 750.05 519.01 707.77 495.2 707.77 498.08"/><polygon class="cls-71" points="694.54 490.6 705.45 496.76 705.45 493.88 694.54 487.72 694.54 490.6"/><polygon class="cls-71" points="679.3 462.18 736.34 494.66 736.34 491.78 679.3 459.3 679.3 462.18"/><polygon class="cls-71" points="658.27 450.2 673.01 458.6 673.01 455.72 658.27 447.33 658.27 450.2"/><polygon class="cls-71" points="627.69 432.79 654.46 448.03 654.46 445.3 654.71 445.3 627.69 429.91 627.69 432.79"/><polygon class="cls-71" points="658.7 457.13 695.52 478.21 695.52 475.33 658.7 454.25 658.7 457.13"/><polygon class="cls-71" points="613.83 431.45 653.21 453.98 653.21 451.11 613.83 428.57 613.83 431.45"/><polygon class="cls-71" points="708.88 485.74 750.05 508.95 750.05 506.07 708.88 482.86 708.88 485.74"/><polygon class="cls-71" points="700.3 480.91 706.82 484.58 706.82 481.7 700.3 478.03 700.3 480.91"/><polygon class="cls-71" points="732.87 505.65 750.05 515.43 750.05 512.55 732.87 502.77 732.87 505.65"/><polygon class="cls-71" points="717.05 496.64 728.39 503.1 728.39 500.22 717.05 493.76 717.05 496.64"/><polygon class="cls-71" points="682.93 477.22 714.26 495.05 714.26 492.18 682.93 474.34 682.93 477.22"/><polygon class="cls-71" points="646.43 456.43 661.5 465.01 661.5 462.14 646.43 453.56 646.43 456.43"/><polygon class="cls-71" points="622.85 443 635.66 450.3 635.66 447.43 622.85 440.13 622.85 443"/><polygon class="cls-71" points="637.63 451.42 644.08 455.1 644.08 452.22 637.63 448.54 637.63 451.42"/><polygon class="cls-71" points="665.03 467.02 680.44 475.8 680.44 472.92 665.03 464.14 665.03 467.02"/><path class="cls-71" d="M1395.17,609.19h0Z" transform="translate(-787.03 -226.53)"/><path class="cls-70" d="M1571.58,785.48c0,5.58-1.8,10-4.81,12.91a12.62,12.62,0,0,1-4.41,2.79c-3.94,1.46-8.78,1.06-13.68-1.74l-26.79-15.2-144.6-82.13c-8.22-4.68-14-14.71-14.09-24.33l-1-131.16a20.15,20.15,0,0,1,.46-4.63,14.63,14.63,0,0,1,6.3-9.84,12.81,12.81,0,0,1,5.25-1.95h0a17.32,17.32,0,0,1,10.86,2.42l46.53,26.45a17.44,17.44,0,0,1,6.51,6.42l.12.22c.13.21.25.43.38.68a18,18,0,0,1,2,8c.06,9.65,5.89,19.67,14.11,24.33l49.26,28,33.52,19,17.38,9.87a31.53,31.53,0,0,1,16,27.15Z" transform="translate(-787.03 -226.53)"/><path class="cls-74" d="M1569.06,786.75a19.38,19.38,0,0,1-2,9.15,13.56,13.56,0,0,1-4.69,5.28c-4.31,2.83-10.18,3-16.2-.46l-33.52-19.06L1374.31,703.1c-8-4.77-13.56-14.61-13.62-24.08l-1.06-131.16a26.1,26.1,0,0,1,.28-3.85c1-6,4.4-10.21,9-11.86a14.48,14.48,0,0,1,7.92-.49h0a19.38,19.38,0,0,1,5.68,2.24l46.52,26.41a15.1,15.1,0,0,1,2.36,1.64,12.09,12.09,0,0,1,1.33,1.18l0,0a19,19,0,0,1,2.79,3.6,17.8,17.8,0,0,1,2.45,8.85c.06,9.65,5.9,19.67,14.12,24.33l51.77,29.42,33.52,19,14.87,8.45a31.53,31.53,0,0,1,16,27.13Z" transform="translate(-787.03 -226.53)"/><path class="cls-19" d="M1471,667.76V651.21c0-7.13-5.55-15.82-12.62-19.75-3.82-2.12-7.56-2.56-10.34-1.15-2.63,1.33-4.07,4.07-4.07,7.71v15.1l-9.37-5.08-.94,45.45c-.18,9.8,9.7,23.18,22.06,29.88s22.6,4.22,22.78-5.59l.93-45.45Zm-10.85,32.76a.67.67,0,0,1-1,.65l-7.06-4.18a.68.68,0,0,1-.33-.69l1.73-10.27a.79.79,0,0,0-.14-.5,7.79,7.79,0,0,1-1.73-4.44c0-2.45,2-3.28,4.4-1.87s4.39,4.5,4.39,6.92a2.4,2.4,0,0,1-1.29,2.38.7.7,0,0,0-.51.72Zm5.59-35.61L1449.17,656v-16.9c0-1.91.64-3.28,1.83-3.9s3.39-.35,5.55.83c5,2.78,9.16,9.3,9.16,14.2Z" transform="translate(-787.03 -226.53)"/><path class="cls-75" d="M1737.61,399.11c-1,22-13.44,43.8-36.27,63.16-5.27,4.56-40.39,28.42-63.09,36.27-41.1,14.27-88.17,24.3-137.76,24.3-65.53,0-126.56-14.46-171.84-40.83-34.47-20-55.89-44.7-61.67-70.55,6.81-26.24,28.17-61.61,66.5-81.74,93.31-49.2,245-49.07,337.89.06C1708.16,349.34,1730.15,373.77,1737.61,399.11Z" transform="translate(-787.03 -226.53)"/><path class="cls-36" d="M1333.49,294.08c93.29-49.17,245-49.07,337.88,0,54.84,29.1,77.11,68.92,66.82,106.74-6.94-25.95-29.21-51.06-66.82-71-92.88-49.16-244.59-49.27-337.88-.1-38.35,20.17-59.7,55.54-66.53,81.8C1256.46,373.46,1277.91,323.28,1333.49,294.08Z" transform="translate(-787.03 -226.53)"/><path class="cls-36" d="M1763.25,397.32l.09,37.28c0,21.2-7,45.69-13.91,56.88-7.94,12.84-17.93,24.13-42.37,42.58l-5.55-39.56S1756.89,429.67,1763.25,397.32Z" transform="translate(-787.03 -226.53)"/><path class="cls-36" d="M1668.26,501.4c-30.9,12.14-42,15.8-53.32,19.11a392.28,392.28,0,0,1-67.39,13.2c-39.92,4.07-80.52,3.33-120.1-3.76-38.69-6.92-77.37-19.21-111.46-39.82-50.65-30.64-76.08-88.68-76.08-88.68l.13,28.1c.11,40.23,25.44,80.4,76.07,111.06A288.9,288.9,0,0,0,1377.16,568a398.25,398.25,0,0,0,118.91,18.7c41.7,0,118.9-5.24,172.19-33.21Z" transform="translate(-787.03 -226.53)"/><polygon class="cls-36" points="881.28 326.92 988.68 385.49 988.57 349.69 881.28 291.2 881.28 326.92"/><path class="cls-76" d="M1705.36,496.51c47.78-27.54,57.35-69.42,57.87-98.76v-1.88c0-.28,0-.57,0-.85a70.37,70.37,0,0,0-.66-10,23.54,23.54,0,0,0-.52-3.59c-.37-2.3-.89-4.66-1.46-7-.19-.75-1.65-6-2.31-7.87-.29-.9-.66-1.79-.94-2.69-.67-1.7-1.32-3.35-2-5-.47-1-.94-2.07-1.42-3.11-.57-1.23-1.23-2.5-1.89-3.72-1-1.89-4.19-7.41-4.76-8.26a46.47,46.47,0,0,0-2.73-4.11c0-.13-10.53-13.34-11.42-14.38-1.83-2-3.72-4-5.75-5.94s-4.29-4.25-6.65-6.28a191.54,191.54,0,0,0-20.56-15.7c-2.55-1.74-5.24-3.44-8-5.14-1.56-.94-3.12-1.84-4.67-2.78-101.83-59.14-267.89-59.14-370.36,0-1.66.94-3.26,1.89-4.87,2.83-3.06,1.89-6,3.82-9,5.75-1.47,1-2.88,2-4.3,3-2.83,2-5.51,4.06-8.16,6.09a176.2,176.2,0,0,0-14.43,12.64c-2.17,2.17-4.34,4.38-6.32,6.6s-3.87,4.39-5.71,6.6a118.5,118.5,0,0,0-9.57,13.78c-10.41,17.16-15.42,35.17-14.85,53.15,1.13,37.77,26.36,75.31,75.92,104.13,89.81,52.16,216.35,66.12,352.5,13.87l115,62.43,12.27-35.09Zm-67.11,2c-41.08,14.29-88.15,24.29-137.76,24.29-65.51,0-126.54-14.48-171.86-40.84-39.9-23.16-62.4-52.64-63.25-82.91q-.63-19.68,11.36-39.53a99.07,99.07,0,0,1,7.32-10.47c1.56-1.93,3.21-3.82,4.86-5.66s3.58-3.77,5.27-5.47a154.41,154.41,0,0,1,12.27-10.8c2.27-1.79,4.67-3.58,7.12-5.28l3.64-2.55c2.68-1.79,5.47-3.58,8.06-5.19,1.47-.84,3-1.74,4.48-2.63,45.75-26.37,107.11-40.94,172.75-40.94s126.73,14.52,171.77,40.7l2,1.22c.76.43,1.51.85,2.6,1.56,2.41,1.46,4.72,2.92,7.08,4.53a160.3,160.3,0,0,1,18,13.76c1.83,1.56,3.53,3.22,5.56,5.24,1.51,1.51,3,3.07,4.44,4.63,1.73,2.07,8.25,10.32,10,12.58.57.86,1.13,1.66,1.6,2.51.67,1,3,5,3.82,6.55.52,1,1,1.94,1.37,2.7s.8,1.69,1.13,2.44c.52,1.28,1,2.55,1.56,3.87l.66,1.89c.47,1.46,1.51,5.09,1.7,5.8.42,1.7.8,3.39,1.08,5.1.1.37.19,1.12.28,1.5a6.1,6.1,0,0,0,.14,1.27,48.51,48.51,0,0,1,.43,6.61v2.26c-.38,22.64-13,45.08-36.41,65C1696.07,466.8,1660.93,490.66,1638.25,498.54Z" transform="translate(-787.03 -226.53)"/><g class="cls-13"><path class="cls-77" d="M1775,550.83a83.06,83.06,0,0,0-20.36,42.46,55.24,55.24,0,0,0-.67,8.32c0,11.72,4.18,20,10.85,23.86L1961.33,739.9c-6.69-3.9-10.82-12.15-10.85-23.89-.06-16.66,7.41-33.53,17.5-46.49a71.68,71.68,0,0,1,18-16.75c6.5-4.1,14.87-7.34,22.65-5.63a18.3,18.3,0,0,1,5.45,2.07s-196.92-114.67-197.14-114.77C1802,526.36,1784.47,540.47,1775,550.83Z" transform="translate(-787.03 -226.53)"/><path class="cls-45" d="M1987.56,651.78c-20.62,11.91-37.15,40.65-37.08,64.23s16.7,33.17,37.33,21.26,37.15-40.65,37.08-64.21S2008.08,639.94,1987.56,651.78Z" transform="translate(-787.03 -226.53)"/></g><path class="cls-78" d="M948.29,1212.6c-13.93-1.36-19.9,2.42-20.49,5.61-1.49,8.15,5.74,13.88,17.44,13.76,11.15-.1,27.33-1.4,40.31-8.63,5.1-2.85-5.57-10.57-9.08-10.42A207.33,207.33,0,0,1,948.29,1212.6Z" transform="translate(-787.03 -226.53)"/><path class="cls-78" d="M940.22,1212.47l11.36,1.9c-3.32-9.19,1.41-10.45,1.41-10.45l-4.73-8Z" transform="translate(-787.03 -226.53)"/><path class="cls-78" d="M989.13,1182.08c-.52,6.33-5.88,18.84-12.57,32.06-3,6,5.32,13.11,11.11,7.88s10-39.19,10-39.19C993.34,1178.35,989.13,1182.08,989.13,1182.08Z" transform="translate(-787.03 -226.53)"/><path class="cls-78" d="M993.35,1161.54c-2,3.77-3.27,1.17-4.51,1.78s-4.32,6-4.42,7.28c-.12,1.51,4.7,6,4.71,12.59,0,1.2,8.42.55,8.42.55s3.24-9.65,3.3-12.27,3-5.7,1.52-5.56-3.61,2.95-4.74,4.56-2.48-1.28-2.37-5.08,4.5-10.7,2.88-11.32C997.1,1153.68,994.92,1158.53,993.35,1161.54Z" transform="translate(-787.03 -226.53)"/><path class="cls-78" d="M922.75,1325.11s7.48,18.83,1.5,32.2c-9.71,21.73-6.39,68.51-7.19,74s9.07,11.39,11.48.41,13.94-59.26,19.05-70.84,3.13-33.22,3.13-33.22Z" transform="translate(-787.03 -226.53)"/><path class="cls-78" d="M943.37,1339.83c4.66,9.59,9.54,38,7.12,55.71s3.13,52.44,3.26,58,9.93,10.43,10.45-.85,5.88-56.12,8.94-68.55S971,1334,971,1334,938.71,1330.24,943.37,1339.83Z" transform="translate(-787.03 -226.53)"/><path class="cls-79" d="M971.35,1467.53c-6.66-4-5.89-15.91-5.89-15.91-8.59.34-12.56-1.31-12.56-1.31,0,3.61-4.13,9.8-4.63,15.24-.44,4.86,3.58,7.74,3.58,12h3.54l-1.78-9.92c5.79,0,13.16,10,20.37,10,7.56-.09,9.7-2.39,10.27-4.77S978,1471.56,971.35,1467.53Z" transform="translate(-787.03 -226.53)"/><path class="cls-79" d="M935.3,1448.15c-6.66-4-5.88-15.91-5.88-15.91-8.6.33-12.57-1.32-12.57-1.32,0,3.62-4.13,9.81-4.63,15.25-.44,4.85,3.59,7.73,3.59,12h3.53l-1.77-9.91c5.78,0,13.15,10,20.36,9.94,7.56-.08,9.7-2.38,10.28-4.76S942,1452.17,935.3,1448.15Z" transform="translate(-787.03 -226.53)"/><path class="cls-80" d="M928.43,1263.41a80,80,0,0,1-7.89,17.59c-5.74,9.67-11.1,24-9.14,35s-2.22,54-6.2,76.12c0,0,19.64,3.8,27.06,9,26,18.32,54.16,1.2,54.16,1.2,0-47-19.62-107.9-23.62-134.84Z" transform="translate(-787.03 -226.53)"/><path class="cls-81" d="M968.69,1237.57c-1.7-4.33-2.63-8.7-4.48-15.63s-13.24-11.27-24-9.47c-11.79,2-13.77,18.83-13.8,29.47,0,9.86,1,21-4.67,36.94,12.48,11.16,33,16.51,45.8,9.62-1.55-10.71-6.87-28.79-4.51-36.91C963.44,1250.23,972,1246,968.69,1237.57Z" transform="translate(-787.03 -226.53)"/><path class="cls-78" d="M960.5,1182.94a19.52,19.52,0,0,0-.11-5.08c-1.27-10.67-16.43-.8-21.66,7.87s16.23,24.06,20.63,16.47c5.17-8.92,2.75-15.68,2.47-16.07C960.79,1184.69,960.25,1184.17,960.5,1182.94Z" transform="translate(-787.03 -226.53)"/><path class="cls-15" d="M945.28,1166.65c-11.55,3-15.31-3.82-21.45,9.73-5.06,11.16-13.86.57-19.08,13.5s.63,9.16-7,21.29c-6.47,10.34.5,20,3.2,26.74s7.57,10.06,1.64,19.78c0,0,24.14-.32,22.22-16.32s13.34-8.35,12-19.66c-1.08-9.06,10.55-5.32,10.22-11s10.52-8.25,3.24-18.57c-4.31-6.12,12.25-10,11.46-16.6C961.21,1171.08,956.81,1163.65,945.28,1166.65Z" transform="translate(-787.03 -226.53)"/><path class="cls-78" d="M948.62,1186.61c-.83,1.9-.11,4.71,1.08,6.43s2.24,1.13,2,.24c-.25-1.13,1-3.16.38-6.1C952,1186.35,949.45,1184.72,948.62,1186.61Z" transform="translate(-787.03 -226.53)"/><path class="cls-78" d="M965.57,1237c-.59-14-5.14-19.37-8.38-19.52-8.29-.35-13,7.6-11.24,19.16,1.65,11,5.17,26.89,14.11,38.74,3.53,4.66,10.91-6,10.29-9.47S966.05,1248.89,965.57,1237Z" transform="translate(-787.03 -226.53)"/><path class="cls-78" d="M1001.21,1304.7c-2.32-3-7.19-6.39-5.23-6.47s4.51-.27,5.43-1.41-2.4.32-4.62-1.06-10.12-2.59-10.12-2.59-5.17,5.31-4.31,6.14,2.7,3.83,4.29,6,2.63,8.71,3.89,8.54,7,.05,8.19-.66,1.44-7.1,2-2.88,3.5,7,3.29,5.51C1003.72,1313.5,1003.52,1307.7,1001.21,1304.7Z" transform="translate(-787.03 -226.53)"/><path class="cls-78" d="M988.85,1293.78c-4.94-4-13.45-21.63-17.68-27.22-1.92-2.53-15.75-4.14-14.68,3.58s26.8,30.31,26.8,30.31A6.21,6.21,0,0,0,988.85,1293.78Z" transform="translate(-787.03 -226.53)"/><polygon class="cls-19" points="121.55 49.1 140.22 60.08 158.88 49.35 140.22 38.36 121.55 49.1"/><polygon class="cls-36" points="140.22 226.5 158.88 215.76 158.88 49.35 140.22 60.08 140.22 226.5"/><polygon class="cls-82" points="121.55 215.51 140.22 226.5 140.22 60.08 121.55 49.1 121.55 215.51"/><polygon class="cls-49" points="170 120.59 188.66 131.58 207.31 120.84 188.66 109.86 170 120.59"/><polygon class="cls-47" points="188.66 241.33 207.31 230.6 207.31 120.84 188.66 131.58 188.66 241.33"/><polygon class="cls-83" points="170 230.35 188.66 241.33 188.66 131.58 170 120.59 170 230.35"/><polygon class="cls-49" points="84.23 105.74 102.9 116.73 121.55 106 102.9 95.01 84.23 105.74"/><polygon class="cls-47" points="102.9 251.11 121.55 240.38 121.55 106 102.9 116.73 102.9 251.11"/><polygon class="cls-84" points="84.23 240.12 102.9 251.11 102.9 116.73 84.23 105.74 84.23 240.12"/><polygon class="cls-19" points="146.1 162.07 164.76 173.06 183.43 162.33 164.76 151.34 146.1 162.07"/><polygon class="cls-36" points="164.76 267.68 183.43 256.95 183.43 162.33 164.76 173.06 164.76 267.68"/><polygon class="cls-85" points="146.1 256.7 164.76 267.68 164.76 173.06 146.1 162.07 146.1 256.7"/><g class="cls-86"><path class="cls-87" d="M1009.14,226.53h-152V460h.21c-1.18,12.05,6.11,24.33,22.06,33.53,29.67,17.14,77.79,17.14,107.48,0,15.94-9.2,23.24-21.48,22-33.53h.21Z" transform="translate(-787.03 -226.53)"/></g></g></g></svg>