<svg xmlns="http://www.w3.org/2000/svg" xmlns:xlink="http://www.w3.org/1999/xlink" viewBox="0 0 825.11 696.96"><defs><style>.cls-1{mask:url(#mask);}.cls-2,.cls-5{mix-blend-mode:multiply;}.cls-2{fill:url(#Áåçûìÿííûé_ãðàäèåíò_11);}.cls-3{isolation:isolate;}.cls-4{fill:#817efe;}.cls-6{fill:#fff;}.cls-7{fill:#fbfbfc;}.cls-8{fill:#f7f7f8;}.cls-9{fill:#f3f4f5;}.cls-10{fill:#f0f0f1;}.cls-11{fill:#ececee;}.cls-12{fill:#e8e8ea;}.cls-13{fill:#e4e4e7;}.cls-14{fill:#e0e1e3;}.cls-15{fill:#dcdde0;}.cls-16{fill:#d8d9dc;}.cls-17{fill:#d4d5d9;}.cls-18{fill:#d1d1d5;}.cls-19{fill:#cdcdd2;}.cls-20{fill:#c9cace;}.cls-21{fill:#c5c6cb;}.cls-22{fill:#c1c2c7;}.cls-23{fill:#cbd3fa;}.cls-24{fill:#f3f1f6;}.cls-25{fill:#e6e6eb;}.cls-26{fill:url(#Áåçûìÿííûé_ãðàäèåíò_25);}.cls-27{fill:#9185ff;}.cls-28{fill:#ba5700;}.cls-29{fill:url(#Áåçûìÿííûé_ãðàäèåíò_18);}.cls-30{fill:url(#Áåçûìÿííûé_ãðàäèåíò_14);}.cls-31{fill:url(#Áåçûìÿííûé_ãðàäèåíò_14-2);}.cls-32{fill:url(#Áåçûìÿííûé_ãðàäèåíò_14-3);}.cls-33,.cls-34,.cls-35,.cls-36,.cls-37,.cls-38{mix-blend-mode:screen;}.cls-33{fill:url(#Áåçûìÿííûé_ãðàäèåíò_405);}.cls-34{fill:url(#Áåçûìÿííûé_ãðàäèåíò_360);}.cls-35{fill:url(#Áåçûìÿííûé_ãðàäèåíò_360-2);}.cls-36{fill:url(#Áåçûìÿííûé_ãðàäèåíò_360-3);}.cls-37{fill:url(#Áåçûìÿííûé_ãðàäèåíò_360-4);}.cls-38{fill:url(#Áåçûìÿííûé_ãðàäèåíò_360-5);}.cls-39{fill:#322c8d;}.cls-40{fill:#6b67ec;}.cls-41{fill:url(#Áåçûìÿííûé_ãðàäèåíò_14-4);}.cls-42{fill:url(#Áåçûìÿííûé_ãðàäèåíò_18-2);}.cls-43{fill:url(#Áåçûìÿííûé_ãðàäèåíò_15);}.cls-44{fill:url(#Áåçûìÿííûé_ãðàäèåíò_18-3);}.cls-45{fill:#f70;}.cls-46{fill:#ffad00;}.cls-47{fill:url(#Áåçûìÿííûé_ãðàäèåíò_14-5);}.cls-48{fill:url(#Áåçûìÿííûé_ãðàäèåíò_14-6);}.cls-49{fill:url(#Áåçûìÿííûé_ãðàäèåíò_14-7);}.cls-50{mask:url(#mask-2);}.cls-51{fill:url(#Áåçûìÿííûé_ãðàäèåíò_5);}.cls-52{fill:#fcfcfc;}.cls-53{fill:#f9f9fa;}.cls-54{fill:#f6f6f7;}.cls-55{fill:#f3f3f4;}.cls-56{fill:#f0f0f2;}.cls-57{fill:#edeeef;}.cls-58{fill:#eaebec;}.cls-59{fill:#e7e8ea;}.cls-60{fill:#e4e5e7;}.cls-61{fill:#e1e2e4;}.cls-62{fill:#dfdfe2;}.cls-63{fill:#dcdcdf;}.cls-64{fill:#d9d9dc;}.cls-65{fill:#d6d6da;}.cls-66{fill:#d3d3d7;}.cls-67{fill:#d0d1d4;}.cls-68{fill:#cdced2;}.cls-69{fill:#cacbcf;}.cls-70{fill:#c7c8cc;}.cls-71{fill:#c4c5ca;}.cls-72{fill:#2e2882;}.cls-73{fill:url(#Áåçûìÿííûé_ãðàäèåíò_14-8);}.cls-74{fill:url(#Áåçûìÿííûé_ãðàäèåíò_330);}.cls-75{fill:url(#Áåçûìÿííûé_ãðàäèåíò_14-9);}.cls-76{fill:url(#Áåçûìÿííûé_ãðàäèåíò_330-2);}.cls-77{fill:url(#Áåçûìÿííûé_ãðàäèåíò_18-4);}.cls-78{fill:url(#Áåçûìÿííûé_ãðàäèåíò_18-5);}.cls-79{fill:url(#Áåçûìÿííûé_ãðàäèåíò_18-6);}.cls-80{fill:url(#Áåçûìÿííûé_ãðàäèåíò_18-7);}.cls-81{fill:url(#Áåçûìÿííûé_ãðàäèåíò_18-8);}.cls-82{fill:url(#Áåçûìÿííûé_ãðàäèåíò_18-9);}.cls-83{fill:url(#Áåçûìÿííûé_ãðàäèåíò_18-10);}.cls-84{fill:url(#Áåçûìÿííûé_ãðàäèåíò_18-11);}.cls-85{fill:url(#Áåçûìÿííûé_ãðàäèåíò_18-12);}.cls-86{fill:url(#Áåçûìÿííûé_ãðàäèåíò_18-13);}.cls-87{fill:#6a6ae5;}.cls-88{fill:url(#Áåçûìÿííûé_ãðàäèåíò_6);}.cls-89{fill:url(#Áåçûìÿííûé_ãðàäèåíò_14-10);}.cls-90{fill:#1e1273;}.cls-91{opacity:0.5;fill:url(#Áåçûìÿííûé_ãðàäèåíò_18-14);}.cls-92{fill:#ffd2a9;}.cls-93{fill:url(#Áåçûìÿííûé_ãðàäèåíò_330-3);}.cls-94{fill:#3b349e;}.cls-95{fill:#433bb4;}.cls-96{fill:url(#Áåçûìÿííûé_ãðàäèåíò_18-15);}.cls-97{fill:url(#Áåçûìÿííûé_ãðàäèåíò_330-4);}.cls-98{fill:#ffc240;}.cls-99{fill:#ffd16e;}.cls-100{fill:#ff3902;}.cls-101{fill:#ff4d1c;}.cls-102{fill:#ff673d;}.cls-103{fill:#ff7d59;}.cls-104{fill:#ff9173;}.cls-105{fill:#e66b00;}.cls-106{fill:#e67f25;}.cls-107{fill:#eb8934;}.cls-108{fill:#f79d4f;}.cls-109{fill:#ffad66;}.cls-110{fill:#3c34a8;}.cls-111{fill:#473dc7;}.cls-112{fill:#5a52c7;}.cls-113{fill:#726cd6;}.cls-114{fill:#8e8bec;}.cls-115{fill:#9996ff;}.cls-116{fill:#b5b3ff;}.cls-117{fill:#d0cfff;}.cls-118{fill:#c4c2ff;}.cls-119{fill:#aeade3;}.cls-120{fill:#8886e3;}.cls-121{fill:url(#Áåçûìÿííûé_ãðàäèåíò_330-5);}.cls-122{fill:url(#Áåçûìÿííûé_ãðàäèåíò_26);}.cls-123{fill:url(#Áåçûìÿííûé_ãðàäèåíò_26-2);}.cls-124{fill:url(#Áåçûìÿííûé_ãðàäèåíò_26-3);}.cls-125{fill:url(#Áåçûìÿííûé_ãðàäèåíò_26-4);}.cls-126{fill:url(#Áåçûìÿííûé_ãðàäèåíò_26-5);}.cls-127{fill:#292475;}.cls-128{fill:url(#Áåçûìÿííûé_ãðàäèåíò_14-11);}.cls-129{fill:#d46300;}.cls-130{fill:#c3caf0;}.cls-131{fill:url(#Áåçûìÿííûé_ãðàäèåíò_18-16);}.cls-132{fill:url(#Áåçûìÿííûé_ãðàäèåíò_18-17);}.cls-133{filter:url(#luminosity-noclip);}</style><filter id="luminosity-noclip" x="1228.95" y="-9313" width="70.29" height="32766" filterUnits="userSpaceOnUse" color-interpolation-filters="sRGB"><feFlood flood-color="#fff" result="bg"/><feBlend in="SourceGraphic" in2="bg"/></filter><mask id="mask" x="1228.95" y="-9313" width="70.29" height="32766" maskUnits="userSpaceOnUse"><g class="cls-133"/></mask><linearGradient id="Áåçûìÿííûé_ãðàäèåíò_11" x1="1752.59" y1="1355.77" x2="1752.59" y2="1574.77" gradientTransform="matrix(-1, 0, 0, 1, 3016.69, 0)" gradientUnits="userSpaceOnUse"><stop offset="0"/><stop offset="1" stop-color="#fff"/></linearGradient><linearGradient id="Áåçûìÿííûé_ãðàäèåíò_25" x1="1395.29" y1="1140.52" x2="1719.69" y2="1140.52" gradientTransform="matrix(-1, 0, 0, 1, 3016.69, 0)" gradientUnits="userSpaceOnUse"><stop offset="0" stop-color="#85a7ff"/><stop offset="1" stop-color="#9185ff"/></linearGradient><linearGradient id="Áåçûìÿííûé_ãðàäèåíò_18" x1="19.92" y1="898.56" x2="129.3" y2="898.56" gradientTransform="matrix(-1, 0, 0, 1, 1777.56, 0)" gradientUnits="userSpaceOnUse"><stop offset="0" stop-color="#ffad00"/><stop offset="1" stop-color="#f70"/></linearGradient><linearGradient id="Áåçûìÿííûé_ãðàäèåíò_14" x1="42.68" y1="907.56" x2="112.25" y2="907.56" gradientTransform="matrix(-1, 0, 0, 1, 1777.56, 0)" gradientUnits="userSpaceOnUse"><stop offset="0" stop-color="#6a6ae5"/><stop offset="1" stop-color="#322c8d"/></linearGradient><linearGradient id="Áåçûìÿííûé_ãðàäèåíò_14-2" x1="42.68" y1="899.12" x2="112.25" y2="899.12" xlink:href="#Áåçûìÿííûé_ãðàäèåíò_14"/><linearGradient id="Áåçûìÿííûé_ãðàäèåíò_14-3" x1="37.01" y1="900.38" x2="106.58" y2="900.38" xlink:href="#Áåçûìÿííûé_ãðàäèåíò_14"/><linearGradient id="Áåçûìÿííûé_ãðàäèåíò_405" x1="1072.16" y1="923.94" x2="1072.16" y2="932.81" gradientTransform="matrix(-1, 0, 0, 1, 1587.95, -821.58)" gradientUnits="userSpaceOnUse"><stop offset="0" stop-color="#fff"/><stop offset="0.12" stop-color="#e7e7e7"/><stop offset="0.38" stop-color="#aaa"/><stop offset="0.74" stop-color="#494949"/><stop offset="1"/></linearGradient><linearGradient id="Áåçûìÿííûé_ãðàäèåíò_360" x1="1052.93" y1="934.64" x2="1052.93" y2="908.43" gradientTransform="matrix(-1, 0, 0, 1, 1587.95, -821.58)" gradientUnits="userSpaceOnUse"><stop offset="0"/><stop offset="0.09" stop-color="#060606"/><stop offset="0.22" stop-color="#191919"/><stop offset="0.36" stop-color="#373737"/><stop offset="0.53" stop-color="#606060"/><stop offset="0.71" stop-color="#969696"/><stop offset="0.89" stop-color="#d6d6d6"/><stop offset="1" stop-color="#fff"/></linearGradient><linearGradient id="Áåçûìÿííûé_ãðàäèåíò_360-2" x1="1031.03" y1="930.46" x2="1031.03" y2="882.22" xlink:href="#Áåçûìÿííûé_ãðàäèåíò_360"/><linearGradient id="Áåçûìÿííûé_ãðàäèåíò_360-3" x1="1013.19" y1="918.39" x2="1013.19" y2="880.52" xlink:href="#Áåçûìÿííûé_ãðàäèåíò_360"/><linearGradient id="Áåçûìÿííûé_ãðàäèåíò_360-4" x1="995.22" y1="912.5" x2="995.22" y2="879.84" xlink:href="#Áåçûìÿííûé_ãðàäèåíò_360"/><linearGradient id="Áåçûìÿííûé_ãðàäèåíò_360-5" x1="985.28" y1="907.43" x2="985.28" y2="869.56" xlink:href="#Áåçûìÿííûé_ãðàäèåíò_360"/><linearGradient id="Áåçûìÿííûé_ãðàäèåíò_14-4" x1="1710.95" y1="1465.04" x2="1794.78" y2="1465.04" gradientTransform="matrix(-1, 0, 0, 1, 3016.69, 0)" xlink:href="#Áåçûìÿííûé_ãðàäèåíò_14"/><linearGradient id="Áåçûìÿííûé_ãðàäèåíò_18-2" x1="1778.77" y1="1454.66" x2="1786.34" y2="1454.66" gradientTransform="matrix(-1, 0, 0, 1, 3016.69, 0)" xlink:href="#Áåçûìÿííûé_ãðàäèåíò_18"/><linearGradient id="Áåçûìÿííûé_ãðàäèåíò_15" x1="1097.77" y1="1464.12" x2="1097.77" y2="1464.12" gradientTransform="translate(149.52)" gradientUnits="userSpaceOnUse"><stop offset="0" stop-color="#4affc7"/><stop offset="1" stop-color="#3badea"/></linearGradient><linearGradient id="Áåçûìÿííûé_ãðàäèåíò_18-3" x1="1755.27" y1="1456.97" x2="1755.27" y2="1420.17" gradientTransform="matrix(-1, 0, 0, 1, 3016.69, 0)" xlink:href="#Áåçûìÿííûé_ãðàäèåíò_18"/><linearGradient id="Áåçûìÿííûé_ãðàäèåíò_14-5" x1="1717.13" y1="1453.35" x2="1721.27" y2="1453.35" gradientTransform="matrix(-1, 0, 0, 1, 3016.69, 0)" xlink:href="#Áåçûìÿííûé_ãðàäèåíò_14"/><linearGradient id="Áåçûìÿííûé_ãðàäèåíò_14-6" x1="1736.93" y1="1439.52" x2="1723.84" y2="1469.28" gradientTransform="matrix(-1, 0, 0, 1, 1873.03, -821.58)" xlink:href="#Áåçûìÿííûé_ãðàäèåíò_14"/><linearGradient id="Áåçûìÿííûé_ãðàäèåíò_14-7" x1="1751.99" y1="1464.74" x2="1777.94" y2="1464.74" gradientTransform="matrix(-1, 0, 0, 1, 3016.69, 0)" xlink:href="#Áåçûìÿííûé_ãðàäèåíò_14"/><mask id="mask-2" x="85.29" y="533.23" width="70.29" height="129.42" maskUnits="userSpaceOnUse"><g transform="translate(-1143.66 -821.58)"><g class="cls-1"><path class="cls-2" d="M1229,1354.81h70.29v108h-.09c.54,5.58-2.83,11.25-10.2,15.51-13.73,7.93-36,7.93-49.71,0-7.37-4.26-10.75-9.93-10.19-15.51h-.1Z"/></g></g></mask><linearGradient id="Áåçûìÿííûé_ãðàäèåíò_5" x1="1752.59" y1="1355.77" x2="1752.59" y2="1574.77" gradientTransform="matrix(-1, 0, 0, 1, 3016.69, 0)" xlink:href="#Áåçûìÿííûé_ãðàäèåíò_18"/><linearGradient id="Áåçûìÿííûé_ãðàäèåíò_14-8" x1="1519.99" y1="1124.14" x2="1740.51" y2="1124.14" gradientTransform="matrix(-1, 0, 0, 1, 3071.44, 0)" xlink:href="#Áåçûìÿííûé_ãðàäèåíò_14"/><linearGradient id="Áåçûìÿííûé_ãðàäèåíò_330" x1="1519.74" y1="1067.36" x2="1726.54" y2="1067.36" gradientTransform="matrix(-1, 0, 0, 1, 3071.44, 0)" gradientUnits="userSpaceOnUse"><stop offset="0" stop-color="#fff"/><stop offset="1" stop-color="#d5dbeb"/></linearGradient><linearGradient id="Áåçûìÿííûé_ãðàäèåíò_14-9" x1="1463.48" y1="1142.54" x2="1718.67" y2="1142.54" gradientTransform="matrix(-1, 0, 0, 1, 3071.44, 0)" xlink:href="#Áåçûìÿííûé_ãðàäèåíò_14"/><linearGradient id="Áåçûìÿííûé_ãðàäèåíò_330-2" x1="1504.09" y1="1071.02" x2="1718.67" y2="1071.02" xlink:href="#Áåçûìÿííûé_ãðàäèåíò_330"/><linearGradient id="Áåçûìÿííûé_ãðàäèåíò_18-4" x1="1620.45" y1="1178.55" x2="1657.13" y2="1178.55" gradientTransform="matrix(-1, 0, 0, 1, 1927.79, -821.58)" xlink:href="#Áåçûìÿííûé_ãðàäèåíò_18"/><linearGradient id="Áåçûìÿííûé_ãðàäèåíò_18-5" x1="1593.08" y1="1174.96" x2="1602.6" y2="1174.96" gradientTransform="matrix(-1, 0, 0, 1, 1927.79, -821.58)" xlink:href="#Áåçûìÿííûé_ãðàäèåíò_18"/><linearGradient id="Áåçûìÿííûé_ãðàäèåíò_18-6" x1="1592.49" y1="1170.37" x2="1603.96" y2="1170.37" gradientTransform="matrix(-1, 0, 0, 1, 1927.79, -821.58)" xlink:href="#Áåçûìÿííûé_ãðàäèåíò_18"/><linearGradient id="Áåçûìÿííûé_ãðàäèåíò_18-7" x1="1565.13" y1="1124.29" x2="1574.65" y2="1124.29" gradientTransform="matrix(-1, 0, 0, 1, 1927.79, -821.58)" xlink:href="#Áåçûìÿííûé_ãðàäèåíò_18"/><linearGradient id="Áåçûìÿííûé_ãðàäèåíò_18-8" x1="1564.54" y1="1119.69" x2="1576.01" y2="1119.69" gradientTransform="matrix(-1, 0, 0, 1, 1927.79, -821.58)" xlink:href="#Áåçûìÿííûé_ãðàäèåíò_18"/><linearGradient id="Áåçûìÿííûé_ãðàäèåíò_18-9" x1="1537.89" y1="1159.9" x2="1541.68" y2="1159.9" gradientTransform="matrix(-1, 0, 0, 1, 1927.79, -821.58)" xlink:href="#Áåçûìÿííûé_ãðàäèåíò_18"/><linearGradient id="Áåçûìÿííûé_ãðàäèåíò_18-10" x1="1603.43" y1="1103.46" x2="1607.23" y2="1103.46" gradientTransform="matrix(-1, 0, 0, 1, 1927.79, -821.58)" xlink:href="#Áåçûìÿííûé_ãðàäèåíò_18"/><linearGradient id="Áåçûìÿííûé_ãðàäèåíò_18-11" x1="1555.01" y1="1151.82" x2="1562.89" y2="1151.82" gradientTransform="matrix(-1, 0, 0, 1, 1927.79, -821.58)" xlink:href="#Áåçûìÿííûé_ãðàäèåíò_18"/><linearGradient id="Áåçûìÿííûé_ãðàäèåíò_18-12" x1="1619.71" y1="1224.28" x2="1627.59" y2="1224.28" gradientTransform="matrix(-1, 0, 0, 1, 1927.79, -821.58)" xlink:href="#Áåçûìÿííûé_ãðàäèåíò_18"/><linearGradient id="Áåçûìÿííûé_ãðàäèåíò_18-13" x1="1646.38" y1="1147.86" x2="1654.26" y2="1147.86" gradientTransform="matrix(-1, 0, 0, 1, 1927.79, -821.58)" xlink:href="#Áåçûìÿííûé_ãðàäèåíò_18"/><linearGradient id="Áåçûìÿííûé_ãðàäèåíò_6" x1="1201.29" y1="1357.16" x2="1388.87" y2="1357.16" gradientTransform="matrix(-1, 0.08, 0.08, 1, 2920.46, -140.35)" gradientUnits="userSpaceOnUse"><stop offset="0" stop-color="#d5dbeb"/><stop offset="1" stop-color="#fff"/></linearGradient><linearGradient id="Áåçûìÿííûé_ãðàäèåíò_14-10" x1="1356.14" y1="1409.38" x2="1434.92" y2="1465.42" gradientTransform="matrix(-1, 0, 0, 1, 3016.69, 0)" xlink:href="#Áåçûìÿííûé_ãðàäèåíò_14"/><linearGradient id="Áåçûìÿííûé_ãðàäèåíò_18-14" x1="1210.69" y1="1310.98" x2="1318.61" y2="1310.98" gradientTransform="matrix(-1, 0, 0, 1, 3016.69, 0)" xlink:href="#Áåçûìÿííûé_ãðàäèåíò_18"/><linearGradient id="Áåçûìÿííûé_ãðàäèåíò_330-3" x1="1708.6" y1="1348.06" x2="1678.27" y2="1343.99" gradientTransform="translate(140.23)" xlink:href="#Áåçûìÿííûé_ãðàäèåíò_330"/><linearGradient id="Áåçûìÿííûé_ãðàäèåíò_18-15" x1="502.92" y1="1369.73" x2="535.75" y2="1369.73" gradientTransform="matrix(-1, 0, 0, 1, 2356.2, 0)" xlink:href="#Áåçûìÿííûé_ãðàäèåíò_18"/><linearGradient id="Áåçûìÿííûé_ãðàäèåíò_330-4" x1="1689.06" y1="1350.6" x2="1688.52" y2="1380.19" gradientTransform="translate(140.23)" xlink:href="#Áåçûìÿííûé_ãðàäèåíò_330"/><linearGradient id="Áåçûìÿííûé_ãðàäèåíò_330-5" x1="1869.68" y1="1180.65" x2="1940.76" y2="1180.65" gradientTransform="matrix(1, 0, 0.12, 1, -122.48, 0)" xlink:href="#Áåçûìÿííûé_ãðàäèåíò_330"/><linearGradient id="Áåçûìÿííûé_ãðàäèåíò_26" x1="764.93" y1="507" x2="770.97" y2="507" gradientUnits="userSpaceOnUse"><stop offset="0" stop-color="#fff"/><stop offset="1" stop-color="#fff"/></linearGradient><linearGradient id="Áåçûìÿííûé_ãðàäèåíò_26-2" x1="764.93" y1="476.69" x2="770.97" y2="476.69" xlink:href="#Áåçûìÿííûé_ãðàäèåíò_26"/><linearGradient id="Áåçûìÿííûé_ãðàäèåíò_26-3" x1="765.62" y1="446.09" x2="771.66" y2="446.09" xlink:href="#Áåçûìÿííûé_ãðàäèåíò_26"/><linearGradient id="Áåçûìÿííûé_ãðàäèåíò_26-4" x1="766.18" y1="415.49" x2="772.21" y2="415.49" xlink:href="#Áåçûìÿííûé_ãðàäèåíò_26"/><linearGradient id="Áåçûìÿííûé_ãðàäèåíò_26-5" x1="765.19" y1="385.18" x2="771.23" y2="385.18" xlink:href="#Áåçûìÿííûé_ãðàäèåíò_26"/><linearGradient id="Áåçûìÿííûé_ãðàäèåíò_14-11" x1="1242.46" y1="994.43" x2="1357.77" y2="994.43" gradientTransform="matrix(0.97, 0.04, -0.01, 1.03, -46.17, -73.39)" xlink:href="#Áåçûìÿííûé_ãðàäèåíò_14"/><linearGradient id="Áåçûìÿííûé_ãðàäèåíò_18-16" x1="1820.03" y1="1019.7" x2="1843.56" y2="1019.7" gradientTransform="matrix(-1, 0, 0, 1, 3016.69, 0)" xlink:href="#Áåçûìÿííûé_ãðàäèåíò_18"/><linearGradient id="Áåçûìÿííûé_ãðàäèåíò_18-17" x1="1801.25" y1="978.76" x2="1828.22" y2="978.76" gradientTransform="matrix(-1, 0, 0, 1, 3016.69, 0)" xlink:href="#Áåçûìÿííûé_ãðàäèåíò_18"/></defs><g class="cls-3"><g id="Layer_1" data-name="Layer 1"><path class="cls-4" d="M1308.31,1114.2h2.45v13h-2.45Zm0-22.8h2.45v13h-2.45Zm-88.45-5.48,11.24-6.57,1.24,2.11-11.25,6.57Zm88.45-17.32h2.45v13h-2.45Zm-89.66-3.38h2.45v13h-2.45Zm20.9,9.2,11.24-6.58L1252,1070l-11.25,6.58Zm19.68-11.51,11.25-6.57,1.24,2.11-11.26,6.57Zm49.08-17.12h2.45v13h-2.45Zm-89.66-3.38h2.45v13h-2.45Zm60.27,9,11.25-6.58,1.24,2.11-11.26,6.58Zm19.69-11.51,12.15-7.1V1036h-.67l-10.25,6Zm-80-20.29h2.45v13h-2.45Z" transform="translate(-1143.66 -821.58)"/><path class="cls-4" d="M1477.25,1304.79a2.38,2.38,0,0,1,0,4.24l-104.74,56.13a4.3,4.3,0,0,0-2.41,3.87,4.35,4.35,0,0,0,2.41,3.88l73.46,38.16a4.06,4.06,0,0,1,2,3.52,4,4,0,0,1-2,3.52l-155.78,87.14a.94.94,0,0,1-1.41-.81l-2.44-.24s.27,5.36,4.62,2.86l156-87.26a6,6,0,0,0,0-10.42l-73.56-38.2a2.39,2.39,0,0,1-1.34-2.15,2.33,2.33,0,0,1,1.34-2.11l104.74-56.14a4.34,4.34,0,0,0,0-7.75Z" transform="translate(-1143.66 -821.58)"/><rect class="cls-4" x="559.23" y="98.57" width="2.44" height="6.51"/><path class="cls-4" d="M1486.12,1169.26l11.4-6.57,1.22,2.12-11.4,6.56Zm20-11.49,11.4-6.56,1.22,2.12-11.4,6.56Zm20-11.48,11.4-6.57,1.22,2.12-11.4,6.56Zm20-11.49,11.4-6.56,1.22,2.12-11.4,6.56Zm20-11.48,11.4-6.57,1.22,2.12-11.4,6.56Zm19.95-11.49,11.4-6.57,1.22,2.12-11.4,6.57Zm20-11.48,11.4-6.57,1.22,2.12-11.4,6.56Zm20-11.5,11.4-6.56,1.22,2.12L1627,1091Zm20-11.48,11.4-6.56,1.22,2.12-11.4,6.56Zm20-11.48,11.4-6.57,1.22,2.12-11.4,6.57Zm19.95-11.49,11.4-6.56,1.22,2.12-11.4,6.56Zm17.08-12.91a7.64,7.64,0,0,0,.19-1.73v-11.14h2.44v11.14a10.55,10.55,0,0,1-.24,2.25Zm.19-35.9h2.44v13.16h-2.44Zm0-23h2.44v13.16h-2.44Zm0-23h2.44v13.16h-2.44Zm0-23h2.44v13.16h-2.44Z" transform="translate(-1143.66 -821.58)"/><rect class="cls-4" x="1472.08" y="1175.66" width="6.51" height="2.44" transform="translate(-1533.97 70.7) rotate(-29.91)"/><g class="cls-5"><path class="cls-6" d="M1444.44,1383.3a10.75,10.75,0,0,1-5.21-1.28l-57.35-31.42a7.22,7.22,0,0,1-3.91-6.18,7.09,7.09,0,0,1,3.69-6.16l117.63-67.65a10.36,10.36,0,0,1,5.22-1.33,10.72,10.72,0,0,1,5.23,1.29l57.34,31.4a7.25,7.25,0,0,1,3.91,6.19,7.09,7.09,0,0,1-3.69,6.16L1449.67,1382A10.37,10.37,0,0,1,1444.44,1383.3Z" transform="translate(-1143.66 -821.58)"/><path class="cls-7" d="M1566.91,1302.27a6.9,6.9,0,0,1,3.74,5.89,6.75,6.75,0,0,1-3.52,5.87l-117.63,67.64a9.86,9.86,0,0,1-5.22,1.25,11.27,11.27,0,0,1-5.16-1.35l-57.07-31.26a6.86,6.86,0,0,1-3.73-5.89,6.74,6.74,0,0,1,3.51-5.87l117.34-67.48a10.9,10.9,0,0,1,5.19-1.42,10.2,10.2,0,0,1,5.22,1.22Z" transform="translate(-1143.66 -821.58)"/><path class="cls-8" d="M1566.74,1302.57a6.54,6.54,0,0,1,3.57,5.6,6.41,6.41,0,0,1-3.36,5.56l-117.62,67.65a9.49,9.49,0,0,1-5.21,1.17,11.86,11.86,0,0,1-5.11-1.43L1382.22,1350a6.51,6.51,0,0,1-3.56-5.6,6.38,6.38,0,0,1,3.34-5.56l117.06-67.33a11.61,11.61,0,0,1,5.14-1.49,9.77,9.77,0,0,1,5.21,1.14Z" transform="translate(-1143.66 -821.58)"/><path class="cls-9" d="M1566.58,1302.87a6.18,6.18,0,0,1,3.38,5.3,6,6,0,0,1-3.18,5.27l-117.62,67.65a9,9,0,0,1-5.2,1.08,12.57,12.57,0,0,1-5.06-1.5l-56.52-31a6.2,6.2,0,0,1-3.38-5.3,6,6,0,0,1,3.18-5.27L1499,1272a12.24,12.24,0,0,1,5.1-1.57,9.19,9.19,0,0,1,5.19,1.06Z" transform="translate(-1143.66 -821.58)"/><path class="cls-10" d="M1566.41,1303.16a5.88,5.88,0,0,1,3.21,5,5.68,5.68,0,0,1-3,5L1449,1380.79a8.62,8.62,0,0,1-5.19,1,13.42,13.42,0,0,1-5-1.56l-56.25-30.81a5.85,5.85,0,0,1-3.21-5,5.69,5.69,0,0,1,3-5l116.49-67a13.25,13.25,0,0,1,5.05-1.65,9,9,0,0,1,5.19,1Z" transform="translate(-1143.66 -821.58)"/><path class="cls-11" d="M1566.25,1303.46a5.52,5.52,0,0,1,3,4.71,5.35,5.35,0,0,1-2.84,4.68l-117.62,67.65a8.31,8.31,0,0,1-5.18.91,14.44,14.44,0,0,1-5-1.63l-56-30.66a5.52,5.52,0,0,1-3-4.71,5.35,5.35,0,0,1,2.84-4.68l116.21-66.84a14.4,14.4,0,0,1,5-1.73,8.59,8.59,0,0,1,5.17.9Z" transform="translate(-1143.66 -821.58)"/><path class="cls-12" d="M1566.08,1303.76a5.17,5.17,0,0,1,2.86,4.41,5,5,0,0,1-2.67,4.38l-117.62,67.65a8,8,0,0,1-5.17.84,15.69,15.69,0,0,1-4.9-1.71l-55.7-30.51a5.17,5.17,0,0,1-2.86-4.41,5,5,0,0,1,2.67-4.38l115.93-66.68c.93-.54,3.76-1.81,5-1.81a8.12,8.12,0,0,1,5.16.82Z" transform="translate(-1143.66 -821.58)"/><path class="cls-13" d="M1565.92,1304.06a4.82,4.82,0,0,1,2.68,4.11,4.69,4.69,0,0,1-2.5,4.09l-117.62,67.65a7.68,7.68,0,0,1-5.16.75c-1.07,0-4-1.3-4.84-1.77L1383,1348.52a4.82,4.82,0,0,1-2.68-4.11,4.68,4.68,0,0,1,2.5-4.09l115.65-66.51c.84-.49,3.83-1.89,4.92-1.89a7.84,7.84,0,0,1,5.15.73Z" transform="translate(-1143.66 -821.58)"/><path class="cls-14" d="M1565.75,1304.35a4.51,4.51,0,0,1,2.51,3.83,4.37,4.37,0,0,1-2.33,3.79l-117.63,67.65a7.38,7.38,0,0,1-5.14.66c-1,0-4-1.42-4.79-1.84l-55.16-30.21a4.51,4.51,0,0,1-2.51-3.82,4.35,4.35,0,0,1,2.33-3.79l115.37-66.36c.74-.43,3.91-2,4.87-2a7.5,7.5,0,0,1,5.14.65Z" transform="translate(-1143.66 -821.58)"/><path class="cls-15" d="M1565.58,1304.65a4.19,4.19,0,0,1,2.34,3.53,4,4,0,0,1-2.16,3.49l-117.63,67.65a7.09,7.09,0,0,1-5.13.58c-.83,0-4.08-1.54-4.74-1.91l-54.89-30.06a4.19,4.19,0,0,1-2.33-3.53,4,4,0,0,1,2.16-3.49l115.09-66.19c.65-.38,4-2,4.83-2a7.26,7.26,0,0,1,5.13.58Z" transform="translate(-1143.66 -821.58)"/><path class="cls-16" d="M1565.42,1305a3.84,3.84,0,0,1,2.16,3.23,3.68,3.68,0,0,1-2,3.2L1448,1379a6.86,6.86,0,0,1-5.12.49,25.43,25.43,0,0,1-4.69-2l-54.61-29.92a3.83,3.83,0,0,1-2.16-3.23,3.69,3.69,0,0,1,2-3.2l114.8-66c.57-.33,4.07-2.13,4.79-2.13a7,7,0,0,1,5.12.5Z" transform="translate(-1143.66 -821.58)"/><path class="cls-17" d="M1565.25,1305.25a3.48,3.48,0,0,1,2,2.93,3.33,3.33,0,0,1-1.83,2.9l-117.62,67.65a6.6,6.6,0,0,1-5.11.41,29.86,29.86,0,0,1-4.63-2l-54.34-29.76a3.51,3.51,0,0,1-2-2.94,3.33,3.33,0,0,1,1.82-2.9l114.52-65.87a30.43,30.43,0,0,1,4.74-2.2,6.69,6.69,0,0,1,5.11.41Z" transform="translate(-1143.66 -821.58)"/><path class="cls-18" d="M1565.09,1305.54a3.18,3.18,0,0,1,1.81,2.64,3,3,0,0,1-1.66,2.61l-117.62,67.65a6.4,6.4,0,0,1-5.1.33,37.22,37.22,0,0,1-4.58-2.12L1383.87,1347a3.18,3.18,0,0,1-1.81-2.64,3,3,0,0,1,1.66-2.61l114.23-65.7a37.7,37.7,0,0,1,4.7-2.28,6.44,6.44,0,0,1,5.1.33Z" transform="translate(-1143.66 -821.58)"/><path class="cls-19" d="M1564.92,1305.84a2.85,2.85,0,0,1,1.64,2.35,2.69,2.69,0,0,1-1.49,2.31l-117.62,67.65a6.22,6.22,0,0,1-5.09.24c-.36,0-4.24-2-4.53-2.18L1384,1346.74a2.83,2.83,0,0,1-1.64-2.34,2.64,2.64,0,0,1,1.49-2.31l113.95-65.54a48.39,48.39,0,0,1,4.65-2.37,6.25,6.25,0,0,1,5.09.26Z" transform="translate(-1143.66 -821.58)"/><path class="cls-20" d="M1564.76,1306.14a2.52,2.52,0,0,1,1.46,2,2.32,2.32,0,0,1-1.32,2l-117.62,67.65a6,6,0,0,1-5.08.16c-.24,0-4.29-2.15-4.47-2.25l-53.53-29.32a2.5,2.5,0,0,1-1.46-2,2.32,2.32,0,0,1,1.32-2L1497.73,1277c.19-.1,4.37-2.44,4.61-2.44a6,6,0,0,1,5.07.17Z" transform="translate(-1143.66 -821.58)"/><path class="cls-21" d="M1564.59,1306.43a2.21,2.21,0,0,1,1.29,1.76,2,2,0,0,1-1.15,1.72l-117.63,67.65a5.83,5.83,0,0,1-5.06.07c-.12,0-4.33-2.27-4.42-2.32l-53.25-29.16a2.21,2.21,0,0,1-1.29-1.76,2,2,0,0,1,1.15-1.71l113.39-65.22c.09,0,4.44-2.52,4.56-2.52a5.82,5.82,0,0,1,5.07.09Z" transform="translate(-1143.66 -821.58)"/><path class="cls-22" d="M1384.4,1343,1502,1275.32a5.61,5.61,0,0,1,5,0l57.34,31.4c1.44.8,1.49,2.09.14,2.88l-117.63,67.65a5.61,5.61,0,0,1-5,0l-57.35-31.4C1383.1,1345.05,1383,1343.76,1384.4,1343Z" transform="translate(-1143.66 -821.58)"/></g><path class="cls-23" d="M1564,1306.82h-7.82v1.41L1509.57,1283c-3.6-2.09-9.91-1.84-14.08.56l-102.67,57.12v-1.12H1385v6h0a.82.82,0,0,0,.41.66l55.52,30.78c3.38,2,9.28,1.72,13.2-.53l109.37-62.8a.78.78,0,0,0,.38-.85h.06Z" transform="translate(-1143.66 -821.58)"/><path class="cls-24" d="M1563.53,1306a.86.86,0,0,1,0,1.5l-109.37,62.79c-3.92,2.25-9.82,2.49-13.2.53L1385.43,1340a.84.84,0,0,1-.1-1.4h0l110.16-61.28c4.17-2.39,10.48-2.65,14.08-.56l53.94,29.21Z" transform="translate(-1143.66 -821.58)"/><path class="cls-23" d="M1443.73,1167.92h0c24.61-14,51.15-.34,50.91,26.13l-70.84,139.49-5-2.77,1.15-124.25C1420.14,1191.25,1429.53,1176,1443.73,1167.92Z" transform="translate(-1143.66 -821.58)"/><path class="cls-25" d="M1448.68,1170.69h0c24.61-14,51.15-.34,50.9,26.12l-.87,94.24-74.91,42.49,1.14-124.26C1425.09,1194,1434.48,1178.74,1448.68,1170.69Z" transform="translate(-1143.66 -821.58)"/><path class="cls-23" d="M1278.32,1104.77l28.57,232.45c.75,6.24,4.27,15.66,16.28,15.57a25.29,25.29,0,0,0,5-.52l.16,0,.12-.06,90.74-54.54,5-3,27.92-16.78,47-28.26,124.53-74.87a8.47,8.47,0,0,0,4.6-8.3l-23.85-230.59a10,10,0,0,0-3.1-6c-4.82-4.66-14-5.85-19.09-2.93l-58.5,33.14-182.45,103.35-58.31,33A8.43,8.43,0,0,0,1278.32,1104.77Z" transform="translate(-1143.66 -821.58)"/><path class="cls-24" d="M1288.65,1100.31l298.79-171.46c6.91-4,16.6,0,17.48,7.11l28.93,235.46a8.51,8.51,0,0,1-4.57,8.41l-298.79,171.44c-6.92,4-16.61,0-17.49-7.11l-28.93-235.44A8.54,8.54,0,0,1,1288.65,1100.31Z" transform="translate(-1143.66 -821.58)"/><path class="cls-26" d="M1297.08,1116.34l4.44,36.13,3.77,30.72,2.77,22.58,5.09,41.17,10.42,84.83c.49,3.94,5.77,6.16,9.58,4l14.89-8.4h0l34.3-19.42h0l23.43-13.22,39.22-22.12,26-14.73,38.5-21.73,105.09-59.32c4.73-2.64,7.27-7.33,6.68-12.12l-26.49-215.49c-.48-3.91-5.76-6.06-9.6-3.91l-17.86,10.07-38.5,21.73-26,14.66-39.19,22.15-23.45,13.26-32.55,18.37-25.83,14.56L1348.39,1079l-44.66,25.22C1299,1106.89,1296.5,1111.49,1297.08,1116.34Z" transform="translate(-1143.66 -821.58)"/><path class="cls-27" d="M1297.15,1116.22l2.62,21.24,297.59-168.68-2.43-19.71c-.53-3.9-5.8-6.08-9.64-3.93L1528.93,977l-65.16,36.79L1440.3,1027l-32.55,18.37-103.94,58.7C1299.1,1106.74,1296.56,1111.37,1297.15,1116.22Z" transform="translate(-1143.66 -821.58)"/><path class="cls-6" d="M1353.1,1101.05l18-10.51a1.65,1.65,0,0,0,.83-1.44c-.06-.49-.53-.65-1.06-.34l-18,10.51a1.66,1.66,0,0,0-.83,1.44C1352.1,1101.21,1352.58,1101.36,1353.1,1101.05Z" transform="translate(-1143.66 -821.58)"/><path class="cls-6" d="M1310.65,1125.91a1.84,1.84,0,0,0,.68-.75l9.84-19.75c.28-.57.16-1.1-.28-1.18a1.46,1.46,0,0,0-1.32.89l-9.83,19.75c-.29.58-.16,1.11.28,1.19A1,1,0,0,0,1310.65,1125.91Z" transform="translate(-1143.66 -821.58)"/><path class="cls-6" d="M1322.13,1119.19a1.92,1.92,0,0,0,.58-.56c.36-.55.34-1.15,0-1.33l-13.12-6.31c-.39-.18-1,.12-1.35.66s-.34,1.15,0,1.33l13.12,6.31A.81.81,0,0,0,1322.13,1119.19Z" transform="translate(-1143.66 -821.58)"/><path class="cls-6" d="M1329.24,1107.08c.53,4.09,4.49,5.38,8.87,2.81s7.47-8,7-12.09-4.51-5.38-8.86-2.82S1328.71,1103,1329.24,1107.08Zm7.19-10.31c3.32-2,6.36-1,6.75,2.14s-2,7.28-5.3,9.2-6.35,1-6.74-2.15S1333.12,1098.69,1336.43,1096.77Z" transform="translate(-1143.66 -821.58)"/><path class="cls-28" d="M1647.83,878.73,1750.16,822c2.07-1.15,7.46,0,7.46,4.61l-2.86,85.62a3.08,3.08,0,0,1-1.6,2.7l-100.38,59.33c-2.07,1.14-6.55-.5-6.55-5.31V881.44A3.09,3.09,0,0,1,1647.83,878.73Z" transform="translate(-1143.66 -821.58)"/><path class="cls-29" d="M1649.86,880.32,1753,823.14a3.12,3.12,0,0,1,4.63,2.73v88.21a3.11,3.11,0,0,1-1.6,2.73L1652.89,974a3.12,3.12,0,0,1-4.63-2.73V883.05A3.11,3.11,0,0,1,1649.86,880.32Z" transform="translate(-1143.66 -821.58)"/><path class="cls-30" d="M1717.67,904.86c-5.1,2.92-4.72-5.83-8.88-3.46s-3.6,21.72-10,25.39-5.48-17.53-10.59-14.62-5.1,16-10,18.82-5.1-12-12.85-7.54l69.56-39.67C1725.23,889.27,1722.78,902,1717.67,904.86Z" transform="translate(-1143.66 -821.58)"/><path class="cls-6" d="M1674.5,902.48c5.11-2.91,6.87,8.95,11,6.58s2.27-31.24,8.7-34.91,6.81,22.56,11.91,19.64,5.1-30.28,10-33.08,5.1,30.83,12.85,26.41l-69.57,39.67C1669.09,921.29,1669.4,905.39,1674.5,902.48Z" transform="translate(-1143.66 -821.58)"/><path class="cls-31" d="M1678.16,902.34c4.92-2.81,4.92,6.15,10,3.24s4.85-23.14,10.59-26.62c6.63-4,5.86,11.11,10,8.74s3.78-9.66,8.88-12.57,7.56,14.14,17.2,8.65l-69.56,39.67C1673.06,919,1673.25,905.14,1678.16,902.34Z" transform="translate(-1143.66 -821.58)"/><path class="cls-6" d="M1678.2,910.82c4.91-2.8,5.42-.75,10.52-3.66s3.84-6.32,10-12.22c5.64-5.37,8.5.27,12.66-2.1s5.21-6.23,10.39-6.84,3.44,3.27,13.08-2.22l-69.56,39.67C1673.06,919,1673.28,913.62,1678.2,910.82Z" transform="translate(-1143.66 -821.58)"/><path class="cls-6" d="M1727.69,895.7c-4.91,2.8-4.91-2.9-10,0s-4.16,20.61-10.59,24.28-5.86-13.73-10-11.36-3.77,9.39-8.88,12.3-7.56-6.22-17.2-.72l69.57-39.67C1732.79,885,1732.61,892.89,1727.69,895.7Z" transform="translate(-1143.66 -821.58)"/><path class="cls-32" d="M1727.12,890.94c-4,3.59-5.2.53-13.5,5.93-4.92,3.21-3,9.79-7.4,10.75s-6.48-2.43-10.64-.06-3.48,4.92-8.59,7.83-6.37-.68-16,4.82l69.57-39.67C1732.79,885,1731.36,887.16,1727.12,890.94Z" transform="translate(-1143.66 -821.58)"/><polygon class="cls-33" points="515.88 123.74 515.7 123.79 515.7 101.91 515.88 101.86 515.88 123.74"/><polygon class="cls-34" points="535.11 113.02 534.94 113.06 534.94 86.88 535.11 86.85 535.11 113.02"/><polygon class="cls-6" points="602.67 55.8 515.87 105.29 515.87 105.03 602.67 55.53 602.67 55.8"/><path class="cls-6" d="M1678.68,907.47c.26,0,.48.35.48.77s-.22.78-.48.78-.48-.35-.48-.78S1678.41,907.47,1678.68,907.47Z" transform="translate(-1143.66 -821.58)"/><polygon class="cls-35" points="557 108.82 556.83 108.88 556.83 60.7 557 60.64 557 108.82"/><path class="cls-6" d="M1700.57,881.26c.27,0,.48.35.48.78s-.21.77-.48.77-.48-.35-.48-.77S1700.3,881.26,1700.57,881.26Z" transform="translate(-1143.66 -821.58)"/><polygon class="cls-36" points="574.84 96.76 574.67 96.81 574.67 58.98 574.84 58.93 574.84 96.76"/><path class="cls-6" d="M1718.41,879.56c.27,0,.48.35.48.77s-.21.78-.48.78-.48-.35-.48-.78S1718.14,879.56,1718.41,879.56Z" transform="translate(-1143.66 -821.58)"/><polygon class="cls-37" points="592.82 90.87 592.64 90.92 592.64 58.31 592.82 58.26 592.82 90.87"/><path class="cls-6" d="M1736.38,878.88c.27,0,.49.35.49.78s-.22.77-.49.77-.48-.34-.48-.77S1736.12,878.88,1736.38,878.88Z" transform="translate(-1143.66 -821.58)"/><polygon class="cls-38" points="602.76 85.8 602.59 85.84 602.59 48.03 602.76 47.97 602.76 85.8"/><path class="cls-6" d="M1746.33,868.6c.26,0,.48.35.48.78s-.22.77-.48.77-.48-.35-.48-.77S1746.06,868.6,1746.33,868.6Z" transform="translate(-1143.66 -821.58)"/><path class="cls-6" d="M1659.44,922c.27,0,.49.35.49.78s-.22.78-.49.78-.48-.35-.48-.78S1659.18,922,1659.44,922Z" transform="translate(-1143.66 -821.58)"/><polygon class="cls-6" points="597.76 31.83 604.62 27.85 604.62 28.92 597.76 32.89 597.76 31.83"/><polygon class="cls-6" points="596.5 32.56 596.5 33.62 590.54 37.08 590.54 36.02 596.5 32.56"/><polygon class="cls-6" points="600.88 32.41 604.62 30.25 604.62 31.31 600.88 33.47 600.88 32.41"/><polygon class="cls-6" points="595.6 35.48 595.6 36.54 590.54 39.48 590.54 38.41 595.6 35.48"/><polygon class="cls-6" points="596.44 34.99 600.36 32.72 600.36 33.78 596.44 36.05 596.44 34.99"/><polygon class="cls-6" points="600.88 27.64 604.62 25.48 604.62 26.54 600.88 28.71 600.88 27.64"/><polygon class="cls-6" points="595.6 30.71 595.6 31.77 590.54 34.71 590.54 33.65 595.6 30.71"/><polygon class="cls-6" points="596.44 30.23 600.36 27.95 600.36 29.01 596.44 31.29 596.44 30.23"/><polygon class="cls-6" points="590.54 26.48 604.62 18.31 604.62 19.38 590.54 27.54 590.54 26.48"/><polygon class="cls-6" points="600 23.38 604.62 20.71 604.62 21.77 600 24.44 600 23.38"/><polygon class="cls-6" points="598.29 24.38 598.29 25.44 590.54 29.93 590.54 28.88 598.29 24.38"/><polygon class="cls-6" points="590.54 31.27 604.62 23.1 604.62 24.16 590.54 32.33 590.54 31.27"/><g class="cls-5"><path class="cls-6" d="M1220.45,1459.78c24.43-12.89,63.66-12.25,87.62,1.41s23.56,35.2-.87,48.09-63.66,12.24-87.62-1.42S1196,1472.66,1220.45,1459.78Z" transform="translate(-1143.66 -821.58)"/><path class="cls-7" d="M1221.06,1460.13c24.09-12.7,62.76-12.08,86.38,1.39s23.23,34.7-.85,47.4-62.76,12.08-86.38-1.4S1197,1472.83,1221.06,1460.13Z" transform="translate(-1143.66 -821.58)"/><path class="cls-8" d="M1221.68,1460.48c23.74-12.52,61.86-11.9,85.13,1.38s22.9,34.19-.84,46.71-61.85,11.91-85.13-1.38S1197.93,1473,1221.68,1460.48Z" transform="translate(-1143.66 -821.58)"/><path class="cls-9" d="M1222.29,1460.83c23.39-12.34,61-11.73,83.9,1.36s22.56,33.7-.83,46-61,11.73-83.9-1.36S1198.89,1473.16,1222.29,1460.83Z" transform="translate(-1143.66 -821.58)"/><path class="cls-10" d="M1222.9,1461.18c23-12.16,60.06-11.56,82.66,1.34s22.23,33.2-.82,45.35-60,11.56-82.65-1.34S1199.85,1473.33,1222.9,1461.18Z" transform="translate(-1143.66 -821.58)"/><path class="cls-11" d="M1223.52,1461.53c22.7-12,59.15-11.38,81.41,1.32s21.9,32.7-.8,44.67-59.15,11.38-81.41-1.32S1200.81,1473.5,1223.52,1461.53Z" transform="translate(-1143.66 -821.58)"/><path class="cls-12" d="M1224.13,1461.88c22.36-11.79,58.26-11.21,80.18,1.3s21.56,32.2-.79,44-58.26,11.21-80.18-1.3S1201.77,1473.67,1224.13,1461.88Z" transform="translate(-1143.66 -821.58)"/><path class="cls-13" d="M1224.75,1462.23c22-11.61,57.35-11,78.93,1.28s21.23,31.7-.78,43.31-57.35,11-78.93-1.28S1202.73,1473.84,1224.75,1462.23Z" transform="translate(-1143.66 -821.58)"/><path class="cls-14" d="M1225.36,1462.58c21.67-11.42,56.45-10.86,77.7,1.26s20.89,31.21-.77,42.63-56.45,10.86-77.7-1.26S1203.69,1474,1225.36,1462.58Z" transform="translate(-1143.66 -821.58)"/><path class="cls-15" d="M1226,1462.93c21.31-11.24,55.55-10.69,76.45,1.24s20.56,30.71-.76,41.95-55.54,10.69-76.45-1.24S1204.65,1474.17,1226,1462.93Z" transform="translate(-1143.66 -821.58)"/><path class="cls-16" d="M1226.59,1463.28c21-11.06,54.65-10.51,75.21,1.22s20.23,30.21-.74,41.27-54.65,10.51-75.21-1.22S1205.61,1474.34,1226.59,1463.28Z" transform="translate(-1143.66 -821.58)"/><path class="cls-17" d="M1227.2,1463.63c20.63-10.88,53.75-10.34,74,1.2s19.89,29.71-.73,40.59-53.75,10.34-74-1.2S1206.57,1474.51,1227.2,1463.63Z" transform="translate(-1143.66 -821.58)"/><path class="cls-18" d="M1227.82,1464c20.28-10.69,52.84-10.17,72.73,1.18s19.56,29.21-.72,39.91-52.84,10.16-72.73-1.18S1207.53,1474.68,1227.82,1464Z" transform="translate(-1143.66 -821.58)"/><path class="cls-19" d="M1228.43,1464.33c19.94-10.51,52-10,71.49,1.16s19.23,28.72-.7,39.23-52,10-71.49-1.16S1208.49,1474.84,1228.43,1464.33Z" transform="translate(-1143.66 -821.58)"/><path class="cls-20" d="M1229.05,1464.68c19.59-10.33,51-9.82,70.25,1.14s18.89,28.22-.7,38.55-51,9.82-70.25-1.14S1209.45,1475,1229.05,1464.68Z" transform="translate(-1143.66 -821.58)"/><path class="cls-21" d="M1229.66,1465c19.24-10.14,50.14-9.64,69,1.12s18.56,27.72-.68,37.87-50.14,9.64-69-1.12S1210.41,1475.18,1229.66,1465Z" transform="translate(-1143.66 -821.58)"/><path class="cls-22" d="M1230.28,1465.38c18.89-10,49.24-9.47,67.76,1.1s18.23,27.22-.66,37.19-49.24,9.47-67.77-1.1S1211.37,1475.35,1230.28,1465.38Z" transform="translate(-1143.66 -821.58)"/></g><path class="cls-39" d="M1298.18,1453.31c-19-11-49.74-11-68.71,0-9.26,5.35-14,12.31-14.22,19.32q-.18,6,0,12c.22,7,5,14,14.22,19.31,19,11,49.74,11,68.71,0,9.26-5.34,14-12.31,14.22-19.31q.18-6,0-12C1312.18,1465.62,1307.44,1458.66,1298.18,1453.31Z" transform="translate(-1143.66 -821.58)"/><path class="cls-40" d="M1298.18,1453.31c19,11,19,28.71,0,39.67s-49.74,11-68.71,0-19-28.71,0-39.67S1279.21,1442.36,1298.18,1453.31Z" transform="translate(-1143.66 -821.58)"/><path class="cls-39" d="M1224.37,1465a27.18,27.18,0,0,1,9.82-9c16.37-9.45,42.9-9.45,59.27,0a27.14,27.14,0,0,1,9.81,9h2.47v8.64h0c-.23,6-4.28,12-12.24,16.59-16.37,9.45-42.9,9.45-59.27,0-8-4.59-12-10.57-12.24-16.59h0V1465Z" transform="translate(-1143.66 -821.58)"/><path class="cls-41" d="M1293.46,1447.93c16.37,9.44,16.37,24.77,0,34.22s-42.9,9.45-59.27,0-16.37-24.78,0-34.22S1277.09,1438.47,1293.46,1447.93Z" transform="translate(-1143.66 -821.58)"/><path class="cls-39" d="M1288.68,1449.6c13.72,7.92,13.72,20.77,0,28.69s-36,7.93-49.71,0-13.72-20.77,0-28.69S1275,1441.67,1288.68,1449.6Z" transform="translate(-1143.66 -821.58)"/><path class="cls-42" d="M1228.55,1431.12v32.4c0,5.31,3.39,10.63,10.15,14.68l.06-34.38S1228.53,1436.43,1228.55,1431.12Z" transform="translate(-1143.66 -821.58)"/><path class="cls-43" d="M1247.29,1464.19v-.14h0Z" transform="translate(-1143.66 -821.58)"/><path class="cls-44" d="M1247.8,1429.11v0a5.91,5.91,0,0,1,.11-.92,6.28,6.28,0,0,1,.25-.89c1.57-4.19,6.79-6.11,10.8-6.83a25.6,25.6,0,0,1,13.76,1.19,16.81,16.81,0,0,1,2.3,1.1l0,35a16.81,16.81,0,0,0-2.3-1.1,25.5,25.5,0,0,0-13.51-1.23c-3.85.65-8.64,2.33-10.68,6a6.12,6.12,0,0,0-.48.91c-.06.14-.13.28-.21.43Z" transform="translate(-1143.66 -821.58)"/><polygon class="cls-45" points="95.1 644.55 108.87 636.55 108.87 614.95 95.1 622.96 95.1 644.55"/><polygon class="cls-45" points="131.37 639.43 145.14 631.43 145.14 593.88 131.37 601.88 131.37 639.43"/><path class="cls-46" d="M1238.57,1415.44c-13.07,9.22-13.75,21.07.17,29.1l13.78-8c-6.25-3.61-6.29-9.46-.07-13.08s16.32-3.61,22.58,0l13.78-8C1274.9,1407.41,1252.52,1405.61,1238.57,1415.44Z" transform="translate(-1143.66 -821.58)"/><path class="cls-39" d="M1275,1427.05v30.22l.18.23a11.48,11.48,0,0,1,2.78,2.3v1.11l1.53,1.87,5.31,6.53v-48Z" transform="translate(-1143.66 -821.58)"/><path class="cls-40" d="M1288.81,1419l-13.78,8c5,2.89,6.19,7.1,3,10.74l17.45,5.14C1302.56,1434.78,1300,1425.42,1288.81,1419Z" transform="translate(-1143.66 -821.58)"/><path class="cls-47" d="M1299.38,1434.79s0,.08,0,.12q-.06.42-.15.84a.36.36,0,0,1,0,.1c0,.29-.13.58-.21.87l0,.17c-.09.29-.18.57-.29.87a.61.61,0,0,1-.05.12c-.12.31-.24.62-.39.93v0q-.23.47-.48.93l-.09.18a2.26,2.26,0,0,0-.16.26c-.06.1-.13.2-.19.31s-.11.18-.17.26l-.2.31-.19.26-.21.3-.21.26c-.06.09-.13.17-.2.26-.19.25-.39.49-.6.73l-.06,30.28c.22-.24.42-.48.61-.73l.07-.09a1.09,1.09,0,0,0,.13-.17,2.56,2.56,0,0,0,.2-.26l.22-.3.19-.27c.07-.09.13-.2.2-.3l.17-.26.18-.31.16-.26a.41.41,0,0,0,0-.09l.05-.09c.17-.31.33-.62.48-.92a.06.06,0,0,1,0,0c.14-.3.27-.61.39-.92l0-.08a.09.09,0,0,1,0,0c.11-.29.2-.57.28-.86l.06-.17c.07-.29.15-.59.21-.88v0a.17.17,0,0,0,0-.07,8.13,8.13,0,0,0,.13-.84.5.5,0,0,0,0-.12c0-.29,0-.58.07-.87v-.08c0-.11.07-.21.07-.31l.13-30.25v0c0,.13-.08.26-.08.39C1299.46,1434.21,1299.41,1434.5,1299.38,1434.79Z" transform="translate(-1143.66 -821.58)"/><polygon class="cls-48" points="134.32 646.3 134.32 646.45 151.67 651.56 151.77 651.59 151.77 651.59 151.77 651.43 151.8 633.11 151.82 621.31 151.82 621.11 141.18 617.97 134.38 615.97 134.35 633.88 134.34 638.22 134.33 639.33 134.32 646.3"/><path class="cls-45" d="M1292.7,1456.18c-7.38,6.24-18.36,9.93-27.79,10h-.2v18s.8,0,1.2,0c9.67-.33,20.6-2.78,27.91-9.55a20.71,20.71,0,0,0,1.6-1.66l.06-19.47A22,22,0,0,1,1292.7,1456.18Z" transform="translate(-1143.66 -821.58)"/><path class="cls-46" d="M1264.7,1453.41v12.81h.21a45.9,45.9,0,0,0,27.79-10,22,22,0,0,0,2.78-2.66l-17.45-5.14C1275.36,1451.42,1270.19,1453.24,1264.7,1453.41Z" transform="translate(-1143.66 -821.58)"/><path class="cls-40" d="M1263,1471.74a48,48,0,0,1-23.21-5.44c-.35-.19-.7-.38-1-.59l0,12.49c7.09,4.1,15.48,5.8,23.61,6,.81,0,1.44,0,2.41,0v-12.48Z" transform="translate(-1143.66 -821.58)"/><path class="cls-49" d="M1252.53,1457.71l-13.78,8c.34.2.69.39,1,.58a47.64,47.64,0,0,0,23.21,5.44h1.7V1460.4a26,26,0,0,1-8.13-1A17.65,17.65,0,0,1,1252.53,1457.71Z" transform="translate(-1143.66 -821.58)"/><g class="cls-50"><path class="cls-51" d="M1229,1354.81h70.29v108h-.09c.54,5.58-2.83,11.25-10.2,15.51-13.73,7.93-36,7.93-49.71,0-7.37-4.26-10.75-9.93-10.19-15.51h-.1Z" transform="translate(-1143.66 -821.58)"/></g><g class="cls-5"><path class="cls-6" d="M1330.67,1255.45l68.14,37a3.79,3.79,0,0,0,3.69,0l210.61-121-76.41-35.7-206,113.56A3.53,3.53,0,0,0,1330.67,1255.45Z" transform="translate(-1143.66 -821.58)"/><path class="cls-52" d="M1330.72,1255.33l68.12,37a3.77,3.77,0,0,0,3.68,0l210.55-121-76.38-35.69-206,113.53A3.52,3.52,0,0,0,1330.72,1255.33Z" transform="translate(-1143.66 -821.58)"/><path class="cls-53" d="M1330.76,1255.22l68.1,37a3.77,3.77,0,0,0,3.68,0L1613,1171.22l-76.36-35.68L1330.75,1249A3.52,3.52,0,0,0,1330.76,1255.22Z" transform="translate(-1143.66 -821.58)"/><path class="cls-54" d="M1330.8,1255.11l68.08,37a3.77,3.77,0,0,0,3.68,0L1613,1171.13l-76.34-35.67-205.86,113.46A3.53,3.53,0,0,0,1330.8,1255.11Z" transform="translate(-1143.66 -821.58)"/><path class="cls-55" d="M1330.85,1255l68.05,36.94a3.77,3.77,0,0,0,3.68,0L1613,1171l-76.31-35.66-205.8,113.43A3.52,3.52,0,0,0,1330.85,1255Z" transform="translate(-1143.66 -821.58)"/><path class="cls-56" d="M1330.89,1254.88l68,36.93a3.79,3.79,0,0,0,3.68,0L1612.91,1171l-76.29-35.65-205.74,113.4A3.52,3.52,0,0,0,1330.89,1254.88Z" transform="translate(-1143.66 -821.58)"/><path class="cls-57" d="M1330.93,1254.77l68,36.91a3.77,3.77,0,0,0,3.68,0l210.25-120.78-76.27-35.63-205.68,113.36A3.52,3.52,0,0,0,1330.93,1254.77Z" transform="translate(-1143.66 -821.58)"/><path class="cls-58" d="M1331,1254.65l68,36.91a3.77,3.77,0,0,0,3.67,0l210.19-120.75-76.24-35.62L1331,1248.48A3.52,3.52,0,0,0,1331,1254.65Z" transform="translate(-1143.66 -821.58)"/><path class="cls-59" d="M1331,1254.54l68,36.89a3.75,3.75,0,0,0,3.67,0l210.13-120.71-76.22-35.61L1331,1248.37A3.52,3.52,0,0,0,1331,1254.54Z" transform="translate(-1143.66 -821.58)"/><path class="cls-60" d="M1331.06,1254.43l68,36.88a3.77,3.77,0,0,0,3.67,0l210.07-120.68-76.19-35.6-205.51,113.27A3.52,3.52,0,0,0,1331.06,1254.43Z" transform="translate(-1143.66 -821.58)"/><path class="cls-61" d="M1331.1,1254.31l67.93,36.87a3.75,3.75,0,0,0,3.67,0l210-120.64-76.17-35.59L1331.1,1248.15A3.51,3.51,0,0,0,1331.1,1254.31Z" transform="translate(-1143.66 -821.58)"/><path class="cls-62" d="M1331.15,1254.2l67.9,36.86a3.77,3.77,0,0,0,3.67,0l210-120.61-76.15-35.58L1331.14,1248A3.52,3.52,0,0,0,1331.15,1254.2Z" transform="translate(-1143.66 -821.58)"/><path class="cls-63" d="M1331.19,1254.09l67.88,36.84a3.75,3.75,0,0,0,3.67,0l209.89-120.57-76.12-35.57-205.33,113.17A3.52,3.52,0,0,0,1331.19,1254.09Z" transform="translate(-1143.66 -821.58)"/><path class="cls-64" d="M1331.23,1254l67.87,36.84a3.75,3.75,0,0,0,3.66,0l209.83-120.54-76.1-35.56-205.26,113.14A3.51,3.51,0,0,0,1331.23,1254Z" transform="translate(-1143.66 -821.58)"/><path class="cls-65" d="M1331.28,1253.86l67.84,36.83a3.75,3.75,0,0,0,3.66,0l209.77-120.5-76.08-35.54-205.2,113.1A3.51,3.51,0,0,0,1331.28,1253.86Z" transform="translate(-1143.66 -821.58)"/><path class="cls-66" d="M1331.32,1253.75l67.82,36.81a3.77,3.77,0,0,0,3.67,0l209.7-120.47-76-35.53-205.15,113.07A3.51,3.51,0,0,0,1331.32,1253.75Z" transform="translate(-1143.66 -821.58)"/><path class="cls-67" d="M1331.36,1253.64l67.8,36.8a3.77,3.77,0,0,0,3.67,0L1612.47,1170l-76-35.52-205.09,113A3.51,3.51,0,0,0,1331.36,1253.64Z" transform="translate(-1143.66 -821.58)"/><path class="cls-68" d="M1331.4,1253.52l67.78,36.79a3.77,3.77,0,0,0,3.67,0l209.58-120.4-76-35.51-205,113A3.51,3.51,0,0,0,1331.4,1253.52Z" transform="translate(-1143.66 -821.58)"/><path class="cls-69" d="M1331.45,1253.41l67.75,36.78a3.77,3.77,0,0,0,3.67,0l209.52-120.36-76-35.5-205,113A3.5,3.5,0,0,0,1331.45,1253.41Z" transform="translate(-1143.66 -821.58)"/><path class="cls-70" d="M1331.49,1253.3l67.74,36.76a3.75,3.75,0,0,0,3.66,0l209.46-120.33-76-35.49-204.91,112.94A3.51,3.51,0,0,0,1331.49,1253.3Z" transform="translate(-1143.66 -821.58)"/><path class="cls-71" d="M1331.53,1253.18l67.72,36.76a3.75,3.75,0,0,0,3.66,0l209.4-120.29-75.93-35.48L1331.53,1247A3.51,3.51,0,0,0,1331.53,1253.18Z" transform="translate(-1143.66 -821.58)"/><path class="cls-22" d="M1331.58,1253.07l67.69,36.74a3.75,3.75,0,0,0,3.66,0l209.34-120.26L1536.36,1134l-204.79,112.88A3.5,3.5,0,0,0,1331.58,1253.07Z" transform="translate(-1143.66 -821.58)"/></g><path class="cls-72" d="M1331.5,1248.46l65.9,35.77a3.67,3.67,0,0,0,3.56,0l187.66-107.61-73.9-34.52L1331.5,1242.47A3.42,3.42,0,0,0,1331.5,1248.46Z" transform="translate(-1143.66 -821.58)"/><path class="cls-72" d="M1329,1245.92v0l3.16,1.76.82-2.43,199.37-109.59,14.58-126,.51-4.4,1.59-.22,1.87-4.88-3-2.07v0a.64.64,0,0,0-.68,0l-200.84,115.58a6.19,6.19,0,0,0-3.14,4.64l-1.62,13-13.95,111.78A2.66,2.66,0,0,0,1329,1245.92Z" transform="translate(-1143.66 -821.58)"/><path class="cls-73" d="M1335,1247.83l200.63-110.29,14.15-122.28.67-5.75,1-8.38a.92.92,0,0,0-1.38-.9l-1.91,1.11-201.22,115.72-2,16.32L1331,1244.93A2.76,2.76,0,0,0,1335,1247.83Z" transform="translate(-1143.66 -821.58)"/><path class="cls-23" d="M1341.6,1131.29l3.31,2.09L1542.3,1012.5l4.61-2.82.51-4.4,1.59-.22,1.87-4.88-3-2.07v0a.64.64,0,0,0-.68,0l-200.84,115.58a6.19,6.19,0,0,0-3.14,4.64Z" transform="translate(-1143.66 -821.58)"/><path class="cls-74" d="M1344.91,1133.38l204.9-118.12.39-.22a5.7,5.7,0,0,0,1.5-1.21l-1.22-4.32-2.32-8.17-201.22,115.72Z" transform="translate(-1143.66 -821.58)"/><path class="cls-39" d="M1345.86,1118.13l5.53,19,40.76,140.56a5.37,5.37,0,0,0,2.8,3.32l7.65,4.1,3.75-7.83,191.56-110.42a5.84,5.84,0,0,0,2.71-6.69l-42.63-150-.5-1.74,2.39-8.4-6.6-3.5h0a4.16,4.16,0,0,0-4.66-.32l-200.35,115.89A5.22,5.22,0,0,0,1345.86,1118.13Z" transform="translate(-1143.66 -821.58)"/><path class="cls-75" d="M1353,1122l5.94,20.5,40.33,139.11a5.45,5.45,0,0,0,7.94,3.21l197.83-114a5.87,5.87,0,0,0,2.72-6.69L1567.36,1022l-5.52-19.39a4.19,4.19,0,0,0-6.12-2.48L1355.37,1116A5.22,5.22,0,0,0,1353,1122Z" transform="translate(-1143.66 -821.58)"/><path class="cls-23" d="M1345.86,1118.13l5.53,19,7.53,5.29L1558,1010.25l-.5-1.74,2.39-8.4-6.6-3.5h0a4.16,4.16,0,0,0-4.66-.32l-200.35,115.89A5.22,5.22,0,0,0,1345.86,1118.13Z" transform="translate(-1143.66 -821.58)"/><path class="cls-76" d="M1353,1122l5.94,20.5,206.93-119.27a5.92,5.92,0,0,0,1.51-1.21l-5.52-19.39a4.19,4.19,0,0,0-6.12-2.48L1355.37,1116A5.22,5.22,0,0,0,1353,1122Z" transform="translate(-1143.66 -821.58)"/><polygon class="cls-77" points="307.34 355.29 275.38 372.95 270.66 358.67 302.64 340.98 307.34 355.29"/><polygon class="cls-6" points="429.14 323.73 286.25 404.76 285.6 402.85 428.53 321.83 429.14 323.73"/><polygon class="cls-6" points="419.13 292.72 275.79 373.8 275.15 371.89 418.51 290.81 419.13 292.72"/><polygon class="cls-6" points="409.07 261.56 265.28 342.68 264.64 340.76 408.44 259.63 409.07 261.56"/><polygon class="cls-6" points="398.95 230.21 254.71 311.39 254.06 309.45 398.32 228.28 398.95 230.21"/><polygon class="cls-6" points="434.34 339.84 291.68 420.83 291.04 418.94 433.73 337.94 434.34 339.84"/><polygon class="cls-6" points="424.36 308.91 281.25 389.97 280.61 388.06 423.74 307.01 424.36 308.91"/><polygon class="cls-6" points="414.32 277.83 270.77 358.93 270.13 357.01 413.7 275.92 414.32 277.83"/><polygon class="cls-6" points="404.23 246.58 260.23 327.72 259.59 325.8 403.61 244.65 404.23 246.58"/><polygon class="cls-6" points="405.13 371.74 403.6 372.61 361.06 242.34 362.61 241.47 405.13 371.74"/><polygon class="cls-6" points="328.32 415.47 326.79 416.34 283.07 286.2 284.63 285.33 328.32 415.47"/><polygon class="cls-6" points="297.05 433.28 295.51 434.15 251.31 304.07 252.87 303.19 297.05 433.28"/><polygon class="cls-6" points="397.99 221.57 439.97 351.9 438.45 352.77 396.44 222.44 397.99 221.57"/><polygon class="cls-6" points="366.67 393.64 365.13 394.51 321.94 264.13 323.5 263.24 366.67 393.64"/><polygon class="cls-6" points="389.74 239.6 390.04 240.53 388.39 241.46 388.09 240.52 389.74 239.6"/><polygon class="cls-6" points="395.55 236.24 395.86 237.17 390.61 240.22 390.3 239.29 395.55 236.24"/><polygon class="cls-6" points="387.59 241.91 380.49 245.87 380.18 244.94 387.28 240.97 387.59 241.91"/><polygon class="cls-6" points="379.21 246.59 374.18 249.4 373.87 248.47 378.9 245.65 379.21 246.59"/><polygon class="cls-6" points="373.23 249.93 370.69 251.35 370.37 250.42 372.91 249 373.23 249.93"/><polygon class="cls-6" points="389.76 244.62 379.56 250.33 379.25 249.4 389.45 243.69 389.76 244.62"/><polygon class="cls-6" points="373.68 253.62 371.81 254.67 371.5 253.74 373.37 252.69 373.68 253.62"/><polygon class="cls-6" points="378.4 250.98 374.47 253.18 374.15 252.25 378.09 250.05 378.4 250.98"/><polygon class="cls-6" points="396.63 239.57 396.93 240.5 390.63 244.13 390.33 243.21 396.63 239.57"/><polygon class="cls-6" points="396.4 238.85 385.81 244.88 385.5 243.95 396.1 237.92 396.4 238.85"/><polygon class="cls-6" points="384.61 245.55 376.81 249.92 376.5 248.99 384.31 244.62 384.61 245.55"/><polygon class="cls-6" points="389.19 246.8 382.12 250.76 381.81 249.84 388.88 245.87 389.19 246.8"/><polygon class="cls-6" points="380.84 251.47 377.89 253.13 377.57 252.21 380.54 250.55 380.84 251.47"/><polygon class="cls-6" points="397.14 241.14 397.44 242.07 389.99 246.35 389.69 245.43 397.14 241.14"/><polygon class="cls-6" points="395.28 256.59 395.58 257.52 393.93 258.44 393.63 257.51 395.28 256.59"/><polygon class="cls-6" points="401.09 253.23 401.39 254.16 396.15 257.2 395.84 256.27 401.09 253.23"/><polygon class="cls-6" points="393.13 258.89 386.03 262.86 385.72 261.93 392.82 257.96 393.13 258.89"/><polygon class="cls-6" points="384.75 263.57 379.72 266.38 379.4 265.45 384.44 262.64 384.75 263.57"/><polygon class="cls-6" points="378.77 266.91 376.23 268.33 375.91 267.4 378.45 265.98 378.77 266.91"/><polygon class="cls-6" points="395.3 261.61 385.1 267.31 384.79 266.38 394.99 260.68 395.3 261.61"/><polygon class="cls-6" points="379.22 270.61 377.35 271.65 377.04 270.72 378.91 269.68 379.22 270.61"/><polygon class="cls-6" points="383.94 267.96 380.01 270.17 379.69 269.24 383.63 267.04 383.94 267.96"/><polygon class="cls-6" points="402.17 256.55 402.47 257.48 396.17 261.12 395.87 260.19 402.17 256.55"/><polygon class="cls-6" points="401.94 255.84 391.35 261.87 391.04 260.94 401.64 254.91 401.94 255.84"/><polygon class="cls-6" points="390.15 262.54 382.35 266.9 382.04 265.97 389.85 261.61 390.15 262.54"/><polygon class="cls-6" points="394.73 263.78 387.66 267.75 387.35 266.82 394.42 262.86 394.73 263.78"/><polygon class="cls-6" points="386.38 268.46 383.42 270.12 383.11 269.19 386.07 267.53 386.38 268.46"/><polygon class="cls-6" points="402.68 258.13 402.98 259.05 395.53 263.34 395.23 262.41 402.68 258.13"/><polygon class="cls-6" points="400.5 272.6 400.8 273.53 399.15 274.46 398.85 273.52 400.5 272.6"/><polygon class="cls-6" points="406.31 269.24 406.62 270.17 401.37 273.22 401.06 272.29 406.31 269.24"/><polygon class="cls-6" points="398.35 274.91 391.25 278.87 390.95 277.94 398.04 273.97 398.35 274.91"/><polygon class="cls-6" points="389.98 279.59 384.94 282.4 384.63 281.47 389.66 278.65 389.98 279.59"/><polygon class="cls-6" points="383.99 282.93 381.45 284.35 381.13 283.42 383.68 282 383.99 282.93"/><polygon class="cls-6" points="400.52 277.62 390.32 283.33 390.01 282.4 400.22 276.69 400.52 277.62"/><polygon class="cls-6" points="384.44 286.62 382.57 287.67 382.26 286.74 384.13 285.69 384.44 286.62"/><polygon class="cls-6" points="389.16 283.98 385.23 286.18 384.92 285.25 388.85 283.05 389.16 283.98"/><polygon class="cls-6" points="407.39 272.57 407.69 273.5 401.39 277.13 401.09 276.2 407.39 272.57"/><polygon class="cls-6" points="407.16 271.85 396.57 277.88 396.26 276.95 406.86 270.92 407.16 271.85"/><polygon class="cls-6" points="395.37 278.55 387.57 282.92 387.26 281.99 395.07 277.62 395.37 278.55"/><polygon class="cls-6" points="399.95 279.8 392.88 283.76 392.57 282.83 399.65 278.87 399.95 279.8"/><polygon class="cls-6" points="391.6 284.48 388.65 286.13 388.34 285.21 391.3 283.55 391.6 284.48"/><polygon class="cls-6" points="407.9 274.14 408.2 275.07 400.75 279.35 400.45 278.43 407.9 274.14"/><polygon class="cls-6" points="405.72 288.62 406.03 289.55 404.37 290.47 404.07 289.54 405.72 288.62"/><polygon class="cls-6" points="411.54 285.26 411.84 286.19 406.59 289.23 406.29 288.3 411.54 285.26"/><polygon class="cls-6" points="403.57 290.92 396.48 294.88 396.17 293.95 403.27 289.99 403.57 290.92"/><polygon class="cls-6" points="395.2 295.6 390.16 298.41 389.85 297.48 394.89 294.67 395.2 295.6"/><polygon class="cls-6" points="389.21 298.94 386.67 300.37 386.36 299.43 388.9 298.01 389.21 298.94"/><polygon class="cls-6" points="405.74 293.64 395.55 299.34 395.24 298.42 405.44 292.71 405.74 293.64"/><polygon class="cls-6" points="389.67 302.63 387.8 303.68 387.48 302.75 389.35 301.71 389.67 302.63"/><polygon class="cls-6" points="394.38 299.99 390.45 302.2 390.14 301.27 394.07 299.07 394.38 299.99"/><polygon class="cls-6" points="412.61 288.58 412.92 289.51 406.61 293.15 406.31 292.22 412.61 288.58"/><polygon class="cls-6" points="412.38 287.87 401.79 293.9 401.49 292.97 412.08 286.94 412.38 287.87"/><polygon class="cls-6" points="400.6 294.57 392.79 298.93 392.48 298 400.29 293.64 400.6 294.57"/><polygon class="cls-6" points="405.17 295.81 398.1 299.78 397.79 298.85 404.87 294.89 405.17 295.81"/><polygon class="cls-6" points="396.83 300.49 393.87 302.15 393.56 301.22 396.52 299.56 396.83 300.49"/><polygon class="cls-6" points="413.13 290.16 413.42 291.08 405.97 295.37 405.67 294.44 413.13 290.16"/><polygon class="cls-6" points="410.94 304.63 411.25 305.56 409.6 306.49 409.29 305.56 410.94 304.63"/><polygon class="cls-6" points="416.76 301.27 417.06 302.2 411.81 305.25 411.51 304.32 416.76 301.27"/><polygon class="cls-6" points="408.8 306.94 401.7 310.9 401.39 309.97 408.49 306 408.8 306.94"/><polygon class="cls-6" points="400.42 311.62 395.39 314.43 395.07 313.5 400.11 310.69 400.42 311.62"/><polygon class="cls-6" points="394.44 314.96 391.89 316.38 391.58 315.45 394.12 314.03 394.44 314.96"/><polygon class="cls-6" points="410.96 309.65 400.77 315.36 400.46 314.43 410.66 308.72 410.96 309.65"/><polygon class="cls-6" points="394.89 318.65 393.02 319.7 392.7 318.77 394.58 317.72 394.89 318.65"/><polygon class="cls-6" points="399.61 316.01 395.67 318.21 395.36 317.28 399.3 315.08 399.61 316.01"/><polygon class="cls-6" points="417.84 304.6 418.14 305.53 411.83 309.16 411.53 308.24 417.84 304.6"/><polygon class="cls-6" points="417.61 303.88 407.01 309.91 406.71 308.98 417.3 302.95 417.61 303.88"/><polygon class="cls-6" points="405.82 310.58 398.01 314.95 397.7 314.02 405.51 309.65 405.82 310.58"/><polygon class="cls-6" points="410.39 311.83 403.32 315.79 403.02 314.87 410.09 310.9 410.39 311.83"/><polygon class="cls-6" points="402.05 316.51 399.09 318.16 398.78 317.24 401.74 315.58 402.05 316.51"/><polygon class="cls-6" points="418.35 306.17 418.65 307.1 411.19 311.38 410.89 310.45 418.35 306.17"/><polygon class="cls-6" points="415.16 317.56 415.46 318.5 413.81 319.42 413.51 318.49 415.16 317.56"/><polygon class="cls-6" points="420.98 314.2 421.28 315.14 416.03 318.18 415.73 317.25 420.98 314.2"/><polygon class="cls-6" points="413.01 319.87 405.92 323.83 405.61 322.9 412.7 318.93 413.01 319.87"/><polygon class="cls-6" points="404.64 324.55 399.6 327.36 399.29 326.43 404.32 323.62 404.64 324.55"/><polygon class="cls-6" points="398.65 327.89 396.11 329.31 395.79 328.38 398.34 326.96 398.65 327.89"/><polygon class="cls-6" points="415.18 322.58 404.99 328.29 404.68 327.36 414.88 321.65 415.18 322.58"/><polygon class="cls-6" points="399.11 331.58 397.24 332.63 396.92 331.7 398.79 330.65 399.11 331.58"/><polygon class="cls-6" points="403.82 328.94 399.89 331.14 399.58 330.21 403.51 328.01 403.82 328.94"/><polygon class="cls-6" points="422.05 317.53 422.36 318.46 416.05 322.09 415.75 321.17 422.05 317.53"/><polygon class="cls-6" points="421.82 316.81 411.23 322.84 410.93 321.91 421.52 315.88 421.82 316.81"/><polygon class="cls-6" points="410.04 323.51 402.23 327.88 401.92 326.95 409.73 322.58 410.04 323.51"/><polygon class="cls-6" points="414.61 324.76 407.54 328.72 407.23 327.8 414.31 323.83 414.61 324.76"/><polygon class="cls-6" points="406.26 329.44 403.31 331.09 403 330.17 405.96 328.51 406.26 329.44"/><polygon class="cls-6" points="422.56 319.1 422.86 320.03 415.41 324.31 415.11 323.39 422.56 319.1"/><polygon class="cls-6" points="420.38 333.58 420.69 334.51 419.04 335.43 418.73 334.5 420.38 333.58"/><polygon class="cls-6" points="426.2 330.22 426.5 331.15 421.25 334.19 420.95 333.26 426.2 330.22"/><polygon class="cls-6" points="418.23 335.88 411.14 339.85 410.83 338.92 417.93 334.95 418.23 335.88"/><polygon class="cls-6" points="409.86 340.56 404.82 343.37 404.51 342.44 409.55 339.63 409.86 340.56"/><polygon class="cls-6" points="403.88 343.9 401.33 345.33 401.02 344.39 403.56 342.98 403.88 343.9"/><polygon class="cls-6" points="420.4 338.6 410.21 344.31 409.9 343.38 420.1 337.67 420.4 338.6"/><polygon class="cls-6" points="404.33 347.6 402.46 348.64 402.14 347.71 404.02 346.67 404.33 347.6"/><polygon class="cls-6" points="409.05 344.95 405.11 347.16 404.8 346.23 408.74 344.03 409.05 344.95"/><polygon class="cls-6" points="427.28 333.55 427.58 334.47 421.27 338.11 420.97 337.18 427.28 333.55"/><polygon class="cls-6" points="427.05 332.83 416.45 338.86 416.15 337.93 426.74 331.9 427.05 332.83"/><polygon class="cls-6" points="415.26 339.53 407.45 343.89 407.14 342.96 414.95 338.6 415.26 339.53"/><polygon class="cls-6" points="419.83 340.78 412.76 344.74 412.45 343.81 419.53 339.85 419.83 340.78"/><polygon class="cls-6" points="411.49 345.45 408.53 347.11 408.22 346.18 411.18 344.53 411.49 345.45"/><polygon class="cls-6" points="427.79 335.12 428.09 336.05 420.63 340.33 420.33 339.4 427.79 335.12"/><polygon class="cls-78" points="334.71 352.07 325.95 356.93 325.19 354.68 333.96 349.83 334.71 352.07"/><polygon class="cls-79" points="335.3 346.95 324.58 352.88 323.83 350.62 334.55 344.69 335.3 346.95"/><polygon class="cls-80" points="362.66 301.4 353.9 306.26 353.14 304.01 361.91 299.15 362.66 301.4"/><polygon class="cls-81" points="363.25 296.28 352.53 302.2 351.78 299.95 362.5 294.02 363.25 296.28"/><polygon class="cls-46" points="384.03 337.47 384.61 339.36 357.28 354.79 356.68 352.91 384.03 337.47"/><polygon class="cls-46" points="384.63 341.12 385.21 343 364.97 354.45 364.38 352.56 384.63 341.12"/><polygon class="cls-82" points="388.28 335.07 389.9 340.35 387.73 341.58 386.11 336.3 388.28 335.07"/><polygon class="cls-46" points="318.48 281.02 319.07 282.91 291.73 298.35 291.13 296.46 318.48 281.02"/><polygon class="cls-46" points="319.08 284.68 319.66 286.56 299.43 298 298.83 296.12 319.08 284.68"/><polygon class="cls-83" points="322.73 278.62 324.36 283.91 322.19 285.13 320.56 279.85 322.73 278.62"/><polygon class="cls-84" points="367.15 324.22 367.17 328.44 364.89 330.65 367.56 332.16 368.38 336.26 369.99 332.98 372.78 333.3 371.12 329.77 372.02 325.87 369.38 326.96 367.15 324.22"/><polygon class="cls-85" points="302.44 396.69 302.48 400.9 300.2 403.11 302.86 404.62 303.68 408.72 305.29 405.44 308.08 405.76 306.42 402.23 307.31 398.33 304.68 399.42 302.44 396.69"/><polygon class="cls-86" points="275.78 320.26 275.81 324.48 273.53 326.68 276.19 328.19 277.01 332.3 278.63 329.01 281.41 329.34 279.75 325.8 280.65 321.9 278.01 323 275.78 320.26"/><path class="cls-87" d="M1384.12,1118a6.76,6.76,0,0,0,3.14-5.39c0-2-1.45-2.82-3.2-1.83a6.73,6.73,0,0,0-3.14,5.38C1380.93,1118.13,1382.36,1119,1384.12,1118Z" transform="translate(-1143.66 -821.58)"/><path class="cls-39" d="M1358.82,1088.74a29.59,29.59,0,0,0,4,14.17l3-1.69a26,26,0,0,1-3.55-12.46c0-3.7,1.23-6.43,3.39-7.7s5.23-1,8.52.89c7.43,4.16,13.42,14.41,13.35,22.84,0,3.92-1.42,6.81-3.83,7.92a1.71,1.71,0,0,0,.74,3.26,1.74,1.74,0,0,0,.72-.16c3.63-1.7,5.75-5.71,5.78-11,.07-9.56-6.69-21.15-15.09-25.84-4.4-2.48-8.62-2.77-11.91-.87S1358.86,1083.78,1358.82,1088.74Z" transform="translate(-1143.66 -821.58)"/><path class="cls-87" d="M1429.19,1092.19a6.71,6.71,0,0,0,3.15-5.38c0-2-1.45-2.82-3.2-1.84a6.78,6.78,0,0,0-3.15,5.39C1426,1092.35,1427.44,1093.17,1429.19,1092.19Z" transform="translate(-1143.66 -821.58)"/><path class="cls-39" d="M1403.9,1063a29.59,29.59,0,0,0,4,14.17l3-1.69a26,26,0,0,1-3.55-12.46c0-3.71,1.23-6.44,3.39-7.7s5.22-1,8.52.89c7.42,4.16,13.41,14.4,13.35,22.83,0,3.93-1.42,6.81-3.83,7.92a1.71,1.71,0,0,0,.74,3.26,1.78,1.78,0,0,0,.71-.15c3.64-1.71,5.76-5.72,5.79-11,.07-9.56-6.69-21.15-15.09-25.84-4.4-2.48-8.62-2.77-11.91-.87S1403.94,1058,1403.9,1063Z" transform="translate(-1143.66 -821.58)"/><path class="cls-87" d="M1474.27,1066.42a6.74,6.74,0,0,0,3.15-5.39c0-2-1.45-2.81-3.2-1.83a6.77,6.77,0,0,0-3.15,5.39C1471.09,1066.58,1472.52,1067.4,1474.27,1066.42Z" transform="translate(-1143.66 -821.58)"/><path class="cls-39" d="M1449,1037.2a29.52,29.52,0,0,0,4,14.16l3-1.69a26,26,0,0,1-3.55-12.46c0-3.7,1.22-6.43,3.39-7.69s5.23-1,8.52.88c7.42,4.17,13.41,14.41,13.35,22.84,0,3.93-1.42,6.81-3.83,7.92a1.71,1.71,0,0,0,.74,3.26,1.81,1.81,0,0,0,.71-.15c3.64-1.71,5.76-5.72,5.79-11,.07-9.56-6.69-21.15-15.09-25.85-4.4-2.47-8.62-2.76-11.91-.87S1449,1032.23,1449,1037.2Z" transform="translate(-1143.66 -821.58)"/><path class="cls-87" d="M1519.35,1040.65a6.74,6.74,0,0,0,3.15-5.39c0-2-1.45-2.81-3.2-1.83a6.77,6.77,0,0,0-3.15,5.38C1516.17,1040.81,1517.6,1041.63,1519.35,1040.65Z" transform="translate(-1143.66 -821.58)"/><path class="cls-39" d="M1494.06,1011.42a29.53,29.53,0,0,0,4,14.17l3-1.69a26.17,26.17,0,0,1-3.55-12.46c0-3.7,1.23-6.43,3.4-7.7s5.22-1,8.52.89c7.42,4.17,13.41,14.41,13.35,22.84,0,3.92-1.42,6.81-3.83,7.92a1.71,1.71,0,0,0,.74,3.26,1.66,1.66,0,0,0,.71-.16c3.64-1.7,5.75-5.71,5.79-11,.07-9.55-6.69-21.14-15.09-25.84-4.4-2.47-8.62-2.76-11.91-.87S1494.09,1006.46,1494.06,1011.42Z" transform="translate(-1143.66 -821.58)"/><path class="cls-23" d="M1818.13,1254.2c9.49,44.19-8.11,106.8-39.12,139.45-18.36,19.27-37.37,23.85-51.79,15.22,11.51.14,24.45-6.14,37-19.36,31-32.64,48.65-95.24,39.16-139.44-3.88-18.16-16-31.07-26-36.92C1794.29,1213.21,1812.51,1227.88,1818.13,1254.2Z" transform="translate(-1143.66 -821.58)"/><path class="cls-23" d="M1725.76,1419.62l-15.4-4.28c-8.75-2.45-18-8.18-21.86-12.32-4.38-4.77-7.89-10.2-12.67-22.43l17,2.29S1713.14,1413.25,1725.76,1419.62Z" transform="translate(-1143.66 -821.58)"/><path class="cls-23" d="M1693.8,1368.37c-1.43-14.16-1.66-19.17-1.71-24.23a168.48,168.48,0,0,1,2.35-29.34,185.45,185.45,0,0,1,15.46-49.13c7.34-15.17,16.89-29.71,29.34-41.4,18.51-17.35,45.41-21.13,45.41-21.13L1773,1200c-16.62-4.62-36.13,1.18-54.65,18.53a123.89,123.89,0,0,0-18.36,22,171.1,171.1,0,0,0-21.48,46.91c-4.83,17.21-11.6,49.68-6.23,74.92Z" transform="translate(-1143.66 -821.58)"/><polygon class="cls-23" points="528.66 540.77 492.05 578.32 506.83 582.42 543.4 544.91 528.66 540.77"/><path class="cls-88" d="M1691.52,1384.24c5.84,22.91,22,31.71,34.06,35.32l.78.22c.12,0,.24,0,.36.08a30.37,30.37,0,0,0,4.2.88,9.83,9.83,0,0,0,1.54.2c1,.11,2,.18,3,.21.33,0,2.66,0,3.52-.05.4,0,.82-.06,1.22-.07.78-.08,1.53-.16,2.3-.26l1.44-.22c.58-.1,1.18-.22,1.76-.35.89-.19,3.54-.88,4-1,.68-.19,1.35-.4,2-.65.06,0,6.72-2.8,7.26-3,1-.53,2.06-1.08,3.12-1.69s2.24-1.28,3.36-2a83.14,83.14,0,0,0,8.86-6.67c1-.85,2-1.77,3-2.7l1.69-1.6c36.2-35.18,55.43-103.72,42.89-152.87-.2-.79-.41-1.56-.61-2.33-.42-1.48-.88-2.93-1.34-4.36-.24-.72-.48-1.42-.73-2.12-.49-1.4-1-2.75-1.56-4.07a76.27,76.27,0,0,0-3.55-7.42c-.64-1.15-1.31-2.3-2-3.37s-1.36-2.11-2.07-3.12a49.46,49.46,0,0,0-4.57-5.55,41.09,41.09,0,0,0-20.22-12.28c-15.72-3.91-34.14,2.16-51.77,19.28-31.93,31-52.34,81.63-46.54,143.88l-39.08,40.23,13.06,9.12Zm6.94-27.93a180.71,180.71,0,0,1,5.92-59.67c7.59-27,20.63-50.55,36.76-66.21,14.18-13.78,28.95-19.66,41.54-16.5q8.19,2,15,9.26a41.23,41.23,0,0,1,3.47,4.24c.62.86,1.21,1.76,1.78,2.66s1.14,1.91,1.64,2.81a64.43,64.43,0,0,1,3,6.31c.48,1.15.94,2.35,1.36,3.55l.63,1.8c.43,1.31.84,2.67,1.2,3.93.19.7.38,1.44.58,2.15,5.58,21.94,4.49,48.95-3.11,76s-20.67,50.63-36.69,66.19l-.74.69c-.26.26-.53.52-.94.89-.88.82-1.75,1.6-2.69,2.39a69.57,69.57,0,0,1-7.76,5.83c-.86.57-1.74,1.08-2.81,1.69-.8.44-1.61.87-2.42,1.29-1.06.48-5.22,2.21-6.36,2.69-.42.13-.81.28-1.22.37s-2.43.66-3.15.82c-.44.1-.91.18-1.26.25l-1.14.19-1.78.19-.86.06c-.66,0-2.28,0-2.59,0-.75,0-1.49-.06-2.23-.14-.16,0-.49,0-.65-.06a2.54,2.54,0,0,0-.54-.09,21.29,21.29,0,0,1-2.78-.59c-.18,0-.93-.26-.93-.26-9.3-2.78-17.11-10.57-22.61-22.55C1704.86,1383.84,1699.08,1366.58,1698.46,1356.31Z" transform="translate(-1143.66 -821.58)"/><g class="cls-3"><path class="cls-89" d="M1661,1406.71a35.66,35.66,0,0,0-15.17-13.33,24.92,24.92,0,0,0-3.35-1.24c-4.85-1.34-8.74-.59-11.11,1.72l-70,67.85c2.38-2.31,6.27-3.06,11.12-1.72,6.88,1.91,13,6.94,17.16,12.61a30.91,30.91,0,0,1,4.83,9.35c.94,3.16,1.31,7-.3,10a7.81,7.81,0,0,1-1.48,2l70.2-68.08C1668,1420.67,1664.22,1411.8,1661,1406.71Z" transform="translate(-1143.66 -821.58)"/><path class="cls-90" d="M1594.76,1482.74c-2.53-9.89-12.47-20-22.21-22.75s-15.63,3.06-13.1,13,12.47,20,22.21,22.74S1597.27,1492.58,1594.76,1482.74Z" transform="translate(-1143.66 -821.58)"/></g><path class="cls-91" d="M1698.47,1356.32c.59,10.28,6.39,27.53,7.65,30.21,5.36,11.69,12.92,19.35,21.88,22.32,11.31-.15,23.93-6.44,36.25-19.35,31-32.64,48.68-95.21,39.18-139.4-3.9-18.18-16-31-26-36.94-11.35-.58-24,5.36-36.25,17.25-16.13,15.69-29.19,39.18-36.79,66.22A180,180,0,0,0,1698.47,1356.32Z" transform="translate(-1143.66 -821.58)"/><path class="cls-92" d="M1807,1321.07c.91,1.79,2.15,3.23,1.29,3.55s-3.53-1.06-3.81-.8c-1.29,1.31,3.35,3.11,5.35,3.11,2.57,0,8.18,16.51,8.18,16.51l6.32-2.59s-8.09-12.93-8.91-16.52a8.11,8.11,0,0,0-3.5-4.93c-.56-.38-3.49,1.4-4.13-1.2-.56-2.23-1.5-3.83-1.85-3.72C1805.21,1314.69,1806,1319.28,1807,1321.07Z" transform="translate(-1143.66 -821.58)"/><path class="cls-93" d="M1849.63,1348.59c-.17,4.85-5.07,5.38-11.88,4.64-5.73-.63-13.63-2.13-20.06-8-2.54-2.3,4.41-7.75,6.39-7.2a77.69,77.69,0,0,0,13.33,3.05C1845.53,1342.19,1849.78,1344.29,1849.63,1348.59Z" transform="translate(-1143.66 -821.58)"/><path class="cls-6" d="M1846.5,1466.29c.83.81,1.89,5.34,1.14,6.17a4.13,4.13,0,0,1-1.64,1c-5,1.92-12.73-4.76-14-5.87s-2.36-3.26-1.72-4.67C1830.81,1461.77,1845.4,1465.22,1846.5,1466.29Z" transform="translate(-1143.66 -821.58)"/><path class="cls-90" d="M1839.21,1462.28a43.88,43.88,0,0,1,7.59,4.25c.9.86,1.59,3.77.84,4.6a6.34,6.34,0,0,1-2.19,1.13c-2.43.81-9.16-2.31-12.49-5.24-1.17-1-3.13-3.41-2.48-4.81C1831,1461.06,1835.67,1460.91,1839.21,1462.28Z" transform="translate(-1143.66 -821.58)"/><path class="cls-6" d="M1840.86,1468.49a.94.94,0,1,1-.71.91A.83.83,0,0,1,1840.86,1468.49Z" transform="translate(-1143.66 -821.58)"/><path class="cls-6" d="M1846.55,1466.84s1.31,1.24.89,4.48a2.72,2.72,0,0,1-2.18,1.06s.11-3.28-.58-4.28l-.36-.67,1.4-1.85Z" transform="translate(-1143.66 -821.58)"/><path class="cls-92" d="M1846,1464.33a22.77,22.77,0,0,0,.52,2.51,1.34,1.34,0,0,0-1.38-.07,1.18,1.18,0,0,0-.49,1.33,6.91,6.91,0,0,1-3.63-.61c-3.11-1.33-3.65-3.11-3.36-3.75C1838.6,1461.73,1845.16,1464.49,1846,1464.33Z" transform="translate(-1143.66 -821.58)"/><path class="cls-94" d="M1849,1425.19c.51,1.15,1.52,6.45,1,12.6s-2.22,26.18-2.22,26.18c-6.18,2.38-9.43-.64-9.43-.64s-2.19-28.16-2.4-36.85S1847.56,1422.07,1849,1425.19Z" transform="translate(-1143.66 -821.58)"/><path class="cls-94" d="M1836.27,1382.34c4.57-4,9.13-3.33,10.61-2.21,6.12,4.62,6.08,15.68,5.77,19.31-.29,3.33-2.52,21.73-3.45,27-1.37,7.9-13.24,8.46-13.24,2.57C1836,1423.34,1828,1389.51,1836.27,1382.34Z" transform="translate(-1143.66 -821.58)"/><path class="cls-6" d="M1833,1472.93c.84.82,1.9,5.35,1.15,6.18a4.28,4.28,0,0,1-1.65,1c-5,1.91-12.72-4.77-14-5.88s-2.36-3.26-1.72-4.67C1817.26,1468.41,1831.86,1471.86,1833,1472.93Z" transform="translate(-1143.66 -821.58)"/><path class="cls-90" d="M1825.67,1468.93a43.25,43.25,0,0,1,7.59,4.24c.9.87,1.59,3.77.84,4.6a6.43,6.43,0,0,1-2.19,1.13c-2.44.81-9.16-2.31-12.5-5.24-1.16-1-3.12-3.4-2.47-4.81C1817.47,1467.7,1822.13,1467.55,1825.67,1468.93Z" transform="translate(-1143.66 -821.58)"/><path class="cls-6" d="M1827.32,1475.13c.39,0,.7.41.7.92a.73.73,0,1,1-.7-.92Z" transform="translate(-1143.66 -821.58)"/><path class="cls-6" d="M1833,1473.48s1.31,1.24.89,4.48a2.71,2.71,0,0,1-2.17,1.07s.11-3.29-.59-4.29l-.36-.66,1.41-1.85Z" transform="translate(-1143.66 -821.58)"/><path class="cls-92" d="M1832.49,1471c.15.84.28,1.69.51,2.5a1.35,1.35,0,0,0-1.37-.07,1.21,1.21,0,0,0-.5,1.33,6.94,6.94,0,0,1-3.63-.61c-3.1-1.32-3.65-3.11-3.36-3.75C1825.06,1468.38,1831.62,1471.13,1832.49,1471Z" transform="translate(-1143.66 -821.58)"/><path class="cls-95" d="M1836.4,1431.38c.52,1.16.87,7.43.32,13.57s-2.3,27.24-2.3,27.24c-6.18,2.38-9.4-2.26-9.4-2.26s-2.14-27.6-2.35-36.29S1835,1428.27,1836.4,1431.38Z" transform="translate(-1143.66 -821.58)"/><path class="cls-95" d="M1824.06,1387.19c4.68-3.85,10.32-.65,11.8.47,6.12,4.63,5.17,10.75,4.86,14.39-.28,3.33-3.78,26.29-4.71,31.6-1.37,7.89-13.24,8.46-13.24,2.56C1822.77,1430.5,1817.73,1392.4,1824.06,1387.19Z" transform="translate(-1143.66 -821.58)"/><path class="cls-96" d="M1821.41,1356.1c0-10.19,15.78-14.16,20.57-14.16,9.71,0,10.14,12.35,8.8,21.38s2.5,29.69,2.5,29.69c-7.13,8.24-32.82,2.65-32.82,2.65C1822.94,1385,1821.41,1365.05,1821.41,1356.1Z" transform="translate(-1143.66 -821.58)"/><path class="cls-92" d="M1826.19,1327.49c.1-1.18,1.49-.32,2.38-1.11a6,6,0,0,1,3.49-1.25,4.08,4.08,0,0,1,4.82,2.39c2.82,5,1.49,9.06,2.31,14.38a40.46,40.46,0,0,1-8,2.7c-.3,0,1.9-2.7,1.33-5.09-2.27.67-3.7-2.27-5.79-5.75a4.47,4.47,0,0,1,0-3.47C1827.22,1329.17,1826.08,1328.68,1826.19,1327.49Z" transform="translate(-1143.66 -821.58)"/><path class="cls-90" d="M1830.9,1321.21c-.09-3.1,6.37-3.21,5.69.37,3-.44,7.12,2.12,5.46,6.15,1.61,3.16-1.49,6.32-2.32,8.22-.18.41-.82,2-.82,2s-4.07,1.09-5.67,0c-1.87-1.24-2.53-3.44-3-5.53-.7-3.4-2.71-1.72-2.71-4.7-1.29-.6-1.89,1.21-1.89,1.21C1822.69,1323.27,1827.62,1319.34,1830.9,1321.21Z" transform="translate(-1143.66 -821.58)"/><path class="cls-6" d="M1831.44,1341.9c3.86-2,5.46-2.28,7.27-2.38a1.58,1.58,0,0,1,1.42.72l1.09,1.66-11.84,3.78A4.53,4.53,0,0,1,1831.44,1341.9Z" transform="translate(-1143.66 -821.58)"/><path class="cls-92" d="M1805.51,1387.93c1.72-1,2.5-1,1.94-1.7s-2.41-2-2.4-2.42c0-.78,2.13,0,3.6,1.1.68.51,2.57.31,3.1.11,4-1.51,14.88-10.33,14.88-10.33l4,5.52s-15.48,8.17-18.06,10.79c-1,1-3,3.8-3.55,3.48s-3.47-1.31-3.92-1.88,1.22-4.1-.45-1.81c-1.35,1.85-3.72,3-3.33,2.32C1801.94,1392,1803.8,1389,1805.51,1387.93Z" transform="translate(-1143.66 -821.58)"/><path class="cls-97" d="M1827,1348.61c4.71-1.16,6.57,3.41,7.72,10.15,1,5.69,1.68,13.7-2.16,21.48-1.51,3.07-8.66-2.12-8.68-4.18a77.48,77.48,0,0,0-.71-13.65C1822,1354.31,1822.83,1349.63,1827,1348.61Z" transform="translate(-1143.66 -821.58)"/><polygon class="cls-39" points="810.32 380.18 810.32 380.18 796.43 372.85 796.43 372.85 782.55 365.52 782.55 365.52 768.68 358.19 768.68 358.2 754.79 350.87 754.8 366.17 754.8 366.17 754.82 381.47 754.82 381.48 754.83 396.77 754.83 396.78 754.84 412.07 754.84 412.07 754.85 427.37 754.85 427.38 754.86 442.67 754.86 442.68 754.87 457.98 754.87 457.98 754.88 473.28 754.88 473.28 754.89 488.58 754.89 488.58 754.9 503.88 768.78 511.21 768.78 511.21 782.66 518.54 782.66 518.54 796.54 525.87 796.54 525.87 810.42 533.2 810.42 533.2 817.84 537.11 819.85 542.85 824.3 540.52 824.29 525.22 824.29 525.22 824.28 509.92 824.28 509.92 824.27 494.62 824.27 494.61 824.26 479.32 824.26 479.31 824.25 464.01 824.25 464.01 824.24 448.71 824.24 448.71 824.23 433.41 824.23 433.41 824.22 418.11 824.22 418.11 824.21 402.81 824.21 402.8 824.2 387.5 810.32 380.18"/><polygon class="cls-28" points="764.24 375.83 750.36 368.5 750.35 353.2 764.23 360.52 764.24 375.83"/><polygon class="cls-45" points="778.12 383.15 764.24 375.83 764.23 360.52 778.11 367.85 778.12 383.15"/><polygon class="cls-46" points="792 390.48 778.12 383.15 778.11 367.85 791.99 375.18 792 390.48"/><polygon class="cls-98" points="805.88 397.81 792 390.48 791.99 375.18 805.87 382.5 805.88 397.81"/><polygon class="cls-99" points="819.76 405.14 805.88 397.81 805.87 382.5 819.75 389.83 819.76 405.14"/><polygon class="cls-100" points="764.25 391.13 750.37 383.8 750.36 368.5 764.24 375.83 764.25 391.13"/><polygon class="cls-101" points="778.13 398.46 764.25 391.13 764.24 375.82 778.12 383.15 778.13 398.46"/><polygon class="cls-102" points="792.01 405.79 778.13 398.45 778.12 383.15 792 390.48 792.01 405.79"/><polygon class="cls-103" points="805.89 413.11 792.01 405.79 792 390.48 805.88 397.81 805.89 413.11"/><polygon class="cls-104" points="819.77 420.44 805.89 413.11 805.88 397.81 819.76 405.13 819.77 420.44"/><polygon class="cls-105" points="764.26 406.43 750.38 399.11 750.37 383.8 764.25 391.13 764.26 406.43"/><polygon class="cls-106" points="778.14 413.76 764.26 406.43 764.25 391.13 778.13 398.45 778.14 413.76"/><polygon class="cls-107" points="792.02 421.09 778.14 413.76 778.13 398.45 792.01 405.78 792.02 421.09"/><polygon class="cls-108" points="805.9 428.41 792.02 421.09 792.01 405.78 805.89 413.11 805.9 428.41"/><polygon class="cls-109" points="819.78 435.74 805.9 428.41 805.89 413.11 819.77 420.43 819.78 435.74"/><polygon class="cls-39" points="764.27 421.73 750.39 414.41 750.38 399.1 764.26 406.43 764.27 421.73"/><polygon class="cls-110" points="778.15 429.06 764.27 421.73 764.26 406.43 778.14 413.76 778.15 429.06"/><polygon class="cls-111" points="792.03 436.39 778.15 429.06 778.14 413.75 792.02 421.08 792.03 436.39"/><polygon class="cls-112" points="805.91 443.71 792.03 436.39 792.02 421.08 805.9 428.41 805.91 443.71"/><polygon class="cls-113" points="819.79 451.04 805.91 443.71 805.9 428.41 819.78 435.74 819.79 451.04"/><polygon class="cls-40" points="764.28 437.04 750.4 429.71 750.39 414.4 764.27 421.73 764.28 437.04"/><polygon class="cls-114" points="778.16 444.36 764.28 437.04 764.27 421.73 778.15 429.06 778.16 444.36"/><polygon class="cls-115" points="792.04 451.69 778.16 444.36 778.15 429.06 792.03 436.39 792.04 451.69"/><polygon class="cls-116" points="805.92 459.02 792.04 451.69 792.03 436.38 805.91 443.71 805.92 459.02"/><polygon class="cls-117" points="819.8 466.34 805.92 459.01 805.91 443.71 819.79 451.04 819.8 466.34"/><polygon class="cls-115" points="764.29 452.34 750.41 445.01 750.4 429.7 764.28 437.03 764.29 452.34"/><polygon class="cls-118" points="778.17 459.66 764.29 452.33 764.28 437.03 778.16 444.36 778.17 459.66"/><polygon class="cls-119" points="792.05 466.99 778.17 459.66 778.16 444.36 792.04 451.69 792.05 466.99"/><polygon class="cls-120" points="805.93 474.32 792.05 466.99 792.04 451.69 805.92 459.01 805.93 474.32"/><polygon class="cls-116" points="819.81 481.64 805.93 474.32 805.92 459.01 819.8 466.34 819.81 481.64"/><polygon class="cls-104" points="764.3 467.64 750.42 460.31 750.41 445 764.29 452.33 764.3 467.64"/><polygon class="cls-102" points="778.18 474.96 764.3 467.64 764.29 452.33 778.17 459.66 778.18 474.96"/><polygon class="cls-100" points="792.06 482.29 778.18 474.96 778.17 459.66 792.05 466.99 792.06 482.29"/><polygon class="cls-104" points="805.94 489.62 792.06 482.29 792.05 466.99 805.93 474.32 805.94 489.62"/><polygon class="cls-100" points="819.82 496.95 805.94 489.62 805.93 474.31 819.81 481.64 819.82 496.95"/><polygon class="cls-39" points="764.31 482.94 750.43 475.61 750.42 460.31 764.3 467.64 764.31 482.94"/><polygon class="cls-110" points="778.19 490.27 764.31 482.94 764.3 467.63 778.18 474.96 778.19 490.27"/><polygon class="cls-111" points="792.07 497.6 778.19 490.27 778.18 474.96 792.06 482.29 792.07 497.6"/><polygon class="cls-112" points="805.95 504.92 792.07 497.6 792.06 482.29 805.94 489.62 805.95 504.92"/><polygon class="cls-113" points="819.83 512.25 805.95 504.92 805.94 489.62 819.82 496.94 819.83 512.25"/><polygon class="cls-100" points="764.32 498.24 750.44 490.92 750.43 475.61 764.31 482.94 764.32 498.24"/><polygon class="cls-100" points="778.2 505.57 764.32 498.24 764.31 482.94 778.19 490.26 778.2 505.57"/><polygon class="cls-104" points="792.08 512.9 778.2 505.57 778.19 490.26 792.07 497.59 792.08 512.9"/><polygon class="cls-102" points="805.96 520.22 792.08 512.89 792.07 497.59 805.95 504.92 805.96 520.22"/><polygon class="cls-104" points="819.84 527.55 805.96 520.22 805.95 504.92 819.83 512.24 819.84 527.55"/><polygon class="cls-40" points="764.33 513.54 750.45 506.22 750.44 490.91 764.32 498.24 764.33 513.54"/><polygon class="cls-114" points="778.21 520.87 764.33 513.54 764.32 498.24 778.2 505.56 778.21 520.87"/><polygon class="cls-115" points="792.09 528.2 778.21 520.87 778.2 505.56 792.08 512.89 792.09 528.2"/><polygon class="cls-116" points="805.97 535.52 792.09 528.2 792.08 512.89 805.96 520.22 805.97 535.52"/><polygon class="cls-117" points="819.85 542.85 805.97 535.52 805.96 520.22 819.84 527.55 819.85 542.85"/><path class="cls-23" d="M1957.58,1168.91l-7.81-4a7.52,7.52,0,0,1-3.75-4.78c-1.36-6.52-6.79-13.7-13.26-17-3.89-2-7.39-2.22-9.86-1l-.23.11-.12.08-4.37,2.35,1,2.53c-.64.86-1.94,1-3.4.22l-7.8-4c-3.26-1.68-6.19-1.83-8.23-.73l0,0-4.68,2.54,1.78,4.56,0,28.18,66,33.93,1.29,5.6,4.68-2.53,0-29.53C1968.74,1179.45,1963.74,1172.07,1957.58,1168.91Zm-20.12-4a6.24,6.24,0,0,1-3-.28l-.52-.19c-5.32-2-9.8-8.65-9.12-13.42,0-.15,0-.3.07-.44a4.15,4.15,0,0,1,1-1.94,3.65,3.65,0,0,1,1.5-1l7.57,6.59,3.39,9.42.28.9A4.57,4.57,0,0,1,1937.46,1164.87Z" transform="translate(-1143.66 -821.58)"/><path class="cls-23" d="M1937.46,1164.87a36.46,36.46,0,0,1-.62,4.45c-.56,2.46-2,1.38-3,1.69s-3.9-.37-6.21-.52-5.43-2.51-6.4-3.23-3.07-5.32-3.12-5.72-.59-5.25-.83-6.55,2.26-5.49,2.26-5.49,4.21-1.69,6.31-1c0,0,0,.09,0,.14a4.15,4.15,0,0,0-1,1.94c0,.14,0,.29-.07.44-.68,4.77,3.8,11.38,9.12,13.42l.52.19A6.24,6.24,0,0,0,1937.46,1164.87Z" transform="translate(-1143.66 -821.58)"/><path class="cls-121" d="M1945.09,1167.41a7.53,7.53,0,0,1-3.74-4.76c-1.36-6.54-6.79-13.71-13.27-17s-11.9-1.75-13.25,3.4c-.38,1.47-1.95,1.83-3.74.91l-7.81-4c-6.16-3.18-11.15-.94-11.14,5v29.54l71.93,37,0-29.54c0-5.92-5-13.3-11.16-16.47Zm-15.37-.3c-5.69-1.85-10.63-9.1-9.55-14,.63-2.88,3.42-4,6.79-2.67,5.33,2,9.82,8.66,9.12,13.43C1935.65,1166.84,1933.05,1168.2,1929.72,1167.11Z" transform="translate(-1143.66 -821.58)"/><polygon class="cls-6" points="751.5 505.62 751.17 499.49 753.15 498.96 753.38 503.06 762.28 498.69 762.89 500.03 751.5 505.62"/><polygon class="cls-6" points="774.26 505.64 773.34 508.64 816.79 533.18 817.74 530.18 774.26 505.64"/><polygon class="cls-6" points="773.32 511.45 772.39 514.44 804.56 532.62 805.51 529.63 773.32 511.45"/><polygon class="cls-122" points="767.51 501.82 764.93 510.22 768.38 512.17 770.97 503.77 767.51 501.82"/><polygon class="cls-6" points="751.5 475.31 751.17 469.19 753.15 468.65 753.38 472.76 762.28 468.39 762.89 469.72 751.5 475.31"/><polygon class="cls-6" points="774.26 475.33 773.34 478.34 816.79 502.87 817.74 499.87 774.26 475.33"/><polygon class="cls-6" points="773.32 481.14 772.39 484.13 804.56 502.32 805.51 499.32 773.32 481.14"/><polygon class="cls-123" points="767.51 471.52 764.93 479.92 768.38 481.86 770.97 473.47 767.51 471.52"/><polygon class="cls-6" points="752.2 444.71 751.86 438.59 753.84 438.05 754.07 442.15 762.97 437.78 763.59 439.12 752.2 444.71"/><polygon class="cls-6" points="774.96 444.73 774.03 447.73 817.48 472.27 818.44 469.27 774.96 444.73"/><polygon class="cls-6" points="774.01 450.54 773.09 453.53 805.25 471.71 806.2 468.72 774.01 450.54"/><polygon class="cls-124" points="768.21 440.92 765.62 449.31 769.07 451.26 771.66 442.87 768.21 440.92"/><polygon class="cls-6" points="752.75 414.11 752.41 407.98 754.4 407.45 754.63 411.55 763.52 407.18 764.14 408.52 752.75 414.11"/><polygon class="cls-6" points="775.51 414.13 774.59 417.13 818.03 441.67 818.99 438.67 775.51 414.13"/><polygon class="cls-6" points="774.57 419.94 773.64 422.93 805.81 441.11 806.75 438.12 774.57 419.94"/><polygon class="cls-125" points="768.76 410.31 766.18 418.71 769.63 420.66 772.21 412.26 768.76 410.31"/><polygon class="cls-6" points="751.77 383.8 751.43 377.68 753.41 377.14 753.64 381.25 762.54 376.88 763.15 378.21 751.77 383.8"/><polygon class="cls-6" points="774.53 383.82 773.6 386.82 817.05 411.36 818.01 408.36 774.53 383.82"/><polygon class="cls-6" points="773.58 389.63 772.66 392.62 804.82 410.81 805.77 407.81 773.58 389.63"/><polygon class="cls-126" points="767.78 380.01 765.19 388.4 768.64 390.35 771.23 381.96 767.78 380.01"/><path class="cls-127" d="M1146.45,973.6l104.33-57.38c2.31-1.27,8.3.28,8.25,5.79l-4.15,101.49a3.59,3.59,0,0,1-1.81,3.14l-102.2,60.55c-2.3,1.26-7.27-.88-7.21-6.58l1-103.86A3.61,3.61,0,0,1,1146.45,973.6Z" transform="translate(-1143.66 -821.58)"/><path class="cls-128" d="M1148.69,975.58l105.25-57.88a3.57,3.57,0,0,1,5.12,3.43l-1,104.7a3.64,3.64,0,0,1-1.82,3.17L1151,1086.87a3.57,3.57,0,0,1-5.12-3.44l1-104.68A3.64,3.64,0,0,1,1148.69,975.58Z" transform="translate(-1143.66 -821.58)"/><path class="cls-23" d="M1193.19,1038.1l0,0,6.93,3.72,1-1.71a18.61,18.61,0,0,0,8.06-2.54c13-7.33,22.67-28.1,21.69-46.4a39.49,39.49,0,0,0-1-7.16,24.66,24.66,0,0,0-4.3-9.51V973l-5-2.73-.32-.17a11.28,11.28,0,0,0-1.2-.5l-11.58,34.91-18.15,30A15.87,15.87,0,0,0,1193.19,1038.1Z" transform="translate(-1143.66 -821.58)"/><path class="cls-23" d="M1207.41,1004.49l5.34,2.88,3.25,1.07,13.85-24.4a24.66,24.66,0,0,0-4.3-9.51V973l-5-2.73-.32-.17a11.28,11.28,0,0,0-1.2-.5Z" transform="translate(-1143.66 -821.58)"/><path class="cls-129" d="M1176,992.47l5.34,2.88-.19,3.4,10.22,12.45-12.07,19.92-.74,12.92-5.34-2.88c-3-3.87-4.93-9.56-5.31-16.68A59.39,59.39,0,0,1,1176,992.47Z" transform="translate(-1143.66 -821.58)"/><polygon class="cls-130" points="45.61 212.87 50.95 215.75 69.09 185.79 63.75 182.91 45.61 212.87"/><path class="cls-6" d="M1194.6,1037.33c4.7,6.07,12,7.64,19.9,3.15,13-7.33,22.67-28.1,21.69-46.4-.6-11.46-5.27-19.24-11.86-21.62l-11.58,34.91Z" transform="translate(-1143.66 -821.58)"/><path class="cls-131" d="M1173.2,1027.36c.38,7.12,2.32,12.81,5.31,16.68l18.15-30-15.37-18.73A59.48,59.48,0,0,0,1173.2,1027.36Z" transform="translate(-1143.66 -821.58)"/><path class="cls-129" d="M1183.14,975c3.69-6.29,8.39-11.43,13.61-14.39,4.83-2.74,9.42-3.22,13.35-1.79l5.34,2.89-7.86,4.71-9.06,27.32Z" transform="translate(-1143.66 -821.58)"/><path class="cls-132" d="M1188.47,977.87l15.38,18.74,11.59-34.91c-3.93-1.43-8.53-1-13.35,1.79C1196.87,966.45,1192.16,971.58,1188.47,977.87Z" transform="translate(-1143.66 -821.58)"/><polygon class="cls-28" points="44.82 156.29 39.48 153.41 54.86 172.14 60.2 175.03 44.82 156.29"/></g></g></svg>