<svg id="Layer_1" data-name="Layer 1" xmlns="http://www.w3.org/2000/svg" xmlns:xlink="http://www.w3.org/1999/xlink" viewBox="0 0 635.72 556.86"><defs><style>.cls-1{mask:url(#mask);}.cls-2,.cls-4,.cls-6,.cls-8{mix-blend-mode:multiply;}.cls-2{fill:url(#Áåçûìÿííûé_ãðàäèåíò_11);}.cls-3{mask:url(#mask-2);}.cls-4{fill:url(#Áåçûìÿííûé_ãðàäèåíò_11-2);}.cls-5{mask:url(#mask-3);}.cls-6{fill:url(#Áåçûìÿííûé_ãðàäèåíò_11-3);}.cls-7{mask:url(#mask-4);}.cls-8{fill:url(#Áåçûìÿííûé_ãðàäèåíò_11-4);}.cls-9{fill:#f70;}.cls-10{fill:#ffad00;}.cls-11{fill:url(#Áåçûìÿííûé_ãðàäèåíò_10);}.cls-12{fill:url(#Áåçûìÿííûé_ãðàäèåíò_10-2);}.cls-13{mask:url(#mask-5);}.cls-14,.cls-19,.cls-23,.cls-27{opacity:0.47;}.cls-14{fill:url(#Áåçûìÿííûé_ãðàäèåíò_7);}.cls-15{fill:#322c8d;}.cls-16{fill:url(#Áåçûìÿííûé_ãðàäèåíò_14);}.cls-17{fill:url(#Áåçûìÿííûé_ãðàäèåíò_10-3);}.cls-18{mask:url(#mask-6);}.cls-19{fill:url(#Áåçûìÿííûé_ãðàäèåíò_7-2);}.cls-20{fill:url(#Áåçûìÿííûé_ãðàäèåíò_14-2);}.cls-21{fill:url(#Áåçûìÿííûé_ãðàäèåíò_10-4);}.cls-22{mask:url(#mask-7);}.cls-23{fill:url(#Áåçûìÿííûé_ãðàäèåíò_7-3);}.cls-24{fill:url(#Áåçûìÿííûé_ãðàäèåíò_14-3);}.cls-25{fill:url(#Áåçûìÿííûé_ãðàäèåíò_10-5);}.cls-26{mask:url(#mask-8);}.cls-27{fill:url(#Áåçûìÿííûé_ãðàäèåíò_7-4);}.cls-28{fill:url(#Áåçûìÿííûé_ãðàäèåíò_10-6);}.cls-29{fill:url(#Áåçûìÿííûé_ãðàäèåíò_14-4);}.cls-30{fill:#ffd1aa;}.cls-31{fill:#1d1273;}.cls-32{fill:url(#Áåçûìÿííûé_ãðàäèåíò_8);}.cls-33{fill:url(#Áåçûìÿííûé_ãðàäèåíò_15);}.cls-34{filter:url(#luminosity-noclip-8);}.cls-35{filter:url(#luminosity-noclip-7);}.cls-36{filter:url(#luminosity-noclip-6);}.cls-37{filter:url(#luminosity-noclip-5);}.cls-38{filter:url(#luminosity-noclip-4);}.cls-39{filter:url(#luminosity-noclip-3);}.cls-40{filter:url(#luminosity-noclip-2);}.cls-41{filter:url(#luminosity-noclip);}</style><filter id="luminosity-noclip" x="676.01" y="-9313" width="87.67" height="32766" filterUnits="userSpaceOnUse" color-interpolation-filters="sRGB"><feFlood flood-color="#fff" result="bg"/><feBlend in="SourceGraphic" in2="bg"/></filter><mask id="mask" x="676.01" y="-9313" width="87.67" height="32766" maskUnits="userSpaceOnUse"><g class="cls-41"/></mask><linearGradient id="Áåçûìÿííûé_ãðàäèåíò_11" x1="1930.69" y1="-374.64" x2="2011.6" y2="-374.64" gradientTransform="matrix(-1.06, 0.65, 0.19, 1.39, 2883.67, -1.52)" gradientUnits="userSpaceOnUse"><stop offset="0" stop-color="#ccc"/><stop offset="1"/></linearGradient><filter id="luminosity-noclip-2" x="490.51" y="-9313" width="75.61" height="32766" filterUnits="userSpaceOnUse" color-interpolation-filters="sRGB"><feFlood flood-color="#fff" result="bg"/><feBlend in="SourceGraphic" in2="bg"/></filter><mask id="mask-2" x="490.51" y="-9313" width="75.61" height="32766" maskUnits="userSpaceOnUse"><g class="cls-40"/></mask><linearGradient id="Áåçûìÿííûé_ãðàäèåíò_11-2" x1="3077.81" y1="965.71" x2="3153.42" y2="965.71" gradientTransform="matrix(-1, 0, 0, 1, 3643.94, 0)" xlink:href="#Áåçûìÿííûé_ãðàäèåíò_11"/><filter id="luminosity-noclip-3" x="461.28" y="-9313" width="87.67" height="32766" filterUnits="userSpaceOnUse" color-interpolation-filters="sRGB"><feFlood flood-color="#fff" result="bg"/><feBlend in="SourceGraphic" in2="bg"/></filter><mask id="mask-3" x="461.28" y="-9313" width="87.67" height="32766" maskUnits="userSpaceOnUse"><g class="cls-39"/></mask><linearGradient id="Áåçûìÿííûé_ãðàäèåíò_11-3" x1="2115.22" y1="-474.4" x2="2196.13" y2="-474.4" xlink:href="#Áåçûìÿííûé_ãðàäèåíò_11"/><filter id="luminosity-noclip-4" x="847.72" y="-9313" width="87.67" height="32766" filterUnits="userSpaceOnUse" color-interpolation-filters="sRGB"><feFlood flood-color="#fff" result="bg"/><feBlend in="SourceGraphic" in2="bg"/></filter><mask id="mask-4" x="847.72" y="-9313" width="87.67" height="32766" maskUnits="userSpaceOnUse"><g class="cls-38"/></mask><linearGradient id="Áåçûìÿííûé_ãðàäèåíò_11-4" x1="1754.86" y1="-454.47" x2="1835.77" y2="-454.47" xlink:href="#Áåçûìÿííûé_ãðàäèåíò_11"/><linearGradient id="Áåçûìÿííûé_ãðàäèåíò_10" x1="1056.22" y1="932.84" x2="1202.81" y2="753.74" gradientTransform="matrix(0.92, 0.04, 0.04, 1.09, -753.06, -657.96)" gradientUnits="userSpaceOnUse"><stop offset="0" stop-color="#ffad00"/><stop offset="1" stop-color="#ffc54a"/></linearGradient><linearGradient id="Áåçûìÿííûé_ãðàäèåíò_10-2" x1="3001.18" y1="821.85" x2="3214.99" y2="821.85" gradientTransform="matrix(-0.92, -0.04, -0.26, 1.08, 3400.84, -461.81)" xlink:href="#Áåçûìÿííûé_ãðàäèåíò_10"/><filter id="luminosity-noclip-5" x="676.01" y="730.1" width="87.67" height="57.96" filterUnits="userSpaceOnUse" color-interpolation-filters="sRGB"><feFlood flood-color="#fff" result="bg"/><feBlend in="SourceGraphic" in2="bg"/></filter><mask id="mask-5" x="277.24" y="289.69" width="87.67" height="57.96" maskUnits="userSpaceOnUse"><g class="cls-37"><g transform="translate(-398.77 -440.4)"><g class="cls-1"><path class="cls-2" d="M676.16,780c2,11.1,23.1,10.77,47.22-.76s42.11-29.87,40.15-41-23.1-10.77-47.23.76S674.2,768.84,676.16,780Z"/></g></g></g></mask><linearGradient id="Áåçûìÿííûé_ãðàäèåíò_7" x1="1930.69" y1="-374.64" x2="2011.6" y2="-374.64" gradientTransform="matrix(-1.06, 0.65, 0.19, 1.39, 2883.67, -1.52)" gradientUnits="userSpaceOnUse"><stop offset="0" stop-color="#323233"/><stop offset="1" stop-color="#575759"/></linearGradient><linearGradient id="Áåçûìÿííûé_ãðàäèåíò_14" x1="3077.38" y1="827.25" x2="3108.24" y2="827.25" gradientTransform="matrix(-0.92, -0.04, -0.26, 1.08, 3799.61, -21.41)" gradientUnits="userSpaceOnUse"><stop offset="0" stop-color="#6a6ae5"/><stop offset="1" stop-color="#322c8d"/></linearGradient><linearGradient id="Áåçûìÿííûé_ãðàäèåíò_10-3" x1="3022.63" y1="962.32" x2="3108.11" y2="857.88" gradientTransform="matrix(-1, 0, 0, 1, 3643.94, 0)" xlink:href="#Áåçûìÿííûé_ãðàäèåíò_10"/><filter id="luminosity-noclip-6" x="490.51" y="942.98" width="75.61" height="45.47" filterUnits="userSpaceOnUse" color-interpolation-filters="sRGB"><feFlood flood-color="#fff" result="bg"/><feBlend in="SourceGraphic" in2="bg"/></filter><mask id="mask-6" x="91.74" y="502.58" width="75.61" height="45.47" maskUnits="userSpaceOnUse"><g class="cls-36"><g transform="translate(-398.77 -440.4)"><g class="cls-3"><path class="cls-4" d="M490.51,971a70.86,70.86,0,0,0,42.25,17.48c20.49-11.41,35-27.33,33.22-37.36-1.94-11.09-23.07-10.78-47.2.75A110.3,110.3,0,0,0,490.51,971Z"/></g></g></g></mask><linearGradient id="Áåçûìÿííûé_ãðàäèåíò_7-2" x1="3077.81" y1="965.71" x2="3153.42" y2="965.71" gradientTransform="matrix(-1, 0, 0, 1, 3643.94, 0)" xlink:href="#Áåçûìÿííûé_ãðàäèåíò_7"/><linearGradient id="Áåçûìÿííûé_ãðàäèåíò_14-2" x1="3234.6" y1="1029.64" x2="3265.46" y2="1029.64" xlink:href="#Áåçûìÿííûé_ãðàäèåíò_14"/><linearGradient id="Áåçûìÿííûé_ãðàäèåíò_10-4" x1="2974.51" y1="752.52" x2="3194.38" y2="752.52" gradientTransform="matrix(-1, 0, 0, 1, 3643.94, 0)" xlink:href="#Áåçûìÿííûé_ãðàäèåíò_10"/><filter id="luminosity-noclip-7" x="461.28" y="711.68" width="87.67" height="57.97" filterUnits="userSpaceOnUse" color-interpolation-filters="sRGB"><feFlood flood-color="#fff" result="bg"/><feBlend in="SourceGraphic" in2="bg"/></filter><mask id="mask-7" x="62.5" y="271.28" width="87.67" height="57.97" maskUnits="userSpaceOnUse"><g class="cls-35"><g transform="translate(-398.77 -440.4)"><g class="cls-5"><path class="cls-6" d="M461.42,761.54c2,11.11,23.1,10.76,47.23-.76s42.1-29.88,40.15-41-23.1-10.77-47.23.76S459.47,750.43,461.42,761.54Z"/></g></g></g></mask><linearGradient id="Áåçûìÿííûé_ãðàäèåíò_7-3" x1="2115.22" y1="-474.4" x2="2196.13" y2="-474.4" xlink:href="#Áåçûìÿííûé_ãðàäèåíò_7"/><linearGradient id="Áåçûìÿííûé_ãðàäèåíò_14-3" x1="3315.59" y1="824.57" x2="3346.45" y2="824.57" xlink:href="#Áåçûìÿííûé_ãðàäèåíò_14"/><linearGradient id="Áåçûìÿííûé_ãðàäèåíò_10-5" x1="2854.61" y1="642.15" x2="3109.96" y2="642.15" gradientTransform="matrix(-0.92, -0.04, -0.26, 1.08, 3799.61, -21.41)" xlink:href="#Áåçûìÿííûé_ãðàäèåíò_10"/><filter id="luminosity-noclip-8" x="847.72" y="505.34" width="87.67" height="57.97" filterUnits="userSpaceOnUse" color-interpolation-filters="sRGB"><feFlood flood-color="#fff" result="bg"/><feBlend in="SourceGraphic" in2="bg"/></filter><mask id="mask-8" x="448.95" y="64.94" width="87.67" height="57.97" maskUnits="userSpaceOnUse"><g class="cls-34"><g transform="translate(-398.77 -440.4)"><g class="cls-7"><path class="cls-8" d="M847.87,555.19c2,11.11,23.1,10.77,47.23-.76s42.1-29.87,40.15-41-23.1-10.77-47.23.75S845.92,544.09,847.87,555.19Z"/></g></g></g></mask><linearGradient id="Áåçûìÿííûé_ãðàäèåíò_7-4" x1="1754.86" y1="-454.47" x2="1835.77" y2="-454.47" xlink:href="#Áåçûìÿííûé_ãðàäèåíò_7"/><linearGradient id="Áåçûìÿííûé_ãðàäèåíò_10-6" x1="1272.47" y1="867.75" x2="1533.27" y2="660.91" gradientTransform="matrix(0.92, 0.04, 0.04, 1.09, -354.29, -217.56)" xlink:href="#Áåçûìÿííûé_ãðàäèåíò_10"/><linearGradient id="Áåçûìÿííûé_ãðàäèåíò_14-4" x1="2949.88" y1="620.78" x2="2980.74" y2="620.78" xlink:href="#Áåçûìÿííûé_ãðàäèåíò_14"/><linearGradient id="Áåçûìÿííûé_ãðàäèåíò_8" x1="564.5" y1="849.95" x2="649.34" y2="849.95" gradientTransform="translate(374.62)" gradientUnits="userSpaceOnUse"><stop offset="0" stop-color="#f70"/><stop offset="1" stop-color="#ffad60"/></linearGradient><linearGradient id="Áåçûìÿííûé_ãðàäèåíò_15" x1="1399.93" y1="761.48" x2="1449.74" y2="761.48" gradientTransform="matrix(-1, 0, 0, 1, 2406.59, 0)" gradientUnits="userSpaceOnUse"><stop offset="0" stop-color="#5752d0"/><stop offset="1" stop-color="#7f7cf9"/></linearGradient></defs><polygon class="cls-9" points="193.89 365.82 221.08 398.99 254.77 420.22 298.22 427.77 292.57 383.02 193.89 365.82"/><polygon class="cls-9" points="326.5 109.99 353.69 143.16 387.38 164.4 430.83 171.94 425.18 127.19 326.5 109.99"/><polygon class="cls-9" points="193.89 365.82 322.03 119.49 346.41 142.63 375.01 151.14 244.67 395.67 216.52 388.38 193.89 365.82"/><polygon class="cls-10" points="547.46 169.1 496.68 139.52 505.32 109.26 553.32 86.84 568.02 113.08 547.46 169.1"/><polygon class="cls-9" points="382.96 263.65 377.13 313.81 339.16 345.58 192.13 259.65 227.19 226.21 233.03 176.1 382.96 263.65"/><polygon class="cls-10" points="52.72 436.76 1.94 407.17 35.39 351.46 97.82 362.02 52.72 436.76"/><path class="cls-9" d="M401.47,858.69,436.14,823l32.44-2s.37,50.88,44.4,51.18,75.13-56.77,75.13-56.77l23.18,24.79,29.3,7.86c-13.76,28.86-60.9,97.76-132.43,109.42-3.63,9.91-8,20.61-8,20.61l-51.22-29.87v0C407.46,922.11,401.47,858.69,401.47,858.69Z" transform="translate(-398.77 -440.4)"/><polygon class="cls-9" points="120.59 410.15 70.98 381.64 39.69 380.47 2.7 418.29 53.48 447.87 88.15 412.2 120.59 410.15"/><path class="cls-9" d="M618.65,608.76l-5.85,50.12-34.92,34.84s-102.09-25.8-110.71,117.46L433,813.31l-32.27,34.27S383.28,746.9,453,667.7,576.08,590.41,618.65,608.76Z" transform="translate(-398.77 -440.4)"/><path class="cls-9" d="M878,441.05a96.1,96.1,0,0,1,34.4,10.67v0l51.46,30-11.08,17.27a133.53,133.53,0,0,1,9.47,44.61l-32.5,2.21-34.3,34.17s-.88-42.65-34.91-49.71c-52.27-10.86-83.36,52.54-83.36,52.54l-30.13-9.6-23-22.31S793.87,430.59,878,441.05Z" transform="translate(-398.77 -440.4)"/><path class="cls-9" d="M783.17,758.24l5.27-51s42.95,24.28,85.25-41.12c21.22-32.81,20.84-74.32,20.84-74.32l40.23-35.61,28.64-2.74s9.09,97.92-52.91,172-121.21,82.88-163.91,65.86Z" transform="translate(-398.77 -440.4)"/><polygon class="cls-9" points="440.45 296.46 389.67 266.87 347.81 350.95 398.59 380.54 435.17 347.42 440.45 296.46"/><polygon class="cls-11" points="244.67 395.41 372.81 149.07 397.19 172.21 425.79 180.72 298.22 427.77 270.07 420.47 244.67 395.41"/><polygon class="cls-12" points="433.75 293.24 427.91 343.4 389.94 375.16 242.91 289.24 277.96 255.81 283.81 205.69 433.75 293.24"/><g class="cls-13"><path class="cls-14" d="M676.16,780c2,11.1,23.1,10.77,47.22-.76s42.11-29.87,40.15-41-23.1-10.77-47.23.76S674.2,768.84,676.16,780Z" transform="translate(-398.77 -440.4)"/></g><path class="cls-15" d="M738.05,728.67a15.66,15.66,0,0,0,6.58,19.7,12.65,12.65,0,0,0,18.12-5.76,15.65,15.65,0,0,0-6.58-19.71A12.66,12.66,0,0,0,738.05,728.67Z" transform="translate(-398.77 -440.4)"/><path class="cls-16" d="M740.58,730.58a15.66,15.66,0,0,0,6.59,19.7,12.66,12.66,0,0,0,18.12-5.76,15.67,15.67,0,0,0-6.58-19.71A12.67,12.67,0,0,0,740.58,730.58Z" transform="translate(-398.77 -440.4)"/><path class="cls-17" d="M452.28,888.29s5.07,53.78,38.23,82.68a70.86,70.86,0,0,0,42.25,17.48,76.38,76.38,0,0,0,9.9.26c80.67-2.83,134-80.11,148.68-111.08l-29.27-7.9L638.88,845s-31.09,57-75.09,56.79-44.44-51.21-44.44-51.21l-32.41,2.07Z" transform="translate(-398.77 -440.4)"/><g class="cls-18"><path class="cls-19" d="M490.51,971a70.86,70.86,0,0,0,42.25,17.48c20.49-11.41,35-27.33,33.22-37.36-1.94-11.09-23.07-10.78-47.2.75A110.3,110.3,0,0,0,490.51,971Z" transform="translate(-398.77 -440.4)"/></g><path class="cls-15" d="M541.58,940.37a15.65,15.65,0,0,0,6.58,19.7,12.67,12.67,0,0,0,18.13-5.76,15.69,15.69,0,0,0-6.58-19.71A12.66,12.66,0,0,0,541.58,940.37Z" transform="translate(-398.77 -440.4)"/><path class="cls-20" d="M544.12,942.28A15.66,15.66,0,0,0,550.7,962a12.66,12.66,0,0,0,18.12-5.76,15.67,15.67,0,0,0-6.58-19.71A12.66,12.66,0,0,0,544.12,942.28Z" transform="translate(-398.77 -440.4)"/><polygon class="cls-9" points="270.65 197.95 219.88 168.36 1.94 407.17 52.72 436.76 97.82 309.75 167.35 244.6 239.88 221.56 270.65 197.95"/><path class="cls-21" d="M669.43,638.35l-5.85,50.11-34.92,34.85S526.56,697.51,518,840.78l-34.2,2.12-32.27,34.27s-17.43-100.68,52.29-179.88S626.86,620,669.43,638.35Z" transform="translate(-398.77 -440.4)"/><g class="cls-22"><path class="cls-23" d="M461.42,761.54c2,11.11,23.1,10.76,47.23-.76s42.1-29.88,40.15-41-23.1-10.77-47.23.76S459.47,750.43,461.42,761.54Z" transform="translate(-398.77 -440.4)"/></g><path class="cls-15" d="M520.61,715.44a15.66,15.66,0,0,0,6.58,19.7,12.67,12.67,0,0,0,18.13-5.76,15.67,15.67,0,0,0-6.58-19.71A12.66,12.66,0,0,0,520.61,715.44Z" transform="translate(-398.77 -440.4)"/><polygon class="cls-9" points="615.41 142.67 564.63 113.08 535.99 115.81 495.76 151.42 546.53 181.01 586.77 145.4 615.41 142.67"/><path class="cls-9" d="M946.23,609.51l-36.63-16-14.14-13.54V546.84l41.42,6.64,9.35,6.41s5,8.11,5,11.63S946.23,609.51,946.23,609.51Z" transform="translate(-398.77 -440.4)"/><path class="cls-24" d="M523.15,717.35a15.66,15.66,0,0,0,6.58,19.7,12.65,12.65,0,0,0,18.12-5.77,15.66,15.66,0,0,0-6.58-19.7A12.65,12.65,0,0,0,523.15,717.35Z" transform="translate(-398.77 -440.4)"/><path class="cls-25" d="M828,612.34s31.09-63.4,83.36-52.55c34,7.07,34.9,49.72,34.9,49.72l34.3-34.17,32.51-2.21s-.13-92-84.26-102.5-154,109.8-154,109.8l23,22.3Z" transform="translate(-398.77 -440.4)"/><g class="cls-26"><path class="cls-27" d="M847.87,555.19c2,11.11,23.1,10.77,47.23-.76s42.1-29.87,40.15-41-23.1-10.77-47.23.75S845.92,544.09,847.87,555.19Z" transform="translate(-398.77 -440.4)"/></g><path class="cls-28" d="M834,787.82l5.27-51s42.95,24.28,85.25-41.12c21.22-32.81,20.84-74.33,20.84-74.33l40.23-35.61,28.64-2.73s9.09,97.92-52.91,172S840.06,838,797.37,820.94Z" transform="translate(-398.77 -440.4)"/><path class="cls-15" d="M908.36,511.27A15.68,15.68,0,0,0,914.93,531a12.66,12.66,0,0,0,18.13-5.77,15.65,15.65,0,0,0-6.59-19.7A12.64,12.64,0,0,0,908.36,511.27Z" transform="translate(-398.77 -440.4)"/><path class="cls-29" d="M910.89,513.18a15.67,15.67,0,0,0,6.58,19.71,12.67,12.67,0,0,0,18.13-5.76A15.67,15.67,0,0,0,929,507.42,12.66,12.66,0,0,0,910.89,513.18Z" transform="translate(-398.77 -440.4)"/><path class="cls-30" d="M979,720.52c14.54-1.42,20.78,2.52,21.39,5.86,1.57,8.52-6,14.5-18.2,14.38-11.66-.12-28.56-1.48-42.1-9-5.34-3,5.8-11,9.46-10.88A218,218,0,0,0,979,720.52Z" transform="translate(-398.77 -440.4)"/><path class="cls-30" d="M987.37,720.38l-11.86,2c3.47-9.6-1.48-10.91-1.48-10.91l4.94-8.3Z" transform="translate(-398.77 -440.4)"/><path class="cls-30" d="M936.29,688.64c.55,6.61,6.14,19.68,13.12,33.49,3.18,6.29-5.56,13.68-11.6,8.23s-10.46-40.94-10.46-40.94C931.89,684.74,936.29,688.64,936.29,688.64Z" transform="translate(-398.77 -440.4)"/><path class="cls-30" d="M931.87,667.19c2.06,3.93,3.41,1.22,4.72,1.86s4.51,6.26,4.62,7.59c.12,1.59-4.91,6.22-4.92,13.15,0,1.25-8.79.59-8.79.59s-3.4-10.09-3.46-12.83-3.11-5.95-1.58-5.8,3.77,3.09,4.95,4.76,2.59-1.34,2.48-5.3-4.71-11.19-3-11.82C928,659,930.23,664.05,931.87,667.19Z" transform="translate(-398.77 -440.4)"/><path class="cls-30" d="M1005.61,838s-7.8,19.66-1.56,33.64c10.14,22.7,6.67,71.55,7.51,77.28s-9.46,11.89-12,.42-14.57-61.9-19.89-74-3.27-34.7-3.27-34.7Z" transform="translate(-398.77 -440.4)"/><path class="cls-30" d="M984.08,853.4c-4.86,10-10,39.68-7.43,58.19s-3.27,54.78-3.41,60.59-10.37,10.89-10.91-.9-6.14-58.62-9.34-71.59,2.28-52.42,2.28-52.42S989,843.38,984.08,853.4Z" transform="translate(-398.77 -440.4)"/><path class="cls-31" d="M954.86,986.78c7-4.2,6.14-16.61,6.14-16.61,9,.35,13.13-1.38,13.13-1.38,0,3.78,4.31,10.25,4.83,15.92.46,5.08-3.74,8.09-3.74,12.51h-3.69l1.85-10.35c-6,0-13.73,10.47-21.26,10.39-7.9-.1-10.14-2.49-10.73-5S947.91,991,954.86,986.78Z" transform="translate(-398.77 -440.4)"/><path class="cls-31" d="M992.51,966.54c7-4.21,6.14-16.61,6.14-16.61,9,.34,13.13-1.38,13.13-1.38,0,3.78,4.31,10.25,4.83,15.93.46,5.07-3.74,8.07-3.74,12.5h-3.69l1.85-10.35c-6,0-13.74,10.47-21.26,10.39-7.9-.1-10.14-2.49-10.74-5S985.56,970.74,992.51,966.54Z" transform="translate(-398.77 -440.4)"/><path class="cls-32" d="M999.68,773.59a83.67,83.67,0,0,0,8.25,18.36c6,10.11,11.59,25.06,9.54,36.57S1019.79,885,1024,908c0,0-20.52,4-28.28,9.44-27.16,19.13-56.56,1.24-56.56,1.24,0-49.08,20.49-112.7,24.67-140.83Z" transform="translate(-398.77 -440.4)"/><path class="cls-33" d="M957.64,746.6c1.76-4.53,2.74-9.09,4.67-16.33s13.83-11.77,25.06-9.89c12.31,2.06,14.38,19.67,14.42,30.78,0,10.3-1.06,22,4.87,38.59-13,11.65-34.41,17.25-47.83,10,1.62-11.2,7.17-30.08,4.71-38.56C963.12,759.82,954.2,755.41,957.64,746.6Z" transform="translate(-398.77 -440.4)"/><path class="cls-30" d="M966.18,689.53a20.77,20.77,0,0,1,.12-5.3c1.33-11.15,17.17-.84,22.62,8.22s-16.94,25.13-21.54,17.2c-5.41-9.32-2.87-16.38-2.58-16.77C965.89,691.37,966.45,690.82,966.18,689.53Z" transform="translate(-398.77 -440.4)"/><path class="cls-31" d="M982.09,672.53c12.06,3.13,16-4,22.4,10.15,5.28,11.66,14.48.6,19.93,14.1s-.66,9.57,7.28,22.24c6.77,10.8-.52,20.91-3.33,27.93s-7.9,10.51-1.72,20.66c0,0-25.2-.33-23.21-17.05s-13.93-8.72-12.52-20.52c1.13-9.48-11-5.56-10.68-11.54s-11-8.62-3.38-19.39c4.51-6.39-12.79-10.41-12-17.35C965.45,677.14,970,669.39,982.09,672.53Z" transform="translate(-398.77 -440.4)"/><path class="cls-30" d="M978.6,693.37c.87,2,.11,4.91-1.13,6.71s-2.33,1.18-2.14.26c.25-1.18-1-3.31-.39-6.37C975.12,693.1,977.73,691.39,978.6,693.37Z" transform="translate(-398.77 -440.4)"/><path class="cls-30" d="M960.9,746c.6-14.61,5.37-20.23,8.75-20.39,8.65-.37,13.54,7.94,11.73,20-1.72,11.52-5.39,28.08-14.73,40.45-3.69,4.88-11.4-6.27-10.74-9.88S960.39,758.42,960.9,746Z" transform="translate(-398.77 -440.4)"/><path class="cls-30" d="M923.66,816.71c2.43-3.13,7.52-6.67,5.47-6.75s-4.7-.29-5.67-1.48,2.5.34,4.83-1.12,10.56-2.69,10.56-2.69,5.4,5.55,4.51,6.41-2.83,4-4.48,6.26-2.75,9.1-4.07,8.92-7.3,0-8.54-.69-1.5-7.4-2.12-3-3.65,7.31-3.43,5.76C921.05,825.91,921.25,819.85,923.66,816.71Z" transform="translate(-398.77 -440.4)"/><path class="cls-30" d="M936.57,805.31c5.17-4.16,14.06-22.6,18.47-28.43,2-2.65,16.45-4.32,15.34,3.73s-28,31.66-28,31.66A6.48,6.48,0,0,1,936.57,805.31Z" transform="translate(-398.77 -440.4)"/></svg>