<svg xmlns="http://www.w3.org/2000/svg" xmlns:xlink="http://www.w3.org/1999/xlink" viewBox="0 0 178.35 348.22"><defs><style>.cls-1{mask:url(#mask);filter:url(#luminosity-noclip-2);}.cls-2,.cls-4{mix-blend-mode:multiply;}.cls-2{fill:url(#Áåçûìÿííûé_ãðàäèåíò_41);}.cls-3{isolation:isolate;}.cls-5{fill:#fff;}.cls-6{fill:#f9f9fa;}.cls-7{fill:#f3f4f4;}.cls-8{fill:#eeeeef;}.cls-9{fill:#e8e8ea;}.cls-10{fill:#e2e3e5;}.cls-11{fill:#dcdddf;}.cls-12{fill:#d6d8da;}.cls-13{fill:#d0d2d5;}.cls-14{fill:#cbccd0;}.cls-15{fill:#c5c7ca;}.cls-16{fill:#bfc1c5;}.cls-17{fill:url(#Áåçûìÿííûé_ãðàäèåíò_31);}.cls-18{fill:url(#Áåçûìÿííûé_ãðàäèåíò_31-2);}.cls-19{fill:#f8f6fb;}.cls-20{fill:url(#Áåçûìÿííûé_ãðàäèåíò_57);}.cls-21{fill:url(#Áåçûìÿííûé_ãðàäèåíò_31-3);}.cls-22{fill:url(#Áåçûìÿííûé_ãðàäèåíò_31-4);}.cls-23{fill:#f5d66b;}.cls-24{fill:#de942d;}.cls-25{fill:url(#Áåçûìÿííûé_ãðàäèåíò_57-2);}.cls-26{fill:url(#Áåçûìÿííûé_ãðàäèåíò_31-5);}.cls-27{fill:url(#Áåçûìÿííûé_ãðàäèåíò_31-6);}.cls-28{fill:url(#Áåçûìÿííûé_ãðàäèåíò_57-3);}.cls-29{fill:#f70;}.cls-30{mask:url(#mask-2);}.cls-31{fill:url(#Áåçûìÿííûé_ãðàäèåíò_47);}.cls-32{filter:url(#luminosity-noclip);}</style><filter id="luminosity-noclip" x="18.76" y="-8158.47" width="140.83" height="32766" filterUnits="userSpaceOnUse" color-interpolation-filters="sRGB"><feFlood flood-color="#fff" result="bg"/><feBlend in="SourceGraphic" in2="bg"/></filter><mask id="mask" x="18.76" y="-8158.47" width="140.83" height="32766" maskUnits="userSpaceOnUse"><g class="cls-32"/></mask><linearGradient id="Áåçûìÿííûé_ãðàäèåíò_41" x1="89.18" x2="89.18" y2="187.46" gradientUnits="userSpaceOnUse"><stop offset="0"/><stop offset="1" stop-color="#999"/></linearGradient><linearGradient id="Áåçûìÿííûé_ãðàäèåíò_31" x1="4.14" y1="291.05" x2="174.21" y2="291.05" gradientUnits="userSpaceOnUse"><stop offset="0" stop-color="#c8d6f9"/><stop offset="1" stop-color="#bac1e8"/></linearGradient><linearGradient id="Áåçûìÿííûé_ãðàäèåíò_31-2" x1="4.14" y1="264.01" x2="174.21" y2="264.01" xlink:href="#Áåçûìÿííûé_ãðàäèåíò_31"/><linearGradient id="Áåçûìÿííûé_ãðàäèåíò_57" x1="89.18" y1="205.1" x2="89.18" y2="274.51" gradientUnits="userSpaceOnUse"><stop offset="0" stop-color="#f70"/><stop offset="1" stop-color="#ffad00"/></linearGradient><linearGradient id="Áåçûìÿííûé_ãðàäèåíò_31-3" x1="4.14" y1="208.72" x2="174.21" y2="208.72" xlink:href="#Áåçûìÿííûé_ãðàäèåíò_31"/><linearGradient id="Áåçûìÿííûé_ãðàäèåíò_31-4" x1="4.14" y1="203.5" x2="174.21" y2="203.5" xlink:href="#Áåçûìÿííûé_ãðàäèåíò_31"/><linearGradient id="Áåçûìÿííûé_ãðàäèåíò_57-2" x1="89.18" y1="166.75" x2="89.18" y2="236.16" xlink:href="#Áåçûìÿííûé_ãðàäèåíò_57"/><linearGradient id="Áåçûìÿííûé_ãðàäèåíò_31-5" x1="4.14" y1="160.46" x2="174.21" y2="160.46" xlink:href="#Áåçûìÿííûé_ãðàäèåíò_31"/><linearGradient id="Áåçûìÿííûé_ãðàäèåíò_31-6" x1="4.14" y1="155.24" x2="174.21" y2="155.24" xlink:href="#Áåçûìÿííûé_ãðàäèåíò_31"/><linearGradient id="Áåçûìÿííûé_ãðàäèåíò_57-3" x1="18.73" y1="147.94" x2="159.63" y2="147.94" xlink:href="#Áåçûìÿííûé_ãðàäèåíò_57"/><filter id="luminosity-noclip-2" x="18.76" y="0" width="140.83" height="187.46" filterUnits="userSpaceOnUse" color-interpolation-filters="sRGB"><feFlood flood-color="#fff" result="bg"/><feBlend in="SourceGraphic" in2="bg"/></filter><mask id="mask-2" x="18.76" y="0" width="140.83" height="187.46" maskUnits="userSpaceOnUse"><g class="cls-1"><path class="cls-2" d="M159.6,147.71h0V0H18.76V147.71h0a4.65,4.65,0,0,0,2.43,4.11l22.5,12.56,37.53,20.9,1,.55a12.7,12.7,0,0,0,12.28.1l40.36-22,17.61-9.57,4.68-2.56A4.67,4.67,0,0,0,159.6,147.71Z"/></g></mask><linearGradient id="Áåçûìÿííûé_ãðàäèåíò_47" x1="89.18" x2="89.18" y2="187.46" gradientUnits="userSpaceOnUse"><stop offset="0" stop-color="#7f7cf9"/><stop offset="1" stop-color="#5752d0"/></linearGradient></defs><g class="cls-3"><g id="Layer_2" data-name="Layer 2"><g id="Layer_1-2" data-name="Layer 1"><g class="cls-4"><path class="cls-5" d="M7.27,280.64l75.18-43a13.67,13.67,0,0,1,13.77.08l75,40.91a14.81,14.81,0,0,1-.22,25.45L95.8,346.45a13.69,13.69,0,0,1-13.59-.07l-75-40.27a14.81,14.81,0,0,1,0-25.47Z"/><path class="cls-6" d="M82.88,238.1a11.63,11.63,0,0,1,4.37-1.45,14.54,14.54,0,0,1,2.38-.11,14.92,14.92,0,0,1,6.86,2L171,279.19a15.29,15.29,0,0,1,4,3.37,12.65,12.65,0,0,1,2.86,9.16c0,4.8-3.62,9.79-7.7,12.09L96,345.6a14.56,14.56,0,0,1-6.59,1.88,14.74,14.74,0,0,1-2.1-.07,11.83,11.83,0,0,1-4.64-1.53L7.59,305.58a15.58,15.58,0,0,1-4.61-4A12.3,12.3,0,0,1,.52,293c0-4.81,3.65-9.87,7.72-12.19Z"/><path class="cls-7" d="M83.32,238.59a10.1,10.1,0,0,1,4.35-1.3,15.11,15.11,0,0,1,2.33,0,16.14,16.14,0,0,1,6.76,2.14l74,40.33a17.1,17.1,0,0,1,4,3.27,10.88,10.88,0,0,1,2.56,9c0,4.32-4.38,9.45-8.05,11.52L96.16,344.76a15.59,15.59,0,0,1-8.49,2,10.37,10.37,0,0,1-4.58-1.38L8,305.05a17.41,17.41,0,0,1-4.71-3.93A10.47,10.47,0,0,1,1,292.69c0-4.33,4.51-9.59,8.17-11.68Z"/><path class="cls-8" d="M83.75,239.09a8.79,8.79,0,0,1,4.33-1.16,16.15,16.15,0,0,1,2.29.13c1.77,0,5.12,1.35,6.66,2.25l73.42,40.05a18.55,18.55,0,0,1,4.06,3.17,9.49,9.49,0,0,1,2.27,8.85c0,3.84-5.15,9.11-8.41,10.95l-72,40.59c-1.5.84-4.6,2.08-6.3,2.08a15.16,15.16,0,0,1-2,.12,9.11,9.11,0,0,1-4.52-1.22L8.33,304.52a19.53,19.53,0,0,1-4.8-3.82,9.05,9.05,0,0,1-2-8.35c0-3.84,5.37-9.29,8.62-11.15Z"/><path class="cls-9" d="M84.19,239.58a7.62,7.62,0,0,1,4.3-1,19.43,19.43,0,0,1,2.24.25c1.55,0,5.22,1.58,6.57,2.37L170.19,281a21,21,0,0,1,4.08,3.06,8.36,8.36,0,0,1,2,8.7c0,3.36-5.92,8.76-8.77,10.37l-71,40c-1.31.74-4.66,2.18-6.15,2.18a19,19,0,0,1-2,.22A8,8,0,0,1,84,344.41L8.69,304c-1.15-.67-4.14-2.66-4.89-3.72A7.94,7.94,0,0,1,2.09,292c0-3.37,6.22-9,9.06-10.64Z"/><path class="cls-10" d="M84.62,240.07a6.88,6.88,0,0,1,4.28-.86,21.89,21.89,0,0,1,2.2.36c1.33,0,5.31,1.82,6.47,2.5l72.36,39.47a24,24,0,0,1,4.11,3,7.42,7.42,0,0,1,1.7,8.54c0,2.88-6.68,8.42-9.13,9.8l-69.9,39.4c-1.12.63-4.73,2.28-6,2.28-.39,0-1.51.38-1.9.32a7.09,7.09,0,0,1-4.41-.93L9.06,303.47c-1-.57-4.34-2.7-5-3.61a7.07,7.07,0,0,1-1.47-8.17c0-2.89,7.07-8.73,9.52-10.12Z"/><path class="cls-11" d="M85.06,240.57a6.16,6.16,0,0,1,4.25-.72c.36-.06,1.78.48,2.15.48,1.11,0,5.41,2,6.38,2.61l71.82,39.18a29.3,29.3,0,0,1,4.15,2.86,6.66,6.66,0,0,1,1.4,8.4c0,2.4-7.44,8.07-9.48,9.22L96.89,341.39c-.93.53-4.79,2.39-5.86,2.39-.33,0-1.53.47-1.85.42a6.46,6.46,0,0,1-4.35-.78L9.42,302.94c-.82-.48-4.53-2.75-5.07-3.51a6.36,6.36,0,0,1-1.22-8.08c0-2.4,7.93-8.43,10-9.59Z"/><path class="cls-12" d="M85.49,241.06a5.65,5.65,0,0,1,4.23-.57c.29-.05,1.82.6,2.11.6.89,0,5.51,2.28,6.27,2.73l71.3,38.89a35.55,35.55,0,0,1,4.18,2.76,6,6,0,0,1,1.11,8.24c0,1.92-8.21,7.72-9.84,8.64l-67.77,38.2c-.75.43-4.87,2.49-5.72,2.49-.26,0-1.55.55-1.8.51a5.78,5.78,0,0,1-4.3-.62L9.79,302.41c-.66-.38-4.74-2.79-5.17-3.4a5.81,5.81,0,0,1-1-8c0-1.93,8.79-8.15,10.42-9.08Z"/><path class="cls-13" d="M85.93,241.55a5.06,5.06,0,0,1,4.2-.41c.21,0,1.85.7,2.07.7.66,0,5.6,2.52,6.17,2.86l70.77,38.6a48.32,48.32,0,0,1,4.21,2.65,5.52,5.52,0,0,1,.82,8.09c0,1.44-9,7.38-10.2,8.07l-66.71,37.6c-.56.32-4.93,2.59-5.57,2.59-.2,0-1.56.64-1.76.61a5.26,5.26,0,0,1-4.23-.47L10.15,301.88a56.69,56.69,0,0,1-5.25-3.29,5.37,5.37,0,0,1-.73-7.91c0-1.44,9.65-7.85,10.87-8.55Z"/><path class="cls-14" d="M86.36,242.05a4.68,4.68,0,0,1,4.18-.27c.14,0,1.88.82,2,.82a66.87,66.87,0,0,1,6.08,3l70.24,38.31c.28.17,4.05,2.31,4.24,2.56a5.08,5.08,0,0,1,.52,7.93c0,1-9.74,7-10.55,7.5l-65.65,37A58.06,58.06,0,0,1,92,341.56c-.14,0-1.58.73-1.71.71a4.79,4.79,0,0,1-4.18-.33L10.52,301.35c-.33-.19-5.13-2.88-5.35-3.19a5,5,0,0,1-.48-7.81c0-1,10.51-7.57,11.32-8Z"/><path class="cls-15" d="M86.8,242.54a4.37,4.37,0,0,1,4.15-.12c.07,0,1.91.94,2,.94s5.79,3,6,3.09l69.71,38c.14.08,4.17,2.33,4.27,2.45a4.73,4.73,0,0,1,.23,7.78c0,.48-10.5,6.69-10.91,6.92L97.62,338c-.18.1-5.06,2.79-5.28,2.79-.06,0-1.59.82-1.65.81a4.4,4.4,0,0,1-4.12-.18L10.88,300.82c-.16-.1-5.33-2.92-5.43-3.08A4.69,4.69,0,0,1,5.21,290c0-.48,11.37-7.28,11.77-7.51Z"/><path class="cls-16" d="M87.23,243a4.12,4.12,0,0,1,4.13,0l81.3,44.35a4.43,4.43,0,0,1-.06,7.62L91.07,341A4.1,4.1,0,0,1,87,341L5.72,297.32a4.45,4.45,0,0,1,0-7.64Z"/></g><path class="cls-17" d="M171.24,286.06,95.58,244.91a15.38,15.38,0,0,0-14.84.08L7.05,286.08a5.69,5.69,0,0,0,0,9.93l73.69,41.1a15.38,15.38,0,0,0,14.84.09l75.66-41.15A5.69,5.69,0,0,0,171.24,286.06Z"/><rect class="cls-18" x="4.14" y="236.71" width="170.07" height="54.59"/><path class="cls-5" d="M171.24,231.84,95.58,190.69a15.4,15.4,0,0,0-14.84.07L7.05,231.87a5.68,5.68,0,0,0,0,9.92L80.74,282.9a15.38,15.38,0,0,0,14.84.07l75.66-41.14A5.69,5.69,0,0,0,171.24,231.84Z"/><path class="cls-19" d="M7.06,240.45l27.18,15.16,45.32,25.24,1.19.67a15.33,15.33,0,0,0,14.83.12l48.75-26.52,21.26-11.56,5.65-3.08a5.68,5.68,0,0,0,0-10L95.58,189.32a15.44,15.44,0,0,0-14.83.08L61.27,200.25,32.83,216.13,7.06,230.52A5.68,5.68,0,0,0,7.06,240.45Z"/><path class="cls-20" d="M159.63,234.73h0V205.1H18.73v29.63h0a4.67,4.67,0,0,0,2.43,4.12l22.51,12.56,37.54,20.92,1,.55a12.7,12.7,0,0,0,12.29.09l40.37-22,17.62-9.58,4.68-2.56A4.65,4.65,0,0,0,159.63,234.73Z"/><path class="cls-21" d="M171.24,203.72,95.58,162.58a15.35,15.35,0,0,0-14.84.07L7.05,203.75a5.69,5.69,0,0,0,0,9.93l73.69,41.1a15.38,15.38,0,0,0,14.84.08l75.66-41.15A5.69,5.69,0,0,0,171.24,203.72Z"/><rect class="cls-22" x="4.14" y="198.04" width="170.07" height="10.91"/><path class="cls-5" d="M171.24,192.57,95.58,151.42a15.4,15.4,0,0,0-14.84.07L7.05,192.6a5.69,5.69,0,0,0,0,9.93l73.69,41.09a15.35,15.35,0,0,0,14.84.08l75.66-41.14A5.69,5.69,0,0,0,171.24,192.57Z"/><path class="cls-19" d="M7.06,201.17l27.18,15.17,45.32,25.24,1.19.68a15.41,15.41,0,0,0,14.83.11l48.75-26.51,21.26-11.57,5.65-3.08a5.68,5.68,0,0,0,0-10L95.58,150.05a15.46,15.46,0,0,0-14.83.07L61.27,161,32.83,176.85,7.06,191.24A5.68,5.68,0,0,0,7.06,201.17Z"/><path class="cls-23" d="M21.16,200.32l22.51,12.56L81.21,233.8l1,.55a12.72,12.72,0,0,0,12.29.1l40.37-22,17.62-9.58,4.68-2.56a4.71,4.71,0,0,0,0-8.29L94.49,158A12.83,12.83,0,0,0,82.2,158l-16.14,9L42.5,180.18,21.16,192.1A4.69,4.69,0,0,0,21.16,200.32Z"/><path class="cls-24" d="M21.16,200.32l1.22.68L42.5,189.77l23.56-13.16,16.14-9a12.8,12.8,0,0,1,12.29-.05L156,201l1.2-.65a4.71,4.71,0,0,0,0-8.29L94.49,158A12.83,12.83,0,0,0,82.2,158l-16.14,9L42.5,180.18,21.16,192.1A4.69,4.69,0,0,0,21.16,200.32Z"/><path class="cls-25" d="M159.63,196.38h0V166.75H18.73v29.63h0a4.64,4.64,0,0,0,2.43,4.11l22.51,12.57L81.21,234l1,.54a12.67,12.67,0,0,0,12.29.1l40.37-22,17.62-9.58,4.68-2.56A4.66,4.66,0,0,0,159.63,196.38Z"/><path class="cls-26" d="M171.24,155.47,95.58,114.31a15.38,15.38,0,0,0-14.84.08L7.05,155.49a5.69,5.69,0,0,0,0,9.93l73.69,41.1a15.38,15.38,0,0,0,14.84.08l75.66-41.15A5.68,5.68,0,0,0,171.24,155.47Z"/><rect class="cls-27" x="4.14" y="149.78" width="170.07" height="10.92"/><path class="cls-5" d="M171.24,144.31,95.58,103.16a15.38,15.38,0,0,0-14.84.08L7.05,144.34a5.69,5.69,0,0,0,0,9.93l73.69,41.1a15.43,15.43,0,0,0,14.84.08l75.66-41.16A5.68,5.68,0,0,0,171.24,144.31Z"/><path class="cls-19" d="M7.06,152.91l27.18,15.18,45.32,25.23,1.19.68a15.36,15.36,0,0,0,14.83.11l48.75-26.51L165.59,156l5.65-3.08a5.68,5.68,0,0,0,0-10L95.58,101.79a15.46,15.46,0,0,0-14.83.07L61.27,112.72,32.83,128.6,7.06,143A5.67,5.67,0,0,0,7.06,152.91Z"/><path class="cls-28" d="M21.16,152.06l22.51,12.57,37.54,20.91,1,.55a12.75,12.75,0,0,0,12.29.09l40.37-22,17.62-9.57,4.68-2.56a4.71,4.71,0,0,0,0-8.29L94.49,109.71a12.8,12.8,0,0,0-12.29.07l-16.14,9L42.5,131.92,21.16,143.84A4.69,4.69,0,0,0,21.16,152.06Z"/><path class="cls-29" d="M21.16,152.06l1.22.69L42.5,141.51l23.56-13.15,16.14-9a12.83,12.83,0,0,1,12.29-.06L156,152.75l1.2-.66a4.71,4.71,0,0,0,0-8.29L94.49,109.71a12.8,12.8,0,0,0-12.29.07l-16.14,9L42.5,131.92,21.16,143.84A4.69,4.69,0,0,0,21.16,152.06Z"/><g class="cls-30"><path class="cls-31" d="M159.6,147.71h0V0H18.76V147.71h0a4.65,4.65,0,0,0,2.43,4.11l22.5,12.56,37.53,20.9,1,.55a12.7,12.7,0,0,0,12.28.1l40.36-22,17.61-9.57,4.68-2.56A4.67,4.67,0,0,0,159.6,147.71Z"/></g></g></g></g></svg>