<svg id="Layer_1" data-name="Layer 1" xmlns="http://www.w3.org/2000/svg" xmlns:xlink="http://www.w3.org/1999/xlink" viewBox="0 0 615.88 652.41"><defs><style>.cls-1{mask:url(#mask);}.cls-2,.cls-4,.cls-6,.cls-8{mix-blend-mode:multiply;}.cls-2{fill:url(#Áåçûìÿííûé_ãðàäèåíò_11);}.cls-3{mask:url(#mask-2);}.cls-4{fill:url(#Áåçûìÿííûé_ãðàäèåíò_11-2);}.cls-5{mask:url(#mask-3);}.cls-6{fill:url(#Áåçûìÿííûé_ãðàäèåíò_11-3);}.cls-7{mask:url(#mask-4);}.cls-8{fill:url(#Áåçûìÿííûé_ãðàäèåíò_11-4);}.cls-9{fill:#f8f6fb;}.cls-10{fill:url(#Áåçûìÿííûé_ãðàäèåíò_31);}.cls-11{fill:url(#Áåçûìÿííûé_ãðàäèåíò_31-2);}.cls-12{fill:url(#Áåçûìÿííûé_ãðàäèåíò_31-3);}.cls-13{fill:url(#Áåçûìÿííûé_ãðàäèåíò_31-4);}.cls-14{fill:url(#Áåçûìÿííûé_ãðàäèåíò_31-5);}.cls-15{fill:#ffd1aa;}.cls-16{fill:#1d1273;}.cls-17{fill:#0d0848;}.cls-18{fill:#3531a1;}.cls-19{fill:url(#Áåçûìÿííûé_ãðàäèåíò_15);}.cls-20{fill:url(#Áåçûìÿííûé_ãðàäèåíò_31-6);}.cls-21{fill:#ffb78d;}.cls-22{fill:url(#Áåçûìÿííûé_ãðàäèåíò_31-7);}.cls-23{fill:url(#Áåçûìÿííûé_ãðàäèåíò_31-8);}.cls-24{fill:url(#Áåçûìÿííûé_ãðàäèåíò_4);}.cls-25{fill:url(#Áåçûìÿííûé_ãðàäèåíò_6);}.cls-26{fill:#ffad00;}.cls-27{fill:url(#Áåçûìÿííûé_ãðàäèåíò_6-2);}.cls-28{fill:url(#Áåçûìÿííûé_ãðàäèåíò_6-3);}.cls-29{fill:url(#Áåçûìÿííûé_ãðàäèåíò_6-4);}.cls-30{fill:url(#Áåçûìÿííûé_ãðàäèåíò_6-5);}.cls-31{fill:url(#Áåçûìÿííûé_ãðàäèåíò_6-6);}.cls-32{fill:url(#Áåçûìÿííûé_ãðàäèåíò_6-7);}.cls-33{fill:url(#Áåçûìÿííûé_ãðàäèåíò_6-8);}.cls-34{fill:url(#Áåçûìÿííûé_ãðàäèåíò_6-9);}.cls-35{fill:url(#Áåçûìÿííûé_ãðàäèåíò_6-10);}.cls-36{fill:#ff5e00;}.cls-37{fill:url(#Áåçûìÿííûé_ãðàäèåíò_5);}.cls-38{fill:url(#Áåçûìÿííûé_ãðàäèåíò_5-2);}.cls-39{mask:url(#mask-5);}.cls-40,.cls-45,.cls-49,.cls-53{opacity:0.47;}.cls-40{fill:url(#Áåçûìÿííûé_ãðàäèåíò_7);}.cls-41{fill:#322c8d;}.cls-42{fill:url(#Áåçûìÿííûé_ãðàäèåíò_14);}.cls-43{fill:url(#Áåçûìÿííûé_ãðàäèåíò_5-3);}.cls-44{mask:url(#mask-6);}.cls-45{fill:url(#Áåçûìÿííûé_ãðàäèåíò_7-2);}.cls-46{fill:url(#Áåçûìÿííûé_ãðàäèåíò_14-2);}.cls-47{fill:url(#Áåçûìÿííûé_ãðàäèåíò_5-4);}.cls-48{mask:url(#mask-7);}.cls-49{fill:url(#Áåçûìÿííûé_ãðàäèåíò_7-3);}.cls-50{fill:url(#Áåçûìÿííûé_ãðàäèåíò_14-3);}.cls-51{fill:url(#Áåçûìÿííûé_ãðàäèåíò_5-5);}.cls-52{mask:url(#mask-8);}.cls-53{fill:url(#Áåçûìÿííûé_ãðàäèåíò_7-4);}.cls-54{fill:url(#Áåçûìÿííûé_ãðàäèåíò_5-6);}.cls-55{fill:url(#Áåçûìÿííûé_ãðàäèåíò_14-4);}.cls-56{fill:url(#Áåçûìÿííûé_ãðàäèåíò_42);}.cls-57{fill:#fff;}.cls-58{fill:url(#Áåçûìÿííûé_ãðàäèåíò_9);}.cls-59{fill:#231b7e;}.cls-60{fill:url(#Áåçûìÿííûé_ãðàäèåíò_9-2);}.cls-61{fill:#382c9c;}.cls-62{fill:url(#Áåçûìÿííûé_ãðàäèåíò_9-3);}.cls-63{fill:url(#Áåçûìÿííûé_ãðàäèåíò_42-2);}.cls-64{filter:url(#luminosity-noclip-8);}.cls-65{filter:url(#luminosity-noclip-7);}.cls-66{filter:url(#luminosity-noclip-6);}.cls-67{filter:url(#luminosity-noclip-5);}.cls-68{filter:url(#luminosity-noclip-4);}.cls-69{filter:url(#luminosity-noclip-3);}.cls-70{filter:url(#luminosity-noclip-2);}.cls-71{filter:url(#luminosity-noclip);}</style><filter id="luminosity-noclip" x="676.01" y="-9313" width="87.67" height="32766" filterUnits="userSpaceOnUse" color-interpolation-filters="sRGB"><feFlood flood-color="#fff" result="bg"/><feBlend in="SourceGraphic" in2="bg"/></filter><mask id="mask" x="676.01" y="-9313" width="87.67" height="32766" maskUnits="userSpaceOnUse"><g class="cls-71"/></mask><linearGradient id="Áåçûìÿííûé_ãðàäèåíò_11" x1="1930.69" y1="-374.64" x2="2011.6" y2="-374.64" gradientTransform="matrix(-1.06, 0.65, 0.19, 1.39, 2883.67, -1.52)" gradientUnits="userSpaceOnUse"><stop offset="0" stop-color="#ccc"/><stop offset="1"/></linearGradient><filter id="luminosity-noclip-2" x="490.51" y="-9313" width="75.61" height="32766" filterUnits="userSpaceOnUse" color-interpolation-filters="sRGB"><feFlood flood-color="#fff" result="bg"/><feBlend in="SourceGraphic" in2="bg"/></filter><mask id="mask-2" x="490.51" y="-9313" width="75.61" height="32766" maskUnits="userSpaceOnUse"><g class="cls-70"/></mask><linearGradient id="Áåçûìÿííûé_ãðàäèåíò_11-2" x1="3077.81" y1="965.71" x2="3153.42" y2="965.71" gradientTransform="matrix(-1, 0, 0, 1, 3643.94, 0)" xlink:href="#Áåçûìÿííûé_ãðàäèåíò_11"/><filter id="luminosity-noclip-3" x="461.28" y="-9313" width="87.67" height="32766" filterUnits="userSpaceOnUse" color-interpolation-filters="sRGB"><feFlood flood-color="#fff" result="bg"/><feBlend in="SourceGraphic" in2="bg"/></filter><mask id="mask-3" x="461.28" y="-9313" width="87.67" height="32766" maskUnits="userSpaceOnUse"><g class="cls-69"/></mask><linearGradient id="Áåçûìÿííûé_ãðàäèåíò_11-3" x1="2115.22" y1="-474.4" x2="2196.13" y2="-474.4" xlink:href="#Áåçûìÿííûé_ãðàäèåíò_11"/><filter id="luminosity-noclip-4" x="847.72" y="-9313" width="87.67" height="32766" filterUnits="userSpaceOnUse" color-interpolation-filters="sRGB"><feFlood flood-color="#fff" result="bg"/><feBlend in="SourceGraphic" in2="bg"/></filter><mask id="mask-4" x="847.72" y="-9313" width="87.67" height="32766" maskUnits="userSpaceOnUse"><g class="cls-68"/></mask><linearGradient id="Áåçûìÿííûé_ãðàäèåíò_11-4" x1="1754.86" y1="-454.47" x2="1835.77" y2="-454.47" xlink:href="#Áåçûìÿííûé_ãðàäèåíò_11"/><linearGradient id="Áåçûìÿííûé_ãðàäèåíò_31" x1="1533.78" y1="704.9" x2="1642.19" y2="704.9" gradientTransform="matrix(-1, 0, 0, 1, 1847.45, -336.35)" gradientUnits="userSpaceOnUse"><stop offset="0" stop-color="#c8d6f9"/><stop offset="1" stop-color="#bac1e8"/></linearGradient><linearGradient id="Áåçûìÿííûé_ãðàäèåíò_31-2" x1="1614.18" y1="860.18" x2="1684.17" y2="860.18" xlink:href="#Áåçûìÿííûé_ãðàäèåíò_31"/><linearGradient id="Áåçûìÿííûé_ãðàäèåíò_31-3" x1="1599.67" y1="796.84" x2="1669.66" y2="796.84" xlink:href="#Áåçûìÿííûé_ãðàäèåíò_31"/><linearGradient id="Áåçûìÿííûé_ãðàäèåíò_31-4" x1="1585.16" y1="733.5" x2="1655.15" y2="733.5" xlink:href="#Áåçûìÿííûé_ãðàäèåíò_31"/><linearGradient id="Áåçûìÿííûé_ãðàäèåíò_31-5" x1="1570.65" y1="670.17" x2="1640.64" y2="670.17" xlink:href="#Áåçûìÿííûé_ãðàäèåíò_31"/><linearGradient id="Áåçûìÿííûé_ãðàäèåíò_15" x1="1620.84" y1="525.4" x2="1669.54" y2="525.4" gradientTransform="matrix(-1, 0, 0, 1, 2246.22, 0)" gradientUnits="userSpaceOnUse"><stop offset="0" stop-color="#5752d0"/><stop offset="1" stop-color="#7f7cf9"/></linearGradient><linearGradient id="Áåçûìÿííûé_ãðàäèåíò_31-6" x1="1556.14" y1="606.83" x2="1626.13" y2="606.83" xlink:href="#Áåçûìÿííûé_ãðàäèåíò_31"/><linearGradient id="Áåçûìÿííûé_ãðàäèåíò_31-7" x1="1541.63" y1="543.49" x2="1611.63" y2="543.49" xlink:href="#Áåçûìÿííûé_ãðàäèåíò_31"/><linearGradient id="Áåçûìÿííûé_ãðàäèåíò_31-8" x1="1595.03" y1="726.54" x2="1702.58" y2="726.54" xlink:href="#Áåçûìÿííûé_ãðàäèåíò_31"/><linearGradient id="Áåçûìÿííûé_ãðàäèåíò_4" x1="3143.29" y1="398.02" x2="3143.65" y2="398.02" gradientTransform="matrix(-1, 0, -0.14, 1, 3831.58, 0)" gradientUnits="userSpaceOnUse"><stop offset="0" stop-color="#003286"/><stop offset="1" stop-color="#0085f2"/></linearGradient><linearGradient id="Áåçûìÿííûé_ãðàäèåíò_6" x1="2975.91" y1="442.17" x2="2981.92" y2="442.17" gradientTransform="matrix(-1, 0.01, 0.12, 1, 3605.27, -20.53)" gradientUnits="userSpaceOnUse"><stop offset="0" stop-color="#f70"/><stop offset="1" stop-color="#ffad60"/></linearGradient><linearGradient id="Áåçûìÿííûé_ãðàäèåíò_6-2" x1="3014.59" y1="432.18" x2="3007.54" y2="437.25" gradientTransform="matrix(-1, 0.01, 0.12, 1, 3206.49, -356.88)" xlink:href="#Áåçûìÿííûé_ãðàäèåíò_6"/><linearGradient id="Áåçûìÿííûé_ãðàäèåíò_6-3" x1="3102.52" y1="341.44" x2="3114.07" y2="341.44" gradientTransform="matrix(-1, 0, -0.14, 1, 3432.81, -336.35)" xlink:href="#Áåçûìÿííûé_ãðàäèåíò_6"/><linearGradient id="Áåçûìÿííûé_ãðàäèåíò_6-4" x1="3018.21" y1="411.95" x2="3028.3" y2="411.95" gradientTransform="matrix(-1, 0.01, 0.12, 1, 3206.49, -356.88)" xlink:href="#Áåçûìÿííûé_ãðàäèåíò_6"/><linearGradient id="Áåçûìÿííûé_ãðàäèåíò_6-5" x1="3141.26" y1="414.02" x2="3155.13" y2="414.02" gradientTransform="matrix(-1, 0, -0.14, 1, 3432.81, -336.35)" xlink:href="#Áåçûìÿííûé_ãðàäèåíò_6"/><linearGradient id="Áåçûìÿííûé_ãðàäèåíò_6-6" x1="3130.63" y1="351.98" x2="3143.18" y2="351.98" gradientTransform="matrix(-1, 0, -0.14, 1, 3432.81, -336.35)" xlink:href="#Áåçûìÿííûé_ãðàäèåíò_6"/><linearGradient id="Áåçûìÿííûé_ãðàäèåíò_6-7" x1="3007.4" y1="367.55" x2="3024.47" y2="367.55" gradientTransform="matrix(-1, 0.01, 0.12, 1, 3206.49, -356.88)" xlink:href="#Áåçûìÿííûé_ãðàäèåíò_6"/><linearGradient id="Áåçûìÿííûé_ãðàäèåíò_6-8" x1="2977.36" y1="333.86" x2="3000.05" y2="333.86" gradientTransform="matrix(-1, 0.01, 0.12, 1, 3206.49, -356.88)" xlink:href="#Áåçûìÿííûé_ãðàäèåíò_6"/><linearGradient id="Áåçûìÿííûé_ãðàäèåíò_6-9" x1="3065.35" y1="399.58" x2="3147.19" y2="399.58" gradientTransform="matrix(-1, 0, -0.14, 1, 3831.58, 0)" xlink:href="#Áåçûìÿííûé_ãðàäèåíò_6"/><linearGradient id="Áåçûìÿííûé_ãðàäèåíò_6-10" x1="3131.43" y1="420.7" x2="3092.43" y2="381.7" gradientTransform="matrix(-1, 0, -0.14, 1, 3831.58, 0)" xlink:href="#Áåçûìÿííûé_ãðàäèåíò_6"/><linearGradient id="Áåçûìÿííûé_ãðàäèåíò_5" x1="1056.22" y1="932.84" x2="1202.81" y2="753.74" gradientTransform="matrix(0.92, 0.04, 0.04, 1.09, -753.06, -553.91)" gradientUnits="userSpaceOnUse"><stop offset="0" stop-color="#f70"/><stop offset="1" stop-color="#ffad00"/></linearGradient><linearGradient id="Áåçûìÿííûé_ãðàäèåíò_5-2" x1="3001.18" y1="821.85" x2="3214.99" y2="821.85" gradientTransform="matrix(-0.92, -0.04, -0.26, 1.08, 3400.84, -357.76)" xlink:href="#Áåçûìÿííûé_ãðàäèåíò_5"/><filter id="luminosity-noclip-5" x="676.01" y="730.1" width="87.67" height="57.96" filterUnits="userSpaceOnUse" color-interpolation-filters="sRGB"><feFlood flood-color="#fff" result="bg"/><feBlend in="SourceGraphic" in2="bg"/></filter><mask id="mask-5" x="277.24" y="393.75" width="87.67" height="57.96" maskUnits="userSpaceOnUse"><g class="cls-67"><g transform="translate(-398.77 -336.35)"><g class="cls-1"><path class="cls-2" d="M676.16,780c2,11.1,23.1,10.77,47.22-.76s42.11-29.87,40.15-41-23.1-10.77-47.23.76S674.2,768.84,676.16,780Z"/></g></g></g></mask><linearGradient id="Áåçûìÿííûé_ãðàäèåíò_7" x1="1930.69" y1="-374.64" x2="2011.6" y2="-374.64" gradientTransform="matrix(-1.06, 0.65, 0.19, 1.39, 2883.67, -1.52)" gradientUnits="userSpaceOnUse"><stop offset="0" stop-color="#323233"/><stop offset="1" stop-color="#575759"/></linearGradient><linearGradient id="Áåçûìÿííûé_ãðàäèåíò_14" x1="3077.38" y1="827.25" x2="3108.24" y2="827.25" gradientTransform="matrix(-0.92, -0.04, -0.26, 1.08, 3799.61, -21.41)" gradientUnits="userSpaceOnUse"><stop offset="0" stop-color="#6a6ae5"/><stop offset="1" stop-color="#322c8d"/></linearGradient><linearGradient id="Áåçûìÿííûé_ãðàäèåíò_5-3" x1="3022.63" y1="962.32" x2="3108.11" y2="857.88" gradientTransform="matrix(-1, 0, 0, 1, 3643.94, 0)" xlink:href="#Áåçûìÿííûé_ãðàäèåíò_5"/><filter id="luminosity-noclip-6" x="490.51" y="942.98" width="75.61" height="45.47" filterUnits="userSpaceOnUse" color-interpolation-filters="sRGB"><feFlood flood-color="#fff" result="bg"/><feBlend in="SourceGraphic" in2="bg"/></filter><mask id="mask-6" x="91.74" y="606.63" width="75.61" height="45.47" maskUnits="userSpaceOnUse"><g class="cls-66"><g transform="translate(-398.77 -336.35)"><g class="cls-3"><path class="cls-4" d="M490.51,971a70.86,70.86,0,0,0,42.25,17.48c20.49-11.41,35-27.33,33.22-37.36-1.94-11.09-23.07-10.78-47.2.75A110.3,110.3,0,0,0,490.51,971Z"/></g></g></g></mask><linearGradient id="Áåçûìÿííûé_ãðàäèåíò_7-2" x1="3077.81" y1="965.71" x2="3153.42" y2="965.71" gradientTransform="matrix(-1, 0, 0, 1, 3643.94, 0)" xlink:href="#Áåçûìÿííûé_ãðàäèåíò_7"/><linearGradient id="Áåçûìÿííûé_ãðàäèåíò_14-2" x1="3234.6" y1="1029.64" x2="3265.46" y2="1029.64" xlink:href="#Áåçûìÿííûé_ãðàäèåíò_14"/><linearGradient id="Áåçûìÿííûé_ãðàäèåíò_5-4" x1="2974.51" y1="752.52" x2="3194.38" y2="752.52" gradientTransform="matrix(-1, 0, 0, 1, 3643.94, 0)" xlink:href="#Áåçûìÿííûé_ãðàäèåíò_5"/><filter id="luminosity-noclip-7" x="461.28" y="711.68" width="87.67" height="57.97" filterUnits="userSpaceOnUse" color-interpolation-filters="sRGB"><feFlood flood-color="#fff" result="bg"/><feBlend in="SourceGraphic" in2="bg"/></filter><mask id="mask-7" x="62.5" y="375.33" width="87.67" height="57.97" maskUnits="userSpaceOnUse"><g class="cls-65"><g transform="translate(-398.77 -336.35)"><g class="cls-5"><path class="cls-6" d="M461.42,761.54c2,11.11,23.1,10.76,47.23-.76s42.1-29.88,40.15-41-23.1-10.77-47.23.76S459.47,750.43,461.42,761.54Z"/></g></g></g></mask><linearGradient id="Áåçûìÿííûé_ãðàäèåíò_7-3" x1="2115.22" y1="-474.4" x2="2196.13" y2="-474.4" xlink:href="#Áåçûìÿííûé_ãðàäèåíò_7"/><linearGradient id="Áåçûìÿííûé_ãðàäèåíò_14-3" x1="3315.59" y1="824.57" x2="3346.45" y2="824.57" xlink:href="#Áåçûìÿííûé_ãðàäèåíò_14"/><linearGradient id="Áåçûìÿííûé_ãðàäèåíò_5-5" x1="2854.61" y1="642.15" x2="3109.96" y2="642.15" gradientTransform="matrix(-0.92, -0.04, -0.26, 1.08, 3799.61, -21.41)" xlink:href="#Áåçûìÿííûé_ãðàäèåíò_5"/><filter id="luminosity-noclip-8" x="847.72" y="505.34" width="87.67" height="57.97" filterUnits="userSpaceOnUse" color-interpolation-filters="sRGB"><feFlood flood-color="#fff" result="bg"/><feBlend in="SourceGraphic" in2="bg"/></filter><mask id="mask-8" x="448.95" y="168.99" width="87.67" height="57.97" maskUnits="userSpaceOnUse"><g class="cls-64"><g transform="translate(-398.77 -336.35)"><g class="cls-7"><path class="cls-8" d="M847.87,555.19c2,11.11,23.1,10.77,47.23-.76s42.1-29.87,40.15-41-23.1-10.77-47.23.75S845.92,544.09,847.87,555.19Z"/></g></g></g></mask><linearGradient id="Áåçûìÿííûé_ãðàäèåíò_7-4" x1="1754.86" y1="-454.47" x2="1835.77" y2="-454.47" xlink:href="#Áåçûìÿííûé_ãðàäèåíò_7"/><linearGradient id="Áåçûìÿííûé_ãðàäèåíò_5-6" x1="1272.47" y1="867.75" x2="1533.27" y2="660.91" gradientTransform="matrix(0.92, 0.04, 0.04, 1.09, -354.29, -217.56)" xlink:href="#Áåçûìÿííûé_ãðàäèåíò_5"/><linearGradient id="Áåçûìÿííûé_ãðàäèåíò_14-4" x1="2949.88" y1="620.78" x2="2980.74" y2="620.78" xlink:href="#Áåçûìÿííûé_ãðàäèåíò_14"/><linearGradient id="Áåçûìÿííûé_ãðàäèåíò_42" x1="1495.69" y1="699.9" x2="1553.31" y2="699.9" gradientTransform="translate(-631.05)" gradientUnits="userSpaceOnUse"><stop offset="0" stop-color="#f0f0fb"/><stop offset="1" stop-color="#d2d7f6"/></linearGradient><linearGradient id="Áåçûìÿííûé_ãðàäèåíò_9" x1="1914.94" y1="914.59" x2="1946.16" y2="914.59" gradientTransform="matrix(-1, 0, 0, 1, 2834.23, 0)" gradientUnits="userSpaceOnUse"><stop offset="0" stop-color="#322c8d"/><stop offset="1" stop-color="#6a6ae5"/></linearGradient><linearGradient id="Áåçûìÿííûé_ãðàäèåíò_9-2" x1="1938.95" y1="926.37" x2="1970.17" y2="926.37" xlink:href="#Áåçûìÿííûé_ãðàäèåíò_9"/><linearGradient id="Áåçûìÿííûé_ãðàäèåíò_9-3" x1="1905.49" y1="742.38" x2="1963.7" y2="742.38" xlink:href="#Áåçûìÿííûé_ãðàäèåíò_9"/><linearGradient id="Áåçûìÿííûé_ãðàäèåíò_42-2" x1="1505.52" y1="733.66" x2="1528.23" y2="733.66" xlink:href="#Áåçûìÿííûé_ãðàäèåíò_42"/></defs><polygon class="cls-9" points="318.71 146.41 220.99 585.27 215.94 589.15 313.67 152.84 318.71 146.41"/><polygon class="cls-10" points="313.67 152.84 215.94 589.15 205.26 586.8 302.99 147.94 313.67 152.84"/><polygon class="cls-9" points="232.07 515.05 170.93 546.86 166.88 539.1 233.27 509.95 232.07 515.05"/><polygon class="cls-11" points="233.27 509.95 170.93 542.45 163.28 537.7 225.63 505.21 233.27 509.95"/><polygon class="cls-9" points="246.58 451.72 185.44 483.51 181.39 475.76 247.78 446.62 246.58 451.72"/><polygon class="cls-12" points="247.78 446.62 185.44 479.11 177.79 474.36 240.13 441.87 247.78 446.62"/><polygon class="cls-9" points="261.09 388.38 199.95 420.18 195.9 412.42 262.29 383.28 261.09 388.38"/><polygon class="cls-13" points="262.29 383.28 199.95 415.77 192.3 411.03 254.64 378.53 262.29 383.28"/><polygon class="cls-9" points="275.6 325.04 214.46 356.84 210.41 349.09 276.8 319.94 275.6 325.04"/><polygon class="cls-14" points="276.8 319.94 214.46 352.44 206.81 347.69 269.15 315.2 276.8 319.94"/><polygon class="cls-9" points="290.11 261.7 228.96 293.5 224.92 285.75 291.31 256.6 290.11 261.7"/><path class="cls-15" d="M623,485.73c12.47-1.55,20.74-3.4,30-3.56s13.44,5.54,4.13,13.46c-5.4,4.58-18.68,5.05-28.38,7.14s-22.09,2.38-21.42-7.62C607.56,490.86,609,487.45,623,485.73Z" transform="translate(-398.77 -336.35)"/><path class="cls-16" d="M581.63,451c8.07-11.89,19.71-3,19.71-3s-3.08,2.14-3.71,8.94c-.73,7.83.9,20.93-.37,29.3-2.38,15.64-9.72,18.38-15.74,20.52s-6.72,11.66-6.72,11.66c-9.12-13.32,3.13-19.64,4-28.11S573.55,462.88,581.63,451Z" transform="translate(-398.77 -336.35)"/><path class="cls-17" d="M604.37,551.44c10.08,0,46.1,11.67,58.38,19.61,5.42,3.5,5.1,17.78-9.08,17.78-29.27,0-57.19-1.15-60.44-20.74C591.11,555.26,601.3,551.44,604.37,551.44Z" transform="translate(-398.77 -336.35)"/><path class="cls-18" d="M583,555.72c7.06-6.78,21.9-6.08,25,1s1.66,52.08,2.22,67.84-18.38,9.09-20.38,2.35-5.84-20.63-8-27.35-5.33-13.44-6.46-24.66S579.22,559.34,583,555.72Z" transform="translate(-398.77 -336.35)"/><path class="cls-15" d="M610,622.3c.76,7.53-2.63,62.69-2.45,64.48.21,2.12-8.38,5.48-9.09-1.65s-6.51-36.29-7-41.68-1.91-13.26-2.59-20.11C588.25,618.15,608.28,605.63,610,622.3Z" transform="translate(-398.77 -336.35)"/><path class="cls-18" d="M610.2,618.63c.35,5.86.72,16.16.4,25.24-1.42,1.14-11.76,4.44-20.45,1-.52-5.52-1.78-20.7-2.73-26.22C586.41,612.8,609.21,602.29,610.2,618.63Z" transform="translate(-398.77 -336.35)"/><path class="cls-19" d="M584.52,523c-1.07-5.29-6.33-15.64-2.68-25s18.57-14.82,25.23-13.51c2,.38,7.67,2.48,7.67,2.48,2.41,4.6,6.24,9.2,9.58,16.41,3.41,7.39-2.39,12.73-3.05,19-.91,8.73,2.06,20.7,2.06,33.06,0,0-16.36,20.31-46.65,6.09C576.68,548.64,589,545,584.52,523Z" transform="translate(-398.77 -336.35)"/><path class="cls-9" d="M598,695.12c2.94,4.85,9,6.68,14.31,6.76a18.2,18.2,0,0,0,6.39-1,16.31,16.31,0,0,0,3.93-.47l.88.67s2.23,2.59-4.24,3.92c-11,2.27-13.73-.16-15.79-1.7-.32-.24-2.46-2.07-2.46-2.07s-.68.49-.88.42c-1.92-.68-4.08-1-4.35-3.61s.53-3.6,1.18-5.17A11.91,11.91,0,0,0,598,695.12Z" transform="translate(-398.77 -336.35)"/><path class="cls-16" d="M597,679a14.7,14.7,0,0,0,11.15-.1c1.07,10.65,1.53,13.18,5.8,17.11s16,4.79,5.12,7.45-15.42-1-17.48-2.53-5.37-.82-5.72-4.29c-.42-4.2,1.47-4.13,1.6-8.9A55.15,55.15,0,0,0,597,679Z" transform="translate(-398.77 -336.35)"/><path class="cls-15" d="M665.5,581.78c0,7.57-8.44,60.43-8.44,62.23,0,2.13-8.88,4.62-8.88-2.55s-3.42-39.39-3.42-62.44C644.76,573.81,665.5,565,665.5,581.78Z" transform="translate(-398.77 -336.35)"/><polygon class="cls-20" points="291.31 256.61 228.96 289.1 221.31 284.35 283.66 251.86 291.31 256.61"/><path class="cls-9" d="M646.8,651.36c2.45,5.13,8.31,7.55,13.57,8.16a18.31,18.31,0,0,0,6.45-.32,16.84,16.84,0,0,0,3.95-.07c.52.48.83.75.83.75s1.95,2.8-4.63,3.48c-11.14,1.16-13.63-1.53-15.53-3.27-.3-.27-2.25-2.31-2.25-2.31s-.72.42-.91.34c-1.84-.87-4-1.37-4-4s.89-3.52,1.69-5A11.57,11.57,0,0,0,646.8,651.36Z" transform="translate(-398.77 -336.35)"/><path class="cls-16" d="M647.43,635.23a14.71,14.71,0,0,0,11.1,1c0,10.69.21,13.26,4.06,17.6s15.46,6.36,4.36,7.92-15.25-2.53-17.15-4.27-5.26-1.35-5.26-4.83c0-4.22,1.88-4,2.49-8.71A55.55,55.55,0,0,0,647.43,635.23Z" transform="translate(-398.77 -336.35)"/><polygon class="cls-15" points="210.69 165.52 206.44 160.57 213.14 163.02 210.69 165.52"/><path class="cls-21" d="M595.6,471.43s9.63-.56,9.63,6.24c0,5.14.91,6.08,3.1,7.92.7.59,2.06,1.29,3,2.13,1.55,1.4,3.41,5.76,3.41,5.76l-2.17,4.61s-3.27-1.19-4.94-1.73a34.48,34.48,0,0,1-4.88-2.24l-.19-.21c-3.31-3.54-11.14-5.7-11.14-5.7C597.21,485.38,595.6,471.43,595.6,471.43Z" transform="translate(-398.77 -336.35)"/><path class="cls-15" d="M613.12,490.22c.9,1.6,1.61,3.26,1.61,3.26l-2.17,4.61s-3.27-1.19-4.94-1.73a34.48,34.48,0,0,1-4.88-2.24l-.19-.21a11,11,0,0,0-1.47-1.29C605.5,493,609.77,492.43,613.12,490.22Z" transform="translate(-398.77 -336.35)"/><path class="cls-15" d="M616,499.38l-2-.76,1.3-3.08S615.86,498.11,616,499.38Z" transform="translate(-398.77 -336.35)"/><polygon class="cls-15" points="217.44 164.74 217.59 173.67 211.69 166.69 214.65 163.6 217.44 164.74"/><path class="cls-16" d="M604.65,447.55c7.65,0,13.14,4.69,13.14,11.22s-5.57,8.54-11.3,11.66c-3.62,2-10.64.36-10.64.36a24.45,24.45,0,0,0,0,4.85c.39,5.11-6.67-10.64-6.67-14.84C589.14,450.64,598.13,447.55,604.65,447.55Z" transform="translate(-398.77 -336.35)"/><path class="cls-15" d="M597.55,465.69a11.09,11.09,0,0,1,4-8.25c3.67-3.08,15.74-3.6,15.74,2.76,0,1.31-.28,2.88-.28,5.08s.75,2.07.2,4.61-4.42,9.37-5,11-7,1.19-10.76-1.93-4.67-5.07-4.54-6.63-2.84,1.22-2.84-4.6S597.55,465.69,597.55,465.69Z" transform="translate(-398.77 -336.35)"/><path class="cls-21" d="M597.55,465.69a11.05,11.05,0,0,1,3.27-7.59A17.85,17.85,0,0,0,599,471.68c1.44,4.31,4.13,8.38,8.79,9.66a10.58,10.58,0,0,0,3,.38,13.31,13.31,0,0,1-9.28-2.77c-3.79-3.11-4.67-5.07-4.54-6.63s-2.84,1.22-2.84-4.6S597.55,465.69,597.55,465.69Z" transform="translate(-398.77 -336.35)"/><polygon class="cls-9" points="304.61 198.37 243.47 230.17 239.43 222.41 305.82 193.27 304.61 198.37"/><polygon class="cls-22" points="305.82 193.27 243.47 225.76 235.82 221.01 298.16 188.52 305.82 193.27"/><polygon class="cls-9" points="257.46 168.05 159.74 606.9 154.69 610.8 252.42 174.48 257.46 168.05"/><polygon class="cls-23" points="252.42 174.48 154.69 610.8 144.87 604.56 241.74 169.58 252.42 174.48"/><path class="cls-15" d="M582.67,503.39c-4.17-8,7.44-12.61,16.62-14.76s17.85-4.08,22.11-4.69c10.74-1.55,15.42,5.89,7.17,10.06a242,242,0,0,1-26.32,11.29C589.13,510.28,584.67,507.2,582.67,503.39Z" transform="translate(-398.77 -336.35)"/><path class="cls-24" d="M632.93,392.27a77.8,77.8,0,0,0-1.37,11.5,77.8,77.8,0,0,1,1.37-11.5h0Z" transform="translate(-398.77 -336.35)"/><path class="cls-25" d="M670,452.44l6.39,3.16-1.24-4.81A30.45,30.45,0,0,1,670,452.44Z" transform="translate(-398.77 -336.35)"/><path class="cls-26" d="M702.07,367.22h0l3.59-2.45-6.58-3.25a46.33,46.33,0,0,1,3,5.7Z" transform="translate(-398.77 -336.35)"/><polygon class="cls-27" points="248.29 110.54 248.29 110.54 238.38 105.52 236.73 110.67 246.65 115.69 248.29 110.54 248.29 110.54"/><polygon class="cls-28" points="280.67 10.18 282.32 5.03 272.4 0 270.76 5.16 280.67 10.18"/><path class="cls-26" d="M636.27,431.92l-3.59,2.46-3.35-1.78a36.09,36.09,0,0,0,7.82,9.27l9.92,5A38.87,38.87,0,0,1,636.27,431.92Z" transform="translate(-398.77 -336.35)"/><path class="cls-26" d="M662,343.55l1.25,4.83a27.28,27.28,0,0,1,16.22-1.85l-9.92-5a26.17,26.17,0,0,0-11.06.19Z" transform="translate(-398.77 -336.35)"/><polygon class="cls-29" points="229.61 81.41 219.69 76.39 223.99 93.01 230.56 96.25 233.91 98.03 229.61 81.41"/><polygon class="cls-30" points="229.61 81.41 233.2 78.95 223.28 73.93 219.69 76.39 229.61 81.41"/><polygon class="cls-31" points="252.03 20.55 250.78 15.73 240.86 10.7 242.11 15.53 252.03 20.55"/><path class="cls-26" d="M632,415.3a73.8,73.8,0,0,1-.41-11.53,77.8,77.8,0,0,1,1.37-11.5h0l-3.4-1.67-6.5-3.33a75.46,75.46,0,0,0-1,23Z" transform="translate(-398.77 -336.35)"/><path class="cls-26" d="M628.75,369.46l9.92,5c1.17-2.05,7.72-13.25,12.13-17.58l-9.92-5A60.38,60.38,0,0,0,628.75,369.46Z" transform="translate(-398.77 -336.35)"/><polygon class="cls-32" points="236.47 36.47 226.55 31.45 220.81 49.23 224.23 50.91 230.74 54.24 236.47 36.47"/><polygon class="cls-33" points="250.78 15.73 263.21 7.2 253.28 2.18 240.86 10.7 250.78 15.73"/><path class="cls-34" d="M699.69,424.65l3.41,1.67,5.73-17.77-3.41-1.67s2.76-7.4,1-23l3.6-2.47-4.31-16.63-3.59,2.45a46.33,46.33,0,0,0-3-5.7,36.18,36.18,0,0,0-7.81-9.26l1.66-5.16-11.83-5.72-1.65,5.15a27.28,27.28,0,0,0-16.22,1.85L662,343.55l-12.42,8.53,1.24,4.82a60.38,60.38,0,0,0-12.13,17.58l-3.43-1.66-5.73,17.77,3.4,1.67h0a77.8,77.8,0,0,0-1.37,11.5A73.8,73.8,0,0,0,632,415.3l-3.59,2.46,4.3,16.62,3.59-2.46a38.87,38.87,0,0,0,10.8,15L645.42,452l11.82,5.74,1.66-5.15a26.05,26.05,0,0,0,11.07-.19,30.45,30.45,0,0,0,5.15-1.65l1.24,4.81,12.43-8.53-1.25-4.81a60.13,60.13,0,0,0,12.15-17.61Z" transform="translate(-398.77 -336.35)"/><path class="cls-26" d="M649.89,440.54c.55.29,1.1.58,1.66.83,7.12,3.2,15.39,2.54,23.36-2.7.27-.17.53-.31.79-.5s.25-.19.37-.28c16.74-12,25.55-40.19,19.65-63.16a40.77,40.77,0,0,0-8.6-17.09c-.51-.57-1-1.08-1.57-1.6a27.35,27.35,0,0,1,3.31,2.47h0c4.95,4.39,8.9,11,11.1,19.6,5.78,22.51-2.58,50-18.66,62.4-.36.27-.7.56-1.06.83l-.29.22c-6.08,4.24-12.36,5.74-18.21,4.92a23.6,23.6,0,0,1-13-6.5Z" transform="translate(-398.77 -336.35)"/><path class="cls-35" d="M651.55,441.37c7.12,3.2,15.39,2.54,23.36-2.7.27-.17.53-.31.79-.5s.25-.19.37-.28c16.74-12,25.55-40.19,19.65-63.16a40.77,40.77,0,0,0-8.6-17.09,13.21,13.21,0,0,0-1.57-1.6c-7.43-5.88-17.8-4.93-27.15,1.59-17,11.85-25.95,40.31-20,63.45,2.05,8,5.77,15.08,10.17,18.69A26.26,26.26,0,0,0,651.55,441.37Z" transform="translate(-398.77 -336.35)"/><path class="cls-15" d="M674,457.51c5.17-5.23,2.34-6.73,5.82-11.13,1.88-2.38,1.68-4.89,2.4-4.41,2.67,1.76-1.15,6.87.4,5.09s4.3-5.14,3.89-7.59.75-5.17,1.42-3.54,2.6,3.67,2.86,4.86-.87,2.7-.12,3.41.39,1.71-2.79,5.58S665,486.57,662.18,491.1c-4.59,7.24-14.14.59-9.86-8.22C656.87,473.51,668.84,462.73,674,457.51Z" transform="translate(-398.77 -336.35)"/><path class="cls-15" d="M623.22,486.43c1.12-9.74,9.8-23.29,12.79-30.34,2.72-6.41-.81-4.59,1.29-9.78,1.13-2.82.23-5.18,1.06-4.92,3,.94.83,6.92,1.81,4.78s2.06-4.84,1-7.06-.74-5.18.36-3.81,4.15,1.47,4.74,2.54-.08,2.84.84,3.31.85,1.53-1.1,6.14-5.32,32.33-11.67,43.38C630.94,496.55,622.11,496.16,623.22,486.43Z" transform="translate(-398.77 -336.35)"/><polygon class="cls-36" points="193.89 469.87 221.08 503.04 254.77 524.27 298.22 531.82 292.57 487.07 193.89 469.87"/><polygon class="cls-36" points="326.5 214.04 353.69 247.21 387.38 268.45 430.83 275.99 425.18 231.25 326.5 214.04"/><polygon class="cls-36" points="193.89 469.87 322.03 223.54 346.41 246.68 375.01 255.19 244.67 499.72 216.52 492.43 193.89 469.87"/><polygon class="cls-26" points="547.46 273.15 496.68 243.57 505.32 213.31 553.32 190.89 568.02 217.13 547.46 273.15"/><polygon class="cls-36" points="382.96 367.7 377.13 417.86 339.16 449.63 192.13 363.7 227.19 330.26 233.03 280.15 382.96 367.7"/><polygon class="cls-26" points="52.72 540.82 1.94 511.23 35.39 455.51 97.82 466.07 52.72 540.82"/><path class="cls-36" d="M401.47,858.69,436.14,823l32.44-2s.37,50.88,44.4,51.18,75.13-56.77,75.13-56.77l23.18,24.79,29.3,7.86c-13.76,28.86-60.9,97.76-132.43,109.42-3.63,9.91-8,20.61-8,20.61l-51.22-29.87v0C407.46,922.11,401.47,858.69,401.47,858.69Z" transform="translate(-398.77 -336.35)"/><polygon class="cls-36" points="120.59 514.2 70.98 485.69 39.69 484.52 2.7 522.34 53.48 551.92 88.15 516.25 120.59 514.2"/><path class="cls-36" d="M618.65,608.76l-5.85,50.12-34.92,34.84s-102.09-25.8-110.71,117.46L433,813.31l-32.27,34.27S383.28,746.9,453,667.7,576.08,590.41,618.65,608.76Z" transform="translate(-398.77 -336.35)"/><path class="cls-36" d="M878,441.05a96.1,96.1,0,0,1,34.4,10.67v0l51.46,30-11.08,17.27a133.53,133.53,0,0,1,9.47,44.61l-32.5,2.21-34.3,34.17s-.88-42.65-34.91-49.71c-52.27-10.86-83.36,52.54-83.36,52.54l-30.13-9.6-23-22.31S793.87,430.59,878,441.05Z" transform="translate(-398.77 -336.35)"/><path class="cls-36" d="M783.17,758.24l5.27-51s42.95,24.28,85.25-41.12c21.22-32.81,20.84-74.32,20.84-74.32l40.23-35.61,28.64-2.74s9.09,97.92-52.91,172-121.21,82.88-163.91,65.86Z" transform="translate(-398.77 -336.35)"/><polygon class="cls-36" points="440.45 400.51 389.67 370.92 347.81 455 398.59 484.59 435.17 451.47 440.45 400.51"/><polygon class="cls-37" points="244.67 499.46 372.81 253.13 397.19 276.27 425.79 284.78 298.22 531.82 270.07 524.52 244.67 499.46"/><polygon class="cls-38" points="433.75 397.3 427.91 447.45 389.94 479.22 242.91 393.29 277.96 359.86 283.81 309.74 433.75 397.3"/><g class="cls-39"><path class="cls-40" d="M676.16,780c2,11.1,23.1,10.77,47.22-.76s42.11-29.87,40.15-41-23.1-10.77-47.23.76S674.2,768.84,676.16,780Z" transform="translate(-398.77 -336.35)"/></g><path class="cls-41" d="M738.05,728.67a15.66,15.66,0,0,0,6.58,19.7,12.65,12.65,0,0,0,18.12-5.76,15.65,15.65,0,0,0-6.58-19.71A12.66,12.66,0,0,0,738.05,728.67Z" transform="translate(-398.77 -336.35)"/><path class="cls-42" d="M740.58,730.58a15.66,15.66,0,0,0,6.59,19.7,12.66,12.66,0,0,0,18.12-5.76,15.67,15.67,0,0,0-6.58-19.71A12.67,12.67,0,0,0,740.58,730.58Z" transform="translate(-398.77 -336.35)"/><path class="cls-43" d="M452.28,888.29s5.07,53.78,38.23,82.68a70.86,70.86,0,0,0,42.25,17.48,76.38,76.38,0,0,0,9.9.26c80.67-2.83,134-80.11,148.68-111.08l-29.27-7.9L638.88,845s-31.09,57-75.09,56.79-44.44-51.21-44.44-51.21l-32.41,2.07Z" transform="translate(-398.77 -336.35)"/><g class="cls-44"><path class="cls-45" d="M490.51,971a70.86,70.86,0,0,0,42.25,17.48c20.49-11.41,35-27.33,33.22-37.36-1.94-11.09-23.07-10.78-47.2.75A110.3,110.3,0,0,0,490.51,971Z" transform="translate(-398.77 -336.35)"/></g><path class="cls-41" d="M541.58,940.37a15.65,15.65,0,0,0,6.58,19.7,12.67,12.67,0,0,0,18.13-5.76,15.69,15.69,0,0,0-6.58-19.71A12.66,12.66,0,0,0,541.58,940.37Z" transform="translate(-398.77 -336.35)"/><path class="cls-46" d="M544.12,942.28A15.66,15.66,0,0,0,550.7,962a12.66,12.66,0,0,0,18.12-5.76,15.67,15.67,0,0,0-6.58-19.71A12.66,12.66,0,0,0,544.12,942.28Z" transform="translate(-398.77 -336.35)"/><polygon class="cls-36" points="270.65 302 219.88 272.41 1.94 511.23 52.72 540.82 97.82 413.81 167.35 348.65 239.88 325.62 270.65 302"/><path class="cls-47" d="M669.43,638.35l-5.85,50.11-34.92,34.85S526.56,697.51,518,840.78l-34.2,2.12-32.27,34.27s-17.43-100.68,52.29-179.88S626.86,620,669.43,638.35Z" transform="translate(-398.77 -336.35)"/><g class="cls-48"><path class="cls-49" d="M461.42,761.54c2,11.11,23.1,10.76,47.23-.76s42.1-29.88,40.15-41-23.1-10.77-47.23.76S459.47,750.43,461.42,761.54Z" transform="translate(-398.77 -336.35)"/></g><path class="cls-41" d="M520.61,715.44a15.66,15.66,0,0,0,6.58,19.7,12.67,12.67,0,0,0,18.13-5.76,15.67,15.67,0,0,0-6.58-19.71A12.66,12.66,0,0,0,520.61,715.44Z" transform="translate(-398.77 -336.35)"/><polygon class="cls-36" points="615.41 246.72 564.63 217.13 535.99 219.87 495.76 255.48 546.53 285.06 586.77 249.45 615.41 246.72"/><path class="cls-36" d="M946.23,609.51l-36.63-16-14.14-13.54V546.84l41.42,6.64,9.35,6.41s5,8.11,5,11.63S946.23,609.51,946.23,609.51Z" transform="translate(-398.77 -336.35)"/><path class="cls-50" d="M523.15,717.35a15.66,15.66,0,0,0,6.58,19.7,12.65,12.65,0,0,0,18.12-5.77,15.66,15.66,0,0,0-6.58-19.7A12.65,12.65,0,0,0,523.15,717.35Z" transform="translate(-398.77 -336.35)"/><path class="cls-51" d="M828,612.34s31.09-63.4,83.36-52.55c34,7.07,34.9,49.72,34.9,49.72l34.3-34.17,32.51-2.21s-.13-92-84.26-102.5-154,109.8-154,109.8l23,22.3Z" transform="translate(-398.77 -336.35)"/><g class="cls-52"><path class="cls-53" d="M847.87,555.19c2,11.11,23.1,10.77,47.23-.76s42.1-29.87,40.15-41-23.1-10.77-47.23.75S845.92,544.09,847.87,555.19Z" transform="translate(-398.77 -336.35)"/></g><path class="cls-54" d="M834,787.82l5.27-51s42.95,24.28,85.25-41.12c21.22-32.81,20.84-74.33,20.84-74.33l40.23-35.61,28.64-2.73s9.09,97.92-52.91,172S840.06,838,797.37,820.94Z" transform="translate(-398.77 -336.35)"/><path class="cls-41" d="M908.36,511.27A15.68,15.68,0,0,0,914.93,531a12.66,12.66,0,0,0,18.13-5.77,15.65,15.65,0,0,0-6.59-19.7A12.64,12.64,0,0,0,908.36,511.27Z" transform="translate(-398.77 -336.35)"/><path class="cls-55" d="M910.89,513.18a15.67,15.67,0,0,0,6.58,19.71,12.67,12.67,0,0,0,18.13-5.76A15.67,15.67,0,0,0,929,507.42,12.66,12.66,0,0,0,910.89,513.18Z" transform="translate(-398.77 -336.35)"/><path class="cls-15" d="M846.58,656.11c1.61,3.16,3.81,5.71,2.28,6.29-1.71.66-6.26-1.89-6.75-1.41-2.3,2.31,5.93,5.5,9.48,5.5,4.55,0,14.51,29.27,14.51,29.27l11.2-4.59S863,668.24,861.51,661.88a14.43,14.43,0,0,0-6.2-8.74c-1-.67-6.19,2.49-7.34-2.12-1-4-2.66-6.79-3.27-6.6C843.48,644.79,845,652.93,846.58,656.11Z" transform="translate(-398.77 -336.35)"/><path class="cls-56" d="M922.26,704.9c-.31,8.6-9,9.55-21.07,8.23C891,712,877,709.35,865.61,699c-4.49-4.06,7.83-13.73,11.35-12.76a137.08,137.08,0,0,0,23.63,5.41C915,693.55,922.53,697.28,922.26,704.9Z" transform="translate(-398.77 -336.35)"/><path class="cls-57" d="M916.7,913.6c1.48,1.46,3.36,9.49,2,11a7.34,7.34,0,0,1-2.92,1.77c-8.88,3.4-22.56-8.44-24.83-10.41-2.08-1.8-4.19-5.79-3-8.29C888.88,905.59,914.76,911.72,916.7,913.6Z" transform="translate(-398.77 -336.35)"/><path class="cls-58" d="M903.79,906.51c3.32,1.28,12,6.08,13.46,7.52s2.81,6.7,1.48,8.16a11.06,11.06,0,0,1-3.89,2c-4.31,1.45-16.23-4.09-22.15-9.29-2.06-1.81-5.53-6-4.39-8.53C889.24,904.33,897.5,904.06,903.79,906.51Z" transform="translate(-398.77 -336.35)"/><path class="cls-57" d="M906.7,917.51a1.68,1.68,0,1,1-1.25,1.62A1.47,1.47,0,0,1,906.7,917.51Z" transform="translate(-398.77 -336.35)"/><path class="cls-57" d="M916.79,914.59s2.32,2.19,1.59,7.94a4.87,4.87,0,0,1-3.87,1.88s.2-5.82-1-7.59l-.63-1.18,2.48-3.28Z" transform="translate(-398.77 -336.35)"/><path class="cls-15" d="M915.88,910.14a41.27,41.27,0,0,0,.91,4.45,2.42,2.42,0,0,0-2.44-.14,2.15,2.15,0,0,0-.88,2.37,12.25,12.25,0,0,1-6.43-1.09c-5.5-2.34-6.47-5.51-6-6.64C902.7,905.53,914.33,910.41,915.88,910.14Z" transform="translate(-398.77 -336.35)"/><path class="cls-59" d="M921,840.72c.91,2,2.7,11.46,1.72,22.35s-3.94,46.42-3.94,46.42c-11,4.23-16.73-1.13-16.73-1.13s-3.88-49.94-4.25-65.35S918.58,835.2,921,840.72Z" transform="translate(-398.77 -336.35)"/><path class="cls-59" d="M898.56,764.75c8.12-7.07,16.19-5.91,18.82-3.93,10.86,8.2,10.78,27.81,10.23,34.26-.51,5.9-4.47,38.53-6.11,47.94-2.43,14-23.49,15-23.49,4.55C898,837.45,884,777.45,898.56,764.75Z" transform="translate(-398.77 -336.35)"/><path class="cls-57" d="M892.69,925.38c1.47,1.45,3.35,9.49,2,11a7.37,7.37,0,0,1-2.91,1.77c-8.88,3.4-22.56-8.45-24.84-10.42-2.07-1.79-4.18-5.78-3-8.28C864.86,917.37,890.75,923.49,892.69,925.38Z" transform="translate(-398.77 -336.35)"/><path class="cls-60" d="M879.77,918.28c3.31,1.29,12,6.09,13.46,7.54s2.81,6.68,1.48,8.15a11,11,0,0,1-3.88,2c-4.32,1.44-16.23-4.1-22.15-9.29-2.07-1.81-5.54-6-4.39-8.53C865.22,916.11,873.49,915.85,879.77,918.28Z" transform="translate(-398.77 -336.35)"/><path class="cls-57" d="M882.69,929.29a1.67,1.67,0,1,1-1.25,1.62A1.47,1.47,0,0,1,882.69,929.29Z" transform="translate(-398.77 -336.35)"/><path class="cls-57" d="M892.78,926.36s2.32,2.2,1.57,8a4.81,4.81,0,0,1-3.85,1.87s.2-5.81-1-7.6l-.64-1.17,2.49-3.29Z" transform="translate(-398.77 -336.35)"/><path class="cls-15" d="M891.86,921.92a43.12,43.12,0,0,0,.92,4.44,2.4,2.4,0,0,0-2.44-.12,2.11,2.11,0,0,0-.88,2.35,12.2,12.2,0,0,1-6.44-1.08c-5.5-2.33-6.47-5.5-5.95-6.64C878.69,917.31,890.32,922.19,891.86,921.92Z" transform="translate(-398.77 -336.35)"/><path class="cls-61" d="M898.81,851.72c.91,2,1.54,13.16.56,24.06s-4.08,48.29-4.08,48.29c-11,4.23-16.67-4-16.67-4s-3.79-49-4.16-64.36S896.34,846.19,898.81,851.72Z" transform="translate(-398.77 -336.35)"/><path class="cls-61" d="M876.91,773.36c8.31-6.84,18.3-1.16,20.93.83,10.86,8.2,9.17,19.06,8.62,25.5-.51,5.91-6.71,46.62-8.35,56-2.43,14-23.49,15-23.49,4.55C874.62,850.15,865.69,782.59,876.91,773.36Z" transform="translate(-398.77 -336.35)"/><path class="cls-62" d="M872.23,718.22c0-18.06,28-25.11,36.47-25.11,17.22,0,18,21.9,15.59,37.9s4.45,52.65,4.45,52.65c-12.65,14.62-58.21,4.71-58.21,4.71C874.94,769.39,872.23,734.08,872.23,718.22Z" transform="translate(-398.77 -336.35)"/><path class="cls-15" d="M880.69,667.49c.18-2.1,2.64-.56,4.22-2a10.7,10.7,0,0,1,6.2-2.22,9.15,9.15,0,0,1,5.76.91,9,9,0,0,1,2.78,3.33c5,8.92,2.64,16.06,4.09,25.49a71.21,71.21,0,0,1-14.14,4.8c-.52.07,3.38-4.8,2.37-9-4,1.17-6.56-4-10.27-10.21-1.11-1.83-.47-4.79.07-6.16C882.52,670.47,880.51,669.6,880.69,667.49Z" transform="translate(-398.77 -336.35)"/><path class="cls-16" d="M889.05,656.35c-.17-5.49,11.29-5.69,10.08.66,5.32-.79,12.63,3.76,9.69,10.91,2.85,5.6-2.65,11.19-4.11,14.56-.33.75-1.45,3.6-1.45,3.6s-7.24,1.93-10.07,0c-3.32-2.2-4.48-6.09-5.24-9.8-1.24-6-4.82-3.06-4.82-8.34-2.27-1.06-3.33,2.16-3.33,2.16C874.49,660,883.24,653,889.05,656.35Z" transform="translate(-398.77 -336.35)"/><path class="cls-57" d="M890,693c6.85-3.48,9.69-4,12.89-4.22a2.86,2.86,0,0,1,2.53,1.29l1.93,2.94-21,6.7A8.06,8.06,0,0,1,890,693Z" transform="translate(-398.77 -336.35)"/><path class="cls-15" d="M844,774.67c3.05-1.85,4.44-1.72,3.45-3s-4.29-3.62-4.26-4.3c.06-1.38,3.78,0,6.38,2,1.21.91,4.57.54,5.5.2,7.18-2.7,26.39-18.33,26.39-18.33L888.6,761s-27.44,14.48-32,19.14c-1.76,1.79-5.24,6.74-6.29,6.16s-6.14-2.32-6.94-3.34,2.15-7.26-.8-3.2c-2.4,3.29-6.61,5.35-5.92,4.11C837.68,781.94,841,776.51,844,774.67Z" transform="translate(-398.77 -336.35)"/><path class="cls-63" d="M882.15,704.93c8.35-2,11.64,6.05,13.68,18,1.71,10.08,3,24.28-3.83,38.08-2.68,5.45-15.35-3.76-15.38-7.41a136.84,136.84,0,0,0-1.26-24.21C873.22,715,874.74,706.76,882.15,704.93Z" transform="translate(-398.77 -336.35)"/></svg>