<svg id="Layer_1" data-name="Layer 1" xmlns="http://www.w3.org/2000/svg" viewBox="0 0 122.47 207.27"><defs><style>.cls-1{font-size:18.36px;font-family:CenturyGothic, Century Gothic;}.cls-2{fill:#090c0c;}.cls-3{fill:#d1d1cf;}.cls-4{fill:#e8e9e7;}.cls-5{fill:#e2cd1f;}.cls-6{fill:#eee741;}.cls-7{fill:#ededed;}.cls-8{fill:#eee;}</style></defs><text class="cls-1" transform="translate(1.62 201.64)">Linoxide.com</text><path class="cls-2" d="M297.56,285.39c-11.1,1.78-22.43,2.71-33.22,5.65-6.18,1.69-11.48,6.63-17,10-3.93-12.3,5.37-27.74,21.68-33.61-9.07-9.8-14.72-21-15.33-34.46L252,232l-9.12,12.38c-5.35-12.77-1.23-25.33,8.73-32.55,2.9-2.1,5-5.5,7-8.61q7.2-11.19,13.91-22.69c1.4-2.42,2.77-5.32,2.75-8-.07-8-1.09-16.08-1.27-24.13-.39-17.59,11.62-30.41,28-30.21,16.11.19,27.76,12.91,27.34,30.19-.19,8-1.2,16.08-1.27,24.13,0,2.67,1.31,5.61,2.76,8,2.84,4.61,6.68,8.65,9.23,13.39,4.45,8.28,7.72,16.79,16.45,22.46,6.75,4.39,7.93,16.19,5,26.82l-9.43-11.32-2.23.85c-1.06,13.27-5.91,24.78-15.78,34.71,18,5.08,22.45,18.35,22.93,35.82-14.77-15.22-32.58-17.72-51.18-17.8,7.25-7.74,15.27-14.89,21.58-23.32,17.06-22.76,17.35-46.76,3.73-71.45-2.55-4.62-5.47-6.5-10.68-6-5,.44-10,0-15,0,2.39-7.56,4.79-15.12,7.28-23H290.51l7.4,23c-6.09,0-12.19-.09-18.27.18-1.68.08-4.1.83-4.85,2.07-10.68,17.75-16.59,36.32-8.68,56.94C272.59,260.7,283.88,274,297.56,285.39Zm20.38-130.92c2.6-3.44,5.15-5.33,5.06-7.08-.1-1.94-2.61-3.75-4.07-5.62-1.87,1.67-4.7,3.07-5.3,5.12C313.2,148.39,315.69,150.74,317.94,154.47Zm-32.41,0c2.12-3.85,4.36-6.09,4.14-8.05-.19-1.71-3.14-3.11-4.87-4.65-1.64,1.91-4.24,3.66-4.58,5.78C280,149.05,282.77,151.05,285.53,154.46Z" transform="translate(-240.54 -118.16)"/><path class="cls-3" d="M297.56,285.39c-13.68-11.44-25-24.69-31.45-41.58-7.91-20.62-2-39.19,8.68-56.94.75-1.24,3.17-2,4.85-2.07,6.08-.27,12.18-.15,18.27-.18l2.61,5.19,1.15,2.76q0,47.15-.08,94.28Z" transform="translate(-240.54 -118.16)"/><path class="cls-4" d="M301.59,286.85q0-47.15.08-94.28,1.88-4,3.77-7.95c5,0,10,.43,15,0,5.21-.48,8.13,1.4,10.68,6,13.62,24.69,13.33,48.69-3.73,71.45-6.31,8.43-14.33,15.58-21.58,23.32Z" transform="translate(-240.54 -118.16)"/><path class="cls-5" d="M300.52,189.81l-2.61-5.19-7.4-23h11.23Q301.13,175.72,300.52,189.81Z" transform="translate(-240.54 -118.16)"/><path class="cls-6" d="M300.52,189.81q.6-14.1,1.22-28.19h11c-2.49,7.88-4.89,15.44-7.28,23q-1.89,4-3.77,7.95C301.28,191.65,300.9,190.73,300.52,189.81Z" transform="translate(-240.54 -118.16)"/><path class="cls-7" d="M317.94,154.47c-2.25-3.73-4.74-6.08-4.31-7.58.6-2,3.43-3.45,5.3-5.12,1.46,1.87,4,3.68,4.07,5.62C323.09,149.14,320.54,151,317.94,154.47Z" transform="translate(-240.54 -118.16)"/><path class="cls-8" d="M285.53,154.46c-2.76-3.41-5.55-5.41-5.31-6.92.34-2.12,2.94-3.87,4.58-5.78,1.73,1.54,4.68,2.94,4.87,4.65C289.89,148.37,287.65,150.61,285.53,154.46Z" transform="translate(-240.54 -118.16)"/></svg>