<svg id="Layer_1" data-name="Layer 1" xmlns="http://www.w3.org/2000/svg" viewBox="0 0 104.41 38"><defs><style>.cls-1,.cls-2{fill:#232020;}.cls-2{fill-rule:evenodd;}</style></defs><path class="cls-1" d="M9,26.84c-.18-.43-.42-1-.72-1.66s-.63-1.41-1-2.19-.72-1.59-1.11-2.42L5.11,18.22c-.34-.74-.67-1.4-1-2s-.54-1-.72-1.34q-.3,3.22-.5,7T2.6,29.47H0c.07-1.64.15-3.3.25-5s.19-3.31.31-4.92.25-3.19.38-4.72.29-3,.45-4.34H3.72c.49.8,1,1.75,1.58,2.84S6.43,15.61,7,16.8s1.11,2.39,1.64,3.58l1.45,3.27c.43-1,.92-2.08,1.44-3.27S12.61,18,13.17,16.8s1.13-2.34,1.7-3.43,1.09-2,1.58-2.84h2.33q.93,9.15,1.39,18.94H17.58q-.15-3.82-.33-7.59c-.13-2.5-.29-4.83-.5-7-.18.31-.42.76-.72,1.34s-.62,1.24-1,2-.71,1.52-1.11,2.35-.76,1.64-1.1,2.42-.67,1.51-1,2.19-.55,1.23-.73,1.66Z" transform="translate(0 0)"/><path class="cls-1" d="M25.43,27.64c.61,0,1.14,0,1.6,0a7.66,7.66,0,0,0,1.17-.15V23.21a3.27,3.27,0,0,0-.89-.23,9.1,9.1,0,0,0-1.49-.1A10.54,10.54,0,0,0,24.6,23a3.89,3.89,0,0,0-1.17.34,2.42,2.42,0,0,0-.89.72,1.83,1.83,0,0,0-.36,1.18,2,2,0,0,0,.88,1.9A4.47,4.47,0,0,0,25.43,27.64ZM25.22,14.9a7.21,7.21,0,0,1,2.58.4,4,4,0,0,1,1.69,1.12,4.15,4.15,0,0,1,.92,1.72,8.39,8.39,0,0,1,.27,2.2v8.88l-.91.15c-.39.07-.84.13-1.33.18s-1,.11-1.6.15-1.14.07-1.71.07a9,9,0,0,1-2.21-.25,4.82,4.82,0,0,1-1.75-.78A3.61,3.61,0,0,1,20,27.34a5,5,0,0,1-.41-2.11,4,4,0,0,1,.48-2,3.8,3.8,0,0,1,1.3-1.37,6.06,6.06,0,0,1,1.91-.76,10.13,10.13,0,0,1,2.3-.25,7.21,7.21,0,0,1,.79,0l.78.11.64.12.39.09v-.71a5.84,5.84,0,0,0-.14-1.25,2.92,2.92,0,0,0-.49-1.09,2.5,2.5,0,0,0-1-.77,3.86,3.86,0,0,0-1.6-.28,12.86,12.86,0,0,0-2.2.17,8.52,8.52,0,0,0-1.41.37l-.3-2.1a7.65,7.65,0,0,1,1.64-.43A14.78,14.78,0,0,1,25.22,14.9Z" transform="translate(0 0)"/><path class="cls-1" d="M40.18,28.05a7,7,0,0,1-1.27.56,6.65,6.65,0,0,1-2.2.34,7.19,7.19,0,0,1-2.42-.41,5.34,5.34,0,0,1-2-1.27A6.29,6.29,0,0,1,31,25.12a8.47,8.47,0,0,1-.49-3.06A8.45,8.45,0,0,1,31,19.2,6.43,6.43,0,0,1,32.3,17a6.13,6.13,0,0,1,2.17-1.47,7.42,7.42,0,0,1,2.9-.54,16.55,16.55,0,0,1,3.1.26c.88.18,1.63.34,2.23.48V28.37q0,3.28-1.7,4.76a7.66,7.66,0,0,1-5.13,1.48,14.44,14.44,0,0,1-2.53-.22,15.19,15.19,0,0,1-2.07-.52l.47-2.22a11.24,11.24,0,0,0,1.87.54,11.6,11.6,0,0,0,2.31.23,4.84,4.84,0,0,0,3.27-.9,3.71,3.71,0,0,0,1-2.87Zm0-10.55a8.31,8.31,0,0,0-1-.21,13.15,13.15,0,0,0-1.73-.09,3.85,3.85,0,0,0-3.16,1.34,5.37,5.37,0,0,0-1.11,3.55,6.18,6.18,0,0,0,.32,2.1,4.17,4.17,0,0,0,.84,1.45,3.41,3.41,0,0,0,1.23.85,4,4,0,0,0,1.44.27,5.85,5.85,0,0,0,1.86-.28,5.05,5.05,0,0,0,1.34-.67Z" transform="translate(0 0)"/><path class="cls-1" d="M43.58,15.67c.58-.15,1.36-.31,2.32-.47A20.59,20.59,0,0,1,49.24,15a7.13,7.13,0,0,1,2.81.48,4.39,4.39,0,0,1,1.79,1.34,5.26,5.26,0,0,1,.95,2.07,12.06,12.06,0,0,1,.27,2.65v8H52.52V22a12,12,0,0,0-.18-2.24,3.68,3.68,0,0,0-.59-1.5,2.27,2.27,0,0,0-1.09-.83A4.66,4.66,0,0,0,49,17.2c-.28,0-.56,0-.85,0l-.84.07c-.26,0-.5.06-.71.1l-.45.08v12H43.58Z" transform="translate(0 0)"/><path class="cls-1" d="M54.93,22.39a8.89,8.89,0,0,1,.55-3.29,6.84,6.84,0,0,1,1.45-2.34A5.89,5.89,0,0,1,59,15.36a6.53,6.53,0,0,1,2.41-.46,5.48,5.48,0,0,1,4.4,1.79q1.53,1.78,1.53,5.45v.43a3.64,3.64,0,0,1,0,.48H57.58a5.21,5.21,0,0,0,1.29,3.36,4.71,4.71,0,0,0,3.5,1.14,9.05,9.05,0,0,0,2.25-.23A7.41,7.41,0,0,0,66,26.87L66.36,29a7.24,7.24,0,0,1-1.63.52,11.08,11.08,0,0,1-2.64.28,8.42,8.42,0,0,1-3.21-.56,6.11,6.11,0,0,1-2.23-1.55,6.2,6.2,0,0,1-1.29-2.34A9.62,9.62,0,0,1,54.93,22.39ZM64.69,21a4.25,4.25,0,0,0-.86-2.83,3,3,0,0,0-2.45-1.11,3.3,3.3,0,0,0-1.54.34,3.58,3.58,0,0,0-1.14.89A3.91,3.91,0,0,0,58,19.55,6,6,0,0,0,57.64,21Z" transform="translate(0 0)"/><path class="cls-1" d="M69.88,15.26h5.39v2.13H69.88V24a7.75,7.75,0,0,0,.17,1.76,2.63,2.63,0,0,0,.49,1.09,1.73,1.73,0,0,0,.82.56,3.62,3.62,0,0,0,1.15.17,5.45,5.45,0,0,0,1.84-.26l1-.37.49,2.1a8.64,8.64,0,0,1-1.34.48,7.57,7.57,0,0,1-2.18.29,6.48,6.48,0,0,1-2.39-.37,3.52,3.52,0,0,1-1.52-1.11,4.49,4.49,0,0,1-.81-1.81A12.41,12.41,0,0,1,67.34,24V11.29l2.54-.44Z" transform="translate(0 0)"/><path class="cls-1" d="M87.12,22.36a8.93,8.93,0,0,1-.5,3.06,6.7,6.7,0,0,1-1.38,2.35,6,6,0,0,1-2.12,1.52,7,7,0,0,1-5.35,0,6,6,0,0,1-2.12-1.52,7,7,0,0,1-1.38-2.35,8.93,8.93,0,0,1-.49-3.06,9,9,0,0,1,.49-3.05A7.07,7.07,0,0,1,75.65,17a6.07,6.07,0,0,1,2.12-1.52,7,7,0,0,1,5.35,0A6.07,6.07,0,0,1,85.24,17a6.75,6.75,0,0,1,1.38,2.36A9,9,0,0,1,87.12,22.36Zm-2.66,0a6.11,6.11,0,0,0-1.08-3.81,3.76,3.76,0,0,0-5.87,0,6.11,6.11,0,0,0-1.08,3.81,6.08,6.08,0,0,0,1.08,3.81,3.76,3.76,0,0,0,5.87,0A6.08,6.08,0,0,0,84.46,22.36Z" transform="translate(0 0)"/><path class="cls-2" d="M82.26,13.14,85.37,2.36,82.4.24c-.81-.33-1.25-.12-1.33.6-.12,1.08-1.31,9.39-1.6,11.47A10.58,10.58,0,0,1,82.26,13.14Z" transform="translate(0 0)"/><path class="cls-2" d="M85.37,2.45l.61-.2L82.71.11a1.34,1.34,0,0,0-1.24.07,1.83,1.83,0,0,1,1.06.18C82.74.49,83.69,1.19,85.37,2.45Z" transform="translate(0 0)"/><path class="cls-2" d="M82.21,13.14l.4.21L85.92,2.23l-.6.13Z" transform="translate(0 0)"/><path class="cls-2" d="M86.28,15.78l4.17-7.34-3.4-2.2c-.72-.19-1.16,0-1.31.44-.22.72-1.7,5.22-2.31,7A10,10,0,0,1,86.28,15.78Z" transform="translate(0 0)"/><path class="cls-2" d="M90.45,8.46l.3-.16L87.33,6.05c-.71-.18-1.18-.1-1.39.25a1.44,1.44,0,0,1,1.2,0C87.42,6.47,88.52,7.19,90.45,8.46Z" transform="translate(0 0)"/><path class="cls-2" d="M86.26,15.78l4.17-7.34.3-.16L86.39,16Z" transform="translate(0 0)"/><path class="cls-2" d="M89.89,21.45,100,11.77,94.4,8.06c-.88-.25-1.49-.11-1.82.43-.49.8-4.06,6.51-5.25,8.32A13.1,13.1,0,0,1,89.89,21.45Z" transform="translate(0 0)"/><path class="cls-2" d="M100,11.77l.19-.46L94.75,7.83A1.74,1.74,0,0,0,93.23,8a1.9,1.9,0,0,1,1.28.14Z" transform="translate(0 0)"/><path class="cls-1" d="M102.07,5.6a1.18,1.18,0,0,1,.71.18.64.64,0,0,1-.18,1.12l.13.18.16.23.15.24.13.25h-.45l-.12-.22-.15-.23-.13-.2L102.19,7h-.33V7.8h-.4V5.66a1.55,1.55,0,0,1,.31,0Zm0,.35h-.23v.7H102l.26,0,.18,0a.29.29,0,0,0,.11-.11.34.34,0,0,0,0-.18.31.31,0,0,0,0-.17.29.29,0,0,0-.11-.11.38.38,0,0,0-.16,0A.78.78,0,0,0,102.09,6Z" transform="translate(0 0)"/><path class="cls-2" d="M102.32,5A1.73,1.73,0,1,0,104,6.7,1.73,1.73,0,0,0,102.32,5Zm-2.1,1.73a2.1,2.1,0,1,1,2.1,2.1A2.1,2.1,0,0,1,100.22,6.7Z" transform="translate(0 0)"/><path class="cls-1" d="M43.57,33.53h.8v4.38h-.8Z" transform="translate(0 0)"/><path class="cls-1" d="M48.72,33.53v.69H47.38v3.69h-.81V34.22H45.23v-.69Z" transform="translate(0 0)"/><path class="cls-1" d="M52.37,37.31a1.11,1.11,0,0,0,.62-.14.5.5,0,0,0,.2-.41.51.51,0,0,0-.07-.28.71.71,0,0,0-.19-.2,1.39,1.39,0,0,0-.3-.17,4.15,4.15,0,0,0-.4-.16l-.44-.17a1.67,1.67,0,0,1-.38-.25,1.12,1.12,0,0,1-.25-.35,1,1,0,0,1-.1-.48,1.14,1.14,0,0,1,.41-.93,1.7,1.7,0,0,1,1.12-.34,2.7,2.7,0,0,1,.73.09,2.24,2.24,0,0,1,.5.2l-.25.64a1.76,1.76,0,0,0-.47-.18,2.24,2.24,0,0,0-.52-.06.84.84,0,0,0-.51.13.43.43,0,0,0-.18.37.49.49,0,0,0,.06.25.75.75,0,0,0,.17.19l.26.15.33.13c.21.08.39.15.55.23a1.56,1.56,0,0,1,.41.28,1.12,1.12,0,0,1,.26.38,1.36,1.36,0,0,1,.09.53,1.09,1.09,0,0,1-.43.92,2,2,0,0,1-1.22.32,2.6,2.6,0,0,1-.5,0l-.4-.08-.3-.1-.2-.1.24-.65a3.24,3.24,0,0,0,.46.19A2.33,2.33,0,0,0,52.37,37.31Z" transform="translate(0 0)"/><path class="cls-1" d="M55.62,35.71a2.29,2.29,0,0,0,.09.66,1.56,1.56,0,0,0,.25.5,1.42,1.42,0,0,0,.41.32,1.35,1.35,0,0,0,.55.11,1.32,1.32,0,0,0,.53-.11,1.3,1.3,0,0,0,.41-.32,1.58,1.58,0,0,0,.26-.5,2.3,2.3,0,0,0,.08-.66,2.23,2.23,0,0,0-.08-.65,1.58,1.58,0,0,0-.26-.5,1.17,1.17,0,0,0-.41-.32,1.32,1.32,0,0,0-.53-.11,1.35,1.35,0,0,0-.55.11,1.27,1.27,0,0,0-.41.32,1.56,1.56,0,0,0-.25.5A2.22,2.22,0,0,0,55.62,35.71Zm3.42,0a2.79,2.79,0,0,1-.17,1,2.07,2.07,0,0,1-.46.72,1.86,1.86,0,0,1-.67.42,2.21,2.21,0,0,1-.82.15,2.25,2.25,0,0,1-.82-.15,1.9,1.9,0,0,1-.68-.42,2.4,2.4,0,0,1-.46-.72,2.79,2.79,0,0,1-.17-1,2.68,2.68,0,0,1,.17-1,2,2,0,0,1,.47-.72,1.82,1.82,0,0,1,.68-.44,2.42,2.42,0,0,1,.81-.14,2.48,2.48,0,0,1,.82.14,1.86,1.86,0,0,1,.67.44,2.17,2.17,0,0,1,.46.72A2.68,2.68,0,0,1,59,35.71Z" transform="translate(0 0)"/><path class="cls-1" d="M62.93,37.22v.69H60.16V33.53H61v3.69Z" transform="translate(0 0)"/><path class="cls-1" d="M65.38,38a2,2,0,0,1-.77-.13,1.39,1.39,0,0,1-.54-.36,1.57,1.57,0,0,1-.31-.55,2.19,2.19,0,0,1-.1-.7V33.53h.8v2.66a1.53,1.53,0,0,0,.07.51.86.86,0,0,0,.19.34.84.84,0,0,0,.29.2,1.12,1.12,0,0,0,.38.06,1.1,1.1,0,0,0,.37-.06.82.82,0,0,0,.48-.54,1.53,1.53,0,0,0,.07-.51V33.53h.81v2.73A2.19,2.19,0,0,1,67,37a1.45,1.45,0,0,1-.32.55,1.42,1.42,0,0,1-.53.36A2.06,2.06,0,0,1,65.38,38Z" transform="translate(0 0)"/><path class="cls-1" d="M71.44,33.53v.69H70.09v3.69h-.8V34.22H67.94v-.69Z" transform="translate(0 0)"/><path class="cls-1" d="M72.3,33.53h.79v4.38H72.3Z" transform="translate(0 0)"/><path class="cls-1" d="M75,35.71a2.29,2.29,0,0,0,.09.66,1.58,1.58,0,0,0,.26.5,1.3,1.3,0,0,0,.41.32,1.38,1.38,0,0,0,1.08,0,1.26,1.26,0,0,0,.4-.32,1.58,1.58,0,0,0,.26-.5,2.29,2.29,0,0,0,.09-.66,2.22,2.22,0,0,0-.09-.65,1.58,1.58,0,0,0-.26-.5,1.13,1.13,0,0,0-.4-.32,1.38,1.38,0,0,0-1.08,0,1.17,1.17,0,0,0-.41.32,1.58,1.58,0,0,0-.26.5A2.22,2.22,0,0,0,75,35.71Zm3.42,0a2.79,2.79,0,0,1-.17,1,2.2,2.2,0,0,1-.45.72,2,2,0,0,1-.67.42,2.34,2.34,0,0,1-1.65,0,2,2,0,0,1-.68-.42,2.2,2.2,0,0,1-.45-.72,2.59,2.59,0,0,1-.17-1,2.49,2.49,0,0,1,.17-1,2,2,0,0,1,1.14-1.16,2.44,2.44,0,0,1,1.63,0,1.78,1.78,0,0,1,.67.44,2,2,0,0,1,.46.72A2.68,2.68,0,0,1,78.46,35.71Z" transform="translate(0 0)"/><path class="cls-1" d="M82.54,37.91l-.48-.78-.55-.83c-.19-.28-.39-.55-.58-.81s-.38-.51-.56-.72v3.14h-.78V33.53h.65a7.54,7.54,0,0,1,.54.63c.19.24.39.49.58.75s.39.53.57.79.35.51.49.73v-2.9h.79v4.38Z" transform="translate(0 0)"/><path class="cls-1" d="M85.58,37.31a1.11,1.11,0,0,0,.62-.14.5.5,0,0,0,.2-.41.61.61,0,0,0-.07-.28.71.71,0,0,0-.19-.2,1.39,1.39,0,0,0-.3-.17c-.12,0-.25-.11-.4-.16L85,35.78a1.67,1.67,0,0,1-.38-.25,1.33,1.33,0,0,1-.26-.35,1.28,1.28,0,0,1,.32-1.41,1.68,1.68,0,0,1,1.12-.34,2.63,2.63,0,0,1,.72.09,2.16,2.16,0,0,1,.51.2l-.25.64a1.76,1.76,0,0,0-.47-.18,2.26,2.26,0,0,0-.53-.06.82.82,0,0,0-.5.13.43.43,0,0,0-.18.37.49.49,0,0,0,.06.25.75.75,0,0,0,.17.19l.26.15.33.13c.2.08.39.15.55.23a1.56,1.56,0,0,1,.41.28,1.12,1.12,0,0,1,.26.38,1.38,1.38,0,0,1,.08.53,1.11,1.11,0,0,1-.42.92,2,2,0,0,1-1.22.32,2.6,2.6,0,0,1-.5,0l-.4-.08-.3-.1-.2-.1.23-.65a4.09,4.09,0,0,0,.47.19A2.33,2.33,0,0,0,85.58,37.31Z" transform="translate(0 0)"/></svg>