<svg xmlns="http://www.w3.org/2000/svg" xmlns:xlink="http://www.w3.org/1999/xlink" viewBox="0 0 298.28 310.46"><defs><style>.cls-1{isolation:isolate;}.cls-2{mix-blend-mode:multiply;}.cls-3{opacity:0;}.cls-4{fill:#fff;}.cls-5{fill:#fafafb;}.cls-6{fill:#f5f6f6;}.cls-7{fill:#f1f1f2;}.cls-8{fill:#ececee;}.cls-9{fill:#e7e8ea;}.cls-10{fill:#e2e3e5;}.cls-11{fill:#dddfe1;}.cls-12{fill:#d8dadd;}.cls-13{fill:#d4d5d9;}.cls-14{fill:#cfd1d4;}.cls-15{fill:#caccd0;}.cls-16{fill:#f70;}.cls-17{fill:url(#Áåçûìÿííûé_ãðàäèåíò_60);}.cls-18{fill:url(#Áåçûìÿííûé_ãðàäèåíò_60-2);}.cls-19{fill:url(#Áåçûìÿííûé_ãðàäèåíò_60-3);}.cls-20{fill:url(#Áåçûìÿííûé_ãðàäèåíò_60-4);}.cls-21{fill:url(#Áåçûìÿííûé_ãðàäèåíò_60-5);}.cls-22{fill:url(#Áåçûìÿííûé_ãðàäèåíò_60-6);}.cls-23{fill:#3531a1;}.cls-24{fill:url(#Áåçûìÿííûé_ãðàäèåíò_15);}.cls-25{fill:#5752d0;}.cls-26{fill:#ffd1aa;}.cls-27{fill:#ffb78d;}.cls-28{fill:url(#Áåçûìÿííûé_ãðàäèåíò_59);}.cls-29{fill:#ff846a;}.cls-30{fill:url(#Áåçûìÿííûé_ãðàäèåíò_42);}.cls-31{fill:#332fa2;}.cls-32{fill:url(#Áåçûìÿííûé_ãðàäèåíò_42-2);}.cls-33{fill:#0d0848;}.cls-34{fill:url(#Áåçûìÿííûé_ãðàäèåíò_42-3);}.cls-35{fill:url(#Áåçûìÿííûé_ãðàäèåíò_42-4);}.cls-36{fill:url(#Áåçûìÿííûé_ãðàäèåíò_59-2);}.cls-37{fill:url(#Áåçûìÿííûé_ãðàäèåíò_59-3);}.cls-38{fill:#1d1273;}.cls-39{fill:url(#Áåçûìÿííûé_ãðàäèåíò_59-4);}.cls-40{fill:#f9f9fa;}.cls-41{fill:#f4f4f5;}.cls-42{fill:#eeeef0;}.cls-43{fill:#e8e9eb;}.cls-44{fill:#e3e3e6;}.cls-45{fill:#dddee0;}.cls-46{fill:#d8d8db;}.cls-47{fill:#d2d3d6;}.cls-48{fill:#cccdd1;}.cls-49{fill:#c7c8cc;}.cls-50{fill:url(#Áåçûìÿííûé_ãðàäèåíò_59-5);}.cls-51{fill:url(#Áåçûìÿííûé_ãðàäèåíò_59-6);}.cls-52{fill:url(#Áåçûìÿííûé_ãðàäèåíò_59-7);}.cls-53{fill:url(#Áåçûìÿííûé_ãðàäèåíò_59-8);}.cls-54{fill:url(#Áåçûìÿííûé_ãðàäèåíò_59-9);}.cls-55{fill:url(#Áåçûìÿííûé_ãðàäèåíò_59-10);}</style><linearGradient id="Áåçûìÿííûé_ãðàäèåíò_60" x1="-1986.42" y1="21.91" x2="-1907.23" y2="21.91" gradientTransform="translate(2134.91)" gradientUnits="userSpaceOnUse"><stop offset="0" stop-color="#ffad00"/><stop offset="1" stop-color="#f70"/></linearGradient><linearGradient id="Áåçûìÿííûé_ãðàäèåíò_60-2" x1="-1951.82" y1="48.76" x2="-1939.75" y2="48.76" xlink:href="#Áåçûìÿííûé_ãðàäèåíò_60"/><linearGradient id="Áåçûìÿííûé_ãðàäèåíò_60-3" x1="-1912.71" y1="29.44" x2="-1907.23" y2="29.44" xlink:href="#Áåçûìÿííûé_ãðàäèåíò_60"/><linearGradient id="Áåçûìÿííûé_ãðàäèåíò_60-4" x1="-1922.17" y1="41.55" x2="-1913.35" y2="41.55" xlink:href="#Áåçûìÿííûé_ãðàäèåíò_60"/><linearGradient id="Áåçûìÿííûé_ãðàäèåíò_60-5" x1="-1979.06" y1="42.94" x2="-1969.68" y2="42.94" xlink:href="#Áåçûìÿííûé_ãðàäèåíò_60"/><linearGradient id="Áåçûìÿííûé_ãðàäèåíò_60-6" x1="-1986.49" y1="31.15" x2="-1980.95" y2="31.15" xlink:href="#Áåçûìÿííûé_ãðàäèåíò_60"/><linearGradient id="Áåçûìÿííûé_ãðàäèåíò_15" x1="-2072.45" y1="51.62" x2="-1966.18" y2="51.62" gradientTransform="translate(2134.91)" gradientUnits="userSpaceOnUse"><stop offset="0" stop-color="#5752d0"/><stop offset="1" stop-color="#7f7cf9"/></linearGradient><linearGradient id="Áåçûìÿííûé_ãðàäèåíò_59" x1="-10.42" y1="180.55" x2="40.8" y2="130.18" gradientUnits="userSpaceOnUse"><stop offset="0" stop-color="#f70"/><stop offset="1" stop-color="#ffad00"/></linearGradient><linearGradient id="Áåçûìÿííûé_ãðàäèåíò_42" x1="6.31" y1="296.18" x2="27.14" y2="296.18" gradientUnits="userSpaceOnUse"><stop offset="0" stop-color="#f0f0fb"/><stop offset="1" stop-color="#d2d7f6"/></linearGradient><linearGradient id="Áåçûìÿííûé_ãðàäèåíò_42-2" x1="6.75" y1="297.04" x2="10.49" y2="297.04" xlink:href="#Áåçûìÿííûé_ãðàäèåíò_42"/><linearGradient id="Áåçûìÿííûé_ãðàäèåíò_42-3" x1="22.16" y1="303.96" x2="42.99" y2="303.96" xlink:href="#Áåçûìÿííûé_ãðàäèåíò_42"/><linearGradient id="Áåçûìÿííûé_ãðàäèåíò_42-4" x1="22.59" y1="304.82" x2="26.34" y2="304.82" xlink:href="#Áåçûìÿííûé_ãðàäèåíò_42"/><linearGradient id="Áåçûìÿííûé_ãðàäèåíò_59-2" x1="5.9" y1="197.14" x2="57.12" y2="146.77" xlink:href="#Áåçûìÿííûé_ãðàäèåíò_59"/><linearGradient id="Áåçûìÿííûé_ãðàäèåíò_59-3" x1="14.12" y1="149.15" x2="27.98" y2="149.15" xlink:href="#Áåçûìÿííûé_ãðàäèåíò_59"/><linearGradient id="Áåçûìÿííûé_ãðàäèåíò_59-4" x1="0.32" y1="191.47" x2="51.53" y2="141.09" xlink:href="#Áåçûìÿííûé_ãðàäèåíò_59"/><linearGradient id="Áåçûìÿííûé_ãðàäèåíò_59-5" x1="-216.79" y1="114.08" x2="-58.74" y2="114.08" gradientTransform="matrix(-1, 0, 0, 1, 43.92, 0)" xlink:href="#Áåçûìÿííûé_ãðàäèåíò_59"/><linearGradient id="Áåçûìÿííûé_ãðàäèåíò_59-6" x1="-147.74" y1="166.43" x2="-123.63" y2="166.43" gradientTransform="matrix(-1, 0, 0, 1, 43.92, 0)" xlink:href="#Áåçûìÿííûé_ãðàäèåíò_59"/><linearGradient id="Áåçûìÿííûé_ãðàäèåíò_59-7" x1="-69.67" y1="128.76" x2="-58.74" y2="128.76" gradientTransform="matrix(-1, 0, 0, 1, 43.92, 0)" xlink:href="#Áåçûìÿííûé_ãðàäèåíò_59"/><linearGradient id="Áåçûìÿííûé_ãðàäèåíò_59-8" x1="-88.55" y1="152.38" x2="-70.95" y2="152.38" gradientTransform="matrix(-1, 0, 0, 1, 43.92, 0)" xlink:href="#Áåçûìÿííûé_ãðàäèåíò_59"/><linearGradient id="Áåçûìÿííûé_ãðàäèåíò_59-9" x1="-202.11" y1="155.09" x2="-183.37" y2="155.09" gradientTransform="matrix(-1, 0, 0, 1, 43.92, 0)" xlink:href="#Áåçûìÿííûé_ãðàäèåíò_59"/><linearGradient id="Áåçûìÿííûé_ãðàäèåíò_59-10" x1="-216.93" y1="132.1" x2="-205.86" y2="132.1" gradientTransform="matrix(-1, 0, 0, 1, 43.92, 0)" xlink:href="#Áåçûìÿííûé_ãðàäèåíò_59"/></defs><g class="cls-1"><g id="Layer_2" data-name="Layer 2"><g id="Layer_1-2" data-name="Layer 1"><g class="cls-2"><g class="cls-3"><path class="cls-4" d="M200.65,39.1a6.71,6.71,0,0,1-.78.32c-6.7,2.64-16.82,2.64-23.53,0-.28-.1-.56-.22-.83-.34-6.93-3.06-6.93-8,0-11.1s18.21-3.07,25.14,0S207.59,36,200.65,39.1ZM216.4,22.45l4.07-2.52-9.53-4.74-3.84,2.36c-6-2.43-14.19-2.65-14.21-2.65l-.11-3.6H180.5l.12,3.6a52.27,52.27,0,0,0-13.83,3.66l-4.94-2.64-8.94,5.2,5.2,2.61a15.18,15.18,0,0,0-5,7.39l-5.2,0v6.76h5.56A13.93,13.93,0,0,0,159,44.84l-3.61,2.69,9.54,4.73,3.78-2.36a44.78,44.78,0,0,0,14.21,2.81L183,55.8h12.26l-.11-3.4A53.16,53.16,0,0,0,209,48.9l4.14,2.18,8.94-5.19L217.38,44a15.56,15.56,0,0,0,5.35-7.75l5.56,0V29.51l-5.95,0A11.67,11.67,0,0,0,216.4,22.45Z"/></g><path class="cls-5" d="M200.63,38.93a7.35,7.35,0,0,1-.77.32c-6.75,2.51-16.77,2.56-23.51,0l-.82-.35c-6.92-3.08-6.93-8,0-11.08s18.18-3.07,25.1,0S207.55,35.84,200.63,38.93Zm15.73-16.62,4.07-2.52-9.52-4.74-3.84,2.36c-5.95-2.43-14.17-2.64-14.18-2.64l-.12-3.6H180.51l.12,3.6a52.22,52.22,0,0,0-13.81,3.65l-4.93-2.64L153,21l5.2,2.6a15.2,15.2,0,0,0-5,7.38l-5.19,0v6.75h5.55A13.89,13.89,0,0,0,159,44.66l-3.6,2.69,9.52,4.73,3.77-2.37a44.56,44.56,0,0,0,14.2,2.81l.13,3.09h12.24l-.11-3.4A53.51,53.51,0,0,0,209,48.72l4.14,2.18L222,45.71l-4.67-1.92A15.49,15.49,0,0,0,222.68,36l5.55,0V29.35l-5.94,0A11.6,11.6,0,0,0,216.36,22.31Z"/><path class="cls-6" d="M200.62,38.76a7.52,7.52,0,0,1-.78.32c-6.73,2.51-16.75,2.56-23.47,0-.28-.11-.55-.22-.83-.35-6.9-3.08-6.91-8,0-11.07s18.16-3.06,25.08,0S207.53,35.68,200.62,38.76Zm15.7-16.6,4.06-2.51-9.5-4.73-3.83,2.35c-6-2.42-14.15-2.64-14.17-2.64L192.76,11H180.53l.11,3.59a52.84,52.84,0,0,0-13.79,3.64l-4.92-2.63L153,20.83l5.19,2.6a15.15,15.15,0,0,0-5,7.37l-5.19,0v6.75h5.55a13.88,13.88,0,0,0,5.5,6.89l-3.6,2.68L165,51.89l3.77-2.36a44.67,44.67,0,0,0,14.18,2.8l.13,3.09h12.22l-.11-3.4a53,53,0,0,0,13.78-3.48l4.14,2.17L222,45.53l-4.67-1.92a15.42,15.42,0,0,0,5.33-7.73l5.55,0V29.2l-5.94,0A11.6,11.6,0,0,0,216.32,22.16Z"/><path class="cls-7" d="M200.6,38.59c-.25.12-.52.23-.77.32-6.73,2.51-16.73,2.57-23.44,0-.28-.11-.55-.22-.83-.35-6.89-3.07-6.9-8,0-11.05s18.13-3.06,25,0S207.5,35.51,200.6,38.59ZM216.28,22l4.06-2.52-9.49-4.72L207,17.13c-5.94-2.42-14.13-2.64-14.14-2.64l-.12-3.58H180.54l.12,3.58a52.55,52.55,0,0,0-13.78,3.64L162,15.51l-8.91,5.18,5.18,2.59a15.32,15.32,0,0,0-5,7.36l-5.17,0v6.74h5.53a13.88,13.88,0,0,0,5.5,6.89L155.49,47,165,51.7l3.77-2.36a44.13,44.13,0,0,0,14.15,2.81l.13,3.08h12.21l-.11-3.39a53.5,53.5,0,0,0,13.76-3.48L213,50.53l8.9-5.18-4.66-1.91a15.49,15.49,0,0,0,5.33-7.73l5.53,0V29l-5.93,0A11.57,11.57,0,0,0,216.28,22Z"/><path class="cls-8" d="M200.58,38.43c-.25.11-.51.22-.77.31-6.72,2.5-16.71,2.57-23.41,0l-.82-.34c-6.88-3.08-6.9-8,0-11s18.11-3.06,25,0S207.47,35.35,200.58,38.43Zm15.66-16.56,4.06-2.51-9.48-4.71L207,17c-5.93-2.41-14.12-2.63-14.13-2.63l-.12-3.58h-12.2l.12,3.58A52.68,52.68,0,0,0,166.9,18L162,15.37l-8.9,5.17,5.17,2.6a15.27,15.27,0,0,0-5,7.34l-5.16,0v6.73h5.52a13.89,13.89,0,0,0,5.49,6.88l-3.59,2.67L165,51.52l3.77-2.36A44.37,44.37,0,0,0,182.91,52L183,55h12.19l-.11-3.38a53.22,53.22,0,0,0,13.75-3.48L213,50.34l8.88-5.16-4.65-1.92a15.46,15.46,0,0,0,5.32-7.71l5.53,0V28.89l-5.92,0A11.57,11.57,0,0,0,216.24,21.87Z"/><path class="cls-9" d="M200.56,38.26l-.77.32c-6.7,2.49-16.68,2.56-23.37,0l-.82-.34c-6.87-3.08-6.89-8,0-11s18.08-3.05,25,0S207.45,35.19,200.56,38.26Zm15.65-16.54,4-2.5-9.47-4.71L207,16.85c-5.92-2.41-14.09-2.63-14.11-2.63l-.12-3.57H180.56l.12,3.57a52.53,52.53,0,0,0-13.75,3.63L162,15.23l-8.89,5.17L158.31,23a15.17,15.17,0,0,0-5,7.34l-5.16,0v6.72h5.52A13.83,13.83,0,0,0,159.16,44l-3.58,2.67,9.47,4.71L168.8,49a44.34,44.34,0,0,0,14.12,2.79l.13,3.07h12.17l-.11-3.38A53.07,53.07,0,0,0,208.84,48L213,50.16,221.83,45l-4.65-1.91a15.43,15.43,0,0,0,5.31-7.71l5.52,0V28.73l-5.91,0A11.59,11.59,0,0,0,216.21,21.72Z"/><path class="cls-10" d="M200.55,38.09l-.77.32c-6.7,2.49-16.67,2.57-23.34,0l-.83-.34c-6.86-3.07-6.87-8,0-11s18.06-3,24.94,0S207.42,35,200.55,38.09Zm15.62-16.51,4-2.5-9.46-4.71-3.81,2.34c-5.91-2.41-14.07-2.62-14.08-2.62l-.12-3.57H180.57l.12,3.57A51.89,51.89,0,0,0,167,17.71l-4.89-2.62-8.87,5.17,5.15,2.58a15.19,15.19,0,0,0-5,7.33l-5.15,0v6.71h5.51a13.74,13.74,0,0,0,5.47,6.85l-3.58,2.67,9.46,4.7,3.75-2.35a44.2,44.2,0,0,0,14.1,2.79l.12,3.07h12.16l-.11-3.38a52.81,52.81,0,0,0,13.71-3.46L212.92,50l8.86-5.15-4.64-1.91a15.36,15.36,0,0,0,5.3-7.69l5.51,0V28.58l-5.9,0A11.49,11.49,0,0,0,216.17,21.58Z"/><path class="cls-11" d="M200.53,37.92l-.77.32c-6.69,2.49-16.64,2.57-23.31,0l-.82-.34c-6.85-3.07-6.86-8,0-11s18-3.05,24.9,0S207.4,34.87,200.53,37.92Zm15.6-16.49,4-2.5-9.44-4.69-3.8,2.33C201,14.17,192.86,14,192.85,14l-.12-3.56H180.58L180.7,14A52.62,52.62,0,0,0,167,17.57L162.11,15l-8.86,5.15,5.14,2.58a15.18,15.18,0,0,0-5,7.32l-5.15,0v6.7h5.51a13.76,13.76,0,0,0,5.46,6.85l-3.57,2.66L165.11,51l3.75-2.34a44.32,44.32,0,0,0,14.07,2.79l.13,3.06H195.2l-.11-3.37a53.16,53.16,0,0,0,13.69-3.46l4.1,2.16,8.85-5.15-4.63-1.9a15.36,15.36,0,0,0,5.29-7.69l5.51,0V28.42l-5.9,0A11.52,11.52,0,0,0,216.13,21.43Z"/><path class="cls-12" d="M200.51,37.75l-.77.32c-6.67,2.48-16.62,2.57-23.27,0l-.82-.34c-6.84-3.07-6.86-7.95,0-11s18-3,24.86,0S207.37,34.7,200.51,37.75Zm15.58-16.46,4-2.5-9.43-4.69-3.8,2.34c-5.9-2.41-14-2.62-14-2.62l-.11-3.56H180.59l.12,3.56A52.07,52.07,0,0,0,167,17.43l-4.87-2.61L153.3,20l5.14,2.57a15.16,15.16,0,0,0-5,7.31l-5.14,0v6.69h5.49a13.81,13.81,0,0,0,5.46,6.84l-3.56,2.66,9.42,4.69,3.74-2.34a44.36,44.36,0,0,0,14.06,2.78l.13,3.06h12.12l-.11-3.37a52.61,52.61,0,0,0,13.67-3.46l4.1,2.16,8.84-5.14-4.63-1.9a15.36,15.36,0,0,0,5.29-7.67l5.49,0v-6.6l-5.88,0A11.5,11.5,0,0,0,216.09,21.29Z"/><path class="cls-13" d="M200.49,37.58l-.76.32c-6.67,2.48-16.6,2.58-23.25,0-.27-.1-.54-.22-.81-.34-6.83-3.06-6.85-7.94,0-11s18-3,24.82,0S207.35,34.56,200.49,37.58Zm15.56-16.44,4-2.49L210.66,14l-3.79,2.33c-5.89-2.4-14-2.62-14-2.62l-.12-3.55H180.6l.12,3.55a52,52,0,0,0-13.67,3.61l-4.87-2.61-8.84,5.14,5.14,2.58a15.15,15.15,0,0,0-5,7.29l-5.13,0v6.69h5.49a13.73,13.73,0,0,0,5.45,6.82l-3.56,2.66,9.41,4.68,3.74-2.34A43.87,43.87,0,0,0,183,51l.12,3h12.11l-.11-3.36a52.35,52.35,0,0,0,13.65-3.45l4.09,2.16,8.83-5.14L217,42.38a15.33,15.33,0,0,0,5.28-7.66l5.49,0V28.11l-5.88,0A11.46,11.46,0,0,0,216.05,21.14Z"/><path class="cls-14" d="M200.48,37.41l-.77.32c-6.66,2.48-16.58,2.58-23.21,0-.27-.1-.54-.22-.82-.34-6.82-3.06-6.83-7.92,0-10.94s18-3,24.8,0S207.32,34.39,200.48,37.41ZM216,21l4-2.48-9.4-4.68-3.79,2.33c-5.88-2.4-14-2.61-14-2.61L192.71,10h-12.1l.12,3.55a51.77,51.77,0,0,0-13.65,3.6l-4.86-2.61-8.83,5.14,5.13,2.57a15.12,15.12,0,0,0-5,7.29l-5.12,0v6.67h5.48a13.71,13.71,0,0,0,5.45,6.82l-3.56,2.65,9.4,4.67,3.73-2.33a44.1,44.1,0,0,0,14,2.77l.13,3.05h12.09l-.11-3.35a52.6,52.6,0,0,0,13.63-3.45l4.09,2.15,8.81-5.13L217,42.21a15.33,15.33,0,0,0,5.27-7.65l5.48,0V28h-5.87A11.49,11.49,0,0,0,216,21Z"/><path class="cls-15" d="M200.46,37.24c-.25.11-.5.23-.76.32-6.61,2.6-16.57,2.6-23.18,0a8.33,8.33,0,0,1-.82-.34c-6.83-3-6.83-7.91,0-10.93s17.93-3,24.76,0S207.3,34.23,200.46,37.24ZM216,20.85l4-2.49-9.38-4.67L206.81,16c-5.87-2.39-14-2.61-14-2.61l-.12-3.54H180.62l.12,3.54A51.63,51.63,0,0,0,167.11,17l-4.86-2.6-8.81,5.12,5.12,2.57a15,15,0,0,0-4.95,7.28l-5.12,0v6.66H154a13.68,13.68,0,0,0,5.44,6.81l-3.56,2.65,9.39,4.67L169,47.87a44,44,0,0,0,14,2.78l.13,3h12.07l-.11-3.35a52.55,52.55,0,0,0,13.61-3.44L212.75,49l8.79-5.11-4.6-1.9a15.18,15.18,0,0,0,5.26-7.64l5.48,0V27.8l-5.87,0A11.36,11.36,0,0,0,216,20.85Z"/></g><path class="cls-16" d="M216,20.85l4-2.49-9.38-4.67L206.81,16c-5.87-2.39-14-2.61-14-2.61l-.12-3.54H180.62l.12,3.54A51.63,51.63,0,0,0,167.11,17l-4.86-2.6-8.81,5.12,5.12,2.57c-2.88,2.31-4.84,2.28-5.32,4.12l-4.75,3.2v6.66H154a13.68,13.68,0,0,0,5.44,6.81l-3.56,2.65,9.39,4.67L169,47.87a44,44,0,0,0,14,2.78l.13,3h12.07l-.11-3.35a52.55,52.55,0,0,0,13.61-3.44L212.75,49l8.79-5.11-4.6-1.9a15.18,15.18,0,0,0,5.26-7.64l5.48,0V27.8L222.77,24C221.61,20.05,217.45,21.45,216,20.85ZM200.46,37.24c-.25.11-.5.23-.76.32-6.61,2.6-16.57,2.6-23.18,0a8.33,8.33,0,0,1-.82-.34c-6.83-3-6.83-7.91,0-10.93s17.93-3,24.76,0S207.3,34.23,200.46,37.24Z"/><polygon class="cls-16" points="153.44 9.67 153.44 17.01 155.2 18.37 161.91 14.02 160.54 10.02 153.44 9.67 153.44 9.67"/><polygon class="cls-16" points="219.95 8.5 219.95 15.85 218.2 17.21 211.49 12.86 212.85 8.85 219.95 8.5 219.95 8.5"/><path class="cls-17" d="M216,11l4-2.48L210.6,3.83l-3.79,2.33c-5.87-2.4-14-2.62-14-2.62L192.71,0H180.62l.12,3.54a52.4,52.4,0,0,0-13.63,3.6l-4.86-2.59-8.81,5.12,5.12,2.56a15.11,15.11,0,0,0-4.95,7.28l-5.12,0v6.67H154a13.66,13.66,0,0,0,5.44,6.8l-3.56,2.65,9.39,4.67L169,38a44,44,0,0,0,14,2.77l.13,3h12.07l-.11-3.36A52.55,52.55,0,0,0,208.66,37l4.09,2.15,8.79-5.12-4.6-1.89a15.22,15.22,0,0,0,5.26-7.64l5.48,0V17.93l-5.87,0A11.42,11.42,0,0,0,216,11Zm-15.51,16.4c-.25.11-.5.22-.76.31-6.61,2.6-16.57,2.6-23.18,0-.28-.1-.55-.21-.82-.33-6.83-3-6.83-7.92,0-10.93s17.93-3,24.76,0S207.3,24.36,200.46,27.38Z"/><polygon class="cls-18" points="183.09 43.83 183.09 53.69 195.16 53.69 195.16 43.83 183.09 43.83 183.09 43.83"/><polygon class="cls-19" points="227.68 24.51 227.68 34.37 222.2 34.37 222.2 24.53 227.68 24.51 227.68 24.51"/><path class="cls-20" d="M212.75,39.18V49s9.26-4.92,8.79-5.11,0-9.87,0-9.87l-8.79,5.12Z"/><polygon class="cls-21" points="165.24 40.34 165.24 50.21 155.85 45.54 155.85 35.67 165.24 40.34 165.24 40.34"/><path class="cls-22" d="M148.49,26.22s-.15,9.86,0,9.86H154V26.22Z"/><g class="cls-2"><g class="cls-3"><path class="cls-4" d="M132.46,74.69c-.34.15-.69.3-1.05.42-9,3.55-22.57,3.55-31.57,0-.38-.13-.75-.29-1.12-.45-9.3-4.12-9.3-10.79,0-14.9s24.43-4.13,33.74,0S141.78,70.57,132.46,74.69Zm21.13-22.35L159.06,49,146.27,42.6l-5.15,3.17c-8-3.27-19.05-3.56-19.06-3.56l-.17-4.83H105.42l.17,4.83A70.58,70.58,0,0,0,87,47.11l-6.62-3.54-12,7,7,3.5A20.52,20.52,0,0,0,68.62,64l-7,.06V73.1h7.46a18.6,18.6,0,0,0,7.41,9.27L71.67,86l12.79,6.35,5.08-3.17a59.91,59.91,0,0,0,19.07,3.77l.18,4.16h16.45l-.15-4.57a71.69,71.69,0,0,0,18.55-4.7l5.56,2.93,12-7-6.28-2.58c3.84-3.22,6.23-6.79,7.18-10.41l7.46,0v-9l-8,0A15.63,15.63,0,0,0,153.59,52.34Z"/></g><path class="cls-5" d="M132.43,74.46a10.74,10.74,0,0,1-1,.42c-9.07,3.31-22.5,3.43-31.53,0l-1.12-.46c-9.29-4.11-9.29-10.78,0-14.88s24.4-4.12,33.69,0S141.74,70.35,132.43,74.46Zm21.11-22.31L159,48.76l-12.77-6.35-5.15,3.17c-8-3.26-19-3.55-19-3.55l-.17-4.83H105.44L105.6,42a70.73,70.73,0,0,0-18.55,4.89l-6.61-3.53-12,7,7,3.49a20.4,20.4,0,0,0-6.73,9.9l-7,.06v9.07h7.45a18.65,18.65,0,0,0,7.4,9.26l-4.84,3.6,12.78,6.35,5.07-3.17a59.42,59.42,0,0,0,19,3.77l.18,4.15h16.43l-.15-4.56a71.46,71.46,0,0,0,18.52-4.69l5.55,2.92,12-7L154.86,81c3.83-3.22,6.22-6.79,7.16-10.4l7.45,0V61.61l-8,0A15.53,15.53,0,0,0,153.54,52.15Z"/><path class="cls-6" d="M132.41,74.23c-.34.15-.69.3-1,.43-9.06,3.29-22.47,3.42-31.49,0-.38-.14-.74-.29-1.11-.46-9.28-4.1-9.28-10.76,0-14.85s24.36-4.12,33.64,0S141.7,70.11,132.41,74.23ZM153.49,52l5.45-3.38-12.76-6.34L141,45.39c-8-3.26-19-3.55-19-3.55L121.87,37H105.45l.16,4.81a70.62,70.62,0,0,0-18.52,4.89l-6.6-3.53-12,7,7,3.49a20.43,20.43,0,0,0-6.72,9.88l-7,.06v9.05h7.43a18.63,18.63,0,0,0,7.39,9.25l-4.83,3.6,12.76,6.34,5.06-3.17a59.33,59.33,0,0,0,19,3.77l.18,4.14h16.41L125.07,92a71.84,71.84,0,0,0,18.49-4.68l5.54,2.91,12-7-6.26-2.57C158.63,77.53,161,74,162,70.36l7.44,0V61.4l-8,0A15.56,15.56,0,0,0,153.49,52Z"/><path class="cls-7" d="M132.39,74c-.34.15-.69.29-1,.42-9,3.29-22.44,3.42-31.45,0-.38-.14-.74-.29-1.11-.45-9.27-4.1-9.27-10.75,0-14.84s24.33-4.11,33.6,0S141.66,69.88,132.39,74Zm21.05-22.26,5.44-3.37-12.74-6.33L141,45.2c-8-3.25-19-3.54-19-3.54l-.16-4.81H105.46l.17,4.81a70.75,70.75,0,0,0-18.5,4.88L80.54,43,68.59,50l6.94,3.49a20.31,20.31,0,0,0-6.71,9.87l-6.95.05v9.05H69.3a18.55,18.55,0,0,0,7.38,9.23l-4.83,3.6,12.74,6.33,5.06-3.16a59.72,59.72,0,0,0,19,3.76l.18,4.13H125.2l-.15-4.55a71.17,71.17,0,0,0,18.47-4.67L149.06,90l11.94-7-6.25-2.57c3.82-3.2,6.2-6.76,7.14-10.37l7.43,0V61.19l-7.95,0A15.52,15.52,0,0,0,153.44,51.75Z"/><path class="cls-8" d="M132.36,73.78c-.33.15-.68.29-1,.42-9,3.29-22.41,3.42-31.41,0q-.56-.21-1.11-.45c-9.25-4.09-9.25-10.73,0-14.82s24.3-4.1,33.55,0S141.62,69.66,132.36,73.78Zm21-22.22,5.44-3.37L146.1,41.87,141,45c-8-3.25-18.94-3.54-19-3.54l-.16-4.8H105.48l.16,4.8a70.62,70.62,0,0,0-18.47,4.87l-6.58-3.52-11.94,7,6.94,3.48a20.39,20.39,0,0,0-6.71,9.86L62,63.17v9h7.41a18.58,18.58,0,0,0,7.37,9.23L71.91,85l12.73,6.32,5-3.16a59.7,59.7,0,0,0,19,3.76l.18,4.13h16.36L125,91.52a71.34,71.34,0,0,0,18.44-4.66L149,89.77l11.93-6.93-6.25-2.57c3.82-3.2,6.2-6.75,7.14-10.36l7.42,0V61l-7.95,0A15.46,15.46,0,0,0,153.38,51.56Z"/><path class="cls-9" d="M132.34,73.55c-.33.15-.68.3-1,.43-9,3.28-22.37,3.41-31.36,0-.37-.14-.73-.29-1.1-.46-9.24-4.1-9.24-10.71,0-14.79s24.26-4.1,33.5,0S141.58,69.43,132.34,73.55Zm21-22.19L158.76,48l-12.7-6.31-5.12,3.14C133,41.59,122,41.3,122,41.3l-.16-4.8H105.49l.16,4.8a70.11,70.11,0,0,0-18.44,4.87l-6.57-3.52L68.72,49.59l6.92,3.47a20.41,20.41,0,0,0-6.7,9.85L62,63v9h7.41a18.47,18.47,0,0,0,7.36,9.21L72,84.78l12.71,6.31,5-3.16a59.24,59.24,0,0,0,18.94,3.75l.18,4.13h16.34L125,91.27a71.12,71.12,0,0,0,18.41-4.66L149,89.52l11.91-6.92L154.64,80c3.81-3.2,6.19-6.74,7.13-10.34l7.41,0V60.77l-7.94,0A15.46,15.46,0,0,0,153.33,51.36Z"/><path class="cls-10" d="M132.32,73.33c-.34.14-.69.29-1,.42-9,3.28-22.34,3.41-31.31,0-.38-.14-.74-.29-1.11-.45-9.22-4.1-9.23-10.7,0-14.78s24.23-4.09,33.46,0S141.54,69.21,132.32,73.33Zm21-22.16,5.42-3.36L146,41.5l-5.12,3.14C133,41.4,122,41.12,122,41.12l-.16-4.8H105.51l.16,4.8A69.86,69.86,0,0,0,87.25,46l-6.56-3.51L68.78,49.39l6.92,3.47A20.31,20.31,0,0,0,69,62.69l-6.92.06v9h7.4A18.5,18.5,0,0,0,76.84,81L72,84.53l12.68,6.31,5-3.15a59.07,59.07,0,0,0,18.91,3.74l.17,4.12h16.32L125,91a71.57,71.57,0,0,0,18.39-4.65l5.51,2.9,11.89-6.91-6.22-2.56c3.8-3.2,6.17-6.74,7.11-10.33l7.4,0V60.56l-7.92,0A15.43,15.43,0,0,0,153.28,51.17Z"/><path class="cls-11" d="M132.29,73.1c-.33.15-.68.29-1,.42-9,3.28-22.32,3.41-31.27,0-.38-.14-.74-.29-1.11-.45-9.2-4.1-9.21-10.69,0-14.76s24.2-4.08,33.41,0S141.5,69,132.29,73.1ZM153.23,51l5.41-3.35L146,41.32l-5.1,3.14C132.94,41.22,122,40.93,122,40.93l-.16-4.78H105.52l.16,4.78a70.41,70.41,0,0,0-18.39,4.86l-6.56-3.51L68.85,49.2l6.9,3.46a20.44,20.44,0,0,0-6.68,9.82l-6.9.05v9h7.39a18.39,18.39,0,0,0,7.33,9.18L72.1,84.29l12.66,6.3,5-3.15a59,59,0,0,0,18.89,3.74l.17,4.11h16.3L125,90.77a70.91,70.91,0,0,0,18.37-4.65l5.5,2.9,11.88-6.9-6.22-2.56c3.8-3.19,6.17-6.72,7.11-10.31l7.39,0V60.35l-7.92,0A15.45,15.45,0,0,0,153.23,51Z"/><path class="cls-12" d="M132.27,72.87c-.33.15-.68.3-1,.42-9,3.28-22.29,3.41-31.23,0-.38-.14-.74-.29-1.1-.46-9.19-4.09-9.21-10.67,0-14.73s24.16-4.08,33.36,0S141.47,68.75,132.27,72.87Zm20.9-22.09,5.41-3.35-12.65-6.29-5.1,3.13C132.92,41,122,40.75,122,40.75L121.82,36H105.53l.17,4.78A69.76,69.76,0,0,0,87.33,45.6l-6.55-3.5L68.91,49l6.9,3.46a20.21,20.21,0,0,0-6.67,9.8l-6.9,0v9h7.38A18.41,18.41,0,0,0,77,80.48l-4.79,3.57,12.65,6.29,5-3.15a59,59,0,0,0,18.86,3.74l.17,4.1h16.28L125,90.52a71.08,71.08,0,0,0,18.34-4.64l5.5,2.89,11.86-6.89-6.21-2.55c3.79-3.19,6.16-6.72,7.09-10.3L169,69V60.14l-7.9,0A15.39,15.39,0,0,0,153.17,50.78Z"/><path class="cls-13" d="M132.25,72.65c-.33.14-.68.29-1,.42-9,3.27-22.26,3.4-31.19,0-.37-.14-.73-.29-1.1-.45-9.18-4.09-9.19-10.66,0-14.72s24.13-4.07,33.32,0S141.43,68.53,132.25,72.65Zm20.87-22.07,5.4-3.34L145.89,41l-5.09,3.12C132.89,40.86,122,40.57,122,40.57l-.16-4.77H105.55l.16,4.77a70.13,70.13,0,0,0-18.34,4.84l-6.54-3.49L69,48.81l6.88,3.46a20.3,20.3,0,0,0-6.66,9.79l-6.88,0v9h7.37A18.34,18.34,0,0,0,77,80.24l-4.78,3.57,12.63,6.28,5-3.14a59.29,59.29,0,0,0,18.84,3.73l.17,4.1h16.25L125,90.27a70.86,70.86,0,0,0,18.31-4.64l5.49,2.89,11.84-6.88-6.2-2.55c3.8-3.18,6.15-6.71,7.09-10.28l7.37,0V59.93L161,60A15.36,15.36,0,0,0,153.12,50.58Z"/><path class="cls-14" d="M132.22,72.42c-.33.15-.68.29-1,.42-9,3.27-22.22,3.39-31.14,0-.37-.14-.73-.29-1.1-.45-9.16-4.08-9.17-10.64,0-14.69s24.1-4.07,33.27,0S141.39,68.3,132.22,72.42Zm20.85-22L158.46,47l-12.61-6.27-5.09,3.12c-7.89-3.22-18.78-3.5-18.8-3.5l-.16-4.77H105.56l.16,4.77a69.9,69.9,0,0,0-18.31,4.83l-6.53-3.49L69,48.62l6.88,3.45a20.18,20.18,0,0,0-6.65,9.78l-6.88,0v9h7.36A18.36,18.36,0,0,0,77.06,80l-4.78,3.56,12.61,6.28,5-3.14a58.84,58.84,0,0,0,18.81,3.72l.17,4.1h16.23L125,90a71.1,71.1,0,0,0,18.29-4.63l5.49,2.89,11.82-6.88-6.19-2.55c3.79-3.17,6.14-6.69,7.08-10.26l7.36,0V59.72l-7.89,0A15.38,15.38,0,0,0,153.07,50.38Z"/><path class="cls-15" d="M132.2,72.19c-.33.15-.68.3-1,.42-8.85,3.49-22.23,3.49-31.1,0-.37-.14-.73-.29-1.09-.46-9.17-4-9.17-10.62,0-14.67s24.06-4.06,33.22,0S141.38,68.14,132.2,72.19Zm20.82-22,5.38-3.34-12.6-6.26-5.07,3.12c-7.88-3.22-18.76-3.5-18.77-3.5l-.16-4.76H105.58l.16,4.76A70,70,0,0,0,87.45,45l-6.52-3.48L69.11,48.43,76,51.87a20.16,20.16,0,0,0-6.65,9.77l-6.87,0v8.94h7.35a18.39,18.39,0,0,0,7.3,9.14l-4.77,3.55,12.6,6.27,5-3.14a58.75,58.75,0,0,0,18.79,3.72l.17,4.09H125.1l-.15-4.5a70.57,70.57,0,0,0,18.26-4.62L148.69,88l11.81-6.87-6.19-2.54c3.79-3.18,6.14-6.69,7.07-10.26l7.35,0V59.51l-7.87,0A15.32,15.32,0,0,0,153,50.19Z"/></g><path class="cls-23" d="M153,50.19l5.38-3.34-12.6-6.26-5.07,3.12c-7.88-3.22-18.76-3.5-18.77-3.5l-.16-4.76H105.58l.16,4.76A70,70,0,0,0,87.45,45l-6.52-3.48L69.11,48.43,76,51.87c-3.87,3.11-6.5,3.06-7.14,5.52l-6.38,4.3v8.94h7.35a18.39,18.39,0,0,0,7.3,9.14l-4.77,3.55,12.6,6.27,5-3.14a58.75,58.75,0,0,0,18.79,3.72l.17,4.09H125.1l-.15-4.5a70.57,70.57,0,0,0,18.26-4.62L148.69,88l11.81-6.87-6.19-2.54c3.79-3.18,6.14-6.69,7.07-10.26l7.35,0V59.51l-6.59-5C160.59,49.11,155,51,153,50.19Zm-20.82,22c-.33.15-.68.3-1,.42-8.85,3.49-22.23,3.49-31.1,0-.37-.14-.73-.29-1.09-.46-9.17-4-9.17-10.62,0-14.67s24.06-4.06,33.22,0S141.38,68.14,132.2,72.19Z"/><polygon class="cls-23" points="69.11 35.19 69.11 45.04 71.46 46.86 80.46 41.03 78.64 35.65 69.11 35.19 69.11 35.19"/><polygon class="cls-23" points="158.36 33.62 158.36 43.48 156.01 45.3 147 39.46 148.83 34.09 158.36 33.62 158.36 33.62"/><path class="cls-24" d="M153,37l5.38-3.34-12.6-6.26-5.07,3.12C132.85,27.26,122,27,122,27l-.16-4.76H105.58l.16,4.76A69.65,69.65,0,0,0,87.45,31.8l-6.52-3.49L69.11,35.19,76,38.63a20.16,20.16,0,0,0-6.65,9.77l-6.87.05v8.94h7.35a18.39,18.39,0,0,0,7.3,9.14l-4.77,3.55,12.6,6.27,5-3.13a59,59,0,0,0,18.79,3.72l.17,4.08H125.1l-.15-4.5a70.17,70.17,0,0,0,18.26-4.62l5.48,2.89,11.81-6.87-6.19-2.54c3.79-3.17,6.14-6.69,7.07-10.26l7.35,0V46.28l-7.87,0A15.32,15.32,0,0,0,153,37ZM132.2,59c-.33.15-.68.3-1,.43-8.85,3.48-22.23,3.48-31.1,0A11.37,11.37,0,0,1,99,59c-9.17-4.05-9.17-10.62,0-14.67s24.06-4.06,33.22,0S141.38,54.9,132.2,59Z"/><polygon class="cls-25" points="108.89 81.02 108.89 94.26 125.1 94.26 125.1 81.02 108.89 81.02 108.89 81.02"/><polygon class="cls-25" points="168.73 55.1 168.73 68.33 161.38 68.33 161.38 55.12 168.73 55.1 168.73 55.1"/><path class="cls-25" d="M148.69,74.79V88s12.43-6.62,11.81-6.87,0-13.24,0-13.24l-11.81,6.87Z"/><polygon class="cls-25" points="84.94 76.35 84.94 89.59 72.34 83.32 72.34 70.08 84.94 76.35 84.94 76.35"/><path class="cls-25" d="M62.46,57.39s-.21,13.24,0,13.24h7.35V57.39Z"/><path class="cls-26" d="M32.36,136.69s8.3-11.67,9.82-16.06a4.11,4.11,0,0,0-.51-2.9c-1.22-1.55,2.94-5.7,3.7-5.31.37.18-1.3,3.27-1.3,3.27.3,0,.47-.68.82-1.37a23.1,23.1,0,0,1,4.63-5.45c.66-.55.82,1.31,1.48.88,3.45-2.25,1.28,3.31,1.72,3.89,1.47,1.94-3.35,7.19-4.41,8.28-2.76,2.85-11.25,20.46-11.25,20.46Z"/><path class="cls-27" d="M37.23,140.05c1-2.18,1.53-4.58,2.75-6.59,1.4-2.32,6-8.93,6.87-11.53a2.51,2.51,0,0,0,0-1.84,9.46,9.46,0,0,0,2.63-2.19,6.34,6.34,0,0,0,1.32-3.05,5.11,5.11,0,0,0-.1-1.83c0-.18-.08-.35-.12-.52a3.08,3.08,0,0,0-1.39-3.32l.35-.31c.66-.55.82,1.31,1.48.88,3.45-2.25,1.28,3.31,1.72,3.89,1.47,1.94-3.35,7.19-4.41,8.28-2.76,2.85-11.25,20.46-11.25,20.46Z"/><path class="cls-28" d="M5.48,157.57c2,5.31,7.64,4.09,14.91.73,6.13-2.83,14.33-7.43,19.31-16.28,2-3.49-7.78-7-9.78-5.61a91.45,91.45,0,0,1-13.65,8.34C7.66,148.93,3.71,152.86,5.48,157.57Z"/><path class="cls-29" d="M5.48,157.57a7.79,7.79,0,0,0,.63,1.26c0-2.8,1.42-4.93,4.13-6.41a35.42,35.42,0,0,1,4-1.59,15.53,15.53,0,0,0,2.9-1.93c1.67-1.16,8.77-4.78,10.32-6.4,1.83-1.91,4-4.46,6.49-6-1.73-.49-3.34-.6-4-.13a91.45,91.45,0,0,1-13.65,8.34C7.66,148.93,3.71,152.86,5.48,157.57Z"/><path class="cls-30" d="M8,293.89c-1,.95-2.22,6.26-1.34,7.23a5,5,0,0,0,1.92,1.17c5.86,2.24,14.89-5.57,16.39-6.88s2.76-3.81,2-5.46C26.31,288.6,9.22,292.64,8,293.89Z"/><path class="cls-31" d="M16.47,289.21a50.6,50.6,0,0,0-8.89,5c-1,1-1.85,4.42-1,5.39a7.31,7.31,0,0,0,2.56,1.31c2.85,1,10.72-2.7,14.62-6.13,1.36-1.19,3.65-4,2.9-5.62C26.07,287.77,20.61,287.59,16.47,289.21Z"/><path class="cls-4" d="M14.54,296.47a1.1,1.1,0,0,0,0,2.14,1.1,1.1,0,0,0,0-2.14Z"/><path class="cls-32" d="M7.89,294.53s-1.54,1.46-1,5.25A3.2,3.2,0,0,0,9.39,301s-.13-3.84.69-5l.41-.78-1.64-2.17Z"/><path class="cls-26" d="M8.49,291.6a28.15,28.15,0,0,1-.6,2.93,1.58,1.58,0,0,1,1.6-.08,1.41,1.41,0,0,1,.59,1.56,8,8,0,0,0,4.24-.72c3.63-1.54,4.27-3.63,3.93-4.38C17.18,288.56,9.51,291.78,8.49,291.6Z"/><path class="cls-33" d="M5.08,245.8c-.6,1.34-1.78,7.55-1.13,14.74s2.6,30.63,2.6,30.63c7.23,2.79,11-.75,11-.75s2.55-32.95,2.8-43.12S6.7,242.15,5.08,245.8Z"/><path class="cls-33" d="M19.92,195.65C14.56,191,9.23,191.76,7.5,193.07.33,198.48.38,211.42.75,215.67c.33,3.9,3,25.43,4,31.64,1.6,9.24,15.5,9.9,15.5,3C20.28,243.64,29.56,204,19.92,195.65Z"/><path class="cls-34" d="M23.79,301.66c-1,1-2.21,6.26-1.33,7.23a4.79,4.79,0,0,0,1.92,1.17c5.86,2.24,14.89-5.57,16.39-6.87s2.76-3.82,2-5.46C42.15,296.38,25.07,300.42,23.79,301.66Z"/><path class="cls-31" d="M32.31,297a50.83,50.83,0,0,0-8.88,5c-1,1-1.85,4.41-1,5.38A7.25,7.25,0,0,0,25,308.65c2.85,1,10.71-2.7,14.62-6.13,1.36-1.19,3.65-4,2.89-5.63C41.91,295.54,36.46,295.37,32.31,297Z"/><path class="cls-4" d="M30.39,304.24a1.1,1.1,0,1,0,.83,1.07A1,1,0,0,0,30.39,304.24Z"/><path class="cls-35" d="M23.73,302.31s-1.53,1.45-1,5.24a3.19,3.19,0,0,0,2.55,1.25s-.13-3.84.68-5l.42-.77-1.64-2.17Z"/><path class="cls-26" d="M24.34,299.38a28.72,28.72,0,0,1-.61,2.93,1.56,1.56,0,0,1,1.61-.08,1.38,1.38,0,0,1,.58,1.55,8,8,0,0,0,4.25-.72c3.63-1.54,4.27-3.63,3.93-4.38C33,296.33,25.36,299.55,24.34,299.38Z"/><path class="cls-23" d="M19.75,253.05c-.6,1.34-1,8.69-.36,15.87s2.69,31.87,2.69,31.87c7.23,2.79,11-2.63,11-2.63s2.51-32.3,2.76-42.47S21.38,249.4,19.75,253.05Z"/><path class="cls-23" d="M34.2,201.34c-5.48-4.51-12.07-.77-13.81.54-7.16,5.41-6.05,12.58-5.69,16.84.34,3.89,4.43,30.76,5.51,37,1.61,9.25,15.5,9.91,15.5,3C35.71,252,41.61,207.43,34.2,201.34Z"/><path class="cls-36" d="M37.3,165C37.3,153,17.58,148.26,12,148.33c-9.87.13-10.6,14.5-9,25.07S0,208.14,0,208.14c8.35,9.65,38.42,3.11,38.42,3.11C35.51,198.72,37.3,175.42,37.3,165Z"/><path class="cls-37" d="M25.56,148.33c-4.51-2.3-6.39-2.66-8.5-2.78a1.87,1.87,0,0,0-1.67.85l-1.27,1.94L28,152.76A5.32,5.32,0,0,0,25.56,148.33Z"/><path class="cls-27" d="M17,140.68s9.89-.92,9.48,1.7c-1,6.32,1.15,6.54,3.46,7.39-1.15-.26-3.32-.3-6.7,1.34-5.4,2.62-10.31-.65-8.07-3.64A10.54,10.54,0,0,0,17,140.68Z"/><path class="cls-26" d="M17,140.68a41.86,41.86,0,0,1,5.55,1,4,4,0,0,0-1.49,3.56,5.71,5.71,0,0,0,2.83,4.52,4.39,4.39,0,0,0,1.47.49,18.74,18.74,0,0,0-2.12.87c-5.4,2.62-10.31-.65-8.07-3.64A10.54,10.54,0,0,0,17,140.68Z"/><path class="cls-26" d="M21.65,123.21s3.18,2.88,3.53,3.88c.27.75.43,1.37.69,2s1.36,1,1.9,1.7a16,16,0,0,1,1.41,4c.3,1.16,1.53,3.21,1.44,4.11-.13,1.32-5.5,6.1-13.52,5.93a19.58,19.58,0,0,0-6.43-4.63C6.63,138.33,12.87,120.92,21.65,123.21Z"/><path class="cls-27" d="M28.32,139.51c.1-.9-1.14-2.95-1.44-4.11a15.57,15.57,0,0,0-1.41-4c-.54-.69-1.63-1.11-1.9-1.7s-.42-1.21-.68-2c-.36-1-3.54-3.88-3.54-3.88a6.31,6.31,0,0,0-2.23-.17,6.35,6.35,0,0,1,4.53-.51s3.18,2.88,3.53,3.88c.27.75.43,1.37.69,2s1.36,1,1.9,1.7a16,16,0,0,1,1.41,4c.3,1.16,1.53,3.21,1.44,4.11s-3.45,4.2-8.77,5.43C25.82,142.8,28.23,140.39,28.32,139.51Z"/><path class="cls-38" d="M22.73,124.26s.65,3.11-.16,4.68,3.11,3.34,2.22,4.06c-1.7,1.39-3.68-2.37-4.37.48-.35,1.43,2.28,3.45,3.41,4.25s.09,2.45-1.63,3.81a20,20,0,0,1-5.71,2.59,37.51,37.51,0,0,0-3-2.41c-.89-.57-.91-1.12-1.51-7.45S22.73,124.26,22.73,124.26Z"/><path class="cls-38" d="M5.57,129.92c.89-2.6,4.82-6.06,8.19-8.17s1.92-2.85,2.51-3.33c3-2.43,7.72,2.66,6.46,5.84s-7,3.89-5.52,10.6-4.47,6.35-4.47,6.35a30.29,30.29,0,0,1-4.92-2.67C4.69,136.53,4.69,132.51,5.57,129.92Z"/><path class="cls-26" d="M52,141.13s9.39-10.8,11.34-15a4.05,4.05,0,0,0-.22-2.93c-1.06-1.66,3.48-5.38,4.2-4.93.35.22-1.62,3.13-1.62,3.13.3.09.54-.63,1-1.28a22.54,22.54,0,0,1,5.14-5c.71-.48.69,1.38,1.39,1,3.64-1.9.94,3.42,1.32,4,1.28,2.08-4,6.83-5.2,7.81-3,2.56-13.19,19.26-13.19,19.26Z"/><path class="cls-27" d="M56.54,145c1.19-2.07,2-4.39,3.39-6.28,1.62-2.17,6.84-8.3,8-10.8a2.52,2.52,0,0,0,.16-1.84,9.4,9.4,0,0,0,2.83-1.91,6.25,6.25,0,0,0,1.61-2.92,4.91,4.91,0,0,0,.08-1.83,4.51,4.51,0,0,0-.07-.53,3.09,3.09,0,0,0-1-3.44l.38-.27c.71-.48.69,1.38,1.39,1,3.64-1.9.94,3.42,1.32,4,1.28,2.08-4,6.83-5.2,7.81-3,2.56-13.19,19.26-13.19,19.26Z"/><path class="cls-39" d="M23.24,159.29c1.46,5.48,7.2,4.81,14.76,2.18,6.38-2.21,15-6,20.81-14.32,2.29-3.27-7.07-7.67-9.18-6.53a89.63,89.63,0,0,1-14.4,7C26.25,150.91,21.94,154.42,23.24,159.29Z"/><path class="cls-29" d="M23.24,159.29a7,7,0,0,0,.5,1.31c.23-2.79,1.9-4.77,4.73-6a35.49,35.49,0,0,1,4.14-1.19,15.22,15.22,0,0,0,3.08-1.64c1.77-1,9.19-3.9,10.89-5.36,2-1.72,4.42-4,7.05-5.3-1.68-.65-3.27-.92-4-.52a89.63,89.63,0,0,1-14.4,7C26.25,150.91,21.94,154.42,23.24,159.29Z"/><g class="cls-2"><path class="cls-4" d="M108.86,167.89c43.94-23.17,114.48-22,157.56,2.55s42.39,63.29-1.55,86.46-114.48,22-157.57-2.55S64.92,191.06,108.86,167.89Z"/><path class="cls-40" d="M110.46,168.81c43-22.7,112.13-21.58,154.32,2.5s41.52,62-1.52,84.67-112.12,21.57-154.32-2.5S67.43,191.5,110.46,168.81Z"/><path class="cls-41" d="M112.07,169.72c42.13-22.21,109.77-21.12,151.07,2.45s40.65,60.68-1.48,82.89-109.77,21.12-151.08-2.44S69.94,191.94,112.07,169.72Z"/><path class="cls-42" d="M113.68,170.64C154.9,148.9,221.09,150,261.5,173s39.77,59.38-1.45,81.12-107.41,20.66-147.83-2.39S72.45,192.38,113.68,170.64Z"/><path class="cls-43" d="M115.28,171.56c40.32-21.27,105.06-20.22,144.58,2.34s38.9,58.07-1.42,79.33-105,20.21-144.58-2.34S75,192.82,115.28,171.56Z"/><path class="cls-44" d="M116.89,172.47c39.42-20.78,102.69-19.76,141.34,2.29s38,56.77-1.39,77.55S154.14,272.07,115.49,250,77.48,193.25,116.89,172.47Z"/><path class="cls-45" d="M118.5,173.39c38.51-20.31,100.33-19.31,138.09,2.24s37.15,55.46-1.36,75.77-100.34,19.3-138.1-2.24S80,193.69,118.5,173.39Z"/><path class="cls-46" d="M120.1,174.31c37.61-19.84,98-18.86,134.85,2.18s36.28,54.16-1.33,74-98,18.85-134.85-2.18S82.5,194.13,120.1,174.31Z"/><path class="cls-47" d="M121.71,175.22c36.7-19.35,95.62-18.4,131.6,2.13s35.41,52.86-1.29,72.22S156.39,268,120.41,247.43,85,194.57,121.71,175.22Z"/><path class="cls-48" d="M123.32,176.14c35.79-18.88,93.26-17.95,128.35,2.08s34.53,51.55-1.26,70.43-93.27,17.94-128.36-2.08S87.52,195,123.32,176.14Z"/><path class="cls-49" d="M124.92,177.05c34.89-18.4,90.91-17.49,125.11,2s33.66,50.25-1.23,68.65-90.91,17.49-125.11-2S90,195.45,124.92,177.05Z"/></g><polygon class="cls-16" points="250.83 90.21 250.83 104.53 247.32 107.18 233.94 98.69 236.65 90.89 250.83 90.21 250.83 90.21"/><polygon class="cls-16" points="118.07 87.93 118.07 102.25 121.58 104.9 134.98 96.42 132.26 88.61 118.07 87.93 118.07 87.93"/><path class="cls-16" d="M112.46,118.23l-9.81,7.33v12.81l10.93,0c1.39,5.18,4.9,10.29,10.51,14.9L114.9,157l17.56,10,8.15-4.19a107.12,107.12,0,0,0,27.16,6.71l-.22,6.54h24.1l.26-5.94c10.61,0,23.81-3.62,27.94-5.41l7.44,4.55,18.74-9.1L238.92,155c6.18-4.31,8.83-8.15,10.86-13.28h10.93v-13l-9.48-6.24c-1-3.58-4.87-3.52-10.61-8l10.21-5-17.59-10-9.69,5.07a106.05,106.05,0,0,0-27.2-7l.24-6.91H172.46l-.24,6.91s-16.2.42-27.91,5.09l-7.56-4.53L118,107.16l8,4.85C123.08,113.18,114.77,110.44,112.46,118.23ZM157,122.66c13.63-5.91,35.77-5.91,49.42,0S220,138.1,206.4,144c-.54.24-1.07.46-1.63.66-13.19,5-33.08,5-46.26,0-.51-.18-1-.39-1.53-.61C143.33,138.1,143.33,128.54,157,122.66Z"/><path class="cls-50" d="M114.36,106.36l-11.71,0v12.82l10.93,0c1.39,5.18,4.9,10.29,10.51,14.9l-9.19,3.7,17.56,10,8.15-4.19a107.12,107.12,0,0,0,27.16,6.72l-.22,6.53h24.1l.26-5.94c10.61,0,23.81-3.62,27.94-5.4l7.44,4.55,18.74-9.1-7.11-5.17c6.18-4.31,8.83-8.15,10.86-13.27h10.93v-13l-10.22-.08a29.32,29.32,0,0,0-9.87-14.19l10.21-5-17.59-10-9.69,5.07a106.05,106.05,0,0,0-27.2-7l.24-6.91H172.46l-.24,6.91s-16.2.42-27.91,5.09l-7.56-4.53L118,87.92l8,4.85A22.45,22.45,0,0,0,114.36,106.36ZM157,103.42c13.63-5.9,35.77-5.9,49.42,0s13.63,15.44,0,21.32c-.54.24-1.07.46-1.63.66-13.19,5-33.08,5-46.26,0-.51-.18-1-.4-1.53-.62C143.33,118.86,143.33,109.3,157,103.42Z"/><polygon class="cls-51" points="191.65 156.81 191.65 176.05 167.55 176.05 167.55 156.81 191.65 156.81 191.65 156.81"/><polygon class="cls-52" points="102.65 119.14 102.65 138.37 113.58 138.37 113.58 119.18 102.65 119.14 102.65 119.14"/><path class="cls-53" d="M132.46,147.75V167S114,157.38,114.9,157s0-19.23,0-19.23l17.56,10Z"/><polygon class="cls-54" points="227.29 150.02 227.29 169.25 246.03 160.15 246.03 140.92 227.29 150.02 227.29 150.02"/><path class="cls-55" d="M260.71,122.48s.3,19.23,0,19.23H249.78V122.48Z"/></g></g></g></svg>
