<svg xmlns="http://www.w3.org/2000/svg" xmlns:xlink="http://www.w3.org/1999/xlink" viewBox="0 0 202.62 341.32">
  <defs>
    <style>
      .cls-1 {
        mask: url(#mask);
        filter: url(#luminosity-noclip-2);
      }

      .cls-15, .cls-2 {
        mix-blend-mode: multiply;
      }

      .cls-2 {
        fill: url(#Áåçûìÿííûé_ãðàäèåíò_21);
      }

      .cls-3 {
        isolation: isolate;
      }

      .cls-4 {
        fill: #cbd3fa;
      }

      .cls-5 {
        fill: #f3f1f6;
      }

      .cls-6 {
        fill: #d5dbeb;
      }

      .cls-7 {
        fill: #bac1e8;
      }

      .cls-8 {
        fill: #ff5a74;
      }

      .cls-9 {
        fill: url(#Áåçûìÿííûé_ãðàäèåíò_37);
      }

      .cls-10 {
        fill: url(#Áåçûìÿííûé_ãðàäèåíò_37-2);
      }

      .cls-11 {
        fill: url(#Áåçûìÿííûé_ãðàäèåíò_37-3);
      }

      .cls-12 {
        fill: url(#Áåçûìÿííûé_ãðàäèåíò_37-4);
      }

      .cls-13 {
        fill: url(#Áåçûìÿííûé_ãðàäèåíò_37-5);
      }

      .cls-14 {
        fill: url(#Áåçûìÿííûé_ãðàäèåíò_37-6);
      }

      .cls-16 {
        opacity: 0;
      }

      .cls-17 {
        fill: #fff;
      }

      .cls-18 {
        fill: #fafafb;
      }

      .cls-19 {
        fill: #f5f6f6;
      }

      .cls-20 {
        fill: #f1f1f2;
      }

      .cls-21 {
        fill: #ececee;
      }

      .cls-22 {
        fill: #e7e8ea;
      }

      .cls-23 {
        fill: #e2e3e5;
      }

      .cls-24 {
        fill: #dddfe1;
      }

      .cls-25 {
        fill: #d8dadd;
      }

      .cls-26 {
        fill: #d4d5d9;
      }

      .cls-27 {
        fill: #cfd1d4;
      }

      .cls-28 {
        fill: #caccd0;
      }

      .cls-29 {
        fill: #c24458;
      }

      .cls-30 {
        fill: url(#Áåçûìÿííûé_ãðàäèåíò_37-7);
      }

      .cls-31 {
        fill: url(#Áåçûìÿííûé_ãðàäèåíò_37-8);
      }

      .cls-32 {
        fill: url(#Áåçûìÿííûé_ãðàäèåíò_37-9);
      }

      .cls-33 {
        fill: url(#Áåçûìÿííûé_ãðàäèåíò_37-10);
      }

      .cls-34 {
        fill: url(#Áåçûìÿííûé_ãðàäèåíò_37-11);
      }

      .cls-35 {
        fill: url(#Áåçûìÿííûé_ãðàäèåíò_37-12);
      }

      .cls-36 {
        fill: #3531a1;
      }

      .cls-37 {
        fill: url(#Áåçûìÿííûé_ãðàäèåíò_15);
      }

      .cls-38 {
        fill: #5752d0;
      }

      .cls-39 {
        mask: url(#mask-2);
      }

      .cls-40 {
        fill: url(#Áåçûìÿííûé_ãðàäèåíò_47);
      }

      .cls-41 {
        filter: url(#luminosity-noclip);
      }
    </style>
    <filter id="luminosity-noclip" x="17.41" y="-8859.38" width="169.42" height="32766" filterUnits="userSpaceOnUse" color-interpolation-filters="sRGB">
      <feFlood flood-color="#fff" result="bg"/>
      <feBlend in="SourceGraphic" in2="bg"/>
    </filter>
    <mask id="mask" x="17.41" y="-8859.38" width="169.42" height="32766" maskUnits="userSpaceOnUse">
      <g class="cls-41"/>
    </mask>
    <linearGradient id="Áåçûìÿííûé_ãðàäèåíò_21" data-name="Áåçûìÿííûé ãðàäèåíò 21" x1="-503.94" y1="2.31" x2="-503.94" y2="530.15" gradientTransform="matrix(-1, 0, 0, 1, -401.82, 0)" gradientUnits="userSpaceOnUse">
      <stop offset="0"/>
      <stop offset="1" stop-color="#999"/>
    </linearGradient>
    <linearGradient id="Áåçûìÿííûé_ãðàäèåíò_37" data-name="Áåçûìÿííûé ãðàäèåíò 37" x1="-582.54" y1="167.91" x2="-424.49" y2="167.91" gradientTransform="matrix(-1, 0, 0, 1, -401.82, 0)" gradientUnits="userSpaceOnUse">
      <stop offset="0" stop-color="#ff6279"/>
      <stop offset="1" stop-color="#ffad60"/>
    </linearGradient>
    <linearGradient id="Áåçûìÿííûé_ãðàäèåíò_37-2" x1="-513.49" y1="220.26" x2="-489.39" y2="220.26" xlink:href="#Áåçûìÿííûé_ãðàäèåíò_37"/>
    <linearGradient id="Áåçûìÿííûé_ãðàäèåíò_37-3" x1="-435.42" y1="182.59" x2="-424.49" y2="182.59" xlink:href="#Áåçûìÿííûé_ãðàäèåíò_37"/>
    <linearGradient id="Áåçûìÿííûé_ãðàäèåíò_37-4" x1="-454.3" y1="206.21" x2="-436.7" y2="206.21" xlink:href="#Áåçûìÿííûé_ãðàäèåíò_37"/>
    <linearGradient id="Áåçûìÿííûé_ãðàäèåíò_37-5" x1="-567.86" y1="208.92" x2="-549.12" y2="208.92" xlink:href="#Áåçûìÿííûé_ãðàäèåíò_37"/>
    <linearGradient id="Áåçûìÿííûé_ãðàäèåíò_37-6" x1="-582.68" y1="185.93" x2="-571.61" y2="185.93" xlink:href="#Áåçûìÿííûé_ãðàäèåíò_37"/>
    <linearGradient id="Áåçûìÿííûé_ãðàäèåíò_37-7" x1="-2253.06" y1="76.24" x2="-2178.61" y2="76.24" gradientTransform="translate(2365.86)" xlink:href="#Áåçûìÿííûé_ãðàäèåíò_37"/>
    <linearGradient id="Áåçûìÿííûé_ãðàäèåíò_37-8" x1="-2220.53" y1="101.47" x2="-2209.18" y2="101.47" gradientTransform="translate(2365.86)" xlink:href="#Áåçûìÿííûé_ãðàäèåíò_37"/>
    <linearGradient id="Áåçûìÿííûé_ãðàäèåíò_37-9" x1="-2183.76" y1="83.31" x2="-2178.61" y2="83.31" gradientTransform="translate(2365.86)" xlink:href="#Áåçûìÿííûé_ãðàäèåíò_37"/>
    <linearGradient id="Áåçûìÿííûé_ãðàäèåíò_37-10" x1="-2192.65" y1="94.7" x2="-2184.36" y2="94.7" gradientTransform="translate(2365.86)" xlink:href="#Áåçûìÿííûé_ãðàäèåíò_37"/>
    <linearGradient id="Áåçûìÿííûé_ãðàäèåíò_37-11" x1="-2246.14" y1="96" x2="-2237.31" y2="96" gradientTransform="translate(2365.86)" xlink:href="#Áåçûìÿííûé_ãðàäèåíò_37"/>
    <linearGradient id="Áåçûìÿííûé_ãðàäèåíò_37-12" x1="-2253.12" y1="84.92" x2="-2247.91" y2="84.92" gradientTransform="translate(2365.86)" xlink:href="#Áåçûìÿííûé_ãðàäèåíò_37"/>
    <linearGradient id="Áåçûìÿííûé_ãðàäèåíò_15" data-name="Áåçûìÿííûé ãðàäèåíò 15" x1="-2333.93" y1="104.16" x2="-2234.03" y2="104.16" gradientTransform="translate(2365.86)" gradientUnits="userSpaceOnUse">
      <stop offset="0" stop-color="#5752d0"/>
      <stop offset="1" stop-color="#7f7cf9"/>
    </linearGradient>
    <filter id="luminosity-noclip-2" x="17.41" y="0" width="169.42" height="311.94" filterUnits="userSpaceOnUse" color-interpolation-filters="sRGB">
      <feFlood flood-color="#fff" result="bg"/>
      <feBlend in="SourceGraphic" in2="bg"/>
    </filter>
    <mask id="mask-2" x="17.41" y="0" width="169.42" height="311.94" maskUnits="userSpaceOnUse">
      <g class="cls-1">
        <path class="cls-2" d="M17.41,0H186.83V260.24h-.22c1.31,13.43-6.81,27.11-24.59,37.37-33.08,19.1-86.72,19.1-119.8,0-17.78-10.26-25.9-23.94-24.59-37.37h-.22Z"/>
      </g>
    </mask>
    <linearGradient id="Áåçûìÿííûé_ãðàäèåíò_47" data-name="Áåçûìÿííûé ãðàäèåíò 47" x1="-503.94" y1="2.31" x2="-503.94" y2="530.15" gradientTransform="matrix(-1, 0, 0, 1, -401.82, 0)" gradientUnits="userSpaceOnUse">
      <stop offset="0" stop-color="#7f7cf9"/>
      <stop offset="1" stop-color="#5752d0"/>
    </linearGradient>
  </defs>
  <g class="cls-3">
    <g id="Layer_2" data-name="Layer 2">
      <g id="Layer_1-2" data-name="Layer 1">
        <g>
          <g>
            <path class="cls-4" d="M172.83,218.88c-39.5-22.8-103.54-22.8-143,0C10.51,230,.65,244.52.19,259.1Q-.18,271.53.19,284c.46,14.59,10.32,29.09,29.6,40.22,39.5,22.81,103.54,22.81,143,0,19.28-11.13,29.14-25.63,29.6-40.22q.38-12.44,0-24.89C202,244.52,192.11,230,172.83,218.88Z"/>
            <path class="cls-5" d="M172.83,218.88c39.5,22.81,39.5,59.78,0,82.59s-103.54,22.8-143,0-39.5-59.78,0-82.59S133.33,196.08,172.83,218.88Z"/>
            <g>
              <path class="cls-6" d="M35.68,224c36.51-19.84,95.7-19.84,132.21,0s36.51,52,0,71.86-95.7,19.84-132.21,0S-.83,243.87,35.68,224Z"/>
              <path class="cls-7" d="M42.2,232.59c32.91-17.89,86.26-17.89,119.17,0s32.9,46.88,0,64.76-86.26,17.89-119.17,0S9.29,250.47,42.2,232.59Z"/>
            </g>
          </g>
          <g>
            <polygon class="cls-8" points="170.84 144.04 170.84 158.36 167.34 161.01 153.95 152.52 156.67 144.72 170.84 144.04 170.84 144.04"/>
            <polygon class="cls-8" points="38.09 141.76 38.09 156.09 41.59 158.74 54.99 150.25 52.27 142.44 38.09 141.76 38.09 141.76"/>
            <path class="cls-8" d="M32.47,172.06l-9.8,7.33v12.82l10.92,0c1.4,5.19,4.9,10.29,10.51,14.9l-9.19,3.7,17.57,10,8.14-4.19a106.77,106.77,0,0,0,27.17,6.71l-.23,6.54h24.11l.26-5.94c10.61,0,23.8-3.62,27.94-5.4l7.43,4.55L166,214l-7.1-5.17c6.18-4.31,8.83-8.15,10.85-13.27h10.93v-13l-9.48-6.24c-1-3.58-4.87-3.51-10.61-8l10.21-5-17.58-10-9.69,5.07a106.13,106.13,0,0,0-27.21-7l.24-6.91H92.48l-.24,6.91s-16.2.42-27.92,5.09l-7.55-4.53L38,161l8,4.84C43.1,167,34.78,164.28,32.47,172.06ZM77,176.49c13.63-5.9,35.77-5.9,49.43,0s13.63,15.44,0,21.32c-.55.24-1.08.46-1.63.66-13.2,5-33.09,5-46.27,0-.51-.18-1-.4-1.53-.62C63.35,191.93,63.35,182.37,77,176.49Z"/>
            <path class="cls-9" d="M34.37,160.19l-11.7,0V173l10.92,0c1.4,5.19,4.9,10.29,10.51,14.91l-9.19,3.69,17.57,10,8.14-4.19a107.2,107.2,0,0,0,27.17,6.72l-.23,6.53h24.11l.26-5.94c10.61,0,23.8-3.62,27.94-5.4l7.43,4.55,18.74-9.1-7.1-5.17c6.18-4.31,8.83-8.15,10.85-13.27h10.93v-13l-10.22-.08A29.36,29.36,0,0,0,160.63,149l10.21-5-17.58-10-9.69,5.07a105.71,105.71,0,0,0-27.21-7l.24-6.92H92.48l-.24,6.92s-16.2.41-27.92,5.08l-7.55-4.53L38,141.75l8,4.85A22.49,22.49,0,0,0,34.37,160.19ZM77,157.25c13.63-5.9,35.77-5.9,49.43,0s13.63,15.44,0,21.33c-.55.23-1.08.45-1.63.65-13.2,5-33.09,5-46.27,0-.51-.18-1-.4-1.53-.61C63.35,172.69,63.35,163.14,77,157.25Z"/>
            <polygon class="cls-10" points="111.67 210.65 111.67 229.88 87.56 229.88 87.56 210.65 111.67 210.65 111.67 210.65"/>
            <polygon class="cls-11" points="22.66 172.97 22.66 192.21 33.59 192.21 33.59 173.01 22.66 172.97 22.66 172.97"/>
            <path class="cls-12" d="M52.48,201.58v19.24s-18.48-9.61-17.57-10,0-19.24,0-19.24l17.57,10Z"/>
            <polygon class="cls-13" points="147.3 203.85 147.3 223.09 166.04 213.99 166.04 194.75 147.3 203.85 147.3 203.85"/>
            <path class="cls-14" d="M180.72,176.31s.31,19.24,0,19.24H169.79V176.31Z"/>
          </g>
          <g>
            <g class="cls-15">
              <g>
                <g class="cls-16">
                  <path class="cls-17" d="M161.84,92.4c-.24.1-.49.21-.74.3-6.3,2.48-15.81,2.48-22.12,0-.27-.1-.52-.21-.78-.32-6.52-2.88-6.52-7.56,0-10.44s17.12-2.89,23.64,0S168.36,89.52,161.84,92.4Zm14.8-15.66,3.83-2.37-9-4.45-3.61,2.21c-5.61-2.28-13.34-2.49-13.36-2.49l-.11-3.38H142.89l.12,3.38a49.56,49.56,0,0,0-13,3.44l-4.64-2.48L117,75.49l4.89,2.45a14.42,14.42,0,0,0-4.73,7l-4.88,0v6.36h5.22a13.13,13.13,0,0,0,5.19,6.5l-3.39,2.53,9,4.45,3.56-2.23a41.62,41.62,0,0,0,13.36,2.65l.12,2.9h11.53l-.1-3.19a50.72,50.72,0,0,0,13-3.29l3.89,2,8.4-4.88L177.56,97a14.64,14.64,0,0,0,5-7.3l5.23,0V83.38l-5.6,0A10.93,10.93,0,0,0,176.64,76.74Z"/>
                </g>
                <path class="cls-18" d="M161.82,92.24l-.73.3c-6.34,2.36-15.77,2.4-22.1,0l-.77-.32c-6.5-2.9-6.51-7.55,0-10.43s17.09-2.88,23.6,0S168.32,89.33,161.82,92.24ZM176.6,76.61l3.83-2.37-9-4.45L167.87,72c-5.6-2.28-13.32-2.48-13.33-2.48l-.11-3.38H142.9l.12,3.38A49.12,49.12,0,0,0,130,73l-4.64-2.48L117,75.36l4.89,2.44a14.29,14.29,0,0,0-4.72,6.94l-4.88,0v6.35h5.22a13,13,0,0,0,5.18,6.49l-3.39,2.53,9,4.44,3.55-2.22A42,42,0,0,0,145.14,105l.12,2.9h11.51l-.1-3.19a50,50,0,0,0,13-3.28l3.89,2,8.39-4.88-4.39-1.81a14.63,14.63,0,0,0,5-7.28l5.21,0V83.23l-5.58,0A10.88,10.88,0,0,0,176.6,76.61Z"/>
                <path class="cls-19" d="M161.8,92.08c-.23.1-.48.21-.73.3-6.33,2.35-15.74,2.41-22.06,0l-.78-.32c-6.49-2.9-6.5-7.54,0-10.41s17.07-2.88,23.57,0S168.3,89.18,161.8,92.08Zm14.77-15.61,3.82-2.36-8.94-4.45-3.6,2.21c-5.59-2.28-13.31-2.48-13.32-2.48L154.42,66H142.91l.12,3.38a49.05,49.05,0,0,0-13,3.43l-4.62-2.48L117,75.22l4.87,2.44a14.5,14.5,0,0,0-4.71,6.93l-4.87,0V91h5.21a13,13,0,0,0,5.18,6.48L119.33,100l8.94,4.44,3.55-2.22a41.78,41.78,0,0,0,13.32,2.64l.12,2.89h11.5l-.1-3.19a50.29,50.29,0,0,0,13-3.27l3.89,2,8.38-4.87-4.39-1.8a14.58,14.58,0,0,0,5-7.28l5.21,0V83.09l-5.58,0A10.86,10.86,0,0,0,176.57,76.47Z"/>
                <path class="cls-20" d="M161.79,91.92l-.73.3c-6.32,2.35-15.73,2.41-22,0l-.77-.32c-6.48-2.89-6.49-7.53,0-10.39s17-2.88,23.54,0S168.27,89,161.79,91.92Zm14.74-15.59L180.34,74l-8.92-4.44-3.6,2.21c-5.58-2.27-13.28-2.48-13.29-2.48l-.12-3.37H142.92l.12,3.37a49.28,49.28,0,0,0-13,3.42l-4.62-2.47-8.37,4.88L122,77.53a14.27,14.27,0,0,0-4.7,6.91l-4.87,0v6.33h5.21a12.94,12.94,0,0,0,5.17,6.48l-3.38,2.52,8.92,4.43,3.54-2.22a41.7,41.7,0,0,0,13.31,2.64l.12,2.89h11.48l-.1-3.18a50,50,0,0,0,12.93-3.27l3.88,2,8.37-4.87-4.38-1.8a14.56,14.56,0,0,0,5-7.26l5.2,0V82.94l-5.57,0A10.9,10.9,0,0,0,176.53,76.33Z"/>
                <path class="cls-21" d="M161.77,91.76c-.24.11-.48.21-.73.3-6.31,2.35-15.7,2.41-22,0-.26-.1-.52-.2-.78-.32-6.47-2.89-6.48-7.51,0-10.38s17-2.87,23.51,0S168.25,88.87,161.77,91.76ZM176.5,76.19l3.8-2.35-8.91-4.44-3.59,2.21c-5.58-2.27-13.27-2.48-13.28-2.48l-.11-3.36H142.93l.12,3.36a49.42,49.42,0,0,0-12.94,3.42l-4.61-2.47L117.13,75,122,77.39a14.32,14.32,0,0,0-4.7,6.9l-4.85,0v6.33h5.19a13,13,0,0,0,5.16,6.46l-3.37,2.52,8.91,4.43,3.54-2.22a41.6,41.6,0,0,0,13.29,2.63l.12,2.89h11.46l-.1-3.18a49.77,49.77,0,0,0,12.92-3.27l3.87,2,8.36-4.85-4.38-1.8a14.47,14.47,0,0,0,5-7.26l5.2,0V82.79l-5.57,0A10.92,10.92,0,0,0,176.5,76.19Z"/>
                <path class="cls-22" d="M161.75,91.6c-.23.11-.48.21-.72.3-6.31,2.35-15.69,2.42-22,0-.26-.1-.51-.2-.77-.32-6.46-2.89-6.47-7.5,0-10.36s17-2.87,23.47,0S168.23,88.72,161.75,91.6Zm14.71-15.54,3.8-2.36-8.9-4.42-3.58,2.2C162.21,69.21,154.52,69,154.51,69l-.11-3.36H142.94l.12,3.36a48.88,48.88,0,0,0-12.92,3.41L125.53,70l-8.35,4.86L122,77.25a14.24,14.24,0,0,0-4.69,6.89l-4.85,0V90.5h5.19A12.94,12.94,0,0,0,122.83,97l-3.37,2.52,8.9,4.42,3.53-2.21a41.58,41.58,0,0,0,13.27,2.63l.12,2.88h11.45l-.1-3.17a49.92,49.92,0,0,0,12.9-3.27l3.87,2,8.34-4.85-4.36-1.8a14.47,14.47,0,0,0,5-7.24l5.19,0V82.65l-5.56,0A10.86,10.86,0,0,0,176.46,76.06Z"/>
                <path class="cls-23" d="M161.74,91.44c-.24.11-.48.21-.73.3-6.29,2.34-15.66,2.42-21.94,0-.26-.1-.52-.2-.77-.32-6.45-2.88-6.47-7.49,0-10.35s17-2.86,23.44,0S168.2,88.57,161.74,91.44Zm14.68-15.52,3.8-2.35-8.89-4.42-3.58,2.2c-5.56-2.27-13.23-2.47-13.24-2.47l-.11-3.36H143l.12,3.36a49,49,0,0,0-12.91,3.41l-4.59-2.46-8.35,4.85,4.85,2.43A14.34,14.34,0,0,0,117.38,84l-4.84,0v6.3h5.18a13,13,0,0,0,5.15,6.45L119.5,99.3l8.89,4.42,3.53-2.21a41.7,41.7,0,0,0,13.25,2.62l.12,2.88h11.43l-.1-3.17a49.76,49.76,0,0,0,12.88-3.26l3.87,2,8.33-4.85L177.34,96a14.51,14.51,0,0,0,5-7.24l5.18,0V82.5l-5.55,0A10.8,10.8,0,0,0,176.42,75.92Z"/>
                <path class="cls-24" d="M161.72,91.28c-.23.11-.48.21-.72.3-6.29,2.34-15.65,2.42-21.92,0-.26-.09-.51-.2-.77-.32-6.44-2.88-6.45-7.48,0-10.33s16.95-2.86,23.41,0S168.18,88.41,161.72,91.28Zm14.67-15.5,3.79-2.34L171.3,69l-3.57,2.2c-5.56-2.26-13.22-2.47-13.23-2.47l-.11-3.35H143l.12,3.35a49.14,49.14,0,0,0-12.89,3.4L125.6,69.7l-8.33,4.84L122.11,77a14.22,14.22,0,0,0-4.68,6.88l-4.84,0v6.3h5.18a12.92,12.92,0,0,0,5.14,6.43l-3.36,2.51,8.87,4.41,3.52-2.21A41.41,41.41,0,0,0,145.18,104l.12,2.88h11.41l-.1-3.17a49.38,49.38,0,0,0,12.87-3.25l3.85,2,8.32-4.84-4.35-1.79a14.46,14.46,0,0,0,5-7.22l5.17,0V82.36h-5.54A10.82,10.82,0,0,0,176.39,75.78Z"/>
                <path class="cls-25" d="M161.7,91.13c-.23.1-.47.2-.72.29-6.28,2.34-15.63,2.43-21.88,0l-.77-.32c-6.43-2.89-6.45-7.48,0-10.32s16.93-2.86,23.37,0S168.15,88.26,161.7,91.13Zm14.65-15.48,3.78-2.35-8.86-4.41-3.57,2.2c-5.54-2.26-13.19-2.47-13.2-2.47l-.12-3.34H143l.12,3.34A49,49,0,0,0,130.22,72l-4.59-2.45-8.32,4.84,4.84,2.42a14.27,14.27,0,0,0-4.68,6.87l-4.83,0V90h5.17a13,13,0,0,0,5.13,6.43L119.59,99l8.86,4.4,3.52-2.2a41.47,41.47,0,0,0,13.21,2.62l.12,2.87h11.4l-.1-3.16a49.93,49.93,0,0,0,12.85-3.25l3.85,2,8.31-4.84-4.35-1.78a14.48,14.48,0,0,0,5-7.22l5.17,0v-6.2l-5.53,0A10.83,10.83,0,0,0,176.35,75.65Z"/>
                <path class="cls-26" d="M161.69,91l-.72.29c-6.27,2.34-15.61,2.43-21.86,0l-.76-.32c-6.43-2.88-6.44-7.47,0-10.31s16.9-2.85,23.34,0S168.13,88.12,161.69,91Zm14.62-15.46,3.78-2.34-8.85-4.41L167.68,71c-5.54-2.26-13.18-2.46-13.19-2.46l-.11-3.34H143l.12,3.34a48.35,48.35,0,0,0-12.85,3.39l-4.58-2.45-8.31,4.83,4.83,2.42a14.15,14.15,0,0,0-4.67,6.86l-4.82,0v6.28h5.16A12.91,12.91,0,0,0,123,96.29l-3.35,2.5,8.85,4.4L132,101a41.5,41.5,0,0,0,13.2,2.61l.12,2.87h11.38l-.1-3.16a49.37,49.37,0,0,0,12.83-3.24l3.85,2,8.3-4.82-4.35-1.79a14.39,14.39,0,0,0,5-7.2l5.16,0v-6.2l-5.53,0A10.79,10.79,0,0,0,176.31,75.51Z"/>
                <path class="cls-27" d="M161.67,90.81l-.72.3c-6.26,2.33-15.59,2.42-21.82,0l-.77-.32c-6.41-2.88-6.43-7.46,0-10.29s16.88-2.85,23.31,0S168.11,88,161.67,90.81Zm14.61-15.44L180.05,73l-8.84-4.39-3.56,2.18c-5.53-2.25-13.16-2.45-13.17-2.45L154.37,65H143l.12,3.34a48.86,48.86,0,0,0-12.84,3.39l-4.57-2.45-8.29,4.83,4.81,2.41a14.25,14.25,0,0,0-4.65,6.85l-4.82,0v6.27h5.15A12.9,12.9,0,0,0,123,96.12l-3.35,2.5,8.84,4.39,3.51-2.19a41.4,41.4,0,0,0,13.18,2.6l.12,2.87h11.36l-.1-3.15a49.4,49.4,0,0,0,12.82-3.25l3.84,2,8.28-4.82-4.33-1.78a14.34,14.34,0,0,0,4.95-7.2l5.16,0V81.92h-5.52A10.79,10.79,0,0,0,176.28,75.37Z"/>
                <path class="cls-28" d="M161.66,90.65c-.24.1-.48.21-.72.3-6.21,2.44-15.58,2.44-21.8,0-.25-.1-.51-.2-.76-.32-6.42-2.84-6.42-7.44,0-10.28s16.86-2.84,23.28,0S168.08,87.81,161.66,90.65Zm14.58-15.42L180,72.9l-8.83-4.39-3.55,2.18c-5.52-2.25-13.14-2.45-13.15-2.45l-.11-3.33H143l.12,3.33a49.1,49.1,0,0,0-12.82,3.38l-4.56-2.44L117.45,74l4.81,2.41a14.23,14.23,0,0,0-4.65,6.84l-4.81,0v6.27H118a12.84,12.84,0,0,0,5.11,6.4l-3.34,2.49,8.82,4.39,3.51-2.2a41.14,41.14,0,0,0,13.15,2.61l.12,2.86h11.36l-.11-3.15a49.25,49.25,0,0,0,12.8-3.24l3.83,2,8.28-4.81-4.33-1.78A14.36,14.36,0,0,0,182.1,88l5.14,0V81.77l-5.51,0A10.78,10.78,0,0,0,176.24,75.23Z"/>
              </g>
            </g>
            <g>
              <path class="cls-29" d="M176.24,75.23,180,72.9l-8.83-4.39-3.55,2.18c-5.52-2.25-13.14-2.45-13.15-2.45l-.11-3.33H143l.12,3.33a49.1,49.1,0,0,0-12.82,3.38l-4.56-2.44L117.45,74l4.81,2.41c-2.7,2.18-4.55,2.15-5,3.87l-4.46,3v6.27H118a12.84,12.84,0,0,0,5.11,6.4l-3.34,2.49,8.82,4.39,3.51-2.2a41.14,41.14,0,0,0,13.15,2.61l.12,2.86h11.36l-.11-3.15a49.25,49.25,0,0,0,12.8-3.24l3.83,2,8.28-4.81-4.33-1.78A14.36,14.36,0,0,0,182.1,88l5.14,0V81.77l-4.61-3.53C181.54,74.48,177.62,75.8,176.24,75.23ZM161.66,90.65c-.24.1-.48.21-.72.3-6.21,2.44-15.58,2.44-21.8,0-.25-.1-.51-.2-.76-.32-6.42-2.84-6.42-7.44,0-10.28s16.86-2.84,23.28,0S168.08,87.81,161.66,90.65Z"/>
              <polygon class="cls-29" points="117.45 64.72 117.45 71.63 119.1 72.91 125.41 68.81 124.13 65.05 117.45 64.72 117.45 64.72"/>
              <polygon class="cls-29" points="179.98 63.63 179.98 70.53 178.33 71.81 172.02 67.72 173.3 63.95 179.98 63.63 179.98 63.63"/>
              <path class="cls-30" d="M176.24,66,180,63.62l-8.83-4.38-3.55,2.18C162.11,59.17,154.49,59,154.48,59l-.11-3.33H143l.12,3.33a48.71,48.71,0,0,0-12.82,3.38l-4.56-2.44-8.29,4.81,4.81,2.42A14.14,14.14,0,0,0,117.61,74l-4.81,0v6.26H118a12.84,12.84,0,0,0,5.11,6.4l-3.34,2.49,8.82,4.39,3.51-2.19A41.18,41.18,0,0,0,145.2,94l.12,2.87h11.36l-.11-3.15a49.65,49.65,0,0,0,12.8-3.24l3.83,2,8.28-4.81-4.33-1.78a14.45,14.45,0,0,0,4.95-7.18l5.14,0V72.5h-5.51A10.79,10.79,0,0,0,176.24,66ZM161.66,81.37a7.33,7.33,0,0,1-.72.3c-6.21,2.44-15.58,2.44-21.8,0-.25-.1-.51-.2-.76-.32-6.42-2.83-6.42-7.44,0-10.27s16.86-2.85,23.28,0S168.08,78.54,161.66,81.37Z"/>
              <polygon class="cls-31" points="145.32 96.84 145.32 106.11 156.68 106.11 156.68 96.84 145.32 96.84 145.32 96.84"/>
              <polygon class="cls-32" points="187.24 78.67 187.24 87.95 182.1 87.95 182.1 78.7 187.24 78.67 187.24 78.67"/>
              <path class="cls-33" d="M173.2,92.47v9.27s8.71-4.63,8.28-4.81,0-9.27,0-9.27l-8.28,4.81Z"/>
              <polygon class="cls-34" points="128.54 93.56 128.54 102.84 119.72 98.44 119.72 89.17 128.54 93.56 128.54 93.56"/>
              <path class="cls-35" d="M112.8,80.28s-.15,9.28,0,9.28H118V80.28Z"/>
            </g>
            <g class="cls-15">
              <g>
                <g class="cls-16">
                  <path class="cls-17" d="M97.72,125.85a10.58,10.58,0,0,1-1,.4c-8.45,3.33-21.22,3.33-29.68,0-.36-.13-.7-.28-1-.43-8.75-3.87-8.75-10.14,0-14s23-3.87,31.71,0S106.49,122,97.72,125.85Zm19.87-21,5.15-3.18-12-6-4.85,3C98.34,95.59,88,95.31,88,95.31l-.16-4.54H72.31l.15,4.54A67,67,0,0,0,55,99.92L48.78,96.6l-11.29,6.56,6.56,3.29a19.23,19.23,0,0,0-6.34,9.32l-6.55,0v8.54h7a17.6,17.6,0,0,0,7,8.72l-4.55,3.39,12,6,4.78-3A55.89,55.89,0,0,0,75.3,143l.17,3.91H90.94l-.14-4.3a67.31,67.31,0,0,0,17.43-4.41l5.23,2.75,11.28-6.55L118.83,132c3.61-3,5.86-6.38,6.75-9.79l7,0v-8.42l-7.51,0A14.65,14.65,0,0,0,117.59,104.84Z"/>
                </g>
                <path class="cls-18" d="M97.7,125.64l-1,.4c-8.53,3.1-21.15,3.22-29.64,0l-1-.43c-8.74-3.86-8.74-10.13,0-14s22.94-3.87,31.67,0S106.45,121.78,97.7,125.64Zm19.84-21,5.14-3.18-12-6-4.84,3C98.32,95.42,88,95.14,87.94,95.14l-.16-4.53H72.32l.15,4.53A66.36,66.36,0,0,0,55,99.75l-6.22-3.33L37.56,103l6.54,3.29a19.23,19.23,0,0,0-6.33,9.3l-6.54.05v8.53h7a17.45,17.45,0,0,0,7,8.7l-4.55,3.4,12,6,4.77-3a56.3,56.3,0,0,0,17.9,3.55l.17,3.9H90.93l-.14-4.29A67.26,67.26,0,0,0,108.2,138l5.22,2.75,11.26-6.54-5.9-2.43c3.6-3,5.85-6.37,6.74-9.77l7,0v-8.41l-7.5,0A14.62,14.62,0,0,0,117.54,104.66Z"/>
                <path class="cls-19" d="M97.68,125.42c-.32.14-.65.28-1,.4-8.52,3.1-21.12,3.22-29.6,0-.36-.13-.7-.27-1-.43-8.72-3.85-8.72-10.11,0-14s22.91-3.87,31.63,0S106.41,121.55,97.68,125.42Zm19.82-20.94,5.12-3.18-12-6-4.83,3C98.29,95.25,87.94,95,87.93,95l-.16-4.53H72.33L72.49,95a66.38,66.38,0,0,0-17.42,4.6l-6.2-3.32L37.62,102.8l6.53,3.28a19.25,19.25,0,0,0-6.32,9.29l-6.54,0v8.52h7a17.41,17.41,0,0,0,6.94,8.69L40.69,136l12,6,4.76-3a56,56,0,0,0,17.88,3.54l.17,3.89H90.92l-.14-4.28a67.43,67.43,0,0,0,17.38-4.4l5.21,2.75L124.62,134l-5.89-2.42c3.6-3,5.84-6.37,6.73-9.76l7,0v-8.39l-7.49,0A14.58,14.58,0,0,0,117.5,104.48Z"/>
                <path class="cls-20" d="M97.66,125.21c-.32.14-.65.28-1,.4-8.5,3.1-21.09,3.22-29.56,0-.36-.13-.7-.28-1.05-.43-8.71-3.85-8.71-10.1,0-13.95s22.88-3.86,31.59,0S106.37,121.33,97.66,125.21Zm19.79-20.92,5.12-3.17-12-6-4.83,3c-7.49-3-17.83-3.33-17.84-3.33l-.15-4.52H72.35l.15,4.52a66.54,66.54,0,0,0-17.39,4.59l-6.2-3.31-11.23,6.54,6.52,3.27a19.19,19.19,0,0,0-6.31,9.28l-6.53,0v8.51h7a17.4,17.4,0,0,0,6.93,8.68l-4.53,3.38,12,6,4.76-3a55.82,55.82,0,0,0,17.85,3.53l.17,3.89H90.9l-.14-4.28a66.77,66.77,0,0,0,17.36-4.39l5.21,2.74,11.23-6.52-5.88-2.42c3.59-3,5.83-6.36,6.72-9.75l7,0v-8.38l-7.48,0A14.58,14.58,0,0,0,117.45,104.29Z"/>
                <path class="cls-21" d="M97.64,125l-1,.4c-8.49,3.09-21.07,3.21-29.52,0l-1-.43c-8.69-3.85-8.69-10.09,0-13.93s22.85-3.86,31.55,0S106.34,121.12,97.64,125Zm19.76-20.89,5.11-3.17-12-5.94-4.82,3c-7.48-3.06-17.81-3.33-17.82-3.33l-.15-4.52H72.36l.15,4.52a66.31,66.31,0,0,0-17.36,4.58L49,95.91l-11.22,6.53,6.52,3.27A19.16,19.16,0,0,0,38,115l-6.52,0v8.5h7a17.42,17.42,0,0,0,6.92,8.67l-4.52,3.37,12,5.95,4.74-3a56.29,56.29,0,0,0,17.83,3.53l.17,3.88H90.89l-.14-4.27a67.12,67.12,0,0,0,17.34-4.39l5.2,2.74,11.21-6.52-5.87-2.41a19.47,19.47,0,0,0,6.71-9.74l7,0V113l-7.47,0A14.54,14.54,0,0,0,117.4,104.11Z"/>
                <path class="cls-22" d="M97.61,124.78c-.31.14-.64.28-1,.4-8.48,3.09-21,3.21-29.48,0-.36-.13-.7-.27-1-.43-8.68-3.85-8.69-10.07,0-13.91s22.81-3.85,31.49,0S106.3,120.91,97.61,124.78Zm19.74-20.86,5.1-3.16-11.94-5.94-4.81,3c-7.48-3-17.78-3.32-17.8-3.32L87.75,90H72.37l.16,4.51A66.24,66.24,0,0,0,55.18,99L49,95.73,37.8,102.25l6.51,3.27a19.15,19.15,0,0,0-6.3,9.26l-6.51,0v8.49h7A17.41,17.41,0,0,0,45.38,132l-4.52,3.37,12,5.94,4.74-3a55.51,55.51,0,0,0,17.8,3.53l.17,3.88H90.88l-.14-4.27a66.89,66.89,0,0,0,17.31-4.38l5.19,2.73,11.2-6.5-5.86-2.41c3.58-3,5.81-6.34,6.7-9.73l7,0v-8.36l-7.46,0A14.54,14.54,0,0,0,117.35,103.92Z"/>
                <path class="cls-23" d="M97.59,124.57c-.31.14-.64.28-1,.4-8.47,3.09-21,3.2-29.44,0-.36-.13-.7-.28-1-.43-8.67-3.85-8.68-10.06,0-13.89s22.78-3.85,31.45,0S106.26,120.7,97.59,124.57Zm19.71-20.83,5.1-3.16-11.93-5.93-4.81,3c-7.46-3-17.75-3.32-17.77-3.32l-.15-4.51H72.39l.15,4.51a66,66,0,0,0-17.32,4.57l-6.17-3.3-11.19,6.51,6.5,3.26a19.1,19.1,0,0,0-6.29,9.25l-6.5,0v8.46h7a17.35,17.35,0,0,0,6.91,8.65l-4.52,3.37L52.85,141l4.73-3a55.48,55.48,0,0,0,17.78,3.52l.17,3.87H90.87l-.14-4.25A67.35,67.35,0,0,0,108,136.83l5.18,2.73,11.18-6.5-5.85-2.4a19.5,19.5,0,0,0,6.69-9.71l6.95,0v-8.35l-7.45,0A14.51,14.51,0,0,0,117.3,103.74Z"/>
                <path class="cls-24" d="M97.57,124.36c-.31.14-.64.27-1,.39-8.46,3.09-21,3.21-29.4,0-.35-.13-.69-.27-1-.42-8.65-3.85-8.66-10,0-13.87s22.75-3.84,31.41,0S106.23,120.49,97.57,124.36Zm19.68-20.81,5.09-3.15-11.91-5.92-4.8,3c-7.45-3-17.73-3.31-17.75-3.31l-.15-4.5H72.4l.15,4.5a66.17,66.17,0,0,0-17.29,4.56L49.1,95.39l-11.18,6.5,6.49,3.26a19,19,0,0,0-6.27,9.23l-6.5.05v8.45h7a17.36,17.36,0,0,0,6.9,8.64L41,134.88l11.91,5.92,4.72-3a56,56,0,0,0,17.76,3.52l.16,3.86H90.85L90.72,141A66.71,66.71,0,0,0,108,136.6l5.18,2.73,11.16-6.49-5.84-2.41c3.57-3,5.8-6.32,6.68-9.69l6.94,0v-8.34l-7.44,0A14.5,14.5,0,0,0,117.25,103.55Z"/>
                <path class="cls-25" d="M97.55,124.14c-.31.14-.64.28-1,.4-8.44,3.08-21,3.2-29.36,0-.35-.13-.69-.27-1-.43-8.64-3.84-8.65-10,0-13.85s22.72-3.83,31.37,0S106.19,120.27,97.55,124.14Zm19.65-20.77,5.08-3.15-11.89-5.91-4.79,2.94c-7.44-3-17.71-3.3-17.72-3.3l-.16-4.5H72.41l.15,4.5A65.94,65.94,0,0,0,55.3,98.5l-6.16-3.29L38,101.71,44.47,105a19,19,0,0,0-6.27,9.22l-6.49,0v8.44h6.94a17.3,17.3,0,0,0,6.89,8.62L41,134.65l11.9,5.92,4.72-3a55.43,55.43,0,0,0,17.73,3.51l.16,3.86h15.3l-.14-4.25a66.86,66.86,0,0,0,17.24-4.36l5.17,2.72,11.15-6.48-5.83-2.4a19.3,19.3,0,0,0,6.67-9.68l6.93,0v-8.32l-7.43,0A14.47,14.47,0,0,0,117.2,103.37Z"/>
                <path class="cls-26" d="M97.53,123.93c-.32.14-.64.28-1,.4-8.43,3.08-20.92,3.19-29.32,0-.35-.13-.69-.27-1-.43-8.62-3.84-8.64-10,0-13.83s22.69-3.83,31.33,0S106.16,120.06,97.53,123.93Zm19.62-20.74,5.08-3.15-11.88-5.9-4.79,2.94c-7.43-3-17.68-3.3-17.69-3.3l-.15-4.49H72.43l.15,4.49a65.58,65.58,0,0,0-17.25,4.55L49.19,95,38,101.53l6.48,3.24A19,19,0,0,0,38.26,114l-6.48,0v8.43h6.93a17.31,17.31,0,0,0,6.88,8.61l-4.5,3.35L53,140.33l4.71-3a55.4,55.4,0,0,0,17.71,3.5l.16,3.86H90.83l-.14-4.24a66.71,66.71,0,0,0,17.22-4.36l5.16,2.72,11.13-6.47-5.83-2.4c3.57-3,5.79-6.3,6.67-9.67l6.93,0V112l-7.42,0A14.45,14.45,0,0,0,117.15,103.19Z"/>
                <path class="cls-27" d="M97.5,123.72c-.31.14-.64.27-1,.39-8.42,3.08-20.9,3.2-29.28,0-.35-.13-.69-.27-1-.42-8.62-3.84-8.63-10,0-13.81s22.65-3.83,31.27,0S106.12,119.85,97.5,123.72ZM117.1,103l5.07-3.14L110.31,94l-4.78,2.93c-7.42-3-17.66-3.29-17.67-3.29l-.15-4.49H72.44l.15,4.49a65.74,65.74,0,0,0-17.22,4.54l-6.14-3.28L38.1,101.34l6.47,3.25a18.93,18.93,0,0,0-6.25,9.19l-6.47,0v8.42h6.92a17.25,17.25,0,0,0,6.87,8.6l-4.49,3.35L53,140.09l4.7-3a55.55,55.55,0,0,0,17.69,3.51l.16,3.85H90.82l-.14-4.24a66.47,66.47,0,0,0,17.19-4.35l5.16,2.72,11.12-6.47-5.83-2.39c3.56-3,5.78-6.3,6.66-9.66l6.92,0v-8.3l-7.41,0A14.44,14.44,0,0,0,117.1,103Z"/>
                <path class="cls-28" d="M97.48,123.51a9.34,9.34,0,0,1-1,.39c-8.32,3.28-20.89,3.28-29.23,0-.35-.13-.69-.27-1-.42-8.62-3.81-8.62-10,0-13.8s22.62-3.82,31.23,0S106.11,119.7,97.48,123.51Zm19.57-20.69,5.06-3.14L110.27,93.8l-4.77,2.93c-7.41-3-17.64-3.29-17.65-3.29L87.7,89H72.45l.15,4.48A65.51,65.51,0,0,0,55.41,98L49.28,94.7l-11.12,6.46,6.46,3.24a18.94,18.94,0,0,0-6.24,9.18l-6.46,0V122h6.91a17.26,17.26,0,0,0,6.86,8.59L41.2,134l11.85,5.89,4.7-3a55.1,55.1,0,0,0,17.66,3.5l.16,3.84H90.8L90.67,140a66.83,66.83,0,0,0,17.17-4.35l5.14,2.71,11.11-6.45-5.82-2.39c3.56-3,5.77-6.29,6.65-9.64l6.91,0v-8.29l-7.4,0A14.42,14.42,0,0,0,117.05,102.82Z"/>
              </g>
            </g>
            <g>
              <path class="cls-36" d="M117.05,102.82l5.06-3.14L110.27,93.8l-4.77,2.93c-7.41-3-17.64-3.29-17.65-3.29L87.7,89H72.45l.15,4.48A65.51,65.51,0,0,0,55.41,98L49.28,94.7l-11.12,6.46,6.46,3.24c-3.63,2.92-6.11,2.88-6.71,5.19l-6,4V122h6.91a17.26,17.26,0,0,0,6.86,8.59L41.2,134l11.85,5.89,4.7-3a55.1,55.1,0,0,0,17.66,3.5l.16,3.84H90.8L90.67,140a66.83,66.83,0,0,0,17.17-4.35l5.14,2.71,11.11-6.45-5.82-2.39c3.56-3,5.77-6.29,6.65-9.64l6.91,0v-8.29l-6.2-4.74C124.17,101.81,118.91,103.58,117.05,102.82ZM97.48,123.51a9.34,9.34,0,0,1-1,.39c-8.32,3.28-20.89,3.28-29.23,0-.35-.13-.69-.27-1-.42-8.62-3.81-8.62-10,0-13.8s22.62-3.82,31.23,0S106.11,119.7,97.48,123.51Z"/>
              <polygon class="cls-36" points="38.16 88.72 38.16 97.98 40.38 99.69 48.84 94.2 47.13 89.15 38.16 88.72 38.16 88.72"/>
              <polygon class="cls-36" points="122.07 87.24 122.07 96.51 119.86 98.22 111.4 92.73 113.12 87.68 122.07 87.24 122.07 87.24"/>
              <path class="cls-37" d="M117.05,90.37l5.06-3.13-11.84-5.89-4.77,2.93C98.09,81.26,87.86,81,87.85,81l-.15-4.47H72.45L72.6,81a65.52,65.52,0,0,0-17.19,4.54l-6.13-3.28L38.16,88.71,44.62,92a18.93,18.93,0,0,0-6.24,9.17l-6.46.05v8.41h6.91a17.22,17.22,0,0,0,6.86,8.59l-4.49,3.34,11.85,5.89,4.7-2.94A55.14,55.14,0,0,0,75.41,128l.16,3.85H90.8l-.13-4.23a66.42,66.42,0,0,0,17.17-4.35l5.14,2.71,11.11-6.45-5.82-2.39a19.27,19.27,0,0,0,6.65-9.64l6.91,0V99.14l-7.4,0A14.44,14.44,0,0,0,117.05,90.37ZM97.48,111.06c-.31.14-.63.28-1,.4-8.32,3.27-20.89,3.27-29.23,0-.35-.13-.69-.27-1-.42-8.62-3.81-8.62-10,0-13.8s22.62-3.82,31.23,0S106.11,107.25,97.48,111.06Z"/>
              <polygon class="cls-38" points="75.57 131.81 75.57 144.25 90.81 144.25 90.81 131.81 75.57 131.81 75.57 131.81"/>
              <polygon class="cls-38" points="131.83 107.43 131.83 119.88 124.92 119.88 124.92 107.46 131.83 107.43 131.83 107.43"/>
              <path class="cls-38" d="M113,125.94v12.45s11.69-6.22,11.11-6.45,0-12.45,0-12.45L113,125.94Z"/>
              <polygon class="cls-38" points="53.05 127.41 53.05 139.86 41.2 133.97 41.2 121.52 53.05 127.41 53.05 127.41"/>
              <path class="cls-38" d="M31.92,109.59s-.2,12.45,0,12.45h6.91V109.59Z"/>
            </g>
          </g>
          <g class="cls-39">
            <path class="cls-40" d="M17.41,0H186.83V260.24h-.22c1.31,13.43-6.81,27.11-24.59,37.37-33.08,19.1-86.72,19.1-119.8,0-17.78-10.26-25.9-23.94-24.59-37.37h-.22Z"/>
          </g>
        </g>
      </g>
    </g>
  </g>
</svg>
