<svg xmlns="http://www.w3.org/2000/svg" xmlns:xlink="http://www.w3.org/1999/xlink" viewBox="0 0 397.37 438.03">
  <defs>
    <style>
      .cls-1 {
        mask: url(#mask);
        filter: url(#luminosity-noclip-3);
      }

      .cls-2, .cls-4, .cls-7, .cls-8 {
        mix-blend-mode: multiply;
      }

      .cls-2 {
        fill: url(#Áåçûìÿííûé_ãðàäèåíò_22);
      }

      .cls-3 {
        mask: url(#mask-2);
        filter: url(#luminosity-noclip-4);
      }

      .cls-4 {
        fill: url(#Áåçûìÿííûé_ãðàäèåíò_21);
      }

      .cls-5 {
        isolation: isolate;
      }

      .cls-6 {
        mask: url(#mask-3);
      }

      .cls-7 {
        fill: url(#Áåçûìÿííûé_ãðàäèåíò_18);
      }

      .cls-9 {
        fill: #fff;
      }

      .cls-10 {
        fill: #f9f9fa;
      }

      .cls-11 {
        fill: #f4f4f5;
      }

      .cls-12 {
        fill: #eeeef0;
      }

      .cls-13 {
        fill: #e8e9eb;
      }

      .cls-14 {
        fill: #e3e3e6;
      }

      .cls-15 {
        fill: #dddee0;
      }

      .cls-16 {
        fill: #d8d8db;
      }

      .cls-17 {
        fill: #d2d3d6;
      }

      .cls-18 {
        fill: #cccdd1;
      }

      .cls-19 {
        fill: #c7c8cc;
      }

      .cls-20 {
        fill: #c1c2c7;
      }

      .cls-21 {
        fill: #cbd3fa;
      }

      .cls-22 {
        fill: #f3f1f6;
      }

      .cls-23 {
        fill: #d5dbeb;
      }

      .cls-24 {
        fill: #bac1e8;
      }

      .cls-25 {
        fill: #ff5a74;
      }

      .cls-26 {
        fill: url(#Áåçûìÿííûé_ãðàäèåíò_37);
      }

      .cls-27 {
        fill: url(#Áåçûìÿííûé_ãðàäèåíò_37-2);
      }

      .cls-28 {
        fill: url(#Áåçûìÿííûé_ãðàäèåíò_37-3);
      }

      .cls-29 {
        fill: url(#Áåçûìÿííûé_ãðàäèåíò_37-4);
      }

      .cls-30 {
        fill: url(#Áåçûìÿííûé_ãðàäèåíò_37-5);
      }

      .cls-31 {
        fill: url(#Áåçûìÿííûé_ãðàäèåíò_37-6);
      }

      .cls-32 {
        opacity: 0;
      }

      .cls-33 {
        fill: #fafafb;
      }

      .cls-34 {
        fill: #f5f6f6;
      }

      .cls-35 {
        fill: #f1f1f2;
      }

      .cls-36 {
        fill: #ececee;
      }

      .cls-37 {
        fill: #e7e8ea;
      }

      .cls-38 {
        fill: #e2e3e5;
      }

      .cls-39 {
        fill: #dddfe1;
      }

      .cls-40 {
        fill: #d8dadd;
      }

      .cls-41 {
        fill: #d4d5d9;
      }

      .cls-42 {
        fill: #cfd1d4;
      }

      .cls-43 {
        fill: #caccd0;
      }

      .cls-44 {
        fill: #c24458;
      }

      .cls-45 {
        fill: url(#Áåçûìÿííûé_ãðàäèåíò_37-7);
      }

      .cls-46 {
        fill: url(#Áåçûìÿííûé_ãðàäèåíò_37-8);
      }

      .cls-47 {
        fill: url(#Áåçûìÿííûé_ãðàäèåíò_37-9);
      }

      .cls-48 {
        fill: url(#Áåçûìÿííûé_ãðàäèåíò_37-10);
      }

      .cls-49 {
        fill: url(#Áåçûìÿííûé_ãðàäèåíò_37-11);
      }

      .cls-50 {
        fill: url(#Áåçûìÿííûé_ãðàäèåíò_37-12);
      }

      .cls-51 {
        fill: #3531a1;
      }

      .cls-52 {
        fill: url(#Áåçûìÿííûé_ãðàäèåíò_15);
      }

      .cls-53 {
        fill: #5752d0;
      }

      .cls-54 {
        mask: url(#mask-4);
      }

      .cls-55 {
        fill: url(#Áåçûìÿííûé_ãðàäèåíò_47);
      }

      .cls-56 {
        filter: url(#luminosity-noclip-2);
      }

      .cls-57 {
        filter: url(#luminosity-noclip);
      }
    </style>
    <filter id="luminosity-noclip" x="69.45" y="-8859.38" width="327.93" height="32766" filterUnits="userSpaceOnUse" color-interpolation-filters="sRGB">
      <feFlood flood-color="#fff" result="bg"/>
      <feBlend in="SourceGraphic" in2="bg"/>
    </filter>
    <mask id="mask" x="69.45" y="-8859.38" width="327.93" height="32766" maskUnits="userSpaceOnUse">
      <g class="cls-57"/>
    </mask>
    <linearGradient id="Áåçûìÿííûé_ãðàäèåíò_22" data-name="Áåçûìÿííûé ãðàäèåíò 22" x1="173.19" y1="291.43" x2="262.89" y2="372.32" gradientUnits="userSpaceOnUse">
      <stop offset="0" stop-color="#ccc"/>
      <stop offset="1"/>
    </linearGradient>
    <filter id="luminosity-noclip-2" x="45.08" y="-8859.38" width="169.42" height="32766" filterUnits="userSpaceOnUse" color-interpolation-filters="sRGB">
      <feFlood flood-color="#fff" result="bg"/>
      <feBlend in="SourceGraphic" in2="bg"/>
    </filter>
    <mask id="mask-2" x="45.08" y="-8859.38" width="169.42" height="32766" maskUnits="userSpaceOnUse">
      <g class="cls-56"/>
    </mask>
    <linearGradient id="Áåçûìÿííûé_ãðàäèåíò_21" data-name="Áåçûìÿííûé ãðàäèåíò 21" x1="-476.27" y1="2.31" x2="-476.27" y2="530.15" gradientTransform="matrix(-1, 0, 0, 1, -346.47, 0)" gradientUnits="userSpaceOnUse">
      <stop offset="0"/>
      <stop offset="1" stop-color="#999"/>
    </linearGradient>
    <filter id="luminosity-noclip-3" x="69.45" y="254.72" width="327.93" height="183.31" filterUnits="userSpaceOnUse" color-interpolation-filters="sRGB">
      <feFlood flood-color="#fff" result="bg"/>
      <feBlend in="SourceGraphic" in2="bg"/>
    </filter>
    <mask id="mask-3" x="69.45" y="254.72" width="327.93" height="183.31" maskUnits="userSpaceOnUse">
      <g class="cls-1">
        <polygon class="cls-2" points="397.37 359.59 256.37 438.03 69.44 331.88 202.6 254.72 397.37 359.59"/>
      </g>
    </mask>
    <linearGradient id="Áåçûìÿííûé_ãðàäèåíò_18" data-name="Áåçûìÿííûé ãðàäèåíò 18" x1="173.19" y1="291.43" x2="262.89" y2="372.32" gradientUnits="userSpaceOnUse">
      <stop offset="0" stop-color="#e0e2e7"/>
      <stop offset="1" stop-color="#e0e2e7"/>
    </linearGradient>
    <linearGradient id="Áåçûìÿííûé_ãðàäèåíò_37" data-name="Áåçûìÿííûé ãðàäèåíò 37" x1="-554.87" y1="167.91" x2="-396.81" y2="167.91" gradientTransform="matrix(-1, 0, 0, 1, -346.47, 0)" gradientUnits="userSpaceOnUse">
      <stop offset="0" stop-color="#ff6279"/>
      <stop offset="1" stop-color="#ffad60"/>
    </linearGradient>
    <linearGradient id="Áåçûìÿííûé_ãðàäèåíò_37-2" x1="-485.82" y1="220.26" x2="-461.71" y2="220.26" xlink:href="#Áåçûìÿííûé_ãðàäèåíò_37"/>
    <linearGradient id="Áåçûìÿííûé_ãðàäèåíò_37-3" x1="-407.74" y1="182.59" x2="-396.81" y2="182.59" xlink:href="#Áåçûìÿííûé_ãðàäèåíò_37"/>
    <linearGradient id="Áåçûìÿííûé_ãðàäèåíò_37-4" x1="-426.63" y1="206.21" x2="-409.03" y2="206.21" xlink:href="#Áåçûìÿííûé_ãðàäèåíò_37"/>
    <linearGradient id="Áåçûìÿííûé_ãðàäèåíò_37-5" x1="-540.19" y1="208.92" x2="-521.45" y2="208.92" xlink:href="#Áåçûìÿííûé_ãðàäèåíò_37"/>
    <linearGradient id="Áåçûìÿííûé_ãðàäèåíò_37-6" x1="-555.01" y1="185.93" x2="-543.94" y2="185.93" xlink:href="#Áåçûìÿííûé_ãðàäèåíò_37"/>
    <linearGradient id="Áåçûìÿííûé_ãðàäèåíò_37-7" x1="-2225.38" y1="76.24" x2="-2150.94" y2="76.24" gradientTransform="translate(2365.86)" xlink:href="#Áåçûìÿííûé_ãðàäèåíò_37"/>
    <linearGradient id="Áåçûìÿííûé_ãðàäèåíò_37-8" x1="-2192.86" y1="101.47" x2="-2181.51" y2="101.47" gradientTransform="translate(2365.86)" xlink:href="#Áåçûìÿííûé_ãðàäèåíò_37"/>
    <linearGradient id="Áåçûìÿííûé_ãðàäèåíò_37-9" x1="-2156.09" y1="83.31" x2="-2150.94" y2="83.31" gradientTransform="translate(2365.86)" xlink:href="#Áåçûìÿííûé_ãðàäèåíò_37"/>
    <linearGradient id="Áåçûìÿííûé_ãðàäèåíò_37-10" x1="-2164.98" y1="94.7" x2="-2156.69" y2="94.7" gradientTransform="translate(2365.86)" xlink:href="#Áåçûìÿííûé_ãðàäèåíò_37"/>
    <linearGradient id="Áåçûìÿííûé_ãðàäèåíò_37-11" x1="-2218.46" y1="96" x2="-2209.64" y2="96" gradientTransform="translate(2365.86)" xlink:href="#Áåçûìÿííûé_ãðàäèåíò_37"/>
    <linearGradient id="Áåçûìÿííûé_ãðàäèåíò_37-12" x1="-2225.45" y1="84.92" x2="-2220.24" y2="84.92" gradientTransform="translate(2365.86)" xlink:href="#Áåçûìÿííûé_ãðàäèåíò_37"/>
    <linearGradient id="Áåçûìÿííûé_ãðàäèåíò_15" data-name="Áåçûìÿííûé ãðàäèåíò 15" x1="-2306.26" y1="104.16" x2="-2206.36" y2="104.16" gradientTransform="translate(2365.86)" gradientUnits="userSpaceOnUse">
      <stop offset="0" stop-color="#5752d0"/>
      <stop offset="1" stop-color="#7f7cf9"/>
    </linearGradient>
    <filter id="luminosity-noclip-4" x="45.08" y="0" width="169.42" height="311.94" filterUnits="userSpaceOnUse" color-interpolation-filters="sRGB">
      <feFlood flood-color="#fff" result="bg"/>
      <feBlend in="SourceGraphic" in2="bg"/>
    </filter>
    <mask id="mask-4" x="45.08" y="0" width="169.42" height="311.94" maskUnits="userSpaceOnUse">
      <g class="cls-3">
        <path class="cls-4" d="M45.08,0H214.5V260.24h-.22c1.32,13.43-6.81,27.11-24.58,37.37-33.09,19.1-86.72,19.1-119.8,0C52.12,287.35,44,273.67,45.31,260.24h-.23Z"/>
      </g>
    </mask>
    <linearGradient id="Áåçûìÿííûé_ãðàäèåíò_47" data-name="Áåçûìÿííûé ãðàäèåíò 47" x1="-476.27" y1="2.31" x2="-476.27" y2="530.15" gradientTransform="matrix(-1, 0, 0, 1, -346.47, 0)" gradientUnits="userSpaceOnUse">
      <stop offset="0" stop-color="#7f7cf9"/>
      <stop offset="1" stop-color="#5752d0"/>
    </linearGradient>
  </defs>
  <g class="cls-5">
    <g id="Layer_2" data-name="Layer 2">
      <g id="Layer_1-2" data-name="Layer 1">
        <g>
          <g class="cls-6">
            <polygon class="cls-7" points="397.37 359.59 256.37 438.03 69.44 331.88 202.6 254.72 397.37 359.59"/>
          </g>
          <g class="cls-8">
            <path class="cls-9" d="M38.68,232.35c50.87-26.83,132.54-25.5,182.4,3s49.08,73.27-1.79,100.09-132.53,25.5-182.41-2.95S-12.18,259.17,38.68,232.35Z"/>
            <path class="cls-10" d="M40.54,233.41c49.82-26.27,129.81-25,178.65,2.89s48.06,71.76-1.76,98-129.8,25-178.65-2.89S-9.28,259.68,40.54,233.41Z"/>
            <path class="cls-11" d="M42.4,234.47C91.18,208.75,169.48,210,217.29,237.3s47,70.25-1.72,96S88.5,357.71,40.67,330.43-6.37,260.19,42.4,234.47Z"/>
            <path class="cls-12" d="M44.26,235.53C92,210.36,168.61,211.61,215.39,238.3s46,68.74-1.68,93.9S89.37,356.13,42.57,329.43-3.46,260.69,44.26,235.53Z"/>
            <path class="cls-13" d="M46.12,236.59C92.8,212,167.74,213.19,213.5,239.3s45,67.23-1.65,91.84-121.62,23.4-167.38-2.71S-.55,261.2,46.12,236.59Z"/>
            <path class="cls-14" d="M48,237.65c45.63-24.06,118.89-22.87,163.62,2.65s44,65.72-1.61,89.78S91.1,353,46.37,327.43,2.35,261.71,48,237.65Z"/>
            <path class="cls-15" d="M49.84,238.71C94.42,215.2,166,216.36,209.7,241.3s43,64.21-1.57,87.72S92,351.37,48.26,326.43,5.26,262.22,49.84,238.71Z"/>
            <path class="cls-16" d="M51.7,239.77c43.53-23,113.43-21.82,156.11,2.53s42,62.7-1.54,85.66S92.84,349.78,50.16,325.43,8.17,262.73,51.7,239.77Z"/>
            <path class="cls-17" d="M53.56,240.84c42.49-22.41,110.7-21.3,152.35,2.46s41,61.2-1.5,83.6-110.7,21.3-152.35-2.47S11.08,263.24,53.56,240.84Z"/>
            <path class="cls-18" d="M55.42,241.9c41.44-21.86,108-20.78,148.59,2.4s40,59.69-1.46,81.54-108,20.77-148.6-2.41S14,263.75,55.42,241.9Z"/>
            <path class="cls-19" d="M57.28,243c40.39-21.3,105.24-20.25,144.83,2.34s39,58.18-1.42,79.48S95.45,345,55.85,322.43,16.89,264.26,57.28,243Z"/>
            <path class="cls-20" d="M59.14,244c39.34-20.75,102.51-19.72,141.08,2.28s37.95,56.67-1.39,77.42S96.32,343.44,57.75,321.43,19.8,264.76,59.14,244Z"/>
          </g>
          <g>
            <path class="cls-21" d="M200.51,218.88c-39.5-22.8-103.55-22.8-143,0C38.19,230,28.33,244.52,27.87,259.1q-.39,12.43,0,24.89c.46,14.59,10.32,29.09,29.6,40.22C97,347,161,347,200.51,324.21c19.28-11.13,29.14-25.63,29.59-40.22q.38-12.44,0-24.89C229.65,244.52,219.79,230,200.51,218.88Z"/>
            <path class="cls-22" d="M200.51,218.88c39.49,22.81,39.49,59.78,0,82.59s-103.55,22.8-143,0-39.51-59.78,0-82.59S161,196.08,200.51,218.88Z"/>
            <g>
              <path class="cls-23" d="M63.35,224c36.52-19.84,95.71-19.84,132.21,0s36.51,52,0,71.86-95.69,19.84-132.21,0S26.84,243.87,63.35,224Z"/>
              <path class="cls-24" d="M69.87,232.59c32.92-17.89,86.26-17.89,119.17,0s32.91,46.88,0,64.76-86.25,17.89-119.17,0S37,250.47,69.87,232.59Z"/>
            </g>
          </g>
          <g>
            <polygon class="cls-25" points="198.52 144.04 198.52 158.36 195.01 161.01 181.62 152.52 184.34 144.72 198.52 144.04 198.52 144.04"/>
            <polygon class="cls-25" points="65.76 141.76 65.76 156.09 69.27 158.74 82.67 150.25 79.95 142.44 65.76 141.76 65.76 141.76"/>
            <path class="cls-25" d="M60.15,172.06l-9.81,7.33v12.82l10.93,0c1.39,5.19,4.89,10.29,10.51,14.9l-9.2,3.7,17.57,10,8.15-4.19a106.59,106.59,0,0,0,27.16,6.71l-.22,6.54h24.1l.26-5.94c10.61,0,23.81-3.62,27.94-5.4l7.44,4.55,18.73-9.1-7.1-5.17c6.18-4.31,8.83-8.15,10.86-13.27h10.92v-13l-9.47-6.24c-1-3.58-4.87-3.51-10.61-8l10.21-5-17.59-10-9.69,5.07a106,106,0,0,0-27.21-7l.24-6.91H120.15l-.24,6.91s-16.2.42-27.91,5.09l-7.56-4.53L65.7,161l8,4.84C70.77,167,62.46,164.28,60.15,172.06Zm44.52,4.43c13.63-5.9,35.77-5.9,49.42,0s13.63,15.44,0,21.32c-.54.24-1.08.46-1.63.66-13.19,5-33.09,5-46.26,0-.52-.18-1-.4-1.53-.62C91,191.93,91,182.37,104.67,176.49Z"/>
            <path class="cls-26" d="M62.05,160.19l-11.71,0V173l10.93,0c1.39,5.19,4.89,10.29,10.51,14.91l-9.2,3.69,17.57,10,8.15-4.19a107,107,0,0,0,27.16,6.72l-.22,6.53h24.1l.26-5.94c10.61,0,23.81-3.62,27.94-5.4l7.44,4.55,18.73-9.1-7.1-5.17c6.18-4.31,8.83-8.15,10.86-13.27h10.92v-13l-10.22-.08A29.26,29.26,0,0,0,188.31,149l10.21-5-17.59-10-9.69,5.07a105.61,105.61,0,0,0-27.21-7l.24-6.92H120.15l-.24,6.92s-16.2.41-27.91,5.08l-7.56-4.53-18.74,9.1,8,4.85A22.45,22.45,0,0,0,62.05,160.19Zm42.62-2.94c13.63-5.9,35.77-5.9,49.42,0s13.63,15.44,0,21.33c-.54.23-1.08.45-1.63.65-13.19,5-33.09,5-46.26,0-.52-.18-1-.4-1.53-.61C91,172.69,91,163.14,104.67,157.25Z"/>
            <polygon class="cls-27" points="139.34 210.65 139.34 229.88 115.24 229.88 115.24 210.65 139.34 210.65 139.34 210.65"/>
            <polygon class="cls-28" points="50.34 172.97 50.34 192.21 61.27 192.21 61.27 173.01 50.34 172.97 50.34 172.97"/>
            <path class="cls-29" d="M80.15,201.58v19.24s-18.48-9.61-17.57-10,0-19.24,0-19.24l17.57,10Z"/>
            <polygon class="cls-30" points="174.98 203.85 174.98 223.09 193.71 213.99 193.71 194.75 174.98 203.85 174.98 203.85"/>
            <path class="cls-31" d="M208.39,176.31s.31,19.24,0,19.24H197.47V176.31Z"/>
          </g>
          <g>
            <g class="cls-8">
              <g>
                <g class="cls-32">
                  <path class="cls-9" d="M189.51,92.4l-.73.3c-6.31,2.48-15.82,2.48-22.13,0l-.78-.32c-6.52-2.88-6.52-7.56,0-10.44s17.12-2.89,23.64,0S196,89.52,189.51,92.4Zm14.8-15.66,3.84-2.37-9-4.45-3.61,2.21c-5.6-2.28-13.34-2.49-13.35-2.49l-.12-3.38H170.57l.11,3.38a49.66,49.66,0,0,0-13,3.44L153,70.6l-8.41,4.89,4.89,2.45a14.31,14.31,0,0,0-4.72,7l-4.89,0v6.36h5.23a13.07,13.07,0,0,0,5.19,6.5l-3.4,2.53,9,4.45,3.56-2.23a41.74,41.74,0,0,0,13.36,2.65l.12,2.9h11.53l-.1-3.19a50.61,50.61,0,0,0,13-3.29l3.9,2,8.4-4.88L205.24,97a14.64,14.64,0,0,0,5-7.3l5.22,0V83.38l-5.59,0A11,11,0,0,0,204.31,76.74Z"/>
                </g>
                <path class="cls-33" d="M189.49,92.24c-.23.1-.48.21-.73.3-6.34,2.36-15.76,2.4-22.09,0l-.78-.32c-6.5-2.9-6.51-7.55,0-10.43s17.09-2.88,23.6,0S196,89.33,189.49,92.24Zm14.79-15.63,3.82-2.37-8.95-4.45L195.55,72c-5.6-2.28-13.33-2.48-13.34-2.48l-.11-3.38H170.58l.11,3.38a49.12,49.12,0,0,0-13,3.43l-4.63-2.48-8.4,4.89,4.88,2.44a14.44,14.44,0,0,0-4.72,6.94l-4.88,0v6.35h5.22a13,13,0,0,0,5.18,6.49L147,100.15l8.94,4.44,3.56-2.22A41.86,41.86,0,0,0,172.81,105l.12,2.9h11.51l-.1-3.19a50,50,0,0,0,13-3.28l3.89,2,8.39-4.88L205.2,96.8a14.63,14.63,0,0,0,5-7.28l5.22,0V83.23l-5.59,0A10.87,10.87,0,0,0,204.28,76.61Z"/>
                <path class="cls-34" d="M189.48,92.08l-.73.3c-6.33,2.35-15.75,2.41-22.07,0l-.77-.32c-6.49-2.9-6.51-7.54,0-10.41s17.07-2.88,23.57,0S196,89.18,189.48,92.08Zm14.76-15.61,3.82-2.36-8.94-4.45-3.6,2.21c-5.59-2.28-13.3-2.48-13.32-2.48L182.09,66h-11.5l.11,3.38a49,49,0,0,0-13,3.43l-4.63-2.48-8.39,4.88,4.88,2.44a14.36,14.36,0,0,0-4.71,6.93l-4.88,0V91h5.22a12.9,12.9,0,0,0,5.17,6.48L147,100l8.93,4.44,3.55-2.22a41.79,41.79,0,0,0,13.33,2.64l.12,2.89h11.49l-.1-3.19a50.37,50.37,0,0,0,13-3.27l3.88,2,8.38-4.87-4.39-1.8a14.67,14.67,0,0,0,5-7.28l5.21,0V83.09l-5.58,0A10.9,10.9,0,0,0,204.24,76.47Z"/>
                <path class="cls-35" d="M189.46,91.92c-.24.1-.48.21-.73.3-6.32,2.35-15.72,2.41-22,0l-.78-.32c-6.48-2.89-6.49-7.53,0-10.39s17.05-2.88,23.54,0S196,89,189.46,91.92Zm14.75-15.59L208,74l-8.92-4.44-3.6,2.21c-5.59-2.27-13.29-2.48-13.3-2.48l-.11-3.37H170.6l.11,3.37a49.28,49.28,0,0,0-13,3.42l-4.61-2.47-8.38,4.88,4.87,2.44a14.3,14.3,0,0,0-4.71,6.91l-4.86,0v6.33h5.2a13.05,13.05,0,0,0,5.17,6.48l-3.38,2.52,8.92,4.43,3.55-2.22a41.63,41.63,0,0,0,13.3,2.64l.12,2.89h11.48l-.1-3.18a50.22,50.22,0,0,0,12.94-3.27l3.88,2,8.36-4.87-4.38-1.8a14.5,14.5,0,0,0,5-7.26l5.2,0V82.94l-5.57,0A10.89,10.89,0,0,0,204.21,76.33Z"/>
                <path class="cls-36" d="M189.44,91.76c-.23.11-.48.21-.72.3-6.32,2.35-15.71,2.41-22,0-.26-.1-.51-.2-.77-.32-6.47-2.89-6.48-7.51,0-10.38s17-2.87,23.5,0S195.92,88.87,189.44,91.76Zm14.73-15.57L208,73.84l-8.91-4.44-3.6,2.21c-5.57-2.27-13.27-2.48-13.28-2.48l-.11-3.36H170.61l.11,3.36a49.63,49.63,0,0,0-12.94,3.42l-4.61-2.47L144.81,75l4.86,2.44a14.18,14.18,0,0,0-4.7,6.9l-4.86,0v6.33h5.2a13,13,0,0,0,5.16,6.46l-3.38,2.52,8.91,4.43,3.54-2.22a41.66,41.66,0,0,0,13.29,2.63l.12,2.89h11.46l-.1-3.18a49.56,49.56,0,0,0,12.92-3.27l3.88,2,8.35-4.85-4.37-1.8a14.6,14.6,0,0,0,5-7.26l5.19,0V82.79l-5.56,0A10.89,10.89,0,0,0,204.17,76.19Z"/>
                <path class="cls-37" d="M189.43,91.6c-.24.11-.48.21-.73.3-6.3,2.35-15.69,2.42-22,0-.26-.1-.52-.2-.78-.32-6.46-2.89-6.47-7.5,0-10.36s17-2.87,23.48,0S195.9,88.72,189.43,91.6Zm14.7-15.54,3.8-2.36L199,69.28l-3.59,2.2C189.88,69.21,182.2,69,182.19,69l-.11-3.36H170.62l.11,3.36a49,49,0,0,0-12.92,3.41L153.2,70l-8.35,4.86,4.85,2.44A14.39,14.39,0,0,0,145,84.14l-4.85,0V90.5h5.19A13,13,0,0,0,150.5,97l-3.36,2.52,8.89,4.42,3.54-2.21a41.46,41.46,0,0,0,13.27,2.63l.12,2.88h11.45L184.3,104a49.81,49.81,0,0,0,12.9-3.27l3.87,2,8.35-4.85-4.37-1.8a14.47,14.47,0,0,0,5-7.24l5.19,0V82.65l-5.56,0A10.8,10.8,0,0,0,204.13,76.06Z"/>
                <path class="cls-38" d="M189.41,91.44c-.23.11-.48.21-.72.3-6.3,2.34-15.67,2.42-21.95,0-.26-.1-.51-.2-.77-.32-6.45-2.88-6.46-7.49,0-10.35s17-2.86,23.44,0S195.87,88.57,189.41,91.44ZM204.1,75.92l3.79-2.35L199,69.15l-3.59,2.2c-5.56-2.27-13.23-2.47-13.24-2.47l-.11-3.36H170.63l.11,3.36a48.83,48.83,0,0,0-12.9,3.41l-4.6-2.46-8.34,4.85,4.84,2.43A14.24,14.24,0,0,0,145.06,84l-4.85,0v6.3h5.18a13,13,0,0,0,5.15,6.45l-3.36,2.51,8.88,4.42,3.53-2.21a41.76,41.76,0,0,0,13.25,2.62L173,107H184.4l-.11-3.17a49.94,49.94,0,0,0,12.89-3.26l3.86,2,8.33-4.85L205,96a14.47,14.47,0,0,0,5-7.24l5.18,0V82.5l-5.55,0A10.86,10.86,0,0,0,204.1,75.92Z"/>
                <path class="cls-39" d="M189.39,91.28a7.76,7.76,0,0,1-.72.3c-6.29,2.34-15.65,2.42-21.91,0a7.35,7.35,0,0,1-.77-.32c-6.44-2.88-6.46-7.48,0-10.33s16.95-2.86,23.4,0S195.85,88.41,189.39,91.28Zm14.67-15.5,3.79-2.34L199,69l-3.58,2.2c-5.55-2.26-13.21-2.47-13.22-2.47l-.12-3.35H170.64l.11,3.35a49.24,49.24,0,0,0-12.89,3.4l-4.59-2.45-8.33,4.84L149.78,77a14.29,14.29,0,0,0-4.68,6.88l-4.83,0v6.3h5.17a12.92,12.92,0,0,0,5.14,6.43l-3.36,2.51,8.87,4.41,3.53-2.21A41.27,41.27,0,0,0,172.85,104l.12,2.88h11.42l-.11-3.17a49.28,49.28,0,0,0,12.87-3.25l3.86,2,8.32-4.84L205,95.81a14.4,14.4,0,0,0,5-7.22l5.18,0V82.36h-5.55A10.82,10.82,0,0,0,204.06,75.78Z"/>
                <path class="cls-40" d="M189.38,91.13l-.72.29c-6.28,2.34-15.63,2.43-21.89,0l-.77-.32c-6.43-2.89-6.44-7.48,0-10.32s16.93-2.86,23.38,0S195.83,88.26,189.38,91.13ZM204,75.65l3.79-2.35L199,68.89l-3.57,2.2c-5.55-2.26-13.2-2.47-13.21-2.47l-.11-3.34H170.65l.11,3.34A49.09,49.09,0,0,0,157.89,72l-4.58-2.45L145,74.41l4.83,2.42a14.17,14.17,0,0,0-4.67,6.87l-4.83,0V90h5.16a13,13,0,0,0,5.14,6.43L147.26,99l8.86,4.4,3.52-2.2a41.6,41.6,0,0,0,13.22,2.62l.12,2.87h11.4l-.11-3.16a49.93,49.93,0,0,0,12.85-3.25l3.86,2,8.3-4.84-4.34-1.78a14.54,14.54,0,0,0,5-7.22l5.16,0v-6.2l-5.53,0A10.8,10.8,0,0,0,204,75.65Z"/>
                <path class="cls-41" d="M189.36,91l-.72.29c-6.27,2.34-15.61,2.43-21.85,0L166,91c-6.42-2.88-6.44-7.47,0-10.31s16.9-2.85,23.34,0S195.81,88.12,189.36,91ZM204,75.51l3.78-2.34-8.85-4.41L195.35,71c-5.54-2.26-13.18-2.46-13.19-2.46l-.11-3.34H170.66l.11,3.34a48.55,48.55,0,0,0-12.85,3.39l-4.58-2.45L145,74.27l4.83,2.42a14.29,14.29,0,0,0-4.67,6.86l-4.82,0v6.28h5.16a12.93,12.93,0,0,0,5.13,6.42l-3.35,2.5,8.84,4.4,3.52-2.2a41.43,41.43,0,0,0,13.19,2.61l.12,2.87h11.39l-.11-3.16a49.45,49.45,0,0,0,12.84-3.24l3.84,2,8.3-4.82-4.34-1.79a14.43,14.43,0,0,0,5-7.2l5.16,0v-6.2l-5.53,0A10.79,10.79,0,0,0,204,75.51Z"/>
                <path class="cls-42" d="M189.35,90.81l-.72.3c-6.27,2.33-15.59,2.42-21.83,0l-.76-.32c-6.42-2.88-6.43-7.46,0-10.29s16.88-2.85,23.31,0S195.78,88,189.35,90.81ZM204,75.37,207.72,73l-8.83-4.39-3.56,2.18c-5.53-2.25-13.16-2.45-13.17-2.45L182.05,65H170.67l.11,3.34A48.69,48.69,0,0,0,158,71.76l-4.57-2.45-8.3,4.83,4.82,2.41a14.21,14.21,0,0,0-4.66,6.85l-4.82,0v6.27h5.15a12.9,12.9,0,0,0,5.12,6.41l-3.34,2.5,8.83,4.39,3.51-2.19a41.4,41.4,0,0,0,13.18,2.6l.12,2.87h11.37l-.1-3.15a49.33,49.33,0,0,0,12.81-3.25l3.84,2,8.29-4.82-4.34-1.78a14.43,14.43,0,0,0,5-7.2l5.15,0V81.92h-5.52A10.76,10.76,0,0,0,204,75.37Z"/>
                <path class="cls-43" d="M189.33,90.65c-.23.1-.47.21-.72.3-6.21,2.44-15.57,2.44-21.79,0-.26-.1-.51-.2-.77-.32-6.42-2.84-6.42-7.44,0-10.28s16.86-2.84,23.28,0S195.76,87.81,189.33,90.65Zm14.58-15.42,3.77-2.33-8.82-4.39-3.56,2.18c-5.52-2.25-13.14-2.45-13.15-2.45L182,64.91H170.68l.11,3.33A49.1,49.1,0,0,0,158,71.62l-4.56-2.44L145.13,74l4.81,2.41a14.26,14.26,0,0,0-4.66,6.84l-4.81,0v6.27h5.15a12.9,12.9,0,0,0,5.11,6.4l-3.34,2.49,8.82,4.39,3.51-2.2a41.21,41.21,0,0,0,13.16,2.61l.12,2.86h11.35l-.1-3.15A49.07,49.07,0,0,0,197,99.72l3.84,2,8.27-4.81-4.33-1.78a14.3,14.3,0,0,0,5-7.18l5.15,0V81.77l-5.51,0A10.76,10.76,0,0,0,203.91,75.23Z"/>
              </g>
            </g>
            <g>
              <path class="cls-44" d="M203.91,75.23l3.77-2.33-8.82-4.39-3.56,2.18c-5.52-2.25-13.14-2.45-13.15-2.45L182,64.91H170.68l.11,3.33A49.1,49.1,0,0,0,158,71.62l-4.56-2.44L145.13,74l4.81,2.41c-2.71,2.18-4.56,2.15-5,3.87l-4.47,3v6.27h5.15a12.9,12.9,0,0,0,5.11,6.4l-3.34,2.49,8.82,4.39,3.51-2.2a41.21,41.21,0,0,0,13.16,2.61l.12,2.86h11.35l-.1-3.15A49.07,49.07,0,0,0,197,99.72l3.84,2,8.27-4.81-4.33-1.78a14.3,14.3,0,0,0,5-7.18l5.15,0V81.77l-4.62-3.53C209.21,74.48,205.3,75.8,203.91,75.23ZM189.33,90.65c-.23.1-.47.21-.72.3-6.21,2.44-15.57,2.44-21.79,0-.26-.1-.51-.2-.77-.32-6.42-2.84-6.42-7.44,0-10.28s16.86-2.84,23.28,0S195.76,87.81,189.33,90.65Z"/>
              <polygon class="cls-44" points="145.13 64.72 145.13 71.63 146.78 72.91 153.08 68.81 151.8 65.05 145.13 64.72 145.13 64.72"/>
              <polygon class="cls-44" points="207.65 63.63 207.65 70.53 206 71.81 199.7 67.72 200.98 63.95 207.65 63.63 207.65 63.63"/>
              <path class="cls-45" d="M203.91,66l3.77-2.34-8.82-4.38-3.56,2.18C189.78,59.17,182.16,59,182.15,59L182,55.64H170.68l.11,3.33A48.71,48.71,0,0,0,158,62.35l-4.56-2.44-8.28,4.81,4.81,2.42A14.17,14.17,0,0,0,145.28,74l-4.81,0v6.26h5.15a12.9,12.9,0,0,0,5.11,6.4l-3.34,2.49,8.82,4.39,3.51-2.19A41.26,41.26,0,0,0,172.88,94l.12,2.87h11.35l-.1-3.15A49.47,49.47,0,0,0,197,90.45l3.84,2,8.27-4.81-4.33-1.78a14.38,14.38,0,0,0,5-7.18l5.15,0V72.5h-5.51A10.76,10.76,0,0,0,203.91,66ZM189.33,81.37a5.74,5.74,0,0,1-.72.3c-6.21,2.44-15.57,2.44-21.79,0-.26-.1-.51-.2-.77-.32-6.42-2.83-6.42-7.44,0-10.27s16.86-2.85,23.28,0S195.76,78.54,189.33,81.37Z"/>
              <polygon class="cls-46" points="173 96.84 173 106.11 184.35 106.11 184.35 96.84 173 96.84 173 96.84"/>
              <polygon class="cls-47" points="214.92 78.67 214.92 87.95 209.77 87.95 209.77 78.7 214.92 78.67 214.92 78.67"/>
              <path class="cls-48" d="M200.88,92.47v9.27s8.71-4.63,8.27-4.81,0-9.27,0-9.27l-8.27,4.81Z"/>
              <polygon class="cls-49" points="156.22 93.56 156.22 102.84 147.39 98.44 147.39 89.17 156.22 93.56 156.22 93.56"/>
              <path class="cls-50" d="M140.47,80.28s-.14,9.28,0,9.28h5.15V80.28Z"/>
            </g>
            <g class="cls-8">
              <g>
                <g class="cls-32">
                  <path class="cls-9" d="M125.4,125.85c-.32.14-.65.29-1,.4-8.46,3.33-21.22,3.33-29.69,0-.36-.13-.7-.28-1-.43-8.75-3.87-8.75-10.14,0-14s23-3.87,31.72,0S134.16,122,125.4,125.85Zm19.87-21,5.14-3.18-12-6-4.84,3c-7.53-3.07-17.91-3.35-17.92-3.35l-.16-4.54H100l.16,4.54a67,67,0,0,0-17.47,4.61L76.45,96.6l-11.28,6.56,6.55,3.29a19.3,19.3,0,0,0-6.34,9.32l-6.55,0v8.54h7a17.52,17.52,0,0,0,7,8.72l-4.55,3.39,12,6,4.77-3A55.9,55.9,0,0,0,103,143l.16,3.91h15.48l-.15-4.3a67.49,67.49,0,0,0,17.44-4.41l5.22,2.75,11.28-6.55-5.9-2.43c3.6-3,5.85-6.38,6.74-9.79l7,0v-8.42l-7.52,0A14.68,14.68,0,0,0,145.27,104.84Z"/>
                </g>
                <path class="cls-33" d="M125.38,125.64l-1,.4c-8.53,3.1-21.16,3.22-29.65,0l-1-.43c-8.73-3.86-8.73-10.13,0-14s22.94-3.87,31.68,0S134.13,121.78,125.38,125.64Zm19.84-21,5.13-3.18-12-6-4.84,3c-7.51-3.06-17.88-3.34-17.89-3.34l-.15-4.53H100l.16,4.53a66.43,66.43,0,0,0-17.44,4.61L76.5,96.42,65.23,103l6.54,3.29a19.23,19.23,0,0,0-6.33,9.3l-6.54.05v8.53h7a17.48,17.48,0,0,0,7,8.7l-4.55,3.4,12,6,4.76-3A56.38,56.38,0,0,0,103,142.78l.16,3.9H118.6l-.14-4.29A67.26,67.26,0,0,0,135.87,138l5.22,2.75,11.26-6.54-5.9-2.43c3.61-3,5.85-6.37,6.74-9.77l7,0v-8.41l-7.51,0A14.58,14.58,0,0,0,145.22,104.66Z"/>
                <path class="cls-34" d="M125.35,125.42c-.31.14-.64.28-1,.4-8.52,3.1-21.13,3.22-29.61,0-.35-.13-.7-.27-1-.43-8.72-3.85-8.72-10.11,0-14s22.91-3.87,31.63,0S134.08,121.55,125.35,125.42Zm19.82-20.94,5.13-3.18-12-6-4.83,3C126,95.25,115.61,95,115.6,95l-.15-4.53H100l.15,4.53a66.21,66.21,0,0,0-17.41,4.6l-6.21-3.32L65.29,102.8l6.54,3.28a19.21,19.21,0,0,0-6.33,9.29l-6.53,0v8.52h7a17.43,17.43,0,0,0,7,8.69L68.36,136l12,6,4.76-3A55.93,55.93,0,0,0,103,142.54l.16,3.89h15.43l-.14-4.28a67.43,67.43,0,0,0,17.38-4.4l5.22,2.75L152.29,134l-5.89-2.42c3.6-3,5.84-6.37,6.73-9.76l7,0v-8.39l-7.5,0A14.55,14.55,0,0,0,145.17,104.48Z"/>
                <path class="cls-35" d="M125.33,125.21c-.31.14-.64.28-1,.4-8.5,3.1-21.09,3.22-29.56,0-.35-.13-.7-.28-1-.43-8.71-3.85-8.71-10.1,0-13.95s22.87-3.86,31.58,0S134.05,121.33,125.33,125.21Zm19.79-20.92,5.12-3.17-12-6-4.82,3c-7.5-3-17.83-3.33-17.85-3.33l-.15-4.52H100l.15,4.52a66.54,66.54,0,0,0-17.39,4.59l-6.19-3.31-11.24,6.54,6.53,3.27a19.12,19.12,0,0,0-6.31,9.28l-6.53,0v8.51h7A17.48,17.48,0,0,0,73,132.41l-4.54,3.38,12,6,4.75-3A55.89,55.89,0,0,0,103,142.3l.16,3.89h15.41l-.14-4.28a66.87,66.87,0,0,0,17.36-4.39l5.2,2.74,11.23-6.52-5.88-2.42c3.6-3,5.83-6.36,6.72-9.75l7,0v-8.38l-7.48,0A14.62,14.62,0,0,0,145.12,104.29Z"/>
                <path class="cls-36" d="M125.31,125l-1,.4c-8.49,3.09-21.06,3.21-29.52,0l-1-.43c-8.7-3.85-8.7-10.09,0-13.93s22.84-3.86,31.54,0S134,121.12,125.31,125Zm19.76-20.89,5.11-3.17-12-5.94-4.82,3c-7.48-3.06-17.8-3.33-17.82-3.33l-.15-4.52H100l.16,4.52a66.28,66.28,0,0,0-17.37,4.58l-6.19-3.3-11.22,6.53,6.52,3.27a19.05,19.05,0,0,0-6.3,9.26l-6.52,0v8.5h7A17.44,17.44,0,0,0,73,132.19l-4.53,3.37,12,5.95,4.75-3A56.15,56.15,0,0,0,103,142.07l.17,3.88h15.39l-.14-4.27a67,67,0,0,0,17.33-4.39L141,140l11.21-6.52-5.87-2.41c3.59-3,5.83-6.35,6.71-9.74l7,0V113l-7.47,0A14.58,14.58,0,0,0,145.07,104.11Z"/>
                <path class="cls-37" d="M125.29,124.78c-.32.14-.65.28-1,.4-8.48,3.09-21,3.21-29.48,0-.35-.13-.69-.27-1-.43-8.68-3.85-8.69-10.07,0-13.91s22.81-3.85,31.5,0S134,120.91,125.29,124.78ZM145,103.92l5.11-3.16-11.95-5.94-4.81,3c-7.47-3-17.78-3.32-17.79-3.32L115.42,90H100.05l.15,4.51A66.06,66.06,0,0,0,82.86,99l-6.18-3.31-11.21,6.52L72,105.52a19,19,0,0,0-6.29,9.26l-6.51,0v8.49h7A17.38,17.38,0,0,0,73.06,132l-4.52,3.37,11.94,5.94,4.74-3a55.51,55.51,0,0,0,17.8,3.53l.17,3.88h15.36l-.14-4.27a67,67,0,0,0,17.32-4.38l5.19,2.73,11.19-6.5-5.86-2.41c3.59-3,5.82-6.34,6.7-9.73l7,0v-8.36l-7.46,0A14.55,14.55,0,0,0,145,103.92Z"/>
                <path class="cls-38" d="M125.27,124.57c-.32.14-.65.28-1,.4-8.46,3.09-21,3.2-29.44,0-.35-.13-.69-.28-1-.43-8.66-3.85-8.67-10.06,0-13.89s22.78-3.85,31.46,0S133.94,120.7,125.27,124.57ZM145,103.74l5.1-3.16-11.93-5.93-4.8,3c-7.46-3-17.76-3.32-17.77-3.32l-.15-4.51H100.06l.15,4.51A65.83,65.83,0,0,0,82.9,98.86l-6.17-3.3-11.2,6.51L72,105.33a19,19,0,0,0-6.29,9.25l-6.5,0v8.46h7a17.41,17.41,0,0,0,6.91,8.65l-4.52,3.37L80.52,141l4.73-3A55.48,55.48,0,0,0,103,141.59l.17,3.87h15.34l-.14-4.25a67.14,67.14,0,0,0,17.29-4.38l5.18,2.73,11.19-6.5-5.86-2.4c3.58-3,5.81-6.34,6.69-9.71l7,0v-8.35l-7.45,0A14.52,14.52,0,0,0,145,103.74Z"/>
                <path class="cls-39" d="M125.24,124.36c-.31.14-.64.27-1,.39-8.45,3.09-21,3.21-29.4,0-.35-.13-.69-.27-1-.42-8.65-3.85-8.66-10,0-13.87s22.75-3.84,31.41,0S133.9,120.49,125.24,124.36Zm19.68-20.81L150,100.4,138.1,94.48l-4.8,3c-7.45-3-17.73-3.31-17.74-3.31l-.15-4.5H100.07l.16,4.5a66.24,66.24,0,0,0-17.3,4.56l-6.16-3.29-11.18,6.5,6.5,3.26a19,19,0,0,0-6.28,9.23l-6.49.05v8.45h6.94a17.36,17.36,0,0,0,6.9,8.64l-4.51,3.36,11.91,5.92,4.73-3A55.81,55.81,0,0,0,103,141.36l.17,3.86h15.32l-.14-4.25a66.51,66.51,0,0,0,17.26-4.37l5.18,2.73L152,132.84l-5.85-2.41c3.57-3,5.8-6.32,6.68-9.69l6.95,0v-8.34l-7.44,0A14.51,14.51,0,0,0,144.92,103.55Z"/>
                <path class="cls-40" d="M125.22,124.14c-.31.14-.64.28-1,.4-8.44,3.08-21,3.2-29.36,0-.35-.13-.69-.27-1-.43-8.65-3.84-8.66-10,0-13.85s22.71-3.83,31.36,0S133.87,120.27,125.22,124.14Zm19.65-20.77,5.09-3.15-11.9-5.91-4.79,2.94c-7.44-3-17.71-3.3-17.72-3.3l-.15-4.5H100.09l.15,4.5A66,66,0,0,0,83,98.5l-6.15-3.29-11.16,6.5L72.14,105a19,19,0,0,0-6.27,9.22l-6.48,0v8.44h6.93a17.35,17.35,0,0,0,6.89,8.62l-4.5,3.36,11.89,5.92,4.72-3a55.5,55.5,0,0,0,17.73,3.51l.17,3.86h15.3l-.14-4.25a66.86,66.86,0,0,0,17.24-4.36l5.17,2.72,11.15-6.48-5.84-2.4a19.3,19.3,0,0,0,6.67-9.68l6.94,0v-8.32l-7.43,0A14.51,14.51,0,0,0,144.87,103.37Z"/>
                <path class="cls-41" d="M125.2,123.93c-.31.14-.64.28-1,.4-8.43,3.08-20.92,3.19-29.32,0-.35-.13-.69-.27-1-.43-8.63-3.84-8.64-10,0-13.83s22.68-3.83,31.32,0S133.83,120.06,125.2,123.93Zm19.62-20.74L149.9,100,138,94.14l-4.78,2.94c-7.43-3-17.69-3.3-17.7-3.3l-.15-4.49H100.1l.15,4.49A65.4,65.4,0,0,0,83,98.33L76.86,95l-11.14,6.49,6.47,3.24A19,19,0,0,0,65.93,114l-6.47,0v8.43h6.92a17.31,17.31,0,0,0,6.88,8.61l-4.5,3.35,11.88,5.91,4.71-3a55.46,55.46,0,0,0,17.71,3.5l.17,3.86H118.5l-.13-4.24a66.73,66.73,0,0,0,17.21-4.36l5.16,2.72,11.14-6.47-5.83-2.4c3.56-3,5.78-6.3,6.66-9.67l6.93,0V112l-7.42,0A14.42,14.42,0,0,0,144.82,103.19Z"/>
                <path class="cls-42" d="M125.18,123.72c-.31.14-.64.27-1,.39-8.42,3.08-20.89,3.2-29.28,0-.35-.13-.69-.27-1-.42-8.62-3.84-8.63-10,0-13.81s22.65-3.83,31.28,0S133.79,119.85,125.18,123.72ZM144.77,103l5.07-3.14L138,94,133.2,96.9c-7.41-3-17.65-3.29-17.67-3.29l-.15-4.49H100.11l.15,4.49A65.74,65.74,0,0,0,83,98.15l-6.13-3.28-11.13,6.47,6.46,3.25A19.07,19.07,0,0,0,66,113.78l-6.46,0v8.42h6.91a17.36,17.36,0,0,0,6.87,8.6l-4.49,3.35,11.86,5.89,4.71-3a55.41,55.41,0,0,0,17.68,3.51l.16,3.85h15.26l-.14-4.24a66.65,66.65,0,0,0,17.2-4.35l5.15,2.72,11.12-6.47L146,129.77a19.31,19.31,0,0,0,6.65-9.66l6.92,0v-8.3l-7.41,0A14.44,14.44,0,0,0,144.77,103Z"/>
                <path class="cls-43" d="M125.16,123.51a10.33,10.33,0,0,1-1,.39c-8.33,3.28-20.9,3.28-29.24,0-.35-.13-.68-.27-1-.42-8.62-3.81-8.62-10,0-13.8s22.62-3.82,31.24,0S133.79,119.7,125.16,123.51Zm19.57-20.69,5.06-3.14L137.94,93.8l-4.77,2.93c-7.41-3-17.63-3.29-17.65-3.29L115.37,89H100.13l.15,4.48A65.48,65.48,0,0,0,83.08,98L77,94.7l-11.11,6.46,6.46,3.24a19,19,0,0,0-6.25,9.18l-6.45,0V122h6.9a17.32,17.32,0,0,0,6.86,8.59L68.88,134l11.84,5.89,4.7-3a55.1,55.1,0,0,0,17.66,3.5l.16,3.84h15.24l-.14-4.22a66.83,66.83,0,0,0,17.17-4.35l5.15,2.71,11.1-6.45L146,129.55c3.55-3,5.76-6.29,6.64-9.64l6.91,0v-8.29l-7.4,0A14.41,14.41,0,0,0,144.73,102.82Z"/>
              </g>
            </g>
            <g>
              <path class="cls-51" d="M144.73,102.82l5.06-3.14L137.94,93.8l-4.77,2.93c-7.41-3-17.63-3.29-17.65-3.29L115.37,89H100.13l.15,4.48A65.48,65.48,0,0,0,83.08,98L77,94.7l-11.11,6.46,6.46,3.24c-3.64,2.92-6.11,2.88-6.71,5.19l-6,4V122h6.9a17.32,17.32,0,0,0,6.86,8.59L68.88,134l11.84,5.89,4.7-3a55.1,55.1,0,0,0,17.66,3.5l.16,3.84h15.24l-.14-4.22a66.83,66.83,0,0,0,17.17-4.35l5.15,2.71,11.1-6.45L146,129.55c3.55-3,5.76-6.29,6.64-9.64l6.91,0v-8.29l-6.2-4.74C151.84,101.81,146.59,103.58,144.73,102.82Zm-19.57,20.69a10.33,10.33,0,0,1-1,.39c-8.33,3.28-20.9,3.28-29.24,0-.35-.13-.68-.27-1-.42-8.62-3.81-8.62-10,0-13.8s22.62-3.82,31.24,0S133.79,119.7,125.16,123.51Z"/>
              <polygon class="cls-51" points="65.84 88.72 65.84 97.98 68.05 99.69 76.52 94.2 74.8 89.15 65.84 88.72 65.84 88.72"/>
              <polygon class="cls-51" points="149.75 87.24 149.75 96.51 147.54 98.22 139.07 92.73 140.79 87.68 149.75 87.24 149.75 87.24"/>
              <path class="cls-52" d="M144.73,90.37l5.06-3.13-11.85-5.89-4.77,2.93c-7.41-3-17.63-3.29-17.65-3.29l-.15-4.47H100.13l.15,4.47a65.49,65.49,0,0,0-17.2,4.54L77,82.25,65.84,88.71,72.3,92a19,19,0,0,0-6.25,9.17l-6.45.05v8.41h6.9a17.27,17.27,0,0,0,6.86,8.59l-4.48,3.34,11.84,5.89,4.7-2.94A55.14,55.14,0,0,0,103.08,128l.16,3.85h15.24l-.14-4.23a66.42,66.42,0,0,0,17.17-4.35l5.15,2.71,11.1-6.45L146,117.1a19.3,19.3,0,0,0,6.64-9.64l6.91,0V99.14l-7.4,0A14.43,14.43,0,0,0,144.73,90.37Zm-19.57,20.69c-.31.14-.64.28-1,.4-8.33,3.27-20.9,3.27-29.24,0-.35-.13-.68-.27-1-.42-8.62-3.81-8.62-10,0-13.8s22.62-3.82,31.24,0S133.79,107.25,125.16,111.06Z"/>
              <polygon class="cls-53" points="103.24 131.81 103.24 144.25 118.48 144.25 118.48 131.81 103.24 131.81 103.24 131.81"/>
              <polygon class="cls-53" points="159.5 107.43 159.5 119.88 152.59 119.88 152.59 107.46 159.5 107.43 159.5 107.43"/>
              <path class="cls-53" d="M140.66,125.94v12.45s11.68-6.22,11.1-6.45,0-12.45,0-12.45l-11.1,6.45Z"/>
              <polygon class="cls-53" points="80.72 127.41 80.72 139.86 68.88 133.97 68.88 121.52 80.72 127.41 80.72 127.41"/>
              <path class="cls-53" d="M59.6,109.59S59.4,122,59.6,122h6.9V109.59Z"/>
            </g>
          </g>
          <g class="cls-54">
            <path class="cls-55" d="M45.08,0H214.5V260.24h-.22c1.32,13.43-6.81,27.11-24.58,37.37-33.09,19.1-86.72,19.1-119.8,0C52.12,287.35,44,273.67,45.31,260.24h-.23Z"/>
          </g>
        </g>
      </g>
    </g>
  </g>
</svg>
