<svg xmlns="http://www.w3.org/2000/svg" xmlns:xlink="http://www.w3.org/1999/xlink" viewBox="0 0 719.08 825.08"><defs><style>.cls-1{isolation:isolate;}.cls-2{mix-blend-mode:multiply;}.cls-3{fill:#fff;}.cls-4{fill:#f9f9fa;}.cls-5{fill:#f4f4f5;}.cls-6{fill:#eeeef0;}.cls-7{fill:#e8e9eb;}.cls-8{fill:#e3e3e6;}.cls-9{fill:#dddee0;}.cls-10{fill:#d8d8db;}.cls-11{fill:#d2d3d6;}.cls-12{fill:#cccdd1;}.cls-13{fill:#c7c8cc;}.cls-14{fill:#c1c2c7;}.cls-15{fill:url(#Áåçûìÿííûé_ãðàäèåíò_31);}.cls-16{fill:url(#Áåçûìÿííûé_ãðàäèåíò_31-2);}.cls-17{fill:#f8f6fb;}.cls-18{fill:#ffb78d;}.cls-19{fill:#ffd1aa;}.cls-20{fill:#bac1e8;}.cls-21{fill:#0d0848;}.cls-22{fill:#1d1273;}.cls-23{fill:#3531a1;}.cls-24{fill:url(#Áåçûìÿííûé_ãðàäèåíò_37);}.cls-25{fill:url(#Áåçûìÿííûé_ãðàäèåíò_42);}.cls-26{fill:url(#Áåçûìÿííûé_ãðàäèåíò_37-2);}.cls-27{fill:url(#Áåçûìÿííûé_ãðàäèåíò_37-3);}.cls-28{fill:url(#Áåçûìÿííûé_ãðàäèåíò_42-2);}.cls-29{fill:url(#Áåçûìÿííûé_ãðàäèåíò_42-3);}.cls-30{fill:#f3f4f4;}.cls-31{fill:#eeeeef;}.cls-32{fill:#e8e8ea;}.cls-33{fill:#e2e3e5;}.cls-34{fill:#dcdddf;}.cls-35{fill:#d6d8da;}.cls-36{fill:#d0d2d5;}.cls-37{fill:#cbccd0;}.cls-38{fill:#c5c7ca;}.cls-39{fill:#bfc1c5;}.cls-40{fill:url(#Áåçûìÿííûé_ãðàäèåíò_31-3);}.cls-41{fill:url(#Áåçûìÿííûé_ãðàäèåíò_42-4);}.cls-42{fill:url(#Áåçûìÿííûé_ãðàäèåíò_42-5);}.cls-43{fill:url(#Áåçûìÿííûé_ãðàäèåíò_31-4);}.cls-44{fill:url(#Áåçûìÿííûé_ãðàäèåíò_42-6);}.cls-45{fill:url(#Áåçûìÿííûé_ãðàäèåíò_42-7);}.cls-46{fill:url(#Áåçûìÿííûé_ãðàäèåíò_31-5);}.cls-47{fill:url(#Áåçûìÿííûé_ãðàäèåíò_31-6);}.cls-48{fill:url(#Áåçûìÿííûé_ãðàäèåíò_31-7);}.cls-49{fill:#f0f0fb;}.cls-50{fill:url(#Áåçûìÿííûé_ãðàäèåíò_31-8);}.cls-51{fill:url(#Áåçûìÿííûé_ãðàäèåíò_42-8);}.cls-52{fill:url(#Áåçûìÿííûé_ãðàäèåíò_31-9);}.cls-53{fill:url(#Áåçûìÿííûé_ãðàäèåíò_37-4);}.cls-54{fill:url(#Áåçûìÿííûé_ãðàäèåíò_37-5);}.cls-55{fill:#ff5a74;}.cls-56{fill:url(#Áåçûìÿííûé_ãðàäèåíò_37-6);}.cls-57{fill:url(#Áåçûìÿííûé_ãðàäèåíò_37-7);}.cls-58{fill:url(#Áåçûìÿííûé_ãðàäèåíò_37-8);}.cls-59{fill:url(#Áåçûìÿííûé_ãðàäèåíò_37-9);}.cls-60{fill:url(#Áåçûìÿííûé_ãðàäèåíò_37-10);}.cls-61{fill:url(#Áåçûìÿííûé_ãðàäèåíò_37-11);}</style><linearGradient id="Áåçûìÿííûé_ãðàäèåíò_31" x1="383.66" y1="711.15" x2="703.21" y2="711.15" gradientUnits="userSpaceOnUse"><stop offset="0" stop-color="#c8d6f9"/><stop offset="1" stop-color="#bac1e8"/></linearGradient><linearGradient id="Áåçûìÿííûé_ãðàäèåíò_31-2" x1="383.66" y1="701.35" x2="703.21" y2="701.35" gradientTransform="translate(1086.87 1402.71) rotate(-180)" xlink:href="#Áåçûìÿííûé_ãðàäèåíò_31"/><linearGradient id="Áåçûìÿííûé_ãðàäèåíò_37" x1="471.33" y1="409.52" x2="502.49" y2="409.52" gradientTransform="matrix(-1, 0, 0, 1, 1005.96, 0)" gradientUnits="userSpaceOnUse"><stop offset="0" stop-color="#ff6279"/><stop offset="1" stop-color="#ffad60"/></linearGradient><linearGradient id="Áåçûìÿííûé_ãðàäèåíò_42" x1="414.4" y1="465.6" x2="481.2" y2="465.6" gradientTransform="translate(81.2)" gradientUnits="userSpaceOnUse"><stop offset="0" stop-color="#f0f0fb"/><stop offset="1" stop-color="#d2d7f6"/></linearGradient><linearGradient id="Áåçûìÿííûé_ãðàäèåíò_37-2" x1="-229.28" y1="474.35" x2="-182.86" y2="474.35" gradientTransform="matrix(-1, 0, 0, 1, 339.17, 0)" xlink:href="#Áåçûìÿííûé_ãðàäèåíò_37"/><linearGradient id="Áåçûìÿííûé_ãðàäèåíò_37-3" x1="-170.31" y1="474.88" x2="-150.32" y2="474.88" gradientTransform="matrix(-1, 0, 0, 1, 339.17, 0)" xlink:href="#Áåçûìÿííûé_ãðàäèåíò_37"/><linearGradient id="Áåçûìÿííûé_ãðàäèåíò_42-2" x1="487.6" y1="460.57" x2="440.91" y2="464.63" gradientTransform="matrix(-0.99, 0.13, 0.13, 0.99, 932.32, -62.79)" xlink:href="#Áåçûìÿííûé_ãðàäèåíò_42"/><linearGradient id="Áåçûìÿííûé_ãðàäèåíò_42-3" x1="466.89" y1="527.96" x2="420.2" y2="532.02" gradientTransform="matrix(-0.82, 0.58, 0.58, 0.82, 589.12, -199.76)" xlink:href="#Áåçûìÿííûé_ãðàäèåíò_42"/><linearGradient id="Áåçûìÿííûé_ãðàäèåíò_31-3" x1="58.43" y1="551.29" x2="275.25" y2="551.29" xlink:href="#Áåçûìÿííûé_ãðàäèåíò_31"/><linearGradient id="Áåçûìÿííûé_ãðàäèåíò_42-4" x1="87.41" y1="512.16" x2="247.59" y2="512.16" gradientTransform="matrix(1, 0, 0, 1, 0, 0)" xlink:href="#Áåçûìÿííûé_ãðàäèåíò_42"/><linearGradient id="Áåçûìÿííûé_ãðàäèåíò_42-5" x1="64.81" y1="448.02" x2="231.17" y2="448.02" gradientTransform="matrix(1, 0, 0, 1, 0, 0)" xlink:href="#Áåçûìÿííûé_ãðàäèåíò_42"/><linearGradient id="Áåçûìÿííûé_ãðàäèåíò_31-4" x1="52.95" y1="441.05" x2="222.59" y2="441.05" xlink:href="#Áåçûìÿííûé_ãðàäèåíò_31"/><linearGradient id="Áåçûìÿííûé_ãðàäèåíò_42-6" x1="9.62" y1="275.72" x2="212.52" y2="275.72" gradientTransform="matrix(1, 0, 0, 1, 0, 0)" xlink:href="#Áåçûìÿííûé_ãðàäèåíò_42"/><linearGradient id="Áåçûìÿííûé_ãðàäèåíò_42-7" x1="4.75" y1="114.87" x2="411.72" y2="114.87" gradientTransform="matrix(1, 0, 0, 1, 0, 0)" xlink:href="#Áåçûìÿííûé_ãðàäèåíò_42"/><linearGradient id="Áåçûìÿííûé_ãðàäèåíò_31-5" x1="380.11" y1="226.81" x2="403.23" y2="226.81" xlink:href="#Áåçûìÿííûé_ãðàäèåíò_31"/><linearGradient id="Áåçûìÿííûé_ãðàäèåíò_31-6" x1="4.75" y1="125.88" x2="397.95" y2="125.88" xlink:href="#Áåçûìÿííûé_ãðàäèåíò_31"/><linearGradient id="Áåçûìÿííûé_ãðàäèåíò_31-7" x1="0" y1="285.64" x2="193.6" y2="285.64" xlink:href="#Áåçûìÿííûé_ãðàäèåíò_31"/><linearGradient id="Áåçûìÿííûé_ãðàäèåíò_31-8" x1="51.85" y1="405.49" x2="88.75" y2="405.49" xlink:href="#Áåçûìÿííûé_ãðàäèåíò_31"/><linearGradient id="Áåçûìÿííûé_ãðàäèåíò_42-8" x1="22.93" y1="466.98" x2="189.29" y2="466.98" gradientTransform="matrix(1, 0, 0, 1, 0, 0)" xlink:href="#Áåçûìÿííûé_ãðàäèåíò_42"/><linearGradient id="Áåçûìÿííûé_ãðàäèåíò_31-9" x1="11.06" y1="460" x2="180.71" y2="460" xlink:href="#Áåçûìÿííûé_ãðàäèåíò_31"/><linearGradient id="Áåçûìÿííûé_ãðàäèåíò_37-4" x1="321.74" y1="502.57" x2="339.61" y2="502.57" gradientTransform="matrix(1, 0, 0, 1, 0, 0)" xlink:href="#Áåçûìÿííûé_ãðàäèåíò_37"/><linearGradient id="Áåçûìÿííûé_ãðàäèåíò_37-5" x1="444.3" y1="500.17" x2="462.16" y2="500.17" gradientTransform="matrix(1, 0, 0, 1, 0, 0)" xlink:href="#Áåçûìÿííûé_ãðàäèåíò_37"/><linearGradient id="Áåçûìÿííûé_ãðàäèåíò_37-6" x1="311.29" y1="518.85" x2="478.48" y2="518.85" gradientTransform="matrix(1, 0, 0, 1, 0, 0)" xlink:href="#Áåçûìÿííûé_ãðàäèåíò_37"/><linearGradient id="Áåçûìÿííûé_ãðàäèåíò_37-7" x1="384.34" y1="574.23" x2="409.83" y2="574.23" gradientTransform="matrix(1, 0, 0, 1, 0, 0)" xlink:href="#Áåçûìÿííûé_ãðàäèåíò_37"/><linearGradient id="Áåçûìÿííûé_ãðàäèåíò_37-8" x1="466.92" y1="534.38" x2="478.48" y2="534.38" gradientTransform="matrix(1, 0, 0, 1, 0, 0)" xlink:href="#Áåçûìÿííûé_ãðàäèåíò_37"/><linearGradient id="Áåçûìÿííûé_ãðàäèåíò_37-9" x1="446.95" y1="559.37" x2="465.57" y2="559.37" gradientTransform="matrix(1, 0, 0, 1, 0, 0)" xlink:href="#Áåçûìÿííûé_ãðàäèåíò_37"/><linearGradient id="Áåçûìÿííûé_ãðàäèåíò_37-10" x1="311.15" y1="537.9" x2="322.85" y2="537.9" gradientTransform="matrix(1, 0, 0, 1, 0, 0)" xlink:href="#Áåçûìÿííûé_ãðàäèåíò_37"/><linearGradient id="Áåçûìÿííûé_ãðàäèåíò_37-11" x1="326.83" y1="562.23" x2="346.65" y2="562.23" gradientTransform="matrix(1, 0, 0, 1, 0, 0)" xlink:href="#Áåçûìÿííûé_ãðàäèåíò_37"/></defs><g class="cls-1"><g id="Layer_2" data-name="Layer 2"><g id="Layer_1-2" data-name="Layer 1"><g class="cls-2"><path class="cls-3" d="M704.59,690.26l-150-85.83a27.23,27.23,0,0,0-27.46.17L377.53,686.2A29.56,29.56,0,0,0,378,737l150,84.56a27.2,27.2,0,0,0,27.1-.13l149.56-80.31a29.57,29.57,0,0,0-.07-50.83Z"/><path class="cls-4" d="M528.07,606.26l-148.71,81.1a30.67,30.67,0,0,0-9.08,8.13,24.69,24.69,0,0,0-4.73,16.84c.08,9.58,7.23,19.54,15.36,24.12l148,83.4a23.17,23.17,0,0,0,8.53,2.83,28.24,28.24,0,0,0,4.69.22A29.35,29.35,0,0,0,555.5,819L703,739.81a30.22,30.22,0,0,0,8-6.73A25.26,25.26,0,0,0,716.87,715c0-9.59-6.94-19.5-15-24.14l-147-84.11a28.77,28.77,0,0,0-13.23-3.8,27.47,27.47,0,0,0-4.16.16A23.75,23.75,0,0,0,528.07,606.26Z"/><path class="cls-5" d="M529,607.92,381.2,688.51c-2.95,1.74-7.29,5.11-9.19,7.88A21,21,0,0,0,367.76,713c.08,8.62,8.77,18.86,16.09,23l145.92,82.24a19.9,19.9,0,0,0,8.42,2.55,30.44,30.44,0,0,0,4.58,0c3.9,0,9.71-2.09,13.12-4.05l145.52-78.14a32.75,32.75,0,0,0,8-6.48,21.8,21.8,0,0,0,5.21-17.68c0-8.63-8.32-18.74-15.62-22.91L555.11,609.08c-3.4-2-9-4-12.87-4a30.29,30.29,0,0,0-4,0A20.85,20.85,0,0,0,529,607.92Z"/><path class="cls-6" d="M529.89,609.58,383,689.67c-2.62,1.55-7.6,5.16-9.29,7.62A18,18,0,0,0,370,713.56c.06,7.67,10.31,18.18,16.81,21.85l143.86,81.08a17.39,17.39,0,0,0,8.32,2.26c1.15.21,3.3-.21,4.47-.21,3.46,0,9.82-2.5,12.85-4.24l143.49-77c2.28-1.31,6.44-4.22,8-6.24a18.91,18.91,0,0,0,4.63-17.27c0-7.68-9.69-18-16.18-21.68L555.35,611.4c-3-1.73-9.05-4.14-12.51-4.14a32.13,32.13,0,0,0-3.91-.21A18.26,18.26,0,0,0,529.89,609.58Z"/><path class="cls-7" d="M530.81,611.24,384.87,690.83c-2.3,1.36-7.92,5.2-9.4,7.36a15.73,15.73,0,0,0-3.28,16c.06,6.71,11.85,17.5,17.54,20.71l141.81,79.93a15.2,15.2,0,0,0,8.21,2c1,.19,3.33-.42,4.35-.42,3,0,9.93-2.9,12.59-4.43L698.15,736c2-1.16,6.64-4.24,8-6a16.57,16.57,0,0,0,4-16.87c0-6.71-11.06-17.2-16.74-20.45L555.6,613.72c-2.65-1.51-9.13-4.31-12.15-4.31-.92,0-2.88-.53-3.78-.38A16,16,0,0,0,530.81,611.24Z"/><path class="cls-8" d="M531.72,612.91,386.7,692c-2,1.16-8.23,5.25-9.5,7.1a13.87,13.87,0,0,0-2.79,15.71c0,5.75,13.38,16.82,18.26,19.57l139.75,78.77a13.4,13.4,0,0,0,8.11,1.68c.86.15,3.37-.64,4.24-.64,2.6,0,10-3.31,12.32-4.62L696.52,734.7c1.71-1,6.84-4.25,8-5.76A14.61,14.61,0,0,0,708,712.47c0-5.76-12.43-16.44-17.29-19.22l-134.89-77.2c-2.26-1.3-9.19-4.48-11.78-4.48-.79,0-2.89-.7-3.66-.57A14.12,14.12,0,0,0,531.72,612.91Z"/><path class="cls-9" d="M532.63,614.57,388.54,693.15c-1.64,1-8.55,5.3-9.61,6.83-4.43,3.93-5.24,11-2.31,15.44,0,4.79,14.93,16.14,19,18.43L533.3,811.46a12,12,0,0,0,8,1.39c.72.13,3.4-.85,4.13-.85,2.17,0,10.15-3.71,12-4.8l137.4-73.78c1.43-.83,7-4.26,8-5.52,4.75-4,5.8-11.29,2.88-16.06,0-4.8-13.8-15.67-17.86-18L556.09,618.37c-1.89-1.08-9.27-4.65-11.43-4.65-.65,0-2.89-.85-3.53-.75A12.55,12.55,0,0,0,532.63,614.57Z"/><path class="cls-10" d="M533.54,616.23,390.37,694.31c-1.31.78-8.86,5.34-9.71,6.57-4.6,3.77-5.24,11-1.82,15.16,0,3.83,16.46,15.46,19.71,17.29l135.64,76.45a10.75,10.75,0,0,0,7.9,1.11c.57.1,3.44-1.07,4-1.07,1.73,0,10.26-4.12,11.78-5l135.38-72.69c1.14-.66,7.23-4.27,8-5.28,4.86-3.82,5.7-11.23,2.3-15.66,0-3.83-15.18-14.9-18.42-16.75L556.33,620.7c-1.51-.87-9.33-4.82-11.06-4.82-.52,0-2.89-1-3.41-.94A11.21,11.21,0,0,0,533.54,616.23Z"/><path class="cls-11" d="M534.46,617.89,392.2,695.47c-1,.58-9.18,5.39-9.81,6.31-4.77,3.6-5.23,11-1.34,14.87,0,2.88,18,14.79,20.44,16.16L535.07,808.1a9.75,9.75,0,0,0,7.8.82c.43.08,3.47-1.28,3.91-1.28,1.3,0,10.37-4.53,11.51-5.18l133.35-71.6c.85-.5,7.43-4.28,8-5,5-3.63,5.6-11.17,1.72-15.25,0-2.88-16.55-14.13-19-15.52L556.57,623c-1.13-.65-9.4-5-10.69-5-.4,0-2.9-1.18-3.29-1.12A10.08,10.08,0,0,0,534.46,617.89Z"/><path class="cls-12" d="M535.37,619.55,394,696.63c-.66.39-9.5,5.43-9.92,6-4.94,3.44-5.23,11-.85,14.59,0,1.92,19.54,14.11,21.16,15L536,806.42a8.87,8.87,0,0,0,7.7.54c.29,0,3.5-1.5,3.8-1.5.86,0,10.48-4.93,11.24-5.37L690,729.58c.57-.33,7.63-4.29,8-4.79,5.09-3.45,5.5-11.11,1.14-14.85,0-1.92-17.92-13.37-19.55-14.3l-122.81-70.3c-.76-.43-9.47-5.16-10.34-5.16-.26,0-2.9-1.34-3.16-1.3A9.09,9.09,0,0,0,535.37,619.55Z"/><path class="cls-13" d="M536.28,621.22,395.87,697.79c-.32.2-9.81,5.48-10,5.79-5.12,3.27-5.22,11-.37,14.31,0,1,21.08,13.43,21.89,13.88l129.47,73a8.1,8.1,0,0,0,7.59.25c.14,0,3.54-1.71,3.69-1.71.43,0,10.59-5.34,11-5.55L688.38,728.3c.29-.17,7.83-4.3,8-4.55,5.21-3.26,5.41-11,.56-14.45,0-1-19.3-12.6-20.11-13.06l-119.8-68.57c-.37-.22-9.54-5.33-10-5.33-.13,0-2.91-1.51-3-1.49A8.27,8.27,0,0,0,536.28,621.22Z"/><path class="cls-14" d="M544.79,622.83a7.5,7.5,0,0,0-7.59,0l-149.62,81.6a8.17,8.17,0,0,0,.12,14l150,84.55a7.53,7.53,0,0,0,7.49,0l149.57-80.32a8.17,8.17,0,0,0,0-14Z"/></g><path class="cls-15" d="M389.24,701.77l142.15-77.32a28.93,28.93,0,0,1,27.9.15l138.44,77.22a10.69,10.69,0,0,1,0,18.66L559.29,797.7a28.93,28.93,0,0,1-27.9.15L389.24,720.53A10.67,10.67,0,0,1,389.24,701.77Z"/><rect class="cls-16" x="383.66" y="691.1" width="319.55" height="20.52" transform="translate(1086.87 1402.71) rotate(180)"/><path class="cls-3" d="M389.24,680.81l142.15-77.32a28.93,28.93,0,0,1,27.9.15l138.44,77.22a10.69,10.69,0,0,1,0,18.66L559.29,776.74a28.93,28.93,0,0,1-27.9.15L389.24,699.57A10.67,10.67,0,0,1,389.24,680.81Z"/><path class="cls-17" d="M697.74,697l-51.11,28.51L559.3,774.19a28.93,28.93,0,0,1-27.9.15l-91.59-49.8-39.92-21.72L389.24,697a10.68,10.68,0,0,1,0-18.78L531.4,601a28.93,28.93,0,0,1,27.9.15l90,50.22,48.41,27A10.69,10.69,0,0,1,697.74,697Z"/><path class="cls-18" d="M439.29,483.73c-.71.3-5.46,2-6.59,3.57a15.38,15.38,0,0,1-6.05,4c-3.84.56-6.65,4.18-7.25,1.81-.47-1.86,2.06-3.16,3.26-3.9.47-.29,1.77-.8.88-1.3-2.44-1.38-14.63,1.6-15.55.57s.5-1.69,1-2c3.34-2.15,1.85-6.14,6-7.68,3.67-1.34,10.69-1.38,12.59-1.42s9.29-2.61,9.29-2.61S440,483.43,439.29,483.73Z"/><path class="cls-19" d="M420.28,478.52c-4.2.44-3.45,4.94-6.87,6.67-.48.25-1.88.75-1.24,1.78s12.25-.77,14.22.7c.63.47-.27.82-.83,1.05A12.4,12.4,0,0,0,423,489c.53-.29,1.2-.7.5-1.09-2.44-1.38-14.63,1.6-15.55.57s.5-1.69,1-2c3.34-2.15,1.85-6.14,6-7.68,3.67-1.34,10.69-1.38,12.59-1.42s9.29-2.61,9.29-2.61.39,1.09.86,2.51c-2.16.48-5.18,5.67-6.12,5.91C428.37,484,430.15,477.49,420.28,478.52Z"/><path class="cls-20" d="M478.87,464.09c-18.21,2.47-46,9.61-46,9.61s-4.73,6.35.76,15c0,0,32.35-.58,49.1-7S489.94,462.58,478.87,464.09Z"/><path class="cls-20" d="M511.54,417.6c3.09,5,7.6,13.48-2.35,32.71s-18.09,25.76-21,27.68c-3.78,2.48-18.62,7.42-11.77-12.75a397.75,397.75,0,0,1,18.81-44.6C499.14,412.51,508.41,412.49,511.54,417.6Z"/><path class="cls-21" d="M527.75,670.33s-1.18,12.57-.09,15.41c2.7,7-2.88,11.27-9.61,11.34-5.4.06-23,4.94-28.14-1-3.79-4.35,3.4-7.14,10.84-8.37,10.13-1.66,11.79-11.25,11.79-11.25Z"/><path class="cls-22" d="M495.6,516.34c-6.11,22.48,1.18,78.12,3.61,93.72s26.05,19.65,30.55-3.87c1.78-9.32,5.09-42.79,9-61.45s-4-26.72-6.2-29.74C529.08,510.25,498,507.35,495.6,516.34Z"/><path class="cls-22" d="M499.08,610.47c2.21,15.46,9.51,68.33,10,70.74,0,0,12.18,2.61,20.06-1.47,0,0,1.75-69-.66-75.57S497.41,598.86,499.08,610.47Z"/><path class="cls-23" d="M521.4,503.92s1.44,90.46,5.16,105.81,27.13,11.89,28.47-5.57c.67-8.78,6.51-47.68,8.91-66.62s-1.69-28.32-4.18-31.15C555.85,502,521.4,503.92,521.4,503.92Z"/><path class="cls-24" d="M505.36,409.56s8.7-7.12,19.18-6.95,10.49,2,9.87,3.58.05,5.75-3.32,6.26-24.5,4.9-26.82,3.81S505.36,409.56,505.36,409.56Z"/><path class="cls-25" d="M528.56,410.35a30.16,30.16,0,0,1,22.58,10.82c9.72,11.41,9,91.44,11.26,99.83,0,0-37,2.65-62.47-8.43,0,0-2.87-69.3-4-74.89-1-4.88-.06-23.79,12-26.29A61.9,61.9,0,0,1,528.56,410.35Z"/><path class="cls-20" d="M517.43,505.24c-3.31-4.25-3.14-11.64,2.58-14.06,5.54-2.35,11-1.1,16.71-.6l-4.83-23.23c-6.87,1.91-13.63-4.18-17.64-9.79-2.72-3.8-4.48-7.44-4.88-12.19-.45-5.32,1.46-9.93,2.23-15.1.7-4.67.28-9.16,2.81-13.44,1.6-2.69,4.29-4.48,6.11-6.88a69.13,69.13,0,0,0-12.66,1.44c-12,2.5-13,21.41-12,26.29,1.16,5.59,4,74.89,4,74.89,11.43,5,24.71,5.42,35.91,4.41-.43-.07-.85-.12-1.28-.2C526,515.14,522.53,511.78,517.43,505.24Z"/><path class="cls-18" d="M507.48,411.28s3.16,6.69,8.14,6.41,12.18-3.1,13.94-7.26c0,0-7.72-5.79-7.16-13.42S505.66,402.54,507.48,411.28Z"/><path class="cls-19" d="M494,384.59s-.73,5.28.47,8,2.2,2.39,3.44,7.45A14.92,14.92,0,0,0,509.51,411c6,1,11.56-8.7,12.59-14.67.61-3.58,1.18-8-2.06-15.75S500.07,369.07,494,384.59Z"/><path class="cls-22" d="M515.05,369.12s-4.44.67-6.86,9.92-8.37,3.76-13.56,8.13S493,394.6,493,394.6s-8.37-3.58-3.61-13.94S504.68,359.88,515.05,369.12Z"/><path class="cls-22" d="M515.05,369.12s5.82-3.22,8.93,5.82,0,9.9,1.33,16.05c0,0-7.48,1-12.33-2.47s-5.32-6-5.84-8.22S513,367.68,515.05,369.12Z"/><path class="cls-19" d="M518.42,390.7a4,4,0,0,1,2.72-2.65c2.24-.66,3,.31,3.59,4s-1.49,5.17-1.86,6.1-1.73,1.5-3.51-1.55A8.22,8.22,0,0,1,518.42,390.7Z"/><path class="cls-26" d="M524,404.11s10.89-1.75,8.93,3.47-10.11,13.5-10.89,19.48c0,0,4.36,57.82,6.41,72.87,1.77,13,.71,46.36.71,46.36s26.7,4.27,39.06-8.23a287.59,287.59,0,0,0-.75-35.68c-2.42-28.59-5.16-47.45-10.26-72-1.34-6.46-2.31-10.92-12.66-16.36-12-6.34-7.42-9.13-11.71-11.19-1.78-.85-7.52-1.62-9.73-.83Z"/><path class="cls-27" d="M505.36,409.56a23.2,23.2,0,0,0,1.5,10.2,6.13,6.13,0,0,1,.49,3.48,174,174,0,0,0-2.15,21.88c-.11,10.09,5.68,48,4,60.72s-.46,34-.46,34-6,2.63-19.21-5.74c0,0,3.05-45.09,2.37-67.55s-4.31-33.55,0-43.7S500.23,417.77,505.36,409.56Z"/><path class="cls-21" d="M579.42,674.92s3.05,6.44-4.14,12.76-16.21,12.84-9.09,15.17c6.66,2.17,12.51-6,26.31-12.05,12.91-5.64,6.38-11.37,3.88-15.79-1.45-2.57-3.14-5.51-3.14-5.51Z"/><path class="cls-23" d="M529.72,615.71c4.25,6.27,47.41,63.62,49,65.5,0,0,11.9-3.7,16.77-11.11,0,0-23.22-59.45-45.09-69.05C544,598.23,523.14,606,529.72,615.71Z"/><path class="cls-28" d="M550.9,418.8c15.39,9.7,8,64.16-4.36,74.26-3.94,3.22-13.08,2.05-13.84-14.38s.66-50.36.77-52.93C534,413.47,546.18,415.83,550.9,418.8Z"/><path class="cls-20" d="M539.08,466.8a13.07,13.07,0,0,1,.38,5,13.86,13.86,0,0,0-2.93,1.77c-2.66,2-3.6,5.14-3.55,8.34-.13-1-.23-2.07-.28-3.22-.76-16.43.66-50.36.77-52.93.45-10.3,9.32-10.64,14.75-8.45-5,1.13-13.05,1.17-10.19,7.18.17.37,4.19,6,4.23,6.45,1.08,9.43-7.53,18.15-6.27,27.81C536.4,461.91,538.19,463.93,539.08,466.8Z"/><path class="cls-19" d="M498.61,508.6s-4,1.23-7.48,2.75-4,2.66-6.05,2.86c-.62.06.55,2.77,5.08.88s-6.12,3.54-7.11,6.75-1.85,5,0,4.43,1.27-4.11,3.66-5.17c0,0-3.7,5.1-2.07,8.33.37.73,5.6,1.49,6.9-1.47a6.68,6.68,0,0,1,4.18-3.91c1.87-.79,8.34-5.29,8.34-5.29Z"/><path class="cls-29" d="M531.8,477.75c-12.66,11.16-35.58,29.67-35.58,29.67s-1.42,6.89,7,12.68c0,0,30.66-15.84,42.37-27S539.38,471.06,531.8,477.75Z"/><path class="cls-20" d="M538.49,476.86c-5.54,3.21-9.57,7.77-13.52,12.73-3,3.75-6.58,9.73-10.61,12.35-3,1.95-7.7,2-11.09,3.21a22.24,22.24,0,0,0-7.12,4,7.39,7.39,0,0,1,.07-1.7s22.92-18.51,35.58-29.67a9.57,9.57,0,0,1,8.58-1.73A9.7,9.7,0,0,0,538.49,476.86Z"/><g class="cls-2"><path class="cls-3" d="M255.49,505.32c-48.59-23.23-126.59-22.09-174.22,2.56S34.41,571.33,83,594.56,209.57,616.64,257.2,592,304.06,528.54,255.49,505.32Z"/><path class="cls-4" d="M254.2,506c-47.86-22.88-124.7-21.75-171.61,2.52S36.42,571,84.28,593.89,209,615.64,255.89,591.37,302.05,528.86,254.2,506Z"/><path class="cls-30" d="M252.91,506.65c-47.13-22.54-122.8-21.43-169,2.48s-45.47,61.56,1.67,84.09,122.79,21.43,169-2.48S300,529.18,252.91,506.65Z"/><path class="cls-31" d="M251.62,507.31c-46.4-22.18-120.91-21.09-166.41,2.45s-44.76,60.61,1.64,82.8,120.91,21.09,166.41-2.45S298,529.5,251.62,507.31Z"/><path class="cls-32" d="M250.33,508c-45.68-21.84-119-20.76-163.8,2.41s-44.07,59.66,1.61,81.5,119,20.76,163.81-2.41S296,529.82,250.33,508Z"/><path class="cls-33" d="M249.05,508.65c-45-21.5-117.14-20.44-161.21,2.36s-43.37,58.72,1.59,80.21,117.13,20.44,161.21-2.36S294,530.14,249.05,508.65Z"/><path class="cls-34" d="M247.76,509.31c-44.23-21.15-115.24-20.1-158.61,2.33s-42.66,57.77,1.57,78.92,115.23,20.1,158.6-2.33S292,530.46,247.76,509.31Z"/><path class="cls-35" d="M246.47,510c-43.51-20.8-113.35-19.78-156,2.29s-42,56.82,1.53,77.62,113.35,19.78,156-2.29S290,530.78,246.47,510Z"/><path class="cls-36" d="M245.18,510.65c-42.78-20.46-111.46-19.45-153.4,2.25s-41.27,55.87,1.51,76.32S204.75,608.67,246.7,587,288,531.1,245.18,510.65Z"/><path class="cls-37" d="M243.9,511.31c-42.06-20.11-109.58-19.12-150.81,2.21s-40.56,54.93,1.49,75,109.57,19.11,150.8-2.22S286,531.42,243.9,511.31Z"/><path class="cls-38" d="M242.61,512c-41.33-19.76-107.68-18.79-148.21,2.17s-39.86,54,1.47,73.74,107.68,18.79,148.2-2.17S283.93,531.74,242.61,512Z"/><path class="cls-39" d="M241.32,512.64c-40.61-19.41-105.79-18.45-145.6,2.14s-39.17,53,1.43,72.44,105.79,18.46,145.6-2.13S281.92,532.06,241.32,512.64Z"/></g><path class="cls-40" d="M66.21,521.06l27.7-21.63s-5.24,24.77,17.77,33.73c24.39,9.55,54.21,11,80.45,7.75,16.47-2.07,50.45-38.85,50.45-38.85s30.09,29.52,31.3,34c9.67,35.75-33.42,60.38-84.28,65.86-33.25,3.59-69.95-.33-99.23-17.47C58.94,566.06,50.33,534.84,66.21,521.06Z"/><path class="cls-41" d="M110.79,490c31-11.69,82-11.31,113.32.91s31.32,31.65.2,43.3S142.1,545.59,111,533.43C79.62,521.24,79.54,501.74,110.79,490Z"/><path d="M89.46,382.63l-39,25.25,39,20.34ZM88,425.88,53.26,407.75,88,385.25Z"/><path class="cls-42" d="M104.93,379.09l64.74,35.77s8.84-13.43,23.08-7.53l21.78,12a32.16,32.16,0,0,1,16.64,28.18V497c0,8.84-1.91,20-21.81,20L65.17,423c-2.25-1.26,7-29.8,7-29.8Z"/><path class="cls-43" d="M56.36,387.45,93,365h37.67L96.34,387.67l66.79,36.91a1.58,1.58,0,0,0,2.34-1.38,10.39,10.39,0,0,1,15.4-9.1l25.07,13.81a32.18,32.18,0,0,1,16.65,28.18v49.44a11.56,11.56,0,0,1-17.24,10.07l-148.77-84A7.13,7.13,0,0,1,53,425.39V393.54A7.15,7.15,0,0,1,56.36,387.45Z"/><path class="cls-44" d="M71.62,73.5,208.16,434.74c7.21,12.83,5.3,33.23-4.45,43.61-5.75,6.13-21.05,17.81-21.05,17.81L23.71,100.71A257.41,257.41,0,0,1,9.62,78.77L30.06,58.69C43.41,49.79,63.76,59.52,71.62,73.5Z"/><path class="cls-45" d="M82,4l238.9,136,43.61,35.55,38,20.31a18.1,18.1,0,0,1-17.87,31.48L98.64,68.33a7,7,0,0,0-10.37,6v76l-26.93,19V27.87L51.33,22,4.75,84.07,37,17.47C44.65,2.82,64.66-5.4,82,4Z"/><path class="cls-23" d="M391.85,286.31a1,1,0,0,1,1,1V465a1,1,0,1,1-2.05,0V287.34A1,1,0,0,1,391.85,286.31Z"/><path class="cls-23" d="M416.5,274.75h0a2.75,2.75,0,0,1,0,.4c-.29,7.61-10.73,15.7-25.25,15.15-14.26-.54-23.93-9.11-24-16.62h0v-17.3H416.5Z"/><path class="cls-22" d="M392.47,240.42c14.52.56,24.32,9.42,24,17s-10.73,15.7-25.25,15.15-24.32-9.43-24-17S378,239.86,392.47,240.42Z"/><path class="cls-46" d="M390.67,195.59c6.7-.63,12.43,7,12.56,13.73L403,251A5.69,5.69,0,0,1,400.1,256a15.76,15.76,0,0,1-7.85,2.1,21,21,0,0,1-7.87-1.86,5.68,5.68,0,0,1-3.36-5.08l-.91-41.29C380,203.76,384.61,196.16,390.67,195.59Z"/><path class="cls-47" d="M61.56,12.35l245.6,139.9,43.61,35.55,38,20.3A18.11,18.11,0,0,1,398,223.83h0a18.11,18.11,0,0,1-27,15.76L84.87,80.55a6.94,6.94,0,0,0-10.37,6v76.27L47.56,101.4V40.09l-10-5.9L14.34,79.56,4.75,84.07,35.12,20.53A18.84,18.84,0,0,1,61.56,12.35Z"/><path class="cls-48" d="M10.51,78.13c13.35-8.9,29.79-6.76,41.86,14.62L188.92,454c7.21,12.83,6.8,35.38-6.26,42.17h0c-12.39,6.45-32.1-4.32-39.06-16.44L4.47,120C-2.75,107.38-1.55,86.18,10.51,78.13Z"/><path class="cls-49" d="M177.15,459.15l.62,1.1a28.23,28.23,0,0,1,2.15,19.67c-.43,1.44-1.41,4-3.16,4.9a5.91,5.91,0,0,1-2.55.48c-6.18,0-15.05-5.24-18.94-11L16.19,114.69l27.23-8.16Z"/><polygon class="cls-50" points="88.75 427.05 51.85 407.81 88.75 383.94 88.75 427.05"/><path class="cls-23" d="M23.1,95.53c6.84-2.8,17.51,1.54,21.87,12.23s-.22,21.25-7.06,24-17.5-1.55-21.86-12.24S16.26,98.32,23.1,95.53Z"/><path class="cls-23" d="M36.54,30.85c3.45-1.86,9.34-.14,12.28,5.3S50,47.47,46.51,49.33s-9.34.14-12.28-5.3S33.09,32.71,36.54,30.85Z"/><path class="cls-23" d="M372.49,214.52c3.69-2,9.83-.4,12.77,5s.89,11.46-2.79,13.44-9.82.4-12.76-5S368.82,216.51,372.49,214.52Z"/><path class="cls-51" d="M63,398l64.75,35.78s8.84-13.44,23.08-7.54l21.77,12a32.17,32.17,0,0,1,16.65,28.18V515.9c0,8.85-1.91,20-21.81,20L23.28,442c-2.24-1.27,7-29.81,7-29.81Z"/><path class="cls-52" d="M14.47,406.4l36.61-22.46H88.75l-34.3,22.68,66.8,36.92a1.58,1.58,0,0,0,2.34-1.38,10.38,10.38,0,0,1,15.4-9.1l25.07,13.8a32.19,32.19,0,0,1,16.65,28.19v49.43a11.56,11.56,0,0,1-17.24,10.07l-148.77-84a7.13,7.13,0,0,1-3.64-6.22V412.49A7.17,7.17,0,0,1,14.47,406.4Z"/><path class="cls-22" d="M45.48,423.26l52.93,30c1.59.9,3,3.32,2,4.87s-3.68,1.6-5.2.76L42.13,429.22c-1.57-.88-2.8-3.21-2-4.83C40.94,422.58,43.75,422.28,45.48,423.26Z"/><path class="cls-22" d="M45.48,437.82l52.93,30c1.59.9,3,3.32,2,4.88s-3.68,1.6-5.2.75L42.13,443.77c-1.57-.87-2.8-3.2-2-4.83C40.94,437.14,43.75,436.83,45.48,437.82Z"/><path class="cls-22" d="M141.89,454.35c8.47-3.15,21.14,2,25.77,14.52s-1.58,24.67-10.06,27.82-21.13-2.05-25.76-14.53S133.42,457.49,141.89,454.35Z"/><path class="cls-23" d="M143.77,459.41c6.09-2.25,15.32,1.84,18.84,11.33s-.8,18.62-6.88,20.88-15.32-1.84-18.84-11.33S137.69,461.67,143.77,459.41Z"/><path class="cls-49" d="M102.71,55.29,312.87,172.83c4.17,2.37,7.84,8.72,5.35,12.8-2.38,3.88-9.67,4.19-13.65,2L93.93,70.91c-4.12-2.29-7.35-8.4-5.34-12.66C90.82,53.53,98.17,52.72,102.71,55.29Z"/><polygon class="cls-53" points="321.74 493.6 321.74 508.74 325.44 511.55 339.61 502.57 336.74 494.31 321.74 493.6 321.74 493.6"/><polygon class="cls-54" points="462.16 491.19 462.16 506.34 458.46 509.14 444.3 500.17 447.17 491.91 462.16 491.19 462.16 491.19"/><path class="cls-55" d="M453.76,516.66l8.48-5.13-19.83-9.63-8,4.8c-12.4-4.94-29.51-5.39-29.54-5.39l-.25-7.31H379.12l.26,7.31a112.35,112.35,0,0,0-28.78,7.42l-10.25-5.35L321.74,514l10.8,5.29c-6.07,4.78-10.21,4.71-11.22,8.49l-10,6.6v13.75h11.56c2.15,5.43,4.94,9.48,11.48,14l-7.5,5.47,19.82,9.62,7.86-4.81c4.37,1.89,18.33,5.69,29.55,5.71l.28,6.29h25.49l-.23-6.91a113.32,113.32,0,0,0,28.74-7.11l8.61,4.44,18.58-10.55-9.73-3.91c5.95-4.88,9.65-10.28,11.12-15.77l11.56,0V531l-10.37-7.75C465.67,515,456.87,517.9,453.76,516.66ZM421,550.48c-.52.23-1.07.46-1.61.65-13.94,5.36-35,5.36-48.94,0-.58-.21-1.15-.44-1.72-.69-14.42-6.22-14.42-16.33,0-22.55s37.86-6.25,52.27,0S435.46,544.26,421,550.48Z"/><path class="cls-56" d="M453.76,496.31l8.48-5.13-19.83-9.63-8,4.8c-12.4-5-29.51-5.39-29.54-5.39l-.25-7.31H379.12l.26,7.31a111.94,111.94,0,0,0-28.78,7.42L340.35,483,321.74,493.6l10.8,5.29a31.08,31.08,0,0,0-10.44,15l-10.81.09v13.74h11.56c2.15,5.43,4.94,9.48,11.48,14l-7.5,5.47,19.82,9.62,7.86-4.81c4.37,1.89,18.33,5.69,29.55,5.72l.28,6.28h25.49l-.23-6.91A113.74,113.74,0,0,0,438.34,550l8.61,4.44,18.58-10.55L455.8,540c5.95-4.88,9.65-10.28,11.12-15.77l11.56,0V510.64l-12.38.05C463.66,502.45,456.87,497.55,453.76,496.31ZM421,530.13c-.52.23-1.07.46-1.61.65-13.94,5.36-35,5.36-48.94,0-.58-.21-1.15-.44-1.72-.69-14.42-6.22-14.42-16.33,0-22.56s37.86-6.24,52.27,0S435.46,523.91,421,530.13Z"/><polygon class="cls-57" points="384.33 564.05 384.33 584.4 409.83 584.4 409.83 564.05 384.33 564.05 384.33 564.05"/><polygon class="cls-58" points="478.48 524.2 478.48 544.55 466.92 544.55 466.92 524.24 478.48 524.2 478.48 524.2"/><path class="cls-59" d="M447,554.47v20.35s19.55-10.17,18.58-10.55,0-20.35,0-20.35L447,554.47Z"/><path class="cls-60" d="M311.29,527.73s-.33,20.35,0,20.35h11.56V527.73Z"/><polygon class="cls-61" points="346.65 556.86 346.65 577.21 326.83 567.59 326.83 547.24 346.65 556.86 346.65 556.86"/><path class="cls-23" d="M416.87,576.06h-.17a1.73,1.73,0,0,1-1.55-1.9l.25-15.62a9,9,0,0,0-.62-3.06L390.3,465.21a1.73,1.73,0,0,1,3.31-1l24.44,90.15a11.85,11.85,0,0,1,.81,4.38l-.26,15.8A1.73,1.73,0,0,1,416.87,576.06Z"/><path class="cls-23" d="M360.62,485.36a1.73,1.73,0,0,1-1-3.12l3.18-2.39,26.67-16.48a1.73,1.73,0,0,1,2.25,2.64l-26.75,16.55L361.67,485A1.72,1.72,0,0,1,360.62,485.36Z"/></g></g></g></svg>