<svg xmlns="http://www.w3.org/2000/svg" xmlns:xlink="http://www.w3.org/1999/xlink" viewBox="0 0 719.08 825.08"><defs><style>.cls-1{isolation:isolate;}.cls-2{mix-blend-mode:multiply;}.cls-3{fill:#fff;}.cls-4{fill:#f9f9fa;}.cls-5{fill:#f4f4f5;}.cls-6{fill:#eeeef0;}.cls-7{fill:#e8e9eb;}.cls-8{fill:#e3e3e6;}.cls-9{fill:#dddee0;}.cls-10{fill:#d8d8db;}.cls-11{fill:#d2d3d6;}.cls-12{fill:#cccdd1;}.cls-13{fill:#c7c8cc;}.cls-14{fill:#c1c2c7;}.cls-15{fill:url(#Áåçûìÿííûé_ãðàäèåíò_31);}.cls-16{fill:url(#Áåçûìÿííûé_ãðàäèåíò_31-2);}.cls-17{fill:#f8f6fb;}.cls-18{fill:#ffb78d;}.cls-19{fill:#ffd1aa;}.cls-20{fill:#bac1e8;}.cls-21{fill:#0d0848;}.cls-22{fill:#1d1273;}.cls-23{fill:#3531a1;}.cls-24{fill:url(#Áåçûìÿííûé_ãðàäèåíò_2);}.cls-25{fill:url(#Áåçûìÿííûé_ãðàäèåíò_42);}.cls-26{fill:url(#Áåçûìÿííûé_ãðàäèåíò_2-2);}.cls-27{fill:url(#Áåçûìÿííûé_ãðàäèåíò_2-3);}.cls-28{fill:url(#Áåçûìÿííûé_ãðàäèåíò_42-2);}.cls-29{fill:url(#Áåçûìÿííûé_ãðàäèåíò_42-3);}.cls-30{fill:#f3f4f4;}.cls-31{fill:#eeeeef;}.cls-32{fill:#e8e8ea;}.cls-33{fill:#e2e3e5;}.cls-34{fill:#dcdddf;}.cls-35{fill:#d6d8da;}.cls-36{fill:#d0d2d5;}.cls-37{fill:#cbccd0;}.cls-38{fill:#c5c7ca;}.cls-39{fill:#bfc1c5;}.cls-40{fill:url(#Áåçûìÿííûé_ãðàäèåíò_31-3);}.cls-41{fill:url(#Áåçûìÿííûé_ãðàäèåíò_42-4);}.cls-42{fill:url(#Áåçûìÿííûé_ãðàäèåíò_42-5);}.cls-43{fill:url(#Áåçûìÿííûé_ãðàäèåíò_31-4);}.cls-44{fill:url(#Áåçûìÿííûé_ãðàäèåíò_42-6);}.cls-45{fill:url(#Áåçûìÿííûé_ãðàäèåíò_42-7);}.cls-46{fill:url(#Áåçûìÿííûé_ãðàäèåíò_31-5);}.cls-47{fill:url(#Áåçûìÿííûé_ãðàäèåíò_31-6);}.cls-48{fill:url(#Áåçûìÿííûé_ãðàäèåíò_31-7);}.cls-49{fill:#f0f0fb;}.cls-50{fill:url(#Áåçûìÿííûé_ãðàäèåíò_31-8);}.cls-51{fill:url(#Áåçûìÿííûé_ãðàäèåíò_42-8);}.cls-52{fill:url(#Áåçûìÿííûé_ãðàäèåíò_31-9);}.cls-53{fill:url(#Áåçûìÿííûé_ãðàäèåíò_2-4);}.cls-54{fill:url(#Áåçûìÿííûé_ãðàäèåíò_2-5);}.cls-55{fill:#f70;}.cls-56{fill:url(#Áåçûìÿííûé_ãðàäèåíò_2-6);}.cls-57{fill:url(#Áåçûìÿííûé_ãðàäèåíò_2-7);}.cls-58{fill:url(#Áåçûìÿííûé_ãðàäèåíò_2-8);}.cls-59{fill:url(#Áåçûìÿííûé_ãðàäèåíò_2-9);}.cls-60{fill:url(#Áåçûìÿííûé_ãðàäèåíò_2-10);}.cls-61{fill:url(#Áåçûìÿííûé_ãðàäèåíò_2-11);}</style><linearGradient id="Áåçûìÿííûé_ãðàäèåíò_31" x1="1829.16" y1="1452.46" x2="2148.7" y2="1452.46" gradientUnits="userSpaceOnUse"><stop offset="0" stop-color="#c8d6f9"/><stop offset="1" stop-color="#bac1e8"/></linearGradient><linearGradient id="Áåçûìÿííûé_ãðàäèåíò_31-2" x1="1829.16" y1="1442.67" x2="2148.7" y2="1442.67" gradientTransform="translate(3977.86 2885.34) rotate(-180)" xlink:href="#Áåçûìÿííûé_ãðàäèåíò_31"/><linearGradient id="Áåçûìÿííûé_ãðàäèåíò_2" x1="1916.83" y1="1150.83" x2="1947.99" y2="1150.83" gradientTransform="matrix(-1, 0, 0, 1, 3896.95, 0)" gradientUnits="userSpaceOnUse"><stop offset="0" stop-color="#ffad00"/><stop offset="1" stop-color="#f70"/></linearGradient><linearGradient id="Áåçûìÿííûé_ãðàäèåíò_42" x1="1859.9" y1="1206.92" x2="1926.7" y2="1206.92" gradientTransform="translate(81.2)" gradientUnits="userSpaceOnUse"><stop offset="0" stop-color="#f0f0fb"/><stop offset="1" stop-color="#d2d7f6"/></linearGradient><linearGradient id="Áåçûìÿííûé_ãðàäèåíò_2-2" x1="1216.22" y1="1215.66" x2="1262.64" y2="1215.66" gradientTransform="matrix(-1, 0, 0, 1, 3230.16, 0)" xlink:href="#Áåçûìÿííûé_ãðàäèåíò_2"/><linearGradient id="Áåçûìÿííûé_ãðàäèåíò_2-3" x1="1275.19" y1="1216.19" x2="1295.18" y2="1216.19" gradientTransform="matrix(-1, 0, 0, 1, 3230.16, 0)" xlink:href="#Áåçûìÿííûé_ãðàäèåíò_2"/><linearGradient id="Áåçûìÿííûé_ãðàäèåíò_42-2" x1="1933.09" y1="1201.89" x2="1886.41" y2="1205.94" gradientTransform="matrix(-0.99, 0.13, 0.13, 0.99, 3715.39, -243.32)" xlink:href="#Áåçûìÿííûé_ãðàäèåíò_42"/><linearGradient id="Áåçûìÿííûé_ãðàäèåíò_42-3" x1="1912.38" y1="1269.27" x2="1865.7" y2="1273.33" gradientTransform="matrix(-0.82, 0.58, 0.58, 0.82, 2783.84, -899.92)" xlink:href="#Áåçûìÿííûé_ãðàäèåíò_42"/><linearGradient id="Áåçûìÿííûé_ãðàäèåíò_31-3" x1="1503.92" y1="1292.61" x2="1720.74" y2="1292.61" xlink:href="#Áåçûìÿííûé_ãðàäèåíò_31"/><linearGradient id="Áåçûìÿííûé_ãðàäèåíò_42-4" x1="1532.9" y1="1253.47" x2="1693.09" y2="1253.47" gradientTransform="matrix(1, 0, 0, 1, 0, 0)" xlink:href="#Áåçûìÿííûé_ãðàäèåíò_42"/><linearGradient id="Áåçûìÿííûé_ãðàäèåíò_42-5" x1="1510.31" y1="1189.34" x2="1676.67" y2="1189.34" gradientTransform="matrix(1, 0, 0, 1, 0, 0)" xlink:href="#Áåçûìÿííûé_ãðàäèåíò_42"/><linearGradient id="Áåçûìÿííûé_ãðàäèåíò_31-4" x1="1498.44" y1="1182.36" x2="1668.08" y2="1182.36" xlink:href="#Áåçûìÿííûé_ãðàäèåíò_31"/><linearGradient id="Áåçûìÿííûé_ãðàäèåíò_42-6" x1="1455.11" y1="1017.03" x2="1658.01" y2="1017.03" gradientTransform="matrix(1, 0, 0, 1, 0, 0)" xlink:href="#Áåçûìÿííûé_ãðàäèåíò_42"/><linearGradient id="Áåçûìÿííûé_ãðàäèåíò_42-7" x1="1450.24" y1="856.18" x2="1857.22" y2="856.18" gradientTransform="matrix(1, 0, 0, 1, 0, 0)" xlink:href="#Áåçûìÿííûé_ãðàäèåíò_42"/><linearGradient id="Áåçûìÿííûé_ãðàäèåíò_31-5" x1="1825.61" y1="968.13" x2="1848.72" y2="968.13" xlink:href="#Áåçûìÿííûé_ãðàäèåíò_31"/><linearGradient id="Áåçûìÿííûé_ãðàäèåíò_31-6" x1="1450.24" y1="867.2" x2="1843.44" y2="867.2" xlink:href="#Áåçûìÿííûé_ãðàäèåíò_31"/><linearGradient id="Áåçûìÿííûé_ãðàäèåíò_31-7" x1="1445.5" y1="1026.96" x2="1639.09" y2="1026.96" xlink:href="#Áåçûìÿííûé_ãðàäèåíò_31"/><linearGradient id="Áåçûìÿííûé_ãðàäèåíò_31-8" x1="51.85" y1="405.49" x2="88.75" y2="405.49" xlink:href="#Áåçûìÿííûé_ãðàäèåíò_31"/><linearGradient id="Áåçûìÿííûé_ãðàäèåíò_42-8" x1="1468.43" y1="1208.29" x2="1634.79" y2="1208.29" gradientTransform="matrix(1, 0, 0, 1, 0, 0)" xlink:href="#Áåçûìÿííûé_ãðàäèåíò_42"/><linearGradient id="Áåçûìÿííûé_ãðàäèåíò_31-9" x1="1456.56" y1="1201.31" x2="1626.2" y2="1201.31" xlink:href="#Áåçûìÿííûé_ãðàäèåíò_31"/><linearGradient id="Áåçûìÿííûé_ãðàäèåíò_2-4" x1="321.74" y1="502.57" x2="339.61" y2="502.57" gradientTransform="matrix(1, 0, 0, 1, 0, 0)" xlink:href="#Áåçûìÿííûé_ãðàäèåíò_2"/><linearGradient id="Áåçûìÿííûé_ãðàäèåíò_2-5" x1="444.3" y1="500.17" x2="462.16" y2="500.17" gradientTransform="matrix(1, 0, 0, 1, 0, 0)" xlink:href="#Áåçûìÿííûé_ãðàäèåíò_2"/><linearGradient id="Áåçûìÿííûé_ãðàäèåíò_2-6" x1="1756.79" y1="1260.17" x2="1923.98" y2="1260.17" gradientTransform="matrix(1, 0, 0, 1, 0, 0)" xlink:href="#Áåçûìÿííûé_ãðàäèåíò_2"/><linearGradient id="Áåçûìÿííûé_ãðàäèåíò_2-7" x1="384.34" y1="574.23" x2="409.83" y2="574.23" gradientTransform="matrix(1, 0, 0, 1, 0, 0)" xlink:href="#Áåçûìÿííûé_ãðàäèåíò_2"/><linearGradient id="Áåçûìÿííûé_ãðàäèåíò_2-8" x1="466.92" y1="534.38" x2="478.48" y2="534.38" gradientTransform="matrix(1, 0, 0, 1, 0, 0)" xlink:href="#Áåçûìÿííûé_ãðàäèåíò_2"/><linearGradient id="Áåçûìÿííûé_ãðàäèåíò_2-9" x1="1892.45" y1="1300.68" x2="1911.06" y2="1300.68" gradientTransform="matrix(1, 0, 0, 1, 0, 0)" xlink:href="#Áåçûìÿííûé_ãðàäèåíò_2"/><linearGradient id="Áåçûìÿííûé_ãðàäèåíò_2-10" x1="1756.64" y1="1279.22" x2="1768.35" y2="1279.22" gradientTransform="matrix(1, 0, 0, 1, 0, 0)" xlink:href="#Áåçûìÿííûé_ãðàäèåíò_2"/><linearGradient id="Áåçûìÿííûé_ãðàäèåíò_2-11" x1="326.83" y1="562.23" x2="346.65" y2="562.23" gradientTransform="matrix(1, 0, 0, 1, 0, 0)" xlink:href="#Áåçûìÿííûé_ãðàäèåíò_2"/></defs><g class="cls-1"><g id="Layer_1" data-name="Layer 1"><g class="cls-2"><path class="cls-3" d="M2150.09,1431.58l-150-85.84a27.23,27.23,0,0,0-27.46.17L1823,1427.51a29.56,29.56,0,0,0,.45,50.77l150,84.56a27.23,27.23,0,0,0,13.42,3.55,27.59,27.59,0,0,0,13.67-3.67l149.57-80.31a29.57,29.57,0,0,0-.07-50.83Z" transform="translate(-1445.5 -741.31)"/><path class="cls-4" d="M1973.56,1347.57l-148.7,81.1a30.74,30.74,0,0,0-9.09,8.14,24.77,24.77,0,0,0-4.73,16.83c.08,9.58,7.24,19.54,15.37,24.12l148,83.41a23.35,23.35,0,0,0,8.53,2.83,28.86,28.86,0,0,0,18.08-3.65l147.54-79.22a30.3,30.3,0,0,0,8-6.73,25.38,25.38,0,0,0,5.79-18.08c0-9.6-6.95-19.51-15.06-24.15l-147-84.1a28.71,28.71,0,0,0-13.23-3.8,27.42,27.42,0,0,0-4.16.16A23.84,23.84,0,0,0,1973.56,1347.57Z" transform="translate(-1445.5 -741.31)"/><path class="cls-5" d="M1974.48,1349.23l-147.79,80.6c-3,1.74-7.28,5.1-9.19,7.88a20.9,20.9,0,0,0-4.24,16.55c.07,8.62,8.77,18.86,16.09,23l145.91,82.25a20.11,20.11,0,0,0,8.43,2.54,30.31,30.31,0,0,0,4.57,0c3.9,0,9.71-2.09,13.13-4l145.51-78.13a32.43,32.43,0,0,0,8-6.49,21.79,21.79,0,0,0,5.2-17.68c0-8.63-8.31-18.73-15.61-22.91l-143.94-82.38c-3.39-2-9-4-12.87-4a28.54,28.54,0,0,0-4,0A20.67,20.67,0,0,0,1974.48,1349.23Z" transform="translate(-1445.5 -741.31)"/><path class="cls-6" d="M1975.39,1350.9,1828.53,1431c-2.63,1.54-7.6,5.15-9.3,7.61a18.06,18.06,0,0,0-3.76,16.28c.07,7.66,10.31,18.18,16.82,21.85l143.86,81.08a17.2,17.2,0,0,0,8.32,2.25c1.15.21,3.29-.21,4.46-.21,3.47,0,9.82-2.49,12.86-4.24l143.48-77c2.28-1.32,6.44-4.22,8.05-6.25a18.9,18.9,0,0,0,4.62-17.27c0-7.67-9.69-18-16.17-21.68l-140.92-80.66c-3-1.73-9.06-4.14-12.51-4.14a30.31,30.31,0,0,0-3.91-.2A18.13,18.13,0,0,0,1975.39,1350.9Z" transform="translate(-1445.5 -741.31)"/><path class="cls-7" d="M1976.3,1352.56l-145.94,79.59c-2.29,1.35-7.91,5.2-9.4,7.35a15.74,15.74,0,0,0-3.27,16c0,6.7,11.85,17.5,17.54,20.71l141.8,79.92a15.23,15.23,0,0,0,8.22,2c1,.18,3.33-.43,4.35-.43,3,0,9.93-2.9,12.59-4.42l141.46-76c2-1.15,6.63-4.23,8-6a16.56,16.56,0,0,0,4-16.87c0-6.72-11.06-17.21-16.74-20.45L2001.09,1355c-2.64-1.52-9.12-4.31-12.14-4.31-.92,0-2.89-.53-3.79-.39A16,16,0,0,0,1976.3,1352.56Z" transform="translate(-1445.5 -741.31)"/><path class="cls-8" d="M1977.21,1354.22l-145,79.09c-2,1.16-8.24,5.24-9.51,7.09a13.89,13.89,0,0,0-2.79,15.71c0,5.75,13.39,16.83,18.27,19.58l139.74,78.76a13.43,13.43,0,0,0,8.12,1.68c.86.16,3.36-.64,4.24-.64,2.6,0,10-3.3,12.32-4.61L2142,1476c1.71-1,6.83-4.24,8-5.76a14.61,14.61,0,0,0,3.47-16.47c0-5.75-12.43-16.43-17.3-19.21l-134.88-77.21c-2.27-1.29-9.2-4.48-11.79-4.48-.78,0-2.89-.69-3.66-.57A14.19,14.19,0,0,0,1977.21,1354.22Z" transform="translate(-1445.5 -741.31)"/><path class="cls-9" d="M1978.13,1355.88,1834,1434.47c-1.64,1-8.55,5.29-9.61,6.83-4.42,3.93-5.24,11-2.3,15.43,0,4.79,14.92,16.15,19,18.44l137.69,77.6a12,12,0,0,0,8,1.4c.71.13,3.4-.85,4.13-.85,2.16,0,10.15-3.72,12-4.81l137.4-73.78c1.42-.82,7-4.25,8-5.52,4.76-4,5.8-11.28,2.89-16.06,0-4.8-13.81-15.67-17.86-18l-131.87-75.47c-1.89-1.08-9.26-4.65-11.42-4.65-.66,0-2.89-.86-3.54-.76A12.59,12.59,0,0,0,1978.13,1355.88Z" transform="translate(-1445.5 -741.31)"/><path class="cls-10" d="M1979,1357.54l-143.17,78.09c-1.32.77-8.87,5.34-9.72,6.57-4.59,3.76-5.23,11-1.82,15.15,0,3.83,16.47,15.46,19.72,17.3l135.63,76.44a10.71,10.71,0,0,0,7.9,1.11c.58.11,3.44-1.06,4-1.06,1.74,0,10.27-4.13,11.78-5l135.38-72.69c1.14-.66,7.23-4.26,8-5.27,4.87-3.82,5.7-11.23,2.31-15.66,0-3.84-15.18-14.9-18.42-16.76L2001.82,1362c-1.51-.86-9.33-4.82-11.06-4.82-.52,0-2.89-1-3.4-.94A11.31,11.31,0,0,0,1979,1357.54Z" transform="translate(-1445.5 -741.31)"/><path class="cls-11" d="M1980,1359.21l-142.25,77.58c-1,.58-9.18,5.38-9.82,6.31-4.77,3.6-5.23,11-1.33,14.87,0,2.87,18,14.78,20.44,16.16l133.58,75.28a9.69,9.69,0,0,0,7.79.83c.44.07,3.47-1.28,3.91-1.28,1.3,0,10.37-4.53,11.51-5.18l133.35-71.61c.86-.49,7.43-4.27,8-5,5-3.63,5.61-11.17,1.73-15.26,0-2.87-16.55-14.13-19-15.52l-125.83-72c-1.13-.64-9.4-5-10.7-5-.39,0-2.9-1.18-3.28-1.11A10.06,10.06,0,0,0,1980,1359.21Z" transform="translate(-1445.5 -741.31)"/><path class="cls-12" d="M1980.87,1360.87,1839.53,1438c-.65.38-9.49,5.43-9.92,6-4.94,3.44-5.22,11-.85,14.6,0,1.91,19.54,14.1,21.17,15l131.52,74.13a8.87,8.87,0,0,0,7.69.53c.29,0,3.51-1.49,3.8-1.49.87,0,10.48-4.94,11.24-5.37l131.32-70.52c.57-.33,7.63-4.28,8-4.79,5.1-3.44,5.51-11.11,1.14-14.85,0-1.92-17.92-13.36-19.54-14.29l-122.82-70.3c-.75-.43-9.47-5.16-10.33-5.16-.26,0-2.9-1.34-3.16-1.3A9.09,9.09,0,0,0,1980.87,1360.87Z" transform="translate(-1445.5 -741.31)"/><path class="cls-13" d="M1981.78,1362.53l-140.41,76.58c-.33.19-9.81,5.48-10,5.78-5.11,3.28-5.22,11-.36,14.31,0,1,21.08,13.43,21.89,13.89l129.46,73a8.16,8.16,0,0,0,7.59.25c.15,0,3.54-1.71,3.69-1.71.43,0,10.59-5.34,11-5.56l129.3-69.43c.28-.16,7.82-4.29,8-4.55,5.21-3.25,5.41-11,.56-14.44,0-1-19.29-12.6-20.1-13.06L2002.56,1369c-.38-.21-9.54-5.33-10-5.33-.13,0-2.9-1.5-3-1.48A8.24,8.24,0,0,0,1981.78,1362.53Z" transform="translate(-1445.5 -741.31)"/><path class="cls-14" d="M1990.28,1364.14a7.55,7.55,0,0,0-7.59,0l-149.62,81.6a8.17,8.17,0,0,0,.12,14l150,84.56a7.51,7.51,0,0,0,7.48,0L2140.27,1464a8.17,8.17,0,0,0,0-14Z" transform="translate(-1445.5 -741.31)"/></g><path class="cls-15" d="M1834.74,1443.08l142.15-77.32a28.94,28.94,0,0,1,27.89.15l138.45,77.22a10.69,10.69,0,0,1,0,18.66L2004.78,1539a28.91,28.91,0,0,1-27.89.15l-142.15-77.32A10.67,10.67,0,0,1,1834.74,1443.08Z" transform="translate(-1445.5 -741.31)"/><rect class="cls-16" x="1829.16" y="1432.41" width="319.55" height="20.52" transform="translate(2532.36 2144.02) rotate(180)"/><path class="cls-3" d="M1834.74,1422.13l142.15-77.32a28.89,28.89,0,0,1,27.89.15l138.45,77.22a10.69,10.69,0,0,1,0,18.66l-138.45,77.22a28.91,28.91,0,0,1-27.89.14l-142.15-77.31A10.67,10.67,0,0,1,1834.74,1422.13Z" transform="translate(-1445.5 -741.31)"/><path class="cls-17" d="M2143.23,1438.29l-51.1,28.5-87.34,48.72a28.94,28.94,0,0,1-27.89.14l-91.59-49.8-39.92-21.72-10.66-5.78a10.69,10.69,0,0,1,0-18.78l142.17-77.3a28.86,28.86,0,0,1,27.89.15l90,50.22,48.4,27A10.69,10.69,0,0,1,2143.23,1438.29Z" transform="translate(-1445.5 -741.31)"/><path class="cls-18" d="M1884.79,1225.05c-.71.3-5.47,2-6.6,3.56a15.2,15.2,0,0,1-6,4c-3.84.57-6.66,4.18-7.25,1.82-.47-1.87,2.06-3.16,3.25-3.91.47-.29,1.77-.8.88-1.3-2.44-1.37-14.63,1.61-15.54.57s.5-1.69,1-2c3.34-2.15,1.84-6.14,6-7.68,3.67-1.34,10.69-1.38,12.58-1.42s9.29-2.61,9.29-2.61S1885.5,1224.74,1884.79,1225.05Z" transform="translate(-1445.5 -741.31)"/><path class="cls-19" d="M1865.78,1219.83c-4.2.44-3.46,4.94-6.88,6.68-.48.24-1.88.75-1.24,1.78s12.26-.78,14.23.7c.62.47-.27.81-.83,1a11.27,11.27,0,0,0-2.53.24c.54-.3,1.21-.7.5-1.1-2.44-1.37-14.63,1.61-15.54.57s.5-1.69,1-2c3.34-2.15,1.84-6.14,6-7.67,3.67-1.35,10.69-1.39,12.58-1.43s9.29-2.61,9.29-2.61.39,1.1.87,2.51c-2.16.48-5.19,5.67-6.12,5.91C1873.86,1225.31,1875.65,1218.81,1865.78,1219.83Z" transform="translate(-1445.5 -741.31)"/><path class="cls-20" d="M1924.37,1205.4c-18.21,2.48-46,9.61-46,9.61s-4.73,6.36.76,15c0,0,32.35-.58,49.09-7S1935.43,1203.9,1924.37,1205.4Z" transform="translate(-1445.5 -741.31)"/><path class="cls-20" d="M1957,1158.92c3.09,5,7.61,13.47-2.35,32.7s-18.08,25.76-21,27.69c-3.79,2.47-18.62,7.42-11.77-12.76A395.2,395.2,0,0,1,1940.7,1162C1944.63,1153.82,1953.9,1153.8,1957,1158.92Z" transform="translate(-1445.5 -741.31)"/><path class="cls-21" d="M1973.24,1411.64s-1.18,12.57-.09,15.42c2.71,7-2.88,11.26-9.6,11.33-5.41.06-23,4.94-28.14-.94-3.79-4.35,3.4-7.15,10.83-8.37,10.13-1.66,11.79-11.25,11.79-11.25Z" transform="translate(-1445.5 -741.31)"/><path class="cls-22" d="M1941.09,1257.65c-6.11,22.49,1.19,78.13,3.62,93.73s26,19.64,30.54-3.87c1.79-9.33,5.1-42.79,9.06-61.46s-4-26.71-6.21-29.73C1974.58,1251.57,1943.54,1248.66,1941.09,1257.65Z" transform="translate(-1445.5 -741.31)"/><path class="cls-22" d="M1944.58,1351.79c2.21,15.46,9.51,68.32,10,70.74,0,0,12.18,2.6,20.07-1.47,0,0,1.74-69-.66-75.57S1942.91,1340.17,1944.58,1351.79Z" transform="translate(-1445.5 -741.31)"/><path class="cls-23" d="M1966.9,1245.24s1.44,90.45,5.15,105.81,27.14,11.89,28.48-5.58c.67-8.78,6.51-47.68,8.91-66.61s-1.7-28.33-4.19-31.16C2001.34,1243.26,1966.9,1245.24,1966.9,1245.24Z" transform="translate(-1445.5 -741.31)"/><path class="cls-24" d="M1950.85,1150.88s8.71-7.12,19.19-7,10.48,2,9.86,3.58.06,5.76-3.32,6.27-24.5,4.9-26.81,3.8S1950.85,1150.88,1950.85,1150.88Z" transform="translate(-1445.5 -741.31)"/><path class="cls-25" d="M1974.06,1151.66a30.2,30.2,0,0,1,22.58,10.83c9.71,11.4,9,91.43,11.25,99.82,0,0-37,2.65-62.47-8.43,0,0-2.86-69.3-4-74.88-1-4.89-.07-23.8,11.95-26.29A61.83,61.83,0,0,1,1974.06,1151.66Z" transform="translate(-1445.5 -741.31)"/><path class="cls-20" d="M1962.92,1246.55c-3.3-4.24-3.13-11.63,2.58-14.06,5.54-2.34,11.06-1.09,16.72-.59l-4.83-23.23c-6.87,1.9-13.63-4.18-17.65-9.79-2.72-3.8-4.47-7.44-4.88-12.19-.44-5.32,1.46-9.94,2.24-15.11.7-4.66.28-9.16,2.81-13.43,1.59-2.69,4.29-4.48,6.11-6.88a68.36,68.36,0,0,0-12.67,1.44c-12,2.49-13,21.4-11.95,26.29,1.16,5.58,4,74.88,4,74.88,11.43,5,24.71,5.42,35.91,4.41-.43-.06-.84-.11-1.27-.19C1971.54,1256.46,1968,1253.09,1962.92,1246.55Z" transform="translate(-1445.5 -741.31)"/><path class="cls-18" d="M1953,1152.59s3.17,6.69,8.14,6.42,12.19-3.1,14-7.27c0,0-7.73-5.79-7.17-13.42S1951.15,1143.85,1953,1152.59Z" transform="translate(-1445.5 -741.31)"/><path class="cls-19" d="M1939.45,1125.9s-.74,5.28.46,8,2.21,2.39,3.45,7.45A14.9,14.9,0,0,0,1955,1152.3c6,1,11.56-8.71,12.58-14.68.61-3.57,1.18-8-2-15.75S1945.56,1110.39,1939.45,1125.9Z" transform="translate(-1445.5 -741.31)"/><path class="cls-22" d="M1960.55,1110.44s-4.44.67-6.86,9.91-8.37,3.76-13.56,8.13-1.62,7.43-1.62,7.43-8.38-3.58-3.61-13.94S1950.18,1101.2,1960.55,1110.44Z" transform="translate(-1445.5 -741.31)"/><path class="cls-22" d="M1960.55,1110.44s5.81-3.22,8.93,5.82,0,9.9,1.33,16c0,0-7.48,1-12.34-2.47s-5.31-6-5.83-8.22S1958.47,1109,1960.55,1110.44Z" transform="translate(-1445.5 -741.31)"/><path class="cls-19" d="M1963.92,1132a4,4,0,0,1,2.72-2.64c2.23-.66,3,.31,3.58,4s-1.49,5.17-1.86,6.11-1.73,1.5-3.5-1.56A8.16,8.16,0,0,1,1963.92,1132Z" transform="translate(-1445.5 -741.31)"/><path class="cls-26" d="M1969.49,1145.42s10.88-1.75,8.93,3.47-10.11,13.5-10.9,19.49c0,0,4.37,57.82,6.41,72.87,1.78,13,.71,46.35.71,46.35s26.7,4.28,39.06-8.23a288.5,288.5,0,0,0-.74-35.67c-2.43-28.6-5.16-47.45-10.26-72-1.35-6.46-2.32-10.91-12.66-16.36-12-6.33-7.43-9.12-11.72-11.18-1.77-.86-7.52-1.63-9.73-.84Z" transform="translate(-1445.5 -741.31)"/><path class="cls-27" d="M1950.85,1150.88a23.28,23.28,0,0,0,1.51,10.2,6.27,6.27,0,0,1,.49,3.47,173.68,173.68,0,0,0-2.16,21.89c-.11,10.09,5.69,48,4,60.72s-.46,33.95-.46,33.95-6,2.63-19.21-5.74c0,0,3.06-45.08,2.38-67.55s-4.32-33.55,0-43.69S1945.73,1159.08,1950.85,1150.88Z" transform="translate(-1445.5 -741.31)"/><path class="cls-21" d="M2024.92,1416.24s3,6.44-4.15,12.75-16.2,12.84-9.09,15.17c6.67,2.17,12.52-6,26.32-12,12.9-5.65,6.37-11.37,3.87-15.8-1.45-2.56-3.13-5.5-3.13-5.5Z" transform="translate(-1445.5 -741.31)"/><path class="cls-23" d="M1975.22,1357c4.25,6.26,47.41,63.61,49,65.5,0,0,11.89-3.7,16.77-11.12,0,0-23.22-59.45-45.09-69C1989.46,1339.55,1968.64,1347.31,1975.22,1357Z" transform="translate(-1445.5 -741.31)"/><path class="cls-28" d="M1996.39,1160.11c15.39,9.71,8,64.16-4.36,74.26-3.93,3.22-13.08,2.06-13.84-14.37s.66-50.36.78-52.94C1979.5,1154.79,1991.68,1157.14,1996.39,1160.11Z" transform="translate(-1445.5 -741.31)"/><path class="cls-20" d="M1984.58,1208.11a13.07,13.07,0,0,1,.37,5,13.86,13.86,0,0,0-2.92,1.78c-2.66,2-3.61,5.13-3.56,8.34-.13-1-.23-2.07-.28-3.22-.76-16.44.66-50.36.78-52.94.44-10.29,9.31-10.64,14.75-8.44-5,1.12-13,1.17-10.2,7.18.18.37,4.19,6,4.24,6.45,1.07,9.42-7.54,18.15-6.28,27.81C1981.89,1203.22,1983.69,1205.24,1984.58,1208.11Z" transform="translate(-1445.5 -741.31)"/><path class="cls-19" d="M1944.1,1249.92a78.93,78.93,0,0,0-7.47,2.75c-3.47,1.52-4,2.66-6.06,2.85-.61.06.56,2.77,5.09.89s-6.13,3.54-7.12,6.74-1.84,5,0,4.43,1.27-4.1,3.66-5.17c0,0-3.7,5.1-2.07,8.33.38.74,5.61,1.49,6.9-1.46a6.7,6.7,0,0,1,4.18-3.92c1.88-.79,8.34-5.29,8.34-5.29Z" transform="translate(-1445.5 -741.31)"/><path class="cls-29" d="M1977.29,1219.06c-12.65,11.16-35.58,29.68-35.58,29.68s-1.42,6.88,7,12.67c0,0,30.66-15.83,42.38-27S1984.88,1212.37,1977.29,1219.06Z" transform="translate(-1445.5 -741.31)"/><path class="cls-20" d="M1984,1218.18c-5.54,3.2-9.58,7.77-13.52,12.72-3,3.75-6.58,9.73-10.61,12.36-3,1.94-7.7,2-11.09,3.2a22.37,22.37,0,0,0-7.13,4,7.27,7.27,0,0,1,.07-1.69s22.93-18.52,35.58-29.68a9.59,9.59,0,0,1,8.59-1.72A8.24,8.24,0,0,0,1984,1218.18Z" transform="translate(-1445.5 -741.31)"/><g class="cls-2"><path class="cls-3" d="M1701,1246.63c-48.58-23.23-126.58-22.08-174.21,2.56s-46.87,63.45,1.72,86.68,126.57,22.08,174.21-2.56S1749.56,1269.86,1701,1246.63Z" transform="translate(-1445.5 -741.31)"/><path class="cls-4" d="M1699.69,1247.3c-47.85-22.89-124.69-21.76-171.61,2.52s-46.16,62.5,1.69,85.38,124.69,21.76,171.62-2.52S1747.55,1270.18,1699.69,1247.3Z" transform="translate(-1445.5 -741.31)"/><path class="cls-30" d="M1698.41,1248c-47.14-22.53-122.81-21.42-169,2.49s-45.46,61.55,1.67,84.09,122.8,21.42,169-2.49S1745.53,1270.5,1698.41,1248Z" transform="translate(-1445.5 -741.31)"/><path class="cls-31" d="M1697.12,1248.63c-46.41-22.19-120.92-21.1-166.41,2.44s-44.77,60.61,1.64,82.8,120.91,21.1,166.41-2.44S1743.52,1270.81,1697.12,1248.63Z" transform="translate(-1445.5 -741.31)"/><path class="cls-32" d="M1695.83,1249.3c-45.68-21.85-119-20.77-163.81,2.4s-44.06,59.66,1.62,81.5,119,20.77,163.81-2.4S1741.51,1271.13,1695.83,1249.3Z" transform="translate(-1445.5 -741.31)"/><path class="cls-33" d="M1694.54,1250c-45-21.49-117.13-20.43-161.21,2.37s-43.36,58.71,1.59,80.21,117.13,20.43,161.21-2.37S1739.49,1271.45,1694.54,1250Z" transform="translate(-1445.5 -741.31)"/><path class="cls-34" d="M1693.25,1250.63c-44.23-21.15-115.24-20.11-158.6,2.33s-42.67,57.76,1.56,78.91,115.24,20.11,158.61-2.33S1737.48,1271.77,1693.25,1250.63Z" transform="translate(-1445.5 -741.31)"/><path class="cls-35" d="M1692,1251.29c-43.51-20.8-113.36-19.77-156,2.29s-42,56.83,1.54,77.62,113.35,19.78,156-2.29S1735.47,1272.09,1692,1251.29Z" transform="translate(-1445.5 -741.31)"/><path class="cls-36" d="M1690.68,1252c-42.78-20.45-111.46-19.45-153.41,2.25s-41.26,55.88,1.52,76.33,111.45,19.44,153.4-2.25S1733.45,1272.41,1690.68,1252Z" transform="translate(-1445.5 -741.31)"/><path class="cls-37" d="M1689.39,1252.63c-42.06-20.11-109.57-19.12-150.8,2.21s-40.57,54.93,1.48,75,109.57,19.12,150.81-2.21S1731.44,1272.73,1689.39,1252.63Z" transform="translate(-1445.5 -741.31)"/><path class="cls-38" d="M1688.1,1253.29c-41.33-19.76-107.68-18.78-148.2,2.18s-39.87,54,1.46,73.73S1649,1348,1689.56,1327,1729.43,1273.05,1688.1,1253.29Z" transform="translate(-1445.5 -741.31)"/><path class="cls-39" d="M1686.81,1254c-40.6-19.42-105.79-18.46-145.6,2.13s-39.16,53,1.44,72.45,105.79,18.46,145.6-2.14S1727.42,1273.37,1686.81,1254Z" transform="translate(-1445.5 -741.31)"/></g><path class="cls-40" d="M1511.7,1262.38l27.71-21.63s-5.25,24.76,17.77,33.72c24.39,9.55,54.2,11,80.45,7.75,16.46-2.07,50.44-38.84,50.44-38.84s30.09,29.51,31.3,34c9.68,35.76-33.42,60.38-84.28,65.87-33.25,3.58-69.94-.34-99.22-17.48C1504.43,1307.37,1495.82,1276.15,1511.7,1262.38Z" transform="translate(-1445.5 -741.31)"/><path class="cls-41" d="M1556.29,1231.35c31-11.69,82-11.32,113.31.9s31.33,31.65.21,43.3-82.21,11.35-113.32-.81C1525.12,1262.56,1525,1243.06,1556.29,1231.35Z" transform="translate(-1445.5 -741.31)"/><path d="M1535,1124l-39,25.24,39,20.35Zm-1.42,43.24-34.78-18.13,34.78-22.5Z" transform="translate(-1445.5 -741.31)"/><path class="cls-42" d="M1550.42,1120.4l64.75,35.78s8.83-13.44,23.08-7.54l21.77,12a32.18,32.18,0,0,1,16.65,28.18v49.44c0,8.85-1.92,20-21.81,20l-144.2-93.94c-2.25-1.27,7-29.81,7-29.81Z" transform="translate(-1445.5 -741.31)"/><path class="cls-43" d="M1501.85,1128.77l36.61-22.47h37.67l-34.3,22.68,66.8,36.92a1.58,1.58,0,0,0,2.34-1.38,10.38,10.38,0,0,1,15.4-9.1l25.06,13.81a32.16,32.16,0,0,1,16.65,28.18v49.43a11.56,11.56,0,0,1-17.24,10.07l-148.77-84a7.13,7.13,0,0,1-3.63-6.21v-31.86A7.13,7.13,0,0,1,1501.85,1128.77Z" transform="translate(-1445.5 -741.31)"/><path class="cls-44" d="M1517.11,814.82l136.55,361.23c7.2,12.83,5.29,33.23-4.46,43.62-5.75,6.13-21,17.81-21,17.81L1469.2,842a259.27,259.27,0,0,1-14.09-21.94L1475.56,800C1488.9,791.11,1509.26,800.83,1517.11,814.82Z" transform="translate(-1445.5 -741.31)"/><path class="cls-45" d="M1527.52,745.33l238.91,136L1810,916.9l38,20.3a18.1,18.1,0,0,1-17.88,31.48l-286.06-159a7,7,0,0,0-10.37,6.05v76l-26.94,19V769.19l-10-5.9-46.59,62.1,32.21-66.61C1490.15,744.13,1510.16,735.92,1527.52,745.33Z" transform="translate(-1445.5 -741.31)"/><path class="cls-23" d="M1837.35,1027.62a1,1,0,0,1,1,1V1206.3a1,1,0,1,1-2.06,0V1028.65A1,1,0,0,1,1837.35,1027.62Z" transform="translate(-1445.5 -741.31)"/><path class="cls-23" d="M1862,1016.06h0c0,.13,0,.26,0,.39-.29,7.61-10.74,15.71-25.26,15.15-14.25-.54-23.93-9.1-24-16.62h0v-17.3H1862Z" transform="translate(-1445.5 -741.31)"/><path class="cls-22" d="M1838,981.73c14.51.56,24.31,9.43,24,17s-10.74,15.71-25.26,15.15-24.31-9.42-24-17S1823.44,981.18,1838,981.73Z" transform="translate(-1445.5 -741.31)"/><path class="cls-46" d="M1836.16,936.91c6.71-.64,12.44,7,12.56,13.72l-.25,41.73a5.65,5.65,0,0,1-2.88,4.92,15.72,15.72,0,0,1-7.84,2.1,20.76,20.76,0,0,1-7.87-1.86,5.63,5.63,0,0,1-3.36-5.08l-.91-41.29C1825.44,945.07,1830.11,937.48,1836.16,936.91Z" transform="translate(-1445.5 -741.31)"/><path class="cls-47" d="M1507.06,753.67l245.59,139.89,43.61,35.55,38,20.31a18.1,18.1,0,0,1,9.14,15.72h0a18.1,18.1,0,0,1-27,15.76l-286.07-159a7,7,0,0,0-10.37,6v76.26l-26.93-61.45V781.41l-10-5.9-23.22,45.37-9.59,4.51,30.37-63.55A18.84,18.84,0,0,1,1507.06,753.67Z" transform="translate(-1445.5 -741.31)"/><path class="cls-48" d="M1456,819.44c13.34-8.89,29.79-6.75,41.86,14.62l136.54,361.24c7.21,12.83,6.8,35.38-6.25,42.18h0c-12.4,6.45-32.11-4.33-39.06-16.45L1450,861.27C1442.74,848.69,1443.94,827.49,1456,819.44Z" transform="translate(-1445.5 -741.31)"/><path class="cls-49" d="M1622.65,1200.47l.61,1.09a28.17,28.17,0,0,1,2.15,19.67c-.42,1.44-1.41,4-3.16,4.9a5.87,5.87,0,0,1-2.55.49c-6.18,0-15-5.24-18.94-11L1461.69,856l27.22-8.17Z" transform="translate(-1445.5 -741.31)"/><polygon class="cls-50" points="88.75 427.05 51.85 407.81 88.75 383.94 88.75 427.05"/><path class="cls-23" d="M1468.6,836.84c6.84-2.79,17.5,1.54,21.86,12.23s-.21,21.25-7,24-17.5-1.54-21.87-12.23S1461.76,839.63,1468.6,836.84Z" transform="translate(-1445.5 -741.31)"/><path class="cls-23" d="M1482,772.17c3.45-1.87,9.34-.15,12.28,5.3s1.15,11.31-2.3,13.17-9.34.15-12.28-5.3S1478.58,774,1482,772.17Z" transform="translate(-1445.5 -741.31)"/><path class="cls-23" d="M1818,955.83c3.68-2,9.82-.4,12.76,5s.89,11.45-2.78,13.43-9.83.41-12.77-5S1814.31,957.82,1818,955.83Z" transform="translate(-1445.5 -741.31)"/><path class="cls-51" d="M1508.54,1139.35l64.75,35.78s8.84-13.44,23.07-7.54l21.78,12a32.16,32.16,0,0,1,16.65,28.17v49.44c0,8.85-1.92,20-21.82,20l-144.19-93.94c-2.25-1.27,7-29.8,7-29.8Z" transform="translate(-1445.5 -741.31)"/><path class="cls-52" d="M1460,1147.72l36.61-22.47h37.67l-34.3,22.69,66.8,36.91a1.58,1.58,0,0,0,2.34-1.38,10.39,10.39,0,0,1,15.4-9.1l25.07,13.81a32.17,32.17,0,0,1,16.64,28.18v49.44a11.55,11.55,0,0,1-17.23,10.06l-148.78-84a7.16,7.16,0,0,1-3.63-6.23v-31.84A7.15,7.15,0,0,1,1460,1147.72Z" transform="translate(-1445.5 -741.31)"/><path class="cls-22" d="M1491,1164.57l52.94,30c1.59.9,3,3.32,2,4.88s-3.69,1.6-5.2.75l-53.12-29.64c-1.57-.87-2.8-3.2-2-4.83C1486.44,1163.9,1489.24,1163.59,1491,1164.57Z" transform="translate(-1445.5 -741.31)"/><path class="cls-22" d="M1491,1179.13l52.94,30c1.59.9,3,3.33,2,4.88s-3.69,1.6-5.2.76l-53.12-29.64c-1.57-.88-2.8-3.21-2-4.83C1486.44,1178.46,1489.24,1178.15,1491,1179.13Z" transform="translate(-1445.5 -741.31)"/><path class="cls-22" d="M1587.39,1195.66c8.47-3.14,21.13,2,25.76,14.53s-1.58,24.67-10.05,27.81-21.14-2-25.77-14.52S1578.92,1198.8,1587.39,1195.66Z" transform="translate(-1445.5 -741.31)"/><path class="cls-23" d="M1589.27,1200.73c6.08-2.26,15.32,1.84,18.84,11.33s-.81,18.62-6.89,20.87-15.32-1.83-18.84-11.33S1583.18,1203,1589.27,1200.73Z" transform="translate(-1445.5 -741.31)"/><path class="cls-49" d="M1548.2,796.6l210.17,117.55c4.16,2.36,7.84,8.71,5.34,12.8-2.37,3.88-9.67,4.19-13.64,2l-210.64-116.7c-4.13-2.29-7.35-8.4-5.34-12.67C1536.31,794.84,1543.67,794,1548.2,796.6Z" transform="translate(-1445.5 -741.31)"/><polygon class="cls-53" points="321.74 493.6 321.74 508.74 325.44 511.55 339.61 502.57 336.74 494.31 321.74 493.6 321.74 493.6"/><polygon class="cls-54" points="462.16 491.19 462.16 506.34 458.46 509.14 444.3 500.17 447.17 491.91 462.16 491.19 462.16 491.19"/><path class="cls-55" d="M1899.25,1258l8.48-5.13-19.82-9.62-8,4.79c-12.4-4.94-29.51-5.38-29.53-5.38l-.26-7.32h-25.51l.25,7.32a111.76,111.76,0,0,0-28.77,7.42l-10.26-5.36-18.6,10.57,10.8,5.3c-6.07,4.77-10.22,4.7-11.23,8.48l-10,6.61v13.74h11.56c2.14,5.43,4.94,9.49,11.48,14l-7.51,5.46,19.82,9.63,7.87-4.81c4.37,1.89,18.32,5.69,29.55,5.71l.27,6.29h25.5l-.23-6.92a113.13,113.13,0,0,0,28.73-7.1l8.62,4.43,18.58-10.55-9.73-3.91c5.94-4.88,9.65-10.28,11.12-15.76l11.56-.05v-13.55l-10.38-7.75C1911.16,1256.32,1902.37,1259.21,1899.25,1258Zm-32.74,33.82c-.53.23-1.07.47-1.62.65-13.94,5.36-35,5.36-48.93,0-.59-.21-1.16-.44-1.73-.7-14.41-6.22-14.41-16.33,0-22.55s37.86-6.25,52.28,0S1881,1285.57,1866.51,1291.79Z" transform="translate(-1445.5 -741.31)"/><path class="cls-56" d="M1899.25,1237.62l8.48-5.13-19.82-9.62-8,4.79c-12.4-4.94-29.51-5.38-29.53-5.38l-.26-7.32h-25.51l.25,7.32a111.76,111.76,0,0,0-28.77,7.42l-10.26-5.36-18.6,10.57,10.8,5.3a31.12,31.12,0,0,0-10.45,15l-10.8.09V1269h11.56c2.14,5.43,4.94,9.48,11.48,14l-7.51,5.46,19.82,9.63,7.87-4.82c4.37,1.9,18.32,5.7,29.55,5.72l.27,6.29h25.5l-.23-6.92a113.55,113.55,0,0,0,28.73-7.1l8.62,4.43,18.58-10.55-9.73-3.91c5.94-4.88,9.65-10.28,11.12-15.76l11.56,0V1252l-12.38,0C1909.16,1243.76,1902.37,1238.86,1899.25,1237.62Zm-32.74,33.82c-.53.23-1.07.47-1.62.65-13.94,5.36-35,5.36-48.93,0a18.33,18.33,0,0,1-1.73-.69c-14.41-6.22-14.41-16.33,0-22.55s37.86-6.25,52.28,0S1881,1265.22,1866.51,1271.44Z" transform="translate(-1445.5 -741.31)"/><polygon class="cls-57" points="384.33 564.05 384.33 584.4 409.83 584.4 409.83 564.05 384.33 564.05 384.33 564.05"/><polygon class="cls-58" points="478.48 524.2 478.48 544.55 466.92 544.55 466.92 524.24 478.48 524.2 478.48 524.2"/><path class="cls-59" d="M1892.45,1295.78v20.35S1912,1306,1911,1305.58s0-20.35,0-20.35l-18.58,10.55Z" transform="translate(-1445.5 -741.31)"/><path class="cls-60" d="M1756.79,1269s-.33,20.35,0,20.35h11.56V1269Z" transform="translate(-1445.5 -741.31)"/><polygon class="cls-61" points="346.65 556.86 346.65 577.21 326.83 567.59 326.83 547.24 346.65 556.86 346.65 556.86"/><path class="cls-23" d="M1862.37,1317.37h-.18a1.74,1.74,0,0,1-1.55-1.9l.25-15.63a9.14,9.14,0,0,0-.61-3l-24.48-90.26a1.74,1.74,0,1,1,3.31-1l24.43,90.15a11.89,11.89,0,0,1,.82,4.38l-.26,15.8A1.74,1.74,0,0,1,1862.37,1317.37Z" transform="translate(-1445.5 -741.31)"/><path class="cls-23" d="M1806.11,1226.68a1.74,1.74,0,0,1-1-3.12l3.18-2.39,26.67-16.49a1.74,1.74,0,0,1,2.26,2.65l-26.76,16.55-3.26,2.45A1.77,1.77,0,0,1,1806.11,1226.68Z" transform="translate(-1445.5 -741.31)"/></g></g></svg>