<svg xmlns="http://www.w3.org/2000/svg" xmlns:xlink="http://www.w3.org/1999/xlink" viewBox="0 0 566.21 611.25"><defs><style>.cls-1{fill:none;}.cls-2{isolation:isolate;}.cls-123,.cls-3{mix-blend-mode:multiply;}.cls-4{fill:#fff;}.cls-5{fill:#f9f9fa;}.cls-6{fill:#f3f4f4;}.cls-7{fill:#eeeeef;}.cls-8{fill:#e8e8ea;}.cls-9{fill:#e2e3e5;}.cls-10{fill:#dcdddf;}.cls-11{fill:#d6d8da;}.cls-12{fill:#d0d2d5;}.cls-13{fill:#cbccd0;}.cls-14{fill:#c5c7ca;}.cls-15{fill:#bfc1c5;}.cls-16{fill:url(#Áåçûìÿííûé_ãðàäèåíò_31);}.cls-17{fill:url(#Áåçûìÿííûé_ãðàäèåíò_42);}.cls-18{fill:url(#Áåçûìÿííûé_ãðàäèåíò_42-2);}.cls-19{fill:url(#Áåçûìÿííûé_ãðàäèåíò_31-2);}.cls-20{fill:url(#Áåçûìÿííûé_ãðàäèåíò_42-3);}.cls-21{fill:url(#Áåçûìÿííûé_ãðàäèåíò_42-4);}.cls-22{fill:#3531a1;}.cls-23{fill:#1d1273;}.cls-24{fill:url(#Áåçûìÿííûé_ãðàäèåíò_31-3);}.cls-25{fill:url(#Áåçûìÿííûé_ãðàäèåíò_31-4);}.cls-26{fill:url(#Áåçûìÿííûé_ãðàäèåíò_31-5);}.cls-27{fill:#f0f0fb;}.cls-28{fill:url(#Áåçûìÿííûé_ãðàäèåíò_31-6);}.cls-29{fill:url(#Áåçûìÿííûé_ãðàäèåíò_42-5);}.cls-30{fill:url(#Áåçûìÿííûé_ãðàäèåíò_31-7);}.cls-31{fill:#817efe;}.cls-32{fill:#322c8d;}.cls-33{fill:url(#Áåçûìÿííûé_ãðàäèåíò_14);}.cls-34{fill:#ba5700;}.cls-35{fill:url(#Áåçûìÿííûé_ãðàäèåíò_18);}.cls-36{fill:#1e1273;}.cls-37{fill:url(#Áåçûìÿííûé_ãðàäèåíò_18-2);}.cls-38{fill:url(#Áåçûìÿííûé_ãðàäèåíò_4);}.cls-39{fill:url(#Áåçûìÿííûé_ãðàäèåíò_18-3);}.cls-40{fill:#ffad00;}.cls-41{fill:#db6700;}.cls-42{fill:url(#Áåçûìÿííûé_ãðàäèåíò_14-2);}.cls-43{fill:url(#Áåçûìÿííûé_ãðàäèåíò_2);}.cls-44{fill:url(#Áåçûìÿííûé_ãðàäèåíò_2-2);}.cls-45{fill:url(#Áåçûìÿííûé_ãðàäèåíò_14-3);}.cls-46{fill:url(#Áåçûìÿííûé_ãðàäèåíò_18-4);}.cls-47{fill:url(#Áåçûìÿííûé_ãðàäèåíò_18-5);}.cls-48{fill:url(#Áåçûìÿííûé_ãðàäèåíò_18-6);}.cls-49{fill:url(#Áåçûìÿííûé_ãðàäèåíò_81);}.cls-50{fill:url(#Áåçûìÿííûé_ãðàäèåíò_18-7);}.cls-51{fill:url(#Áåçûìÿííûé_ãðàäèåíò_81-2);}.cls-52{fill:#10417c;}.cls-53{fill:url(#Áåçûìÿííûé_ãðàäèåíò_14-4);}.cls-54{fill:#e5ffff;}.cls-55{fill:url(#Áåçûìÿííûé_ãðàäèåíò_81-3);}.cls-56{fill:#f70;}.cls-57{clip-path:url(#clip-path);}.cls-58{fill:url(#Áåçûìÿííûé_ãðàäèåíò_330);}.cls-59{fill:url(#Áåçûìÿííûé_ãðàäèåíò_330-2);}.cls-60{fill:url(#Áåçûìÿííûé_ãðàäèåíò_330-3);}.cls-61{fill:url(#Áåçûìÿííûé_ãðàäèåíò_330-4);}.cls-62{fill:url(#Áåçûìÿííûé_ãðàäèåíò_330-5);}.cls-63{fill:url(#Áåçûìÿííûé_ãðàäèåíò_330-6);}.cls-64{fill:url(#Áåçûìÿííûé_ãðàäèåíò_330-7);}.cls-65{fill:url(#Áåçûìÿííûé_ãðàäèåíò_330-8);}.cls-66{fill:url(#Áåçûìÿííûé_ãðàäèåíò_330-9);}.cls-67{fill:url(#Áåçûìÿííûé_ãðàäèåíò_330-10);}.cls-68{fill:url(#Áåçûìÿííûé_ãðàäèåíò_330-11);}.cls-69{fill:url(#Áåçûìÿííûé_ãðàäèåíò_330-12);}.cls-70{fill:url(#Áåçûìÿííûé_ãðàäèåíò_330-13);}.cls-71{fill:url(#Áåçûìÿííûé_ãðàäèåíò_330-14);}.cls-72{fill:url(#Áåçûìÿííûé_ãðàäèåíò_330-15);}.cls-73{fill:url(#Áåçûìÿííûé_ãðàäèåíò_330-16);}.cls-74{fill:url(#Áåçûìÿííûé_ãðàäèåíò_330-17);}.cls-75{fill:url(#Áåçûìÿííûé_ãðàäèåíò_330-18);}.cls-76{fill:url(#Áåçûìÿííûé_ãðàäèåíò_330-19);}.cls-77{fill:url(#Áåçûìÿííûé_ãðàäèåíò_330-20);}.cls-78{fill:url(#Áåçûìÿííûé_ãðàäèåíò_330-21);}.cls-79{fill:url(#Áåçûìÿííûé_ãðàäèåíò_330-22);}.cls-80{fill:url(#Áåçûìÿííûé_ãðàäèåíò_330-23);}.cls-81{fill:url(#Áåçûìÿííûé_ãðàäèåíò_330-24);}.cls-82{fill:url(#Áåçûìÿííûé_ãðàäèåíò_330-25);}.cls-83{fill:url(#Áåçûìÿííûé_ãðàäèåíò_330-26);}.cls-84{fill:url(#Áåçûìÿííûé_ãðàäèåíò_330-27);}.cls-85{fill:url(#Áåçûìÿííûé_ãðàäèåíò_330-28);}.cls-86{fill:url(#Áåçûìÿííûé_ãðàäèåíò_330-29);}.cls-87{fill:url(#Áåçûìÿííûé_ãðàäèåíò_330-30);}.cls-88{fill:url(#Áåçûìÿííûé_ãðàäèåíò_330-31);}.cls-89{fill:url(#Áåçûìÿííûé_ãðàäèåíò_330-32);}.cls-90{fill:url(#Áåçûìÿííûé_ãðàäèåíò_330-33);}.cls-91{fill:url(#Áåçûìÿííûé_ãðàäèåíò_330-34);}.cls-92{fill:url(#Áåçûìÿííûé_ãðàäèåíò_330-35);}.cls-93{fill:url(#Áåçûìÿííûé_ãðàäèåíò_330-36);}.cls-94{fill:url(#Áåçûìÿííûé_ãðàäèåíò_330-37);}.cls-95{fill:url(#Áåçûìÿííûé_ãðàäèåíò_330-38);}.cls-96{fill:url(#Áåçûìÿííûé_ãðàäèåíò_330-39);}.cls-97{fill:url(#Áåçûìÿííûé_ãðàäèåíò_330-40);}.cls-98{fill:url(#Áåçûìÿííûé_ãðàäèåíò_330-41);}.cls-99{fill:url(#Áåçûìÿííûé_ãðàäèåíò_330-42);}.cls-100{fill:url(#Áåçûìÿííûé_ãðàäèåíò_330-43);}.cls-101{fill:url(#Áåçûìÿííûé_ãðàäèåíò_330-44);}.cls-102{fill:url(#Áåçûìÿííûé_ãðàäèåíò_330-45);}.cls-103{fill:url(#Áåçûìÿííûé_ãðàäèåíò_330-46);}.cls-104{fill:url(#Áåçûìÿííûé_ãðàäèåíò_330-47);}.cls-105{fill:url(#Áåçûìÿííûé_ãðàäèåíò_330-48);}.cls-106{fill:url(#Áåçûìÿííûé_ãðàäèåíò_330-49);}.cls-107{fill:url(#Áåçûìÿííûé_ãðàäèåíò_330-50);}.cls-108{fill:url(#Áåçûìÿííûé_ãðàäèåíò_330-51);}.cls-109{fill:url(#Áåçûìÿííûé_ãðàäèåíò_330-52);}.cls-110{fill:url(#Áåçûìÿííûé_ãðàäèåíò_330-53);}.cls-111{fill:url(#Áåçûìÿííûé_ãðàäèåíò_330-54);}.cls-112{fill:url(#Áåçûìÿííûé_ãðàäèåíò_330-55);}.cls-113{fill:url(#Áåçûìÿííûé_ãðàäèåíò_330-56);}.cls-114{fill:url(#Áåçûìÿííûé_ãðàäèåíò_330-57);}.cls-115{fill:url(#Áåçûìÿííûé_ãðàäèåíò_330-58);}.cls-116{fill:url(#Áåçûìÿííûé_ãðàäèåíò_330-59);}.cls-117{fill:url(#Áåçûìÿííûé_ãðàäèåíò_330-60);}.cls-118{fill:url(#Áåçûìÿííûé_ãðàäèåíò_330-61);}.cls-119{fill:url(#Áåçûìÿííûé_ãðàäèåíò_330-62);}.cls-120{fill:url(#Áåçûìÿííûé_ãðàäèåíò_330-63);}.cls-121{fill:url(#Áåçûìÿííûé_ãðàäèåíò_330-64);}.cls-122{fill:url(#Áåçûìÿííûé_ãðàäèåíò_330-65);}.cls-123{fill:url(#Áåçûìÿííûé_ãðàäèåíò_99);}.cls-124{fill:url(#Áåçûìÿííûé_ãðàäèåíò_58);}.cls-125{fill:url(#Áåçûìÿííûé_ãðàäèåíò_18-8);}.cls-126{fill:url(#Áåçûìÿííûé_ãðàäèåíò_18-9);}.cls-127{fill:url(#Áåçûìÿííûé_ãðàäèåíò_14-5);}.cls-128{fill:#c28218;}.cls-129{fill:#cbd3fa;}.cls-130{fill:#f3f1f6;}.cls-131{fill:#4258a7;}.cls-132{fill:url(#Áåçûìÿííûé_ãðàäèåíò_18-10);}</style><linearGradient id="Áåçûìÿííûé_ãðàäèåíò_31" x1="1503.92" y1="1292.61" x2="1720.74" y2="1292.61" gradientUnits="userSpaceOnUse"><stop offset="0" stop-color="#c8d6f9"/><stop offset="1" stop-color="#bac1e8"/></linearGradient><linearGradient id="Áåçûìÿííûé_ãðàäèåíò_42" x1="1532.9" y1="1253.47" x2="1693.09" y2="1253.47" gradientUnits="userSpaceOnUse"><stop offset="0" stop-color="#f0f0fb"/><stop offset="1" stop-color="#d2d7f6"/></linearGradient><linearGradient id="Áåçûìÿííûé_ãðàäèåíò_42-2" x1="1510.31" y1="1189.34" x2="1676.67" y2="1189.34" xlink:href="#Áåçûìÿííûé_ãðàäèåíò_42"/><linearGradient id="Áåçûìÿííûé_ãðàäèåíò_31-2" x1="1498.44" y1="1182.36" x2="1668.08" y2="1182.36" xlink:href="#Áåçûìÿííûé_ãðàäèåíò_31"/><linearGradient id="Áåçûìÿííûé_ãðàäèåíò_42-3" x1="1455.11" y1="1017.03" x2="1658.01" y2="1017.03" xlink:href="#Áåçûìÿííûé_ãðàäèåíò_42"/><linearGradient id="Áåçûìÿííûé_ãðàäèåíò_42-4" x1="1450.24" y1="856.18" x2="1857.22" y2="856.18" xlink:href="#Áåçûìÿííûé_ãðàäèåíò_42"/><linearGradient id="Áåçûìÿííûé_ãðàäèåíò_31-3" x1="1825.61" y1="968.13" x2="1848.72" y2="968.13" xlink:href="#Áåçûìÿííûé_ãðàäèåíò_31"/><linearGradient id="Áåçûìÿííûé_ãðàäèåíò_31-4" x1="1450.24" y1="867.2" x2="1843.44" y2="867.2" xlink:href="#Áåçûìÿííûé_ãðàäèåíò_31"/><linearGradient id="Áåçûìÿííûé_ãðàäèåíò_31-5" x1="1445.5" y1="1026.96" x2="1639.09" y2="1026.96" xlink:href="#Áåçûìÿííûé_ãðàäèåíò_31"/><linearGradient id="Áåçûìÿííûé_ãðàäèåíò_31-6" x1="51.85" y1="405.49" x2="88.75" y2="405.49" xlink:href="#Áåçûìÿííûé_ãðàäèåíò_31"/><linearGradient id="Áåçûìÿííûé_ãðàäèåíò_42-5" x1="1468.43" y1="1208.29" x2="1634.79" y2="1208.29" xlink:href="#Áåçûìÿííûé_ãðàäèåíò_42"/><linearGradient id="Áåçûìÿííûé_ãðàäèåíò_31-7" x1="1456.56" y1="1201.31" x2="1626.2" y2="1201.31" xlink:href="#Áåçûìÿííûé_ãðàäèåíò_31"/><linearGradient id="Áåçûìÿííûé_ãðàäèåíò_14" x1="568.2" y1="1101.7" x2="629.24" y2="1101.7" gradientTransform="translate(1381.33)" gradientUnits="userSpaceOnUse"><stop offset="0" stop-color="#6a6ae5"/><stop offset="1" stop-color="#322c8d"/></linearGradient><linearGradient id="Áåçûìÿííûé_ãðàäèåíò_18" x1="1723.36" y1="1079.3" x2="1774.09" y2="1079.3" gradientTransform="matrix(-1, 0, 0, 1, 3426.41, 0)" gradientUnits="userSpaceOnUse"><stop offset="0" stop-color="#ffad00"/><stop offset="1" stop-color="#f70"/></linearGradient><linearGradient id="Áåçûìÿííûé_ãðàäèåíò_18-2" x1="2002.59" y1="1235.23" x2="2024.59" y2="1248.53" gradientTransform="matrix(1, 0.58, 0, 1, -1485.49, -2053.59)" xlink:href="#Áåçûìÿííûé_ãðàäèåíò_18"/><linearGradient id="Áåçûìÿííûé_ãðàäèåíò_4" x1="1995.63" y1="1043.53" x2="2039.94" y2="1043.53" gradientTransform="matrix(1, 0.07, 0, 1, -1485.49, -835.31)" gradientUnits="userSpaceOnUse"><stop offset="0" stop-color="#deb951"/><stop offset="1" stop-color="#d6901a"/></linearGradient><linearGradient id="Áåçûìÿííûé_ãðàäèåíò_18-3" x1="1995.63" y1="1250.55" x2="2039.94" y2="1250.55" gradientTransform="matrix(1, 0.58, 0, 1, -1485.49, -2053.59)" xlink:href="#Áåçûìÿííûé_ãðàäèåíò_18"/><linearGradient id="Áåçûìÿííûé_ãðàäèåíò_14-2" x1="961.67" y1="1074.11" x2="974.16" y2="1074.11" gradientTransform="matrix(-1, -0.07, 0, 1, 2966.19, 116.58)" xlink:href="#Áåçûìÿííûé_ãðàäèåíò_14"/><linearGradient id="Áåçûìÿííûé_ãðàäèåíò_2" x1="2225.56" y1="1070.18" x2="2241.34" y2="1070.18" gradientTransform="translate(-558.18)" gradientUnits="userSpaceOnUse"><stop offset="0" stop-color="#322c8d"/><stop offset="1" stop-color="#6a6ae5"/></linearGradient><linearGradient id="Áåçûìÿííûé_ãðàäèåíò_2-2" x1="2222.69" y1="1091.34" x2="2243.85" y2="1091.34" xlink:href="#Áåçûìÿííûé_ãðàäèåíò_2"/><linearGradient id="Áåçûìÿííûé_ãðàäèåíò_14-3" x1="366.63" y1="1013.16" x2="422.79" y2="1013.16" xlink:href="#Áåçûìÿííûé_ãðàäèåíò_14"/><linearGradient id="Áåçûìÿííûé_ãðàäèåíò_18-4" x1="1880.8" y1="998.24" x2="1883.2" y2="1000.13" gradientTransform="translate(-126.01)" xlink:href="#Áåçûìÿííûé_ãðàäèåíò_18"/><linearGradient id="Áåçûìÿííûé_ãðàäèåíò_18-5" x1="1913.16" y1="1021.13" x2="1919.76" y2="1029.38" gradientTransform="translate(-126.01)" xlink:href="#Áåçûìÿííûé_ãðàäèåíò_18"/><linearGradient id="Áåçûìÿííûé_ãðàäèåíò_18-6" x1="1892.96" y1="995.04" x2="1901.91" y2="1003.83" gradientTransform="translate(-126.01)" xlink:href="#Áåçûìÿííûé_ãðàäèåíò_18"/><linearGradient id="Áåçûìÿííûé_ãðàäèåíò_81" x1="1121.1" y1="996.55" x2="1121.1" y2="996.55" gradientTransform="matrix(-1, 0, 0, 1, 2881.25, 0)" gradientUnits="userSpaceOnUse"><stop offset="0" stop-color="#4065a8"/><stop offset="1" stop-color="#284075"/></linearGradient><linearGradient id="Áåçûìÿííûé_ãðàäèåíò_18-7" x1="1907.69" y1="1006.29" x2="1914.28" y2="1016.47" gradientTransform="translate(-126.01)" xlink:href="#Áåçûìÿííûé_ãðàäèåíò_18"/><linearGradient id="Áåçûìÿííûé_ãðàäèåíò_81-2" x1="1094.18" y1="1005.03" x2="1094.59" y2="1004.33" xlink:href="#Áåçûìÿííûé_ãðàäèåíò_81"/><linearGradient id="Áåçûìÿííûé_ãðàäèåíò_14-4" x1="1875.97" y1="1016.49" x2="1918.18" y2="1016.49" gradientTransform="translate(-126.01)" xlink:href="#Áåçûìÿííûé_ãðàäèåíò_14"/><linearGradient id="Áåçûìÿííûé_ãðàäèåíò_81-3" x1="1877.01" y1="1001.78" x2="1876.77" y2="1001.95" gradientTransform="translate(-126.01)" xlink:href="#Áåçûìÿííûé_ãðàäèåíò_81"/><clipPath id="clip-path" transform="translate(-1445.5 -741.31)"><path class="cls-1" d="M1790.92,1036.1l-31.44-18.16a19.29,19.29,0,0,1-6.14-6.68,18.76,18.76,0,0,1-2.73-9.09v-.08a3.64,3.64,0,0,0-.65.94c1.25-2.65,4.5-2.45,8.22.49.24-11.84,11.67-6,15.79,3.15,5.8-1.36,11.84,7.89,10,13.7C1788.28,1021.47,1795,1032,1790.92,1036.1Z"/></clipPath><linearGradient id="Áåçûìÿííûé_ãðàäèåíò_330" x1="1913" y1="1027.77" x2="1909.36" y2="1012.59" gradientTransform="translate(-126.01)" gradientUnits="userSpaceOnUse"><stop offset="0" stop-color="#fff"/><stop offset="1" stop-color="#d5dbeb"/></linearGradient><linearGradient id="Áåçûìÿííûé_ãðàäèåíò_330-2" x1="1912.29" y1="1027.95" x2="1908.65" y2="1012.76" xlink:href="#Áåçûìÿííûé_ãðàäèåíò_330"/><linearGradient id="Áåçûìÿííûé_ãðàäèåíò_330-3" x1="1913.46" y1="1027.66" x2="1909.82" y2="1012.48" xlink:href="#Áåçûìÿííûé_ãðàäèåíò_330"/><linearGradient id="Áåçûìÿííûé_ãðàäèåíò_330-4" x1="1914.89" y1="1027.32" x2="1911.24" y2="1012.13" xlink:href="#Áåçûìÿííûé_ãðàäèåíò_330"/><linearGradient id="Áåçûìÿííûé_ãðàäèåíò_330-5" x1="1912.07" y1="1028" x2="1908.43" y2="1012.81" xlink:href="#Áåçûìÿííûé_ãðàäèåíò_330"/><linearGradient id="Áåçûìÿííûé_ãðàäèåíò_330-6" x1="1910.22" y1="1028.44" x2="1906.58" y2="1013.26" xlink:href="#Áåçûìÿííûé_ãðàäèåíò_330"/><linearGradient id="Áåçûìÿííûé_ãðàäèåíò_330-7" x1="1908.67" y1="1028.81" x2="1905.03" y2="1013.63" xlink:href="#Áåçûìÿííûé_ãðàäèåíò_330"/><linearGradient id="Áåçûìÿííûé_ãðàäèåíò_330-8" x1="1907.15" y1="1029.18" x2="1903.51" y2="1013.99" xlink:href="#Áåçûìÿííûé_ãðàäèåíò_330"/><linearGradient id="Áåçûìÿííûé_ãðàäèåíò_330-9" x1="1906.4" y1="1029.35" x2="1902.75" y2="1014.17" xlink:href="#Áåçûìÿííûé_ãðàäèåíò_330"/><linearGradient id="Áåçûìÿííûé_ãðàäèåíò_330-10" x1="1908.22" y1="1028.92" x2="1904.57" y2="1013.74" xlink:href="#Áåçûìÿííûé_ãðàäèåíò_330"/><linearGradient id="Áåçûìÿííûé_ãðàäèåíò_330-11" x1="1907.92" y1="1028.99" x2="1904.28" y2="1013.81" xlink:href="#Áåçûìÿííûé_ãðàäèåíò_330"/><linearGradient id="Áåçûìÿííûé_ãðàäèåíò_330-12" x1="1908.12" y1="1028.95" x2="1904.48" y2="1013.76" xlink:href="#Áåçûìÿííûé_ãðàäèåíò_330"/><linearGradient id="Áåçûìÿííûé_ãðàäèåíò_330-13" x1="1905.49" y1="1029.58" x2="1901.84" y2="1014.39" xlink:href="#Áåçûìÿííûé_ãðàäèåíò_330"/><linearGradient id="Áåçûìÿííûé_ãðàäèåíò_330-14" x1="1904.72" y1="1029.77" x2="1901.08" y2="1014.58" xlink:href="#Áåçûìÿííûé_ãðàäèåíò_330"/><linearGradient id="Áåçûìÿííûé_ãðàäèåíò_330-15" x1="1904.21" y1="1029.88" x2="1900.56" y2="1014.7" xlink:href="#Áåçûìÿííûé_ãðàäèåíò_330"/><linearGradient id="Áåçûìÿííûé_ãðàäèåíò_330-16" x1="1898.12" y1="1031.35" x2="1894.48" y2="1016.16" xlink:href="#Áåçûìÿííûé_ãðàäèåíò_330"/><linearGradient id="Áåçûìÿííûé_ãðàäèåíò_330-17" x1="1900.76" y1="1030.71" x2="1897.12" y2="1015.53" xlink:href="#Áåçûìÿííûé_ãðàäèåíò_330"/><linearGradient id="Áåçûìÿííûé_ãðàäèåíò_330-18" x1="1912.21" y1="1027.96" x2="1908.57" y2="1012.78" xlink:href="#Áåçûìÿííûé_ãðàäèåíò_330"/><linearGradient id="Áåçûìÿííûé_ãðàäèåíò_330-19" x1="1913.86" y1="1027.57" x2="1910.22" y2="1012.38" xlink:href="#Áåçûìÿííûé_ãðàäèåíò_330"/><linearGradient id="Áåçûìÿííûé_ãðàäèåíò_330-20" x1="1909.84" y1="1028.53" x2="1906.2" y2="1013.35" xlink:href="#Áåçûìÿííûé_ãðàäèåíò_330"/><linearGradient id="Áåçûìÿííûé_ãðàäèåíò_330-21" x1="1905.33" y1="1029.62" x2="1901.69" y2="1014.43" xlink:href="#Áåçûìÿííûé_ãðàäèåíò_330"/><linearGradient id="Áåçûìÿííûé_ãðàäèåíò_330-22" x1="1906.58" y1="1029.32" x2="1902.94" y2="1014.13" xlink:href="#Áåçûìÿííûé_ãðàäèåíò_330"/><linearGradient id="Áåçûìÿííûé_ãðàäèåíò_330-23" x1="1908.68" y1="1028.81" x2="1905.03" y2="1013.63" xlink:href="#Áåçûìÿííûé_ãðàäèåíò_330"/><linearGradient id="Áåçûìÿííûé_ãðàäèåíò_330-24" x1="1910.35" y1="1028.41" x2="1906.7" y2="1013.23" xlink:href="#Áåçûìÿííûé_ãðàäèåíò_330"/><linearGradient id="Áåçûìÿííûé_ãðàäèåíò_330-25" x1="1897.87" y1="1031.41" x2="1894.23" y2="1016.22" xlink:href="#Áåçûìÿííûé_ãðàäèåíò_330"/><linearGradient id="Áåçûìÿííûé_ãðàäèåíò_330-26" x1="1902.73" y1="1030.24" x2="1899.08" y2="1015.05" xlink:href="#Áåçûìÿííûé_ãðàäèåíò_330"/><linearGradient id="Áåçûìÿííûé_ãðàäèåíò_330-27" x1="1905.83" y1="1029.5" x2="1902.18" y2="1014.31" xlink:href="#Áåçûìÿííûé_ãðàäèåíò_330"/><linearGradient id="Áåçûìÿííûé_ãðàäèåíò_330-28" x1="1903.87" y1="1029.97" x2="1900.23" y2="1014.78" xlink:href="#Áåçûìÿííûé_ãðàäèåíò_330"/><linearGradient id="Áåçûìÿííûé_ãðàäèåíò_330-29" x1="1911.38" y1="1028.17" x2="1907.73" y2="1012.98" xlink:href="#Áåçûìÿííûé_ãðàäèåíò_330"/><linearGradient id="Áåçûìÿííûé_ãðàäèåíò_330-30" x1="1911.57" y1="1028.12" x2="1907.93" y2="1012.93" xlink:href="#Áåçûìÿííûé_ãðàäèåíò_330"/><linearGradient id="Áåçûìÿííûé_ãðàäèåíò_330-31" x1="1912.7" y1="1027.85" x2="1909.06" y2="1012.67" xlink:href="#Áåçûìÿííûé_ãðàäèåíò_330"/><linearGradient id="Áåçûìÿííûé_ãðàäèåíò_330-32" x1="1907.97" y1="1028.98" x2="1904.33" y2="1013.8" xlink:href="#Áåçûìÿííûé_ãðàäèåíò_330"/><linearGradient id="Áåçûìÿííûé_ãðàäèåíò_330-33" x1="1910.64" y1="1028.34" x2="1907" y2="1013.15" xlink:href="#Áåçûìÿííûé_ãðàäèåíò_330"/><linearGradient id="Áåçûìÿííûé_ãðàäèåíò_330-34" x1="1909.14" y1="1028.71" x2="1905.49" y2="1013.52" xlink:href="#Áåçûìÿííûé_ãðàäèåíò_330"/><linearGradient id="Áåçûìÿííûé_ãðàäèåíò_330-35" x1="1912.42" y1="1027.91" x2="1908.78" y2="1012.73" xlink:href="#Áåçûìÿííûé_ãðàäèåíò_330"/><linearGradient id="Áåçûìÿííûé_ãðàäèåíò_330-36" x1="1908.87" y1="1028.76" x2="1905.22" y2="1013.58" xlink:href="#Áåçûìÿííûé_ãðàäèåíò_330"/><linearGradient id="Áåçûìÿííûé_ãðàäèåíò_330-37" x1="1907.89" y1="1029" x2="1904.25" y2="1013.81" xlink:href="#Áåçûìÿííûé_ãðàäèåíò_330"/><linearGradient id="Áåçûìÿííûé_ãðàäèåíò_330-38" x1="1907.6" y1="1029.07" x2="1903.96" y2="1013.89" xlink:href="#Áåçûìÿííûé_ãðàäèåíò_330"/><linearGradient id="Áåçûìÿííûé_ãðàäèåíò_330-39" x1="1913.7" y1="1027.61" x2="1910.05" y2="1012.42" xlink:href="#Áåçûìÿííûé_ãðàäèåíò_330"/><linearGradient id="Áåçûìÿííûé_ãðàäèåíò_330-40" x1="1916.19" y1="1027.01" x2="1912.54" y2="1011.83" xlink:href="#Áåçûìÿííûé_ãðàäèåíò_330"/><linearGradient id="Áåçûìÿííûé_ãðàäèåíò_330-41" x1="1908.21" y1="1028.92" x2="1904.57" y2="1013.74" xlink:href="#Áåçûìÿííûé_ãðàäèåíò_330"/><linearGradient id="Áåçûìÿííûé_ãðàäèåíò_330-42" x1="1910.89" y1="1028.28" x2="1907.24" y2="1013.1" xlink:href="#Áåçûìÿííûé_ãðàäèåíò_330"/><linearGradient id="Áåçûìÿííûé_ãðàäèåíò_330-43" x1="1906.45" y1="1029.35" x2="1902.81" y2="1014.16" xlink:href="#Áåçûìÿííûé_ãðàäèåíò_330"/><linearGradient id="Áåçûìÿííûé_ãðàäèåíò_330-44" x1="1908.28" y1="1028.91" x2="1904.63" y2="1013.72" xlink:href="#Áåçûìÿííûé_ãðàäèåíò_330"/><linearGradient id="Áåçûìÿííûé_ãðàäèåíò_330-45" x1="1907.02" y1="1029.21" x2="1903.37" y2="1014.02" xlink:href="#Áåçûìÿííûé_ãðàäèåíò_330"/><linearGradient id="Áåçûìÿííûé_ãðàäèåíò_330-46" x1="1906.84" y1="1029.26" x2="1903.19" y2="1014.07" xlink:href="#Áåçûìÿííûé_ãðàäèåíò_330"/><linearGradient id="Áåçûìÿííûé_ãðàäèåíò_330-47" x1="1906.56" y1="1029.32" x2="1902.92" y2="1014.13" xlink:href="#Áåçûìÿííûé_ãðàäèåíò_330"/><linearGradient id="Áåçûìÿííûé_ãðàäèåíò_330-48" x1="1904.06" y1="1029.92" x2="1900.41" y2="1014.74" gradientTransform="translate(-1571.5 -741.31)" xlink:href="#Áåçûìÿííûé_ãðàäèåíò_330"/><linearGradient id="Áåçûìÿííûé_ãðàäèåíò_330-49" x1="1902.48" y1="1030.3" x2="1898.84" y2="1015.12" gradientTransform="translate(-1571.5 -741.31)" xlink:href="#Áåçûìÿííûé_ãðàäèåíò_330"/><linearGradient id="Áåçûìÿííûé_ãðàäèåíò_330-50" x1="1901.05" y1="1030.64" x2="1897.4" y2="1015.46" xlink:href="#Áåçûìÿííûé_ãðàäèåíò_330"/><linearGradient id="Áåçûìÿííûé_ãðàäèåíò_330-51" x1="1899.49" y1="1031.02" x2="1895.84" y2="1015.83" xlink:href="#Áåçûìÿííûé_ãðàäèåíò_330"/><linearGradient id="Áåçûìÿííûé_ãðàäèåíò_330-52" x1="1899.32" y1="1031.06" x2="1895.67" y2="1015.87" xlink:href="#Áåçûìÿííûé_ãðàäèåíò_330"/><linearGradient id="Áåçûìÿííûé_ãðàäèåíò_330-53" x1="1906.79" y1="1029.26" x2="1903.15" y2="1014.08" xlink:href="#Áåçûìÿííûé_ãðàäèåíò_330"/><linearGradient id="Áåçûìÿííûé_ãðàäèåíò_330-54" x1="1907.08" y1="1029.2" x2="1903.43" y2="1014.01" xlink:href="#Áåçûìÿííûé_ãðàäèåíò_330"/><linearGradient id="Áåçûìÿííûé_ãðàäèåíò_330-55" x1="1907.03" y1="1029.21" x2="1903.38" y2="1014.02" xlink:href="#Áåçûìÿííûé_ãðàäèåíò_330"/><linearGradient id="Áåçûìÿííûé_ãðàäèåíò_330-56" x1="1914.93" y1="1027.31" x2="1911.28" y2="1012.13" xlink:href="#Áåçûìÿííûé_ãðàäèåíò_330"/><linearGradient id="Áåçûìÿííûé_ãðàäèåíò_330-57" x1="1915.49" y1="1027.18" x2="1911.84" y2="1012" gradientTransform="translate(1722.5 -1143.25) rotate(59.87)" xlink:href="#Áåçûìÿííûé_ãðàäèåíò_330"/><linearGradient id="Áåçûìÿííûé_ãðàäèåíò_330-58" x1="1913.85" y1="1027.57" x2="1910.21" y2="1012.38" xlink:href="#Áåçûìÿííûé_ãðàäèåíò_330"/><linearGradient id="Áåçûìÿííûé_ãðàäèåíò_330-59" x1="1908.46" y1="1028.87" x2="1904.81" y2="1013.68" xlink:href="#Áåçûìÿííûé_ãðàäèåíò_330"/><linearGradient id="Áåçûìÿííûé_ãðàäèåíò_330-60" x1="1907.36" y1="1029.13" x2="1903.71" y2="1013.94" gradientTransform="translate(1709.32 -1137.92) rotate(59.82)" xlink:href="#Áåçûìÿííûé_ãðàäèåíò_330"/><linearGradient id="Áåçûìÿííûé_ãðàäèåíò_330-61" x1="1912.43" y1="1027.91" x2="1908.79" y2="1012.72" xlink:href="#Áåçûìÿííûé_ãðàäèåíò_330"/><linearGradient id="Áåçûìÿííûé_ãðàäèåíò_330-62" x1="1900.5" y1="1030.78" x2="1896.85" y2="1015.59" xlink:href="#Áåçûìÿííûé_ãðàäèåíò_330"/><linearGradient id="Áåçûìÿííûé_ãðàäèåíò_330-63" x1="1908.76" y1="1028.79" x2="1905.12" y2="1013.61" xlink:href="#Áåçûìÿííûé_ãðàäèåíò_330"/><linearGradient id="Áåçûìÿííûé_ãðàäèåíò_330-64" x1="1909.1" y1="1028.71" x2="1905.46" y2="1013.52" xlink:href="#Áåçûìÿííûé_ãðàäèåíò_330"/><linearGradient id="Áåçûìÿííûé_ãðàäèåíò_330-65" x1="1905.79" y1="1029.51" x2="1902.14" y2="1014.32" xlink:href="#Áåçûìÿííûé_ãðàäèåíò_330"/><linearGradient id="Áåçûìÿííûé_ãðàäèåíò_99" x1="1889.09" y1="1000.24" x2="1896.35" y2="1025.28" gradientTransform="translate(-126.01)" gradientUnits="userSpaceOnUse"><stop offset="0" stop-color="#60bae4"/><stop offset="1" stop-color="#10417c"/></linearGradient><linearGradient id="Áåçûìÿííûé_ãðàäèåíò_58" x1="1886.51" y1="999.74" x2="1893.8" y2="1024.89" gradientTransform="translate(-126.01)" gradientUnits="userSpaceOnUse"><stop offset="0" stop-color="#60bae4"/><stop offset="1" stop-color="#4371b0"/></linearGradient><linearGradient id="Áåçûìÿííûé_ãðàäèåíò_18-8" x1="1885.3" y1="999.89" x2="1887.54" y2="1021.66" gradientTransform="translate(-126.01)" xlink:href="#Áåçûìÿííûé_ãðàäèåíò_18"/><linearGradient id="Áåçûìÿííûé_ãðàäèåíò_18-9" x1="1525.08" y1="1094" x2="1583.2" y2="1094" xlink:href="#Áåçûìÿííûé_ãðàäèåíò_18"/><linearGradient id="Áåçûìÿííûé_ãðàäèåíò_14-5" x1="1981.07" y1="1095" x2="2011.14" y2="1095" gradientTransform="translate(-126.01)" xlink:href="#Áåçûìÿííûé_ãðàäèåíò_14"/><linearGradient id="Áåçûìÿííûé_ãðàäèåíò_18-10" x1="1869.05" y1="1200.6" x2="1995.99" y2="1200.6" gradientTransform="translate(-126.01)" xlink:href="#Áåçûìÿííûé_ãðàäèåíò_18"/></defs><g class="cls-2"><g id="Layer_1" data-name="Layer 1"><g class="cls-3"><path class="cls-4" d="M1701,1246.63c-48.58-23.23-126.58-22.08-174.21,2.56s-46.87,63.45,1.72,86.68,126.57,22.08,174.21-2.56S1749.56,1269.86,1701,1246.63Z" transform="translate(-1445.5 -741.31)"/><path class="cls-5" d="M1699.69,1247.3c-47.85-22.89-124.69-21.76-171.61,2.52s-46.16,62.5,1.69,85.38,124.69,21.76,171.62-2.52S1747.55,1270.18,1699.69,1247.3Z" transform="translate(-1445.5 -741.31)"/><path class="cls-6" d="M1698.41,1248c-47.14-22.53-122.81-21.42-169,2.49s-45.46,61.55,1.67,84.09,122.8,21.42,169-2.49S1745.53,1270.5,1698.41,1248Z" transform="translate(-1445.5 -741.31)"/><path class="cls-7" d="M1697.12,1248.63c-46.41-22.19-120.92-21.1-166.41,2.44s-44.77,60.61,1.64,82.8,120.91,21.1,166.41-2.44S1743.52,1270.81,1697.12,1248.63Z" transform="translate(-1445.5 -741.31)"/><path class="cls-8" d="M1695.83,1249.3c-45.68-21.85-119-20.77-163.81,2.4s-44.06,59.66,1.62,81.5,119,20.77,163.81-2.4S1741.51,1271.13,1695.83,1249.3Z" transform="translate(-1445.5 -741.31)"/><path class="cls-9" d="M1694.54,1250c-45-21.49-117.13-20.43-161.21,2.37s-43.36,58.71,1.59,80.21,117.13,20.43,161.21-2.37S1739.49,1271.45,1694.54,1250Z" transform="translate(-1445.5 -741.31)"/><path class="cls-10" d="M1693.25,1250.63c-44.23-21.15-115.24-20.11-158.6,2.33s-42.67,57.76,1.56,78.91,115.24,20.11,158.61-2.33S1737.48,1271.77,1693.25,1250.63Z" transform="translate(-1445.5 -741.31)"/><path class="cls-11" d="M1692,1251.29c-43.51-20.8-113.36-19.77-156,2.29s-42,56.83,1.54,77.62,113.35,19.78,156-2.29S1735.47,1272.09,1692,1251.29Z" transform="translate(-1445.5 -741.31)"/><path class="cls-12" d="M1690.68,1252c-42.78-20.45-111.46-19.45-153.41,2.25s-41.26,55.88,1.52,76.33,111.45,19.44,153.4-2.25S1733.45,1272.41,1690.68,1252Z" transform="translate(-1445.5 -741.31)"/><path class="cls-13" d="M1689.39,1252.63c-42.06-20.11-109.57-19.12-150.8,2.21s-40.57,54.93,1.48,75,109.57,19.12,150.81-2.21S1731.44,1272.73,1689.39,1252.63Z" transform="translate(-1445.5 -741.31)"/><path class="cls-14" d="M1688.1,1253.29c-41.33-19.76-107.68-18.78-148.2,2.18s-39.87,54,1.46,73.73S1649,1348,1689.56,1327,1729.43,1273.05,1688.1,1253.29Z" transform="translate(-1445.5 -741.31)"/><path class="cls-15" d="M1686.81,1254c-40.6-19.42-105.79-18.46-145.6,2.13s-39.16,53,1.44,72.45,105.79,18.46,145.6-2.14S1727.42,1273.37,1686.81,1254Z" transform="translate(-1445.5 -741.31)"/></g><path class="cls-16" d="M1511.7,1262.38l27.71-21.63s-5.25,24.76,17.77,33.72c24.39,9.55,54.2,11,80.45,7.75,16.46-2.07,50.44-38.84,50.44-38.84s30.09,29.51,31.3,34c9.68,35.76-33.42,60.38-84.28,65.87-33.25,3.58-69.94-.34-99.22-17.48C1504.43,1307.37,1495.82,1276.15,1511.7,1262.38Z" transform="translate(-1445.5 -741.31)"/><path class="cls-17" d="M1556.29,1231.35c31-11.69,82-11.32,113.31.9s31.33,31.65.21,43.3-82.21,11.35-113.32-.81C1525.12,1262.56,1525,1243.06,1556.29,1231.35Z" transform="translate(-1445.5 -741.31)"/><path d="M1535,1124l-39,25.24,39,20.35Zm-1.42,43.24-34.78-18.13,34.78-22.5Z" transform="translate(-1445.5 -741.31)"/><path class="cls-18" d="M1550.42,1120.4l64.75,35.78s8.83-13.44,23.08-7.54l21.77,12a32.18,32.18,0,0,1,16.65,28.18v49.44c0,8.85-1.92,20-21.81,20l-144.2-93.94c-2.25-1.27,7-29.81,7-29.81Z" transform="translate(-1445.5 -741.31)"/><path class="cls-19" d="M1501.85,1128.77l36.61-22.47h37.67l-34.3,22.68,66.8,36.92a1.58,1.58,0,0,0,2.34-1.38,10.38,10.38,0,0,1,15.4-9.1l25.06,13.81a32.16,32.16,0,0,1,16.65,28.18v49.43a11.56,11.56,0,0,1-17.24,10.07l-148.77-84a7.13,7.13,0,0,1-3.63-6.21v-31.86A7.13,7.13,0,0,1,1501.85,1128.77Z" transform="translate(-1445.5 -741.31)"/><path class="cls-20" d="M1517.11,814.82l136.55,361.23c7.2,12.83,5.29,33.23-4.46,43.62-5.75,6.13-21,17.81-21,17.81L1469.2,842a259.27,259.27,0,0,1-14.09-21.94L1475.56,800C1488.9,791.11,1509.26,800.83,1517.11,814.82Z" transform="translate(-1445.5 -741.31)"/><path class="cls-21" d="M1527.52,745.33l238.91,136L1810,916.9l38,20.3a18.1,18.1,0,0,1-17.88,31.48l-286.06-159a7,7,0,0,0-10.37,6.05v76l-26.94,19V769.19l-10-5.9-46.59,62.1,32.21-66.61C1490.15,744.13,1510.16,735.92,1527.52,745.33Z" transform="translate(-1445.5 -741.31)"/><path class="cls-22" d="M1837.35,1027.62a1,1,0,0,1,1,1V1206.3a1,1,0,1,1-2.06,0V1028.65A1,1,0,0,1,1837.35,1027.62Z" transform="translate(-1445.5 -741.31)"/><path class="cls-22" d="M1862,1016.06h0c0,.13,0,.26,0,.39-.29,7.61-10.74,15.71-25.26,15.15-14.25-.54-23.93-9.1-24-16.62h0v-17.3H1862Z" transform="translate(-1445.5 -741.31)"/><path class="cls-23" d="M1838,981.73c14.51.56,24.31,9.43,24,17s-10.74,15.71-25.26,15.15-24.31-9.42-24-17S1823.44,981.18,1838,981.73Z" transform="translate(-1445.5 -741.31)"/><path class="cls-24" d="M1836.16,936.91c6.71-.64,12.44,7,12.56,13.72l-.25,41.73a5.65,5.65,0,0,1-2.88,4.92,15.72,15.72,0,0,1-7.84,2.1,20.76,20.76,0,0,1-7.87-1.86,5.63,5.63,0,0,1-3.36-5.08l-.91-41.29C1825.44,945.07,1830.11,937.48,1836.16,936.91Z" transform="translate(-1445.5 -741.31)"/><path class="cls-25" d="M1507.06,753.67l245.59,139.89,43.61,35.55,38,20.31a18.1,18.1,0,0,1,9.14,15.72h0a18.1,18.1,0,0,1-27,15.76l-286.07-159a7,7,0,0,0-10.37,6v76.26l-26.93-61.45V781.41l-10-5.9-23.22,45.37-9.59,4.51,30.37-63.55A18.84,18.84,0,0,1,1507.06,753.67Z" transform="translate(-1445.5 -741.31)"/><path class="cls-26" d="M1456,819.44c13.34-8.89,29.79-6.75,41.86,14.62l136.54,361.24c7.21,12.83,6.8,35.38-6.25,42.18h0c-12.4,6.45-32.11-4.33-39.06-16.45L1450,861.27C1442.74,848.69,1443.94,827.49,1456,819.44Z" transform="translate(-1445.5 -741.31)"/><path class="cls-27" d="M1622.65,1200.47l.61,1.09a28.17,28.17,0,0,1,2.15,19.67c-.42,1.44-1.41,4-3.16,4.9a5.87,5.87,0,0,1-2.55.49c-6.18,0-15-5.24-18.94-11L1461.69,856l27.22-8.17Z" transform="translate(-1445.5 -741.31)"/><polygon class="cls-28" points="88.75 427.05 51.85 407.81 88.75 383.94 88.75 427.05"/><path class="cls-22" d="M1468.6,836.84c6.84-2.79,17.5,1.54,21.86,12.23s-.21,21.25-7,24-17.5-1.54-21.87-12.23S1461.76,839.63,1468.6,836.84Z" transform="translate(-1445.5 -741.31)"/><path class="cls-22" d="M1482,772.17c3.45-1.87,9.34-.15,12.28,5.3s1.15,11.31-2.3,13.17-9.34.15-12.28-5.3S1478.58,774,1482,772.17Z" transform="translate(-1445.5 -741.31)"/><path class="cls-22" d="M1818,955.83c3.68-2,9.82-.4,12.76,5s.89,11.45-2.78,13.43-9.83.41-12.77-5S1814.31,957.82,1818,955.83Z" transform="translate(-1445.5 -741.31)"/><path class="cls-29" d="M1508.54,1139.35l64.75,35.78s8.84-13.44,23.07-7.54l21.78,12a32.16,32.16,0,0,1,16.65,28.17v49.44c0,8.85-1.92,20-21.82,20l-144.19-93.94c-2.25-1.27,7-29.8,7-29.8Z" transform="translate(-1445.5 -741.31)"/><path class="cls-30" d="M1460,1147.72l36.61-22.47h37.67l-34.3,22.69,66.8,36.91a1.58,1.58,0,0,0,2.34-1.38,10.39,10.39,0,0,1,15.4-9.1l25.07,13.81a32.17,32.17,0,0,1,16.64,28.18v49.44a11.55,11.55,0,0,1-17.23,10.06l-148.78-84a7.16,7.16,0,0,1-3.63-6.23v-31.84A7.15,7.15,0,0,1,1460,1147.72Z" transform="translate(-1445.5 -741.31)"/><path class="cls-23" d="M1491,1164.57l52.94,30c1.59.9,3,3.32,2,4.88s-3.69,1.6-5.2.75l-53.12-29.64c-1.57-.87-2.8-3.2-2-4.83C1486.44,1163.9,1489.24,1163.59,1491,1164.57Z" transform="translate(-1445.5 -741.31)"/><path class="cls-23" d="M1491,1179.13l52.94,30c1.59.9,3,3.33,2,4.88s-3.69,1.6-5.2.76l-53.12-29.64c-1.57-.88-2.8-3.21-2-4.83C1486.44,1178.46,1489.24,1178.15,1491,1179.13Z" transform="translate(-1445.5 -741.31)"/><path class="cls-23" d="M1587.39,1195.66c8.47-3.14,21.13,2,25.76,14.53s-1.58,24.67-10.05,27.81-21.14-2-25.77-14.52S1578.92,1198.8,1587.39,1195.66Z" transform="translate(-1445.5 -741.31)"/><path class="cls-22" d="M1589.27,1200.73c6.08-2.26,15.32,1.84,18.84,11.33s-.81,18.62-6.89,20.87-15.32-1.83-18.84-11.33S1583.18,1203,1589.27,1200.73Z" transform="translate(-1445.5 -741.31)"/><path class="cls-27" d="M1548.2,796.6l210.17,117.55c4.16,2.36,7.84,8.71,5.34,12.8-2.37,3.88-9.67,4.19-13.64,2l-210.64-116.7c-4.13-2.29-7.35-8.4-5.34-12.67C1536.31,794.84,1543.67,794,1548.2,796.6Z" transform="translate(-1445.5 -741.31)"/><rect class="cls-31" x="230.43" y="327.39" width="1.48" height="3.95"/><path class="cls-31" d="M1808.05,1221l-6.91-4,.74-1.29,6.91,4Zm-12.09-7-6.91-4,.74-1.28,6.91,4Zm-12.1-7-6.9-4,.74-1.28,6.91,4Zm-12.09-7-6.91-4,.74-1.28,6.91,4Zm-12.09-7-6.91-4,.74-1.29,6.91,4Zm-12.09-7-6.91-4,.74-1.29,6.91,4Zm-12.09-7-6.91-4,.74-1.29,6.91,4Zm-12.09-7-6.91-4,.74-1.29,6.91,4Zm-12.09-7-6.91-4,.74-1.29,6.91,4Zm-12.1-7-6.91-4,.74-1.28,6.91,4Zm-12.09-7-6.91-4,.74-1.28,6.91,4Zm-11.06-8.79a6.28,6.28,0,0,1-.14-1.36v-6.76h1.48v6.76a5.17,5.17,0,0,0,.11,1Zm1.34-14.1h-1.48v-8h1.48Zm0-14h-1.48v-8h1.48Zm0-14h-1.48v-8h1.48Zm0-14h-1.48v-8h1.48Z" transform="translate(-1445.5 -741.31)"/><rect class="cls-31" x="1814.59" y="1222.33" width="1.48" height="3.95" transform="translate(-1597.5 1444.2) rotate(-60.04)"/><path class="cls-32" d="M2010.81,1090.63,1953.7,1059c-1.15-.64-4.16,0-4.16,2.57l1.6,47.79a1.73,1.73,0,0,0,.88,1.51l56,33.11c1.15.64,3.66-.28,3.66-3v-48.85A1.75,1.75,0,0,0,2010.81,1090.63Z" transform="translate(-1445.5 -741.31)"/><path class="cls-33" d="M2009.68,1091.52l-57.57-31.91a1.74,1.74,0,0,0-2.58,1.52v49.24a1.74,1.74,0,0,0,.89,1.52L2008,1143.8a1.75,1.75,0,0,0,2.59-1.53v-49.22A1.76,1.76,0,0,0,2009.68,1091.52Z" transform="translate(-1445.5 -741.31)"/><path class="cls-34" d="M1703.25,1070.11l-47.46-26.31c-1-.53-3.45,0-3.45,2.14l1.32,39.7a1.42,1.42,0,0,0,.74,1.25L1701,1114.4a2.33,2.33,0,0,0,3-2.46v-40.58A1.42,1.42,0,0,0,1703.25,1070.11Z" transform="translate(-1445.5 -741.31)"/><path class="cls-35" d="M1702.3,1070.84l-47.83-26.51a1.45,1.45,0,0,0-2.15,1.26v40.91a1.46,1.46,0,0,0,.75,1.27l47.83,26.51a1.45,1.45,0,0,0,2.15-1.27v-40.9A1.46,1.46,0,0,0,1702.3,1070.84Z" transform="translate(-1445.5 -741.31)"/><path class="cls-36" d="M1791.92,1150.22h-1.48v-7.9h1.48Zm0-13.83h-1.48v-7.89h1.48Zm0-13.82h-1.48v-7.9h1.48Zm0-13.82h-1.48v-7.9h1.48Zm0-13.82h-1.48v-4.25l-2.43-1.29.69-1.31,3.22,1.71Zm-9.14-8.32-7-3.7.69-1.31,7,3.7Zm-12.22-6.48-3.31-1.75v-5h1.48v4.15l2.53,1.34Zm-1.83-12.72h-1.48v-7.89h1.48Zm0-13.82h-1.48v-7.89h1.48Zm0-13.82h-1.48v-7.89h1.48Z" transform="translate(-1445.5 -741.31)"/><polygon class="cls-34" points="557.27 385.24 512.97 359.57 512.97 331.54 557.27 357.21 557.27 385.24"/><polygon class="cls-37" points="554.45 386.98 510.14 361.31 510.14 333.28 554.45 358.95 554.45 386.98"/><polygon class="cls-38" points="554.45 358.95 546.4 360.68 545.11 360.95 544.02 361.19 543.37 361.33 543.11 361.39 542.02 361.62 541.33 361.76 532.55 363.65 532.3 363.7 522.2 349.84 521.22 348.49 521.12 348.35 520.21 347.1 519.13 345.61 516.62 342.17 510.14 333.28 523.49 341.01 532.3 346.11 546.4 354.28 554.45 358.95"/><polygon class="cls-39" points="532.29 358.39 543.37 372.68 554.45 386.98 532.29 374.14 510.14 361.31 521.22 359.85 532.29 358.39"/><polygon class="cls-40" points="532.29 366.67 554.45 358.95 532.29 346.11 510.14 333.28 532.29 366.67"/><polygon class="cls-41" points="510.14 333.28 512.97 331.54 557.27 357.21 554.45 358.95 510.14 333.28"/><path class="cls-32" d="M1993.11,1119.48c-.07,4.07,2.67,8.73,6.12,10.43s6.3-.23,6.37-4.29-2.68-8.73-6.13-10.42S1993.17,1115.42,1993.11,1119.48Z" transform="translate(-1445.5 -741.31)"/><path class="cls-42" d="M1992,1120c-.07,4.06,2.68,8.72,6.12,10.42s6.3-.23,6.37-4.29-2.68-8.73-6.13-10.42S1992.1,1115.9,1992,1120Z" transform="translate(-1445.5 -741.31)"/><path class="cls-4" d="M1999.05,1127.87l-1.57-1V1121a3.41,3.41,0,0,1-2-.12v-1.42a3.08,3.08,0,0,0,1.33.1,1.18,1.18,0,0,0,1-.67l1.27.82Z" transform="translate(-1445.5 -741.31)"/><path class="cls-31" d="M1828.63,1167.84h-1.48V1160h1.48Zm0-13.82h-1.48v-7.89h1.48Zm52.87-9.93-6.82-4,.75-1.28,6.82,4Zm-52.87-3.89h-1.48v-7.9h1.48Zm54.35-2h-1.48v-7.89H1883Zm-13.41-1-6.82-4,.75-1.28,6.82,4Zm-11.93-7-6.82-4,.74-1.28,6.82,4Zm-29-3.76h-1.48v-7.9h1.48Zm54.35-2.05h-1.48v-7.89H1883Zm-37.28-1.17-6.81-4,.74-1.28,6.82,4Zm-11.93-7-6.22-3.63h-.4v-2l7.37,4.3Zm49.21-5.68h-1.48v-7.9H1883Z" transform="translate(-1445.5 -741.31)"/><path class="cls-32" d="M1684.13,1077.31h0l-2.86,1.77-.94-1.45a9.1,9.1,0,0,1-2.08-.89c-4.36-2.5-7.85-8.32-7.82-13a6.79,6.79,0,0,1,.1-1.13l-1-1.52,2.64-1.61a3.31,3.31,0,0,1,.72-.44l0,0h0c1.43-.65,3.35-.45,5.47.77,4.35,2.5,7.86,8.32,7.82,13C1686.2,1075,1685.41,1076.54,1684.13,1077.31Z" transform="translate(-1445.5 -741.31)"/><path class="cls-32" d="M1667.58,1087.39a10.12,10.12,0,0,1,1-4.41l-.37-1,2.79-1.72.34-.2c1.86-1,4.26-1,6.89.56,5.85,3.35,10.57,12.68,10.52,19l-3.06,1.9-6.81-6.32,1.35-.47Z" transform="translate(-1445.5 -741.31)"/><path class="cls-43" d="M1675.34,1061.7c4.35,2.51,7.85,8.33,7.82,13s-3.6,6.45-8,3.94-7.85-8.32-7.82-13S1671,1059.21,1675.34,1061.7Z" transform="translate(-1445.5 -741.31)"/><path class="cls-44" d="M1675.15,1082.48c5.84,3.35,10.57,12.68,10.52,19l-21.16-12.15C1664.56,1083,1669.31,1079.12,1675.15,1082.48Z" transform="translate(-1445.5 -741.31)"/><path class="cls-32" d="M1804.34,1003l-52.54-29.12c-1.06-.59-3.83,0-3.83,2.36l1.47,44a1.58,1.58,0,0,0,.82,1.39L1801.8,1052c1.06.58,3.36-.26,3.36-2.73v-44.93A1.59,1.59,0,0,0,1804.34,1003Z" transform="translate(-1445.5 -741.31)"/><path class="cls-45" d="M1803.3,1003.8l-53-29.36a1.6,1.6,0,0,0-2.38,1.4v45.29a1.59,1.59,0,0,0,.83,1.4l53,29.36a1.6,1.6,0,0,0,2.38-1.4V1005.2A1.59,1.59,0,0,0,1803.3,1003.8Z" transform="translate(-1445.5 -741.31)"/><path class="cls-46" d="M1751.05,1000.57a3.82,3.82,0,0,1,1.07-.34,6.79,6.79,0,0,1,4.47,1c.26.15.51.31.76.48a6.53,6.53,0,0,1,2.36-4.93,4.4,4.4,0,0,0-.62,0,4.29,4.29,0,0,0-1.88.41Z" transform="translate(-1445.5 -741.31)"/><path class="cls-47" d="M1791.3,1016.45l-6.16,3.37a4.76,4.76,0,0,1,.63.33,16.09,16.09,0,0,1,7.3,12.59c0,2.35-.84,4-2.19,4.72l6.21-3.39h0l.05,0h0c1.28-.77,2.08-2.37,2.08-4.66a16.1,16.1,0,0,0-7.3-12.59A6.49,6.49,0,0,0,1791.3,1016.45Z" transform="translate(-1445.5 -741.31)"/><path class="cls-48" d="M1766.28,993.2l-6,3.28a.45.45,0,0,1,.12-.06,5.52,5.52,0,0,1,3.75-.34,10.28,10.28,0,0,1,2.89,1.16,20.5,20.5,0,0,1,7.52,8.42l6.17-3.37a20.47,20.47,0,0,0-7.52-8.41c-2.67-1.54-5.08-1.71-6.84-.73h0Z" transform="translate(-1445.5 -741.31)"/><path class="cls-49" d="M1760.1,996.57h0l.07,0Z" transform="translate(-1445.5 -741.31)"/><path class="cls-50" d="M1774.56,1005.66a5.3,5.3,0,0,1,4,.78,10.71,10.71,0,0,1,.9.59,15,15,0,0,1,5.83,11,7.36,7.36,0,0,1-.19,1.76l6.16-3.37a7.34,7.34,0,0,0,.2-1.76,14.82,14.82,0,0,0-6.73-11.61,5.28,5.28,0,0,0-4-.79Z" transform="translate(-1445.5 -741.31)"/><path class="cls-51" d="M1786.56,1004.39c.21.18.41.38.61.58C1787,1004.77,1786.77,1004.57,1786.56,1004.39Z" transform="translate(-1445.5 -741.31)"/><path class="cls-52" d="M1748.41,1006c0,5.18,3.66,11.5,8.18,14.11.16.09,30,17.28,30.41,17.44,3.45,1.32,6.07-.61,6.07-4.76a16.1,16.1,0,0,0-7.3-12.59,4.31,4.31,0,0,0-.64-.33,6.87,6.87,0,0,0,.2-1.76,15,15,0,0,0-5.83-11,10.71,10.71,0,0,0-.9-.59,5.3,5.3,0,0,0-4-.78,20.5,20.5,0,0,0-7.52-8.42,10.16,10.16,0,0,0-2.89-1.16,5.52,5.52,0,0,0-3.75.34c-1.7.83-2.83,2.67-3.06,5.34q-.36-.25-.75-.48a6.73,6.73,0,0,0-4.47-1C1749.89,1000.61,1748.41,1002.65,1748.41,1006Z" transform="translate(-1445.5 -741.31)"/><path class="cls-53" d="M1790.92,1036.1l-31.44-18.16a19.29,19.29,0,0,1-6.14-6.68,18.76,18.76,0,0,1-2.73-9.09v-.08a3.64,3.64,0,0,0-.65.94c1.25-2.65,4.5-2.45,8.22.49.24-11.84,11.67-6,15.79,3.15,5.8-1.36,11.84,7.89,10,13.7C1788.28,1021.47,1795,1032,1790.92,1036.1Z" transform="translate(-1445.5 -741.31)"/><path class="cls-54" d="M1750.71,1000.75l.34-.18A2.71,2.71,0,0,0,1750.71,1000.75Z" transform="translate(-1445.5 -741.31)"/><path class="cls-55" d="M1751,1001.79a3.17,3.17,0,0,0-.34.3h0A1.63,1.63,0,0,1,1751,1001.79Z" transform="translate(-1445.5 -741.31)"/><path class="cls-34" d="M1791,1036.14l.19-.21a2.62,2.62,0,0,1-2.13,1,4.81,4.81,0,0,1-1.7-.36,5.1,5.1,0,0,1-.65-.28c-.14-.07-29.84-17.22-30-17.28a16.11,16.11,0,0,1-5.09-5.53,15.55,15.55,0,0,1-2.27-7.53,5.43,5.43,0,0,1,1.22-3.86v.08a18.76,18.76,0,0,0,2.73,9.09,19.29,19.29,0,0,0,6.14,6.68Z" transform="translate(-1445.5 -741.31)"/><path class="cls-54" d="M1785.77,1021.24c-.21-.12-.42-.23-.64-.33a6.08,6.08,0,0,0,.17-1c.16.07.31.16.47.25a16.1,16.1,0,0,1,7.3,12.59c0,.19,0,.37,0,.54A16.26,16.26,0,0,0,1785.77,1021.24Z" transform="translate(-1445.5 -741.31)"/><path class="cls-54" d="M1779.5,1008.13a10.71,10.71,0,0,0-.9-.59,5.31,5.31,0,0,0-4-.79,20.53,20.53,0,0,0-7.52-8.41,10.16,10.16,0,0,0-2.89-1.16,5.58,5.58,0,0,0-3.75.33c-1.7.84-2.83,2.68-3.06,5.35q-.36-.25-.75-.48a6.8,6.8,0,0,0-4.47-1.06c-2.11.36-3.54,2.21-3.7,5.19,0-.19,0-.38,0-.56,0-3.3,1.48-5.34,3.71-5.72a6.73,6.73,0,0,1,4.47,1q.39.22.75.48c.23-2.67,1.36-4.51,3.06-5.34a5.52,5.52,0,0,1,3.75-.34,10.16,10.16,0,0,1,2.89,1.16,20.5,20.5,0,0,1,7.52,8.42,5.3,5.3,0,0,1,4,.78,10.71,10.71,0,0,1,.9.59,15,15,0,0,1,5.83,11c0,.19,0,.37,0,.54A15.21,15.21,0,0,0,1779.5,1008.13Z" transform="translate(-1445.5 -741.31)"/><path class="cls-56" d="M1757.93,1020.83c5.33,3.07,24.92,14.35,28.51,16.36a4.37,4.37,0,0,0,2.57.72c7.37-.32,3.83-14.25-3.66-18-.51-.27.11-.82,0-1.38a11.38,11.38,0,0,0-.74-4.48c-1.49-4.06-5.56-9.29-10-8.41-2-3.84-4.68-7-8.37-8.86-4.08-2-8.38-.63-8.84,5a7.54,7.54,0,0,0-5.23-1.53C1745.06,1001.67,1748.67,1016.41,1757.93,1020.83Zm-8.42-13.28c-.82-6.91,3.47-8.14,8.67-4,.24-11.84,11.67-6,15.79,3.15,5.8-1.36,11.84,7.89,10,13.69,4.53,1.18,11.73,12.77,6.16,16.36a4,4,0,0,1-3.26-.41c-3.84-2.17-30-17.24-30.14-17.31C1753.29,1016.89,1750.08,1011.88,1749.51,1007.55Z" transform="translate(-1445.5 -741.31)"/><g class="cls-57"><path class="cls-58" d="M1784.9,1013.54l-3.2-1.85a.12.12,0,0,1,0-.09v-2.17h.21v2.11l3.15,1.82Z" transform="translate(-1445.5 -741.31)"/><path class="cls-59" d="M1782.16,1009.31c0,.33-.18.49-.4.35a1,1,0,0,1-.41-.82c0-.32.18-.48.41-.35A1,1,0,0,1,1782.16,1009.31Z" transform="translate(-1445.5 -741.31)"/><path class="cls-60" d="M1786.14,1020.71c0,.33-.18.48-.41.35a1,1,0,0,1-.4-.82c0-.32.18-.48.4-.35A1,1,0,0,1,1786.14,1020.71Z" transform="translate(-1445.5 -741.31)"/><path class="cls-61" d="M1789.69,1029.24c0,.32-.18.48-.41.35a1,1,0,0,1-.4-.82c0-.33.18-.48.4-.35A1,1,0,0,1,1789.69,1029.24Z" transform="translate(-1445.5 -741.31)"/><path class="cls-62" d="M1784.28,1019.11c0,.32-.18.48-.41.35a1,1,0,0,1-.4-.82c0-.33.18-.48.4-.35A1,1,0,0,1,1784.28,1019.11Z" transform="translate(-1445.5 -741.31)"/><path class="cls-63" d="M1780.9,1013.17c0,.32-.18.48-.41.35a1,1,0,0,1-.4-.82c0-.33.18-.48.4-.35A1,1,0,0,1,1780.9,1013.17Z" transform="translate(-1445.5 -741.31)"/><path class="cls-64" d="M1779.23,1013c0,.32-.18.48-.4.35a1,1,0,0,1-.41-.82c0-.32.18-.48.41-.35A1,1,0,0,1,1779.23,1013Z" transform="translate(-1445.5 -741.31)"/><path class="cls-65" d="M1777.69,1013.31c0,.33-.19.48-.41.35a1,1,0,0,1-.4-.82c0-.32.18-.48.4-.35A1,1,0,0,1,1777.69,1013.31Z" transform="translate(-1445.5 -741.31)"/><path class="cls-66" d="M1776.76,1012.77c0,.33-.18.48-.41.35a1,1,0,0,1-.4-.82c0-.32.18-.48.4-.35A1,1,0,0,1,1776.76,1012.77Z" transform="translate(-1445.5 -741.31)"/><path class="cls-67" d="M1783,1030.74c0,.33-.18.48-.41.35a1,1,0,0,1-.4-.82c0-.32.18-.48.4-.35A1,1,0,0,1,1783,1030.74Z" transform="translate(-1445.5 -741.31)"/><path class="cls-68" d="M1778.63,1013.86c0,.33-.18.48-.4.35a1,1,0,0,1-.4-.82c0-.32.18-.48.4-.35A1,1,0,0,1,1778.63,1013.86Z" transform="translate(-1445.5 -741.31)"/><path class="cls-69" d="M1779.27,1015.64c0,.32-.18.48-.4.35a1,1,0,0,1-.41-.82c0-.32.18-.48.41-.35A1,1,0,0,1,1779.27,1015.64Z" transform="translate(-1445.5 -741.31)"/><path class="cls-70" d="M1776.64,1016.29c0,.33-.18.48-.41.35a1,1,0,0,1-.4-.82c0-.32.18-.48.4-.35A1,1,0,0,1,1776.64,1016.29Z" transform="translate(-1445.5 -741.31)"/><path class="cls-71" d="M1776.15,1017.63c0,.32-.18.48-.4.35a1,1,0,0,1-.41-.82c0-.32.18-.48.41-.35A1,1,0,0,1,1776.15,1017.63Z" transform="translate(-1445.5 -741.31)"/><path class="cls-72" d="M1776.4,1020.19c0,.49-.27.72-.61.53a1.57,1.57,0,0,1-.62-1.25c0-.49.28-.72.62-.53A1.57,1.57,0,0,1,1776.4,1020.19Z" transform="translate(-1445.5 -741.31)"/><path class="cls-73" d="M1770,1020.24c0,.49-.28.73-.62.53a1.56,1.56,0,0,1-.61-1.24c0-.49.28-.73.61-.53A1.54,1.54,0,0,1,1770,1020.24Z" transform="translate(-1445.5 -741.31)"/><path class="cls-74" d="M1772.93,1020.9c0,.49-.28.72-.62.53a1.6,1.6,0,0,1-.61-1.25c0-.49.28-.73.61-.53A1.56,1.56,0,0,1,1772.93,1020.9Z" transform="translate(-1445.5 -741.31)"/><path class="cls-75" d="M1785.6,1023.25c0,.49-.27.73-.61.53a1.55,1.55,0,0,1-.62-1.24c0-.49.28-.73.62-.54A1.57,1.57,0,0,1,1785.6,1023.25Z" transform="translate(-1445.5 -741.31)"/><path class="cls-76" d="M1789.63,1032.75c0,.49-.28.73-.62.53a1.56,1.56,0,0,1-.61-1.24c0-.49.28-.73.61-.53A1.55,1.55,0,0,1,1789.63,1032.75Z" transform="translate(-1445.5 -741.31)"/><path class="cls-77" d="M1783.74,1025.93c0,.49-.28.73-.61.53a1.51,1.51,0,0,1-.62-1.24c0-.49.27-.73.62-.53A1.56,1.56,0,0,1,1783.74,1025.93Z" transform="translate(-1445.5 -741.31)"/><path class="cls-78" d="M1778.76,1025.06c0,.49-.28.73-.62.53a1.55,1.55,0,0,1-.61-1.24c0-.5.27-.73.61-.54A1.57,1.57,0,0,1,1778.76,1025.06Z" transform="translate(-1445.5 -741.31)"/><path class="cls-79" d="M1780.3,1026c0,.49-.28.73-.62.53a1.56,1.56,0,0,1-.61-1.24c0-.49.28-.73.61-.53A1.54,1.54,0,0,1,1780.3,1026Z" transform="translate(-1445.5 -741.31)"/><path class="cls-80" d="M1781.51,1021.79c0,.49-.27.73-.61.53a1.54,1.54,0,0,1-.62-1.24c0-.49.28-.73.62-.53A1.55,1.55,0,0,1,1781.51,1021.79Z" transform="translate(-1445.5 -741.31)"/><path class="cls-81" d="M1783.63,1023.22c0,.49-.28.73-.62.54a1.57,1.57,0,0,1-.61-1.25c0-.49.27-.73.61-.53A1.55,1.55,0,0,1,1783.63,1023.22Z" transform="translate(-1445.5 -741.31)"/><path class="cls-82" d="M1771.28,1026.78c0,.49-.27.72-.61.53a1.57,1.57,0,0,1-.61-1.25c0-.49.27-.72.61-.53A1.57,1.57,0,0,1,1771.28,1026.78Z" transform="translate(-1445.5 -741.31)"/><path class="cls-83" d="M1775.82,1025c0,.32-.18.48-.41.35a1,1,0,0,1-.4-.82c0-.33.18-.49.4-.36A1,1,0,0,1,1775.82,1025Z" transform="translate(-1445.5 -741.31)"/><path class="cls-84" d="M1776.64,1014.8c0,.33-.18.48-.41.35a1,1,0,0,1-.4-.82c0-.32.18-.48.4-.35A1,1,0,0,1,1776.64,1014.8Z" transform="translate(-1445.5 -741.31)"/><path class="cls-85" d="M1776.76,1023.9c0,.32-.18.48-.41.35a1,1,0,0,1-.4-.82c0-.33.18-.48.4-.35A1,1,0,0,1,1776.76,1023.9Z" transform="translate(-1445.5 -741.31)"/><path class="cls-86" d="M1786.26,1030.45c0,.32-.18.48-.4.35a1,1,0,0,1-.41-.82c0-.33.18-.49.41-.35A1,1,0,0,1,1786.26,1030.45Z" transform="translate(-1445.5 -741.31)"/><path class="cls-87" d="M1785.05,1024.49c0,.33-.19.48-.41.35a1,1,0,0,1-.41-.82c0-.32.19-.48.41-.35A1,1,0,0,1,1785.05,1024.49Z" transform="translate(-1445.5 -741.31)"/><path class="cls-88" d="M1786.91,1027.29c0,.32-.19.48-.41.35a1,1,0,0,1-.4-.82c0-.33.18-.48.4-.35A1,1,0,0,1,1786.91,1027.29Z" transform="translate(-1445.5 -741.31)"/><path class="cls-89" d="M1781.79,1026.82c0,.32-.18.48-.4.35a1,1,0,0,1-.4-.82c0-.32.18-.48.4-.35A1,1,0,0,1,1781.79,1026.82Z" transform="translate(-1445.5 -741.31)"/><path class="cls-90" d="M1780.64,1010.23c0,.32-.18.48-.41.35a1,1,0,0,1-.4-.82c0-.33.18-.48.4-.35A1,1,0,0,1,1780.64,1010.23Z" transform="translate(-1445.5 -741.31)"/><path class="cls-91" d="M1779,1010.22c0,.32-.18.48-.41.35a1,1,0,0,1-.4-.82c0-.32.18-.48.4-.35A1,1,0,0,1,1779,1010.22Z" transform="translate(-1445.5 -741.31)"/><path class="cls-92" d="M1787.64,1017.28l-5.42-3.15,0,0-.9-2-1.76-1-.58.5v.66h-.21v-.7a.1.1,0,0,1,0-.08l.67-.59a.11.11,0,0,1,.12,0l1.85,1.07,0,.05.9,2,5.4,3.13Z" transform="translate(-1445.5 -741.31)"/><path class="cls-93" d="M1780.09,1009.72l-1-2.08-3.82-2.22.11-.18,3.85,2.23,0,0,1,2.1Z" transform="translate(-1445.5 -741.31)"/><path class="cls-94" d="M1778.35,1009.65l-1.28-2.58-2-1.19.11-.18,2.08,1.2,0,.05,1.29,2.61Z" transform="translate(-1445.5 -741.31)"/><path class="cls-95" d="M1778,1019.7h-.21v-2a.11.11,0,0,1,0-.08l.75-.65a.12.12,0,0,1,.13,0l1.79,1-.11.18-1.73-1-.65.57Z" transform="translate(-1445.5 -741.31)"/><path class="cls-96" d="M1784,1018.62h-.21v-1.55l-.86-1.73a.11.11,0,0,1,0-.12.11.11,0,0,1,.13,0l4,2.34-.11.19-3.74-2.17.71,1.44,0,0Z" transform="translate(-1445.5 -741.31)"/><path class="cls-97" d="M1789.39,1028.68h-.21V1028s0-.07,0-.08l.78-.68a.09.09,0,0,1,.12,0l1.76,1-.1.18-1.7-1-.69.6Z" transform="translate(-1445.5 -741.31)"/><path class="cls-98" d="M1790.36,1024.45l-6.51-3.77-.67.57a.09.09,0,0,1-.12,0l-3.22-1.87-1,.88a.11.11,0,0,1-.12,0l-9.24-5.36.11-.18,9.17,5.32,1-.88a.09.09,0,0,1,.12,0l3.22,1.86.67-.57a.1.1,0,0,1,.12,0l6.57,3.81Z" transform="translate(-1445.5 -741.31)"/><path class="cls-99" d="M1782.89,1021h-.21v-3.55l-2-4,.19-.1,2,4.06a.43.43,0,0,0,0,0Z" transform="translate(-1445.5 -741.31)"/><path class="cls-100" d="M1776.46,1012.1h-.21v-1l-1.17-2.37.19-.09,1.18,2.39a.43.43,0,0,1,0,0Z" transform="translate(-1445.5 -741.31)"/><path class="cls-101" d="M1782.7,1030.07h-.21v-1l-1.17-2.37.19-.09,1.18,2.39s0,0,0,0Z" transform="translate(-1445.5 -741.31)"/><path class="cls-102" d="M1781.29,1020.16l-1.49-3a.09.09,0,0,1,0,0v-1.51l-.64-1.3-5.1-3,.1-.18,5.13,3a.1.1,0,0,1,0,0l.66,1.35a.07.07,0,0,1,0,0v1.51l1.48,3Z" transform="translate(-1445.5 -741.31)"/><path class="cls-103" d="M1777.36,1016.82l-.06,0-1-.59.11-.18,1,.55,1.45-1.25.13.16-1.5,1.3A.11.11,0,0,1,1777.36,1016.82Z" transform="translate(-1445.5 -741.31)"/><path class="cls-104" d="M1776.47,1014.88l-.14-.16.85-.73v-.85h.21v.9a.12.12,0,0,1,0,.08Z" transform="translate(-1445.5 -741.31)"/><polygon class="cls-105" points="329.99 275.79 327.6 270.95 327.79 270.86 330.18 275.7 329.99 275.79"/><polygon class="cls-106" points="329.67 283.12 328.89 281.55 329.08 281.46 329.86 283.02 329.67 283.12"/><path class="cls-107" d="M1775.37,1019.71l-4.42-2.57-1.48,1.28v1.09h-.21v-1.13a.1.1,0,0,1,0-.09l1.57-1.36a.13.13,0,0,1,.12,0l4.49,2.61Z" transform="translate(-1445.5 -741.31)"/><path class="cls-108" d="M1770.77,1026h-.21v-1.13a.12.12,0,0,1,0-.08l2.5-2.18.13.16-2.46,2.15Z" transform="translate(-1445.5 -741.31)"/><path class="cls-109" d="M1770.58,1022.39l-.06,0-2.37-1.37-1,.84-.14-.16,1-.89a.09.09,0,0,1,.12,0l2.37,1.37,3.76-3.25.14.16-3.81,3.3Z" transform="translate(-1445.5 -741.31)"/><path class="cls-110" d="M1790.76,1026.37l-9.16-5.32-1.23,1.07a.12.12,0,0,1-.13,0l-2.89-1.68-3.32,2.88a.1.1,0,0,1-.12,0l-1.94-1.13-1.22,1.06a.1.1,0,0,1-.12,0l-1.77-1v1.51h-.21v-1.69a.09.09,0,0,1,0-.09.09.09,0,0,1,.1,0l1.87,1.08,1.22-1.06a.1.1,0,0,1,.12,0l1.94,1.13,3.32-2.88a.12.12,0,0,1,.13,0l2.89,1.68,1.23-1.07a.1.1,0,0,1,.12,0l9.23,5.35Z" transform="translate(-1445.5 -741.31)"/><path class="cls-111" d="M1776.46,1023.23h-.21v-1.15a.11.11,0,0,1,0-.08l1.18-1a.09.09,0,0,1,.12,0l3.31,1.92.9-.78a.09.09,0,0,1,.12,0l1,.57-.1.18-.93-.53-.9.77a.11.11,0,0,1-.12,0l-3.31-1.92-1.08.93Z" transform="translate(-1445.5 -741.31)"/><path class="cls-112" d="M1776.46,1028.88h-.21v-2.81a.11.11,0,0,1,0-.08l1-.82v-2.73a.14.14,0,0,1,0-.09l.55-.47a.1.1,0,0,1,.12,0l3.63,2.11.4-.35a.1.1,0,0,1,.12,0l2,1.13.42-.36.14.16-.48.41a.09.09,0,0,1-.12,0l-2-1.13-.4.35a.13.13,0,0,1-.12,0l-3.63-2.11-.45.39v2.73a.09.09,0,0,1,0,.08l-1,.83Z" transform="translate(-1445.5 -741.31)"/><path class="cls-113" d="M1791.23,1027.43l-3-1.76-1.67,1.44-.14-.15,1.73-1.5a.1.1,0,0,1,.12,0l3.09,1.8Z" transform="translate(-1445.5 -741.31)"/><rect class="cls-114" x="1790.91" y="1031.59" width="0.21" height="3.93" transform="translate(-1447.49 1322.34) rotate(-59.87)"/><path class="cls-115" d="M1793.25,1033.29l-8.91-5.17a.1.1,0,0,1,0,0l-1-2,.19-.09,1,2,8.88,5.15Z" transform="translate(-1445.5 -741.31)"/><path class="cls-116" d="M1785.55,1030.15l-1.84-1.07s0,0,0,0l-1.58-3.19-3.21-1.87-.37.32-.13-.16.42-.36a.11.11,0,0,1,.12,0l3.3,1.92,0,0,1.57,3.19,1.81,1Z" transform="translate(-1445.5 -741.31)"/><rect class="cls-117" x="1780.53" y="1025.61" width="0.21" height="1.08" transform="matrix(0.5, -0.86, 0.86, 0.5, -1447, 1308.35)"/><path class="cls-118" d="M1792.44,1035.79l-7.56-4.38-1.48,1.3-.14-.15,1.53-1.36a.12.12,0,0,1,.13,0l7.63,4.41Z" transform="translate(-1445.5 -741.31)"/><path class="cls-119" d="M1774.87,1027.05h-.21v-1.47l-1.84-1.07-1.14,1-.14-.16,1.2-1a.1.1,0,0,1,.12,0l2,1.14a.09.09,0,0,1,0,.09Z" transform="translate(-1445.5 -741.31)"/><path class="cls-120" d="M1780.41,1017.58c0,.32-.18.47-.41.35a1,1,0,0,1-.4-.82c0-.33.18-.48.4-.35A1,1,0,0,1,1780.41,1017.58Z" transform="translate(-1445.5 -741.31)"/><path class="cls-121" d="M1781.11,1019c0,.32-.18.48-.41.35a1,1,0,0,1-.4-.82c0-.33.18-.48.4-.35A1,1,0,0,1,1781.11,1019Z" transform="translate(-1445.5 -741.31)"/><path class="cls-122" d="M1782.16,1031.69l-2.07-3.61-2.38-1.45v2h-.21v-2.18a.11.11,0,0,1,0-.09.11.11,0,0,1,.11,0l2.56,1.57s0,0,0,0l2.09,3.62Z" transform="translate(-1445.5 -741.31)"/></g><path class="cls-123" d="M1778.92,1014.85c-2.33,5.49-8.37,8.53-15.09,8.23l-.5-.29-.22-.12c-1.23-.71-2.33-1.35-3.27-1.88l-.2-.12-.4-.23c-4.52-2.61-8.18-8.93-8.18-14.12,0-2.48.83-4.25,2.2-5.13a9.76,9.76,0,0,1,4.92,2.33,13.73,13.73,0,0,1,.23-2.29,7.32,7.32,0,0,1,.83.43c.25.15.5.3.75.47.22-2.56,1.27-4.37,2.86-5.24,3.72.15,8.69,4.4,11.12,9.78a6.65,6.65,0,0,1,5.83,1.86A12.46,12.46,0,0,1,1778.92,1014.85Z" transform="translate(-1445.5 -741.31)"/><path class="cls-124" d="M1776.27,1014.48c-2.33,5.49-8.36,8.52-15.08,8.23l-4.6-2.65c-4.52-2.61-8.18-8.92-8.18-14.11,0-3.3,1.48-5.34,3.72-5.72a6.71,6.71,0,0,1,4.46,1c.26.15.5.31.75.48.23-2.67,1.36-4.51,3.06-5.34a5.52,5.52,0,0,1,3.75-.34,10.16,10.16,0,0,1,2.89,1.16,20.57,20.57,0,0,1,7.52,8.42,4.12,4.12,0,0,1,2.07,0A12.86,12.86,0,0,1,1776.27,1014.48Z" transform="translate(-1445.5 -741.31)"/><path class="cls-56" d="M1776.28,1014.48c-2.34,5.49-8.37,8.52-15.09,8.23l-1.78-1-2.82-1.62c-4.52-2.61-8.18-8.93-8.18-14.12,0-3.29,1.48-5.33,3.71-5.71a6.73,6.73,0,0,1,4.47,1c.26.15.51.31.76.47.22-2.66,1.35-4.5,3.05-5.34a5.58,5.58,0,0,1,3.75-.33,10.46,10.46,0,0,1,2.89,1.16,16.78,16.78,0,0,1,3.59,2.86,23.06,23.06,0,0,1,3.93,5.56,4.12,4.12,0,0,1,2.07,0A12.91,12.91,0,0,1,1776.28,1014.48Z" transform="translate(-1445.5 -741.31)"/><path class="cls-125" d="M1771.28,1004.76a18,18,0,0,1-11.87,16.92l-2.82-1.62c-4.52-2.61-8.18-8.93-8.18-14.12,0-3.29,1.48-5.33,3.71-5.71a6.73,6.73,0,0,1,4.47,1c.26.15.51.31.76.47.22-2.66,1.35-4.5,3.05-5.34a5.58,5.58,0,0,1,3.75-.33,10.46,10.46,0,0,1,2.89,1.16,16.78,16.78,0,0,1,3.59,2.86A17.54,17.54,0,0,1,1771.28,1004.76Z" transform="translate(-1445.5 -741.31)"/><path class="cls-34" d="M1901.56,1083.46l-54.37-30.14c-1.1-.61-4,0-4,2.45l1.51,45.49a1.65,1.65,0,0,0,.85,1.44l53.34,31.52c1.1.6,3.48-.26,3.48-2.82v-46.5A1.65,1.65,0,0,0,1901.56,1083.46Z" transform="translate(-1445.5 -741.31)"/><path class="cls-126" d="M1900.48,1084.31l-54.81-30.38a1.65,1.65,0,0,0-2.46,1.45v46.87a1.67,1.67,0,0,0,.86,1.45l54.8,30.37a1.65,1.65,0,0,0,2.46-1.45v-46.86A1.66,1.66,0,0,0,1900.48,1084.31Z" transform="translate(-1445.5 -741.31)"/><path class="cls-36" d="M1888.39,1091.65c0,3.92-.49,14.78-5.71,19l-2.59,2.25-.23-.83a9.27,9.27,0,0,1-4.41,0l-.23,0a44,44,0,0,1-9.78-13.41,76.6,76.6,0,0,1-6.21-19.31l-.1-.09-4.06-3.42h0l3.25-2.82c7.86,3,12.14,1,13.74-.18h0a4.35,4.35,0,0,0,.72-.62l0,0a57.43,57.43,0,0,0,12.21,15.4c1,.94,2.16,1.87,3.33,2.77C1888.36,1090.22,1888.39,1090.75,1888.39,1091.65Z" transform="translate(-1445.5 -741.31)"/><path class="cls-32" d="M1888.36,1090.22l-3.25,2.83-2.12.37-7.06,1.24-.67-1-3.65-5.21-1.5-9.94-.55-3.68,2.5-2.17h0l.72-.62,0,0a57.43,57.43,0,0,0,12.21,15.4C1886.07,1088.39,1887.19,1089.32,1888.36,1090.22Z" transform="translate(-1445.5 -741.31)"/><path class="cls-127" d="M1880.09,1112.87c-1.91,1.87-4.53,2.8-8.12,1.92a44.63,44.63,0,0,1-10.26-14.41,79.82,79.82,0,0,1-6.64-24.66h0c10.36,4,14.49-.83,14.49-.83a57,57,0,0,0,12.37,15.54c1,.9,2,1.77,3.18,2.63C1885.11,1093.05,1885.8,1107.25,1880.09,1112.87Z" transform="translate(-1445.5 -741.31)"/><path class="cls-40" d="M1869.74,1077.84s-3.53,4.12-12.37.71c0,0,1.69,21.89,14.41,33.31,12.25,3,11.21-18.53,11.21-18.53A49,49,0,0,1,1869.74,1077.84Z" transform="translate(-1445.5 -741.31)"/><path class="cls-32" d="M1872.22,1095.56a.87.87,0,0,0,.49-.88,3.37,3.37,0,0,0-1.64-2.58c-.9-.53-1.63-.22-1.63.69a2.93,2.93,0,0,0,.64,1.66.26.26,0,0,1,0,.19l-.63,3.83a.23.23,0,0,0,.12.25l2.63,1.57a.26.26,0,0,0,.38-.26l-.58-4.2A.27.27,0,0,1,1872.22,1095.56Z" transform="translate(-1445.5 -741.31)"/><path class="cls-36" d="M1870.72,1099a.27.27,0,0,1-.12-.26l.64-3.83a.24.24,0,0,0,0-.18,3,3,0,0,1-.64-1.67.86.86,0,0,1,.55-.9h0c-.9-.53-1.63-.22-1.63.69a2.93,2.93,0,0,0,.64,1.66.26.26,0,0,1,0,.19l-.63,3.83a.23.23,0,0,0,.12.25l2.63,1.57a.25.25,0,0,0,.37-.22Z" transform="translate(-1445.5 -741.31)"/><path class="cls-36" d="M1980.79,1304.32l-2.42-1.4.74-1.28.2.11v-5.09h1.48Zm-7.55-4.37-6.83-4,.74-1.28,6.83,4Zm-12-6.93-6.83-4,.74-1.28,6.84,4Zm19.51-2.28h-1.48v-7.9h1.48Zm-31.47-4.65-6.83-4,.75-1.28,6.83,4Zm-12-6.93-6.84-4,.74-1.28,6.84,4Zm43.42-2.25h-1.48V1269h1.48Zm-55.38-4.68-6.83-4,.74-1.28,6.83,4Zm-12-6.93-6.84-4,.75-1.28,6.83,4Zm67.34-2.21h-1.48v-7.89h1.48Zm-79.3-4.72-6.83-4,.74-1.28,6.83,4Zm-12-6.93-6.83-4,.74-1.29,6.83,4Zm91.26-2.17h-1.48v-7.89h1.48Zm-103.22-4.76-6.83-4,.74-1.27,6.84,4Zm-12-6.92-6.83-4,.74-1.29,6.84,4Zm115.18-2.14h-1.48v-7.9h1.48Zm0-13.82h-1.48v-7.9h1.48Zm0-13.82h-1.48v-7.9h1.48Zm0-13.82h-1.48v-7.9h1.48Zm0-13.82h-1.48v-7.9h1.48Zm0-13.82h-1.48v-7.9h1.48Zm0-13.82h-1.48v-7.9h1.48Zm0-13.83h-1.48v-7.89h1.48Z" transform="translate(-1445.5 -741.31)"/><path class="cls-128" d="M1863.12,1282.76s6.86-.52,13.16-6.92c9.3-9.45-18.43-13.92-18.43-13.92l-6.23,12Z" transform="translate(-1445.5 -741.31)"/><path class="cls-41" d="M1808.85,1154.33a17.89,17.89,0,0,1-8.56-14.76h0a10.72,10.72,0,0,0-5.44-9.26l-28.19-16c-7.1-4-13.94.14-13.87,8.47l.63,79.49A17.82,17.82,0,0,0,1762,1217l103.87,59c7.1,4,14-.14,13.87-8.47l-.48-62.28a19.1,19.1,0,0,0-9.66-16.45Z" transform="translate(-1445.5 -741.31)"/><path class="cls-34" d="M1876.86,1273.59c1.45-2.44,1.19-2.4,1.26-4a10.86,10.86,0,0,0,.07-1.28l-.48-62.29a19.1,19.1,0,0,0-9.66-16.44l-60.72-34.49a17.86,17.86,0,0,1-8.56-14.75,10.73,10.73,0,0,0-5.44-9.26l-28.19-16c-7.1-4-14,.14-13.88,8.48l.64,79.49a17.81,17.81,0,0,0,8.55,14.75l92.64,52.62-1.39,2.68,10.79,6s3.06,2.87,10.58-1.84C1874.75,1275.72,1876.1,1274.8,1876.86,1273.59Z" transform="translate(-1445.5 -741.31)"/><path class="cls-129" d="M1860.24,1161.73l-94.67-52.48c-1.9-1.06-6.9,0-6.9,4.26l2.65,108.6a2.88,2.88,0,0,0,1.48,2.51l92.86,54.87c1.91,1.06,6.06-.46,6.06-4.9V1164.24A2.87,2.87,0,0,0,1860.24,1161.73Z" transform="translate(-1445.5 -741.31)"/><path class="cls-130" d="M1858.36,1163.21l-95.42-52.9a2.89,2.89,0,0,0-4.29,2.52v111a2.88,2.88,0,0,0,1.49,2.52l95.42,52.89a2.88,2.88,0,0,0,4.28-2.52v-111A2.88,2.88,0,0,0,1858.36,1163.21Z" transform="translate(-1445.5 -741.31)"/><polygon class="cls-131" points="345.2 492.02 325.57 480.86 325.57 485.5 345.2 496.65 345.2 492.02"/><polygon class="cls-131" points="390.89 518.4 371.26 507.24 371.26 511.88 390.89 523.03 390.89 518.4"/><polygon class="cls-131" points="367.88 505.02 348.24 493.87 348.24 498.51 367.88 509.66 367.88 505.02"/><polygon class="cls-131" points="368.41 467.7 375.84 471.95 375.84 470.21 368.41 465.96 368.41 467.7"/><polygon class="cls-131" points="357.88 461.68 367.01 466.9 367.01 465.16 357.88 459.94 357.88 461.68"/><polygon class="cls-131" points="348.14 456.11 355.08 460.08 355.08 458.33 348.14 454.37 348.14 456.11"/><polygon class="cls-131" points="332.38 447.09 346 454.89 346 453.14 332.38 445.35 332.38 447.09"/><polygon class="cls-131" points="377.95 473.15 405.1 488.44 405.1 486.7 377.95 471.4 377.95 473.15"/><polygon class="cls-131" points="335.99 453.08 342.77 456.95 342.77 455.21 335.99 451.34 335.99 453.08"/><polygon class="cls-131" points="325.39 447.02 332.57 451.13 332.57 449.38 325.39 445.27 325.39 447.02"/><polygon class="cls-131" points="379.48 477.94 405.1 492.37 405.1 490.63 379.48 476.19 379.48 477.94"/><polygon class="cls-131" points="371.46 473.4 378.07 477.14 378.07 475.4 371.46 471.66 371.46 473.4"/><polygon class="cls-131" points="322.46 437.51 343.03 449.27 343.03 447.53 322.46 435.77 322.46 437.51"/><polygon class="cls-131" points="379.48 470.11 405.1 484.54 405.1 482.79 379.48 468.36 379.48 470.11"/><polygon class="cls-131" points="371.46 465.57 378.07 469.31 378.07 467.56 371.46 463.83 371.46 465.57"/><polygon class="cls-131" points="349.74 445.29 372.05 458.06 372.05 456.32 349.74 443.54 349.74 445.29"/><polygon class="cls-131" points="394.69 474.7 405.1 480.63 405.1 478.88 394.69 472.95 394.69 474.7"/><polygon class="cls-131" points="383.49 468.32 391.97 473.15 391.97 471.41 383.49 466.57 383.49 468.32"/><polygon class="cls-131" points="368.33 459.69 381.12 466.97 381.12 465.23 368.33 457.94 368.33 459.69"/><polygon class="cls-131" points="354.31 451.7 366.57 458.69 366.57 456.95 354.31 449.96 354.31 451.7"/><polygon class="cls-131" points="340.11 443.62 352.03 450.41 352.03 448.66 340.11 441.88 340.11 443.62"/><polygon class="cls-131" points="328 436.73 337.92 442.38 337.92 440.63 328 434.99 328 436.73"/><polygon class="cls-131" points="357.88 485.59 375.84 495.86 375.84 494.12 357.88 483.85 357.88 485.59"/><polygon class="cls-131" points="332.38 471 355.08 483.99 355.08 482.24 332.38 469.26 332.38 471"/><polygon class="cls-131" points="322.41 465.3 329.93 469.6 329.93 467.86 322.41 463.55 322.41 465.3"/><polygon class="cls-131" points="377.95 497.06 396.91 507.74 396.91 505.99 377.95 495.31 377.95 497.06"/><polygon class="cls-131" points="345.4 482.37 362.35 492.06 362.35 490.31 345.4 480.62 345.4 482.37"/><polygon class="cls-131" points="363.71 492.84 369.97 496.42 369.97 494.67 363.71 491.1 363.71 492.84"/><polygon class="cls-131" points="335.59 476.76 342.77 480.86 342.77 479.12 335.59 475.02 335.59 476.76"/><polygon class="cls-131" points="326.05 471.3 334.17 475.95 334.17 474.21 326.05 469.56 326.05 471.3"/><polygon class="cls-131" points="371.46 497.31 378.07 501.05 378.07 499.31 371.46 495.57 371.46 497.31"/><polygon class="cls-131" points="334.94 468.56 343.03 473.18 343.03 471.44 334.94 466.81 334.94 468.56"/><polygon class="cls-131" points="325.17 462.97 331.79 466.75 331.79 465.01 325.17 461.23 325.17 462.97"/><polygon class="cls-131" points="379.48 494.01 405.1 508.45 405.1 506.7 379.48 492.27 379.48 494.01"/><polygon class="cls-131" points="371.46 489.48 378.07 493.22 378.07 491.47 371.46 487.74 371.46 489.48"/><polygon class="cls-131" points="362.22 472.26 396.79 491.94 396.79 490.2 362.22 470.51 362.22 472.26"/><polygon class="cls-131" points="349.48 465 358.41 470.09 358.41 468.34 349.48 463.26 349.48 465"/><polygon class="cls-131" points="330.94 454.45 347.16 463.68 347.16 462.03 347.31 462.03 330.94 452.7 330.94 454.45"/><polygon class="cls-131" points="349.74 469.2 372.05 481.97 372.05 480.23 349.74 467.45 349.74 469.2"/><polygon class="cls-131" points="322.54 453.63 346.4 467.29 346.4 465.55 322.54 451.89 322.54 453.63"/><polygon class="cls-131" points="380.14 486.54 405.1 500.6 405.1 498.86 380.14 484.8 380.14 486.54"/><polygon class="cls-131" points="374.95 483.61 378.9 485.84 378.9 484.09 374.95 481.87 374.95 483.61"/><polygon class="cls-131" points="394.69 498.61 405.1 504.54 405.1 502.79 394.69 496.86 394.69 498.61"/><polygon class="cls-131" points="385.1 493.14 391.97 497.06 391.97 495.32 385.1 491.4 385.1 493.14"/><polygon class="cls-131" points="364.42 481.38 383.41 492.18 383.41 490.44 364.42 479.63 364.42 481.38"/><polygon class="cls-131" points="342.3 468.77 351.43 473.98 351.43 472.24 342.3 467.03 342.3 468.77"/><polygon class="cls-131" points="328 460.64 335.77 465.06 335.77 463.32 328 458.89 328 460.64"/><polygon class="cls-131" points="336.96 465.74 340.87 467.97 340.87 466.22 336.96 463.99 336.96 465.74"/><polygon class="cls-131" points="353.57 475.19 362.91 480.51 362.91 478.77 353.57 473.45 353.57 475.19"/><path class="cls-131" d="M1764.59,1165.38h0Z" transform="translate(-1445.5 -741.31)"/><path class="cls-41" d="M1871.51,1272.22a10.47,10.47,0,0,1-2.92,7.83,7.58,7.58,0,0,1-2.67,1.69,9.77,9.77,0,0,1-8.29-1l-16.24-9.22-87.64-49.77a17.83,17.83,0,0,1-8.54-14.75l-.64-79.49a12.57,12.57,0,0,1,.28-2.81,8.83,8.83,0,0,1,3.82-6,7.75,7.75,0,0,1,3.18-1.19h0a10.46,10.46,0,0,1,6.58,1.47l28.2,16a10.61,10.61,0,0,1,3.95,3.89s.06.1.07.13.15.27.23.42a10.86,10.86,0,0,1,1.19,4.81,17.81,17.81,0,0,0,8.55,14.75l29.86,17,20.31,11.53,10.54,6a19.15,19.15,0,0,1,9.67,16.46Z" transform="translate(-1445.5 -741.31)"/><path class="cls-132" d="M1870,1273a11.7,11.7,0,0,1-1.22,5.55,8.2,8.2,0,0,1-2.84,3.2c-2.62,1.71-6.17,1.79-9.82-.28l-20.32-11.55-83.84-47.61a17.86,17.86,0,0,1-8.25-14.6l-.64-79.49a14.55,14.55,0,0,1,.17-2.34c.6-3.63,2.66-6.18,5.45-7.18a8.67,8.67,0,0,1,4.8-.3h0a11.69,11.69,0,0,1,3.44,1.35l28.2,16a9.7,9.7,0,0,1,1.43,1,6.57,6.57,0,0,1,.8.71l0,0a11.13,11.13,0,0,1,1.7,2.18,10.81,10.81,0,0,1,1.48,5.36,17.82,17.82,0,0,0,8.56,14.75l31.38,17.83,20.31,11.53,9,5.12a19.09,19.09,0,0,1,9.66,16.44Z" transform="translate(-1445.5 -741.31)"/><path class="cls-4" d="M1810.53,1200.88v-10c0-4.33-3.36-9.59-7.65-12-2.31-1.29-4.58-1.55-6.27-.7a4.89,4.89,0,0,0-2.47,4.67V1192l-5.67-3.08-.57,27.54c-.11,5.94,5.87,14,13.37,18.11s13.69,2.56,13.8-3.38l.57-27.55Zm-6.58,19.85a.41.41,0,0,1-.61.4l-4.28-2.54a.4.4,0,0,1-.2-.41l1.05-6.23a.49.49,0,0,0-.09-.31,4.72,4.72,0,0,1-1-2.68c0-1.49,1.21-2,2.67-1.14a5.57,5.57,0,0,1,2.66,4.2,1.45,1.45,0,0,1-.78,1.44.42.42,0,0,0-.31.44Zm3.39-21.58-10-5.42v-10.24a2.44,2.44,0,0,1,1.12-2.36,3.78,3.78,0,0,1,3.36.5c3,1.68,5.55,5.64,5.55,8.61Z" transform="translate(-1445.5 -741.31)"/></g></g></svg>